<?xml version="1.0" encoding="UTF-8" standalone="no"?>
<!DOCTYPE svg PUBLIC "-//W3C//DTD SVG 1.1//EN"
 "http://www.w3.org/Graphics/SVG/1.1/DTD/svg11.dtd">
<!-- Generated by graphviz version 2.43.0 (0)
 -->
<!-- Title: BuggySoftware/BuggySoftware.ino Pages: 1 -->
<!--zoomable 302 -->

<svg id="main" version="1.1" xmlns="http://www.w3.org/2000/svg" xmlns:xlink="http://www.w3.org/1999/xlink" xml:space="preserve" onload="init(evt)">

<style type="text/css"><![CDATA[
.node, .edge {opacity: 0.7;}
.node.selected, .edge.selected {opacity: 1;}
.edge:hover path { stroke: red; }
.edge:hover polygon { stroke: red; fill: red; }
]]></style>

<defs>
  <circle id="rim" cx="0" cy="0" r="7"/>
  <circle id="rim2" cx="0" cy="0" r="3.5"/>
  <g id="zoomPlus">
    <use xlink:href="#rim" fill="#404040"><set attributeName="fill" to="#808080" begin="zoomplus.mouseover" end="zoomplus.mouseout"/></use>
    <path d="M-4,0h8M0,-4v8" fill="none" stroke="white" stroke-width="1.5" pointer-events="none"/>
  </g>
  <g id="zoomMin">
    <use xlink:href="#rim" fill="#404040"><set attributeName="fill" to="#808080" begin="zoomminus.mouseover" end="zoomminus.mouseout"/></use>
    <path d="M-4,0h8" fill="none" stroke="white" stroke-width="1.5" pointer-events="none"/>
  </g>
  <g id="arrowUp" transform="translate(30 24)">
    <use xlink:href="#rim"/>
    <path pointer-events="none" fill="none" stroke="white" stroke-width="1.5" d="M0,-3.0v7 M-2.5,-0.5L0,-3.0L2.5,-0.5"/>
  </g>
  <g id="arrowRight" transform="rotate(90) translate(36 -43)">
    <use xlink:href="#rim"/>
    <path pointer-events="none" fill="none" stroke="white" stroke-width="1.5" d="M0,-3.0v7 M-2.5,-0.5L0,-3.0L2.5,-0.5"/>
  </g>
  <g id="arrowDown" transform="rotate(180) translate(-30 -48)">
    <use xlink:href="#rim"/>
    <path pointer-events="none" fill="none" stroke="white" stroke-width="1.5" d="M0,-3.0v7 M-2.5,-0.5L0,-3.0L2.5,-0.5"/>
  </g>
  <g id="arrowLeft" transform="rotate(270) translate(-36 17)">
    <use xlink:href="#rim"/>
    <path pointer-events="none" fill="none" stroke="white" stroke-width="1.5" d="M0,-3.0v7 M-2.5,-0.5L0,-3.0L2.5,-0.5"/>
  </g>
  <g id="resetDef">
    <use xlink:href="#rim2" fill="#404040"><set attributeName="fill" to="#808080" begin="reset.mouseover" end="reset.mouseout"/></use>
  </g>
</defs>
<script type="application/ecmascript">
var viewWidth = 986;
var viewHeight = 302;
var sectionId = 'dynsection-0';
</script>
<script type="application/ecmascript" xlink:href="svg.min.js"/>
<svg id="graph" class="graph">
<g id="viewport">
<title>BuggySoftware/BuggySoftware.ino</title>
<!-- Node1 -->
<g id="Node000001" class="node">
<title>Node1</title>
<g id="a_Node000001"><a xlink:title="This is the main entry point for the Buggy software.">
<polygon fill="#999999" stroke="#666666" points="648.5,-294 463.5,-294 463.5,-275 648.5,-275 648.5,-294"/>
<text text-anchor="middle" x="556" y="-282" font-family="Helvetica,sans-Serif" font-size="10.00">BuggySoftware/BuggySoftware.ino</text>
</a>
</g>
</g>
<!-- Node2 -->
<g id="Node000002" class="node">
<title>Node2</title>
<g id="a_Node000002"><a xlink:title=" ">
<polygon fill="#e0e0e0" stroke="#999999" points="180.5,-19 117.5,-19 117.5,0 180.5,0 180.5,-19"/>
<text text-anchor="middle" x="149" y="-7" font-family="Helvetica,sans-Serif" font-size="10.00">Arduino.h</text>
</a>
</g>
</g>
<!-- Node1&#45;&gt;Node2 -->
<g id="edge1_Node000001_Node000002" class="edge">
<title>Node1&#45;&gt;Node2</title>
<g id="a_edge1_Node000001_Node000002"><a xlink:title=" ">
<path fill="none" stroke="#63b8ff" d="M463.25,-284.29C305.06,-283.1 0,-268.73 0,-175.5 0,-175.5 0,-175.5 0,-118.5 0,-65.04 63.67,-35.32 107.77,-21.15"/>
<polygon fill="#63b8ff" stroke="#63b8ff" points="108.87,-24.47 117.4,-18.2 106.81,-17.78 108.87,-24.47"/>
</a>
</g>
</g>
<!-- Node3 -->
<g id="Node000003" class="node">
<title>Node3</title>
<g id="a_Node000003"><a xlink:href="Timer1_8hpp.html" target="_top" xlink:title="Setup methods for Timer1.">
<polygon fill="white" stroke="#666666" points="939,-239 867,-239 867,-220 939,-220 939,-239"/>
<text text-anchor="middle" x="903" y="-227" font-family="Helvetica,sans-Serif" font-size="10.00">Timer1.hpp</text>
</a>
</g>
</g>
<!-- Node1&#45;&gt;Node3 -->
<g id="edge2_Node000001_Node000003" class="edge">
<title>Node1&#45;&gt;Node3</title>
<g id="a_edge2_Node000001_Node000003"><a xlink:title=" ">
<path fill="none" stroke="#63b8ff" d="M611.75,-274.98C679.62,-264.62 793.02,-247.3 856.44,-237.61"/>
<polygon fill="#63b8ff" stroke="#63b8ff" points="857.19,-241.04 866.55,-236.07 856.13,-234.12 857.19,-241.04"/>
</a>
</g>
</g>
<!-- Node5 -->
<g id="Node000005" class="node">
<title>Node5</title>
<g id="a_Node000005"><a xlink:href="PinSetup_8hpp_source.html" target="_top" xlink:title=" ">
<polygon fill="white" stroke="#666666" points="238,-74 158,-74 158,-55 238,-55 238,-74"/>
<text text-anchor="middle" x="198" y="-62" font-family="Helvetica,sans-Serif" font-size="10.00">PinSetup.hpp</text>
</a>
</g>
</g>
<!-- Node1&#45;&gt;Node5 -->
<g id="edge4_Node000001_Node000005" class="edge">
<title>Node1&#45;&gt;Node5</title>
<g id="a_edge4_Node000001_Node000005"><a xlink:title=" ">
<path fill="none" stroke="#63b8ff" d="M476.22,-274.95C407.23,-263.98 308.13,-239.24 240,-184 209.58,-159.33 201.17,-111.02 198.86,-84.34"/>
<polygon fill="#63b8ff" stroke="#63b8ff" points="202.33,-83.8 198.18,-74.05 195.35,-84.26 202.33,-83.8"/>
</a>
</g>
</g>
<!-- Node7 -->
<g id="Node000007" class="node">
<title>Node7</title>
<g id="a_Node000007"><a xlink:href="Logger_8hpp_source.html" target="_top" xlink:title=" ">
<polygon fill="white" stroke="#666666" points="810,-239 740,-239 740,-220 810,-220 810,-239"/>
<text text-anchor="middle" x="775" y="-227" font-family="Helvetica,sans-Serif" font-size="10.00">Logger.hpp</text>
</a>
</g>
</g>
<!-- Node1&#45;&gt;Node7 -->
<g id="edge7_Node000001_Node000007" class="edge">
<title>Node1&#45;&gt;Node7</title>
<g id="a_edge7_Node000001_Node000007"><a xlink:title=" ">
<path fill="none" stroke="#63b8ff" d="M591.19,-274.98C628.94,-265.85 689.01,-251.31 730.14,-241.36"/>
<polygon fill="#63b8ff" stroke="#63b8ff" points="731.01,-244.75 739.9,-238.99 729.36,-237.94 731.01,-244.75"/>
</a>
</g>
</g>
<!-- Node18 -->
<g id="Node000018" class="node">
<title>Node18</title>
<g id="a_Node000018"><a xlink:href="Buggy_8hpp_source.html" target="_top" xlink:title=" ">
<polygon fill="white" stroke="#666666" points="502.5,-239 435.5,-239 435.5,-220 502.5,-220 502.5,-239"/>
<text text-anchor="middle" x="469" y="-227" font-family="Helvetica,sans-Serif" font-size="10.00">Buggy.hpp</text>
</a>
</g>
</g>
<!-- Node1&#45;&gt;Node18 -->
<g id="edge20_Node000001_Node000018" class="edge">
<title>Node1&#45;&gt;Node18</title>
<g id="a_edge20_Node000001_Node000018"><a xlink:title=" ">
<path fill="none" stroke="#63b8ff" d="M542.02,-274.98C528.53,-266.77 507.87,-254.18 491.96,-244.49"/>
<polygon fill="#63b8ff" stroke="#63b8ff" points="493.59,-241.38 483.23,-239.17 489.95,-247.36 493.59,-241.38"/>
</a>
</g>
</g>
<!-- Node20 -->
<g id="Node000020" class="node">
<title>Node20</title>
<g id="a_Node000020"><a xlink:href="PIDController_8hpp_source.html" target="_top" xlink:title=" ">
<polygon fill="white" stroke="#666666" points="398.5,-74 297.5,-74 297.5,-55 398.5,-55 398.5,-74"/>
<text text-anchor="middle" x="348" y="-62" font-family="Helvetica,sans-Serif" font-size="10.00">PIDController.hpp</text>
</a>
</g>
</g>
<!-- Node1&#45;&gt;Node20 -->
<g id="edge43_Node000001_Node000020" class="edge">
<title>Node1&#45;&gt;Node20</title>
<g id="a_edge43_Node000001_Node000020"><a xlink:title=" ">
<path fill="none" stroke="#63b8ff" d="M555.06,-274.93C551.43,-246.34 535.65,-153.61 480,-110 459.25,-93.74 432.25,-83.26 408.07,-76.59"/>
<polygon fill="#63b8ff" stroke="#63b8ff" points="408.82,-73.17 398.27,-74.04 407.06,-79.94 408.82,-73.17"/>
</a>
</g>
</g>
<!-- Node25 -->
<g id="Node000025" class="node">
<title>Node25</title>
<g id="a_Node000025"><a xlink:href="PacketFactory_8hpp_source.html" target="_top" xlink:title=" ">
<polygon fill="white" stroke="#666666" points="763.5,-184 660.5,-184 660.5,-165 763.5,-165 763.5,-184"/>
<text text-anchor="middle" x="712" y="-172" font-family="Helvetica,sans-Serif" font-size="10.00">PacketFactory.hpp</text>
</a>
</g>
</g>
<!-- Node1&#45;&gt;Node25 -->
<g id="edge44_Node000001_Node000025" class="edge">
<title>Node1&#45;&gt;Node25</title>
<g id="a_edge44_Node000001_Node000025"><a xlink:title=" ">
<path fill="none" stroke="#63b8ff" d="M568.5,-274.84C595.2,-256.36 658.04,-212.86 690.99,-190.05"/>
<polygon fill="#63b8ff" stroke="#63b8ff" points="693.21,-192.77 699.44,-184.2 689.22,-187.01 693.21,-192.77"/>
</a>
</g>
</g>
<!-- Node4 -->
<g id="Node000004" class="node">
<title>Node4</title>
<g id="a_Node000004"><a xlink:title=" ">
<polygon fill="#e0e0e0" stroke="#999999" points="977.5,-184 906.5,-184 906.5,-165 977.5,-165 977.5,-184"/>
<text text-anchor="middle" x="942" y="-172" font-family="Helvetica,sans-Serif" font-size="10.00">FspTimer.h</text>
</a>
</g>
</g>
<!-- Node3&#45;&gt;Node4 -->
<g id="edge3_Node000003_Node000004" class="edge">
<title>Node3&#45;&gt;Node4</title>
<g id="a_edge3_Node000003_Node000004"><a xlink:title=" ">
<path fill="none" stroke="#63b8ff" d="M909.44,-219.75C914.89,-212.34 922.86,-201.5 929.56,-192.41"/>
<polygon fill="#63b8ff" stroke="#63b8ff" points="932.57,-194.22 935.68,-184.09 926.93,-190.07 932.57,-194.22"/>
</a>
</g>
</g>
<!-- Node5&#45;&gt;Node2 -->
<g id="edge6_Node000005_Node000002" class="edge">
<title>Node5&#45;&gt;Node2</title>
<g id="a_edge6_Node000005_Node000002"><a xlink:title=" ">
<path fill="none" stroke="#63b8ff" d="M189.91,-54.75C182.84,-47.11 172.41,-35.82 163.85,-26.56"/>
<polygon fill="#63b8ff" stroke="#63b8ff" points="166.3,-24.06 156.94,-19.09 161.16,-28.81 166.3,-24.06"/>
</a>
</g>
</g>
<!-- Node6 -->
<g id="Node000006" class="node">
<title>Node6</title>
<g id="a_Node000006"><a xlink:href="helpers_8hpp_source.html" target="_top" xlink:title=" ">
<polygon fill="white" stroke="#666666" points="283,-19 209,-19 209,0 283,0 283,-19"/>
<text text-anchor="middle" x="246" y="-7" font-family="Helvetica,sans-Serif" font-size="10.00">helpers.hpp</text>
</a>
</g>
</g>
<!-- Node5&#45;&gt;Node6 -->
<g id="edge5_Node000005_Node000006" class="edge">
<title>Node5&#45;&gt;Node6</title>
<g id="a_edge5_Node000005_Node000006"><a xlink:title=" ">
<path fill="none" stroke="#63b8ff" d="M205.93,-54.75C212.85,-47.11 223.07,-35.82 231.45,-26.56"/>
<polygon fill="#63b8ff" stroke="#63b8ff" points="234.1,-28.85 238.22,-19.09 228.91,-24.15 234.1,-28.85"/>
</a>
</g>
</g>
<!-- Node8 -->
<g id="Node000008" class="node">
<title>Node8</title>
<g id="a_Node000008"><a xlink:href="LeanStreamIO_8hpp_source.html" target="_top" xlink:title=" ">
<polygon fill="white" stroke="#666666" points="888.5,-184 781.5,-184 781.5,-165 888.5,-165 888.5,-184"/>
<text text-anchor="middle" x="835" y="-172" font-family="Helvetica,sans-Serif" font-size="10.00">LeanStreamIO.hpp</text>
</a>
</g>
</g>
<!-- Node7&#45;&gt;Node8 -->
<g id="edge8_Node000007_Node000008" class="edge">
<title>Node7&#45;&gt;Node8</title>
<g id="a_edge8_Node000007_Node000008"><a xlink:title=" ">
<path fill="none" stroke="#63b8ff" d="M784.64,-219.98C793.51,-212.15 806.87,-200.34 817.61,-190.86"/>
<polygon fill="#63b8ff" stroke="#63b8ff" points="820.01,-193.41 825.18,-184.17 815.37,-188.17 820.01,-193.41"/>
</a>
</g>
</g>
<!-- Node9 -->
<g id="Node000009" class="node">
<title>Node9</title>
<g id="a_Node000009"><a xlink:title=" ">
<polygon fill="#e0e0e0" stroke="#999999" points="953,-129 909,-129 909,-110 953,-110 953,-129"/>
<text text-anchor="middle" x="931" y="-117" font-family="Helvetica,sans-Serif" font-size="10.00">string</text>
</a>
</g>
</g>
<!-- Node8&#45;&gt;Node9 -->
<g id="edge9_Node000008_Node000009" class="edge">
<title>Node8&#45;&gt;Node9</title>
<g id="a_edge9_Node000008_Node000009"><a xlink:title=" ">
<path fill="none" stroke="#63b8ff" d="M850.42,-164.98C865.45,-156.69 888.54,-143.94 906.16,-134.22"/>
<polygon fill="#63b8ff" stroke="#63b8ff" points="908.23,-137.07 915.3,-129.17 904.85,-130.94 908.23,-137.07"/>
</a>
</g>
</g>
<!-- Node10 -->
<g id="Node000010" class="node">
<title>Node10</title>
<g id="a_Node000010"><a xlink:title=" ">
<polygon fill="#e0e0e0" stroke="#999999" points="822.5,-129 769.5,-129 769.5,-110 822.5,-110 822.5,-129"/>
<text text-anchor="middle" x="796" y="-117" font-family="Helvetica,sans-Serif" font-size="10.00">cstddef</text>
</a>
</g>
</g>
<!-- Node8&#45;&gt;Node10 -->
<g id="edge10_Node000008_Node000010" class="edge">
<title>Node8&#45;&gt;Node10</title>
<g id="a_edge10_Node000008_Node000010"><a xlink:title=" ">
<path fill="none" stroke="#63b8ff" d="M828.56,-164.75C823.11,-157.34 815.14,-146.5 808.44,-137.41"/>
<polygon fill="#63b8ff" stroke="#63b8ff" points="811.07,-135.07 802.32,-129.09 805.43,-139.22 811.07,-135.07"/>
</a>
</g>
</g>
<!-- Node11 -->
<g id="Node000011" class="node">
<title>Node11</title>
<g id="a_Node000011"><a xlink:title=" ">
<polygon fill="#e0e0e0" stroke="#999999" points="891,-129 841,-129 841,-110 891,-110 891,-129"/>
<text text-anchor="middle" x="866" y="-117" font-family="Helvetica,sans-Serif" font-size="10.00">cstring</text>
</a>
</g>
</g>
<!-- Node8&#45;&gt;Node11 -->
<g id="edge11_Node000008_Node000011" class="edge">
<title>Node8&#45;&gt;Node11</title>
<g id="a_edge11_Node000008_Node000011"><a xlink:title=" ">
<path fill="none" stroke="#63b8ff" d="M840.12,-164.75C844.36,-157.49 850.53,-146.95 855.78,-137.98"/>
<polygon fill="#63b8ff" stroke="#63b8ff" points="858.95,-139.49 860.98,-129.09 852.91,-135.95 858.95,-139.49"/>
</a>
</g>
</g>
<!-- Node12 -->
<g id="Node000012" class="node">
<title>Node12</title>
<g id="a_Node000012"><a xlink:href="BuggyTCP_8hpp_source.html" target="_top" xlink:title=" ">
<polygon fill="white" stroke="#666666" points="707.5,-129 622.5,-129 622.5,-110 707.5,-110 707.5,-129"/>
<text text-anchor="middle" x="665" y="-117" font-family="Helvetica,sans-Serif" font-size="10.00">BuggyTCP.hpp</text>
</a>
</g>
</g>
<!-- Node8&#45;&gt;Node12 -->
<g id="edge12_Node000008_Node000012" class="edge">
<title>Node8&#45;&gt;Node12</title>
<g id="a_edge12_Node000008_Node000012"><a xlink:title=" ">
<path fill="none" stroke="#63b8ff" d="M807.69,-164.98C779.15,-156.09 734.17,-142.07 702.36,-132.15"/>
<polygon fill="#63b8ff" stroke="#63b8ff" points="703.12,-128.72 692.53,-129.08 701.03,-135.4 703.12,-128.72"/>
</a>
</g>
</g>
<!-- Node13 -->
<g id="Node000013" class="node">
<title>Node13</title>
<g id="a_Node000013"><a xlink:href="BuggyWifi_8hpp_source.html" target="_top" xlink:title=" ">
<polygon fill="white" stroke="#666666" points="542.5,-74 455.5,-74 455.5,-55 542.5,-55 542.5,-74"/>
<text text-anchor="middle" x="499" y="-62" font-family="Helvetica,sans-Serif" font-size="10.00">BuggyWifi.hpp</text>
</a>
</g>
</g>
<!-- Node12&#45;&gt;Node13 -->
<g id="edge13_Node000012_Node000013" class="edge">
<title>Node12&#45;&gt;Node13</title>
<g id="a_edge13_Node000012_Node000013"><a xlink:title=" ">
<path fill="none" stroke="#63b8ff" d="M638.33,-109.98C610.46,-101.09 566.55,-87.07 535.48,-77.15"/>
<polygon fill="#63b8ff" stroke="#63b8ff" points="536.47,-73.79 525.88,-74.08 534.34,-80.46 536.47,-73.79"/>
</a>
</g>
</g>
<!-- Node16 -->
<g id="Node000016" class="node">
<title>Node16</title>
<g id="a_Node000016"><a xlink:href="PacketTypes_8hpp_source.html" target="_top" xlink:title=" ">
<polygon fill="white" stroke="#666666" points="751.5,-19 654.5,-19 654.5,0 751.5,0 751.5,-19"/>
<text text-anchor="middle" x="703" y="-7" font-family="Helvetica,sans-Serif" font-size="10.00">PacketTypes.hpp</text>
</a>
</g>
</g>
<!-- Node12&#45;&gt;Node16 -->
<g id="edge17_Node000012_Node000016" class="edge">
<title>Node12&#45;&gt;Node16</title>
<g id="a_edge17_Node000012_Node000016"><a xlink:title=" ">
<path fill="none" stroke="#63b8ff" d="M669.08,-109.75C673.15,-100.86 679.43,-86.64 684,-74 689.39,-59.1 694.48,-41.86 698.03,-29.11"/>
<polygon fill="#63b8ff" stroke="#63b8ff" points="701.47,-29.8 700.72,-19.23 694.72,-27.96 701.47,-29.8"/>
</a>
</g>
</g>
<!-- Node17 -->
<g id="Node000017" class="node">
<title>Node17</title>
<g id="a_Node000017"><a xlink:href="PacketSerializer_8hpp_source.html" target="_top" xlink:title=" ">
<polygon fill="white" stroke="#666666" points="675,-74 561,-74 561,-55 675,-55 675,-74"/>
<text text-anchor="middle" x="618" y="-62" font-family="Helvetica,sans-Serif" font-size="10.00">PacketSerializer.hpp</text>
</a>
</g>
</g>
<!-- Node12&#45;&gt;Node17 -->
<g id="edge18_Node000012_Node000017" class="edge">
<title>Node12&#45;&gt;Node17</title>
<g id="a_edge18_Node000012_Node000017"><a xlink:title=" ">
<path fill="none" stroke="#63b8ff" d="M657.24,-109.75C650.53,-102.18 640.66,-91.05 632.49,-81.84"/>
<polygon fill="#63b8ff" stroke="#63b8ff" points="634.87,-79.25 625.62,-74.09 629.63,-83.89 634.87,-79.25"/>
</a>
</g>
</g>
<!-- Node13&#45;&gt;Node6 -->
<g id="edge14_Node000013_Node000006" class="edge">
<title>Node13&#45;&gt;Node6</title>
<g id="a_edge14_Node000013_Node000006"><a xlink:title=" ">
<path fill="none" stroke="#63b8ff" d="M458.35,-54.98C413.32,-45.55 340.82,-30.36 293.29,-20.41"/>
<polygon fill="#63b8ff" stroke="#63b8ff" points="293.76,-16.93 283.25,-18.3 292.32,-23.78 293.76,-16.93"/>
</a>
</g>
</g>
<!-- Node14 -->
<g id="Node000014" class="node">
<title>Node14</title>
<g id="a_Node000014"><a xlink:title=" ">
<polygon fill="#e0e0e0" stroke="#999999" points="489.5,-19 430.5,-19 430.5,0 489.5,0 489.5,-19"/>
<text text-anchor="middle" x="460" y="-7" font-family="Helvetica,sans-Serif" font-size="10.00">WiFiS3.h</text>
</a>
</g>
</g>
<!-- Node13&#45;&gt;Node14 -->
<g id="edge15_Node000013_Node000014" class="edge">
<title>Node13&#45;&gt;Node14</title>
<g id="a_edge15_Node000013_Node000014"><a xlink:title=" ">
<path fill="none" stroke="#63b8ff" d="M492.56,-54.75C487.11,-47.34 479.14,-36.5 472.44,-27.41"/>
<polygon fill="#63b8ff" stroke="#63b8ff" points="475.07,-25.07 466.32,-19.09 469.43,-29.22 475.07,-25.07"/>
</a>
</g>
</g>
<!-- Node15 -->
<g id="Node000015" class="node">
<title>Node15</title>
<g id="a_Node000015"><a xlink:href="secrets_8h_source.html" target="_top" xlink:title=" ">
<polygon fill="white" stroke="#666666" points="568.5,-19 507.5,-19 507.5,0 568.5,0 568.5,-19"/>
<text text-anchor="middle" x="538" y="-7" font-family="Helvetica,sans-Serif" font-size="10.00">secrets.h</text>
</a>
</g>
</g>
<!-- Node13&#45;&gt;Node15 -->
<g id="edge16_Node000013_Node000015" class="edge">
<title>Node13&#45;&gt;Node15</title>
<g id="a_edge16_Node000013_Node000015"><a xlink:title=" ">
<path fill="none" stroke="#63b8ff" d="M505.44,-54.75C510.89,-47.34 518.86,-36.5 525.56,-27.41"/>
<polygon fill="#63b8ff" stroke="#63b8ff" points="528.57,-29.22 531.68,-19.09 522.93,-25.07 528.57,-29.22"/>
</a>
</g>
</g>
<!-- Node17&#45;&gt;Node16 -->
<g id="edge19_Node000017_Node000016" class="edge">
<title>Node17&#45;&gt;Node16</title>
<g id="a_edge19_Node000017_Node000016"><a xlink:title=" ">
<path fill="none" stroke="#63b8ff" d="M631.66,-54.98C644.84,-46.77 665.03,-34.18 680.57,-24.49"/>
<polygon fill="#63b8ff" stroke="#63b8ff" points="682.46,-27.43 689.09,-19.17 678.76,-21.49 682.46,-27.43"/>
</a>
</g>
</g>
<!-- Node18&#45;&gt;Node5 -->
<g id="edge29_Node000018_Node000005" class="edge">
<title>Node18&#45;&gt;Node5</title>
<g id="a_edge29_Node000018_Node000005"><a xlink:title=" ">
<path fill="none" stroke="#63b8ff" d="M435.09,-224.68C383.64,-218.33 288.98,-204.24 262,-184 228.45,-158.83 210.5,-110.75 202.75,-84.23"/>
<polygon fill="#63b8ff" stroke="#63b8ff" points="206.05,-83.03 200.04,-74.31 199.3,-84.88 206.05,-83.03"/>
</a>
</g>
</g>
<!-- Node18&#45;&gt;Node8 -->
<g id="edge42_Node000018_Node000008" class="edge">
<title>Node18&#45;&gt;Node8</title>
<g id="a_edge42_Node000018_Node000008"><a xlink:title=" ">
<path fill="none" stroke="#63b8ff" d="M502.78,-223.61C563.75,-214.78 693.1,-196.05 771.19,-184.74"/>
<polygon fill="#63b8ff" stroke="#63b8ff" points="771.99,-188.16 781.39,-183.26 770.99,-181.23 771.99,-188.16"/>
</a>
</g>
</g>
<!-- Node18&#45;&gt;Node12 -->
<g id="edge26_Node000018_Node000012" class="edge">
<title>Node18&#45;&gt;Node12</title>
<g id="a_edge26_Node000018_Node000012"><a xlink:title=" ">
<path fill="none" stroke="#63b8ff" d="M502.59,-222.92C532.16,-216.85 575.46,-205.07 608,-184 626.77,-171.85 643.22,-151.95 653.56,-137.67"/>
<polygon fill="#63b8ff" stroke="#63b8ff" points="656.6,-139.43 659.44,-129.23 650.85,-135.43 656.6,-139.43"/>
</a>
</g>
</g>
<!-- Node18&#45;&gt;Node13 -->
<g id="edge25_Node000018_Node000013" class="edge">
<title>Node18&#45;&gt;Node13</title>
<g id="a_edge25_Node000018_Node000013"><a xlink:title=" ">
<path fill="none" stroke="#63b8ff" d="M482.78,-219.82C493.82,-211.99 508.49,-199.35 515,-184 529.19,-150.54 516.48,-107.41 507.04,-83.5"/>
<polygon fill="#63b8ff" stroke="#63b8ff" points="510.25,-82.11 503.15,-74.24 503.79,-84.81 510.25,-82.11"/>
</a>
</g>
</g>
<!-- Node19 -->
<g id="Node000019" class="node">
<title>Node19</title>
<g id="a_Node000019"><a xlink:href="MotorDriver_8hpp_source.html" target="_top" xlink:title=" ">
<polygon fill="white" stroke="#666666" points="337.5,-129 242.5,-129 242.5,-110 337.5,-110 337.5,-129"/>
<text text-anchor="middle" x="290" y="-117" font-family="Helvetica,sans-Serif" font-size="10.00">MotorDriver.hpp</text>
</a>
</g>
</g>
<!-- Node18&#45;&gt;Node19 -->
<g id="edge21_Node000018_Node000019" class="edge">
<title>Node18&#45;&gt;Node19</title>
<g id="a_edge21_Node000018_Node000019"><a xlink:title=" ">
<path fill="none" stroke="#63b8ff" d="M435.21,-225.89C384.17,-221.16 291.2,-209.24 271,-184 260.37,-170.71 268.36,-151.59 277.01,-137.8"/>
<polygon fill="#63b8ff" stroke="#63b8ff" points="280.1,-139.48 282.88,-129.25 274.33,-135.52 280.1,-139.48"/>
</a>
</g>
</g>
<!-- Node21 -->
<g id="Node000021" class="node">
<title>Node21</title>
<g id="a_Node000021"><a xlink:href="IrSensor_8hpp_source.html" target="_top" xlink:title=" ">
<polygon fill="white" stroke="#666666" points="471.5,-129 394.5,-129 394.5,-110 471.5,-110 471.5,-129"/>
<text text-anchor="middle" x="433" y="-117" font-family="Helvetica,sans-Serif" font-size="10.00">IrSensor.hpp</text>
</a>
</g>
</g>
<!-- Node18&#45;&gt;Node21 -->
<g id="edge27_Node000018_Node000021" class="edge">
<title>Node18&#45;&gt;Node21</title>
<g id="a_edge27_Node000018_Node000021"><a xlink:title=" ">
<path fill="none" stroke="#63b8ff" d="M478.5,-219.74C490.71,-207.38 509.19,-184.16 499,-165 491.69,-151.25 478.03,-140.99 465.03,-133.8"/>
<polygon fill="#63b8ff" stroke="#63b8ff" points="466.28,-130.51 455.78,-129.11 463.11,-136.75 466.28,-130.51"/>
</a>
</g>
</g>
<!-- Node22 -->
<g id="Node000022" class="node">
<title>Node22</title>
<g id="a_Node000022"><a xlink:href="LineFollower_8hpp_source.html" target="_top" xlink:title=" ">
<polygon fill="white" stroke="#666666" points="378,-184 280,-184 280,-165 378,-165 378,-184"/>
<text text-anchor="middle" x="329" y="-172" font-family="Helvetica,sans-Serif" font-size="10.00">LineFollower.hpp</text>
</a>
</g>
</g>
<!-- Node18&#45;&gt;Node22 -->
<g id="edge30_Node000018_Node000022" class="edge">
<title>Node18&#45;&gt;Node22</title>
<g id="a_edge30_Node000018_Node000022"><a xlink:title=" ">
<path fill="none" stroke="#63b8ff" d="M446.51,-219.98C423.48,-211.27 387.46,-197.63 361.37,-187.75"/>
<polygon fill="#63b8ff" stroke="#63b8ff" points="362.49,-184.44 351.9,-184.17 360.02,-190.98 362.49,-184.44"/>
</a>
</g>
</g>
<!-- Node23 -->
<g id="Node000023" class="node">
<title>Node23</title>
<g id="a_Node000023"><a xlink:href="BuggyState_8hpp_source.html" target="_top" xlink:title=" ">
<polygon fill="white" stroke="#666666" points="490,-184 396,-184 396,-165 490,-165 490,-184"/>
<text text-anchor="middle" x="443" y="-172" font-family="Helvetica,sans-Serif" font-size="10.00">BuggyState.hpp</text>
</a>
</g>
</g>
<!-- Node18&#45;&gt;Node23 -->
<g id="edge34_Node000018_Node000023" class="edge">
<title>Node18&#45;&gt;Node23</title>
<g id="a_edge34_Node000018_Node000023"><a xlink:title=" ">
<path fill="none" stroke="#63b8ff" d="M459.54,-219.75C454.53,-212.65 449.08,-202.4 445.42,-193.56"/>
<polygon fill="#63b8ff" stroke="#63b8ff" points="448.71,-192.36 442.08,-184.09 442.11,-194.68 448.71,-192.36"/>
</a>
</g>
</g>
<!-- Node24 -->
<g id="Node000024" class="node">
<title>Node24</title>
<g id="a_Node000024"><a xlink:href="UltrasonicSensor_8hpp_source.html" target="_top" xlink:title=" ">
<polygon fill="white" stroke="#666666" points="147.5,-129 28.5,-129 28.5,-110 147.5,-110 147.5,-129"/>
<text text-anchor="middle" x="88" y="-117" font-family="Helvetica,sans-Serif" font-size="10.00">UltrasonicSensor.hpp</text>
</a>
</g>
</g>
<!-- Node18&#45;&gt;Node24 -->
<g id="edge36_Node000018_Node000024" class="edge">
<title>Node18&#45;&gt;Node24</title>
<g id="a_edge36_Node000018_Node000024"><a xlink:title=" ">
<path fill="none" stroke="#63b8ff" d="M435.35,-226.72C383.48,-223.15 281.45,-212.8 200,-184 165.7,-171.87 129.75,-149.5 108.1,-134.81"/>
<polygon fill="#63b8ff" stroke="#63b8ff" points="109.97,-131.84 99.75,-129.04 105.99,-137.6 109.97,-131.84"/>
</a>
</g>
</g>
<!-- Node18&#45;&gt;Node25 -->
<g id="edge40_Node000018_Node000025" class="edge">
<title>Node18&#45;&gt;Node25</title>
<g id="a_edge40_Node000018_Node000025"><a xlink:title=" ">
<path fill="none" stroke="#63b8ff" d="M502.53,-221.19C544.1,-212.12 615.29,-196.59 662.98,-186.19"/>
<polygon fill="#63b8ff" stroke="#63b8ff" points="663.76,-189.6 672.78,-184.05 662.27,-182.76 663.76,-189.6"/>
</a>
</g>
</g>
<!-- Node19&#45;&gt;Node2 -->
<g id="edge24_Node000019_Node000002" class="edge">
<title>Node19&#45;&gt;Node2</title>
<g id="a_edge24_Node000019_Node000002"><a xlink:title=" ">
<path fill="none" stroke="#63b8ff" d="M285.94,-109.57C279.44,-96.13 265.52,-70.63 247,-55 229.77,-40.46 207.02,-29.75 187.78,-22.48"/>
<polygon fill="#63b8ff" stroke="#63b8ff" points="188.97,-19.18 178.37,-19.09 186.59,-25.77 188.97,-19.18"/>
</a>
</g>
</g>
<!-- Node19&#45;&gt;Node5 -->
<g id="edge22_Node000019_Node000005" class="edge">
<title>Node19&#45;&gt;Node5</title>
<g id="a_edge22_Node000019_Node000005"><a xlink:title=" ">
<path fill="none" stroke="#63b8ff" d="M275.22,-109.98C260.82,-101.69 238.69,-88.94 221.81,-79.22"/>
<polygon fill="#63b8ff" stroke="#63b8ff" points="223.46,-76.13 213.05,-74.17 219.97,-82.19 223.46,-76.13"/>
</a>
</g>
</g>
<!-- Node19&#45;&gt;Node20 -->
<g id="edge23_Node000019_Node000020" class="edge">
<title>Node19&#45;&gt;Node20</title>
<g id="a_edge23_Node000019_Node000020"><a xlink:title=" ">
<path fill="none" stroke="#63b8ff" d="M299.32,-109.98C307.81,-102.23 320.56,-90.58 330.88,-81.14"/>
<polygon fill="#63b8ff" stroke="#63b8ff" points="333.49,-83.5 338.51,-74.17 328.77,-78.33 333.49,-83.5"/>
</a>
</g>
</g>
<!-- Node21&#45;&gt;Node6 -->
<g id="edge28_Node000021_Node000006" class="edge">
<title>Node21&#45;&gt;Node6</title>
<g id="a_edge28_Node000021_Node000006"><a xlink:title=" ">
<path fill="none" stroke="#63b8ff" d="M431.88,-109.71C429.65,-95.99 423.39,-69.55 407,-55 375.71,-27.23 328.56,-16.63 293.36,-12.66"/>
<polygon fill="#63b8ff" stroke="#63b8ff" points="293.61,-9.17 283.31,-11.67 292.92,-16.13 293.61,-9.17"/>
</a>
</g>
</g>
<!-- Node22&#45;&gt;Node19 -->
<g id="edge31_Node000022_Node000019" class="edge">
<title>Node22&#45;&gt;Node19</title>
<g id="a_edge31_Node000022_Node000019"><a xlink:title=" ">
<path fill="none" stroke="#63b8ff" d="M322.56,-164.75C317.11,-157.34 309.14,-146.5 302.44,-137.41"/>
<polygon fill="#63b8ff" stroke="#63b8ff" points="305.07,-135.07 296.32,-129.09 299.43,-139.22 305.07,-135.07"/>
</a>
</g>
</g>
<!-- Node22&#45;&gt;Node20 -->
<g id="edge33_Node000022_Node000020" class="edge">
<title>Node22&#45;&gt;Node20</title>
<g id="a_edge33_Node000022_Node000020"><a xlink:title=" ">
<path fill="none" stroke="#63b8ff" d="M333.28,-164.89C337.41,-156.11 343.39,-141.97 346,-129 348.96,-114.26 349.34,-97.22 349.04,-84.5"/>
<polygon fill="#63b8ff" stroke="#63b8ff" points="352.53,-84.09 348.63,-74.23 345.53,-84.36 352.53,-84.09"/>
</a>
</g>
</g>
<!-- Node22&#45;&gt;Node21 -->
<g id="edge32_Node000022_Node000021" class="edge">
<title>Node22&#45;&gt;Node21</title>
<g id="a_edge32_Node000022_Node000021"><a xlink:title=" ">
<path fill="none" stroke="#63b8ff" d="M345.71,-164.98C362.21,-156.57 387.7,-143.59 406.88,-133.81"/>
<polygon fill="#63b8ff" stroke="#63b8ff" points="408.67,-136.83 415.99,-129.17 405.49,-130.59 408.67,-136.83"/>
</a>
</g>
</g>
<!-- Node23&#45;&gt;Node18 -->
<g id="edge35_Node000023_Node000018" class="edge">
<title>Node23&#45;&gt;Node18</title>
<g id="a_edge35_Node000023_Node000018"><a xlink:title=" ">
<path fill="none" stroke="#63b8ff" d="M452.34,-184.09C457.35,-191.14 462.81,-201.37 466.49,-210.24"/>
<polygon fill="#63b8ff" stroke="#63b8ff" points="463.23,-211.5 469.87,-219.75 469.82,-209.15 463.23,-211.5"/>
</a>
</g>
</g>
<!-- Node24&#45;&gt;Node2 -->
<g id="edge37_Node000024_Node000002" class="edge">
<title>Node24&#45;&gt;Node2</title>
<g id="a_edge37_Node000024_Node000002"><a xlink:title=" ">
<path fill="none" stroke="#63b8ff" d="M91.06,-109.99C95.68,-97.53 105.1,-73.75 116,-55 121.61,-45.35 128.91,-35.31 135.22,-27.21"/>
<polygon fill="#63b8ff" stroke="#63b8ff" points="138.04,-29.29 141.55,-19.3 132.57,-24.92 138.04,-29.29"/>
</a>
</g>
</g>
<!-- Node24&#45;&gt;Node5 -->
<g id="edge39_Node000024_Node000005" class="edge">
<title>Node24&#45;&gt;Node5</title>
<g id="a_edge39_Node000024_Node000005"><a xlink:title=" ">
<path fill="none" stroke="#63b8ff" d="M105.67,-109.98C123.29,-101.5 150.58,-88.35 170.93,-78.54"/>
<polygon fill="#63b8ff" stroke="#63b8ff" points="172.52,-81.66 180.01,-74.17 169.48,-75.36 172.52,-81.66"/>
</a>
</g>
</g>
<!-- Node24&#45;&gt;Node6 -->
<g id="edge38_Node000024_Node000006" class="edge">
<title>Node24&#45;&gt;Node6</title>
<g id="a_edge38_Node000024_Node000006"><a xlink:title=" ">
<path fill="none" stroke="#63b8ff" d="M94.66,-109.69C105.06,-96.41 126.32,-71.12 149,-55 168.12,-41.41 192.06,-30.38 211.36,-22.7"/>
<polygon fill="#63b8ff" stroke="#63b8ff" points="212.64,-25.96 220.71,-19.1 210.12,-19.43 212.64,-25.96"/>
</a>
</g>
</g>
<!-- Node25&#45;&gt;Node16 -->
<g id="edge41_Node000025_Node000016" class="edge">
<title>Node25&#45;&gt;Node16</title>
<g id="a_edge41_Node000025_Node000016"><a xlink:title=" ">
<path fill="none" stroke="#63b8ff" d="M713.24,-164.99C714.48,-156.05 716.3,-141.57 717,-129 718.99,-93.45 712,-52.22 707.19,-28.96"/>
<polygon fill="#63b8ff" stroke="#63b8ff" points="710.59,-28.12 705.05,-19.09 703.75,-29.61 710.59,-28.12"/>
</a>
</g>
</g>
</g>
</svg>

<g id="navigator" transform="translate(0 0)" fill="#404254">
  <rect fill="#f2f5e9" fill-opacity="0.5" stroke="#606060" stroke-width=".5" x="0" y="0" width="60" height="60"/>
  <use id="zoomplus" xlink:href="#zoomPlus" x="17" y="9" onmousedown="handleZoom(evt,'in')"/>
  <use id="zoomminus" xlink:href="#zoomMin" x="42" y="9" onmousedown="handleZoom(evt,'out')"/>
  <use id="reset" xlink:href="#resetDef" x="30" y="36" onmousedown="handleReset()"/>
   <use id="arrowup" xlink:href="#arrowUp" x="0" y="0" onmousedown="handlePan(0,-1)"/>
  <use id="arrowright" xlink:href="#arrowRight" x="0" y="0" onmousedown="handlePan(1,0)"/>
  <use id="arrowdown" xlink:href="#arrowDown" x="0" y="0" onmousedown="handlePan(0,1)"/>
  <use id="arrowleft" xlink:href="#arrowLeft" x="0" y="0" onmousedown="handlePan(-1,0)"/>
</g>
<svg viewBox="0 0 15 15" width="100%" height="30px" preserveAspectRatio="xMaxYMin meet">
 <g id="arrow_out" transform="scale(0.3 0.3)">
  <a xlink:href="BuggySoftware_8ino__incl_org.svg" target="_base">
   <rect id="button" ry="5" rx="5" y="6" x="6" height="38" width="38"
        fill="#f2f5e9" fill-opacity="0.5" stroke="#606060" stroke-width="1.0"/>
   <path id="arrow"
     d="M 11.500037,31.436501 C 11.940474,20.09759 22.043105,11.32322 32.158766,21.979434 L 37.068811,17.246167 C 37.068811,17.246167 37.088388,32 37.088388,32 L 22.160133,31.978069 C 22.160133,31.978069 26.997745,27.140456 26.997745,27.140456 C 18.528582,18.264221 13.291696,25.230495 11.500037,31.436501 z"
     style="fill:#404040;"/>
  </a>
 </g>
</svg>

<style type='text/css'>
<![CDATA[
[data-mouse-over-selected='false'] { opacity: 0.7; }
[data-mouse-over-selected='true']  { opacity: 1.0; }
]]>
</style>
<script type="application/ecmascript"><![CDATA[
document.addEventListener('DOMContentLoaded', (event) => {
  highlightEdges();
  highlightAdjacentNodes();
});
]]></script>
</svg>
