<?xml version="1.0" encoding="UTF-8" standalone="no"?>
<!DOCTYPE svg PUBLIC "-//W3C//DTD SVG 1.1//EN"
 "http://www.w3.org/Graphics/SVG/1.1/DTD/svg11.dtd">
<!-- Generated by graphviz version 2.43.0 (0)
 -->
<!-- Title: BuggySoftware/BuggySoftware.ino Pages: 1 -->
<svg width="1334pt" height="357pt"
 viewBox="0.00 0.00 1334.00 357.00" xmlns="http://www.w3.org/2000/svg" xmlns:xlink="http://www.w3.org/1999/xlink">
<g id="graph0" class="graph" transform="scale(1 1) rotate(0) translate(4 353)">
<title>BuggySoftware/BuggySoftware.ino</title>
<!-- Node1 -->
<g id="Node000001" class="node">
<title>Node1</title>
<g id="a_Node000001"><a xlink:title="This is the main entry point for the Buggy software.">
<polygon fill="#999999" stroke="#666666" points="721.5,-349 536.5,-349 536.5,-330 721.5,-330 721.5,-349"/>
<text text-anchor="middle" x="629" y="-337" font-family="Helvetica,sans-Serif" font-size="10.00">BuggySoftware/BuggySoftware.ino</text>
</a>
</g>
</g>
<!-- Node2 -->
<g id="Node000002" class="node">
<title>Node2</title>
<g id="a_Node000002"><a xlink:title=" ">
<polygon fill="#e0e0e0" stroke="#999999" points="856.5,-74 793.5,-74 793.5,-55 856.5,-55 856.5,-74"/>
<text text-anchor="middle" x="825" y="-62" font-family="Helvetica,sans-Serif" font-size="10.00">Arduino.h</text>
</a>
</g>
</g>
<!-- Node1&#45;&gt;Node2 -->
<g id="edge1_Node000001_Node000002" class="edge">
<title>Node1&#45;&gt;Node2</title>
<g id="a_edge1_Node000001_Node000002"><a xlink:title=" ">
<path fill="none" stroke="#63b8ff" d="M721.65,-338.13C827.44,-336 1005.12,-327.15 1154,-294 1233.54,-276.29 1326,-311.99 1326,-230.5 1326,-230.5 1326,-230.5 1326,-173.5 1326,-132.15 1295.64,-127.12 1258,-110 1188.88,-78.57 961.44,-69.06 866.85,-66.43"/>
<polygon fill="#63b8ff" stroke="#63b8ff" points="866.87,-62.93 856.78,-66.16 866.69,-69.92 866.87,-62.93"/>
</a>
</g>
</g>
<!-- Node3 -->
<g id="Node000003" class="node">
<title>Node3</title>
<g id="a_Node000003"><a xlink:href="Timer1_8hpp.html" target="_top" xlink:title="Setup methods for Timer1.">
<polygon fill="white" stroke="#666666" points="72,-294 0,-294 0,-275 72,-275 72,-294"/>
<text text-anchor="middle" x="36" y="-282" font-family="Helvetica,sans-Serif" font-size="10.00">Timer1.hpp</text>
</a>
</g>
</g>
<!-- Node1&#45;&gt;Node3 -->
<g id="edge2_Node000001_Node000003" class="edge">
<title>Node1&#45;&gt;Node3</title>
<g id="a_edge2_Node000001_Node000003"><a xlink:title=" ">
<path fill="none" stroke="#63b8ff" d="M536.03,-333.34C427.7,-326.76 243.43,-313.79 86,-294 84.75,-293.84 83.48,-293.68 82.2,-293.5"/>
<polygon fill="#63b8ff" stroke="#63b8ff" points="82.67,-290.03 72.27,-292.04 81.65,-296.96 82.67,-290.03"/>
</a>
</g>
</g>
<!-- Node5 -->
<g id="Node000005" class="node">
<title>Node5</title>
<g id="a_Node000005"><a xlink:href="PinSetup_8hpp_source.html" target="_top" xlink:title=" ">
<polygon fill="white" stroke="#666666" points="749,-129 669,-129 669,-110 749,-110 749,-129"/>
<text text-anchor="middle" x="709" y="-117" font-family="Helvetica,sans-Serif" font-size="10.00">PinSetup.hpp</text>
</a>
</g>
</g>
<!-- Node1&#45;&gt;Node5 -->
<g id="edge4_Node000001_Node000005" class="edge">
<title>Node1&#45;&gt;Node5</title>
<g id="a_edge4_Node000001_Node000005"><a xlink:title=" ">
<path fill="none" stroke="#63b8ff" d="M628.56,-329.91C627.6,-303.46 627.51,-221.64 659,-165 665.55,-153.22 676.43,-142.97 686.38,-135.3"/>
<polygon fill="#63b8ff" stroke="#63b8ff" points="688.7,-137.94 694.74,-129.23 684.59,-132.27 688.7,-137.94"/>
</a>
</g>
</g>
<!-- Node6 -->
<g id="Node000006" class="node">
<title>Node6</title>
<g id="a_Node000006"><a xlink:href="EmbeddedLogger_8hpp.html" target="_top" xlink:title=" ">
<polygon fill="white" stroke="#666666" points="510,-74 388,-74 388,-55 510,-55 510,-74"/>
<text text-anchor="middle" x="449" y="-62" font-family="Helvetica,sans-Serif" font-size="10.00">EmbeddedLogger.hpp</text>
</a>
</g>
</g>
<!-- Node1&#45;&gt;Node6 -->
<g id="edge6_Node000001_Node000006" class="edge">
<title>Node1&#45;&gt;Node6</title>
<g id="a_edge6_Node000001_Node000006"><a xlink:title=" ">
<path fill="none" stroke="#63b8ff" d="M622.6,-329.93C601.68,-301.8 533.85,-209.47 484,-129 474.69,-113.97 465.06,-96.32 458.26,-83.45"/>
<polygon fill="#63b8ff" stroke="#63b8ff" points="461.21,-81.53 453.48,-74.29 455.01,-84.77 461.21,-81.53"/>
</a>
</g>
</g>
<!-- Node9 -->
<g id="Node000009" class="node">
<title>Node9</title>
<g id="a_Node000009"><a xlink:href="SerialWirelessLogger_8hpp_source.html" target="_top" xlink:title=" ">
<polygon fill="white" stroke="#666666" points="392,-294 252,-294 252,-275 392,-275 392,-294"/>
<text text-anchor="middle" x="322" y="-282" font-family="Helvetica,sans-Serif" font-size="10.00">SerialWirelessLogger.hpp</text>
</a>
</g>
</g>
<!-- Node1&#45;&gt;Node9 -->
<g id="edge9_Node000001_Node000009" class="edge">
<title>Node1&#45;&gt;Node9</title>
<g id="a_edge9_Node000001_Node000009"><a xlink:title=" ">
<path fill="none" stroke="#63b8ff" d="M579.68,-329.98C525.71,-320.67 439.22,-305.74 381.52,-295.78"/>
<polygon fill="#63b8ff" stroke="#63b8ff" points="381.91,-292.29 371.46,-294.04 380.72,-299.19 381.91,-292.29"/>
</a>
</g>
</g>
<!-- Node18 -->
<g id="Node000018" class="node">
<title>Node18</title>
<g id="a_Node000018"><a xlink:href="PacketFactory_8hpp_source.html" target="_top" xlink:title=" ">
<polygon fill="white" stroke="#666666" points="189.5,-184 86.5,-184 86.5,-165 189.5,-165 189.5,-184"/>
<text text-anchor="middle" x="138" y="-172" font-family="Helvetica,sans-Serif" font-size="10.00">PacketFactory.hpp</text>
</a>
</g>
</g>
<!-- Node1&#45;&gt;Node18 -->
<g id="edge56_Node000001_Node000018" class="edge">
<title>Node1&#45;&gt;Node18</title>
<g id="a_edge56_Node000001_Node000018"><a xlink:title=" ">
<path fill="none" stroke="#63b8ff" d="M536.33,-338.12C456.73,-335.39 339.84,-325.59 243,-294 195.88,-278.63 173.58,-280.18 146,-239 137.21,-225.87 135.71,-207.74 136.12,-194.21"/>
<polygon fill="#63b8ff" stroke="#63b8ff" points="139.62,-194.35 136.8,-184.14 132.64,-193.88 139.62,-194.35"/>
</a>
</g>
</g>
<!-- Node19 -->
<g id="Node000019" class="node">
<title>Node19</title>
<g id="a_Node000019"><a xlink:href="Buggy_8hpp_source.html" target="_top" xlink:title=" ">
<polygon fill="white" stroke="#666666" points="719.5,-294 652.5,-294 652.5,-275 719.5,-275 719.5,-294"/>
<text text-anchor="middle" x="686" y="-282" font-family="Helvetica,sans-Serif" font-size="10.00">Buggy.hpp</text>
</a>
</g>
</g>
<!-- Node1&#45;&gt;Node19 -->
<g id="edge28_Node000001_Node000019" class="edge">
<title>Node1&#45;&gt;Node19</title>
<g id="a_edge28_Node000001_Node000019"><a xlink:title=" ">
<path fill="none" stroke="#63b8ff" d="M638.16,-329.98C646.5,-322.23 659.03,-310.58 669.18,-301.14"/>
<polygon fill="#63b8ff" stroke="#63b8ff" points="671.74,-303.54 676.68,-294.17 666.97,-298.42 671.74,-303.54"/>
</a>
</g>
</g>
<!-- Node21 -->
<g id="Node000021" class="node">
<title>Node21</title>
<g id="a_Node000021"><a xlink:href="PIDController_8hpp_source.html" target="_top" xlink:title=" ">
<polygon fill="white" stroke="#666666" points="1248.5,-129 1147.5,-129 1147.5,-110 1248.5,-110 1248.5,-129"/>
<text text-anchor="middle" x="1198" y="-117" font-family="Helvetica,sans-Serif" font-size="10.00">PIDController.hpp</text>
</a>
</g>
</g>
<!-- Node1&#45;&gt;Node21 -->
<g id="edge55_Node000001_Node000021" class="edge">
<title>Node1&#45;&gt;Node21</title>
<g id="a_edge55_Node000001_Node000021"><a xlink:title=" ">
<path fill="none" stroke="#63b8ff" d="M721.66,-336.62C873.53,-331.43 1165.37,-311.98 1233,-239 1255.75,-214.45 1260.55,-195.61 1247,-165 1241.68,-152.97 1231.32,-142.8 1221.49,-135.24"/>
<polygon fill="#63b8ff" stroke="#63b8ff" points="1223.3,-132.23 1213.13,-129.27 1219.24,-137.93 1223.3,-132.23"/>
</a>
</g>
</g>
<!-- Node27 -->
<g id="Node000027" class="node">
<title>Node27</title>
<g id="a_Node000027"><a xlink:href="Matrix_8hpp_source.html" target="_top" xlink:title=" ">
<polygon fill="white" stroke="#666666" points="1201.5,-239 1132.5,-239 1132.5,-220 1201.5,-220 1201.5,-239"/>
<text text-anchor="middle" x="1167" y="-227" font-family="Helvetica,sans-Serif" font-size="10.00">Matrix.hpp</text>
</a>
</g>
</g>
<!-- Node1&#45;&gt;Node27 -->
<g id="edge57_Node000001_Node000027" class="edge">
<title>Node1&#45;&gt;Node27</title>
<g id="a_edge57_Node000001_Node000027"><a xlink:title=" ">
<path fill="none" stroke="#63b8ff" d="M721.63,-336.78C804.17,-333.25 927.56,-323.02 1031,-294 1072.56,-282.34 1117.28,-259.18 1143.67,-244.29"/>
<polygon fill="#63b8ff" stroke="#63b8ff" points="1145.59,-247.22 1152.52,-239.21 1142.11,-241.15 1145.59,-247.22"/>
</a>
</g>
</g>
<!-- Node29 -->
<g id="Node000029" class="node">
<title>Node29</title>
<g id="a_Node000029"><a xlink:href="CruiseControl_8hpp_source.html" target="_top" xlink:title=" ">
<polygon fill="white" stroke="#666666" points="1022,-294 918,-294 918,-275 1022,-275 1022,-294"/>
<text text-anchor="middle" x="970" y="-282" font-family="Helvetica,sans-Serif" font-size="10.00">CruiseControl.hpp</text>
</a>
</g>
</g>
<!-- Node1&#45;&gt;Node29 -->
<g id="edge58_Node000001_Node000029" class="edge">
<title>Node1&#45;&gt;Node29</title>
<g id="a_edge58_Node000001_Node000029"><a xlink:title=" ">
<path fill="none" stroke="#63b8ff" d="M683.79,-329.98C744.99,-320.47 843.87,-305.1 907.9,-295.15"/>
<polygon fill="#63b8ff" stroke="#63b8ff" points="908.52,-298.6 917.87,-293.6 907.45,-291.68 908.52,-298.6"/>
</a>
</g>
</g>
<!-- Node4 -->
<g id="Node000004" class="node">
<title>Node4</title>
<g id="a_Node000004"><a xlink:title=" ">
<polygon fill="#e0e0e0" stroke="#999999" points="71.5,-239 0.5,-239 0.5,-220 71.5,-220 71.5,-239"/>
<text text-anchor="middle" x="36" y="-227" font-family="Helvetica,sans-Serif" font-size="10.00">FspTimer.h</text>
</a>
</g>
</g>
<!-- Node3&#45;&gt;Node4 -->
<g id="edge3_Node000003_Node000004" class="edge">
<title>Node3&#45;&gt;Node4</title>
<g id="a_edge3_Node000003_Node000004"><a xlink:title=" ">
<path fill="none" stroke="#63b8ff" d="M36,-274.75C36,-267.8 36,-257.85 36,-249.13"/>
<polygon fill="#63b8ff" stroke="#63b8ff" points="39.5,-249.09 36,-239.09 32.5,-249.09 39.5,-249.09"/>
</a>
</g>
</g>
<!-- Node5&#45;&gt;Node2 -->
<g id="edge5_Node000005_Node000002" class="edge">
<title>Node5&#45;&gt;Node2</title>
<g id="a_edge5_Node000005_Node000002"><a xlink:title=" ">
<path fill="none" stroke="#63b8ff" d="M727.64,-109.98C746.3,-101.46 775.25,-88.23 796.74,-78.41"/>
<polygon fill="#63b8ff" stroke="#63b8ff" points="798.38,-81.51 806.02,-74.17 795.47,-75.14 798.38,-81.51"/>
</a>
</g>
</g>
<!-- Node7 -->
<g id="Node000007" class="node">
<title>Node7</title>
<g id="a_Node000007"><a xlink:title=" ">
<polygon fill="#e0e0e0" stroke="#999999" points="438.5,-19 385.5,-19 385.5,0 438.5,0 438.5,-19"/>
<text text-anchor="middle" x="412" y="-7" font-family="Helvetica,sans-Serif" font-size="10.00">stdint.h</text>
</a>
</g>
</g>
<!-- Node6&#45;&gt;Node7 -->
<g id="edge7_Node000006_Node000007" class="edge">
<title>Node6&#45;&gt;Node7</title>
<g id="a_edge7_Node000006_Node000007"><a xlink:title=" ">
<path fill="none" stroke="#63b8ff" d="M442.89,-54.75C437.72,-47.34 430.15,-36.5 423.81,-27.41"/>
<polygon fill="#63b8ff" stroke="#63b8ff" points="426.59,-25.29 418,-19.09 420.85,-29.29 426.59,-25.29"/>
</a>
</g>
</g>
<!-- Node8 -->
<g id="Node000008" class="node">
<title>Node8</title>
<g id="a_Node000008"><a xlink:title=" ">
<polygon fill="#e0e0e0" stroke="#999999" points="513,-19 457,-19 457,0 513,0 513,-19"/>
<text text-anchor="middle" x="485" y="-7" font-family="Helvetica,sans-Serif" font-size="10.00">stddef.h</text>
</a>
</g>
</g>
<!-- Node6&#45;&gt;Node8 -->
<g id="edge8_Node000006_Node000008" class="edge">
<title>Node6&#45;&gt;Node8</title>
<g id="a_edge8_Node000006_Node000008"><a xlink:title=" ">
<path fill="none" stroke="#63b8ff" d="M454.94,-54.75C459.98,-47.34 467.34,-36.5 473.51,-27.41"/>
<polygon fill="#63b8ff" stroke="#63b8ff" points="476.44,-29.33 479.17,-19.09 470.65,-25.39 476.44,-29.33"/>
</a>
</g>
</g>
<!-- Node9&#45;&gt;Node2 -->
<g id="edge25_Node000009_Node000002" class="edge">
<title>Node9&#45;&gt;Node2</title>
<g id="a_edge25_Node000009_Node000002"><a xlink:title=" ">
<path fill="none" stroke="#63b8ff" d="M344.88,-274.87C366.78,-266.4 400.58,-252.79 429,-239 455.45,-226.17 632.77,-121.08 660,-110 700.6,-93.48 749.28,-81.21 783.2,-73.79"/>
<polygon fill="#63b8ff" stroke="#63b8ff" points="784.19,-77.15 793.23,-71.64 782.72,-70.31 784.19,-77.15"/>
</a>
</g>
</g>
<!-- Node10 -->
<g id="Node000010" class="node">
<title>Node10</title>
<g id="a_Node000010"><a xlink:href="SerialLogger_8hpp_source.html" target="_top" xlink:title=" ">
<polygon fill="white" stroke="#666666" points="613,-129 515,-129 515,-110 613,-110 613,-129"/>
<text text-anchor="middle" x="564" y="-117" font-family="Helvetica,sans-Serif" font-size="10.00">SerialLogger.hpp</text>
</a>
</g>
</g>
<!-- Node9&#45;&gt;Node10 -->
<g id="edge10_Node000009_Node000010" class="edge">
<title>Node9&#45;&gt;Node10</title>
<g id="a_edge10_Node000009_Node000010"><a xlink:title=" ">
<path fill="none" stroke="#63b8ff" d="M338.36,-275C354.56,-266.41 379.94,-252.52 401,-239 454.86,-204.42 514.98,-158.75 544.91,-135.5"/>
<polygon fill="#63b8ff" stroke="#63b8ff" points="547.12,-138.21 552.86,-129.3 542.82,-132.69 547.12,-138.21"/>
</a>
</g>
</g>
<!-- Node11 -->
<g id="Node000011" class="node">
<title>Node11</title>
<g id="a_Node000011"><a xlink:href="WirelessLogger_8hpp_source.html" target="_top" xlink:title=" ">
<polygon fill="white" stroke="#666666" points="392,-239 280,-239 280,-220 392,-220 392,-239"/>
<text text-anchor="middle" x="336" y="-227" font-family="Helvetica,sans-Serif" font-size="10.00">WirelessLogger.hpp</text>
</a>
</g>
</g>
<!-- Node9&#45;&gt;Node11 -->
<g id="edge13_Node000009_Node000011" class="edge">
<title>Node9&#45;&gt;Node11</title>
<g id="a_edge13_Node000009_Node000011"><a xlink:title=" ">
<path fill="none" stroke="#63b8ff" d="M324.31,-274.75C326.17,-267.72 328.84,-257.62 331.15,-248.84"/>
<polygon fill="#63b8ff" stroke="#63b8ff" points="334.56,-249.65 333.73,-239.09 327.79,-247.86 334.56,-249.65"/>
</a>
</g>
</g>
<!-- Node12 -->
<g id="Node000012" class="node">
<title>Node12</title>
<g id="a_Node000012"><a xlink:href="BuggyTCP_8hpp_source.html" target="_top" xlink:title=" ">
<polygon fill="white" stroke="#666666" points="293.5,-184 208.5,-184 208.5,-165 293.5,-165 293.5,-184"/>
<text text-anchor="middle" x="251" y="-172" font-family="Helvetica,sans-Serif" font-size="10.00">BuggyTCP.hpp</text>
</a>
</g>
</g>
<!-- Node9&#45;&gt;Node12 -->
<g id="edge26_Node000009_Node000012" class="edge">
<title>Node9&#45;&gt;Node12</title>
<g id="a_edge26_Node000009_Node000012"><a xlink:title=" ">
<path fill="none" stroke="#63b8ff" d="M288.6,-274.98C270.22,-268.4 248.98,-257.24 238,-239 229.68,-225.17 234.76,-206.9 240.84,-193.51"/>
<polygon fill="#63b8ff" stroke="#63b8ff" points="244.07,-194.88 245.48,-184.38 237.83,-191.71 244.07,-194.88"/>
</a>
</g>
</g>
<!-- Node9&#45;&gt;Node18 -->
<g id="edge27_Node000009_Node000018" class="edge">
<title>Node9&#45;&gt;Node18</title>
<g id="a_edge27_Node000009_Node000018"><a xlink:title=" ">
<path fill="none" stroke="#63b8ff" d="M251.73,-278.15C220.95,-272.52 186.37,-261.27 162,-239 149.37,-227.46 143.34,-208.58 140.5,-194.41"/>
<polygon fill="#63b8ff" stroke="#63b8ff" points="143.91,-193.57 138.83,-184.27 137,-194.71 143.91,-193.57"/>
</a>
</g>
</g>
<!-- Node10&#45;&gt;Node2 -->
<g id="edge12_Node000010_Node000002" class="edge">
<title>Node10&#45;&gt;Node2</title>
<g id="a_edge12_Node000010_Node000002"><a xlink:title=" ">
<path fill="none" stroke="#63b8ff" d="M605.93,-109.98C654.77,-100.07 734.93,-83.79 783.56,-73.92"/>
<polygon fill="#63b8ff" stroke="#63b8ff" points="784.33,-77.33 793.43,-71.91 782.93,-70.47 784.33,-77.33"/>
</a>
</g>
</g>
<!-- Node10&#45;&gt;Node6 -->
<g id="edge11_Node000010_Node000006" class="edge">
<title>Node10&#45;&gt;Node6</title>
<g id="a_edge11_Node000010_Node000006"><a xlink:title=" ">
<path fill="none" stroke="#63b8ff" d="M545.52,-109.98C527.02,-101.46 498.32,-88.23 477.02,-78.41"/>
<polygon fill="#63b8ff" stroke="#63b8ff" points="478.36,-75.18 467.81,-74.17 475.43,-81.53 478.36,-75.18"/>
</a>
</g>
</g>
<!-- Node11&#45;&gt;Node2 -->
<g id="edge15_Node000011_Node000002" class="edge">
<title>Node11&#45;&gt;Node2</title>
<g id="a_edge15_Node000011_Node000002"><a xlink:title=" ">
<path fill="none" stroke="#63b8ff" d="M345.03,-219.8C368.97,-197.3 437,-137.05 506,-110 600.24,-73.05 720.71,-66.1 783.19,-65.21"/>
<polygon fill="#63b8ff" stroke="#63b8ff" points="783.47,-68.7 793.44,-65.11 783.41,-61.7 783.47,-68.7"/>
</a>
</g>
</g>
<!-- Node11&#45;&gt;Node6 -->
<g id="edge14_Node000011_Node000006" class="edge">
<title>Node11&#45;&gt;Node6</title>
<g id="a_edge14_Node000011_Node000006"><a xlink:title=" ">
<path fill="none" stroke="#63b8ff" d="M339.13,-219.8C346.79,-199.25 368.01,-146.66 397,-110 405.87,-98.79 417.89,-88.29 428.13,-80.3"/>
<polygon fill="#63b8ff" stroke="#63b8ff" points="430.33,-83.03 436.22,-74.23 426.12,-77.44 430.33,-83.03"/>
</a>
</g>
</g>
<!-- Node11&#45;&gt;Node12 -->
<g id="edge16_Node000011_Node000012" class="edge">
<title>Node11&#45;&gt;Node12</title>
<g id="a_edge16_Node000011_Node000012"><a xlink:title=" ">
<path fill="none" stroke="#63b8ff" d="M322.34,-219.98C309.16,-211.77 288.97,-199.18 273.43,-189.49"/>
<polygon fill="#63b8ff" stroke="#63b8ff" points="275.24,-186.49 264.91,-184.17 271.54,-192.43 275.24,-186.49"/>
</a>
</g>
</g>
<!-- Node11&#45;&gt;Node18 -->
<g id="edge23_Node000011_Node000018" class="edge">
<title>Node11&#45;&gt;Node18</title>
<g id="a_edge23_Node000011_Node000018"><a xlink:title=" ">
<path fill="none" stroke="#63b8ff" d="M304.19,-219.98C270.51,-210.97 217.2,-196.7 180.08,-186.76"/>
<polygon fill="#63b8ff" stroke="#63b8ff" points="180.63,-183.29 170.06,-184.08 178.82,-190.05 180.63,-183.29"/>
</a>
</g>
</g>
<!-- Node13 -->
<g id="Node000013" class="node">
<title>Node13</title>
<g id="a_Node000013"><a xlink:href="BuggyWifi_8hpp_source.html" target="_top" xlink:title=" ">
<polygon fill="white" stroke="#666666" points="325.5,-129 238.5,-129 238.5,-110 325.5,-110 325.5,-129"/>
<text text-anchor="middle" x="282" y="-117" font-family="Helvetica,sans-Serif" font-size="10.00">BuggyWifi.hpp</text>
</a>
</g>
</g>
<!-- Node12&#45;&gt;Node13 -->
<g id="edge17_Node000012_Node000013" class="edge">
<title>Node12&#45;&gt;Node13</title>
<g id="a_edge17_Node000012_Node000013"><a xlink:title=" ">
<path fill="none" stroke="#63b8ff" d="M256.12,-164.75C260.36,-157.49 266.53,-146.95 271.78,-137.98"/>
<polygon fill="#63b8ff" stroke="#63b8ff" points="274.95,-139.49 276.98,-129.09 268.91,-135.95 274.95,-139.49"/>
</a>
</g>
</g>
<!-- Node16 -->
<g id="Node000016" class="node">
<title>Node16</title>
<g id="a_Node000016"><a xlink:href="PacketTypes_8hpp_source.html" target="_top" xlink:title=" ">
<polygon fill="white" stroke="#666666" points="173.5,-74 76.5,-74 76.5,-55 173.5,-55 173.5,-74"/>
<text text-anchor="middle" x="125" y="-62" font-family="Helvetica,sans-Serif" font-size="10.00">PacketTypes.hpp</text>
</a>
</g>
</g>
<!-- Node12&#45;&gt;Node16 -->
<g id="edge20_Node000012_Node000016" class="edge">
<title>Node12&#45;&gt;Node16</title>
<g id="a_edge20_Node000012_Node000016"><a xlink:title=" ">
<path fill="none" stroke="#63b8ff" d="M243.78,-164.7C233.02,-151.88 211.82,-127.66 191,-110 177.69,-98.71 161.44,-87.72 148.4,-79.49"/>
<polygon fill="#63b8ff" stroke="#63b8ff" points="149.9,-76.31 139.55,-74.02 146.22,-82.26 149.9,-76.31"/>
</a>
</g>
</g>
<!-- Node17 -->
<g id="Node000017" class="node">
<title>Node17</title>
<g id="a_Node000017"><a xlink:href="PacketSerializer_8hpp_source.html" target="_top" xlink:title=" ">
<polygon fill="white" stroke="#666666" points="182,-129 68,-129 68,-110 182,-110 182,-129"/>
<text text-anchor="middle" x="125" y="-117" font-family="Helvetica,sans-Serif" font-size="10.00">PacketSerializer.hpp</text>
</a>
</g>
</g>
<!-- Node12&#45;&gt;Node17 -->
<g id="edge21_Node000012_Node000017" class="edge">
<title>Node12&#45;&gt;Node17</title>
<g id="a_edge21_Node000012_Node000017"><a xlink:title=" ">
<path fill="none" stroke="#63b8ff" d="M230.76,-164.98C210.3,-156.38 178.47,-142.99 155.07,-133.15"/>
<polygon fill="#63b8ff" stroke="#63b8ff" points="156.19,-129.82 145.61,-129.17 153.47,-136.27 156.19,-129.82"/>
</a>
</g>
</g>
<!-- Node14 -->
<g id="Node000014" class="node">
<title>Node14</title>
<g id="a_Node000014"><a xlink:title=" ">
<polygon fill="#e0e0e0" stroke="#999999" points="280.5,-74 221.5,-74 221.5,-55 280.5,-55 280.5,-74"/>
<text text-anchor="middle" x="251" y="-62" font-family="Helvetica,sans-Serif" font-size="10.00">WiFiS3.h</text>
</a>
</g>
</g>
<!-- Node13&#45;&gt;Node14 -->
<g id="edge18_Node000013_Node000014" class="edge">
<title>Node13&#45;&gt;Node14</title>
<g id="a_edge18_Node000013_Node000014"><a xlink:title=" ">
<path fill="none" stroke="#63b8ff" d="M276.88,-109.75C272.64,-102.49 266.47,-91.95 261.22,-82.98"/>
<polygon fill="#63b8ff" stroke="#63b8ff" points="264.09,-80.95 256.02,-74.09 258.05,-84.49 264.09,-80.95"/>
</a>
</g>
</g>
<!-- Node15 -->
<g id="Node000015" class="node">
<title>Node15</title>
<g id="a_Node000015"><a xlink:href="secrets_8h_source.html" target="_top" xlink:title=" ">
<polygon fill="white" stroke="#666666" points="359.5,-74 298.5,-74 298.5,-55 359.5,-55 359.5,-74"/>
<text text-anchor="middle" x="329" y="-62" font-family="Helvetica,sans-Serif" font-size="10.00">secrets.h</text>
</a>
</g>
</g>
<!-- Node13&#45;&gt;Node15 -->
<g id="edge19_Node000013_Node000015" class="edge">
<title>Node13&#45;&gt;Node15</title>
<g id="a_edge19_Node000013_Node000015"><a xlink:title=" ">
<path fill="none" stroke="#63b8ff" d="M289.76,-109.75C296.47,-102.18 306.34,-91.05 314.51,-81.84"/>
<polygon fill="#63b8ff" stroke="#63b8ff" points="317.37,-83.89 321.38,-74.09 312.13,-79.25 317.37,-83.89"/>
</a>
</g>
</g>
<!-- Node17&#45;&gt;Node16 -->
<g id="edge22_Node000017_Node000016" class="edge">
<title>Node17&#45;&gt;Node16</title>
<g id="a_edge22_Node000017_Node000016"><a xlink:title=" ">
<path fill="none" stroke="#63b8ff" d="M125,-109.75C125,-102.8 125,-92.85 125,-84.13"/>
<polygon fill="#63b8ff" stroke="#63b8ff" points="128.5,-84.09 125,-74.09 121.5,-84.09 128.5,-84.09"/>
</a>
</g>
</g>
<!-- Node18&#45;&gt;Node16 -->
<g id="edge24_Node000018_Node000016" class="edge">
<title>Node18&#45;&gt;Node16</title>
<g id="a_edge24_Node000018_Node000016"><a xlink:title=" ">
<path fill="none" stroke="#63b8ff" d="M107.73,-164.92C90.16,-158.21 69.48,-146.94 59,-129 46.94,-108.37 71.79,-90.07 94.37,-78.49"/>
<polygon fill="#63b8ff" stroke="#63b8ff" points="95.98,-81.59 103.47,-74.09 92.94,-75.29 95.98,-81.59"/>
</a>
</g>
</g>
<!-- Node19&#45;&gt;Node5 -->
<g id="edge39_Node000019_Node000005" class="edge">
<title>Node19&#45;&gt;Node5</title>
<g id="a_edge39_Node000019_Node000005"><a xlink:title=" ">
<path fill="none" stroke="#63b8ff" d="M681.76,-274.84C672.56,-254.79 652.79,-203.96 668,-165 672.4,-153.73 681.14,-143.59 689.43,-135.85"/>
<polygon fill="#63b8ff" stroke="#63b8ff" points="691.82,-138.4 697.07,-129.2 687.23,-133.12 691.82,-138.4"/>
</a>
</g>
</g>
<!-- Node19&#45;&gt;Node6 -->
<g id="edge51_Node000019_Node000006" class="edge">
<title>Node19&#45;&gt;Node6</title>
<g id="a_edge51_Node000019_Node000006"><a xlink:title=" ">
<path fill="none" stroke="#63b8ff" d="M675.02,-274.91C646.25,-252.21 566.65,-188.32 506,-129 490.36,-113.71 473.8,-94.93 462.58,-81.78"/>
<polygon fill="#63b8ff" stroke="#63b8ff" points="465.17,-79.42 456.05,-74.04 459.83,-83.94 465.17,-79.42"/>
</a>
</g>
</g>
<!-- Node19&#45;&gt;Node12 -->
<g id="edge36_Node000019_Node000012" class="edge">
<title>Node19&#45;&gt;Node12</title>
<g id="a_edge36_Node000019_Node000012"><a xlink:title=" ">
<path fill="none" stroke="#63b8ff" d="M652.47,-281.99C558.98,-277.5 300.33,-263.02 271,-239 257.88,-228.25 253.23,-208.96 251.65,-194.45"/>
<polygon fill="#63b8ff" stroke="#63b8ff" points="255.11,-193.83 250.94,-184.09 248.13,-194.31 255.11,-193.83"/>
</a>
</g>
</g>
<!-- Node19&#45;&gt;Node13 -->
<g id="edge35_Node000019_Node000013" class="edge">
<title>Node19&#45;&gt;Node13</title>
<g id="a_edge35_Node000019_Node000013"><a xlink:title=" ">
<path fill="none" stroke="#63b8ff" d="M664.85,-274.97C598.05,-248.02 391.42,-164.65 312.79,-132.92"/>
<polygon fill="#63b8ff" stroke="#63b8ff" points="314.01,-129.64 303.43,-129.15 311.39,-136.13 314.01,-129.64"/>
</a>
</g>
</g>
<!-- Node19&#45;&gt;Node18 -->
<g id="edge50_Node000019_Node000018" class="edge">
<title>Node19&#45;&gt;Node18</title>
<g id="a_edge50_Node000019_Node000018"><a xlink:title=" ">
<path fill="none" stroke="#63b8ff" d="M652.45,-281.76C564.4,-276.94 328.42,-262.16 254,-239 217.97,-227.79 180.39,-204.8 158.1,-189.78"/>
<polygon fill="#63b8ff" stroke="#63b8ff" points="160.03,-186.85 149.8,-184.07 156.06,-192.62 160.03,-186.85"/>
</a>
</g>
</g>
<!-- Node20 -->
<g id="Node000020" class="node">
<title>Node20</title>
<g id="a_Node000020"><a xlink:href="MotorDriver_8hpp_source.html" target="_top" xlink:title=" ">
<polygon fill="white" stroke="#666666" points="908.5,-184 813.5,-184 813.5,-165 908.5,-165 908.5,-184"/>
<text text-anchor="middle" x="861" y="-172" font-family="Helvetica,sans-Serif" font-size="10.00">MotorDriver.hpp</text>
</a>
</g>
</g>
<!-- Node19&#45;&gt;Node20 -->
<g id="edge29_Node000019_Node000020" class="edge">
<title>Node19&#45;&gt;Node20</title>
<g id="a_edge29_Node000019_Node000020"><a xlink:title=" ">
<path fill="none" stroke="#63b8ff" d="M719.7,-278.15C747.94,-272.32 788.14,-260.77 817,-239 832.86,-227.04 845.09,-207.68 852.59,-193.47"/>
<polygon fill="#63b8ff" stroke="#63b8ff" points="855.87,-194.73 857.19,-184.22 849.6,-191.61 855.87,-194.73"/>
</a>
</g>
</g>
<!-- Node23 -->
<g id="Node000023" class="node">
<title>Node23</title>
<g id="a_Node000023"><a xlink:href="IrSensor_8hpp_source.html" target="_top" xlink:title=" ">
<polygon fill="white" stroke="#666666" points="1003.5,-184 926.5,-184 926.5,-165 1003.5,-165 1003.5,-184"/>
<text text-anchor="middle" x="965" y="-172" font-family="Helvetica,sans-Serif" font-size="10.00">IrSensor.hpp</text>
</a>
</g>
</g>
<!-- Node19&#45;&gt;Node23 -->
<g id="edge37_Node000019_Node000023" class="edge">
<title>Node19&#45;&gt;Node23</title>
<g id="a_edge37_Node000019_Node000023"><a xlink:title=" ">
<path fill="none" stroke="#63b8ff" d="M719.72,-275.59C751.12,-267.79 798.97,-254.75 839,-239 875.83,-224.51 916.35,-203.02 941.24,-189.13"/>
<polygon fill="#63b8ff" stroke="#63b8ff" points="943.29,-192 950.28,-184.04 939.85,-185.9 943.29,-192"/>
</a>
</g>
</g>
<!-- Node24 -->
<g id="Node000024" class="node">
<title>Node24</title>
<g id="a_Node000024"><a xlink:href="LineFollower_8hpp_source.html" target="_top" xlink:title=" ">
<polygon fill="white" stroke="#666666" points="1076,-239 978,-239 978,-220 1076,-220 1076,-239"/>
<text text-anchor="middle" x="1027" y="-227" font-family="Helvetica,sans-Serif" font-size="10.00">LineFollower.hpp</text>
</a>
</g>
</g>
<!-- Node19&#45;&gt;Node24 -->
<g id="edge40_Node000019_Node000024" class="edge">
<title>Node19&#45;&gt;Node24</title>
<g id="a_edge40_Node000019_Node000024"><a xlink:title=" ">
<path fill="none" stroke="#63b8ff" d="M719.63,-278.27C777.28,-269.31 895.71,-250.91 967.56,-239.74"/>
<polygon fill="#63b8ff" stroke="#63b8ff" points="968.46,-243.14 977.81,-238.15 967.39,-236.22 968.46,-243.14"/>
</a>
</g>
</g>
<!-- Node25 -->
<g id="Node000025" class="node">
<title>Node25</title>
<g id="a_Node000025"><a xlink:href="BuggyState_8hpp_source.html" target="_top" xlink:title=" ">
<polygon fill="white" stroke="#666666" points="808,-239 714,-239 714,-220 808,-220 808,-239"/>
<text text-anchor="middle" x="761" y="-227" font-family="Helvetica,sans-Serif" font-size="10.00">BuggyState.hpp</text>
</a>
</g>
</g>
<!-- Node19&#45;&gt;Node25 -->
<g id="edge44_Node000019_Node000025" class="edge">
<title>Node19&#45;&gt;Node25</title>
<g id="a_edge44_Node000019_Node000025"><a xlink:title=" ">
<path fill="none" stroke="#63b8ff" d="M692.94,-274.98C702.66,-266.84 719.93,-254.41 734.76,-244.76"/>
<polygon fill="#63b8ff" stroke="#63b8ff" points="737.01,-247.48 743.58,-239.17 733.26,-241.56 737.01,-247.48"/>
</a>
</g>
</g>
<!-- Node26 -->
<g id="Node000026" class="node">
<title>Node26</title>
<g id="a_Node000026"><a xlink:href="UltrasonicSensor_8hpp_source.html" target="_top" xlink:title=" ">
<polygon fill="white" stroke="#666666" points="795.5,-184 676.5,-184 676.5,-165 795.5,-165 795.5,-184"/>
<text text-anchor="middle" x="736" y="-172" font-family="Helvetica,sans-Serif" font-size="10.00">UltrasonicSensor.hpp</text>
</a>
</g>
</g>
<!-- Node19&#45;&gt;Node26 -->
<g id="edge46_Node000019_Node000026" class="edge">
<title>Node19&#45;&gt;Node26</title>
<g id="a_edge46_Node000019_Node000026"><a xlink:title=" ">
<path fill="none" stroke="#63b8ff" d="M687.65,-274.97C690.26,-262.47 696,-238.65 705,-220 709.7,-210.27 716.42,-200.31 722.4,-192.3"/>
<polygon fill="#63b8ff" stroke="#63b8ff" points="725.33,-194.23 728.69,-184.18 719.8,-189.94 725.33,-194.23"/>
</a>
</g>
</g>
<!-- Node19&#45;&gt;Node27 -->
<g id="edge52_Node000019_Node000027" class="edge">
<title>Node19&#45;&gt;Node27</title>
<g id="a_edge52_Node000019_Node000027"><a xlink:title=" ">
<path fill="none" stroke="#63b8ff" d="M719.82,-279.77C804.64,-270.43 1026.4,-245.99 1122.04,-235.45"/>
<polygon fill="#63b8ff" stroke="#63b8ff" points="1122.69,-238.9 1132.25,-234.33 1121.92,-231.95 1122.69,-238.9"/>
</a>
</g>
</g>
<!-- Node20&#45;&gt;Node5 -->
<g id="edge30_Node000020_Node000005" class="edge">
<title>Node20&#45;&gt;Node5</title>
<g id="a_edge30_Node000020_Node000005"><a xlink:title=" ">
<path fill="none" stroke="#63b8ff" d="M836.58,-164.98C811.28,-156.16 771.55,-142.31 743.14,-132.41"/>
<polygon fill="#63b8ff" stroke="#63b8ff" points="744.21,-129.07 733.61,-129.08 741.9,-135.68 744.21,-129.07"/>
</a>
</g>
</g>
<!-- Node20&#45;&gt;Node21 -->
<g id="edge31_Node000020_Node000021" class="edge">
<title>Node20&#45;&gt;Node21</title>
<g id="a_edge31_Node000020_Node000021"><a xlink:title=" ">
<path fill="none" stroke="#63b8ff" d="M908.57,-166.02C968.5,-156.59 1071.58,-140.38 1137.18,-130.07"/>
<polygon fill="#63b8ff" stroke="#63b8ff" points="1138.04,-133.47 1147.37,-128.46 1136.95,-126.56 1138.04,-133.47"/>
</a>
</g>
</g>
<!-- Node22 -->
<g id="Node000022" class="node">
<title>Node22</title>
<g id="a_Node000022"><a xlink:href="MoveMeanFilter_8hpp_source.html" target="_top" xlink:title=" ">
<polygon fill="white" stroke="#666666" points="883,-129 767,-129 767,-110 883,-110 883,-129"/>
<text text-anchor="middle" x="825" y="-117" font-family="Helvetica,sans-Serif" font-size="10.00">MoveMeanFilter.hpp</text>
</a>
</g>
</g>
<!-- Node20&#45;&gt;Node22 -->
<g id="edge32_Node000020_Node000022" class="edge">
<title>Node20&#45;&gt;Node22</title>
<g id="a_edge32_Node000020_Node000022"><a xlink:title=" ">
<path fill="none" stroke="#63b8ff" d="M855.06,-164.75C850.02,-157.34 842.66,-146.5 836.49,-137.41"/>
<polygon fill="#63b8ff" stroke="#63b8ff" points="839.35,-135.39 830.83,-129.09 833.56,-139.33 839.35,-135.39"/>
</a>
</g>
</g>
<!-- Node22&#45;&gt;Node2 -->
<g id="edge33_Node000022_Node000002" class="edge">
<title>Node22&#45;&gt;Node2</title>
<g id="a_edge33_Node000022_Node000002"><a xlink:title=" ">
<path fill="none" stroke="#63b8ff" d="M825,-109.75C825,-102.8 825,-92.85 825,-84.13"/>
<polygon fill="#63b8ff" stroke="#63b8ff" points="828.5,-84.09 825,-74.09 821.5,-84.09 828.5,-84.09"/>
</a>
</g>
</g>
<!-- Node22&#45;&gt;Node6 -->
<g id="edge34_Node000022_Node000006" class="edge">
<title>Node22&#45;&gt;Node6</title>
<g id="a_edge34_Node000022_Node000006"><a xlink:title=" ">
<path fill="none" stroke="#63b8ff" d="M766.66,-110.28C700.01,-100.88 590.98,-85.51 519.59,-75.45"/>
<polygon fill="#63b8ff" stroke="#63b8ff" points="519.73,-71.94 509.34,-74.01 518.76,-78.87 519.73,-71.94"/>
</a>
</g>
</g>
<!-- Node23&#45;&gt;Node2 -->
<g id="edge38_Node000023_Node000002" class="edge">
<title>Node23&#45;&gt;Node2</title>
<g id="a_edge38_Node000023_Node000002"><a xlink:title=" ">
<path fill="none" stroke="#63b8ff" d="M958.78,-164.82C949.07,-151.72 929.2,-126.65 908,-110 891.77,-97.25 871.36,-86.26 854.85,-78.39"/>
<polygon fill="#63b8ff" stroke="#63b8ff" points="856.18,-75.15 845.64,-74.12 853.24,-81.5 856.18,-75.15"/>
</a>
</g>
</g>
<!-- Node24&#45;&gt;Node20 -->
<g id="edge41_Node000024_Node000020" class="edge">
<title>Node24&#45;&gt;Node20</title>
<g id="a_edge41_Node000024_Node000020"><a xlink:title=" ">
<path fill="none" stroke="#63b8ff" d="M1000.33,-219.98C972.46,-211.09 928.55,-197.07 897.48,-187.15"/>
<polygon fill="#63b8ff" stroke="#63b8ff" points="898.47,-183.79 887.88,-184.08 896.34,-190.46 898.47,-183.79"/>
</a>
</g>
</g>
<!-- Node24&#45;&gt;Node21 -->
<g id="edge43_Node000024_Node000021" class="edge">
<title>Node24&#45;&gt;Node21</title>
<g id="a_edge43_Node000024_Node000021"><a xlink:title=" ">
<path fill="none" stroke="#63b8ff" d="M1033.72,-219.58C1044.21,-206.15 1065.74,-180.66 1089,-165 1110.32,-150.65 1136.99,-139.66 1158.62,-132.19"/>
<polygon fill="#63b8ff" stroke="#63b8ff" points="1159.78,-135.49 1168.16,-129.01 1157.57,-128.85 1159.78,-135.49"/>
</a>
</g>
</g>
<!-- Node24&#45;&gt;Node23 -->
<g id="edge42_Node000024_Node000023" class="edge">
<title>Node24&#45;&gt;Node23</title>
<g id="a_edge42_Node000024_Node000023"><a xlink:title=" ">
<path fill="none" stroke="#63b8ff" d="M1017.04,-219.98C1007.87,-212.15 994.06,-200.34 982.97,-190.86"/>
<polygon fill="#63b8ff" stroke="#63b8ff" points="985.02,-188.01 975.14,-184.17 980.47,-193.33 985.02,-188.01"/>
</a>
</g>
</g>
<!-- Node25&#45;&gt;Node19 -->
<g id="edge45_Node000025_Node000019" class="edge">
<title>Node25&#45;&gt;Node19</title>
<g id="a_edge45_Node000025_Node000019"><a xlink:title=" ">
<path fill="none" stroke="#63b8ff" d="M753.88,-239.17C744.06,-247.37 726.75,-259.81 711.96,-269.42"/>
<polygon fill="#63b8ff" stroke="#63b8ff" points="709.75,-266.68 703.16,-274.98 713.49,-272.6 709.75,-266.68"/>
</a>
</g>
</g>
<!-- Node26&#45;&gt;Node2 -->
<g id="edge47_Node000026_Node000002" class="edge">
<title>Node26&#45;&gt;Node2</title>
<g id="a_edge47_Node000026_Node000002"><a xlink:title=" ">
<path fill="none" stroke="#63b8ff" d="M791.21,-164.93C830.95,-157.49 879.66,-145.35 892,-129 906.83,-109.35 879.74,-90.42 855.7,-78.42"/>
<polygon fill="#63b8ff" stroke="#63b8ff" points="856.93,-75.13 846.39,-74.02 853.94,-81.46 856.93,-75.13"/>
</a>
</g>
</g>
<!-- Node26&#45;&gt;Node5 -->
<g id="edge48_Node000026_Node000005" class="edge">
<title>Node26&#45;&gt;Node5</title>
<g id="a_edge48_Node000026_Node000005"><a xlink:title=" ">
<path fill="none" stroke="#63b8ff" d="M731.54,-164.75C727.88,-157.57 722.59,-147.18 718.05,-138.27"/>
<polygon fill="#63b8ff" stroke="#63b8ff" points="721.03,-136.41 713.38,-129.09 714.8,-139.59 721.03,-136.41"/>
</a>
</g>
</g>
<!-- Node26&#45;&gt;Node22 -->
<g id="edge49_Node000026_Node000022" class="edge">
<title>Node26&#45;&gt;Node22</title>
<g id="a_edge49_Node000026_Node000022"><a xlink:title=" ">
<path fill="none" stroke="#63b8ff" d="M750.3,-164.98C764.1,-156.77 785.24,-144.18 801.51,-134.49"/>
<polygon fill="#63b8ff" stroke="#63b8ff" points="803.64,-137.29 810.44,-129.17 800.06,-131.28 803.64,-137.29"/>
</a>
</g>
</g>
<!-- Node27&#45;&gt;Node2 -->
<g id="edge53_Node000027_Node000002" class="edge">
<title>Node27&#45;&gt;Node2</title>
<g id="a_edge53_Node000027_Node000002"><a xlink:title=" ">
<path fill="none" stroke="#63b8ff" d="M1150.96,-219.9C1113.22,-199.78 1015.67,-148.43 932,-110 906.79,-98.42 877.7,-86.41 856.22,-77.78"/>
<polygon fill="#63b8ff" stroke="#63b8ff" points="857.51,-74.53 846.92,-74.07 854.91,-81.03 857.51,-74.53"/>
</a>
</g>
</g>
<!-- Node28 -->
<g id="Node000028" class="node">
<title>Node28</title>
<g id="a_Node000028"><a xlink:title=" ">
<polygon fill="#e0e0e0" stroke="#999999" points="1222,-184 1098,-184 1098,-165 1222,-165 1222,-184"/>
<text text-anchor="middle" x="1160" y="-172" font-family="Helvetica,sans-Serif" font-size="10.00">Arduino_LED_Matrix.h</text>
</a>
</g>
</g>
<!-- Node27&#45;&gt;Node28 -->
<g id="edge54_Node000027_Node000028" class="edge">
<title>Node27&#45;&gt;Node28</title>
<g id="a_edge54_Node000027_Node000028"><a xlink:title=" ">
<path fill="none" stroke="#63b8ff" d="M1165.84,-219.75C1164.93,-212.8 1163.61,-202.85 1162.46,-194.13"/>
<polygon fill="#63b8ff" stroke="#63b8ff" points="1165.91,-193.54 1161.13,-184.09 1158.97,-194.46 1165.91,-193.54"/>
</a>
</g>
</g>
<!-- Node29&#45;&gt;Node20 -->
<g id="edge59_Node000029_Node000020" class="edge">
<title>Node29&#45;&gt;Node20</title>
<g id="a_edge59_Node000029_Node000020"><a xlink:title=" ">
<path fill="none" stroke="#63b8ff" d="M961.08,-274.66C942.71,-256.46 900.41,-214.55 877.12,-191.47"/>
<polygon fill="#63b8ff" stroke="#63b8ff" points="879.31,-188.71 869.74,-184.16 874.38,-193.68 879.31,-188.71"/>
</a>
</g>
</g>
<!-- Node29&#45;&gt;Node21 -->
<g id="edge61_Node000029_Node000021" class="edge">
<title>Node29&#45;&gt;Node21</title>
<g id="a_edge61_Node000029_Node000021"><a xlink:title=" ">
<path fill="none" stroke="#63b8ff" d="M1022.06,-279.88C1084.17,-274.57 1183.11,-262.6 1211,-239 1237.01,-216.99 1241.69,-197.35 1231,-165 1227.54,-154.54 1220.57,-144.53 1213.92,-136.66"/>
<polygon fill="#63b8ff" stroke="#63b8ff" points="1216.33,-134.1 1207.02,-129.04 1211.14,-138.8 1216.33,-134.1"/>
</a>
</g>
</g>
<!-- Node29&#45;&gt;Node23 -->
<g id="edge60_Node000029_Node000023" class="edge">
<title>Node29&#45;&gt;Node23</title>
<g id="a_edge60_Node000029_Node000023"><a xlink:title=" ">
<path fill="none" stroke="#63b8ff" d="M1020.16,-274.93C1059.66,-265.84 1104.99,-248.74 1085,-220 1068.92,-196.89 1039.37,-185.76 1013.62,-180.4"/>
<polygon fill="#63b8ff" stroke="#63b8ff" points="1014.07,-176.93 1003.6,-178.56 1012.81,-183.81 1014.07,-176.93"/>
</a>
</g>
</g>
<!-- Node29&#45;&gt;Node24 -->
<g id="edge62_Node000029_Node000024" class="edge">
<title>Node29&#45;&gt;Node24</title>
<g id="a_edge62_Node000029_Node000024"><a xlink:title=" ">
<path fill="none" stroke="#63b8ff" d="M979.16,-274.98C987.5,-267.23 1000.03,-255.58 1010.18,-246.14"/>
<polygon fill="#63b8ff" stroke="#63b8ff" points="1012.74,-248.54 1017.68,-239.17 1007.97,-243.42 1012.74,-248.54"/>
</a>
</g>
</g>
<!-- Node29&#45;&gt;Node26 -->
<g id="edge63_Node000029_Node000026" class="edge">
<title>Node29&#45;&gt;Node26</title>
<g id="a_edge63_Node000029_Node000026"><a xlink:title=" ">
<path fill="none" stroke="#63b8ff" d="M951.25,-274.84C910.15,-255.88 812,-210.58 763.75,-188.31"/>
<polygon fill="#63b8ff" stroke="#63b8ff" points="765.06,-185.06 754.52,-184.05 762.13,-191.42 765.06,-185.06"/>
</a>
</g>
</g>
</g>
</svg>
