<?xml version="1.0" encoding="UTF-8" standalone="no"?>
<!DOCTYPE svg PUBLIC "-//W3C//DTD SVG 1.1//EN"
 "http://www.w3.org/Graphics/SVG/1.1/DTD/svg11.dtd">
<!-- Generated by graphviz version 2.43.0 (0)
 -->
<!-- Title: BuggySoftware/BuggySoftware.ino Pages: 1 -->
<!--zoomable 302 -->

<svg id="main" version="1.1" xmlns="http://www.w3.org/2000/svg" xmlns:xlink="http://www.w3.org/1999/xlink" xml:space="preserve" onload="init(evt)">

<style type="text/css"><![CDATA[
.node, .edge {opacity: 0.7;}
.node.selected, .edge.selected {opacity: 1;}
.edge:hover path { stroke: red; }
.edge:hover polygon { stroke: red; fill: red; }
]]></style>

<defs>
  <circle id="rim" cx="0" cy="0" r="7"/>
  <circle id="rim2" cx="0" cy="0" r="3.5"/>
  <g id="zoomPlus">
    <use xlink:href="#rim" fill="#404040"><set attributeName="fill" to="#808080" begin="zoomplus.mouseover" end="zoomplus.mouseout"/></use>
    <path d="M-4,0h8M0,-4v8" fill="none" stroke="white" stroke-width="1.5" pointer-events="none"/>
  </g>
  <g id="zoomMin">
    <use xlink:href="#rim" fill="#404040"><set attributeName="fill" to="#808080" begin="zoomminus.mouseover" end="zoomminus.mouseout"/></use>
    <path d="M-4,0h8" fill="none" stroke="white" stroke-width="1.5" pointer-events="none"/>
  </g>
  <g id="arrowUp" transform="translate(30 24)">
    <use xlink:href="#rim"/>
    <path pointer-events="none" fill="none" stroke="white" stroke-width="1.5" d="M0,-3.0v7 M-2.5,-0.5L0,-3.0L2.5,-0.5"/>
  </g>
  <g id="arrowRight" transform="rotate(90) translate(36 -43)">
    <use xlink:href="#rim"/>
    <path pointer-events="none" fill="none" stroke="white" stroke-width="1.5" d="M0,-3.0v7 M-2.5,-0.5L0,-3.0L2.5,-0.5"/>
  </g>
  <g id="arrowDown" transform="rotate(180) translate(-30 -48)">
    <use xlink:href="#rim"/>
    <path pointer-events="none" fill="none" stroke="white" stroke-width="1.5" d="M0,-3.0v7 M-2.5,-0.5L0,-3.0L2.5,-0.5"/>
  </g>
  <g id="arrowLeft" transform="rotate(270) translate(-36 17)">
    <use xlink:href="#rim"/>
    <path pointer-events="none" fill="none" stroke="white" stroke-width="1.5" d="M0,-3.0v7 M-2.5,-0.5L0,-3.0L2.5,-0.5"/>
  </g>
  <g id="resetDef">
    <use xlink:href="#rim2" fill="#404040"><set attributeName="fill" to="#808080" begin="reset.mouseover" end="reset.mouseout"/></use>
  </g>
</defs>
<script type="application/ecmascript">
var viewWidth = 1071;
var viewHeight = 302;
var sectionId = 'dynsection-0';
</script>
<script type="application/ecmascript" xlink:href="svg.min.js"/>
<svg id="graph" class="graph">
<g id="viewport">
<title>BuggySoftware/BuggySoftware.ino</title>
<!-- Node1 -->
<g id="Node000001" class="node">
<title>Node1</title>
<g id="a_Node000001"><a xlink:title="This is the main entry point for the Buggy software.">
<polygon fill="#999999" stroke="#666666" points="694.5,-294 509.5,-294 509.5,-275 694.5,-275 694.5,-294"/>
<text text-anchor="middle" x="602" y="-282" font-family="Helvetica,sans-Serif" font-size="10.00">BuggySoftware/BuggySoftware.ino</text>
</a>
</g>
</g>
<!-- Node2 -->
<g id="Node000002" class="node">
<title>Node2</title>
<g id="a_Node000002"><a xlink:title=" ">
<polygon fill="#e0e0e0" stroke="#999999" points="307.5,-19 244.5,-19 244.5,0 307.5,0 307.5,-19"/>
<text text-anchor="middle" x="276" y="-7" font-family="Helvetica,sans-Serif" font-size="10.00">Arduino.h</text>
</a>
</g>
</g>
<!-- Node1&#45;&gt;Node2 -->
<g id="edge1_Node000001_Node000002" class="edge">
<title>Node1&#45;&gt;Node2</title>
<g id="a_edge1_Node000001_Node000002"><a xlink:title=" ">
<path fill="none" stroke="#63b8ff" d="M509.31,-280.36C422.09,-275.88 288.32,-265.05 175,-239 94.36,-220.46 0,-258.24 0,-175.5 0,-175.5 0,-175.5 0,-118.5 0,-70.63 43.5,-74.99 87,-55 134.94,-32.96 194.91,-21.24 234.27,-15.45"/>
<polygon fill="#63b8ff" stroke="#63b8ff" points="234.9,-18.9 244.31,-14.04 233.92,-11.97 234.9,-18.9"/>
</a>
</g>
</g>
<!-- Node3 -->
<g id="Node000003" class="node">
<title>Node3</title>
<g id="a_Node000003"><a xlink:href="Timer1_8hpp.html" target="_top" xlink:title="Setup methods for Timer1.">
<polygon fill="white" stroke="#666666" points="1020,-239 948,-239 948,-220 1020,-220 1020,-239"/>
<text text-anchor="middle" x="984" y="-227" font-family="Helvetica,sans-Serif" font-size="10.00">Timer1.hpp</text>
</a>
</g>
</g>
<!-- Node1&#45;&gt;Node3 -->
<g id="edge2_Node000001_Node000003" class="edge">
<title>Node1&#45;&gt;Node3</title>
<g id="a_edge2_Node000001_Node000003"><a xlink:title=" ">
<path fill="none" stroke="#63b8ff" d="M663.37,-274.98C739.91,-264.37 869.01,-246.45 937.72,-236.92"/>
<polygon fill="#63b8ff" stroke="#63b8ff" points="938.39,-240.36 947.81,-235.52 937.42,-233.43 938.39,-240.36"/>
</a>
</g>
</g>
<!-- Node5 -->
<g id="Node000005" class="node">
<title>Node5</title>
<g id="a_Node000005"><a xlink:href="PinSetup_8hpp_source.html" target="_top" xlink:title=" ">
<polygon fill="white" stroke="#666666" points="316,-74 236,-74 236,-55 316,-55 316,-74"/>
<text text-anchor="middle" x="276" y="-62" font-family="Helvetica,sans-Serif" font-size="10.00">PinSetup.hpp</text>
</a>
</g>
</g>
<!-- Node1&#45;&gt;Node5 -->
<g id="edge4_Node000001_Node000005" class="edge">
<title>Node1&#45;&gt;Node5</title>
<g id="a_edge4_Node000001_Node000005"><a xlink:title=" ">
<path fill="none" stroke="#63b8ff" d="M535.27,-274.99C440.14,-261.33 273.03,-231.17 237,-184 213.23,-152.88 242.49,-106.61 261.73,-82.11"/>
<polygon fill="#63b8ff" stroke="#63b8ff" points="264.63,-84.1 268.25,-74.14 259.21,-79.67 264.63,-84.1"/>
</a>
</g>
</g>
<!-- Node7 -->
<g id="Node000007" class="node">
<title>Node7</title>
<g id="a_Node000007"><a xlink:href="Logger_8hpp_source.html" target="_top" xlink:title=" ">
<polygon fill="white" stroke="#666666" points="805,-239 735,-239 735,-220 805,-220 805,-239"/>
<text text-anchor="middle" x="770" y="-227" font-family="Helvetica,sans-Serif" font-size="10.00">Logger.hpp</text>
</a>
</g>
</g>
<!-- Node1&#45;&gt;Node7 -->
<g id="edge7_Node000001_Node000007" class="edge">
<title>Node1&#45;&gt;Node7</title>
<g id="a_edge7_Node000001_Node000007"><a xlink:title=" ">
<path fill="none" stroke="#63b8ff" d="M628.99,-274.98C657.2,-266.09 701.64,-252.07 733.08,-242.15"/>
<polygon fill="#63b8ff" stroke="#63b8ff" points="734.31,-245.43 742.8,-239.08 732.21,-238.75 734.31,-245.43"/>
</a>
</g>
</g>
<!-- Node18 -->
<g id="Node000018" class="node">
<title>Node18</title>
<g id="a_Node000018"><a xlink:href="Buggy_8hpp_source.html" target="_top" xlink:title=" ">
<polygon fill="white" stroke="#666666" points="559.5,-239 492.5,-239 492.5,-220 559.5,-220 559.5,-239"/>
<text text-anchor="middle" x="526" y="-227" font-family="Helvetica,sans-Serif" font-size="10.00">Buggy.hpp</text>
</a>
</g>
</g>
<!-- Node1&#45;&gt;Node18 -->
<g id="edge20_Node000001_Node000018" class="edge">
<title>Node1&#45;&gt;Node18</title>
<g id="a_edge20_Node000001_Node000018"><a xlink:title=" ">
<path fill="none" stroke="#63b8ff" d="M589.79,-274.98C578.22,-266.92 560.62,-254.65 546.84,-245.03"/>
<polygon fill="#63b8ff" stroke="#63b8ff" points="548.64,-242.02 538.43,-239.17 544.63,-247.76 548.64,-242.02"/>
</a>
</g>
</g>
<!-- Node20 -->
<g id="Node000020" class="node">
<title>Node20</title>
<g id="a_Node000020"><a xlink:href="PIDController_8hpp_source.html" target="_top" xlink:title=" ">
<polygon fill="white" stroke="#666666" points="583.5,-74 482.5,-74 482.5,-55 583.5,-55 583.5,-74"/>
<text text-anchor="middle" x="533" y="-62" font-family="Helvetica,sans-Serif" font-size="10.00">PIDController.hpp</text>
</a>
</g>
</g>
<!-- Node1&#45;&gt;Node20 -->
<g id="edge46_Node000001_Node000020" class="edge">
<title>Node1&#45;&gt;Node20</title>
<g id="a_edge46_Node000001_Node000020"><a xlink:title=" ">
<path fill="none" stroke="#63b8ff" d="M609.91,-274.75C633.25,-247.85 697.82,-164.87 659,-110 644.05,-88.86 618.18,-77.69 593.76,-71.82"/>
<polygon fill="#63b8ff" stroke="#63b8ff" points="594.29,-68.36 583.78,-69.69 592.82,-75.2 594.29,-68.36"/>
</a>
</g>
</g>
<!-- Node25 -->
<g id="Node000025" class="node">
<title>Node25</title>
<g id="a_Node000025"><a xlink:href="PacketFactory_8hpp_source.html" target="_top" xlink:title=" ">
<polygon fill="white" stroke="#666666" points="973.5,-184 870.5,-184 870.5,-165 973.5,-165 973.5,-184"/>
<text text-anchor="middle" x="922" y="-172" font-family="Helvetica,sans-Serif" font-size="10.00">PacketFactory.hpp</text>
</a>
</g>
</g>
<!-- Node1&#45;&gt;Node25 -->
<g id="edge47_Node000001_Node000025" class="edge">
<title>Node1&#45;&gt;Node25</title>
<g id="a_edge47_Node000001_Node000025"><a xlink:title=" ">
<path fill="none" stroke="#63b8ff" d="M669.97,-274.98C712.37,-268.27 767.53,-256.98 814,-239 846.69,-226.35 881.02,-204.46 901.97,-189.98"/>
<polygon fill="#63b8ff" stroke="#63b8ff" points="904.18,-192.71 910.35,-184.09 900.15,-186.98 904.18,-192.71"/>
</a>
</g>
</g>
<!-- Node26 -->
<g id="Node000026" class="node">
<title>Node26</title>
<g id="a_Node000026"><a xlink:href="Matrix_8hpp_source.html" target="_top" xlink:title=" ">
<polygon fill="white" stroke="#666666" points="175.5,-184 106.5,-184 106.5,-165 175.5,-165 175.5,-184"/>
<text text-anchor="middle" x="141" y="-172" font-family="Helvetica,sans-Serif" font-size="10.00">Matrix.hpp</text>
</a>
</g>
</g>
<!-- Node1&#45;&gt;Node26 -->
<g id="edge48_Node000001_Node000026" class="edge">
<title>Node1&#45;&gt;Node26</title>
<g id="a_edge48_Node000001_Node000026"><a xlink:title=" ">
<path fill="none" stroke="#63b8ff" d="M509.18,-280.22C408.79,-275.44 256.11,-264.19 204,-239 182.46,-228.59 164.04,-207.72 152.77,-192.74"/>
<polygon fill="#63b8ff" stroke="#63b8ff" points="155.4,-190.4 146.72,-184.33 149.72,-194.49 155.4,-190.4"/>
</a>
</g>
</g>
<!-- Node4 -->
<g id="Node000004" class="node">
<title>Node4</title>
<g id="a_Node000004"><a xlink:title=" ">
<polygon fill="#e0e0e0" stroke="#999999" points="1062.5,-184 991.5,-184 991.5,-165 1062.5,-165 1062.5,-184"/>
<text text-anchor="middle" x="1027" y="-172" font-family="Helvetica,sans-Serif" font-size="10.00">FspTimer.h</text>
</a>
</g>
</g>
<!-- Node3&#45;&gt;Node4 -->
<g id="edge3_Node000003_Node000004" class="edge">
<title>Node3&#45;&gt;Node4</title>
<g id="a_edge3_Node000003_Node000004"><a xlink:title=" ">
<path fill="none" stroke="#63b8ff" d="M991.1,-219.75C997.17,-212.26 1006.09,-201.28 1013.51,-192.13"/>
<polygon fill="#63b8ff" stroke="#63b8ff" points="1016.45,-194.06 1020.03,-184.09 1011.01,-189.65 1016.45,-194.06"/>
</a>
</g>
</g>
<!-- Node5&#45;&gt;Node2 -->
<g id="edge6_Node000005_Node000002" class="edge">
<title>Node5&#45;&gt;Node2</title>
<g id="a_edge6_Node000005_Node000002"><a xlink:title=" ">
<path fill="none" stroke="#63b8ff" d="M276,-54.75C276,-47.8 276,-37.85 276,-29.13"/>
<polygon fill="#63b8ff" stroke="#63b8ff" points="279.5,-29.09 276,-19.09 272.5,-29.09 279.5,-29.09"/>
</a>
</g>
</g>
<!-- Node6 -->
<g id="Node000006" class="node">
<title>Node6</title>
<g id="a_Node000006"><a xlink:href="helpers_8hpp_source.html" target="_top" xlink:title=" ">
<polygon fill="white" stroke="#666666" points="551,-19 477,-19 477,0 551,0 551,-19"/>
<text text-anchor="middle" x="514" y="-7" font-family="Helvetica,sans-Serif" font-size="10.00">helpers.hpp</text>
</a>
</g>
</g>
<!-- Node5&#45;&gt;Node6 -->
<g id="edge5_Node000005_Node000006" class="edge">
<title>Node5&#45;&gt;Node6</title>
<g id="a_edge5_Node000005_Node000006"><a xlink:title=" ">
<path fill="none" stroke="#63b8ff" d="M314.24,-54.98C355.69,-45.75 421.88,-31.01 466.6,-21.05"/>
<polygon fill="#63b8ff" stroke="#63b8ff" points="467.64,-24.41 476.64,-18.82 466.12,-17.58 467.64,-24.41"/>
</a>
</g>
</g>
<!-- Node8 -->
<g id="Node000008" class="node">
<title>Node8</title>
<g id="a_Node000008"><a xlink:href="LeanStreamIO_8hpp_source.html" target="_top" xlink:title=" ">
<polygon fill="white" stroke="#666666" points="852.5,-184 745.5,-184 745.5,-165 852.5,-165 852.5,-184"/>
<text text-anchor="middle" x="799" y="-172" font-family="Helvetica,sans-Serif" font-size="10.00">LeanStreamIO.hpp</text>
</a>
</g>
</g>
<!-- Node7&#45;&gt;Node8 -->
<g id="edge8_Node000007_Node000008" class="edge">
<title>Node7&#45;&gt;Node8</title>
<g id="a_edge8_Node000007_Node000008"><a xlink:title=" ">
<path fill="none" stroke="#63b8ff" d="M774.79,-219.75C778.76,-212.49 784.53,-201.95 789.43,-192.98"/>
<polygon fill="#63b8ff" stroke="#63b8ff" points="792.57,-194.54 794.3,-184.09 786.43,-191.18 792.57,-194.54"/>
</a>
</g>
</g>
<!-- Node9 -->
<g id="Node000009" class="node">
<title>Node9</title>
<g id="a_Node000009"><a xlink:title=" ">
<polygon fill="#e0e0e0" stroke="#999999" points="1032,-129 988,-129 988,-110 1032,-110 1032,-129"/>
<text text-anchor="middle" x="1010" y="-117" font-family="Helvetica,sans-Serif" font-size="10.00">string</text>
</a>
</g>
</g>
<!-- Node8&#45;&gt;Node9 -->
<g id="edge9_Node000008_Node000009" class="edge">
<title>Node8&#45;&gt;Node9</title>
<g id="a_edge9_Node000008_Node000009"><a xlink:title=" ">
<path fill="none" stroke="#63b8ff" d="M834.59,-164.98C868.89,-156.71 922.5,-143.62 977.71,-129.29"/>
<polygon fill="#63b8ff" stroke="#63b8ff" points="978.87,-132.6 987.67,-126.7 977.11,-125.83 978.87,-132.6"/>
</a>
</g>
</g>
<!-- Node10 -->
<g id="Node000010" class="node">
<title>Node10</title>
<g id="a_Node000010"><a xlink:title=" ">
<polygon fill="#e0e0e0" stroke="#999999" points="901.5,-129 848.5,-129 848.5,-110 901.5,-110 901.5,-129"/>
<text text-anchor="middle" x="875" y="-117" font-family="Helvetica,sans-Serif" font-size="10.00">cstddef</text>
</a>
</g>
</g>
<!-- Node8&#45;&gt;Node10 -->
<g id="edge10_Node000008_Node000010" class="edge">
<title>Node8&#45;&gt;Node10</title>
<g id="a_edge10_Node000008_Node000010"><a xlink:title=" ">
<path fill="none" stroke="#63b8ff" d="M811.21,-164.98C822.78,-156.92 840.38,-144.65 854.16,-135.03"/>
<polygon fill="#63b8ff" stroke="#63b8ff" points="856.37,-137.76 862.57,-129.17 852.36,-132.02 856.37,-137.76"/>
</a>
</g>
</g>
<!-- Node11 -->
<g id="Node000011" class="node">
<title>Node11</title>
<g id="a_Node000011"><a xlink:title=" ">
<polygon fill="#e0e0e0" stroke="#999999" points="970,-129 920,-129 920,-110 970,-110 970,-129"/>
<text text-anchor="middle" x="945" y="-117" font-family="Helvetica,sans-Serif" font-size="10.00">cstring</text>
</a>
</g>
</g>
<!-- Node8&#45;&gt;Node11 -->
<g id="edge11_Node000008_Node000011" class="edge">
<title>Node8&#45;&gt;Node11</title>
<g id="a_edge11_Node000008_Node000011"><a xlink:title=" ">
<path fill="none" stroke="#63b8ff" d="M822.46,-164.98C846.58,-156.23 884.37,-142.51 911.6,-132.62"/>
<polygon fill="#63b8ff" stroke="#63b8ff" points="912.91,-135.87 921.12,-129.17 910.52,-129.29 912.91,-135.87"/>
</a>
</g>
</g>
<!-- Node12 -->
<g id="Node000012" class="node">
<title>Node12</title>
<g id="a_Node000012"><a xlink:href="BuggyTCP_8hpp_source.html" target="_top" xlink:title=" ">
<polygon fill="white" stroke="#666666" points="830.5,-129 745.5,-129 745.5,-110 830.5,-110 830.5,-129"/>
<text text-anchor="middle" x="788" y="-117" font-family="Helvetica,sans-Serif" font-size="10.00">BuggyTCP.hpp</text>
</a>
</g>
</g>
<!-- Node8&#45;&gt;Node12 -->
<g id="edge12_Node000008_Node000012" class="edge">
<title>Node8&#45;&gt;Node12</title>
<g id="a_edge12_Node000008_Node000012"><a xlink:title=" ">
<path fill="none" stroke="#63b8ff" d="M797.18,-164.75C795.74,-157.8 793.68,-147.85 791.87,-139.13"/>
<polygon fill="#63b8ff" stroke="#63b8ff" points="795.24,-138.17 789.78,-129.09 788.39,-139.59 795.24,-138.17"/>
</a>
</g>
</g>
<!-- Node13 -->
<g id="Node000013" class="node">
<title>Node13</title>
<g id="a_Node000013"><a xlink:href="BuggyWifi_8hpp_source.html" target="_top" xlink:title=" ">
<polygon fill="white" stroke="#666666" points="759.5,-74 672.5,-74 672.5,-55 759.5,-55 759.5,-74"/>
<text text-anchor="middle" x="716" y="-62" font-family="Helvetica,sans-Serif" font-size="10.00">BuggyWifi.hpp</text>
</a>
</g>
</g>
<!-- Node12&#45;&gt;Node13 -->
<g id="edge13_Node000012_Node000013" class="edge">
<title>Node12&#45;&gt;Node13</title>
<g id="a_edge13_Node000012_Node000013"><a xlink:title=" ">
<path fill="none" stroke="#63b8ff" d="M776.43,-109.98C765.58,-102 749.12,-89.88 736.12,-80.31"/>
<polygon fill="#63b8ff" stroke="#63b8ff" points="737.91,-77.28 727.78,-74.17 733.76,-82.92 737.91,-77.28"/>
</a>
</g>
</g>
<!-- Node16 -->
<g id="Node000016" class="node">
<title>Node16</title>
<g id="a_Node000016"><a xlink:href="PacketTypes_8hpp_source.html" target="_top" xlink:title=" ">
<polygon fill="white" stroke="#666666" points="921.5,-19 824.5,-19 824.5,0 921.5,0 921.5,-19"/>
<text text-anchor="middle" x="873" y="-7" font-family="Helvetica,sans-Serif" font-size="10.00">PacketTypes.hpp</text>
</a>
</g>
</g>
<!-- Node12&#45;&gt;Node16 -->
<g id="edge17_Node000012_Node000016" class="edge">
<title>Node12&#45;&gt;Node16</title>
<g id="a_edge17_Node000012_Node000016"><a xlink:title=" ">
<path fill="none" stroke="#63b8ff" d="M788.73,-109.88C790.22,-96.85 794.59,-71.87 807,-55 816.62,-41.92 831.31,-31.47 844.39,-24"/>
<polygon fill="#63b8ff" stroke="#63b8ff" points="846.38,-26.9 853.54,-19.08 843.07,-20.73 846.38,-26.9"/>
</a>
</g>
</g>
<!-- Node17 -->
<g id="Node000017" class="node">
<title>Node17</title>
<g id="a_Node000017"><a xlink:href="PacketSerializer_8hpp_source.html" target="_top" xlink:title=" ">
<polygon fill="white" stroke="#666666" points="930,-74 816,-74 816,-55 930,-55 930,-74"/>
<text text-anchor="middle" x="873" y="-62" font-family="Helvetica,sans-Serif" font-size="10.00">PacketSerializer.hpp</text>
</a>
</g>
</g>
<!-- Node12&#45;&gt;Node17 -->
<g id="edge18_Node000012_Node000017" class="edge">
<title>Node12&#45;&gt;Node17</title>
<g id="a_edge18_Node000012_Node000017"><a xlink:title=" ">
<path fill="none" stroke="#63b8ff" d="M801.66,-109.98C814.84,-101.77 835.03,-89.18 850.57,-79.49"/>
<polygon fill="#63b8ff" stroke="#63b8ff" points="852.46,-82.43 859.09,-74.17 848.76,-76.49 852.46,-82.43"/>
</a>
</g>
</g>
<!-- Node13&#45;&gt;Node6 -->
<g id="edge14_Node000013_Node000006" class="edge">
<title>Node13&#45;&gt;Node6</title>
<g id="a_edge14_Node000013_Node000006"><a xlink:title=" ">
<path fill="none" stroke="#63b8ff" d="M683.55,-54.98C649.04,-45.93 594.34,-31.58 556.44,-21.64"/>
<polygon fill="#63b8ff" stroke="#63b8ff" points="557.27,-18.23 546.71,-19.08 555.49,-25.01 557.27,-18.23"/>
</a>
</g>
</g>
<!-- Node14 -->
<g id="Node000014" class="node">
<title>Node14</title>
<g id="a_Node000014"><a xlink:title=" ">
<polygon fill="#e0e0e0" stroke="#999999" points="775.5,-19 716.5,-19 716.5,0 775.5,0 775.5,-19"/>
<text text-anchor="middle" x="746" y="-7" font-family="Helvetica,sans-Serif" font-size="10.00">WiFiS3.h</text>
</a>
</g>
</g>
<!-- Node13&#45;&gt;Node14 -->
<g id="edge15_Node000013_Node000014" class="edge">
<title>Node13&#45;&gt;Node14</title>
<g id="a_edge15_Node000013_Node000014"><a xlink:title=" ">
<path fill="none" stroke="#63b8ff" d="M720.95,-54.75C725.06,-47.49 731.03,-36.95 736.1,-27.98"/>
<polygon fill="#63b8ff" stroke="#63b8ff" points="739.26,-29.52 741.14,-19.09 733.17,-26.07 739.26,-29.52"/>
</a>
</g>
</g>
<!-- Node15 -->
<g id="Node000015" class="node">
<title>Node15</title>
<g id="a_Node000015"><a xlink:href="secrets_8h_source.html" target="_top" xlink:title=" ">
<polygon fill="white" stroke="#666666" points="698.5,-19 637.5,-19 637.5,0 698.5,0 698.5,-19"/>
<text text-anchor="middle" x="668" y="-7" font-family="Helvetica,sans-Serif" font-size="10.00">secrets.h</text>
</a>
</g>
</g>
<!-- Node13&#45;&gt;Node15 -->
<g id="edge16_Node000013_Node000015" class="edge">
<title>Node13&#45;&gt;Node15</title>
<g id="a_edge16_Node000013_Node000015"><a xlink:title=" ">
<path fill="none" stroke="#63b8ff" d="M708.07,-54.75C701.15,-47.11 690.93,-35.82 682.55,-26.56"/>
<polygon fill="#63b8ff" stroke="#63b8ff" points="685.09,-24.15 675.78,-19.09 679.9,-28.85 685.09,-24.15"/>
</a>
</g>
</g>
<!-- Node17&#45;&gt;Node16 -->
<g id="edge19_Node000017_Node000016" class="edge">
<title>Node17&#45;&gt;Node16</title>
<g id="a_edge19_Node000017_Node000016"><a xlink:title=" ">
<path fill="none" stroke="#63b8ff" d="M873,-54.75C873,-47.8 873,-37.85 873,-29.13"/>
<polygon fill="#63b8ff" stroke="#63b8ff" points="876.5,-29.09 873,-19.09 869.5,-29.09 876.5,-29.09"/>
</a>
</g>
</g>
<!-- Node18&#45;&gt;Node5 -->
<g id="edge29_Node000018_Node000005" class="edge">
<title>Node18&#45;&gt;Node5</title>
<g id="a_edge29_Node000018_Node000005"><a xlink:title=" ">
<path fill="none" stroke="#63b8ff" d="M502.24,-219.9C440.95,-197.61 281.8,-139.01 275,-129 266.1,-115.9 267.5,-97.52 270.45,-83.9"/>
<polygon fill="#63b8ff" stroke="#63b8ff" points="273.84,-84.75 272.97,-74.19 267.07,-82.99 273.84,-84.75"/>
</a>
</g>
</g>
<!-- Node18&#45;&gt;Node8 -->
<g id="edge42_Node000018_Node000008" class="edge">
<title>Node18&#45;&gt;Node8</title>
<g id="a_edge42_Node000018_Node000008"><a xlink:title=" ">
<path fill="none" stroke="#63b8ff" d="M559.75,-221.95C606.08,-212.95 689.91,-196.68 745.01,-185.98"/>
<polygon fill="#63b8ff" stroke="#63b8ff" points="745.8,-189.39 754.95,-184.05 744.47,-182.52 745.8,-189.39"/>
</a>
</g>
</g>
<!-- Node18&#45;&gt;Node12 -->
<g id="edge26_Node000018_Node000012" class="edge">
<title>Node18&#45;&gt;Node12</title>
<g id="a_edge26_Node000018_Node000012"><a xlink:title=" ">
<path fill="none" stroke="#63b8ff" d="M553.77,-219.93C580.12,-211.56 620.69,-198.06 655,-184 693.17,-168.36 736,-147.24 762.5,-133.74"/>
<polygon fill="#63b8ff" stroke="#63b8ff" points="764.18,-136.81 771.48,-129.14 760.98,-130.58 764.18,-136.81"/>
</a>
</g>
</g>
<!-- Node18&#45;&gt;Node13 -->
<g id="edge25_Node000018_Node000013" class="edge">
<title>Node18&#45;&gt;Node13</title>
<g id="a_edge25_Node000018_Node000013"><a xlink:title=" ">
<path fill="none" stroke="#63b8ff" d="M544.19,-219.87C560.56,-211.71 584.91,-198.57 604,-184 644.68,-152.95 683.76,-106.65 703.22,-82.13"/>
<polygon fill="#63b8ff" stroke="#63b8ff" points="706.05,-84.18 709.46,-74.15 700.54,-79.87 706.05,-84.18"/>
</a>
</g>
</g>
<!-- Node19 -->
<g id="Node000019" class="node">
<title>Node19</title>
<g id="a_Node000019"><a xlink:href="MotorDriver_8hpp_source.html" target="_top" xlink:title=" ">
<polygon fill="white" stroke="#666666" points="516.5,-129 421.5,-129 421.5,-110 516.5,-110 516.5,-129"/>
<text text-anchor="middle" x="469" y="-117" font-family="Helvetica,sans-Serif" font-size="10.00">MotorDriver.hpp</text>
</a>
</g>
</g>
<!-- Node18&#45;&gt;Node19 -->
<g id="edge21_Node000018_Node000019" class="edge">
<title>Node18&#45;&gt;Node19</title>
<g id="a_edge21_Node000018_Node000019"><a xlink:title=" ">
<path fill="none" stroke="#63b8ff" d="M507.33,-219.97C493.67,-212.59 476.14,-200.5 468,-184 461.14,-170.09 462.12,-152.3 464.39,-139.09"/>
<polygon fill="#63b8ff" stroke="#63b8ff" points="467.83,-139.77 466.47,-129.26 460.98,-138.32 467.83,-139.77"/>
</a>
</g>
</g>
<!-- Node21 -->
<g id="Node000021" class="node">
<title>Node21</title>
<g id="a_Node000021"><a xlink:href="IrSensor_8hpp_source.html" target="_top" xlink:title=" ">
<polygon fill="white" stroke="#666666" points="650.5,-129 573.5,-129 573.5,-110 650.5,-110 650.5,-129"/>
<text text-anchor="middle" x="612" y="-117" font-family="Helvetica,sans-Serif" font-size="10.00">IrSensor.hpp</text>
</a>
</g>
</g>
<!-- Node18&#45;&gt;Node21 -->
<g id="edge27_Node000018_Node000021" class="edge">
<title>Node18&#45;&gt;Node21</title>
<g id="a_edge27_Node000018_Node000021"><a xlink:title=" ">
<path fill="none" stroke="#63b8ff" d="M541.04,-219.95C553.87,-212.01 572.08,-199.17 584,-184 594.69,-170.39 602.2,-152.07 606.73,-138.6"/>
<polygon fill="#63b8ff" stroke="#63b8ff" points="610.08,-139.62 609.73,-129.03 603.4,-137.52 610.08,-139.62"/>
</a>
</g>
</g>
<!-- Node22 -->
<g id="Node000022" class="node">
<title>Node22</title>
<g id="a_Node000022"><a xlink:href="LineFollower_8hpp_source.html" target="_top" xlink:title=" ">
<polygon fill="white" stroke="#666666" points="575,-184 477,-184 477,-165 575,-165 575,-184"/>
<text text-anchor="middle" x="526" y="-172" font-family="Helvetica,sans-Serif" font-size="10.00">LineFollower.hpp</text>
</a>
</g>
</g>
<!-- Node18&#45;&gt;Node22 -->
<g id="edge30_Node000018_Node000022" class="edge">
<title>Node18&#45;&gt;Node22</title>
<g id="a_edge30_Node000018_Node000022"><a xlink:title=" ">
<path fill="none" stroke="#63b8ff" d="M526,-219.75C526,-212.8 526,-202.85 526,-194.13"/>
<polygon fill="#63b8ff" stroke="#63b8ff" points="529.5,-194.09 526,-184.09 522.5,-194.09 529.5,-194.09"/>
</a>
</g>
</g>
<!-- Node23 -->
<g id="Node000023" class="node">
<title>Node23</title>
<g id="a_Node000023"><a xlink:href="BuggyState_8hpp_source.html" target="_top" xlink:title=" ">
<polygon fill="white" stroke="#666666" points="340,-184 246,-184 246,-165 340,-165 340,-184"/>
<text text-anchor="middle" x="293" y="-172" font-family="Helvetica,sans-Serif" font-size="10.00">BuggyState.hpp</text>
</a>
</g>
</g>
<!-- Node18&#45;&gt;Node23 -->
<g id="edge34_Node000018_Node000023" class="edge">
<title>Node18&#45;&gt;Node23</title>
<g id="a_edge34_Node000018_Node000023"><a xlink:title=" ">
<path fill="none" stroke="#63b8ff" d="M492.32,-221.89C450.74,-212.99 380.28,-197.04 335.17,-186.36"/>
<polygon fill="#63b8ff" stroke="#63b8ff" points="335.93,-182.94 325.39,-184.03 334.31,-189.75 335.93,-182.94"/>
</a>
</g>
</g>
<!-- Node24 -->
<g id="Node000024" class="node">
<title>Node24</title>
<g id="a_Node000024"><a xlink:href="UltrasonicSensor_8hpp_source.html" target="_top" xlink:title=" ">
<polygon fill="white" stroke="#666666" points="403.5,-129 284.5,-129 284.5,-110 403.5,-110 403.5,-129"/>
<text text-anchor="middle" x="344" y="-117" font-family="Helvetica,sans-Serif" font-size="10.00">UltrasonicSensor.hpp</text>
</a>
</g>
</g>
<!-- Node18&#45;&gt;Node24 -->
<g id="edge36_Node000018_Node000024" class="edge">
<title>Node18&#45;&gt;Node24</title>
<g id="a_edge36_Node000018_Node000024"><a xlink:title=" ">
<path fill="none" stroke="#63b8ff" d="M511.41,-219.84C479.92,-201.16 405.33,-156.9 367.25,-134.3"/>
<polygon fill="#63b8ff" stroke="#63b8ff" points="368.79,-131.14 358.4,-129.05 365.22,-137.16 368.79,-131.14"/>
</a>
</g>
</g>
<!-- Node18&#45;&gt;Node25 -->
<g id="edge40_Node000018_Node000025" class="edge">
<title>Node18&#45;&gt;Node25</title>
<g id="a_edge40_Node000018_Node000025"><a xlink:title=" ">
<path fill="none" stroke="#63b8ff" d="M559.88,-224.12C618.78,-216.47 744.16,-200.1 860.18,-184.24"/>
<polygon fill="#63b8ff" stroke="#63b8ff" points="860.86,-187.68 870.29,-182.86 859.91,-180.74 860.86,-187.68"/>
</a>
</g>
</g>
<!-- Node18&#45;&gt;Node26 -->
<g id="edge43_Node000018_Node000026" class="edge">
<title>Node18&#45;&gt;Node26</title>
<g id="a_edge43_Node000018_Node000026"><a xlink:title=" ">
<path fill="none" stroke="#63b8ff" d="M492.17,-223.84C422.63,-214.27 263.63,-192.38 185.71,-181.65"/>
<polygon fill="#63b8ff" stroke="#63b8ff" points="186.1,-178.18 175.72,-180.28 185.15,-185.11 186.1,-178.18"/>
</a>
</g>
</g>
<!-- Node19&#45;&gt;Node2 -->
<g id="edge24_Node000019_Node000002" class="edge">
<title>Node19&#45;&gt;Node2</title>
<g id="a_edge24_Node000019_Node000002"><a xlink:title=" ">
<path fill="none" stroke="#63b8ff" d="M453.53,-109.84C419.99,-91.08 340.37,-46.52 300.14,-24.01"/>
<polygon fill="#63b8ff" stroke="#63b8ff" points="301.71,-20.88 291.27,-19.05 298.29,-26.98 301.71,-20.88"/>
</a>
</g>
</g>
<!-- Node19&#45;&gt;Node5 -->
<g id="edge22_Node000019_Node000005" class="edge">
<title>Node19&#45;&gt;Node5</title>
<g id="a_edge22_Node000019_Node000005"><a xlink:title=" ">
<path fill="none" stroke="#63b8ff" d="M437.99,-109.98C405.17,-100.97 353.2,-86.7 317.01,-76.76"/>
<polygon fill="#63b8ff" stroke="#63b8ff" points="317.82,-73.36 307.25,-74.08 315.97,-80.11 317.82,-73.36"/>
</a>
</g>
</g>
<!-- Node19&#45;&gt;Node20 -->
<g id="edge23_Node000019_Node000020" class="edge">
<title>Node19&#45;&gt;Node20</title>
<g id="a_edge23_Node000019_Node000020"><a xlink:title=" ">
<path fill="none" stroke="#63b8ff" d="M479.28,-109.98C488.84,-102.07 503.28,-90.11 514.78,-80.58"/>
<polygon fill="#63b8ff" stroke="#63b8ff" points="517.06,-83.24 522.53,-74.17 512.6,-77.85 517.06,-83.24"/>
</a>
</g>
</g>
<!-- Node21&#45;&gt;Node6 -->
<g id="edge28_Node000021_Node000006" class="edge">
<title>Node21&#45;&gt;Node6</title>
<g id="a_edge28_Node000021_Node000006"><a xlink:title=" ">
<path fill="none" stroke="#63b8ff" d="M611.26,-109.75C609.74,-96.56 605.21,-71.37 592,-55 580.57,-40.83 563.34,-30.33 547.98,-23.1"/>
<polygon fill="#63b8ff" stroke="#63b8ff" points="549.29,-19.85 538.72,-19.01 546.46,-26.25 549.29,-19.85"/>
</a>
</g>
</g>
<!-- Node22&#45;&gt;Node19 -->
<g id="edge31_Node000022_Node000019" class="edge">
<title>Node22&#45;&gt;Node19</title>
<g id="a_edge31_Node000022_Node000019"><a xlink:title=" ">
<path fill="none" stroke="#63b8ff" d="M516.84,-164.98C508.5,-157.23 495.97,-145.58 485.82,-136.14"/>
<polygon fill="#63b8ff" stroke="#63b8ff" points="488.03,-133.42 478.32,-129.17 483.26,-138.54 488.03,-133.42"/>
</a>
</g>
</g>
<!-- Node22&#45;&gt;Node20 -->
<g id="edge33_Node000022_Node000020" class="edge">
<title>Node22&#45;&gt;Node20</title>
<g id="a_edge33_Node000022_Node000020"><a xlink:title=" ">
<path fill="none" stroke="#63b8ff" d="M526.57,-164.66C527.71,-147.17 530.26,-107.8 531.78,-84.27"/>
<polygon fill="#63b8ff" stroke="#63b8ff" points="535.28,-84.36 532.44,-74.16 528.3,-83.91 535.28,-84.36"/>
</a>
</g>
</g>
<!-- Node22&#45;&gt;Node21 -->
<g id="edge32_Node000022_Node000021" class="edge">
<title>Node22&#45;&gt;Node21</title>
<g id="a_edge32_Node000022_Node000021"><a xlink:title=" ">
<path fill="none" stroke="#63b8ff" d="M539.82,-164.98C553.15,-156.77 573.58,-144.18 589.31,-134.49"/>
<polygon fill="#63b8ff" stroke="#63b8ff" points="591.25,-137.4 597.93,-129.17 587.58,-131.44 591.25,-137.4"/>
</a>
</g>
</g>
<!-- Node23&#45;&gt;Node18 -->
<g id="edge35_Node000023_Node000018" class="edge">
<title>Node23&#45;&gt;Node18</title>
<g id="a_edge35_Node000023_Node000018"><a xlink:title=" ">
<path fill="none" stroke="#63b8ff" d="M335.86,-184.08C378.02,-193.22 441.83,-207.7 483.78,-217.63"/>
<polygon fill="#63b8ff" stroke="#63b8ff" points="483.14,-221.07 493.68,-219.98 484.76,-214.26 483.14,-221.07"/>
</a>
</g>
</g>
<!-- Node24&#45;&gt;Node2 -->
<g id="edge37_Node000024_Node000002" class="edge">
<title>Node24&#45;&gt;Node2</title>
<g id="a_edge37_Node000024_Node000002"><a xlink:title=" ">
<path fill="none" stroke="#63b8ff" d="M342.89,-109.67C340.95,-96.8 336.04,-72.53 325,-55 317.8,-43.57 306.88,-33.25 297.17,-25.44"/>
<polygon fill="#63b8ff" stroke="#63b8ff" points="299.15,-22.54 289.08,-19.25 294.9,-28.1 299.15,-22.54"/>
</a>
</g>
</g>
<!-- Node24&#45;&gt;Node5 -->
<g id="edge39_Node000024_Node000005" class="edge">
<title>Node24&#45;&gt;Node5</title>
<g id="a_edge39_Node000024_Node000005"><a xlink:title=" ">
<path fill="none" stroke="#63b8ff" d="M333.07,-109.98C322.92,-102.07 307.58,-90.11 295.35,-80.58"/>
<polygon fill="#63b8ff" stroke="#63b8ff" points="297.16,-77.56 287.12,-74.17 292.86,-83.08 297.16,-77.56"/>
</a>
</g>
</g>
<!-- Node24&#45;&gt;Node6 -->
<g id="edge38_Node000024_Node000006" class="edge">
<title>Node24&#45;&gt;Node6</title>
<g id="a_edge38_Node000024_Node000006"><a xlink:title=" ">
<path fill="none" stroke="#63b8ff" d="M357.62,-109.84C386.84,-91.28 455.78,-47.49 491.56,-24.75"/>
<polygon fill="#63b8ff" stroke="#63b8ff" points="493.75,-27.51 500.31,-19.2 489.99,-21.6 493.75,-27.51"/>
</a>
</g>
</g>
<!-- Node25&#45;&gt;Node16 -->
<g id="edge41_Node000025_Node000016" class="edge">
<title>Node25&#45;&gt;Node16</title>
<g id="a_edge41_Node000025_Node000016"><a xlink:title=" ">
<path fill="none" stroke="#63b8ff" d="M973.69,-165.89C1013.37,-157.51 1058.63,-140.92 1041,-110 1014.17,-62.93 955.36,-35.85 914.96,-22.15"/>
<polygon fill="#63b8ff" stroke="#63b8ff" points="915.96,-18.79 905.37,-19.03 913.8,-25.45 915.96,-18.79"/>
</a>
</g>
</g>
<!-- Node26&#45;&gt;Node2 -->
<g id="edge44_Node000026_Node000002" class="edge">
<title>Node26&#45;&gt;Node2</title>
<g id="a_edge44_Node000026_Node000002"><a xlink:title=" ">
<path fill="none" stroke="#63b8ff" d="M111.06,-164.93C80.77,-154.64 40.57,-135.51 57,-110 96.22,-49.11 182.82,-25.05 234.59,-15.87"/>
<polygon fill="#63b8ff" stroke="#63b8ff" points="235.17,-19.32 244.46,-14.23 234.02,-12.42 235.17,-19.32"/>
</a>
</g>
</g>
<!-- Node27 -->
<g id="Node000027" class="node">
<title>Node27</title>
<g id="a_Node000027"><a xlink:title=" ">
<polygon fill="#e0e0e0" stroke="#999999" points="190,-129 66,-129 66,-110 190,-110 190,-129"/>
<text text-anchor="middle" x="128" y="-117" font-family="Helvetica,sans-Serif" font-size="10.00">Arduino_LED_Matrix.h</text>
</a>
</g>
</g>
<!-- Node26&#45;&gt;Node27 -->
<g id="edge45_Node000026_Node000027" class="edge">
<title>Node26&#45;&gt;Node27</title>
<g id="a_edge45_Node000026_Node000027"><a xlink:title=" ">
<path fill="none" stroke="#63b8ff" d="M138.85,-164.75C137.13,-157.72 134.65,-147.62 132.5,-138.84"/>
<polygon fill="#63b8ff" stroke="#63b8ff" points="135.89,-137.97 130.11,-129.09 129.09,-139.63 135.89,-137.97"/>
</a>
</g>
</g>
</g>
</svg>

<g id="navigator" transform="translate(0 0)" fill="#404254">
  <rect fill="#f2f5e9" fill-opacity="0.5" stroke="#606060" stroke-width=".5" x="0" y="0" width="60" height="60"/>
  <use id="zoomplus" xlink:href="#zoomPlus" x="17" y="9" onmousedown="handleZoom(evt,'in')"/>
  <use id="zoomminus" xlink:href="#zoomMin" x="42" y="9" onmousedown="handleZoom(evt,'out')"/>
  <use id="reset" xlink:href="#resetDef" x="30" y="36" onmousedown="handleReset()"/>
   <use id="arrowup" xlink:href="#arrowUp" x="0" y="0" onmousedown="handlePan(0,-1)"/>
  <use id="arrowright" xlink:href="#arrowRight" x="0" y="0" onmousedown="handlePan(1,0)"/>
  <use id="arrowdown" xlink:href="#arrowDown" x="0" y="0" onmousedown="handlePan(0,1)"/>
  <use id="arrowleft" xlink:href="#arrowLeft" x="0" y="0" onmousedown="handlePan(-1,0)"/>
</g>
<svg viewBox="0 0 15 15" width="100%" height="30px" preserveAspectRatio="xMaxYMin meet">
 <g id="arrow_out" transform="scale(0.3 0.3)">
  <a xlink:href="BuggySoftware_8ino__incl_org.svg" target="_base">
   <rect id="button" ry="5" rx="5" y="6" x="6" height="38" width="38"
        fill="#f2f5e9" fill-opacity="0.5" stroke="#606060" stroke-width="1.0"/>
   <path id="arrow"
     d="M 11.500037,31.436501 C 11.940474,20.09759 22.043105,11.32322 32.158766,21.979434 L 37.068811,17.246167 C 37.068811,17.246167 37.088388,32 37.088388,32 L 22.160133,31.978069 C 22.160133,31.978069 26.997745,27.140456 26.997745,27.140456 C 18.528582,18.264221 13.291696,25.230495 11.500037,31.436501 z"
     style="fill:#404040;"/>
  </a>
 </g>
</svg>

<style type='text/css'>
<![CDATA[
[data-mouse-over-selected='false'] { opacity: 0.7; }
[data-mouse-over-selected='true']  { opacity: 1.0; }
]]>
</style>
<script type="application/ecmascript"><![CDATA[
document.addEventListener('DOMContentLoaded', (event) => {
  highlightEdges();
  highlightAdjacentNodes();
});
]]></script>
</svg>
