<?xml version="1.0" encoding="UTF-8" standalone="no"?>
<!DOCTYPE svg PUBLIC "-//W3C//DTD SVG 1.1//EN"
 "http://www.w3.org/Graphics/SVG/1.1/DTD/svg11.dtd">
<!-- Generated by graphviz version 2.43.0 (0)
 -->
<!-- Title: BuggySoftware/BuggySoftware.ino Pages: 1 -->
<svg width="1336pt" height="357pt"
 viewBox="0.00 0.00 1336.00 357.00" xmlns="http://www.w3.org/2000/svg" xmlns:xlink="http://www.w3.org/1999/xlink">
<g id="graph0" class="graph" transform="scale(1 1) rotate(0) translate(4 353)">
<title>BuggySoftware/BuggySoftware.ino</title>
<!-- Node1 -->
<g id="Node000001" class="node">
<title>Node1</title>
<g id="a_Node000001"><a xlink:title="This is the main entry point for the Buggy software.">
<polygon fill="#999999" stroke="#666666" points="815.5,-349 630.5,-349 630.5,-330 815.5,-330 815.5,-349"/>
<text text-anchor="middle" x="723" y="-337" font-family="Helvetica,sans-Serif" font-size="10.00">BuggySoftware/BuggySoftware.ino</text>
</a>
</g>
</g>
<!-- Node2 -->
<g id="Node000002" class="node">
<title>Node2</title>
<g id="a_Node000002"><a xlink:title=" ">
<polygon fill="#e0e0e0" stroke="#999999" points="925.5,-74 862.5,-74 862.5,-55 925.5,-55 925.5,-74"/>
<text text-anchor="middle" x="894" y="-62" font-family="Helvetica,sans-Serif" font-size="10.00">Arduino.h</text>
</a>
</g>
</g>
<!-- Node1&#45;&gt;Node2 -->
<g id="edge1_Node000001_Node000002" class="edge">
<title>Node1&#45;&gt;Node2</title>
<g id="a_edge1_Node000001_Node000002"><a xlink:title=" ">
<path fill="none" stroke="#63b8ff" d="M815.66,-335.22C902.86,-330.64 1036.61,-319.74 1150,-294 1231.91,-275.4 1328,-314.49 1328,-230.5 1328,-230.5 1328,-230.5 1328,-173.5 1328,-93.19 1044.62,-72.15 935.83,-67.03"/>
<polygon fill="#63b8ff" stroke="#63b8ff" points="935.71,-63.52 925.56,-66.57 935.4,-70.52 935.71,-63.52"/>
</a>
</g>
</g>
<!-- Node3 -->
<g id="Node000003" class="node">
<title>Node3</title>
<g id="a_Node000003"><a xlink:href="Timer1_8hpp.html" target="_top" xlink:title="Setup methods for Timer1.">
<polygon fill="white" stroke="#666666" points="72,-294 0,-294 0,-275 72,-275 72,-294"/>
<text text-anchor="middle" x="36" y="-282" font-family="Helvetica,sans-Serif" font-size="10.00">Timer1.hpp</text>
</a>
</g>
</g>
<!-- Node1&#45;&gt;Node3 -->
<g id="edge2_Node000001_Node000003" class="edge">
<title>Node1&#45;&gt;Node3</title>
<g id="a_edge2_Node000001_Node000003"><a xlink:title=" ">
<path fill="none" stroke="#63b8ff" d="M630.43,-334.9C506.22,-329.41 278.91,-317.08 86,-294 84.75,-293.85 83.48,-293.69 82.19,-293.52"/>
<polygon fill="#63b8ff" stroke="#63b8ff" points="82.66,-290.05 72.26,-292.1 81.66,-296.98 82.66,-290.05"/>
</a>
</g>
</g>
<!-- Node5 -->
<g id="Node000005" class="node">
<title>Node5</title>
<g id="a_Node000005"><a xlink:href="PinSetup_8hpp_source.html" target="_top" xlink:title=" ">
<polygon fill="white" stroke="#666666" points="1088,-129 1008,-129 1008,-110 1088,-110 1088,-129"/>
<text text-anchor="middle" x="1048" y="-117" font-family="Helvetica,sans-Serif" font-size="10.00">PinSetup.hpp</text>
</a>
</g>
</g>
<!-- Node1&#45;&gt;Node5 -->
<g id="edge4_Node000001_Node000005" class="edge">
<title>Node1&#45;&gt;Node5</title>
<g id="a_edge4_Node000001_Node000005"><a xlink:title=" ">
<path fill="none" stroke="#63b8ff" d="M799.52,-330C883.68,-315.97 1014.23,-279.24 1069,-184 1077.47,-169.28 1069.4,-150.65 1060.94,-137.39"/>
<polygon fill="#63b8ff" stroke="#63b8ff" points="1063.8,-135.38 1055.21,-129.18 1058.06,-139.38 1063.8,-135.38"/>
</a>
</g>
</g>
<!-- Node6 -->
<g id="Node000006" class="node">
<title>Node6</title>
<g id="a_Node000006"><a xlink:href="EmbeddedLogger_8hpp.html" target="_top" xlink:title=" ">
<polygon fill="white" stroke="#666666" points="558,-74 436,-74 436,-55 558,-55 558,-74"/>
<text text-anchor="middle" x="497" y="-62" font-family="Helvetica,sans-Serif" font-size="10.00">EmbeddedLogger.hpp</text>
</a>
</g>
</g>
<!-- Node1&#45;&gt;Node6 -->
<g id="edge6_Node000001_Node000006" class="edge">
<title>Node1&#45;&gt;Node6</title>
<g id="a_edge6_Node000001_Node000006"><a xlink:title=" ">
<path fill="none" stroke="#63b8ff" d="M665.29,-329.99C577.38,-315.37 420,-282.02 420,-230.5 420,-230.5 420,-230.5 420,-173.5 420,-144.04 422.28,-134.25 439,-110 447.61,-97.51 460.82,-86.98 472.47,-79.31"/>
<polygon fill="#63b8ff" stroke="#63b8ff" points="474.33,-82.27 480.96,-74.01 470.62,-76.33 474.33,-82.27"/>
</a>
</g>
</g>
<!-- Node9 -->
<g id="Node000009" class="node">
<title>Node9</title>
<g id="a_Node000009"><a xlink:href="SerialWirelessLogger_8hpp_source.html" target="_top" xlink:title=" ">
<polygon fill="white" stroke="#666666" points="380,-294 240,-294 240,-275 380,-275 380,-294"/>
<text text-anchor="middle" x="310" y="-282" font-family="Helvetica,sans-Serif" font-size="10.00">SerialWirelessLogger.hpp</text>
</a>
</g>
</g>
<!-- Node1&#45;&gt;Node9 -->
<g id="edge9_Node000001_Node000009" class="edge">
<title>Node1&#45;&gt;Node9</title>
<g id="a_edge9_Node000001_Node000009"><a xlink:title=" ">
<path fill="none" stroke="#63b8ff" d="M656.64,-329.98C582.99,-320.53 464.31,-305.3 386.73,-295.35"/>
<polygon fill="#63b8ff" stroke="#63b8ff" points="386.9,-291.84 376.53,-294.04 386.01,-298.78 386.9,-291.84"/>
</a>
</g>
</g>
<!-- Node18 -->
<g id="Node000018" class="node">
<title>Node18</title>
<g id="a_Node000018"><a xlink:href="PacketFactory_8hpp_source.html" target="_top" xlink:title=" ">
<polygon fill="white" stroke="#666666" points="189.5,-184 86.5,-184 86.5,-165 189.5,-165 189.5,-184"/>
<text text-anchor="middle" x="138" y="-172" font-family="Helvetica,sans-Serif" font-size="10.00">PacketFactory.hpp</text>
</a>
</g>
</g>
<!-- Node1&#45;&gt;Node18 -->
<g id="edge55_Node000001_Node000018" class="edge">
<title>Node1&#45;&gt;Node18</title>
<g id="a_edge55_Node000001_Node000018"><a xlink:title=" ">
<path fill="none" stroke="#63b8ff" d="M630.41,-338.76C507.36,-337.64 297.69,-330.24 231,-294 188.82,-271.08 159.32,-220.11 146,-193.09"/>
<polygon fill="#63b8ff" stroke="#63b8ff" points="149.14,-191.55 141.69,-184.02 142.82,-194.56 149.14,-191.55"/>
</a>
</g>
</g>
<!-- Node19 -->
<g id="Node000019" class="node">
<title>Node19</title>
<g id="a_Node000019"><a xlink:href="Buggy_8hpp_source.html" target="_top" xlink:title=" ">
<polygon fill="white" stroke="#666666" points="756.5,-294 689.5,-294 689.5,-275 756.5,-275 756.5,-294"/>
<text text-anchor="middle" x="723" y="-282" font-family="Helvetica,sans-Serif" font-size="10.00">Buggy.hpp</text>
</a>
</g>
</g>
<!-- Node1&#45;&gt;Node19 -->
<g id="edge28_Node000001_Node000019" class="edge">
<title>Node1&#45;&gt;Node19</title>
<g id="a_edge28_Node000001_Node000019"><a xlink:title=" ">
<path fill="none" stroke="#63b8ff" d="M723,-329.75C723,-322.8 723,-312.85 723,-304.13"/>
<polygon fill="#63b8ff" stroke="#63b8ff" points="726.5,-304.09 723,-294.09 719.5,-304.09 726.5,-304.09"/>
</a>
</g>
</g>
<!-- Node21 -->
<g id="Node000021" class="node">
<title>Node21</title>
<g id="a_Node000021"><a xlink:href="PIDController_8hpp_source.html" target="_top" xlink:title=" ">
<polygon fill="white" stroke="#666666" points="817.5,-129 716.5,-129 716.5,-110 817.5,-110 817.5,-129"/>
<text text-anchor="middle" x="767" y="-117" font-family="Helvetica,sans-Serif" font-size="10.00">PIDController.hpp</text>
</a>
</g>
</g>
<!-- Node1&#45;&gt;Node21 -->
<g id="edge54_Node000001_Node000021" class="edge">
<title>Node1&#45;&gt;Node21</title>
<g id="a_edge54_Node000001_Node000021"><a xlink:title=" ">
<path fill="none" stroke="#63b8ff" d="M763.83,-329.94C808.88,-318.08 879.19,-291.83 911,-239 928.07,-210.65 885.32,-172.02 877,-165 858.78,-149.63 834.57,-139.07 813.5,-132.1"/>
<polygon fill="#63b8ff" stroke="#63b8ff" points="814.35,-128.7 803.76,-129.06 812.26,-135.38 814.35,-128.7"/>
</a>
</g>
</g>
<!-- Node27 -->
<g id="Node000027" class="node">
<title>Node27</title>
<g id="a_Node000027"><a xlink:href="Matrix_8hpp_source.html" target="_top" xlink:title=" ">
<polygon fill="white" stroke="#666666" points="1221.5,-239 1152.5,-239 1152.5,-220 1221.5,-220 1221.5,-239"/>
<text text-anchor="middle" x="1187" y="-227" font-family="Helvetica,sans-Serif" font-size="10.00">Matrix.hpp</text>
</a>
</g>
</g>
<!-- Node1&#45;&gt;Node27 -->
<g id="edge56_Node000001_Node000027" class="edge">
<title>Node1&#45;&gt;Node27</title>
<g id="a_edge56_Node000001_Node000027"><a xlink:title=" ">
<path fill="none" stroke="#63b8ff" d="M815.6,-335.33C916.73,-330.62 1071.33,-319.44 1124,-294 1145.54,-283.6 1163.97,-262.72 1175.23,-247.75"/>
<polygon fill="#63b8ff" stroke="#63b8ff" points="1178.28,-249.49 1181.28,-239.33 1172.6,-245.41 1178.28,-249.49"/>
</a>
</g>
</g>
<!-- Node4 -->
<g id="Node000004" class="node">
<title>Node4</title>
<g id="a_Node000004"><a xlink:title=" ">
<polygon fill="#e0e0e0" stroke="#999999" points="71.5,-239 0.5,-239 0.5,-220 71.5,-220 71.5,-239"/>
<text text-anchor="middle" x="36" y="-227" font-family="Helvetica,sans-Serif" font-size="10.00">FspTimer.h</text>
</a>
</g>
</g>
<!-- Node3&#45;&gt;Node4 -->
<g id="edge3_Node000003_Node000004" class="edge">
<title>Node3&#45;&gt;Node4</title>
<g id="a_edge3_Node000003_Node000004"><a xlink:title=" ">
<path fill="none" stroke="#63b8ff" d="M36,-274.75C36,-267.8 36,-257.85 36,-249.13"/>
<polygon fill="#63b8ff" stroke="#63b8ff" points="39.5,-249.09 36,-239.09 32.5,-249.09 39.5,-249.09"/>
</a>
</g>
</g>
<!-- Node5&#45;&gt;Node2 -->
<g id="edge5_Node000005_Node000002" class="edge">
<title>Node5&#45;&gt;Node2</title>
<g id="a_edge5_Node000005_Node000002"><a xlink:title=" ">
<path fill="none" stroke="#63b8ff" d="M1023.26,-109.98C997.63,-101.16 957.37,-87.31 928.59,-77.41"/>
<polygon fill="#63b8ff" stroke="#63b8ff" points="929.53,-74.03 918.94,-74.08 927.25,-80.65 929.53,-74.03"/>
</a>
</g>
</g>
<!-- Node7 -->
<g id="Node000007" class="node">
<title>Node7</title>
<g id="a_Node000007"><a xlink:title=" ">
<polygon fill="#e0e0e0" stroke="#999999" points="486.5,-19 433.5,-19 433.5,0 486.5,0 486.5,-19"/>
<text text-anchor="middle" x="460" y="-7" font-family="Helvetica,sans-Serif" font-size="10.00">stdint.h</text>
</a>
</g>
</g>
<!-- Node6&#45;&gt;Node7 -->
<g id="edge7_Node000006_Node000007" class="edge">
<title>Node6&#45;&gt;Node7</title>
<g id="a_edge7_Node000006_Node000007"><a xlink:title=" ">
<path fill="none" stroke="#63b8ff" d="M490.89,-54.75C485.72,-47.34 478.15,-36.5 471.81,-27.41"/>
<polygon fill="#63b8ff" stroke="#63b8ff" points="474.59,-25.29 466,-19.09 468.85,-29.29 474.59,-25.29"/>
</a>
</g>
</g>
<!-- Node8 -->
<g id="Node000008" class="node">
<title>Node8</title>
<g id="a_Node000008"><a xlink:title=" ">
<polygon fill="#e0e0e0" stroke="#999999" points="561,-19 505,-19 505,0 561,0 561,-19"/>
<text text-anchor="middle" x="533" y="-7" font-family="Helvetica,sans-Serif" font-size="10.00">stddef.h</text>
</a>
</g>
</g>
<!-- Node6&#45;&gt;Node8 -->
<g id="edge8_Node000006_Node000008" class="edge">
<title>Node6&#45;&gt;Node8</title>
<g id="a_edge8_Node000006_Node000008"><a xlink:title=" ">
<path fill="none" stroke="#63b8ff" d="M502.94,-54.75C507.98,-47.34 515.34,-36.5 521.51,-27.41"/>
<polygon fill="#63b8ff" stroke="#63b8ff" points="524.44,-29.33 527.17,-19.09 518.65,-25.39 524.44,-29.33"/>
</a>
</g>
</g>
<!-- Node9&#45;&gt;Node2 -->
<g id="edge25_Node000009_Node000002" class="edge">
<title>Node9&#45;&gt;Node2</title>
<g id="a_edge25_Node000009_Node000002"><a xlink:title=" ">
<path fill="none" stroke="#63b8ff" d="M325.39,-274.97C375.95,-247.3 542.07,-158.94 689,-110 744.11,-91.64 810.11,-78.89 852.05,-71.88"/>
<polygon fill="#63b8ff" stroke="#63b8ff" points="852.87,-75.29 862.18,-70.22 851.74,-68.38 852.87,-75.29"/>
</a>
</g>
</g>
<!-- Node10 -->
<g id="Node000010" class="node">
<title>Node10</title>
<g id="a_Node000010"><a xlink:href="SerialLogger_8hpp_source.html" target="_top" xlink:title=" ">
<polygon fill="white" stroke="#666666" points="546,-129 448,-129 448,-110 546,-110 546,-129"/>
<text text-anchor="middle" x="497" y="-117" font-family="Helvetica,sans-Serif" font-size="10.00">SerialLogger.hpp</text>
</a>
</g>
</g>
<!-- Node9&#45;&gt;Node10 -->
<g id="edge10_Node000009_Node000010" class="edge">
<title>Node9&#45;&gt;Node10</title>
<g id="a_edge10_Node000009_Node000010"><a xlink:title=" ">
<path fill="none" stroke="#63b8ff" d="M320.63,-274.71C331.38,-265.79 348.44,-251.55 363,-239 405.27,-202.57 454.22,-158.9 479.65,-136.1"/>
<polygon fill="#63b8ff" stroke="#63b8ff" points="482.22,-138.49 487.32,-129.21 477.54,-133.29 482.22,-138.49"/>
</a>
</g>
</g>
<!-- Node11 -->
<g id="Node000011" class="node">
<title>Node11</title>
<g id="a_Node000011"><a xlink:href="WirelessLogger_8hpp_source.html" target="_top" xlink:title=" ">
<polygon fill="white" stroke="#666666" points="354,-239 242,-239 242,-220 354,-220 354,-239"/>
<text text-anchor="middle" x="298" y="-227" font-family="Helvetica,sans-Serif" font-size="10.00">WirelessLogger.hpp</text>
</a>
</g>
</g>
<!-- Node9&#45;&gt;Node11 -->
<g id="edge13_Node000009_Node000011" class="edge">
<title>Node9&#45;&gt;Node11</title>
<g id="a_edge13_Node000009_Node000011"><a xlink:title=" ">
<path fill="none" stroke="#63b8ff" d="M308.02,-274.75C306.43,-267.72 304.14,-257.62 302.15,-248.84"/>
<polygon fill="#63b8ff" stroke="#63b8ff" points="305.57,-248.07 299.94,-239.09 298.74,-249.62 305.57,-248.07"/>
</a>
</g>
</g>
<!-- Node12 -->
<g id="Node000012" class="node">
<title>Node12</title>
<g id="a_Node000012"><a xlink:href="BuggyTCP_8hpp_source.html" target="_top" xlink:title=" ">
<polygon fill="white" stroke="#666666" points="316.5,-184 231.5,-184 231.5,-165 316.5,-165 316.5,-184"/>
<text text-anchor="middle" x="274" y="-172" font-family="Helvetica,sans-Serif" font-size="10.00">BuggyTCP.hpp</text>
</a>
</g>
</g>
<!-- Node9&#45;&gt;Node12 -->
<g id="edge26_Node000009_Node000012" class="edge">
<title>Node9&#45;&gt;Node12</title>
<g id="a_edge26_Node000009_Node000012"><a xlink:title=" ">
<path fill="none" stroke="#63b8ff" d="M280.86,-274.87C263.65,-268.1 243.26,-256.79 233,-239 223.2,-222.03 238.79,-203.25 253.48,-190.54"/>
<polygon fill="#63b8ff" stroke="#63b8ff" points="255.8,-193.17 261.38,-184.16 251.4,-187.72 255.8,-193.17"/>
</a>
</g>
</g>
<!-- Node9&#45;&gt;Node18 -->
<g id="edge27_Node000009_Node000018" class="edge">
<title>Node9&#45;&gt;Node18</title>
<g id="a_edge27_Node000009_Node000018"><a xlink:title=" ">
<path fill="none" stroke="#63b8ff" d="M292.23,-274.98C274.95,-266.49 248.15,-252.77 226,-239 201.34,-223.67 174.47,-203.78 157,-190.38"/>
<polygon fill="#63b8ff" stroke="#63b8ff" points="158.83,-187.37 148.78,-184.02 154.55,-192.91 158.83,-187.37"/>
</a>
</g>
</g>
<!-- Node10&#45;&gt;Node2 -->
<g id="edge12_Node000010_Node000002" class="edge">
<title>Node10&#45;&gt;Node2</title>
<g id="a_edge12_Node000010_Node000002"><a xlink:title=" ">
<path fill="none" stroke="#63b8ff" d="M546.08,-111.95C624.87,-101.43 778.23,-80.96 852.16,-71.09"/>
<polygon fill="#63b8ff" stroke="#63b8ff" points="853.03,-74.5 862.48,-69.71 852.1,-67.56 853.03,-74.5"/>
</a>
</g>
</g>
<!-- Node10&#45;&gt;Node6 -->
<g id="edge11_Node000010_Node000006" class="edge">
<title>Node10&#45;&gt;Node6</title>
<g id="a_edge11_Node000010_Node000006"><a xlink:title=" ">
<path fill="none" stroke="#63b8ff" d="M497,-109.75C497,-102.8 497,-92.85 497,-84.13"/>
<polygon fill="#63b8ff" stroke="#63b8ff" points="500.5,-84.09 497,-74.09 493.5,-84.09 500.5,-84.09"/>
</a>
</g>
</g>
<!-- Node11&#45;&gt;Node2 -->
<g id="edge15_Node000011_Node000002" class="edge">
<title>Node11&#45;&gt;Node2</title>
<g id="a_edge15_Node000011_Node000002"><a xlink:title=" ">
<path fill="none" stroke="#63b8ff" d="M318.59,-219.92C370.79,-198.47 512.92,-141.95 636,-110 711.12,-90.5 800.8,-77.22 852.2,-70.53"/>
<polygon fill="#63b8ff" stroke="#63b8ff" points="852.79,-73.98 862.27,-69.24 851.9,-67.04 852.79,-73.98"/>
</a>
</g>
</g>
<!-- Node11&#45;&gt;Node6 -->
<g id="edge14_Node000011_Node000006" class="edge">
<title>Node11&#45;&gt;Node6</title>
<g id="a_edge14_Node000011_Node000006"><a xlink:title=" ">
<path fill="none" stroke="#63b8ff" d="M304.16,-219.72C319.37,-198.55 360.79,-143.89 406,-110 423.69,-96.74 445.95,-85.77 464.03,-78.04"/>
<polygon fill="#63b8ff" stroke="#63b8ff" points="465.68,-81.14 473.59,-74.09 463.01,-74.68 465.68,-81.14"/>
</a>
</g>
</g>
<!-- Node11&#45;&gt;Node12 -->
<g id="edge16_Node000011_Node000012" class="edge">
<title>Node11&#45;&gt;Node12</title>
<g id="a_edge16_Node000011_Node000012"><a xlink:title=" ">
<path fill="none" stroke="#63b8ff" d="M294.04,-219.75C290.79,-212.57 286.08,-202.18 282.05,-193.27"/>
<polygon fill="#63b8ff" stroke="#63b8ff" points="285.2,-191.75 277.89,-184.09 278.83,-194.64 285.2,-191.75"/>
</a>
</g>
</g>
<!-- Node11&#45;&gt;Node18 -->
<g id="edge23_Node000011_Node000018" class="edge">
<title>Node11&#45;&gt;Node18</title>
<g id="a_edge23_Node000011_Node000018"><a xlink:title=" ">
<path fill="none" stroke="#63b8ff" d="M272.29,-219.98C245.55,-211.13 203.47,-197.19 173.55,-187.28"/>
<polygon fill="#63b8ff" stroke="#63b8ff" points="174.5,-183.9 163.91,-184.08 172.3,-190.55 174.5,-183.9"/>
</a>
</g>
</g>
<!-- Node13 -->
<g id="Node000013" class="node">
<title>Node13</title>
<g id="a_Node000013"><a xlink:href="BuggyWifi_8hpp_source.html" target="_top" xlink:title=" ">
<polygon fill="white" stroke="#666666" points="353.5,-129 266.5,-129 266.5,-110 353.5,-110 353.5,-129"/>
<text text-anchor="middle" x="310" y="-117" font-family="Helvetica,sans-Serif" font-size="10.00">BuggyWifi.hpp</text>
</a>
</g>
</g>
<!-- Node12&#45;&gt;Node13 -->
<g id="edge17_Node000012_Node000013" class="edge">
<title>Node12&#45;&gt;Node13</title>
<g id="a_edge17_Node000012_Node000013"><a xlink:title=" ">
<path fill="none" stroke="#63b8ff" d="M279.94,-164.75C284.98,-157.34 292.34,-146.5 298.51,-137.41"/>
<polygon fill="#63b8ff" stroke="#63b8ff" points="301.44,-139.33 304.17,-129.09 295.65,-135.39 301.44,-139.33"/>
</a>
</g>
</g>
<!-- Node16 -->
<g id="Node000016" class="node">
<title>Node16</title>
<g id="a_Node000016"><a xlink:href="PacketTypes_8hpp_source.html" target="_top" xlink:title=" ">
<polygon fill="white" stroke="#666666" points="201.5,-74 104.5,-74 104.5,-55 201.5,-55 201.5,-74"/>
<text text-anchor="middle" x="153" y="-62" font-family="Helvetica,sans-Serif" font-size="10.00">PacketTypes.hpp</text>
</a>
</g>
</g>
<!-- Node12&#45;&gt;Node16 -->
<g id="edge20_Node000012_Node000016" class="edge">
<title>Node12&#45;&gt;Node16</title>
<g id="a_edge20_Node000012_Node000016"><a xlink:title=" ">
<path fill="none" stroke="#63b8ff" d="M267.53,-164.64C257.86,-151.73 238.65,-127.41 219,-110 206.02,-98.49 189.9,-87.57 176.84,-79.43"/>
<polygon fill="#63b8ff" stroke="#63b8ff" points="178.32,-76.23 167.96,-74.02 174.68,-82.21 178.32,-76.23"/>
</a>
</g>
</g>
<!-- Node17 -->
<g id="Node000017" class="node">
<title>Node17</title>
<g id="a_Node000017"><a xlink:href="PacketSerializer_8hpp_source.html" target="_top" xlink:title=" ">
<polygon fill="white" stroke="#666666" points="210,-129 96,-129 96,-110 210,-110 210,-129"/>
<text text-anchor="middle" x="153" y="-117" font-family="Helvetica,sans-Serif" font-size="10.00">PacketSerializer.hpp</text>
</a>
</g>
</g>
<!-- Node12&#45;&gt;Node17 -->
<g id="edge21_Node000012_Node000017" class="edge">
<title>Node12&#45;&gt;Node17</title>
<g id="a_edge21_Node000012_Node000017"><a xlink:title=" ">
<path fill="none" stroke="#63b8ff" d="M254.56,-164.98C235.01,-156.42 204.62,-143.11 182.18,-133.28"/>
<polygon fill="#63b8ff" stroke="#63b8ff" points="183.36,-129.98 172.79,-129.17 180.55,-136.39 183.36,-129.98"/>
</a>
</g>
</g>
<!-- Node14 -->
<g id="Node000014" class="node">
<title>Node14</title>
<g id="a_Node000014"><a xlink:title=" ">
<polygon fill="#e0e0e0" stroke="#999999" points="308.5,-74 249.5,-74 249.5,-55 308.5,-55 308.5,-74"/>
<text text-anchor="middle" x="279" y="-62" font-family="Helvetica,sans-Serif" font-size="10.00">WiFiS3.h</text>
</a>
</g>
</g>
<!-- Node13&#45;&gt;Node14 -->
<g id="edge18_Node000013_Node000014" class="edge">
<title>Node13&#45;&gt;Node14</title>
<g id="a_edge18_Node000013_Node000014"><a xlink:title=" ">
<path fill="none" stroke="#63b8ff" d="M304.88,-109.75C300.64,-102.49 294.47,-91.95 289.22,-82.98"/>
<polygon fill="#63b8ff" stroke="#63b8ff" points="292.09,-80.95 284.02,-74.09 286.05,-84.49 292.09,-80.95"/>
</a>
</g>
</g>
<!-- Node15 -->
<g id="Node000015" class="node">
<title>Node15</title>
<g id="a_Node000015"><a xlink:href="secrets_8h_source.html" target="_top" xlink:title=" ">
<polygon fill="white" stroke="#666666" points="387.5,-74 326.5,-74 326.5,-55 387.5,-55 387.5,-74"/>
<text text-anchor="middle" x="357" y="-62" font-family="Helvetica,sans-Serif" font-size="10.00">secrets.h</text>
</a>
</g>
</g>
<!-- Node13&#45;&gt;Node15 -->
<g id="edge19_Node000013_Node000015" class="edge">
<title>Node13&#45;&gt;Node15</title>
<g id="a_edge19_Node000013_Node000015"><a xlink:title=" ">
<path fill="none" stroke="#63b8ff" d="M317.76,-109.75C324.47,-102.18 334.34,-91.05 342.51,-81.84"/>
<polygon fill="#63b8ff" stroke="#63b8ff" points="345.37,-83.89 349.38,-74.09 340.13,-79.25 345.37,-83.89"/>
</a>
</g>
</g>
<!-- Node17&#45;&gt;Node16 -->
<g id="edge22_Node000017_Node000016" class="edge">
<title>Node17&#45;&gt;Node16</title>
<g id="a_edge22_Node000017_Node000016"><a xlink:title=" ">
<path fill="none" stroke="#63b8ff" d="M153,-109.75C153,-102.8 153,-92.85 153,-84.13"/>
<polygon fill="#63b8ff" stroke="#63b8ff" points="156.5,-84.09 153,-74.09 149.5,-84.09 156.5,-84.09"/>
</a>
</g>
</g>
<!-- Node18&#45;&gt;Node16 -->
<g id="edge24_Node000018_Node000016" class="edge">
<title>Node18&#45;&gt;Node16</title>
<g id="a_edge24_Node000018_Node000016"><a xlink:title=" ">
<path fill="none" stroke="#63b8ff" d="M122.1,-164.81C103.16,-153.25 75.45,-131.72 87,-110 94.31,-96.25 107.97,-85.99 120.97,-78.8"/>
<polygon fill="#63b8ff" stroke="#63b8ff" points="122.89,-81.75 130.22,-74.11 119.72,-75.51 122.89,-81.75"/>
</a>
</g>
</g>
<!-- Node19&#45;&gt;Node5 -->
<g id="edge39_Node000019_Node000005" class="edge">
<title>Node19&#45;&gt;Node5</title>
<g id="a_edge39_Node000019_Node000005"><a xlink:title=" ">
<path fill="none" stroke="#63b8ff" d="M756.55,-278.91C833.94,-267.52 1020.78,-235.13 1053,-184 1061.47,-170.56 1058.86,-152.22 1054.94,-138.7"/>
<polygon fill="#63b8ff" stroke="#63b8ff" points="1058.21,-137.44 1051.7,-129.08 1051.58,-139.68 1058.21,-137.44"/>
</a>
</g>
</g>
<!-- Node19&#45;&gt;Node6 -->
<g id="edge50_Node000019_Node000006" class="edge">
<title>Node19&#45;&gt;Node6</title>
<g id="a_edge50_Node000019_Node000006"><a xlink:title=" ">
<path fill="none" stroke="#63b8ff" d="M708.14,-274.86C694.57,-266.59 674.35,-253.3 659,-239 605.11,-188.8 607.7,-161.44 555,-110 543.82,-99.09 529.98,-88.38 518.63,-80.2"/>
<polygon fill="#63b8ff" stroke="#63b8ff" points="520.34,-77.13 510.15,-74.23 516.31,-82.85 520.34,-77.13"/>
</a>
</g>
</g>
<!-- Node19&#45;&gt;Node12 -->
<g id="edge36_Node000019_Node000012" class="edge">
<title>Node19&#45;&gt;Node12</title>
<g id="a_edge36_Node000019_Node000012"><a xlink:title=" ">
<path fill="none" stroke="#63b8ff" d="M689.48,-280.34C636.64,-274.86 531.03,-261.95 444,-239 392.92,-225.53 335.83,-202.47 302.51,-188.16"/>
<polygon fill="#63b8ff" stroke="#63b8ff" points="303.54,-184.78 292.97,-184.01 300.75,-191.21 303.54,-184.78"/>
</a>
</g>
</g>
<!-- Node19&#45;&gt;Node13 -->
<g id="edge35_Node000019_Node000013" class="edge">
<title>Node19&#45;&gt;Node13</title>
<g id="a_edge35_Node000019_Node000013"><a xlink:title=" ">
<path fill="none" stroke="#63b8ff" d="M697.06,-274.88C671.29,-266.21 630.7,-252.26 596,-239 501.16,-202.77 390.55,-155.48 339.09,-133.19"/>
<polygon fill="#63b8ff" stroke="#63b8ff" points="340.18,-129.84 329.61,-129.07 337.39,-136.26 340.18,-129.84"/>
</a>
</g>
</g>
<!-- Node19&#45;&gt;Node18 -->
<g id="edge49_Node000019_Node000018" class="edge">
<title>Node19&#45;&gt;Node18</title>
<g id="a_edge49_Node000019_Node000018"><a xlink:title=" ">
<path fill="none" stroke="#63b8ff" d="M689.41,-282.6C593.12,-279.69 317.56,-268.9 233,-239 224.84,-236.12 183.7,-207.68 158.3,-189.85"/>
<polygon fill="#63b8ff" stroke="#63b8ff" points="160.25,-186.94 150.06,-184.05 156.22,-192.67 160.25,-186.94"/>
</a>
</g>
</g>
<!-- Node20 -->
<g id="Node000020" class="node">
<title>Node20</title>
<g id="a_Node000020"><a xlink:href="MotorDriver_8hpp_source.html" target="_top" xlink:title=" ">
<polygon fill="white" stroke="#666666" points="867.5,-184 772.5,-184 772.5,-165 867.5,-165 867.5,-184"/>
<text text-anchor="middle" x="820" y="-172" font-family="Helvetica,sans-Serif" font-size="10.00">MotorDriver.hpp</text>
</a>
</g>
</g>
<!-- Node19&#45;&gt;Node20 -->
<g id="edge29_Node000019_Node000020" class="edge">
<title>Node19&#45;&gt;Node20</title>
<g id="a_edge29_Node000019_Node000020"><a xlink:title=" ">
<path fill="none" stroke="#63b8ff" d="M756.87,-279.62C802.03,-273.67 878.24,-260.65 895,-239 911,-218.33 881,-199.66 854.32,-188"/>
<polygon fill="#63b8ff" stroke="#63b8ff" points="855.31,-184.62 844.73,-184.03 852.63,-191.09 855.31,-184.62"/>
</a>
</g>
</g>
<!-- Node23 -->
<g id="Node000023" class="node">
<title>Node23</title>
<g id="a_Node000023"><a xlink:href="IrSensor_8hpp_source.html" target="_top" xlink:title=" ">
<polygon fill="white" stroke="#666666" points="715.5,-184 638.5,-184 638.5,-165 715.5,-165 715.5,-184"/>
<text text-anchor="middle" x="677" y="-172" font-family="Helvetica,sans-Serif" font-size="10.00">IrSensor.hpp</text>
</a>
</g>
</g>
<!-- Node19&#45;&gt;Node23 -->
<g id="edge37_Node000019_Node000023" class="edge">
<title>Node19&#45;&gt;Node23</title>
<g id="a_edge37_Node000019_Node000023"><a xlink:title=" ">
<path fill="none" stroke="#63b8ff" d="M705.23,-274.96C691.99,-267.51 674.88,-255.33 667,-239 660.11,-224.72 663.94,-206.74 668.72,-193.56"/>
<polygon fill="#63b8ff" stroke="#63b8ff" points="672.01,-194.76 672.57,-184.18 665.54,-192.11 672.01,-194.76"/>
</a>
</g>
</g>
<!-- Node24 -->
<g id="Node000024" class="node">
<title>Node24</title>
<g id="a_Node000024"><a xlink:href="LineFollower_8hpp_source.html" target="_top" xlink:title=" ">
<polygon fill="white" stroke="#666666" points="886,-239 788,-239 788,-220 886,-220 886,-239"/>
<text text-anchor="middle" x="837" y="-227" font-family="Helvetica,sans-Serif" font-size="10.00">LineFollower.hpp</text>
</a>
</g>
</g>
<!-- Node19&#45;&gt;Node24 -->
<g id="edge40_Node000019_Node000024" class="edge">
<title>Node19&#45;&gt;Node24</title>
<g id="a_edge40_Node000019_Node000024"><a xlink:title=" ">
<path fill="none" stroke="#63b8ff" d="M741.32,-274.98C759.66,-266.46 788.11,-253.23 809.23,-243.41"/>
<polygon fill="#63b8ff" stroke="#63b8ff" points="810.76,-246.56 818.35,-239.17 807.81,-240.21 810.76,-246.56"/>
</a>
</g>
</g>
<!-- Node25 -->
<g id="Node000025" class="node">
<title>Node25</title>
<g id="a_Node000025"><a xlink:href="BuggyState_8hpp_source.html" target="_top" xlink:title=" ">
<polygon fill="white" stroke="#666666" points="770,-239 676,-239 676,-220 770,-220 770,-239"/>
<text text-anchor="middle" x="723" y="-227" font-family="Helvetica,sans-Serif" font-size="10.00">BuggyState.hpp</text>
</a>
</g>
</g>
<!-- Node19&#45;&gt;Node25 -->
<g id="edge44_Node000019_Node000025" class="edge">
<title>Node19&#45;&gt;Node25</title>
<g id="a_edge44_Node000019_Node000025"><a xlink:title=" ">
<path fill="none" stroke="#63b8ff" d="M717.83,-274.75C716.34,-267.8 715.9,-257.85 716.52,-249.13"/>
<polygon fill="#63b8ff" stroke="#63b8ff" points="720.01,-249.47 717.87,-239.09 713.07,-248.53 720.01,-249.47"/>
</a>
</g>
</g>
<!-- Node26 -->
<g id="Node000026" class="node">
<title>Node26</title>
<g id="a_Node000026"><a xlink:href="UltrasonicSensor_8hpp_source.html" target="_top" xlink:title=" ">
<polygon fill="white" stroke="#666666" points="1043.5,-184 924.5,-184 924.5,-165 1043.5,-165 1043.5,-184"/>
<text text-anchor="middle" x="984" y="-172" font-family="Helvetica,sans-Serif" font-size="10.00">UltrasonicSensor.hpp</text>
</a>
</g>
</g>
<!-- Node19&#45;&gt;Node26 -->
<g id="edge46_Node000019_Node000026" class="edge">
<title>Node19&#45;&gt;Node26</title>
<g id="a_edge46_Node000019_Node000026"><a xlink:title=" ">
<path fill="none" stroke="#63b8ff" d="M756.6,-280.46C795.57,-275.85 860.87,-264.73 911,-239 933.99,-227.2 955.7,-206.66 969.38,-192.14"/>
<polygon fill="#63b8ff" stroke="#63b8ff" points="972.29,-194.14 976.45,-184.39 967.12,-189.42 972.29,-194.14"/>
</a>
</g>
</g>
<!-- Node19&#45;&gt;Node27 -->
<g id="edge51_Node000019_Node000027" class="edge">
<title>Node19&#45;&gt;Node27</title>
<g id="a_edge51_Node000019_Node000027"><a xlink:title=" ">
<path fill="none" stroke="#63b8ff" d="M756.74,-279.65C838.97,-270.25 1049.73,-246.18 1142.28,-235.61"/>
<polygon fill="#63b8ff" stroke="#63b8ff" points="1142.9,-239.06 1152.44,-234.45 1142.11,-232.11 1142.9,-239.06"/>
</a>
</g>
</g>
<!-- Node20&#45;&gt;Node5 -->
<g id="edge30_Node000020_Node000005" class="edge">
<title>Node20&#45;&gt;Node5</title>
<g id="a_edge30_Node000020_Node000005"><a xlink:title=" ">
<path fill="none" stroke="#63b8ff" d="M856.63,-164.98C895.91,-155.86 958.37,-141.33 1001.19,-131.38"/>
<polygon fill="#63b8ff" stroke="#63b8ff" points="1002.13,-134.76 1011.08,-129.08 1000.55,-127.94 1002.13,-134.76"/>
</a>
</g>
</g>
<!-- Node20&#45;&gt;Node21 -->
<g id="edge31_Node000020_Node000021" class="edge">
<title>Node20&#45;&gt;Node21</title>
<g id="a_edge31_Node000020_Node000021"><a xlink:title=" ">
<path fill="none" stroke="#63b8ff" d="M811.25,-164.75C803.53,-157.03 792.1,-145.6 782.78,-136.28"/>
<polygon fill="#63b8ff" stroke="#63b8ff" points="785.14,-133.69 775.59,-129.09 780.19,-138.64 785.14,-133.69"/>
</a>
</g>
</g>
<!-- Node22 -->
<g id="Node000022" class="node">
<title>Node22</title>
<g id="a_Node000022"><a xlink:href="MoveMeanFilter_8hpp_source.html" target="_top" xlink:title=" ">
<polygon fill="white" stroke="#666666" points="952,-129 836,-129 836,-110 952,-110 952,-129"/>
<text text-anchor="middle" x="894" y="-117" font-family="Helvetica,sans-Serif" font-size="10.00">MoveMeanFilter.hpp</text>
</a>
</g>
</g>
<!-- Node20&#45;&gt;Node22 -->
<g id="edge32_Node000020_Node000022" class="edge">
<title>Node20&#45;&gt;Node22</title>
<g id="a_edge32_Node000020_Node000022"><a xlink:title=" ">
<path fill="none" stroke="#63b8ff" d="M831.89,-164.98C843.15,-156.92 860.29,-144.65 873.71,-135.03"/>
<polygon fill="#63b8ff" stroke="#63b8ff" points="875.8,-137.84 881.89,-129.17 871.73,-132.15 875.8,-137.84"/>
</a>
</g>
</g>
<!-- Node22&#45;&gt;Node2 -->
<g id="edge33_Node000022_Node000002" class="edge">
<title>Node22&#45;&gt;Node2</title>
<g id="a_edge33_Node000022_Node000002"><a xlink:title=" ">
<path fill="none" stroke="#63b8ff" d="M894,-109.75C894,-102.8 894,-92.85 894,-84.13"/>
<polygon fill="#63b8ff" stroke="#63b8ff" points="897.5,-84.09 894,-74.09 890.5,-84.09 897.5,-84.09"/>
</a>
</g>
</g>
<!-- Node22&#45;&gt;Node6 -->
<g id="edge34_Node000022_Node000006" class="edge">
<title>Node22&#45;&gt;Node6</title>
<g id="a_edge34_Node000022_Node000006"><a xlink:title=" ">
<path fill="none" stroke="#63b8ff" d="M835.85,-110.74C764.84,-101.26 644.78,-85.23 568.28,-75.02"/>
<polygon fill="#63b8ff" stroke="#63b8ff" points="568.62,-71.53 558.25,-73.68 567.69,-78.47 568.62,-71.53"/>
</a>
</g>
</g>
<!-- Node23&#45;&gt;Node2 -->
<g id="edge38_Node000023_Node000002" class="edge">
<title>Node23&#45;&gt;Node2</title>
<g id="a_edge38_Node000023_Node000002"><a xlink:title=" ">
<path fill="none" stroke="#63b8ff" d="M678.8,-164.61C682.08,-150.75 690.39,-124.12 708,-110 749.23,-76.95 811.08,-67.79 851.98,-65.6"/>
<polygon fill="#63b8ff" stroke="#63b8ff" points="852.31,-69.09 862.16,-65.17 852.02,-62.09 852.31,-69.09"/>
</a>
</g>
</g>
<!-- Node24&#45;&gt;Node20 -->
<g id="edge41_Node000024_Node000020" class="edge">
<title>Node24&#45;&gt;Node20</title>
<g id="a_edge41_Node000024_Node000020"><a xlink:title=" ">
<path fill="none" stroke="#63b8ff" d="M834.19,-219.75C831.94,-212.72 828.7,-202.62 825.88,-193.84"/>
<polygon fill="#63b8ff" stroke="#63b8ff" points="829.14,-192.54 822.75,-184.09 822.48,-194.68 829.14,-192.54"/>
</a>
</g>
</g>
<!-- Node24&#45;&gt;Node21 -->
<g id="edge43_Node000024_Node000021" class="edge">
<title>Node24&#45;&gt;Node21</title>
<g id="a_edge43_Node000024_Node000021"><a xlink:title=" ">
<path fill="none" stroke="#63b8ff" d="M810.43,-219.94C793.87,-213.06 773.88,-201.6 764,-184 756.4,-170.47 758.06,-152.64 761.09,-139.32"/>
<polygon fill="#63b8ff" stroke="#63b8ff" points="764.55,-139.95 763.79,-129.39 757.79,-138.12 764.55,-139.95"/>
</a>
</g>
</g>
<!-- Node24&#45;&gt;Node23 -->
<g id="edge42_Node000024_Node000023" class="edge">
<title>Node24&#45;&gt;Node23</title>
<g id="a_edge42_Node000024_Node000023"><a xlink:title=" ">
<path fill="none" stroke="#63b8ff" d="M811.29,-219.98C784.55,-211.13 742.47,-197.19 712.55,-187.28"/>
<polygon fill="#63b8ff" stroke="#63b8ff" points="713.5,-183.9 702.91,-184.08 711.3,-190.55 713.5,-183.9"/>
</a>
</g>
</g>
<!-- Node25&#45;&gt;Node19 -->
<g id="edge45_Node000025_Node000019" class="edge">
<title>Node25&#45;&gt;Node19</title>
<g id="a_edge45_Node000025_Node000019"><a xlink:title=" ">
<path fill="none" stroke="#63b8ff" d="M728.13,-239.09C729.64,-245.99 730.09,-255.93 729.49,-264.66"/>
<polygon fill="#63b8ff" stroke="#63b8ff" points="726,-264.38 728.17,-274.75 732.94,-265.29 726,-264.38"/>
</a>
</g>
</g>
<!-- Node26&#45;&gt;Node2 -->
<g id="edge47_Node000026_Node000002" class="edge">
<title>Node26&#45;&gt;Node2</title>
<g id="a_edge47_Node000026_Node000002"><a xlink:title=" ">
<path fill="none" stroke="#63b8ff" d="M982.65,-164.86C980.25,-151.8 974.18,-126.78 961,-110 950.7,-96.89 935.42,-86.32 922.06,-78.78"/>
<polygon fill="#63b8ff" stroke="#63b8ff" points="923.67,-75.68 913.2,-74.05 920.37,-81.85 923.67,-75.68"/>
</a>
</g>
</g>
<!-- Node26&#45;&gt;Node5 -->
<g id="edge48_Node000026_Node000005" class="edge">
<title>Node26&#45;&gt;Node5</title>
<g id="a_edge48_Node000026_Node000005"><a xlink:title=" ">
<path fill="none" stroke="#63b8ff" d="M994.28,-164.98C1003.84,-157.07 1018.28,-145.11 1029.78,-135.58"/>
<polygon fill="#63b8ff" stroke="#63b8ff" points="1032.06,-138.24 1037.53,-129.17 1027.6,-132.85 1032.06,-138.24"/>
</a>
</g>
</g>
<!-- Node27&#45;&gt;Node2 -->
<g id="edge52_Node000027_Node000002" class="edge">
<title>Node27&#45;&gt;Node2</title>
<g id="a_edge52_Node000027_Node000002"><a xlink:title=" ">
<path fill="none" stroke="#63b8ff" d="M1216.39,-219.93C1247.3,-209.38 1289.15,-189.77 1271,-165 1231.17,-110.64 1025.23,-80.65 935.67,-70"/>
<polygon fill="#63b8ff" stroke="#63b8ff" points="935.94,-66.51 925.6,-68.83 935.12,-73.46 935.94,-66.51"/>
</a>
</g>
</g>
<!-- Node28 -->
<g id="Node000028" class="node">
<title>Node28</title>
<g id="a_Node000028"><a xlink:title=" ">
<polygon fill="#e0e0e0" stroke="#999999" points="1262,-184 1138,-184 1138,-165 1262,-165 1262,-184"/>
<text text-anchor="middle" x="1200" y="-172" font-family="Helvetica,sans-Serif" font-size="10.00">Arduino_LED_Matrix.h</text>
</a>
</g>
</g>
<!-- Node27&#45;&gt;Node28 -->
<g id="edge53_Node000027_Node000028" class="edge">
<title>Node27&#45;&gt;Node28</title>
<g id="a_edge53_Node000027_Node000028"><a xlink:title=" ">
<path fill="none" stroke="#63b8ff" d="M1189.15,-219.75C1190.87,-212.72 1193.35,-202.62 1195.5,-193.84"/>
<polygon fill="#63b8ff" stroke="#63b8ff" points="1198.91,-194.63 1197.89,-184.09 1192.11,-192.97 1198.91,-194.63"/>
</a>
</g>
</g>
</g>
</svg>
