<?xml version="1.0" encoding="UTF-8" standalone="no"?>
<!DOCTYPE svg PUBLIC "-//W3C//DTD SVG 1.1//EN"
 "http://www.w3.org/Graphics/SVG/1.1/DTD/svg11.dtd">
<!-- Generated by graphviz version 2.43.0 (0)
 -->
<!-- Title: BuggySoftware/BuggySoftware.ino Pages: 1 -->
<!--zoomable 302 -->

<svg id="main" version="1.1" xmlns="http://www.w3.org/2000/svg" xmlns:xlink="http://www.w3.org/1999/xlink" xml:space="preserve" onload="init(evt)">

<style type="text/css"><![CDATA[
.node, .edge {opacity: 0.7;}
.node.selected, .edge.selected {opacity: 1;}
.edge:hover path { stroke: red; }
.edge:hover polygon { stroke: red; fill: red; }
]]></style>

<defs>
  <circle id="rim" cx="0" cy="0" r="7"/>
  <circle id="rim2" cx="0" cy="0" r="3.5"/>
  <g id="zoomPlus">
    <use xlink:href="#rim" fill="#404040"><set attributeName="fill" to="#808080" begin="zoomplus.mouseover" end="zoomplus.mouseout"/></use>
    <path d="M-4,0h8M0,-4v8" fill="none" stroke="white" stroke-width="1.5" pointer-events="none"/>
  </g>
  <g id="zoomMin">
    <use xlink:href="#rim" fill="#404040"><set attributeName="fill" to="#808080" begin="zoomminus.mouseover" end="zoomminus.mouseout"/></use>
    <path d="M-4,0h8" fill="none" stroke="white" stroke-width="1.5" pointer-events="none"/>
  </g>
  <g id="arrowUp" transform="translate(30 24)">
    <use xlink:href="#rim"/>
    <path pointer-events="none" fill="none" stroke="white" stroke-width="1.5" d="M0,-3.0v7 M-2.5,-0.5L0,-3.0L2.5,-0.5"/>
  </g>
  <g id="arrowRight" transform="rotate(90) translate(36 -43)">
    <use xlink:href="#rim"/>
    <path pointer-events="none" fill="none" stroke="white" stroke-width="1.5" d="M0,-3.0v7 M-2.5,-0.5L0,-3.0L2.5,-0.5"/>
  </g>
  <g id="arrowDown" transform="rotate(180) translate(-30 -48)">
    <use xlink:href="#rim"/>
    <path pointer-events="none" fill="none" stroke="white" stroke-width="1.5" d="M0,-3.0v7 M-2.5,-0.5L0,-3.0L2.5,-0.5"/>
  </g>
  <g id="arrowLeft" transform="rotate(270) translate(-36 17)">
    <use xlink:href="#rim"/>
    <path pointer-events="none" fill="none" stroke="white" stroke-width="1.5" d="M0,-3.0v7 M-2.5,-0.5L0,-3.0L2.5,-0.5"/>
  </g>
  <g id="resetDef">
    <use xlink:href="#rim2" fill="#404040"><set attributeName="fill" to="#808080" begin="reset.mouseover" end="reset.mouseout"/></use>
  </g>
</defs>
<script type="application/ecmascript">
var viewWidth = 1389;
var viewHeight = 302;
var sectionId = 'dynsection-0';
</script>
<script type="application/ecmascript" xlink:href="svg.min.js"/>
<svg id="graph" class="graph">
<g id="viewport">
<title>BuggySoftware/BuggySoftware.ino</title>
<!-- Node1 -->
<g id="Node000001" class="node">
<title>Node1</title>
<g id="a_Node000001"><a xlink:title="This is the main entry point for the Buggy software.">
<polygon fill="#999999" stroke="#666666" points="806,-294 621,-294 621,-275 806,-275 806,-294"/>
<text text-anchor="middle" x="713.5" y="-282" font-family="Helvetica,sans-Serif" font-size="10.00">BuggySoftware/BuggySoftware.ino</text>
</a>
</g>
</g>
<!-- Node2 -->
<g id="Node000002" class="node">
<title>Node2</title>
<g id="a_Node000002"><a xlink:title=" ">
<polygon fill="#e0e0e0" stroke="#999999" points="747,-19 684,-19 684,0 747,0 747,-19"/>
<text text-anchor="middle" x="715.5" y="-7" font-family="Helvetica,sans-Serif" font-size="10.00">Arduino.h</text>
</a>
</g>
</g>
<!-- Node1&#45;&gt;Node2 -->
<g id="edge1_Node000001_Node000002" class="edge">
<title>Node1&#45;&gt;Node2</title>
<g id="a_edge1_Node000001_Node000002"><a xlink:title=" ">
<path fill="none" stroke="#63b8ff" d="M806.33,-278.95C885.99,-273.61 1003.45,-262.32 1103.5,-239 1184.89,-220.03 1280.5,-259.08 1280.5,-175.5 1280.5,-175.5 1280.5,-175.5 1280.5,-118.5 1280.5,-56.58 1215.89,-72.52 1156.5,-55 1014.35,-13.06 836.47,-9.04 757.09,-9.62"/>
<polygon fill="#63b8ff" stroke="#63b8ff" points="756.97,-6.12 747,-9.72 757.04,-13.12 756.97,-6.12"/>
</a>
</g>
</g>
<!-- Node3 -->
<g id="Node000003" class="node">
<title>Node3</title>
<g id="a_Node000003"><a xlink:href="Timer1_8hpp.html" target="_top" xlink:title="Setup methods for Timer1.">
<polygon fill="white" stroke="#666666" points="1380.5,-239 1308.5,-239 1308.5,-220 1380.5,-220 1380.5,-239"/>
<text text-anchor="middle" x="1344.5" y="-227" font-family="Helvetica,sans-Serif" font-size="10.00">Timer1.hpp</text>
</a>
</g>
</g>
<!-- Node1&#45;&gt;Node3 -->
<g id="edge2_Node000001_Node000003" class="edge">
<title>Node1&#45;&gt;Node3</title>
<g id="a_edge2_Node000001_Node000003"><a xlink:title=" ">
<path fill="none" stroke="#63b8ff" d="M806.08,-279.04C920.96,-272.9 1122.68,-260.14 1294.5,-239 1295.75,-238.85 1297.02,-238.68 1298.3,-238.51"/>
<polygon fill="#63b8ff" stroke="#63b8ff" points="1298.84,-241.97 1308.24,-237.07 1297.84,-235.04 1298.84,-241.97"/>
</a>
</g>
</g>
<!-- Node5 -->
<g id="Node000005" class="node">
<title>Node5</title>
<g id="a_Node000005"><a xlink:href="PinSetup_8hpp_source.html" target="_top" xlink:title=" ">
<polygon fill="white" stroke="#666666" points="687.5,-74 607.5,-74 607.5,-55 687.5,-55 687.5,-74"/>
<text text-anchor="middle" x="647.5" y="-62" font-family="Helvetica,sans-Serif" font-size="10.00">PinSetup.hpp</text>
</a>
</g>
</g>
<!-- Node1&#45;&gt;Node5 -->
<g id="edge4_Node000001_Node000005" class="edge">
<title>Node1&#45;&gt;Node5</title>
<g id="a_edge4_Node000001_Node000005"><a xlink:title=" ">
<path fill="none" stroke="#63b8ff" d="M700.69,-274.94C679.17,-259.69 636.53,-225.46 620.5,-184 607.12,-149.39 624.87,-106.4 637.29,-82.89"/>
<polygon fill="#63b8ff" stroke="#63b8ff" points="640.38,-84.52 642.18,-74.08 634.26,-81.12 640.38,-84.52"/>
</a>
</g>
</g>
<!-- Node6 -->
<g id="Node000006" class="node">
<title>Node6</title>
<g id="a_Node000006"><a xlink:href="EmbeddedLogger_8hpp.html" target="_top" xlink:title=" ">
<polygon fill="white" stroke="#666666" points="573.5,-129 451.5,-129 451.5,-110 573.5,-110 573.5,-129"/>
<text text-anchor="middle" x="512.5" y="-117" font-family="Helvetica,sans-Serif" font-size="10.00">EmbeddedLogger.hpp</text>
</a>
</g>
</g>
<!-- Node1&#45;&gt;Node6 -->
<g id="edge6_Node000001_Node000006" class="edge">
<title>Node1&#45;&gt;Node6</title>
<g id="a_edge6_Node000001_Node000006"><a xlink:title=" ">
<path fill="none" stroke="#63b8ff" d="M667.31,-274.98C641.73,-268.46 610.54,-257.37 587.5,-239 553.2,-211.66 530.03,-164.1 519.31,-138.33"/>
<polygon fill="#63b8ff" stroke="#63b8ff" points="522.56,-137.02 515.6,-129.03 516.06,-139.62 522.56,-137.02"/>
</a>
</g>
</g>
<!-- Node9 -->
<g id="Node000009" class="node">
<title>Node9</title>
<g id="a_Node000009"><a xlink:href="SerialWirelessLogger_8hpp_source.html" target="_top" xlink:title=" ">
<polygon fill="white" stroke="#666666" points="361.5,-239 221.5,-239 221.5,-220 361.5,-220 361.5,-239"/>
<text text-anchor="middle" x="291.5" y="-227" font-family="Helvetica,sans-Serif" font-size="10.00">SerialWirelessLogger.hpp</text>
</a>
</g>
</g>
<!-- Node1&#45;&gt;Node9 -->
<g id="edge9_Node000001_Node000009" class="edge">
<title>Node1&#45;&gt;Node9</title>
<g id="a_edge9_Node000001_Node000009"><a xlink:title=" ">
<path fill="none" stroke="#63b8ff" d="M645.7,-274.98C570.29,-265.51 448.68,-250.24 369.41,-240.29"/>
<polygon fill="#63b8ff" stroke="#63b8ff" points="369.84,-236.81 359.48,-239.04 368.97,-243.76 369.84,-236.81"/>
</a>
</g>
</g>
<!-- Node18 -->
<g id="Node000018" class="node">
<title>Node18</title>
<g id="a_Node000018"><a xlink:href="PacketFactory_8hpp_source.html" target="_top" xlink:title=" ">
<polygon fill="white" stroke="#666666" points="103,-129 0,-129 0,-110 103,-110 103,-129"/>
<text text-anchor="middle" x="51.5" y="-117" font-family="Helvetica,sans-Serif" font-size="10.00">PacketFactory.hpp</text>
</a>
</g>
</g>
<!-- Node1&#45;&gt;Node18 -->
<g id="edge54_Node000001_Node000018" class="edge">
<title>Node1&#45;&gt;Node18</title>
<g id="a_edge54_Node000001_Node000018"><a xlink:title=" ">
<path fill="none" stroke="#63b8ff" d="M620.56,-282.28C519.16,-279.33 352.6,-269.71 212.5,-239 141.51,-223.44 103.56,-241.02 58.5,-184 48.72,-171.63 47.65,-153.41 48.62,-139.66"/>
<polygon fill="#63b8ff" stroke="#63b8ff" points="52.14,-139.71 49.78,-129.38 45.18,-138.93 52.14,-139.71"/>
</a>
</g>
</g>
<!-- Node19 -->
<g id="Node000019" class="node">
<title>Node19</title>
<g id="a_Node000019"><a xlink:href="Buggy_8hpp_source.html" target="_top" xlink:title=" ">
<polygon fill="white" stroke="#666666" points="747,-239 680,-239 680,-220 747,-220 747,-239"/>
<text text-anchor="middle" x="713.5" y="-227" font-family="Helvetica,sans-Serif" font-size="10.00">Buggy.hpp</text>
</a>
</g>
</g>
<!-- Node1&#45;&gt;Node19 -->
<g id="edge28_Node000001_Node000019" class="edge">
<title>Node1&#45;&gt;Node19</title>
<g id="a_edge28_Node000001_Node000019"><a xlink:title=" ">
<path fill="none" stroke="#63b8ff" d="M713.5,-274.75C713.5,-267.8 713.5,-257.85 713.5,-249.13"/>
<polygon fill="#63b8ff" stroke="#63b8ff" points="717,-249.09 713.5,-239.09 710,-249.09 717,-249.09"/>
</a>
</g>
</g>
<!-- Node21 -->
<g id="Node000021" class="node">
<title>Node21</title>
<g id="a_Node000021"><a xlink:href="PIDController_8hpp_source.html" target="_top" xlink:title=" ">
<polygon fill="white" stroke="#666666" points="979,-74 878,-74 878,-55 979,-55 979,-74"/>
<text text-anchor="middle" x="928.5" y="-62" font-family="Helvetica,sans-Serif" font-size="10.00">PIDController.hpp</text>
</a>
</g>
</g>
<!-- Node1&#45;&gt;Node21 -->
<g id="edge53_Node000001_Node000021" class="edge">
<title>Node1&#45;&gt;Node21</title>
<g id="a_edge53_Node000001_Node000021"><a xlink:title=" ">
<path fill="none" stroke="#63b8ff" d="M798.7,-274.94C883.3,-261 1005.58,-224.5 1042.5,-129 1053.47,-100.63 1021.58,-84.55 988.77,-75.68"/>
<polygon fill="#63b8ff" stroke="#63b8ff" points="989.62,-72.28 979.07,-73.25 987.92,-79.07 989.62,-72.28"/>
</a>
</g>
</g>
<!-- Node27 -->
<g id="Node000027" class="node">
<title>Node27</title>
<g id="a_Node000027"><a xlink:href="Matrix_8hpp_source.html" target="_top" xlink:title=" ">
<polygon fill="white" stroke="#666666" points="1174,-184 1105,-184 1105,-165 1174,-165 1174,-184"/>
<text text-anchor="middle" x="1139.5" y="-172" font-family="Helvetica,sans-Serif" font-size="10.00">Matrix.hpp</text>
</a>
</g>
</g>
<!-- Node1&#45;&gt;Node27 -->
<g id="edge55_Node000001_Node000027" class="edge">
<title>Node1&#45;&gt;Node27</title>
<g id="a_edge55_Node000001_Node000027"><a xlink:title=" ">
<path fill="none" stroke="#63b8ff" d="M806.13,-279.03C897.63,-273.4 1030.39,-261.6 1076.5,-239 1097.98,-228.47 1116.42,-207.63 1127.7,-192.69"/>
<polygon fill="#63b8ff" stroke="#63b8ff" points="1130.74,-194.45 1133.76,-184.3 1125.07,-190.35 1130.74,-194.45"/>
</a>
</g>
</g>
<!-- Node4 -->
<g id="Node000004" class="node">
<title>Node4</title>
<g id="a_Node000004"><a xlink:title=" ">
<polygon fill="#e0e0e0" stroke="#999999" points="1380,-184 1309,-184 1309,-165 1380,-165 1380,-184"/>
<text text-anchor="middle" x="1344.5" y="-172" font-family="Helvetica,sans-Serif" font-size="10.00">FspTimer.h</text>
</a>
</g>
</g>
<!-- Node3&#45;&gt;Node4 -->
<g id="edge3_Node000003_Node000004" class="edge">
<title>Node3&#45;&gt;Node4</title>
<g id="a_edge3_Node000003_Node000004"><a xlink:title=" ">
<path fill="none" stroke="#63b8ff" d="M1344.5,-219.75C1344.5,-212.8 1344.5,-202.85 1344.5,-194.13"/>
<polygon fill="#63b8ff" stroke="#63b8ff" points="1348,-194.09 1344.5,-184.09 1341,-194.09 1348,-194.09"/>
</a>
</g>
</g>
<!-- Node5&#45;&gt;Node2 -->
<g id="edge5_Node000005_Node000002" class="edge">
<title>Node5&#45;&gt;Node2</title>
<g id="a_edge5_Node000005_Node000002"><a xlink:title=" ">
<path fill="none" stroke="#63b8ff" d="M658.43,-54.98C668.58,-47.07 683.92,-35.11 696.15,-25.58"/>
<polygon fill="#63b8ff" stroke="#63b8ff" points="698.64,-28.08 704.38,-19.17 694.34,-22.56 698.64,-28.08"/>
</a>
</g>
</g>
<!-- Node7 -->
<g id="Node000007" class="node">
<title>Node7</title>
<g id="a_Node000007"><a xlink:title=" ">
<polygon fill="#e0e0e0" stroke="#999999" points="584,-74 531,-74 531,-55 584,-55 584,-74"/>
<text text-anchor="middle" x="557.5" y="-62" font-family="Helvetica,sans-Serif" font-size="10.00">stdint.h</text>
</a>
</g>
</g>
<!-- Node6&#45;&gt;Node7 -->
<g id="edge7_Node000006_Node000007" class="edge">
<title>Node6&#45;&gt;Node7</title>
<g id="a_edge7_Node000006_Node000007"><a xlink:title=" ">
<path fill="none" stroke="#63b8ff" d="M519.93,-109.75C526.35,-102.18 535.81,-91.05 543.62,-81.84"/>
<polygon fill="#63b8ff" stroke="#63b8ff" points="546.4,-83.98 550.21,-74.09 541.07,-79.45 546.4,-83.98"/>
</a>
</g>
</g>
<!-- Node8 -->
<g id="Node000008" class="node">
<title>Node8</title>
<g id="a_Node000008"><a xlink:title=" ">
<polygon fill="#e0e0e0" stroke="#999999" points="512.5,-74 456.5,-74 456.5,-55 512.5,-55 512.5,-74"/>
<text text-anchor="middle" x="484.5" y="-62" font-family="Helvetica,sans-Serif" font-size="10.00">stddef.h</text>
</a>
</g>
</g>
<!-- Node6&#45;&gt;Node8 -->
<g id="edge8_Node000006_Node000008" class="edge">
<title>Node6&#45;&gt;Node8</title>
<g id="a_edge8_Node000006_Node000008"><a xlink:title=" ">
<path fill="none" stroke="#63b8ff" d="M507.88,-109.75C504.04,-102.49 498.48,-91.95 493.74,-82.98"/>
<polygon fill="#63b8ff" stroke="#63b8ff" points="496.8,-81.3 489.04,-74.09 490.61,-84.57 496.8,-81.3"/>
</a>
</g>
</g>
<!-- Node9&#45;&gt;Node2 -->
<g id="edge25_Node000009_Node000002" class="edge">
<title>Node9&#45;&gt;Node2</title>
<g id="a_edge25_Node000009_Node000002"><a xlink:title=" ">
<path fill="none" stroke="#63b8ff" d="M295.63,-219.78C309.88,-190.71 360.17,-96.62 432.5,-55 472.79,-31.82 605.1,-18.77 673.59,-13.41"/>
<polygon fill="#63b8ff" stroke="#63b8ff" points="673.9,-16.9 683.61,-12.64 673.37,-9.92 673.9,-16.9"/>
</a>
</g>
</g>
<!-- Node10 -->
<g id="Node000010" class="node">
<title>Node10</title>
<g id="a_Node000010"><a xlink:href="SerialLogger_8hpp_source.html" target="_top" xlink:title=" ">
<polygon fill="white" stroke="#666666" points="497.5,-184 399.5,-184 399.5,-165 497.5,-165 497.5,-184"/>
<text text-anchor="middle" x="448.5" y="-172" font-family="Helvetica,sans-Serif" font-size="10.00">SerialLogger.hpp</text>
</a>
</g>
</g>
<!-- Node9&#45;&gt;Node10 -->
<g id="edge10_Node000009_Node000010" class="edge">
<title>Node9&#45;&gt;Node10</title>
<g id="a_edge10_Node000009_Node000010"><a xlink:title=" ">
<path fill="none" stroke="#63b8ff" d="M316.72,-219.98C342.86,-211.16 383.9,-197.31 413.23,-187.41"/>
<polygon fill="#63b8ff" stroke="#63b8ff" points="414.72,-190.6 423.08,-184.08 412.48,-183.96 414.72,-190.6"/>
</a>
</g>
</g>
<!-- Node11 -->
<g id="Node000011" class="node">
<title>Node11</title>
<g id="a_Node000011"><a xlink:href="WirelessLogger_8hpp_source.html" target="_top" xlink:title=" ">
<polygon fill="white" stroke="#666666" points="305.5,-184 193.5,-184 193.5,-165 305.5,-165 305.5,-184"/>
<text text-anchor="middle" x="249.5" y="-172" font-family="Helvetica,sans-Serif" font-size="10.00">WirelessLogger.hpp</text>
</a>
</g>
</g>
<!-- Node9&#45;&gt;Node11 -->
<g id="edge13_Node000009_Node000011" class="edge">
<title>Node9&#45;&gt;Node11</title>
<g id="a_edge13_Node000009_Node000011"><a xlink:title=" ">
<path fill="none" stroke="#63b8ff" d="M284.56,-219.75C278.63,-212.26 269.93,-201.28 262.68,-192.13"/>
<polygon fill="#63b8ff" stroke="#63b8ff" points="265.26,-189.75 256.31,-184.09 259.77,-194.1 265.26,-189.75"/>
</a>
</g>
</g>
<!-- Node12 -->
<g id="Node000012" class="node">
<title>Node12</title>
<g id="a_Node000012"><a xlink:href="BuggyTCP_8hpp_source.html" target="_top" xlink:title=" ">
<polygon fill="white" stroke="#666666" points="208,-129 123,-129 123,-110 208,-110 208,-129"/>
<text text-anchor="middle" x="165.5" y="-117" font-family="Helvetica,sans-Serif" font-size="10.00">BuggyTCP.hpp</text>
</a>
</g>
</g>
<!-- Node9&#45;&gt;Node12 -->
<g id="edge26_Node000009_Node000012" class="edge">
<title>Node9&#45;&gt;Node12</title>
<g id="a_edge26_Node000009_Node000012"><a xlink:title=" ">
<path fill="none" stroke="#63b8ff" d="M221.17,-223.29C194.97,-217.52 167.69,-206.13 151.5,-184 141.74,-170.66 147.73,-151.8 154.64,-138.1"/>
<polygon fill="#63b8ff" stroke="#63b8ff" points="157.8,-139.63 159.63,-129.19 151.69,-136.21 157.8,-139.63"/>
</a>
</g>
</g>
<!-- Node9&#45;&gt;Node18 -->
<g id="edge27_Node000009_Node000018" class="edge">
<title>Node9&#45;&gt;Node18</title>
<g id="a_edge27_Node000009_Node000018"><a xlink:title=" ">
<path fill="none" stroke="#63b8ff" d="M221.49,-221.41C167.05,-214.59 97.24,-202.54 75.5,-184 62.48,-172.89 56.51,-153.96 53.78,-139.65"/>
<polygon fill="#63b8ff" stroke="#63b8ff" points="57.18,-138.76 52.21,-129.4 50.27,-139.82 57.18,-138.76"/>
</a>
</g>
</g>
<!-- Node10&#45;&gt;Node2 -->
<g id="edge12_Node000010_Node000002" class="edge">
<title>Node10&#45;&gt;Node2</title>
<g id="a_edge12_Node000010_Node000002"><a xlink:title=" ">
<path fill="none" stroke="#63b8ff" d="M444.98,-164.94C436.71,-143.3 418.8,-85.9 447.5,-55 477.43,-22.77 606.02,-13.88 673.61,-11.43"/>
<polygon fill="#63b8ff" stroke="#63b8ff" points="674.03,-14.92 683.91,-11.09 673.8,-7.92 674.03,-14.92"/>
</a>
</g>
</g>
<!-- Node10&#45;&gt;Node6 -->
<g id="edge11_Node000010_Node000006" class="edge">
<title>Node10&#45;&gt;Node6</title>
<g id="a_edge11_Node000010_Node000006"><a xlink:title=" ">
<path fill="none" stroke="#63b8ff" d="M458.78,-164.98C468.34,-157.07 482.78,-145.11 494.28,-135.58"/>
<polygon fill="#63b8ff" stroke="#63b8ff" points="496.56,-138.24 502.03,-129.17 492.1,-132.85 496.56,-138.24"/>
</a>
</g>
</g>
<!-- Node11&#45;&gt;Node2 -->
<g id="edge15_Node000011_Node000002" class="edge">
<title>Node11&#45;&gt;Node2</title>
<g id="a_edge15_Node000011_Node000002"><a xlink:title=" ">
<path fill="none" stroke="#63b8ff" d="M255.38,-164.73C271.1,-142.06 316.72,-81.44 371.5,-55 424.05,-29.63 594.18,-17.17 673.75,-12.61"/>
<polygon fill="#63b8ff" stroke="#63b8ff" points="674.11,-16.1 683.9,-12.05 673.72,-9.11 674.11,-16.1"/>
</a>
</g>
</g>
<!-- Node11&#45;&gt;Node6 -->
<g id="edge14_Node000011_Node000006" class="edge">
<title>Node11&#45;&gt;Node6</title>
<g id="a_edge14_Node000011_Node000006"><a xlink:title=" ">
<path fill="none" stroke="#63b8ff" d="M291.76,-164.98C337.54,-155.76 410.64,-141.03 460.05,-131.07"/>
<polygon fill="#63b8ff" stroke="#63b8ff" points="460.8,-134.49 469.91,-129.08 459.42,-127.63 460.8,-134.49"/>
</a>
</g>
</g>
<!-- Node11&#45;&gt;Node12 -->
<g id="edge16_Node000011_Node000012" class="edge">
<title>Node11&#45;&gt;Node12</title>
<g id="a_edge16_Node000011_Node000012"><a xlink:title=" ">
<path fill="none" stroke="#63b8ff" d="M236,-164.98C223.1,-156.84 203.4,-144.41 188.1,-134.76"/>
<polygon fill="#63b8ff" stroke="#63b8ff" points="189.57,-131.55 179.24,-129.17 185.83,-137.47 189.57,-131.55"/>
</a>
</g>
</g>
<!-- Node11&#45;&gt;Node18 -->
<g id="edge23_Node000011_Node000018" class="edge">
<title>Node11&#45;&gt;Node18</title>
<g id="a_edge23_Node000011_Node000018"><a xlink:title=" ">
<path fill="none" stroke="#63b8ff" d="M217.69,-164.98C184.01,-155.97 130.7,-141.7 93.58,-131.76"/>
<polygon fill="#63b8ff" stroke="#63b8ff" points="94.13,-128.29 83.56,-129.08 92.32,-135.05 94.13,-128.29"/>
</a>
</g>
</g>
<!-- Node13 -->
<g id="Node000013" class="node">
<title>Node13</title>
<g id="a_Node000013"><a xlink:href="BuggyWifi_8hpp_source.html" target="_top" xlink:title=" ">
<polygon fill="white" stroke="#666666" points="281,-74 194,-74 194,-55 281,-55 281,-74"/>
<text text-anchor="middle" x="237.5" y="-62" font-family="Helvetica,sans-Serif" font-size="10.00">BuggyWifi.hpp</text>
</a>
</g>
</g>
<!-- Node12&#45;&gt;Node13 -->
<g id="edge17_Node000012_Node000013" class="edge">
<title>Node12&#45;&gt;Node13</title>
<g id="a_edge17_Node000012_Node000013"><a xlink:title=" ">
<path fill="none" stroke="#63b8ff" d="M177.07,-109.98C187.92,-102 204.38,-89.88 217.38,-80.31"/>
<polygon fill="#63b8ff" stroke="#63b8ff" points="219.74,-82.92 225.72,-74.17 215.59,-77.28 219.74,-82.92"/>
</a>
</g>
</g>
<!-- Node16 -->
<g id="Node000016" class="node">
<title>Node16</title>
<g id="a_Node000016"><a xlink:href="PacketTypes_8hpp_source.html" target="_top" xlink:title=" ">
<polygon fill="white" stroke="#666666" points="129,-19 32,-19 32,0 129,0 129,-19"/>
<text text-anchor="middle" x="80.5" y="-7" font-family="Helvetica,sans-Serif" font-size="10.00">PacketTypes.hpp</text>
</a>
</g>
</g>
<!-- Node12&#45;&gt;Node16 -->
<g id="edge20_Node000012_Node000016" class="edge">
<title>Node12&#45;&gt;Node16</title>
<g id="a_edge20_Node000012_Node000016"><a xlink:title=" ">
<path fill="none" stroke="#63b8ff" d="M164.77,-109.88C163.28,-96.85 158.91,-71.87 146.5,-55 136.88,-41.92 122.19,-31.47 109.11,-24"/>
<polygon fill="#63b8ff" stroke="#63b8ff" points="110.43,-20.73 99.96,-19.08 107.12,-26.9 110.43,-20.73"/>
</a>
</g>
</g>
<!-- Node17 -->
<g id="Node000017" class="node">
<title>Node17</title>
<g id="a_Node000017"><a xlink:href="PacketSerializer_8hpp_source.html" target="_top" xlink:title=" ">
<polygon fill="white" stroke="#666666" points="137.5,-74 23.5,-74 23.5,-55 137.5,-55 137.5,-74"/>
<text text-anchor="middle" x="80.5" y="-62" font-family="Helvetica,sans-Serif" font-size="10.00">PacketSerializer.hpp</text>
</a>
</g>
</g>
<!-- Node12&#45;&gt;Node17 -->
<g id="edge21_Node000012_Node000017" class="edge">
<title>Node12&#45;&gt;Node17</title>
<g id="a_edge21_Node000012_Node000017"><a xlink:title=" ">
<path fill="none" stroke="#63b8ff" d="M151.84,-109.98C138.66,-101.77 118.47,-89.18 102.93,-79.49"/>
<polygon fill="#63b8ff" stroke="#63b8ff" points="104.74,-76.49 94.41,-74.17 101.04,-82.43 104.74,-76.49"/>
</a>
</g>
</g>
<!-- Node14 -->
<g id="Node000014" class="node">
<title>Node14</title>
<g id="a_Node000014"><a xlink:title=" ">
<polygon fill="#e0e0e0" stroke="#999999" points="237,-19 178,-19 178,0 237,0 237,-19"/>
<text text-anchor="middle" x="207.5" y="-7" font-family="Helvetica,sans-Serif" font-size="10.00">WiFiS3.h</text>
</a>
</g>
</g>
<!-- Node13&#45;&gt;Node14 -->
<g id="edge18_Node000013_Node000014" class="edge">
<title>Node13&#45;&gt;Node14</title>
<g id="a_edge18_Node000013_Node000014"><a xlink:title=" ">
<path fill="none" stroke="#63b8ff" d="M232.55,-54.75C228.44,-47.49 222.47,-36.95 217.4,-27.98"/>
<polygon fill="#63b8ff" stroke="#63b8ff" points="220.33,-26.07 212.36,-19.09 214.24,-29.52 220.33,-26.07"/>
</a>
</g>
</g>
<!-- Node15 -->
<g id="Node000015" class="node">
<title>Node15</title>
<g id="a_Node000015"><a xlink:href="secrets_8h_source.html" target="_top" xlink:title=" ">
<polygon fill="white" stroke="#666666" points="316,-19 255,-19 255,0 316,0 316,-19"/>
<text text-anchor="middle" x="285.5" y="-7" font-family="Helvetica,sans-Serif" font-size="10.00">secrets.h</text>
</a>
</g>
</g>
<!-- Node13&#45;&gt;Node15 -->
<g id="edge19_Node000013_Node000015" class="edge">
<title>Node13&#45;&gt;Node15</title>
<g id="a_edge19_Node000013_Node000015"><a xlink:title=" ">
<path fill="none" stroke="#63b8ff" d="M245.43,-54.75C252.35,-47.11 262.57,-35.82 270.95,-26.56"/>
<polygon fill="#63b8ff" stroke="#63b8ff" points="273.6,-28.85 277.72,-19.09 268.41,-24.15 273.6,-28.85"/>
</a>
</g>
</g>
<!-- Node17&#45;&gt;Node16 -->
<g id="edge22_Node000017_Node000016" class="edge">
<title>Node17&#45;&gt;Node16</title>
<g id="a_edge22_Node000017_Node000016"><a xlink:title=" ">
<path fill="none" stroke="#63b8ff" d="M80.5,-54.75C80.5,-47.8 80.5,-37.85 80.5,-29.13"/>
<polygon fill="#63b8ff" stroke="#63b8ff" points="84,-29.09 80.5,-19.09 77,-29.09 84,-29.09"/>
</a>
</g>
</g>
<!-- Node18&#45;&gt;Node16 -->
<g id="edge24_Node000018_Node000016" class="edge">
<title>Node18&#45;&gt;Node16</title>
<g id="a_edge24_Node000018_Node000016"><a xlink:title=" ">
<path fill="none" stroke="#63b8ff" d="M40.32,-109.99C25.89,-97.92 3.84,-75.05 14.5,-55 21.81,-41.25 35.47,-30.99 48.47,-23.8"/>
<polygon fill="#63b8ff" stroke="#63b8ff" points="50.39,-26.75 57.72,-19.11 47.22,-20.51 50.39,-26.75"/>
</a>
</g>
</g>
<!-- Node19&#45;&gt;Node5 -->
<g id="edge38_Node000019_Node000005" class="edge">
<title>Node19&#45;&gt;Node5</title>
<g id="a_edge38_Node000019_Node000005"><a xlink:title=" ">
<path fill="none" stroke="#63b8ff" d="M720.43,-219.68C729.63,-206.82 743.49,-182.56 732.5,-165 713.1,-133.99 680.48,-158.23 658.5,-129 648.94,-116.29 646.61,-98.11 646.42,-84.45"/>
<polygon fill="#63b8ff" stroke="#63b8ff" points="649.92,-84.35 646.66,-74.27 642.93,-84.19 649.92,-84.35"/>
</a>
</g>
</g>
<!-- Node19&#45;&gt;Node6 -->
<g id="edge49_Node000019_Node000006" class="edge">
<title>Node19&#45;&gt;Node6</title>
<g id="a_edge49_Node000019_Node000006"><a xlink:title=" ">
<path fill="none" stroke="#63b8ff" d="M694.38,-219.93C675.42,-211.3 645.63,-197.37 620.5,-184 590.39,-167.98 556.65,-147.76 535.02,-134.5"/>
<polygon fill="#63b8ff" stroke="#63b8ff" points="536.61,-131.37 526.26,-129.1 532.94,-137.33 536.61,-131.37"/>
</a>
</g>
</g>
<!-- Node19&#45;&gt;Node12 -->
<g id="edge35_Node000019_Node000012" class="edge">
<title>Node19&#45;&gt;Node12</title>
<g id="a_edge35_Node000019_Node000012"><a xlink:title=" ">
<path fill="none" stroke="#63b8ff" d="M679.71,-227.84C569.14,-225.37 222.91,-215.19 184.5,-184 171.39,-173.35 167.07,-154.04 165.76,-139.5"/>
<polygon fill="#63b8ff" stroke="#63b8ff" points="169.24,-138.94 165.26,-129.12 162.25,-139.28 169.24,-138.94"/>
</a>
</g>
</g>
<!-- Node19&#45;&gt;Node13 -->
<g id="edge34_Node000019_Node000013" class="edge">
<title>Node19&#45;&gt;Node13</title>
<g id="a_edge34_Node000019_Node000013"><a xlink:title=" ">
<path fill="none" stroke="#63b8ff" d="M679.77,-226.07C607.96,-220.54 442.29,-205.77 390.5,-184 332.68,-159.69 277.82,-107.82 252.36,-81.51"/>
<polygon fill="#63b8ff" stroke="#63b8ff" points="254.86,-79.06 245.43,-74.23 249.78,-83.88 254.86,-79.06"/>
</a>
</g>
</g>
<!-- Node19&#45;&gt;Node18 -->
<g id="edge48_Node000019_Node000018" class="edge">
<title>Node19&#45;&gt;Node18</title>
<g id="a_edge48_Node000019_Node000018"><a xlink:title=" ">
<path fill="none" stroke="#63b8ff" d="M679.65,-227.56C576.14,-224.42 265.06,-212.75 168.5,-184 132.09,-173.16 94.21,-150.07 71.75,-134.92"/>
<polygon fill="#63b8ff" stroke="#63b8ff" points="73.61,-131.95 63.39,-129.16 69.64,-137.72 73.61,-131.95"/>
</a>
</g>
</g>
<!-- Node20 -->
<g id="Node000020" class="node">
<title>Node20</title>
<g id="a_Node000020"><a xlink:href="MotorDriver_8hpp_source.html" target="_top" xlink:title=" ">
<polygon fill="white" stroke="#666666" points="900,-129 805,-129 805,-110 900,-110 900,-129"/>
<text text-anchor="middle" x="852.5" y="-117" font-family="Helvetica,sans-Serif" font-size="10.00">MotorDriver.hpp</text>
</a>
</g>
</g>
<!-- Node19&#45;&gt;Node20 -->
<g id="edge29_Node000019_Node000020" class="edge">
<title>Node19&#45;&gt;Node20</title>
<g id="a_edge29_Node000019_Node000020"><a xlink:title=" ">
<path fill="none" stroke="#63b8ff" d="M727.99,-219.9C742.06,-211.34 763.82,-197.57 781.5,-184 801.24,-168.85 822.3,-149.57 836.31,-136.25"/>
<polygon fill="#63b8ff" stroke="#63b8ff" points="838.9,-138.63 843.69,-129.17 834.05,-133.58 838.9,-138.63"/>
</a>
</g>
</g>
<!-- Node23 -->
<g id="Node000023" class="node">
<title>Node23</title>
<g id="a_Node000023"><a xlink:href="IrSensor_8hpp_source.html" target="_top" xlink:title=" ">
<polygon fill="white" stroke="#666666" points="1034,-129 957,-129 957,-110 1034,-110 1034,-129"/>
<text text-anchor="middle" x="995.5" y="-117" font-family="Helvetica,sans-Serif" font-size="10.00">IrSensor.hpp</text>
</a>
</g>
</g>
<!-- Node19&#45;&gt;Node23 -->
<g id="edge36_Node000019_Node000023" class="edge">
<title>Node19&#45;&gt;Node23</title>
<g id="a_edge36_Node000019_Node000023"><a xlink:title=" ">
<path fill="none" stroke="#63b8ff" d="M747.02,-226.79C808.88,-222.98 937.76,-211.85 971.5,-184 984.84,-172.99 990.77,-153.73 993.41,-139.3"/>
<polygon fill="#63b8ff" stroke="#63b8ff" points="996.93,-139.41 994.89,-129.02 990,-138.41 996.93,-139.41"/>
</a>
</g>
</g>
<!-- Node24 -->
<g id="Node000024" class="node">
<title>Node24</title>
<g id="a_Node000024"><a xlink:href="LineFollower_8hpp_source.html" target="_top" xlink:title=" ">
<polygon fill="white" stroke="#666666" points="962.5,-184 864.5,-184 864.5,-165 962.5,-165 962.5,-184"/>
<text text-anchor="middle" x="913.5" y="-172" font-family="Helvetica,sans-Serif" font-size="10.00">LineFollower.hpp</text>
</a>
</g>
</g>
<!-- Node19&#45;&gt;Node24 -->
<g id="edge39_Node000019_Node000024" class="edge">
<title>Node19&#45;&gt;Node24</title>
<g id="a_edge39_Node000019_Node000024"><a xlink:title=" ">
<path fill="none" stroke="#63b8ff" d="M745.63,-219.98C779.65,-210.97 833.5,-196.7 871,-186.76"/>
<polygon fill="#63b8ff" stroke="#63b8ff" points="872.34,-190.03 881.11,-184.08 870.55,-183.26 872.34,-190.03"/>
</a>
</g>
</g>
<!-- Node25 -->
<g id="Node000025" class="node">
<title>Node25</title>
<g id="a_Node000025"><a xlink:href="BuggyState_8hpp_source.html" target="_top" xlink:title=" ">
<polygon fill="white" stroke="#666666" points="723.5,-184 629.5,-184 629.5,-165 723.5,-165 723.5,-184"/>
<text text-anchor="middle" x="676.5" y="-172" font-family="Helvetica,sans-Serif" font-size="10.00">BuggyState.hpp</text>
</a>
</g>
</g>
<!-- Node19&#45;&gt;Node25 -->
<g id="edge43_Node000019_Node000025" class="edge">
<title>Node19&#45;&gt;Node25</title>
<g id="a_edge43_Node000019_Node000025"><a xlink:title=" ">
<path fill="none" stroke="#63b8ff" d="M702.22,-219.75C695.6,-212.49 687.83,-201.95 682.31,-192.98"/>
<polygon fill="#63b8ff" stroke="#63b8ff" points="685.29,-191.12 677.37,-184.09 679.17,-194.53 685.29,-191.12"/>
</a>
</g>
</g>
<!-- Node26 -->
<g id="Node000026" class="node">
<title>Node26</title>
<g id="a_Node000026"><a xlink:href="UltrasonicSensor_8hpp_source.html" target="_top" xlink:title=" ">
<polygon fill="white" stroke="#666666" points="787,-129 668,-129 668,-110 787,-110 787,-129"/>
<text text-anchor="middle" x="727.5" y="-117" font-family="Helvetica,sans-Serif" font-size="10.00">UltrasonicSensor.hpp</text>
</a>
</g>
</g>
<!-- Node19&#45;&gt;Node26 -->
<g id="edge45_Node000019_Node000026" class="edge">
<title>Node19&#45;&gt;Node26</title>
<g id="a_edge45_Node000019_Node000026"><a xlink:title=" ">
<path fill="none" stroke="#63b8ff" d="M729.53,-219.95C741.91,-212.35 758.15,-199.97 765.5,-184 773.41,-166.83 759.67,-148.42 746.56,-135.87"/>
<polygon fill="#63b8ff" stroke="#63b8ff" points="748.88,-133.25 739.08,-129.21 744.22,-138.47 748.88,-133.25"/>
</a>
</g>
</g>
<!-- Node19&#45;&gt;Node27 -->
<g id="edge50_Node000019_Node000027" class="edge">
<title>Node19&#45;&gt;Node27</title>
<g id="a_edge50_Node000019_Node000027"><a xlink:title=" ">
<path fill="none" stroke="#63b8ff" d="M747.28,-224.3C823.59,-214.8 1009.26,-191.7 1094.89,-181.05"/>
<polygon fill="#63b8ff" stroke="#63b8ff" points="1095.33,-184.52 1104.82,-179.81 1094.47,-177.58 1095.33,-184.52"/>
</a>
</g>
</g>
<!-- Node20&#45;&gt;Node5 -->
<g id="edge30_Node000020_Node000005" class="edge">
<title>Node20&#45;&gt;Node5</title>
<g id="a_edge30_Node000020_Node000005"><a xlink:title=" ">
<path fill="none" stroke="#63b8ff" d="M819.56,-109.98C784.55,-100.93 729.03,-86.58 690.57,-76.64"/>
<polygon fill="#63b8ff" stroke="#63b8ff" points="691.25,-73.2 680.69,-74.08 689.5,-79.97 691.25,-73.2"/>
</a>
</g>
</g>
<!-- Node20&#45;&gt;Node21 -->
<g id="edge31_Node000020_Node000021" class="edge">
<title>Node20&#45;&gt;Node21</title>
<g id="a_edge31_Node000020_Node000021"><a xlink:title=" ">
<path fill="none" stroke="#63b8ff" d="M864.71,-109.98C876.28,-101.92 893.88,-89.65 907.66,-80.03"/>
<polygon fill="#63b8ff" stroke="#63b8ff" points="909.87,-82.76 916.07,-74.17 905.86,-77.02 909.87,-82.76"/>
</a>
</g>
</g>
<!-- Node22 -->
<g id="Node000022" class="node">
<title>Node22</title>
<g id="a_Node000022"><a xlink:href="MoveMeanFilter_8hpp_source.html" target="_top" xlink:title=" ">
<polygon fill="white" stroke="#666666" points="859.5,-74 743.5,-74 743.5,-55 859.5,-55 859.5,-74"/>
<text text-anchor="middle" x="801.5" y="-62" font-family="Helvetica,sans-Serif" font-size="10.00">MoveMeanFilter.hpp</text>
</a>
</g>
</g>
<!-- Node20&#45;&gt;Node22 -->
<g id="edge32_Node000020_Node000022" class="edge">
<title>Node20&#45;&gt;Node22</title>
<g id="a_edge32_Node000020_Node000022"><a xlink:title=" ">
<path fill="none" stroke="#63b8ff" d="M844.08,-109.75C836.73,-102.11 825.87,-90.82 816.96,-81.56"/>
<polygon fill="#63b8ff" stroke="#63b8ff" points="819.22,-78.87 809.76,-74.09 814.18,-83.72 819.22,-78.87"/>
</a>
</g>
</g>
<!-- Node22&#45;&gt;Node2 -->
<g id="edge33_Node000022_Node000002" class="edge">
<title>Node22&#45;&gt;Node2</title>
<g id="a_edge33_Node000022_Node000002"><a xlink:title=" ">
<path fill="none" stroke="#63b8ff" d="M787.68,-54.98C774.35,-46.77 753.92,-34.18 738.19,-24.49"/>
<polygon fill="#63b8ff" stroke="#63b8ff" points="739.92,-21.44 729.57,-19.17 736.25,-27.4 739.92,-21.44"/>
</a>
</g>
</g>
<!-- Node23&#45;&gt;Node2 -->
<g id="edge37_Node000023_Node000002" class="edge">
<title>Node23&#45;&gt;Node2</title>
<g id="a_edge37_Node000023_Node000002"><a xlink:title=" ">
<path fill="none" stroke="#63b8ff" d="M997.32,-109.75C999.61,-96.08 1001.69,-69.72 987.5,-55 956.47,-22.8 825.76,-13.9 757.47,-11.44"/>
<polygon fill="#63b8ff" stroke="#63b8ff" points="757.57,-7.94 747.46,-11.11 757.34,-14.94 757.57,-7.94"/>
</a>
</g>
</g>
<!-- Node24&#45;&gt;Node20 -->
<g id="edge40_Node000024_Node000020" class="edge">
<title>Node24&#45;&gt;Node20</title>
<g id="a_edge40_Node000024_Node000020"><a xlink:title=" ">
<path fill="none" stroke="#63b8ff" d="M903.7,-164.98C894.68,-157.15 881.09,-145.34 870.18,-135.86"/>
<polygon fill="#63b8ff" stroke="#63b8ff" points="872.32,-133.09 862.48,-129.17 867.73,-138.37 872.32,-133.09"/>
</a>
</g>
</g>
<!-- Node24&#45;&gt;Node21 -->
<g id="edge42_Node000024_Node000021" class="edge">
<title>Node24&#45;&gt;Node21</title>
<g id="a_edge42_Node000024_Node000021"><a xlink:title=" ">
<path fill="none" stroke="#63b8ff" d="M914.73,-164.66C917.16,-147.17 922.62,-107.8 925.89,-84.27"/>
<polygon fill="#63b8ff" stroke="#63b8ff" points="929.39,-84.54 927.3,-74.16 922.45,-83.58 929.39,-84.54"/>
</a>
</g>
</g>
<!-- Node24&#45;&gt;Node23 -->
<g id="edge41_Node000024_Node000023" class="edge">
<title>Node24&#45;&gt;Node23</title>
<g id="a_edge41_Node000024_Node000023"><a xlink:title=" ">
<path fill="none" stroke="#63b8ff" d="M926.67,-164.98C939.27,-156.84 958.5,-144.41 973.44,-134.76"/>
<polygon fill="#63b8ff" stroke="#63b8ff" points="975.59,-137.54 982.09,-129.17 971.79,-131.66 975.59,-137.54"/>
</a>
</g>
</g>
<!-- Node25&#45;&gt;Node19 -->
<g id="edge44_Node000025_Node000019" class="edge">
<title>Node25&#45;&gt;Node19</title>
<g id="a_edge44_Node000025_Node000019"><a xlink:title=" ">
<path fill="none" stroke="#63b8ff" d="M687.63,-184.09C694.23,-191.29 702.01,-201.82 707.56,-210.82"/>
<polygon fill="#63b8ff" stroke="#63b8ff" points="704.62,-212.73 712.56,-219.75 710.73,-209.31 704.62,-212.73"/>
</a>
</g>
</g>
<!-- Node26&#45;&gt;Node2 -->
<g id="edge46_Node000026_Node000002" class="edge">
<title>Node26&#45;&gt;Node2</title>
<g id="a_edge46_Node000026_Node000002"><a xlink:title=" ">
<path fill="none" stroke="#63b8ff" d="M726.52,-109.66C724.57,-92.17 720.2,-52.8 717.59,-29.27"/>
<polygon fill="#63b8ff" stroke="#63b8ff" points="721.05,-28.71 716.46,-19.16 714.09,-29.48 721.05,-28.71"/>
</a>
</g>
</g>
<!-- Node26&#45;&gt;Node5 -->
<g id="edge47_Node000026_Node000005" class="edge">
<title>Node26&#45;&gt;Node5</title>
<g id="a_edge47_Node000026_Node000005"><a xlink:title=" ">
<path fill="none" stroke="#63b8ff" d="M714.65,-109.98C702.36,-101.84 683.59,-89.41 669.02,-79.76"/>
<polygon fill="#63b8ff" stroke="#63b8ff" points="670.86,-76.78 660.59,-74.17 666.99,-82.61 670.86,-76.78"/>
</a>
</g>
</g>
<!-- Node27&#45;&gt;Node2 -->
<g id="edge51_Node000027_Node000002" class="edge">
<title>Node27&#45;&gt;Node2</title>
<g id="a_edge51_Node000027_Node000002"><a xlink:title=" ">
<path fill="none" stroke="#63b8ff" d="M1168.58,-164.93C1199.79,-154.25 1242.47,-134.38 1223.5,-110 1166.29,-36.48 868.59,-16.78 757.43,-11.95"/>
<polygon fill="#63b8ff" stroke="#63b8ff" points="757.4,-8.45 747.27,-11.53 757.11,-15.44 757.4,-8.45"/>
</a>
</g>
</g>
<!-- Node28 -->
<g id="Node000028" class="node">
<title>Node28</title>
<g id="a_Node000028"><a xlink:title=" ">
<polygon fill="#e0e0e0" stroke="#999999" points="1214.5,-129 1090.5,-129 1090.5,-110 1214.5,-110 1214.5,-129"/>
<text text-anchor="middle" x="1152.5" y="-117" font-family="Helvetica,sans-Serif" font-size="10.00">Arduino_LED_Matrix.h</text>
</a>
</g>
</g>
<!-- Node27&#45;&gt;Node28 -->
<g id="edge52_Node000027_Node000028" class="edge">
<title>Node27&#45;&gt;Node28</title>
<g id="a_edge52_Node000027_Node000028"><a xlink:title=" ">
<path fill="none" stroke="#63b8ff" d="M1141.65,-164.75C1143.37,-157.72 1145.85,-147.62 1148,-138.84"/>
<polygon fill="#63b8ff" stroke="#63b8ff" points="1151.41,-139.63 1150.39,-129.09 1144.61,-137.97 1151.41,-139.63"/>
</a>
</g>
</g>
</g>
</svg>

<g id="navigator" transform="translate(0 0)" fill="#404254">
  <rect fill="#f2f5e9" fill-opacity="0.5" stroke="#606060" stroke-width=".5" x="0" y="0" width="60" height="60"/>
  <use id="zoomplus" xlink:href="#zoomPlus" x="17" y="9" onmousedown="handleZoom(evt,'in')"/>
  <use id="zoomminus" xlink:href="#zoomMin" x="42" y="9" onmousedown="handleZoom(evt,'out')"/>
  <use id="reset" xlink:href="#resetDef" x="30" y="36" onmousedown="handleReset()"/>
   <use id="arrowup" xlink:href="#arrowUp" x="0" y="0" onmousedown="handlePan(0,-1)"/>
  <use id="arrowright" xlink:href="#arrowRight" x="0" y="0" onmousedown="handlePan(1,0)"/>
  <use id="arrowdown" xlink:href="#arrowDown" x="0" y="0" onmousedown="handlePan(0,1)"/>
  <use id="arrowleft" xlink:href="#arrowLeft" x="0" y="0" onmousedown="handlePan(-1,0)"/>
</g>
<svg viewBox="0 0 15 15" width="100%" height="30px" preserveAspectRatio="xMaxYMin meet">
 <g id="arrow_out" transform="scale(0.3 0.3)">
  <a xlink:href="BuggySoftware_8ino__incl_org.svg" target="_base">
   <rect id="button" ry="5" rx="5" y="6" x="6" height="38" width="38"
        fill="#f2f5e9" fill-opacity="0.5" stroke="#606060" stroke-width="1.0"/>
   <path id="arrow"
     d="M 11.500037,31.436501 C 11.940474,20.09759 22.043105,11.32322 32.158766,21.979434 L 37.068811,17.246167 C 37.068811,17.246167 37.088388,32 37.088388,32 L 22.160133,31.978069 C 22.160133,31.978069 26.997745,27.140456 26.997745,27.140456 C 18.528582,18.264221 13.291696,25.230495 11.500037,31.436501 z"
     style="fill:#404040;"/>
  </a>
 </g>
</svg>

<style type='text/css'>
<![CDATA[
[data-mouse-over-selected='false'] { opacity: 0.7; }
[data-mouse-over-selected='true']  { opacity: 1.0; }
]]>
</style>
<script type="application/ecmascript"><![CDATA[
document.addEventListener('DOMContentLoaded', (event) => {
  highlightEdges();
  highlightAdjacentNodes();
});
]]></script>
</svg>
