<?xml version="1.0" encoding="UTF-8" standalone="no"?>
<!DOCTYPE svg PUBLIC "-//W3C//DTD SVG 1.1//EN"
 "http://www.w3.org/Graphics/SVG/1.1/DTD/svg11.dtd">
<!-- Generated by graphviz version 2.43.0 (0)
 -->
<!-- Title: BuggySoftware/BuggySoftware.ino Pages: 1 -->
<svg width="1502pt" height="412pt"
 viewBox="0.00 0.00 1502.00 412.00" xmlns="http://www.w3.org/2000/svg" xmlns:xlink="http://www.w3.org/1999/xlink">
<g id="graph0" class="graph" transform="scale(1 1) rotate(0) translate(4 408)">
<title>BuggySoftware/BuggySoftware.ino</title>
<!-- Node1 -->
<g id="Node000001" class="node">
<title>Node1</title>
<g id="a_Node000001"><a xlink:title="This is the main entry point for the Buggy software.">
<polygon fill="#999999" stroke="#666666" points="941.5,-404 756.5,-404 756.5,-385 941.5,-385 941.5,-404"/>
<text text-anchor="middle" x="849" y="-392" font-family="Helvetica,sans-Serif" font-size="10.00">BuggySoftware/BuggySoftware.ino</text>
</a>
</g>
</g>
<!-- Node2 -->
<g id="Node000002" class="node">
<title>Node2</title>
<g id="a_Node000002"><a xlink:title=" ">
<polygon fill="#e0e0e0" stroke="#999999" points="712.5,-19 649.5,-19 649.5,0 712.5,0 712.5,-19"/>
<text text-anchor="middle" x="681" y="-7" font-family="Helvetica,sans-Serif" font-size="10.00">Arduino.h</text>
</a>
</g>
</g>
<!-- Node1&#45;&gt;Node2 -->
<g id="edge1_Node000001_Node000002" class="edge">
<title>Node1&#45;&gt;Node2</title>
<g id="a_edge1_Node000001_Node000002"><a xlink:title=" ">
<path fill="none" stroke="#63b8ff" d="M941.56,-391.34C1036.34,-387.58 1187.45,-377.26 1315,-349 1397.41,-330.74 1494,-369.91 1494,-285.5 1494,-285.5 1494,-285.5 1494,-118.5 1494,-39.95 890,-16.57 723.21,-11.62"/>
<polygon fill="#63b8ff" stroke="#63b8ff" points="722.97,-8.11 712.87,-11.32 722.76,-15.1 722.97,-8.11"/>
</a>
</g>
</g>
<!-- Node3 -->
<g id="Node000003" class="node">
<title>Node3</title>
<g id="a_Node000003"><a xlink:href="Timer1_8hpp.html" target="_top" xlink:title="Setup methods for Timer1.">
<polygon fill="white" stroke="#666666" points="131,-349 59,-349 59,-330 131,-330 131,-349"/>
<text text-anchor="middle" x="95" y="-337" font-family="Helvetica,sans-Serif" font-size="10.00">Timer1.hpp</text>
</a>
</g>
</g>
<!-- Node1&#45;&gt;Node3 -->
<g id="edge2_Node000001_Node000003" class="edge">
<title>Node1&#45;&gt;Node3</title>
<g id="a_edge2_Node000001_Node000003"><a xlink:title=" ">
<path fill="none" stroke="#63b8ff" d="M756.35,-389.18C624.57,-382.65 375.5,-368.88 164,-349 156.65,-348.31 148.87,-347.46 141.28,-346.57"/>
<polygon fill="#63b8ff" stroke="#63b8ff" points="141.47,-343.07 131.13,-345.35 140.63,-350.02 141.47,-343.07"/>
</a>
</g>
</g>
<!-- Node5 -->
<g id="Node000005" class="node">
<title>Node5</title>
<g id="a_Node000005"><a xlink:href="PinSetup_8hpp_source.html" target="_top" xlink:title=" ">
<polygon fill="white" stroke="#666666" points="886,-129 806,-129 806,-110 886,-110 886,-129"/>
<text text-anchor="middle" x="846" y="-117" font-family="Helvetica,sans-Serif" font-size="10.00">PinSetup.hpp</text>
</a>
</g>
</g>
<!-- Node1&#45;&gt;Node5 -->
<g id="edge4_Node000001_Node000005" class="edge">
<title>Node1&#45;&gt;Node5</title>
<g id="a_edge4_Node000001_Node000005"><a xlink:title=" ">
<path fill="none" stroke="#63b8ff" d="M824.06,-384.94C745.37,-356.65 512.24,-262.46 594,-165 594.41,-164.51 722.53,-142.07 795.9,-129.24"/>
<polygon fill="#63b8ff" stroke="#63b8ff" points="796.62,-132.67 805.87,-127.5 795.42,-125.78 796.62,-132.67"/>
</a>
</g>
</g>
<!-- Node6 -->
<g id="Node000006" class="node">
<title>Node6</title>
<g id="a_Node000006"><a xlink:href="EmbeddedLogger_8hpp.html" target="_top" xlink:title=" ">
<polygon fill="white" stroke="#666666" points="154,-74 32,-74 32,-55 154,-55 154,-74"/>
<text text-anchor="middle" x="93" y="-62" font-family="Helvetica,sans-Serif" font-size="10.00">EmbeddedLogger.hpp</text>
</a>
</g>
</g>
<!-- Node1&#45;&gt;Node6 -->
<g id="edge6_Node000001_Node000006" class="edge">
<title>Node1&#45;&gt;Node6</title>
<g id="a_edge6_Node000001_Node000006"><a xlink:title=" ">
<path fill="none" stroke="#63b8ff" d="M756.18,-392.6C558.98,-390.07 111.24,-380.86 50,-349 18.13,-332.42 0,-321.42 0,-285.5 0,-285.5 0,-285.5 0,-173.5 0,-131.48 40.92,-97.69 68.47,-79.7"/>
<polygon fill="#63b8ff" stroke="#63b8ff" points="70.61,-82.49 77.22,-74.21 66.89,-76.56 70.61,-82.49"/>
</a>
</g>
</g>
<!-- Node9 -->
<g id="Node000009" class="node">
<title>Node9</title>
<g id="a_Node000009"><a xlink:href="SerialWirelessLogger_8hpp_source.html" target="_top" xlink:title=" ">
<polygon fill="white" stroke="#666666" points="394,-294 254,-294 254,-275 394,-275 394,-294"/>
<text text-anchor="middle" x="324" y="-282" font-family="Helvetica,sans-Serif" font-size="10.00">SerialWirelessLogger.hpp</text>
</a>
</g>
</g>
<!-- Node1&#45;&gt;Node9 -->
<g id="edge10_Node000001_Node000009" class="edge">
<title>Node1&#45;&gt;Node9</title>
<g id="a_edge10_Node000001_Node000009"><a xlink:title=" ">
<path fill="none" stroke="#63b8ff" d="M756.26,-385.25C690.37,-378.33 600.09,-366.69 522,-349 462.21,-335.45 394.61,-311.94 355.88,-297.64"/>
<polygon fill="#63b8ff" stroke="#63b8ff" points="356.8,-294.25 346.21,-294.04 354.36,-300.81 356.8,-294.25"/>
</a>
</g>
</g>
<!-- Node18 -->
<g id="Node000018" class="node">
<title>Node18</title>
<g id="a_Node000018"><a xlink:href="PacketFactory_8hpp_source.html" target="_top" xlink:title=" ">
<polygon fill="white" stroke="#666666" points="354.5,-184 251.5,-184 251.5,-165 354.5,-165 354.5,-184"/>
<text text-anchor="middle" x="303" y="-172" font-family="Helvetica,sans-Serif" font-size="10.00">PacketFactory.hpp</text>
</a>
</g>
</g>
<!-- Node1&#45;&gt;Node18 -->
<g id="edge71_Node000001_Node000018" class="edge">
<title>Node1&#45;&gt;Node18</title>
<g id="a_edge71_Node000001_Node000018"><a xlink:title=" ">
<path fill="none" stroke="#63b8ff" d="M756.44,-386.92C608.97,-375.02 328.78,-346.18 245,-294 211.73,-273.27 175.3,-252.65 197,-220 207.53,-204.15 224.93,-193.94 242.6,-187.36"/>
<polygon fill="#63b8ff" stroke="#63b8ff" points="244.05,-190.56 252.41,-184.06 241.82,-183.93 244.05,-190.56"/>
</a>
</g>
</g>
<!-- Node19 -->
<g id="Node000019" class="node">
<title>Node19</title>
<g id="a_Node000019"><a xlink:href="Buggy_8hpp_source.html" target="_top" xlink:title=" ">
<polygon fill="white" stroke="#666666" points="913.5,-349 846.5,-349 846.5,-330 913.5,-330 913.5,-349"/>
<text text-anchor="middle" x="880" y="-337" font-family="Helvetica,sans-Serif" font-size="10.00">Buggy.hpp</text>
</a>
</g>
</g>
<!-- Node1&#45;&gt;Node19 -->
<g id="edge30_Node000001_Node000019" class="edge">
<title>Node1&#45;&gt;Node19</title>
<g id="a_edge30_Node000001_Node000019"><a xlink:title=" ">
<path fill="none" stroke="#63b8ff" d="M854.12,-384.75C858.36,-377.49 864.53,-366.95 869.78,-357.98"/>
<polygon fill="#63b8ff" stroke="#63b8ff" points="872.95,-359.49 874.98,-349.09 866.91,-355.95 872.95,-359.49"/>
</a>
</g>
</g>
<!-- Node21 -->
<g id="Node000021" class="node">
<title>Node21</title>
<g id="a_Node000021"><a xlink:href="PIDController_8hpp_source.html" target="_top" xlink:title=" ">
<polygon fill="white" stroke="#666666" points="1045.5,-129 944.5,-129 944.5,-110 1045.5,-110 1045.5,-129"/>
<text text-anchor="middle" x="995" y="-117" font-family="Helvetica,sans-Serif" font-size="10.00">PIDController.hpp</text>
</a>
</g>
</g>
<!-- Node1&#45;&gt;Node21 -->
<g id="edge70_Node000001_Node000021" class="edge">
<title>Node1&#45;&gt;Node21</title>
<g id="a_edge70_Node000001_Node000021"><a xlink:title=" ">
<path fill="none" stroke="#63b8ff" d="M941.95,-389.17C1049.15,-383.25 1218.3,-370.79 1278,-349 1346.27,-324.08 1376.52,-308.12 1399,-239 1417.22,-182.97 1345.17,-182.8 1289,-165 1210.73,-140.19 1116.23,-129.03 1055.89,-124.14"/>
<polygon fill="#63b8ff" stroke="#63b8ff" points="1056.01,-120.64 1045.76,-123.35 1055.46,-127.62 1056.01,-120.64"/>
</a>
</g>
</g>
<!-- Node27 -->
<g id="Node000027" class="node">
<title>Node27</title>
<g id="a_Node000027"><a xlink:href="Matrix_8hpp_source.html" target="_top" xlink:title=" ">
<polygon fill="white" stroke="#666666" points="1349.5,-294 1280.5,-294 1280.5,-275 1349.5,-275 1349.5,-294"/>
<text text-anchor="middle" x="1315" y="-282" font-family="Helvetica,sans-Serif" font-size="10.00">Matrix.hpp</text>
</a>
</g>
</g>
<!-- Node1&#45;&gt;Node27 -->
<g id="edge72_Node000001_Node000027" class="edge">
<title>Node1&#45;&gt;Node27</title>
<g id="a_edge72_Node000001_Node000027"><a xlink:title=" ">
<path fill="none" stroke="#63b8ff" d="M941.61,-390.39C1043.23,-385.73 1198.99,-374.59 1252,-349 1273.54,-338.6 1291.97,-317.73 1303.23,-302.75"/>
<polygon fill="#63b8ff" stroke="#63b8ff" points="1306.29,-304.49 1309.28,-294.33 1300.6,-300.41 1306.29,-304.49"/>
</a>
</g>
</g>
<!-- Node29 -->
<g id="Node000029" class="node">
<title>Node29</title>
<g id="a_Node000029"><a xlink:href="CruiseControl_8hpp_source.html" target="_top" xlink:title=" ">
<polygon fill="white" stroke="#666666" points="814,-294 710,-294 710,-275 814,-275 814,-294"/>
<text text-anchor="middle" x="762" y="-282" font-family="Helvetica,sans-Serif" font-size="10.00">CruiseControl.hpp</text>
</a>
</g>
</g>
<!-- Node1&#45;&gt;Node29 -->
<g id="edge73_Node000001_Node000029" class="edge">
<title>Node1&#45;&gt;Node29</title>
<g id="a_edge73_Node000001_Node000029"><a xlink:title=" ">
<path fill="none" stroke="#63b8ff" d="M841.88,-384.66C827.34,-366.61 794.04,-325.28 775.35,-302.08"/>
<polygon fill="#63b8ff" stroke="#63b8ff" points="777.97,-299.75 768.97,-294.16 772.52,-304.14 777.97,-299.75"/>
</a>
</g>
</g>
<!-- Node30 -->
<g id="Node000030" class="node">
<title>Node30</title>
<g id="a_Node000030"><a xlink:href="Camera_8hpp_source.html" target="_top" xlink:title=" ">
<polygon fill="white" stroke="#666666" points="1210,-239 1134,-239 1134,-220 1210,-220 1210,-239"/>
<text text-anchor="middle" x="1172" y="-227" font-family="Helvetica,sans-Serif" font-size="10.00">Camera.hpp</text>
</a>
</g>
</g>
<!-- Node1&#45;&gt;Node30 -->
<g id="edge74_Node000001_Node000030" class="edge">
<title>Node1&#45;&gt;Node30</title>
<g id="a_edge74_Node000001_Node000030"><a xlink:title=" ">
<path fill="none" stroke="#63b8ff" d="M941.74,-388.88C1012.33,-380.22 1106.37,-356.69 1161,-294 1171.57,-281.87 1173.73,-263.34 1173.6,-249.43"/>
<polygon fill="#63b8ff" stroke="#63b8ff" points="1177.08,-248.87 1173.09,-239.06 1170.09,-249.22 1177.08,-248.87"/>
</a>
</g>
</g>
<!-- Node31 -->
<g id="Node000031" class="node">
<title>Node31</title>
<g id="a_Node000031"><a xlink:title=" ">
<polygon fill="#e0e0e0" stroke="#999999" points="1279.5,-184 1196.5,-184 1196.5,-165 1279.5,-165 1279.5,-184"/>
<text text-anchor="middle" x="1238" y="-172" font-family="Helvetica,sans-Serif" font-size="10.00">HUSKYLENS.h</text>
</a>
</g>
</g>
<!-- Node1&#45;&gt;Node31 -->
<g id="edge75_Node000001_Node000031" class="edge">
<title>Node1&#45;&gt;Node31</title>
<g id="a_edge75_Node000001_Node000031"><a xlink:title=" ">
<path fill="none" stroke="#63b8ff" d="M941.73,-391.3C995.76,-386.89 1063.89,-375.8 1119,-349 1178.42,-320.1 1189.68,-298.21 1219,-239 1226.11,-224.64 1231.1,-207.12 1234.18,-194.12"/>
<polygon fill="#63b8ff" stroke="#63b8ff" points="1237.67,-194.58 1236.4,-184.06 1230.83,-193.07 1237.67,-194.58"/>
</a>
</g>
</g>
<!-- Node4 -->
<g id="Node000004" class="node">
<title>Node4</title>
<g id="a_Node000004"><a xlink:title=" ">
<polygon fill="#e0e0e0" stroke="#999999" points="99.5,-294 28.5,-294 28.5,-275 99.5,-275 99.5,-294"/>
<text text-anchor="middle" x="64" y="-282" font-family="Helvetica,sans-Serif" font-size="10.00">FspTimer.h</text>
</a>
</g>
</g>
<!-- Node3&#45;&gt;Node4 -->
<g id="edge3_Node000003_Node000004" class="edge">
<title>Node3&#45;&gt;Node4</title>
<g id="a_edge3_Node000003_Node000004"><a xlink:title=" ">
<path fill="none" stroke="#63b8ff" d="M89.88,-329.75C85.64,-322.49 79.47,-311.95 74.22,-302.98"/>
<polygon fill="#63b8ff" stroke="#63b8ff" points="77.09,-300.95 69.02,-294.09 71.05,-304.49 77.09,-300.95"/>
</a>
</g>
</g>
<!-- Node5&#45;&gt;Node2 -->
<g id="edge5_Node000005_Node000002" class="edge">
<title>Node5&#45;&gt;Node2</title>
<g id="a_edge5_Node000005_Node000002"><a xlink:title=" ">
<path fill="none" stroke="#63b8ff" d="M832.78,-109.84C804.42,-91.28 737.51,-47.49 702.78,-24.75"/>
<polygon fill="#63b8ff" stroke="#63b8ff" points="704.57,-21.74 694.29,-19.2 700.74,-27.6 704.57,-21.74"/>
</a>
</g>
</g>
<!-- Node6&#45;&gt;Node2 -->
<g id="edge9_Node000006_Node000002" class="edge">
<title>Node6&#45;&gt;Node2</title>
<g id="a_edge9_Node000006_Node000002"><a xlink:title=" ">
<path fill="none" stroke="#63b8ff" d="M154.06,-57.54C163.09,-56.68 172.29,-55.81 181,-55 350.93,-39.23 553.47,-21.55 639.29,-14.11"/>
<polygon fill="#63b8ff" stroke="#63b8ff" points="639.74,-17.58 649.4,-13.23 639.14,-10.61 639.74,-17.58"/>
</a>
</g>
</g>
<!-- Node7 -->
<g id="Node000007" class="node">
<title>Node7</title>
<g id="a_Node000007"><a xlink:title=" ">
<polygon fill="#e0e0e0" stroke="#999999" points="83.5,-19 30.5,-19 30.5,0 83.5,0 83.5,-19"/>
<text text-anchor="middle" x="57" y="-7" font-family="Helvetica,sans-Serif" font-size="10.00">stdint.h</text>
</a>
</g>
</g>
<!-- Node6&#45;&gt;Node7 -->
<g id="edge7_Node000006_Node000007" class="edge">
<title>Node6&#45;&gt;Node7</title>
<g id="a_edge7_Node000006_Node000007"><a xlink:title=" ">
<path fill="none" stroke="#63b8ff" d="M87.06,-54.75C82.02,-47.34 74.66,-36.5 68.49,-27.41"/>
<polygon fill="#63b8ff" stroke="#63b8ff" points="71.35,-25.39 62.83,-19.09 65.56,-29.33 71.35,-25.39"/>
</a>
</g>
</g>
<!-- Node8 -->
<g id="Node000008" class="node">
<title>Node8</title>
<g id="a_Node000008"><a xlink:title=" ">
<polygon fill="#e0e0e0" stroke="#999999" points="158,-19 102,-19 102,0 158,0 158,-19"/>
<text text-anchor="middle" x="130" y="-7" font-family="Helvetica,sans-Serif" font-size="10.00">stddef.h</text>
</a>
</g>
</g>
<!-- Node6&#45;&gt;Node8 -->
<g id="edge8_Node000006_Node000008" class="edge">
<title>Node6&#45;&gt;Node8</title>
<g id="a_edge8_Node000006_Node000008"><a xlink:title=" ">
<path fill="none" stroke="#63b8ff" d="M99.11,-54.75C104.28,-47.34 111.85,-36.5 118.19,-27.41"/>
<polygon fill="#63b8ff" stroke="#63b8ff" points="121.15,-29.29 124,-19.09 115.41,-25.29 121.15,-29.29"/>
</a>
</g>
</g>
<!-- Node9&#45;&gt;Node2 -->
<g id="edge27_Node000009_Node000002" class="edge">
<title>Node9&#45;&gt;Node2</title>
<g id="a_edge27_Node000009_Node000002"><a xlink:title=" ">
<path fill="none" stroke="#63b8ff" d="M343.81,-275C374.73,-260.73 434.29,-229.02 467,-184 502.2,-135.54 462.71,-96.4 506,-55 541.77,-20.79 599.99,-11.85 639.35,-10.02"/>
<polygon fill="#63b8ff" stroke="#63b8ff" points="639.55,-13.52 649.43,-9.69 639.32,-6.52 639.55,-13.52"/>
</a>
</g>
</g>
<!-- Node10 -->
<g id="Node000010" class="node">
<title>Node10</title>
<g id="a_Node000010"><a xlink:href="SerialLogger_8hpp_source.html" target="_top" xlink:title=" ">
<polygon fill="white" stroke="#666666" points="212,-129 114,-129 114,-110 212,-110 212,-129"/>
<text text-anchor="middle" x="163" y="-117" font-family="Helvetica,sans-Serif" font-size="10.00">SerialLogger.hpp</text>
</a>
</g>
</g>
<!-- Node9&#45;&gt;Node10 -->
<g id="edge11_Node000009_Node000010" class="edge">
<title>Node9&#45;&gt;Node10</title>
<g id="a_edge11_Node000009_Node000010"><a xlink:title=" ">
<path fill="none" stroke="#63b8ff" d="M265.06,-274.99C241.04,-268.73 214.8,-257.86 197,-239 171.01,-211.47 164.7,-165.4 163.29,-139.56"/>
<polygon fill="#63b8ff" stroke="#63b8ff" points="166.78,-139.12 162.93,-129.25 159.78,-139.37 166.78,-139.12"/>
</a>
</g>
</g>
<!-- Node11 -->
<g id="Node000011" class="node">
<title>Node11</title>
<g id="a_Node000011"><a xlink:href="WirelessLogger_8hpp_source.html" target="_top" xlink:title=" ">
<polygon fill="white" stroke="#666666" points="318,-239 206,-239 206,-220 318,-220 318,-239"/>
<text text-anchor="middle" x="262" y="-227" font-family="Helvetica,sans-Serif" font-size="10.00">WirelessLogger.hpp</text>
</a>
</g>
</g>
<!-- Node9&#45;&gt;Node11 -->
<g id="edge14_Node000009_Node000011" class="edge">
<title>Node9&#45;&gt;Node11</title>
<g id="a_edge14_Node000009_Node000011"><a xlink:title=" ">
<path fill="none" stroke="#63b8ff" d="M314.04,-274.98C304.87,-267.15 291.06,-255.34 279.97,-245.86"/>
<polygon fill="#63b8ff" stroke="#63b8ff" points="282.02,-243.01 272.14,-239.17 277.47,-248.33 282.02,-243.01"/>
</a>
</g>
</g>
<!-- Node12 -->
<g id="Node000012" class="node">
<title>Node12</title>
<g id="a_Node000012"><a xlink:href="BuggyTCP_8hpp_source.html" target="_top" xlink:title=" ">
<polygon fill="white" stroke="#666666" points="457.5,-184 372.5,-184 372.5,-165 457.5,-165 457.5,-184"/>
<text text-anchor="middle" x="415" y="-172" font-family="Helvetica,sans-Serif" font-size="10.00">BuggyTCP.hpp</text>
</a>
</g>
</g>
<!-- Node9&#45;&gt;Node12 -->
<g id="edge28_Node000009_Node000012" class="edge">
<title>Node9&#45;&gt;Node12</title>
<g id="a_edge28_Node000009_Node000012"><a xlink:title=" ">
<path fill="none" stroke="#63b8ff" d="M331.45,-274.66C346.65,-256.61 381.48,-215.28 401.03,-192.08"/>
<polygon fill="#63b8ff" stroke="#63b8ff" points="403.94,-194.06 407.7,-184.16 398.58,-189.55 403.94,-194.06"/>
</a>
</g>
</g>
<!-- Node9&#45;&gt;Node18 -->
<g id="edge29_Node000009_Node000018" class="edge">
<title>Node9&#45;&gt;Node18</title>
<g id="a_edge29_Node000009_Node000018"><a xlink:title=" ">
<path fill="none" stroke="#63b8ff" d="M326.01,-274.71C328.48,-262.31 331.81,-239.05 327,-220 324.59,-210.44 319.67,-200.7 314.91,-192.78"/>
<polygon fill="#63b8ff" stroke="#63b8ff" points="317.72,-190.68 309.37,-184.16 311.83,-194.46 317.72,-190.68"/>
</a>
</g>
</g>
<!-- Node10&#45;&gt;Node2 -->
<g id="edge13_Node000010_Node000002" class="edge">
<title>Node10&#45;&gt;Node2</title>
<g id="a_edge13_Node000010_Node000002"><a xlink:title=" ">
<path fill="none" stroke="#63b8ff" d="M168.7,-109.63C178.47,-95.3 199.91,-67.39 226,-55 298.63,-20.5 541.32,-12.74 639.37,-11"/>
<polygon fill="#63b8ff" stroke="#63b8ff" points="639.56,-14.5 649.5,-10.83 639.44,-7.5 639.56,-14.5"/>
</a>
</g>
</g>
<!-- Node10&#45;&gt;Node6 -->
<g id="edge12_Node000010_Node000006" class="edge">
<title>Node10&#45;&gt;Node6</title>
<g id="a_edge12_Node000010_Node000006"><a xlink:title=" ">
<path fill="none" stroke="#63b8ff" d="M151.75,-109.98C141.2,-102 125.2,-89.88 112.56,-80.31"/>
<polygon fill="#63b8ff" stroke="#63b8ff" points="114.54,-77.42 104.45,-74.17 110.31,-83 114.54,-77.42"/>
</a>
</g>
</g>
<!-- Node11&#45;&gt;Node2 -->
<g id="edge16_Node000011_Node000002" class="edge">
<title>Node11&#45;&gt;Node2</title>
<g id="a_edge16_Node000011_Node000002"><a xlink:title=" ">
<path fill="none" stroke="#63b8ff" d="M255.7,-219.82C247.59,-207.55 235.3,-184.45 242,-165 262.21,-106.33 274.03,-85.64 328,-55 380.31,-25.3 557.33,-15.04 639.04,-11.82"/>
<polygon fill="#63b8ff" stroke="#63b8ff" points="639.59,-15.31 649.45,-11.43 639.32,-8.31 639.59,-15.31"/>
</a>
</g>
</g>
<!-- Node11&#45;&gt;Node6 -->
<g id="edge15_Node000011_Node000006" class="edge">
<title>Node11&#45;&gt;Node6</title>
<g id="a_edge15_Node000011_Node000006"><a xlink:title=" ">
<path fill="none" stroke="#63b8ff" d="M237.03,-219.99C201.63,-206.56 137.53,-176.93 105,-129 96.04,-115.8 93.33,-97.67 92.69,-84.17"/>
<polygon fill="#63b8ff" stroke="#63b8ff" points="96.19,-84.07 92.55,-74.12 89.19,-84.16 96.19,-84.07"/>
</a>
</g>
</g>
<!-- Node11&#45;&gt;Node12 -->
<g id="edge17_Node000011_Node000012" class="edge">
<title>Node11&#45;&gt;Node12</title>
<g id="a_edge17_Node000011_Node000012"><a xlink:title=" ">
<path fill="none" stroke="#63b8ff" d="M286.58,-219.98C312.05,-211.16 352.04,-197.31 380.63,-187.41"/>
<polygon fill="#63b8ff" stroke="#63b8ff" points="381.92,-190.66 390.23,-184.08 379.63,-184.05 381.92,-190.66"/>
</a>
</g>
</g>
<!-- Node11&#45;&gt;Node18 -->
<g id="edge25_Node000011_Node000018" class="edge">
<title>Node11&#45;&gt;Node18</title>
<g id="a_edge25_Node000011_Node000018"><a xlink:title=" ">
<path fill="none" stroke="#63b8ff" d="M268.77,-219.75C274.56,-212.26 283.06,-201.28 290.14,-192.13"/>
<polygon fill="#63b8ff" stroke="#63b8ff" points="293.01,-194.14 296.36,-184.09 287.47,-189.86 293.01,-194.14"/>
</a>
</g>
</g>
<!-- Node13 -->
<g id="Node000013" class="node">
<title>Node13</title>
<g id="a_Node000013"><a xlink:href="BuggyWifi_8hpp_source.html" target="_top" xlink:title=" ">
<polygon fill="white" stroke="#666666" points="601.5,-129 514.5,-129 514.5,-110 601.5,-110 601.5,-129"/>
<text text-anchor="middle" x="558" y="-117" font-family="Helvetica,sans-Serif" font-size="10.00">BuggyWifi.hpp</text>
</a>
</g>
</g>
<!-- Node12&#45;&gt;Node13 -->
<g id="edge18_Node000012_Node000013" class="edge">
<title>Node12&#45;&gt;Node13</title>
<g id="a_edge18_Node000012_Node000013"><a xlink:title=" ">
<path fill="none" stroke="#63b8ff" d="M437.98,-164.98C461.5,-156.27 498.29,-142.63 524.94,-132.75"/>
<polygon fill="#63b8ff" stroke="#63b8ff" points="526.45,-135.93 534.61,-129.17 524.01,-129.36 526.45,-135.93"/>
</a>
</g>
</g>
<!-- Node16 -->
<g id="Node000016" class="node">
<title>Node16</title>
<g id="a_Node000016"><a xlink:href="PacketTypes_8hpp_source.html" target="_top" xlink:title=" ">
<polygon fill="white" stroke="#666666" points="434.5,-74 337.5,-74 337.5,-55 434.5,-55 434.5,-74"/>
<text text-anchor="middle" x="386" y="-62" font-family="Helvetica,sans-Serif" font-size="10.00">PacketTypes.hpp</text>
</a>
</g>
</g>
<!-- Node12&#45;&gt;Node16 -->
<g id="edge21_Node000012_Node000016" class="edge">
<title>Node12&#45;&gt;Node16</title>
<g id="a_edge21_Node000012_Node000016"><a xlink:title=" ">
<path fill="none" stroke="#63b8ff" d="M420.2,-164.6C426.82,-152.05 436.53,-128.63 429,-110 424.31,-98.41 415,-88.16 406.24,-80.43"/>
<polygon fill="#63b8ff" stroke="#63b8ff" points="408.44,-77.71 398.49,-74.07 404,-83.12 408.44,-77.71"/>
</a>
</g>
</g>
<!-- Node17 -->
<g id="Node000017" class="node">
<title>Node17</title>
<g id="a_Node000017"><a xlink:href="PacketSerializer_8hpp_source.html" target="_top" xlink:title=" ">
<polygon fill="white" stroke="#666666" points="420,-129 306,-129 306,-110 420,-110 420,-129"/>
<text text-anchor="middle" x="363" y="-117" font-family="Helvetica,sans-Serif" font-size="10.00">PacketSerializer.hpp</text>
</a>
</g>
</g>
<!-- Node12&#45;&gt;Node17 -->
<g id="edge23_Node000012_Node000017" class="edge">
<title>Node12&#45;&gt;Node17</title>
<g id="a_edge23_Node000012_Node000017"><a xlink:title=" ">
<path fill="none" stroke="#63b8ff" d="M406.41,-164.75C398.84,-157.03 387.62,-145.6 378.49,-136.28"/>
<polygon fill="#63b8ff" stroke="#63b8ff" points="380.93,-133.78 371.43,-129.09 375.93,-138.68 380.93,-133.78"/>
</a>
</g>
</g>
<!-- Node14 -->
<g id="Node000014" class="node">
<title>Node14</title>
<g id="a_Node000014"><a xlink:title=" ">
<polygon fill="#e0e0e0" stroke="#999999" points="573.5,-74 514.5,-74 514.5,-55 573.5,-55 573.5,-74"/>
<text text-anchor="middle" x="544" y="-62" font-family="Helvetica,sans-Serif" font-size="10.00">WiFiS3.h</text>
</a>
</g>
</g>
<!-- Node13&#45;&gt;Node14 -->
<g id="edge19_Node000013_Node000014" class="edge">
<title>Node13&#45;&gt;Node14</title>
<g id="a_edge19_Node000013_Node000014"><a xlink:title=" ">
<path fill="none" stroke="#63b8ff" d="M555.69,-109.75C553.83,-102.72 551.16,-92.62 548.85,-83.84"/>
<polygon fill="#63b8ff" stroke="#63b8ff" points="552.21,-82.86 546.27,-74.09 545.44,-84.65 552.21,-82.86"/>
</a>
</g>
</g>
<!-- Node15 -->
<g id="Node000015" class="node">
<title>Node15</title>
<g id="a_Node000015"><a xlink:href="secrets_8h_source.html" target="_top" xlink:title=" ">
<polygon fill="white" stroke="#666666" points="652.5,-74 591.5,-74 591.5,-55 652.5,-55 652.5,-74"/>
<text text-anchor="middle" x="622" y="-62" font-family="Helvetica,sans-Serif" font-size="10.00">secrets.h</text>
</a>
</g>
</g>
<!-- Node13&#45;&gt;Node15 -->
<g id="edge20_Node000013_Node000015" class="edge">
<title>Node13&#45;&gt;Node15</title>
<g id="a_edge20_Node000013_Node000015"><a xlink:title=" ">
<path fill="none" stroke="#63b8ff" d="M568.28,-109.98C577.84,-102.07 592.28,-90.11 603.78,-80.58"/>
<polygon fill="#63b8ff" stroke="#63b8ff" points="606.06,-83.24 611.53,-74.17 601.6,-77.85 606.06,-83.24"/>
</a>
</g>
</g>
<!-- Node16&#45;&gt;Node2 -->
<g id="edge22_Node000016_Node000002" class="edge">
<title>Node16&#45;&gt;Node2</title>
<g id="a_edge22_Node000016_Node000002"><a xlink:title=" ">
<path fill="none" stroke="#63b8ff" d="M433.4,-54.98C490.32,-44.76 584.89,-27.77 639.2,-18.01"/>
<polygon fill="#63b8ff" stroke="#63b8ff" points="639.95,-21.43 649.18,-16.22 638.71,-14.54 639.95,-21.43"/>
</a>
</g>
</g>
<!-- Node17&#45;&gt;Node16 -->
<g id="edge24_Node000017_Node000016" class="edge">
<title>Node17&#45;&gt;Node16</title>
<g id="a_edge24_Node000017_Node000016"><a xlink:title=" ">
<path fill="none" stroke="#63b8ff" d="M366.8,-109.75C369.91,-102.57 374.42,-92.18 378.29,-83.27"/>
<polygon fill="#63b8ff" stroke="#63b8ff" points="381.5,-84.66 382.27,-74.09 375.08,-81.87 381.5,-84.66"/>
</a>
</g>
</g>
<!-- Node18&#45;&gt;Node16 -->
<g id="edge26_Node000018_Node000016" class="edge">
<title>Node18&#45;&gt;Node16</title>
<g id="a_edge26_Node000018_Node000016"><a xlink:title=" ">
<path fill="none" stroke="#63b8ff" d="M299.13,-164.95C293.91,-152.01 286.4,-127.14 297,-110 306.49,-94.64 323.06,-84.41 339.35,-77.68"/>
<polygon fill="#63b8ff" stroke="#63b8ff" points="340.73,-80.9 348.85,-74.1 338.26,-74.35 340.73,-80.9"/>
</a>
</g>
</g>
<!-- Node19&#45;&gt;Node5 -->
<g id="edge41_Node000019_Node000005" class="edge">
<title>Node19&#45;&gt;Node5</title>
<g id="a_edge41_Node000019_Node000005"><a xlink:title=" ">
<path fill="none" stroke="#63b8ff" d="M887.82,-329.94C910.9,-303.6 974.96,-222.07 939,-165 929.27,-149.56 912.53,-139.35 895.91,-132.67"/>
<polygon fill="#63b8ff" stroke="#63b8ff" points="896.79,-129.26 886.2,-129.13 894.39,-135.84 896.79,-129.26"/>
</a>
</g>
</g>
<!-- Node19&#45;&gt;Node6 -->
<g id="edge53_Node000019_Node000006" class="edge">
<title>Node19&#45;&gt;Node6</title>
<g id="a_edge53_Node000019_Node000006"><a xlink:title=" ">
<path fill="none" stroke="#63b8ff" d="M846.42,-338.9C731.56,-339.86 355.39,-339.37 245,-294 152.78,-256.1 125.48,-223.27 93,-129 88,-114.49 88.44,-96.98 89.88,-84.03"/>
<polygon fill="#63b8ff" stroke="#63b8ff" points="93.36,-84.4 91.29,-74.01 86.43,-83.42 93.36,-84.4"/>
</a>
</g>
</g>
<!-- Node19&#45;&gt;Node12 -->
<g id="edge38_Node000019_Node000012" class="edge">
<title>Node19&#45;&gt;Node12</title>
<g id="a_edge38_Node000019_Node000012"><a xlink:title=" ">
<path fill="none" stroke="#63b8ff" d="M846.27,-336.12C774.9,-330.72 610.95,-316.25 560,-294 504.62,-269.82 453.21,-218.28 429.21,-191.86"/>
<polygon fill="#63b8ff" stroke="#63b8ff" points="431.68,-189.36 422.41,-184.23 426.45,-194.02 431.68,-189.36"/>
</a>
</g>
</g>
<!-- Node19&#45;&gt;Node13 -->
<g id="edge37_Node000019_Node000013" class="edge">
<title>Node19&#45;&gt;Node13</title>
<g id="a_edge37_Node000019_Node000013"><a xlink:title=" ">
<path fill="none" stroke="#63b8ff" d="M846.41,-337.93C804.22,-335.75 731.06,-327.03 679,-294 618.58,-255.67 580.04,-175.18 565.07,-138.91"/>
<polygon fill="#63b8ff" stroke="#63b8ff" points="568.14,-137.16 561.19,-129.17 561.64,-139.76 568.14,-137.16"/>
</a>
</g>
</g>
<!-- Node19&#45;&gt;Node18 -->
<g id="edge52_Node000019_Node000018" class="edge">
<title>Node19&#45;&gt;Node18</title>
<g id="a_edge52_Node000019_Node000018"><a xlink:title=" ">
<path fill="none" stroke="#63b8ff" d="M846.39,-338.4C782.06,-337.32 637.69,-330.62 523,-294 444.52,-268.94 361.41,-215.85 323.73,-190.11"/>
<polygon fill="#63b8ff" stroke="#63b8ff" points="325.37,-186.99 315.16,-184.18 321.39,-192.75 325.37,-186.99"/>
</a>
</g>
</g>
<!-- Node20 -->
<g id="Node000020" class="node">
<title>Node20</title>
<g id="a_Node000020"><a xlink:href="MotorDriver_8hpp_source.html" target="_top" xlink:title=" ">
<polygon fill="white" stroke="#666666" points="792.5,-184 697.5,-184 697.5,-165 792.5,-165 792.5,-184"/>
<text text-anchor="middle" x="745" y="-172" font-family="Helvetica,sans-Serif" font-size="10.00">MotorDriver.hpp</text>
</a>
</g>
</g>
<!-- Node19&#45;&gt;Node20 -->
<g id="edge31_Node000019_Node000020" class="edge">
<title>Node19&#45;&gt;Node20</title>
<g id="a_edge31_Node000019_Node000020"><a xlink:title=" ">
<path fill="none" stroke="#63b8ff" d="M881.28,-329.9C883.95,-308.66 887.78,-253 861,-220 846.44,-202.06 823.76,-191.35 802.31,-184.95"/>
<polygon fill="#63b8ff" stroke="#63b8ff" points="803.13,-181.54 792.57,-182.3 801.3,-188.3 803.13,-181.54"/>
</a>
</g>
</g>
<!-- Node23 -->
<g id="Node000023" class="node">
<title>Node23</title>
<g id="a_Node000023"><a xlink:href="IrSensor_8hpp_source.html" target="_top" xlink:title=" ">
<polygon fill="white" stroke="#666666" points="679.5,-184 602.5,-184 602.5,-165 679.5,-165 679.5,-184"/>
<text text-anchor="middle" x="641" y="-172" font-family="Helvetica,sans-Serif" font-size="10.00">IrSensor.hpp</text>
</a>
</g>
</g>
<!-- Node19&#45;&gt;Node23 -->
<g id="edge39_Node000019_Node000023" class="edge">
<title>Node19&#45;&gt;Node23</title>
<g id="a_edge39_Node000019_Node000023"><a xlink:title=" ">
<path fill="none" stroke="#63b8ff" d="M846.35,-338.24C807.39,-336.27 743.2,-327.63 701,-294 668.65,-268.22 652.18,-220.39 645.21,-194.07"/>
<polygon fill="#63b8ff" stroke="#63b8ff" points="648.58,-193.1 642.79,-184.23 641.78,-194.77 648.58,-193.1"/>
</a>
</g>
</g>
<!-- Node24 -->
<g id="Node000024" class="node">
<title>Node24</title>
<g id="a_Node000024"><a xlink:href="LineFollower_8hpp_source.html" target="_top" xlink:title=" ">
<polygon fill="white" stroke="#666666" points="852,-239 754,-239 754,-220 852,-220 852,-239"/>
<text text-anchor="middle" x="803" y="-227" font-family="Helvetica,sans-Serif" font-size="10.00">LineFollower.hpp</text>
</a>
</g>
</g>
<!-- Node19&#45;&gt;Node24 -->
<g id="edge42_Node000019_Node000024" class="edge">
<title>Node19&#45;&gt;Node24</title>
<g id="a_edge42_Node000019_Node000024"><a xlink:title=" ">
<path fill="none" stroke="#63b8ff" d="M873.7,-329.66C860.89,-311.69 831.62,-270.64 815.04,-247.38"/>
<polygon fill="#63b8ff" stroke="#63b8ff" points="817.83,-245.27 809.17,-239.16 812.13,-249.33 817.83,-245.27"/>
</a>
</g>
</g>
<!-- Node25 -->
<g id="Node000025" class="node">
<title>Node25</title>
<g id="a_Node000025"><a xlink:href="BuggyState_8hpp_source.html" target="_top" xlink:title=" ">
<polygon fill="white" stroke="#666666" points="1116,-239 1022,-239 1022,-220 1116,-220 1116,-239"/>
<text text-anchor="middle" x="1069" y="-227" font-family="Helvetica,sans-Serif" font-size="10.00">BuggyState.hpp</text>
</a>
</g>
</g>
<!-- Node19&#45;&gt;Node25 -->
<g id="edge46_Node000019_Node000025" class="edge">
<title>Node19&#45;&gt;Node25</title>
<g id="a_edge46_Node000019_Node000025"><a xlink:title=" ">
<path fill="none" stroke="#63b8ff" d="M892.05,-329.89C908.36,-321.33 937.03,-307.56 961,-294 988.99,-278.17 1020.01,-257.78 1041.84,-244.44"/>
<polygon fill="#63b8ff" stroke="#63b8ff" points="1043.82,-247.33 1050.59,-239.18 1040.22,-241.33 1043.82,-247.33"/>
</a>
</g>
</g>
<!-- Node26 -->
<g id="Node000026" class="node">
<title>Node26</title>
<g id="a_Node000026"><a xlink:href="UltrasonicSensor_8hpp_source.html" target="_top" xlink:title=" ">
<polygon fill="white" stroke="#666666" points="929.5,-184 810.5,-184 810.5,-165 929.5,-165 929.5,-184"/>
<text text-anchor="middle" x="870" y="-172" font-family="Helvetica,sans-Serif" font-size="10.00">UltrasonicSensor.hpp</text>
</a>
</g>
</g>
<!-- Node19&#45;&gt;Node26 -->
<g id="edge48_Node000019_Node000026" class="edge">
<title>Node19&#45;&gt;Node26</title>
<g id="a_edge48_Node000019_Node000026"><a xlink:title=" ">
<path fill="none" stroke="#63b8ff" d="M883.6,-329.82C887.06,-320.99 892.03,-306.81 894,-294 898.99,-261.49 902.05,-251.89 894,-220 891.59,-210.44 886.67,-200.7 881.91,-192.78"/>
<polygon fill="#63b8ff" stroke="#63b8ff" points="884.72,-190.68 876.37,-184.16 878.83,-194.46 884.72,-190.68"/>
</a>
</g>
</g>
<!-- Node19&#45;&gt;Node27 -->
<g id="edge54_Node000019_Node000027" class="edge">
<title>Node19&#45;&gt;Node27</title>
<g id="a_edge54_Node000019_Node000027"><a xlink:title=" ">
<path fill="none" stroke="#63b8ff" d="M913.77,-334.39C991.46,-324.92 1182.86,-301.6 1270.22,-290.96"/>
<polygon fill="#63b8ff" stroke="#63b8ff" points="1270.84,-294.41 1280.35,-289.72 1270,-287.46 1270.84,-294.41"/>
</a>
</g>
</g>
<!-- Node19&#45;&gt;Node29 -->
<g id="edge57_Node000019_Node000029" class="edge">
<title>Node19&#45;&gt;Node29</title>
<g id="a_edge57_Node000019_Node000029"><a xlink:title=" ">
<path fill="none" stroke="#63b8ff" d="M861.04,-329.98C841.97,-321.42 812.34,-308.11 790.45,-298.28"/>
<polygon fill="#63b8ff" stroke="#63b8ff" points="791.86,-295.07 781.3,-294.17 788.99,-301.46 791.86,-295.07"/>
</a>
</g>
</g>
<!-- Node19&#45;&gt;Node30 -->
<g id="edge63_Node000019_Node000030" class="edge">
<title>Node19&#45;&gt;Node30</title>
<g id="a_edge63_Node000019_Node000030"><a xlink:title=" ">
<path fill="none" stroke="#63b8ff" d="M913.84,-336.39C975.63,-331.95 1103.63,-319.83 1139,-294 1153.87,-283.14 1162.58,-263.57 1167.28,-249.01"/>
<polygon fill="#63b8ff" stroke="#63b8ff" points="1170.74,-249.67 1170.13,-239.09 1164.01,-247.74 1170.74,-249.67"/>
</a>
</g>
</g>
<!-- Node33 -->
<g id="Node000033" class="node">
<title>Node33</title>
<g id="a_Node000033"><a xlink:href="RoadSigns_8hpp_source.html" target="_top" xlink:title=" ">
<polygon fill="white" stroke="#666666" points="1129.5,-294 1040.5,-294 1040.5,-275 1129.5,-275 1129.5,-294"/>
<text text-anchor="middle" x="1085" y="-282" font-family="Helvetica,sans-Serif" font-size="10.00">RoadSigns.hpp</text>
</a>
</g>
</g>
<!-- Node19&#45;&gt;Node33 -->
<g id="edge66_Node000019_Node000033" class="edge">
<title>Node19&#45;&gt;Node33</title>
<g id="a_edge66_Node000019_Node000033"><a xlink:title=" ">
<path fill="none" stroke="#63b8ff" d="M907.82,-329.98C940.98,-320.89 996.66,-306.46 1036.82,-296.51"/>
<polygon fill="#63b8ff" stroke="#63b8ff" points="1037.8,-299.87 1046.68,-294.08 1036.13,-293.07 1037.8,-299.87"/>
</a>
</g>
</g>
<!-- Node20&#45;&gt;Node5 -->
<g id="edge32_Node000020_Node000005" class="edge">
<title>Node20&#45;&gt;Node5</title>
<g id="a_edge32_Node000020_Node000005"><a xlink:title=" ">
<path fill="none" stroke="#63b8ff" d="M761.23,-164.98C777.18,-156.61 801.78,-143.7 820.38,-133.95"/>
<polygon fill="#63b8ff" stroke="#63b8ff" points="822.25,-136.92 829.48,-129.17 819,-130.72 822.25,-136.92"/>
</a>
</g>
</g>
<!-- Node20&#45;&gt;Node21 -->
<g id="edge33_Node000020_Node000021" class="edge">
<title>Node20&#45;&gt;Node21</title>
<g id="a_edge33_Node000020_Node000021"><a xlink:title=" ">
<path fill="none" stroke="#63b8ff" d="M785.17,-164.98C828.5,-155.8 897.59,-141.15 944.56,-131.19"/>
<polygon fill="#63b8ff" stroke="#63b8ff" points="945.46,-134.58 954.52,-129.08 944.01,-127.73 945.46,-134.58"/>
</a>
</g>
</g>
<!-- Node22 -->
<g id="Node000022" class="node">
<title>Node22</title>
<g id="a_Node000022"><a xlink:href="MoveMeanFilter_8hpp_source.html" target="_top" xlink:title=" ">
<polygon fill="white" stroke="#666666" points="788,-129 672,-129 672,-110 788,-110 788,-129"/>
<text text-anchor="middle" x="730" y="-117" font-family="Helvetica,sans-Serif" font-size="10.00">MoveMeanFilter.hpp</text>
</a>
</g>
</g>
<!-- Node20&#45;&gt;Node22 -->
<g id="edge34_Node000020_Node000022" class="edge">
<title>Node20&#45;&gt;Node22</title>
<g id="a_edge34_Node000020_Node000022"><a xlink:title=" ">
<path fill="none" stroke="#63b8ff" d="M742.52,-164.75C740.54,-157.72 737.68,-147.62 735.19,-138.84"/>
<polygon fill="#63b8ff" stroke="#63b8ff" points="738.52,-137.76 732.43,-129.09 731.79,-139.66 738.52,-137.76"/>
</a>
</g>
</g>
<!-- Node22&#45;&gt;Node2 -->
<g id="edge35_Node000022_Node000002" class="edge">
<title>Node22&#45;&gt;Node2</title>
<g id="a_edge35_Node000022_Node000002"><a xlink:title=" ">
<path fill="none" stroke="#63b8ff" d="M725.99,-109.66C717.95,-91.93 699.7,-51.73 689.08,-28.32"/>
<polygon fill="#63b8ff" stroke="#63b8ff" points="692.25,-26.82 684.93,-19.16 685.87,-29.71 692.25,-26.82"/>
</a>
</g>
</g>
<!-- Node22&#45;&gt;Node6 -->
<g id="edge36_Node000022_Node000006" class="edge">
<title>Node22&#45;&gt;Node6</title>
<g id="a_edge36_Node000022_Node000006"><a xlink:title=" ">
<path fill="none" stroke="#63b8ff" d="M671.78,-113.66C554.71,-103.92 291.16,-81.99 164.12,-71.42"/>
<polygon fill="#63b8ff" stroke="#63b8ff" points="164.36,-67.93 154.11,-70.58 163.78,-74.9 164.36,-67.93"/>
</a>
</g>
</g>
<!-- Node23&#45;&gt;Node2 -->
<g id="edge40_Node000023_Node000002" class="edge">
<title>Node23&#45;&gt;Node2</title>
<g id="a_edge40_Node000023_Node000002"><a xlink:title=" ">
<path fill="none" stroke="#63b8ff" d="M643.15,-164.74C649.42,-139.2 667.77,-64.43 676.4,-29.23"/>
<polygon fill="#63b8ff" stroke="#63b8ff" points="679.85,-29.85 678.84,-19.31 673.06,-28.18 679.85,-29.85"/>
</a>
</g>
</g>
<!-- Node24&#45;&gt;Node20 -->
<g id="edge43_Node000024_Node000020" class="edge">
<title>Node24&#45;&gt;Node20</title>
<g id="a_edge43_Node000024_Node000020"><a xlink:title=" ">
<path fill="none" stroke="#63b8ff" d="M793.68,-219.98C785.19,-212.23 772.44,-200.58 762.12,-191.14"/>
<polygon fill="#63b8ff" stroke="#63b8ff" points="764.23,-188.33 754.49,-184.17 759.51,-193.5 764.23,-188.33"/>
</a>
</g>
</g>
<!-- Node24&#45;&gt;Node21 -->
<g id="edge45_Node000024_Node000021" class="edge">
<title>Node24&#45;&gt;Node21</title>
<g id="a_edge45_Node000024_Node000021"><a xlink:title=" ">
<path fill="none" stroke="#63b8ff" d="M848.53,-219.98C876.31,-213.3 911.61,-202.03 939,-184 957.53,-171.8 973.68,-151.91 983.81,-137.64"/>
<polygon fill="#63b8ff" stroke="#63b8ff" points="986.82,-139.45 989.56,-129.21 981.03,-135.5 986.82,-139.45"/>
</a>
</g>
</g>
<!-- Node24&#45;&gt;Node23 -->
<g id="edge44_Node000024_Node000023" class="edge">
<title>Node24&#45;&gt;Node23</title>
<g id="a_edge44_Node000024_Node000023"><a xlink:title=" ">
<path fill="none" stroke="#63b8ff" d="M776.97,-219.98C749.89,-211.13 707.29,-197.19 676.99,-187.28"/>
<polygon fill="#63b8ff" stroke="#63b8ff" points="677.82,-183.87 667.23,-184.08 675.65,-190.52 677.82,-183.87"/>
</a>
</g>
</g>
<!-- Node25&#45;&gt;Node19 -->
<g id="edge47_Node000025_Node000019" class="edge">
<title>Node25&#45;&gt;Node19</title>
<g id="a_edge47_Node000025_Node000019"><a xlink:title=" ">
<path fill="none" stroke="#63b8ff" d="M1062.33,-239.18C1046.94,-251.86 1010.99,-275.9 979,-294 958.49,-305.6 934.55,-317.36 915.19,-325.87"/>
<polygon fill="#63b8ff" stroke="#63b8ff" points="913.63,-322.73 905.81,-329.89 916.38,-329.17 913.63,-322.73"/>
</a>
</g>
</g>
<!-- Node26&#45;&gt;Node2 -->
<g id="edge49_Node000026_Node000002" class="edge">
<title>Node26&#45;&gt;Node2</title>
<g id="a_edge49_Node000026_Node000002"><a xlink:title=" ">
<path fill="none" stroke="#63b8ff" d="M878.33,-164.79C889.44,-152.07 906.46,-127.99 895,-110 857.1,-50.52 773.41,-26.04 722.64,-16.39"/>
<polygon fill="#63b8ff" stroke="#63b8ff" points="723.11,-12.92 712.65,-14.6 721.87,-19.81 723.11,-12.92"/>
</a>
</g>
</g>
<!-- Node26&#45;&gt;Node5 -->
<g id="edge50_Node000026_Node000005" class="edge">
<title>Node26&#45;&gt;Node5</title>
<g id="a_edge50_Node000026_Node000005"><a xlink:title=" ">
<path fill="none" stroke="#63b8ff" d="M866.04,-164.75C862.79,-157.57 858.08,-147.18 854.05,-138.27"/>
<polygon fill="#63b8ff" stroke="#63b8ff" points="857.2,-136.75 849.89,-129.09 850.83,-139.64 857.2,-136.75"/>
</a>
</g>
</g>
<!-- Node26&#45;&gt;Node22 -->
<g id="edge51_Node000026_Node000022" class="edge">
<title>Node26&#45;&gt;Node22</title>
<g id="a_edge51_Node000026_Node000022"><a xlink:title=" ">
<path fill="none" stroke="#63b8ff" d="M847.51,-164.98C824.48,-156.27 788.46,-142.63 762.37,-132.75"/>
<polygon fill="#63b8ff" stroke="#63b8ff" points="763.49,-129.44 752.9,-129.17 761.02,-135.98 763.49,-129.44"/>
</a>
</g>
</g>
<!-- Node27&#45;&gt;Node2 -->
<g id="edge55_Node000027_Node000002" class="edge">
<title>Node27&#45;&gt;Node2</title>
<g id="a_edge55_Node000027_Node000002"><a xlink:title=" ">
<path fill="none" stroke="#63b8ff" d="M1343.28,-274.92C1361.61,-267.99 1384.66,-256.48 1399,-239 1417.69,-216.23 1418,-204.96 1418,-175.5 1418,-175.5 1418,-175.5 1418,-118.5 1418,-47.71 878.8,-19 722.8,-12.18"/>
<polygon fill="#63b8ff" stroke="#63b8ff" points="722.81,-8.68 712.67,-11.75 722.51,-15.67 722.81,-8.68"/>
</a>
</g>
</g>
<!-- Node28 -->
<g id="Node000028" class="node">
<title>Node28</title>
<g id="a_Node000028"><a xlink:title=" ">
<polygon fill="#e0e0e0" stroke="#999999" points="1390,-239 1266,-239 1266,-220 1390,-220 1390,-239"/>
<text text-anchor="middle" x="1328" y="-227" font-family="Helvetica,sans-Serif" font-size="10.00">Arduino_LED_Matrix.h</text>
</a>
</g>
</g>
<!-- Node27&#45;&gt;Node28 -->
<g id="edge56_Node000027_Node000028" class="edge">
<title>Node27&#45;&gt;Node28</title>
<g id="a_edge56_Node000027_Node000028"><a xlink:title=" ">
<path fill="none" stroke="#63b8ff" d="M1317.15,-274.75C1318.87,-267.72 1321.35,-257.62 1323.5,-248.84"/>
<polygon fill="#63b8ff" stroke="#63b8ff" points="1326.91,-249.63 1325.89,-239.09 1320.11,-247.97 1326.91,-249.63"/>
</a>
</g>
</g>
<!-- Node29&#45;&gt;Node20 -->
<g id="edge58_Node000029_Node000020" class="edge">
<title>Node29&#45;&gt;Node20</title>
<g id="a_edge58_Node000029_Node000020"><a xlink:title=" ">
<path fill="none" stroke="#63b8ff" d="M746.57,-274.8C734.65,-267.11 719.04,-254.69 712,-239 704.66,-222.63 716.09,-204.53 727.46,-191.86"/>
<polygon fill="#63b8ff" stroke="#63b8ff" points="730.26,-193.99 734.72,-184.38 725.24,-189.11 730.26,-193.99"/>
</a>
</g>
</g>
<!-- Node29&#45;&gt;Node21 -->
<g id="edge60_Node000029_Node000021" class="edge">
<title>Node29&#45;&gt;Node21</title>
<g id="a_edge60_Node000029_Node000021"><a xlink:title=" ">
<path fill="none" stroke="#63b8ff" d="M794.25,-274.93C837.69,-261.89 915.08,-233.26 963,-184 975.36,-171.29 983.92,-152.86 989.06,-139.12"/>
<polygon fill="#63b8ff" stroke="#63b8ff" points="992.49,-139.91 992.45,-129.31 985.88,-137.62 992.49,-139.91"/>
</a>
</g>
</g>
<!-- Node29&#45;&gt;Node23 -->
<g id="edge59_Node000029_Node000023" class="edge">
<title>Node29&#45;&gt;Node23</title>
<g id="a_edge59_Node000029_Node000023"><a xlink:title=" ">
<path fill="none" stroke="#63b8ff" d="M749.88,-274.69C738.11,-265.99 719.88,-252.11 705,-239 687.49,-223.58 668.67,-204.59 656.01,-191.41"/>
<polygon fill="#63b8ff" stroke="#63b8ff" points="658.42,-188.86 648.98,-184.04 653.35,-193.7 658.42,-188.86"/>
</a>
</g>
</g>
<!-- Node29&#45;&gt;Node24 -->
<g id="edge61_Node000029_Node000024" class="edge">
<title>Node29&#45;&gt;Node24</title>
<g id="a_edge61_Node000029_Node000024"><a xlink:title=" ">
<path fill="none" stroke="#63b8ff" d="M768.77,-274.75C774.56,-267.26 783.06,-256.28 790.14,-247.13"/>
<polygon fill="#63b8ff" stroke="#63b8ff" points="793.01,-249.14 796.36,-239.09 787.47,-244.86 793.01,-249.14"/>
</a>
</g>
</g>
<!-- Node29&#45;&gt;Node26 -->
<g id="edge62_Node000029_Node000026" class="edge">
<title>Node29&#45;&gt;Node26</title>
<g id="a_edge62_Node000029_Node000026"><a xlink:title=" ">
<path fill="none" stroke="#63b8ff" d="M755.56,-274.9C746.67,-261.91 733.03,-236.97 745,-220 757.95,-201.64 779.19,-190.81 800.51,-184.44"/>
<polygon fill="#63b8ff" stroke="#63b8ff" points="801.54,-187.78 810.29,-181.81 799.72,-181.02 801.54,-187.78"/>
</a>
</g>
</g>
<!-- Node30&#45;&gt;Node31 -->
<g id="edge64_Node000030_Node000031" class="edge">
<title>Node30&#45;&gt;Node31</title>
<g id="a_edge64_Node000030_Node000031"><a xlink:title=" ">
<path fill="none" stroke="#63b8ff" d="M1182.6,-219.98C1192.46,-212.07 1207.35,-200.11 1219.22,-190.58"/>
<polygon fill="#63b8ff" stroke="#63b8ff" points="1221.6,-193.16 1227.2,-184.17 1217.21,-187.7 1221.6,-193.16"/>
</a>
</g>
</g>
<!-- Node32 -->
<g id="Node000032" class="node">
<title>Node32</title>
<g id="a_Node000032"><a xlink:title=" ">
<polygon fill="#e0e0e0" stroke="#999999" points="1178,-184 1130,-184 1130,-165 1178,-165 1178,-184"/>
<text text-anchor="middle" x="1154" y="-172" font-family="Helvetica,sans-Serif" font-size="10.00">Wire.h</text>
</a>
</g>
</g>
<!-- Node30&#45;&gt;Node32 -->
<g id="edge65_Node000030_Node000032" class="edge">
<title>Node30&#45;&gt;Node32</title>
<g id="a_edge65_Node000030_Node000032"><a xlink:title=" ">
<path fill="none" stroke="#63b8ff" d="M1169.03,-219.75C1166.64,-212.72 1163.21,-202.62 1160.23,-193.84"/>
<polygon fill="#63b8ff" stroke="#63b8ff" points="1163.45,-192.43 1156.92,-184.09 1156.82,-194.68 1163.45,-192.43"/>
</a>
</g>
</g>
<!-- Node33&#45;&gt;Node19 -->
<g id="edge69_Node000033_Node000019" class="edge">
<title>Node33&#45;&gt;Node19</title>
<g id="a_edge69_Node000033_Node000019"><a xlink:title=" ">
<path fill="none" stroke="#63b8ff" d="M1056.93,-294.08C1022.47,-303.53 963.95,-318.68 923.64,-328.61"/>
<polygon fill="#63b8ff" stroke="#63b8ff" points="922.69,-325.24 913.81,-331.02 924.36,-332.04 922.69,-325.24"/>
</a>
</g>
</g>
<!-- Node33&#45;&gt;Node25 -->
<g id="edge67_Node000033_Node000025" class="edge">
<title>Node33&#45;&gt;Node25</title>
<g id="a_edge67_Node000033_Node000025"><a xlink:title=" ">
<path fill="none" stroke="#63b8ff" d="M1082.36,-274.75C1080.24,-267.72 1077.19,-257.62 1074.54,-248.84"/>
<polygon fill="#63b8ff" stroke="#63b8ff" points="1077.83,-247.65 1071.59,-239.09 1071.13,-249.67 1077.83,-247.65"/>
</a>
</g>
</g>
<!-- Node33&#45;&gt;Node30 -->
<g id="edge68_Node000033_Node000030" class="edge">
<title>Node33&#45;&gt;Node30</title>
<g id="a_edge68_Node000033_Node000030"><a xlink:title=" ">
<path fill="none" stroke="#63b8ff" d="M1098.98,-274.98C1112.47,-266.77 1133.13,-254.18 1149.04,-244.49"/>
<polygon fill="#63b8ff" stroke="#63b8ff" points="1151.05,-247.36 1157.77,-239.17 1147.41,-241.38 1151.05,-247.36"/>
</a>
</g>
</g>
</g>
</svg>
