<?xml version="1.0" encoding="UTF-8" standalone="no"?>
<!DOCTYPE svg PUBLIC "-//W3C//DTD SVG 1.1//EN"
 "http://www.w3.org/Graphics/SVG/1.1/DTD/svg11.dtd">
<!-- Generated by graphviz version 2.43.0 (0)
 -->
<!-- Title: BuggySoftware/BuggySoftware.ino Pages: 1 -->
<!--zoomable 412 -->

<svg id="main" version="1.1" xmlns="http://www.w3.org/2000/svg" xmlns:xlink="http://www.w3.org/1999/xlink" xml:space="preserve" onload="init(evt)">

<style type="text/css"><![CDATA[
.node, .edge {opacity: 0.7;}
.node.selected, .edge.selected {opacity: 1;}
.edge:hover path { stroke: red; }
.edge:hover polygon { stroke: red; fill: red; }
]]></style>

<defs>
  <circle id="rim" cx="0" cy="0" r="7"/>
  <circle id="rim2" cx="0" cy="0" r="3.5"/>
  <g id="zoomPlus">
    <use xlink:href="#rim" fill="#404040"><set attributeName="fill" to="#808080" begin="zoomplus.mouseover" end="zoomplus.mouseout"/></use>
    <path d="M-4,0h8M0,-4v8" fill="none" stroke="white" stroke-width="1.5" pointer-events="none"/>
  </g>
  <g id="zoomMin">
    <use xlink:href="#rim" fill="#404040"><set attributeName="fill" to="#808080" begin="zoomminus.mouseover" end="zoomminus.mouseout"/></use>
    <path d="M-4,0h8" fill="none" stroke="white" stroke-width="1.5" pointer-events="none"/>
  </g>
  <g id="arrowUp" transform="translate(30 24)">
    <use xlink:href="#rim"/>
    <path pointer-events="none" fill="none" stroke="white" stroke-width="1.5" d="M0,-3.0v7 M-2.5,-0.5L0,-3.0L2.5,-0.5"/>
  </g>
  <g id="arrowRight" transform="rotate(90) translate(36 -43)">
    <use xlink:href="#rim"/>
    <path pointer-events="none" fill="none" stroke="white" stroke-width="1.5" d="M0,-3.0v7 M-2.5,-0.5L0,-3.0L2.5,-0.5"/>
  </g>
  <g id="arrowDown" transform="rotate(180) translate(-30 -48)">
    <use xlink:href="#rim"/>
    <path pointer-events="none" fill="none" stroke="white" stroke-width="1.5" d="M0,-3.0v7 M-2.5,-0.5L0,-3.0L2.5,-0.5"/>
  </g>
  <g id="arrowLeft" transform="rotate(270) translate(-36 17)">
    <use xlink:href="#rim"/>
    <path pointer-events="none" fill="none" stroke="white" stroke-width="1.5" d="M0,-3.0v7 M-2.5,-0.5L0,-3.0L2.5,-0.5"/>
  </g>
  <g id="resetDef">
    <use xlink:href="#rim2" fill="#404040"><set attributeName="fill" to="#808080" begin="reset.mouseover" end="reset.mouseout"/></use>
  </g>
</defs>
<script type="application/ecmascript">
var viewWidth = 1324;
var viewHeight = 412;
var sectionId = 'dynsection-0';
</script>
<script type="application/ecmascript" xlink:href="svg.min.js"/>
<svg id="graph" class="graph">
<g id="viewport">
<title>BuggySoftware/BuggySoftware.ino</title>
<!-- Node1 -->
<g id="Node000001" class="node">
<title>Node1</title>
<g id="a_Node000001"><a xlink:title="This is the main entry point for the Buggy software.">
<polygon fill="#999999" stroke="#666666" points="692.5,-404 507.5,-404 507.5,-385 692.5,-385 692.5,-404"/>
<text text-anchor="middle" x="600" y="-392" font-family="Helvetica,sans-Serif" font-size="10.00">BuggySoftware/BuggySoftware.ino</text>
</a>
</g>
</g>
<!-- Node2 -->
<g id="Node000002" class="node">
<title>Node2</title>
<g id="a_Node000002"><a xlink:title=" ">
<polygon fill="#e0e0e0" stroke="#999999" points="758.5,-74 695.5,-74 695.5,-55 758.5,-55 758.5,-74"/>
<text text-anchor="middle" x="727" y="-62" font-family="Helvetica,sans-Serif" font-size="10.00">Arduino.h</text>
</a>
</g>
</g>
<!-- Node1&#45;&gt;Node2 -->
<g id="edge1_Node000001_Node000002" class="edge">
<title>Node1&#45;&gt;Node2</title>
<g id="a_edge1_Node000001_Node000002"><a xlink:title=" ">
<path fill="none" stroke="#63b8ff" d="M692.5,-389.02C886.06,-378.42 1316,-347.85 1316,-285.5 1316,-285.5 1316,-285.5 1316,-173.5 1316,-86.99 1216.41,-128.95 1132,-110 1001.59,-80.72 843.04,-70.42 768.95,-67.03"/>
<polygon fill="#63b8ff" stroke="#63b8ff" points="768.79,-63.52 758.64,-66.58 768.48,-70.52 768.79,-63.52"/>
</a>
</g>
</g>
<!-- Node3 -->
<g id="Node000003" class="node">
<title>Node3</title>
<g id="a_Node000003"><a xlink:href="Timer1_8hpp.html" target="_top" xlink:title="Setup methods for Timer1.">
<polygon fill="white" stroke="#666666" points="143,-349 71,-349 71,-330 143,-330 143,-349"/>
<text text-anchor="middle" x="107" y="-337" font-family="Helvetica,sans-Serif" font-size="10.00">Timer1.hpp</text>
</a>
</g>
</g>
<!-- Node1&#45;&gt;Node3 -->
<g id="edge2_Node000001_Node000003" class="edge">
<title>Node1&#45;&gt;Node3</title>
<g id="a_edge2_Node000001_Node000003"><a xlink:title=" ">
<path fill="none" stroke="#63b8ff" d="M520.79,-384.98C416.8,-373.8 237.59,-354.54 153.33,-345.48"/>
<polygon fill="#63b8ff" stroke="#63b8ff" points="153.61,-341.99 143.3,-344.4 152.86,-348.95 153.61,-341.99"/>
</a>
</g>
</g>
<!-- Node5 -->
<g id="Node000005" class="node">
<title>Node5</title>
<g id="a_Node000005"><a xlink:href="PinSetup_8hpp_source.html" target="_top" xlink:title=" ">
<polygon fill="white" stroke="#666666" points="699,-129 619,-129 619,-110 699,-110 699,-129"/>
<text text-anchor="middle" x="659" y="-117" font-family="Helvetica,sans-Serif" font-size="10.00">PinSetup.hpp</text>
</a>
</g>
</g>
<!-- Node1&#45;&gt;Node5 -->
<g id="edge4_Node000001_Node000005" class="edge">
<title>Node1&#45;&gt;Node5</title>
<g id="a_edge4_Node000001_Node000005"><a xlink:title=" ">
<path fill="none" stroke="#63b8ff" d="M601.9,-384.73C610.2,-346.3 643.47,-192.38 655.02,-138.91"/>
<polygon fill="#63b8ff" stroke="#63b8ff" points="658.45,-139.62 657.14,-129.11 651.61,-138.14 658.45,-139.62"/>
</a>
</g>
</g>
<!-- Node6 -->
<g id="Node000006" class="node">
<title>Node6</title>
<g id="a_Node000006"><a xlink:href="EmbeddedLogger_8hpp.html" target="_top" xlink:title=" ">
<polygon fill="white" stroke="#666666" points="303,-74 181,-74 181,-55 303,-55 303,-74"/>
<text text-anchor="middle" x="242" y="-62" font-family="Helvetica,sans-Serif" font-size="10.00">EmbeddedLogger.hpp</text>
</a>
</g>
</g>
<!-- Node1&#45;&gt;Node6 -->
<g id="edge6_Node000001_Node000006" class="edge">
<title>Node1&#45;&gt;Node6</title>
<g id="a_edge6_Node000001_Node000006"><a xlink:title=" ">
<path fill="none" stroke="#63b8ff" d="M507.46,-393.57C374.93,-392.38 138.58,-385.05 62,-349 26.31,-332.2 0,-324.94 0,-285.5 0,-285.5 0,-285.5 0,-173.5 0,-98.08 99.24,-74.96 170.62,-68.09"/>
<polygon fill="#63b8ff" stroke="#63b8ff" points="171.28,-71.55 180.93,-67.19 170.67,-64.58 171.28,-71.55"/>
</a>
</g>
</g>
<!-- Node9 -->
<g id="Node000009" class="node">
<title>Node9</title>
<g id="a_Node000009"><a xlink:href="SerialWirelessLogger_8hpp_source.html" target="_top" xlink:title=" ">
<polygon fill="white" stroke="#666666" points="344,-349 204,-349 204,-330 344,-330 344,-349"/>
<text text-anchor="middle" x="274" y="-337" font-family="Helvetica,sans-Serif" font-size="10.00">SerialWirelessLogger.hpp</text>
</a>
</g>
</g>
<!-- Node1&#45;&gt;Node9 -->
<g id="edge9_Node000001_Node000009" class="edge">
<title>Node1&#45;&gt;Node9</title>
<g id="a_edge9_Node000001_Node000009"><a xlink:title=" ">
<path fill="none" stroke="#63b8ff" d="M547.62,-384.98C490.08,-375.63 397.71,-360.61 336.45,-350.65"/>
<polygon fill="#63b8ff" stroke="#63b8ff" points="336.95,-347.19 326.52,-349.04 335.83,-354.1 336.95,-347.19"/>
</a>
</g>
</g>
<!-- Node18 -->
<g id="Node000018" class="node">
<title>Node18</title>
<g id="a_Node000018"><a xlink:href="PacketFactory_8hpp_source.html" target="_top" xlink:title=" ">
<polygon fill="white" stroke="#666666" points="375.5,-239 272.5,-239 272.5,-220 375.5,-220 375.5,-239"/>
<text text-anchor="middle" x="324" y="-227" font-family="Helvetica,sans-Serif" font-size="10.00">PacketFactory.hpp</text>
</a>
</g>
</g>
<!-- Node1&#45;&gt;Node18 -->
<g id="edge62_Node000001_Node000018" class="edge">
<title>Node1&#45;&gt;Node18</title>
<g id="a_edge62_Node000001_Node000018"><a xlink:title=" ">
<path fill="none" stroke="#63b8ff" d="M581.08,-384.87C562.65,-376.3 533.99,-362.52 510,-349 448.41,-314.29 378.91,-268 344.94,-244.9"/>
<polygon fill="#63b8ff" stroke="#63b8ff" points="346.57,-241.77 336.34,-239.02 342.63,-247.55 346.57,-241.77"/>
</a>
</g>
</g>
<!-- Node19 -->
<g id="Node000019" class="node">
<title>Node19</title>
<g id="a_Node000019"><a xlink:href="Buggy_8hpp_source.html" target="_top" xlink:title=" ">
<polygon fill="white" stroke="#666666" points="728.5,-349 661.5,-349 661.5,-330 728.5,-330 728.5,-349"/>
<text text-anchor="middle" x="695" y="-337" font-family="Helvetica,sans-Serif" font-size="10.00">Buggy.hpp</text>
</a>
</g>
</g>
<!-- Node1&#45;&gt;Node19 -->
<g id="edge28_Node000001_Node000019" class="edge">
<title>Node1&#45;&gt;Node19</title>
<g id="a_edge28_Node000001_Node000019"><a xlink:title=" ">
<path fill="none" stroke="#63b8ff" d="M615.26,-384.98C630.13,-376.69 652.98,-363.94 670.42,-354.22"/>
<polygon fill="#63b8ff" stroke="#63b8ff" points="672.43,-357.1 679.46,-349.17 669.02,-350.99 672.43,-357.1"/>
</a>
</g>
</g>
<!-- Node21 -->
<g id="Node000021" class="node">
<title>Node21</title>
<g id="a_Node000021"><a xlink:href="PIDController_8hpp_source.html" target="_top" xlink:title=" ">
<polygon fill="white" stroke="#666666" points="1089.5,-129 988.5,-129 988.5,-110 1089.5,-110 1089.5,-129"/>
<text text-anchor="middle" x="1039" y="-117" font-family="Helvetica,sans-Serif" font-size="10.00">PIDController.hpp</text>
</a>
</g>
</g>
<!-- Node1&#45;&gt;Node21 -->
<g id="edge61_Node000001_Node000021" class="edge">
<title>Node1&#45;&gt;Node21</title>
<g id="a_edge61_Node000001_Node000021"><a xlink:title=" ">
<path fill="none" stroke="#63b8ff" d="M692.73,-393.53C808.83,-390 1010.92,-371.85 1163,-294 1200.2,-274.96 1242.31,-255.94 1221,-220 1192.2,-171.44 1130.41,-145.04 1086.84,-131.87"/>
<polygon fill="#63b8ff" stroke="#63b8ff" points="1087.6,-128.44 1077.02,-129.03 1085.65,-135.17 1087.6,-128.44"/>
</a>
</g>
</g>
<!-- Node27 -->
<g id="Node000027" class="node">
<title>Node27</title>
<g id="a_Node000027"><a xlink:href="Matrix_8hpp_source.html" target="_top" xlink:title=" ">
<polygon fill="white" stroke="#666666" points="1153.5,-294 1084.5,-294 1084.5,-275 1153.5,-275 1153.5,-294"/>
<text text-anchor="middle" x="1119" y="-282" font-family="Helvetica,sans-Serif" font-size="10.00">Matrix.hpp</text>
</a>
</g>
</g>
<!-- Node1&#45;&gt;Node27 -->
<g id="edge63_Node000001_Node000027" class="edge">
<title>Node1&#45;&gt;Node27</title>
<g id="a_edge63_Node000001_Node000027"><a xlink:title=" ">
<path fill="none" stroke="#63b8ff" d="M641.16,-384.94C737.14,-364.96 975.16,-315.43 1074.42,-294.78"/>
<polygon fill="#63b8ff" stroke="#63b8ff" points="1075.35,-298.16 1084.43,-292.69 1073.92,-291.31 1075.35,-298.16"/>
</a>
</g>
</g>
<!-- Node29 -->
<g id="Node000029" class="node">
<title>Node29</title>
<g id="a_Node000029"><a xlink:href="CruiseControl_8hpp_source.html" target="_top" xlink:title=" ">
<polygon fill="white" stroke="#666666" points="996,-294 892,-294 892,-275 996,-275 996,-294"/>
<text text-anchor="middle" x="944" y="-282" font-family="Helvetica,sans-Serif" font-size="10.00">CruiseControl.hpp</text>
</a>
</g>
</g>
<!-- Node1&#45;&gt;Node29 -->
<g id="edge64_Node000001_Node000029" class="edge">
<title>Node1&#45;&gt;Node29</title>
<g id="a_edge64_Node000001_Node000029"><a xlink:title=" ">
<path fill="none" stroke="#63b8ff" d="M627.28,-384.94C688.62,-365.68 837.5,-318.94 907.05,-297.1"/>
<polygon fill="#63b8ff" stroke="#63b8ff" points="908.22,-300.4 916.72,-294.07 906.13,-293.72 908.22,-300.4"/>
</a>
</g>
</g>
<!-- Node4 -->
<g id="Node000004" class="node">
<title>Node4</title>
<g id="a_Node000004"><a xlink:title=" ">
<polygon fill="#e0e0e0" stroke="#999999" points="99.5,-294 28.5,-294 28.5,-275 99.5,-275 99.5,-294"/>
<text text-anchor="middle" x="64" y="-282" font-family="Helvetica,sans-Serif" font-size="10.00">FspTimer.h</text>
</a>
</g>
</g>
<!-- Node3&#45;&gt;Node4 -->
<g id="edge3_Node000003_Node000004" class="edge">
<title>Node3&#45;&gt;Node4</title>
<g id="a_edge3_Node000003_Node000004"><a xlink:title=" ">
<path fill="none" stroke="#63b8ff" d="M99.9,-329.75C93.83,-322.26 84.91,-311.28 77.49,-302.13"/>
<polygon fill="#63b8ff" stroke="#63b8ff" points="79.99,-299.65 70.97,-294.09 74.55,-304.06 79.99,-299.65"/>
</a>
</g>
</g>
<!-- Node5&#45;&gt;Node2 -->
<g id="edge5_Node000005_Node000002" class="edge">
<title>Node5&#45;&gt;Node2</title>
<g id="a_edge5_Node000005_Node000002"><a xlink:title=" ">
<path fill="none" stroke="#63b8ff" d="M669.93,-109.98C680.08,-102.07 695.42,-90.11 707.65,-80.58"/>
<polygon fill="#63b8ff" stroke="#63b8ff" points="710.14,-83.08 715.88,-74.17 705.84,-77.56 710.14,-83.08"/>
</a>
</g>
</g>
<!-- Node7 -->
<g id="Node000007" class="node">
<title>Node7</title>
<g id="a_Node000007"><a xlink:title=" ">
<polygon fill="#e0e0e0" stroke="#999999" points="232.5,-19 179.5,-19 179.5,0 232.5,0 232.5,-19"/>
<text text-anchor="middle" x="206" y="-7" font-family="Helvetica,sans-Serif" font-size="10.00">stdint.h</text>
</a>
</g>
</g>
<!-- Node6&#45;&gt;Node7 -->
<g id="edge7_Node000006_Node000007" class="edge">
<title>Node6&#45;&gt;Node7</title>
<g id="a_edge7_Node000006_Node000007"><a xlink:title=" ">
<path fill="none" stroke="#63b8ff" d="M236.06,-54.75C231.02,-47.34 223.66,-36.5 217.49,-27.41"/>
<polygon fill="#63b8ff" stroke="#63b8ff" points="220.35,-25.39 211.83,-19.09 214.56,-29.33 220.35,-25.39"/>
</a>
</g>
</g>
<!-- Node8 -->
<g id="Node000008" class="node">
<title>Node8</title>
<g id="a_Node000008"><a xlink:title=" ">
<polygon fill="#e0e0e0" stroke="#999999" points="307,-19 251,-19 251,0 307,0 307,-19"/>
<text text-anchor="middle" x="279" y="-7" font-family="Helvetica,sans-Serif" font-size="10.00">stddef.h</text>
</a>
</g>
</g>
<!-- Node6&#45;&gt;Node8 -->
<g id="edge8_Node000006_Node000008" class="edge">
<title>Node6&#45;&gt;Node8</title>
<g id="a_edge8_Node000006_Node000008"><a xlink:title=" ">
<path fill="none" stroke="#63b8ff" d="M248.11,-54.75C253.28,-47.34 260.85,-36.5 267.19,-27.41"/>
<polygon fill="#63b8ff" stroke="#63b8ff" points="270.15,-29.29 273,-19.09 264.41,-25.29 270.15,-29.29"/>
</a>
</g>
</g>
<!-- Node9&#45;&gt;Node2 -->
<g id="edge25_Node000009_Node000002" class="edge">
<title>Node9&#45;&gt;Node2</title>
<g id="a_edge25_Node000009_Node000002"><a xlink:title=" ">
<path fill="none" stroke="#63b8ff" d="M293.59,-329.9C312.3,-321.45 341.12,-307.85 365,-294 440.28,-250.33 458.37,-237.52 527,-184 565.97,-153.61 567.76,-135.65 610,-110 633.65,-95.64 662.71,-84.55 685.96,-77.04"/>
<polygon fill="#63b8ff" stroke="#63b8ff" points="687.03,-80.37 695.53,-74.04 684.94,-73.69 687.03,-80.37"/>
</a>
</g>
</g>
<!-- Node10 -->
<g id="Node000010" class="node">
<title>Node10</title>
<g id="a_Node000010"><a xlink:href="SerialLogger_8hpp_source.html" target="_top" xlink:title=" ">
<polygon fill="white" stroke="#666666" points="368,-129 270,-129 270,-110 368,-110 368,-129"/>
<text text-anchor="middle" x="319" y="-117" font-family="Helvetica,sans-Serif" font-size="10.00">SerialLogger.hpp</text>
</a>
</g>
</g>
<!-- Node9&#45;&gt;Node10 -->
<g id="edge10_Node000009_Node000010" class="edge">
<title>Node9&#45;&gt;Node10</title>
<g id="a_edge10_Node000009_Node000010"><a xlink:title=" ">
<path fill="none" stroke="#63b8ff" d="M290.23,-329.83C315.83,-315.11 364.67,-282.54 384,-239 401.02,-200.66 362.56,-158.07 337.82,-135.87"/>
<polygon fill="#63b8ff" stroke="#63b8ff" points="339.9,-133.05 330.05,-129.16 335.33,-138.35 339.9,-133.05"/>
</a>
</g>
</g>
<!-- Node11 -->
<g id="Node000011" class="node">
<title>Node11</title>
<g id="a_Node000011"><a xlink:href="WirelessLogger_8hpp_source.html" target="_top" xlink:title=" ">
<polygon fill="white" stroke="#666666" points="268,-294 156,-294 156,-275 268,-275 268,-294"/>
<text text-anchor="middle" x="212" y="-282" font-family="Helvetica,sans-Serif" font-size="10.00">WirelessLogger.hpp</text>
</a>
</g>
</g>
<!-- Node9&#45;&gt;Node11 -->
<g id="edge13_Node000009_Node000011" class="edge">
<title>Node9&#45;&gt;Node11</title>
<g id="a_edge13_Node000009_Node000011"><a xlink:title=" ">
<path fill="none" stroke="#63b8ff" d="M264.04,-329.98C254.87,-322.15 241.06,-310.34 229.97,-300.86"/>
<polygon fill="#63b8ff" stroke="#63b8ff" points="232.02,-298.01 222.14,-294.17 227.47,-303.33 232.02,-298.01"/>
</a>
</g>
</g>
<!-- Node12 -->
<g id="Node000012" class="node">
<title>Node12</title>
<g id="a_Node000012"><a xlink:href="BuggyTCP_8hpp_source.html" target="_top" xlink:title=" ">
<polygon fill="white" stroke="#666666" points="254.5,-239 169.5,-239 169.5,-220 254.5,-220 254.5,-239"/>
<text text-anchor="middle" x="212" y="-227" font-family="Helvetica,sans-Serif" font-size="10.00">BuggyTCP.hpp</text>
</a>
</g>
</g>
<!-- Node9&#45;&gt;Node12 -->
<g id="edge26_Node000009_Node000012" class="edge">
<title>Node9&#45;&gt;Node12</title>
<g id="a_edge26_Node000009_Node000012"><a xlink:title=" ">
<path fill="none" stroke="#63b8ff" d="M203.72,-329.91C181.96,-323.57 160.25,-312.68 147,-294 133.12,-274.43 158.66,-255.71 181.69,-243.73"/>
<polygon fill="#63b8ff" stroke="#63b8ff" points="183.52,-246.73 190.95,-239.18 180.43,-240.44 183.52,-246.73"/>
</a>
</g>
</g>
<!-- Node9&#45;&gt;Node18 -->
<g id="edge27_Node000009_Node000018" class="edge">
<title>Node9&#45;&gt;Node18</title>
<g id="a_edge27_Node000009_Node000018"><a xlink:title=" ">
<path fill="none" stroke="#63b8ff" d="M278.09,-329.66C286.3,-311.93 304.91,-271.73 315.75,-248.32"/>
<polygon fill="#63b8ff" stroke="#63b8ff" points="318.97,-249.7 319.99,-239.16 312.61,-246.76 318.97,-249.7"/>
</a>
</g>
</g>
<!-- Node10&#45;&gt;Node2 -->
<g id="edge12_Node000010_Node000002" class="edge">
<title>Node10&#45;&gt;Node2</title>
<g id="a_edge12_Node000010_Node000002"><a xlink:title=" ">
<path fill="none" stroke="#63b8ff" d="M368.04,-111.25C371.07,-110.82 374.08,-110.4 377,-110 488.18,-94.79 619.47,-78.56 685.16,-70.56"/>
<polygon fill="#63b8ff" stroke="#63b8ff" points="685.62,-74.03 695.12,-69.35 684.77,-67.08 685.62,-74.03"/>
</a>
</g>
</g>
<!-- Node10&#45;&gt;Node6 -->
<g id="edge11_Node000010_Node000006" class="edge">
<title>Node10&#45;&gt;Node6</title>
<g id="a_edge11_Node000010_Node000006"><a xlink:title=" ">
<path fill="none" stroke="#63b8ff" d="M306.63,-109.98C294.91,-101.92 277.08,-89.65 263.11,-80.03"/>
<polygon fill="#63b8ff" stroke="#63b8ff" points="264.82,-76.96 254.6,-74.17 260.85,-82.72 264.82,-76.96"/>
</a>
</g>
</g>
<!-- Node11&#45;&gt;Node2 -->
<g id="edge15_Node000011_Node000002" class="edge">
<title>Node11&#45;&gt;Node2</title>
<g id="a_edge15_Node000011_Node000002"><a xlink:title=" ">
<path fill="none" stroke="#63b8ff" d="M253.64,-274.93C288.87,-267.17 340.43,-254.56 384,-239 438.87,-219.4 455.22,-217.34 503,-184 541.15,-157.39 537.03,-133.79 577,-110 610.55,-90.03 653.72,-78.45 685.13,-72.14"/>
<polygon fill="#63b8ff" stroke="#63b8ff" points="686.13,-75.52 695.29,-70.2 684.82,-68.64 686.13,-75.52"/>
</a>
</g>
</g>
<!-- Node11&#45;&gt;Node6 -->
<g id="edge14_Node000011_Node000006" class="edge">
<title>Node11&#45;&gt;Node6</title>
<g id="a_edge14_Node000011_Node000006"><a xlink:title=" ">
<path fill="none" stroke="#63b8ff" d="M199.37,-274.88C163.02,-249.03 63.46,-170.19 107,-110 121.87,-89.44 146.58,-78.21 170.82,-72.15"/>
<polygon fill="#63b8ff" stroke="#63b8ff" points="171.79,-75.52 180.79,-69.92 170.26,-68.68 171.79,-75.52"/>
</a>
</g>
</g>
<!-- Node11&#45;&gt;Node12 -->
<g id="edge16_Node000011_Node000012" class="edge">
<title>Node11&#45;&gt;Node12</title>
<g id="a_edge16_Node000011_Node000012"><a xlink:title=" ">
<path fill="none" stroke="#63b8ff" d="M212,-274.75C212,-267.8 212,-257.85 212,-249.13"/>
<polygon fill="#63b8ff" stroke="#63b8ff" points="215.5,-249.09 212,-239.09 208.5,-249.09 215.5,-249.09"/>
</a>
</g>
</g>
<!-- Node11&#45;&gt;Node18 -->
<g id="edge23_Node000011_Node000018" class="edge">
<title>Node11&#45;&gt;Node18</title>
<g id="a_edge23_Node000011_Node000018"><a xlink:title=" ">
<path fill="none" stroke="#63b8ff" d="M229.99,-274.98C247.93,-266.5 275.72,-253.35 296.43,-243.54"/>
<polygon fill="#63b8ff" stroke="#63b8ff" points="298.14,-246.61 305.68,-239.17 295.14,-240.28 298.14,-246.61"/>
</a>
</g>
</g>
<!-- Node13 -->
<g id="Node000013" class="node">
<title>Node13</title>
<g id="a_Node000013"><a xlink:href="BuggyWifi_8hpp_source.html" target="_top" xlink:title=" ">
<polygon fill="white" stroke="#666666" points="493.5,-184 406.5,-184 406.5,-165 493.5,-165 493.5,-184"/>
<text text-anchor="middle" x="450" y="-172" font-family="Helvetica,sans-Serif" font-size="10.00">BuggyWifi.hpp</text>
</a>
</g>
</g>
<!-- Node12&#45;&gt;Node13 -->
<g id="edge17_Node000012_Node000013" class="edge">
<title>Node12&#45;&gt;Node13</title>
<g id="a_edge17_Node000012_Node000013"><a xlink:title=" ">
<path fill="none" stroke="#63b8ff" d="M250.24,-219.98C291.41,-210.82 356.99,-196.21 401.7,-186.26"/>
<polygon fill="#63b8ff" stroke="#63b8ff" points="402.46,-189.67 411.46,-184.08 400.94,-182.84 402.46,-189.67"/>
</a>
</g>
</g>
<!-- Node16 -->
<g id="Node000016" class="node">
<title>Node16</title>
<g id="a_Node000016"><a xlink:href="PacketTypes_8hpp_source.html" target="_top" xlink:title=" ">
<polygon fill="white" stroke="#666666" points="213.5,-129 116.5,-129 116.5,-110 213.5,-110 213.5,-129"/>
<text text-anchor="middle" x="165" y="-117" font-family="Helvetica,sans-Serif" font-size="10.00">PacketTypes.hpp</text>
</a>
</g>
</g>
<!-- Node12&#45;&gt;Node16 -->
<g id="edge20_Node000012_Node000016" class="edge">
<title>Node12&#45;&gt;Node16</title>
<g id="a_edge20_Node000012_Node000016"><a xlink:title=" ">
<path fill="none" stroke="#63b8ff" d="M189.88,-219.95C174.8,-212.82 155.99,-201.06 147,-184 139.26,-169.32 146.04,-150.92 153.39,-137.72"/>
<polygon fill="#63b8ff" stroke="#63b8ff" points="156.4,-139.5 158.64,-129.14 150.43,-135.84 156.4,-139.5"/>
</a>
</g>
</g>
<!-- Node17 -->
<g id="Node000017" class="node">
<title>Node17</title>
<g id="a_Node000017"><a xlink:href="PacketSerializer_8hpp_source.html" target="_top" xlink:title=" ">
<polygon fill="white" stroke="#666666" points="270,-184 156,-184 156,-165 270,-165 270,-184"/>
<text text-anchor="middle" x="213" y="-172" font-family="Helvetica,sans-Serif" font-size="10.00">PacketSerializer.hpp</text>
</a>
</g>
</g>
<!-- Node12&#45;&gt;Node17 -->
<g id="edge21_Node000012_Node000017" class="edge">
<title>Node12&#45;&gt;Node17</title>
<g id="a_edge21_Node000012_Node000017"><a xlink:title=" ">
<path fill="none" stroke="#63b8ff" d="M212.17,-219.75C212.3,-212.8 212.48,-202.85 212.65,-194.13"/>
<polygon fill="#63b8ff" stroke="#63b8ff" points="216.15,-194.15 212.84,-184.09 209.15,-194.02 216.15,-194.15"/>
</a>
</g>
</g>
<!-- Node14 -->
<g id="Node000014" class="node">
<title>Node14</title>
<g id="a_Node000014"><a xlink:title=" ">
<polygon fill="#e0e0e0" stroke="#999999" points="445.5,-129 386.5,-129 386.5,-110 445.5,-110 445.5,-129"/>
<text text-anchor="middle" x="416" y="-117" font-family="Helvetica,sans-Serif" font-size="10.00">WiFiS3.h</text>
</a>
</g>
</g>
<!-- Node13&#45;&gt;Node14 -->
<g id="edge18_Node000013_Node000014" class="edge">
<title>Node13&#45;&gt;Node14</title>
<g id="a_edge18_Node000013_Node000014"><a xlink:title=" ">
<path fill="none" stroke="#63b8ff" d="M444.39,-164.75C439.68,-157.42 432.83,-146.73 427.03,-137.7"/>
<polygon fill="#63b8ff" stroke="#63b8ff" points="429.86,-135.62 421.51,-129.09 423.96,-139.4 429.86,-135.62"/>
</a>
</g>
</g>
<!-- Node15 -->
<g id="Node000015" class="node">
<title>Node15</title>
<g id="a_Node000015"><a xlink:href="secrets_8h_source.html" target="_top" xlink:title=" ">
<polygon fill="white" stroke="#666666" points="524.5,-129 463.5,-129 463.5,-110 524.5,-110 524.5,-129"/>
<text text-anchor="middle" x="494" y="-117" font-family="Helvetica,sans-Serif" font-size="10.00">secrets.h</text>
</a>
</g>
</g>
<!-- Node13&#45;&gt;Node15 -->
<g id="edge19_Node000013_Node000015" class="edge">
<title>Node13&#45;&gt;Node15</title>
<g id="a_edge19_Node000013_Node000015"><a xlink:title=" ">
<path fill="none" stroke="#63b8ff" d="M457.27,-164.75C463.54,-157.18 472.79,-146.05 480.43,-136.84"/>
<polygon fill="#63b8ff" stroke="#63b8ff" points="483.17,-139.02 486.87,-129.09 477.79,-134.55 483.17,-139.02"/>
</a>
</g>
</g>
<!-- Node17&#45;&gt;Node16 -->
<g id="edge22_Node000017_Node000016" class="edge">
<title>Node17&#45;&gt;Node16</title>
<g id="a_edge22_Node000017_Node000016"><a xlink:title=" ">
<path fill="none" stroke="#63b8ff" d="M205.07,-164.75C198.15,-157.11 187.93,-145.82 179.55,-136.56"/>
<polygon fill="#63b8ff" stroke="#63b8ff" points="182.09,-134.15 172.78,-129.09 176.9,-138.85 182.09,-134.15"/>
</a>
</g>
</g>
<!-- Node18&#45;&gt;Node16 -->
<g id="edge24_Node000018_Node000016" class="edge">
<title>Node18&#45;&gt;Node16</title>
<g id="a_edge24_Node000018_Node000016"><a xlink:title=" ">
<path fill="none" stroke="#63b8ff" d="M319.97,-219.89C313.27,-206.41 298.59,-180.31 279,-165 259.33,-149.63 233.7,-138.99 211.72,-131.99"/>
<polygon fill="#63b8ff" stroke="#63b8ff" points="212.5,-128.56 201.92,-129.02 210.47,-135.26 212.5,-128.56"/>
</a>
</g>
</g>
<!-- Node19&#45;&gt;Node5 -->
<g id="edge39_Node000019_Node000005" class="edge">
<title>Node19&#45;&gt;Node5</title>
<g id="a_edge39_Node000019_Node000005"><a xlink:title=" ">
<path fill="none" stroke="#63b8ff" d="M692.19,-329.92C684.75,-306.72 664.69,-240.7 658,-184 657.01,-175.61 657.91,-173.44 658,-165 658.1,-156.49 658.29,-147.07 658.49,-139.09"/>
<polygon fill="#63b8ff" stroke="#63b8ff" points="661.99,-139.12 658.75,-129.03 654.99,-138.94 661.99,-139.12"/>
</a>
</g>
</g>
<!-- Node19&#45;&gt;Node6 -->
<g id="edge51_Node000019_Node000006" class="edge">
<title>Node19&#45;&gt;Node6</title>
<g id="a_edge51_Node000019_Node000006"><a xlink:title=" ">
<path fill="none" stroke="#63b8ff" d="M671.39,-330C589.53,-300.11 319.75,-197.93 261,-129 250.39,-116.55 245.7,-98.34 243.63,-84.61"/>
<polygon fill="#63b8ff" stroke="#63b8ff" points="247.07,-83.88 242.44,-74.35 240.12,-84.69 247.07,-83.88"/>
</a>
</g>
</g>
<!-- Node19&#45;&gt;Node12 -->
<g id="edge36_Node000019_Node000012" class="edge">
<title>Node19&#45;&gt;Node12</title>
<g id="a_edge36_Node000019_Node000012"><a xlink:title=" ">
<path fill="none" stroke="#63b8ff" d="M661.17,-331.65C619.28,-323.11 545.78,-307.94 483,-294 403.45,-276.33 311.11,-254.39 257.35,-241.47"/>
<polygon fill="#63b8ff" stroke="#63b8ff" points="257.99,-238.02 247.45,-239.08 256.36,-244.83 257.99,-238.02"/>
</a>
</g>
</g>
<!-- Node19&#45;&gt;Node13 -->
<g id="edge35_Node000019_Node000013" class="edge">
<title>Node19&#45;&gt;Node13</title>
<g id="a_edge35_Node000019_Node000013"><a xlink:title=" ">
<path fill="none" stroke="#63b8ff" d="M676.87,-329.96C661.54,-322.12 639.65,-309.41 624,-294 596.07,-266.5 606.79,-244.26 576,-220 555.02,-203.47 527.43,-192.8 503.41,-186.08"/>
<polygon fill="#63b8ff" stroke="#63b8ff" points="504.28,-182.68 493.71,-183.51 502.49,-189.45 504.28,-182.68"/>
</a>
</g>
</g>
<!-- Node19&#45;&gt;Node18 -->
<g id="edge50_Node000019_Node000018" class="edge">
<title>Node19&#45;&gt;Node18</title>
<g id="a_edge50_Node000019_Node000018"><a xlink:title=" ">
<path fill="none" stroke="#63b8ff" d="M665.58,-329.94C599.29,-310.64 438.2,-263.74 363.39,-241.97"/>
<polygon fill="#63b8ff" stroke="#63b8ff" points="364,-238.5 353.42,-239.07 362.05,-245.22 364,-238.5"/>
</a>
</g>
</g>
<!-- Node20 -->
<g id="Node000020" class="node">
<title>Node20</title>
<g id="a_Node000020"><a xlink:href="MotorDriver_8hpp_source.html" target="_top" xlink:title=" ">
<polygon fill="white" stroke="#666666" points="898.5,-184 803.5,-184 803.5,-165 898.5,-165 898.5,-184"/>
<text text-anchor="middle" x="851" y="-172" font-family="Helvetica,sans-Serif" font-size="10.00">MotorDriver.hpp</text>
</a>
</g>
</g>
<!-- Node19&#45;&gt;Node20 -->
<g id="edge29_Node000019_Node000020" class="edge">
<title>Node19&#45;&gt;Node20</title>
<g id="a_edge29_Node000019_Node000020"><a xlink:title=" ">
<path fill="none" stroke="#63b8ff" d="M699.1,-329.98C709.59,-308.92 739.35,-253.64 778,-220 792.05,-207.77 809.87,-196.83 824.39,-188.87"/>
<polygon fill="#63b8ff" stroke="#63b8ff" points="826.2,-191.87 833.38,-184.07 822.91,-185.69 826.2,-191.87"/>
</a>
</g>
</g>
<!-- Node23 -->
<g id="Node000023" class="node">
<title>Node23</title>
<g id="a_Node000023"><a xlink:href="IrSensor_8hpp_source.html" target="_top" xlink:title=" ">
<polygon fill="white" stroke="#666666" points="993.5,-184 916.5,-184 916.5,-165 993.5,-165 993.5,-184"/>
<text text-anchor="middle" x="955" y="-172" font-family="Helvetica,sans-Serif" font-size="10.00">IrSensor.hpp</text>
</a>
</g>
</g>
<!-- Node19&#45;&gt;Node23 -->
<g id="edge37_Node000019_Node000023" class="edge">
<title>Node19&#45;&gt;Node23</title>
<g id="a_edge37_Node000019_Node000023"><a xlink:title=" ">
<path fill="none" stroke="#63b8ff" d="M728.78,-330.69C766.72,-321.53 825.56,-306.07 845,-294 867.69,-279.91 917.44,-221.28 941.47,-192.12"/>
<polygon fill="#63b8ff" stroke="#63b8ff" points="944.42,-194.05 948.05,-184.1 939,-189.61 944.42,-194.05"/>
</a>
</g>
</g>
<!-- Node24 -->
<g id="Node000024" class="node">
<title>Node24</title>
<g id="a_Node000024"><a xlink:href="LineFollower_8hpp_source.html" target="_top" xlink:title=" ">
<polygon fill="white" stroke="#666666" points="1032,-239 934,-239 934,-220 1032,-220 1032,-239"/>
<text text-anchor="middle" x="983" y="-227" font-family="Helvetica,sans-Serif" font-size="10.00">LineFollower.hpp</text>
</a>
</g>
</g>
<!-- Node19&#45;&gt;Node24 -->
<g id="edge40_Node000019_Node000024" class="edge">
<title>Node19&#45;&gt;Node24</title>
<g id="a_edge40_Node000019_Node000024"><a xlink:title=" ">
<path fill="none" stroke="#63b8ff" d="M728.72,-338.94C801.48,-339.11 969.52,-334.93 1005,-294 1016.41,-280.84 1007.03,-261.43 997.23,-247.54"/>
<polygon fill="#63b8ff" stroke="#63b8ff" points="999.8,-245.14 990.94,-239.33 994.24,-249.4 999.8,-245.14"/>
</a>
</g>
</g>
<!-- Node25 -->
<g id="Node000025" class="node">
<title>Node25</title>
<g id="a_Node000025"><a xlink:href="BuggyState_8hpp_source.html" target="_top" xlink:title=" ">
<polygon fill="white" stroke="#666666" points="836,-294 742,-294 742,-275 836,-275 836,-294"/>
<text text-anchor="middle" x="789" y="-282" font-family="Helvetica,sans-Serif" font-size="10.00">BuggyState.hpp</text>
</a>
</g>
</g>
<!-- Node19&#45;&gt;Node25 -->
<g id="edge44_Node000019_Node000025" class="edge">
<title>Node19&#45;&gt;Node25</title>
<g id="a_edge44_Node000019_Node000025"><a xlink:title=" ">
<path fill="none" stroke="#63b8ff" d="M704.99,-329.98C718.05,-321.57 740.81,-308.59 759.45,-298.81"/>
<polygon fill="#63b8ff" stroke="#63b8ff" points="761.18,-301.86 768.47,-294.17 757.98,-295.63 761.18,-301.86"/>
</a>
</g>
</g>
<!-- Node26 -->
<g id="Node000026" class="node">
<title>Node26</title>
<g id="a_Node000026"><a xlink:href="UltrasonicSensor_8hpp_source.html" target="_top" xlink:title=" ">
<polygon fill="white" stroke="#666666" points="785.5,-184 666.5,-184 666.5,-165 785.5,-165 785.5,-184"/>
<text text-anchor="middle" x="726" y="-172" font-family="Helvetica,sans-Serif" font-size="10.00">UltrasonicSensor.hpp</text>
</a>
</g>
</g>
<!-- Node19&#45;&gt;Node26 -->
<g id="edge46_Node000019_Node000026" class="edge">
<title>Node19&#45;&gt;Node26</title>
<g id="a_edge46_Node000019_Node000026"><a xlink:title=" ">
<path fill="none" stroke="#63b8ff" d="M693.98,-329.94C691.91,-310.12 688.34,-259.71 700,-220 702.86,-210.25 708.3,-200.39 713.47,-192.44"/>
<polygon fill="#63b8ff" stroke="#63b8ff" points="716.42,-194.32 719.24,-184.11 710.67,-190.34 716.42,-194.32"/>
</a>
</g>
</g>
<!-- Node19&#45;&gt;Node27 -->
<g id="edge52_Node000019_Node000027" class="edge">
<title>Node19&#45;&gt;Node27</title>
<g id="a_edge52_Node000019_Node000027"><a xlink:title=" ">
<path fill="none" stroke="#63b8ff" d="M728.62,-334.3C804.49,-324.81 989,-301.75 1074.34,-291.08"/>
<polygon fill="#63b8ff" stroke="#63b8ff" points="1075,-294.53 1084.49,-289.81 1074.13,-287.58 1075,-294.53"/>
</a>
</g>
</g>
<!-- Node19&#45;&gt;Node29 -->
<g id="edge55_Node000019_Node000029" class="edge">
<title>Node19&#45;&gt;Node29</title>
<g id="a_edge55_Node000019_Node000029"><a xlink:title=" ">
<path fill="none" stroke="#63b8ff" d="M728.58,-331.35C771.18,-322.29 845,-306.57 894.17,-296.11"/>
<polygon fill="#63b8ff" stroke="#63b8ff" points="894.91,-299.53 903.97,-294.02 893.46,-292.68 894.91,-299.53"/>
</a>
</g>
</g>
<!-- Node20&#45;&gt;Node5 -->
<g id="edge30_Node000020_Node000005" class="edge">
<title>Node20&#45;&gt;Node5</title>
<g id="a_edge30_Node000020_Node000005"><a xlink:title=" ">
<path fill="none" stroke="#63b8ff" d="M820.15,-164.98C787.5,-155.97 735.8,-141.7 699.8,-131.76"/>
<polygon fill="#63b8ff" stroke="#63b8ff" points="700.66,-128.37 690.09,-129.08 698.8,-135.12 700.66,-128.37"/>
</a>
</g>
</g>
<!-- Node20&#45;&gt;Node21 -->
<g id="edge31_Node000020_Node000021" class="edge">
<title>Node20&#45;&gt;Node21</title>
<g id="a_edge31_Node000020_Node000021"><a xlink:title=" ">
<path fill="none" stroke="#63b8ff" d="M881.21,-164.98C913.04,-156.01 963.36,-141.82 998.6,-131.89"/>
<polygon fill="#63b8ff" stroke="#63b8ff" points="999.88,-135.16 1008.56,-129.08 997.98,-128.43 999.88,-135.16"/>
</a>
</g>
</g>
<!-- Node22 -->
<g id="Node000022" class="node">
<title>Node22</title>
<g id="a_Node000022"><a xlink:href="MoveMeanFilter_8hpp_source.html" target="_top" xlink:title=" ">
<polygon fill="white" stroke="#666666" points="871,-129 755,-129 755,-110 871,-110 871,-129"/>
<text text-anchor="middle" x="813" y="-117" font-family="Helvetica,sans-Serif" font-size="10.00">MoveMeanFilter.hpp</text>
</a>
</g>
</g>
<!-- Node20&#45;&gt;Node22 -->
<g id="edge32_Node000020_Node000022" class="edge">
<title>Node20&#45;&gt;Node22</title>
<g id="a_edge32_Node000020_Node000022"><a xlink:title=" ">
<path fill="none" stroke="#63b8ff" d="M844.73,-164.75C839.41,-157.34 831.64,-146.5 825.12,-137.41"/>
<polygon fill="#63b8ff" stroke="#63b8ff" points="827.83,-135.18 819.16,-129.09 822.14,-139.26 827.83,-135.18"/>
</a>
</g>
</g>
<!-- Node22&#45;&gt;Node2 -->
<g id="edge33_Node000022_Node000002" class="edge">
<title>Node22&#45;&gt;Node2</title>
<g id="a_edge33_Node000022_Node000002"><a xlink:title=" ">
<path fill="none" stroke="#63b8ff" d="M799.18,-109.98C785.85,-101.77 765.42,-89.18 749.69,-79.49"/>
<polygon fill="#63b8ff" stroke="#63b8ff" points="751.42,-76.44 741.07,-74.17 747.75,-82.4 751.42,-76.44"/>
</a>
</g>
</g>
<!-- Node22&#45;&gt;Node6 -->
<g id="edge34_Node000022_Node000006" class="edge">
<title>Node22&#45;&gt;Node6</title>
<g id="a_edge34_Node000022_Node000006"><a xlink:title=" ">
<path fill="none" stroke="#63b8ff" d="M754.84,-113.1C649.58,-103.33 427.79,-82.75 313.47,-72.13"/>
<polygon fill="#63b8ff" stroke="#63b8ff" points="313.7,-68.64 303.42,-71.2 313.06,-75.61 313.7,-68.64"/>
</a>
</g>
</g>
<!-- Node23&#45;&gt;Node2 -->
<g id="edge38_Node000023_Node000002" class="edge">
<title>Node23&#45;&gt;Node2</title>
<g id="a_edge38_Node000023_Node000002"><a xlink:title=" ">
<path fill="none" stroke="#63b8ff" d="M947.1,-164.78C934.3,-151.16 907.66,-124.85 880,-110 844.7,-91.05 800.38,-79.3 768.53,-72.66"/>
<polygon fill="#63b8ff" stroke="#63b8ff" points="769.15,-69.22 758.66,-70.69 767.78,-76.08 769.15,-69.22"/>
</a>
</g>
</g>
<!-- Node24&#45;&gt;Node20 -->
<g id="edge41_Node000024_Node000020" class="edge">
<title>Node24&#45;&gt;Node20</title>
<g id="a_edge41_Node000024_Node000020"><a xlink:title=" ">
<path fill="none" stroke="#63b8ff" d="M961.79,-219.98C940.27,-211.34 906.72,-197.87 882.17,-188.02"/>
<polygon fill="#63b8ff" stroke="#63b8ff" points="883.18,-184.65 872.59,-184.17 880.57,-191.14 883.18,-184.65"/>
</a>
</g>
</g>
<!-- Node24&#45;&gt;Node21 -->
<g id="edge43_Node000024_Node000021" class="edge">
<title>Node24&#45;&gt;Node21</title>
<g id="a_edge43_Node000024_Node000021"><a xlink:title=" ">
<path fill="none" stroke="#63b8ff" d="M987.58,-219.66C996.78,-201.93 1017.62,-161.73 1029.76,-138.32"/>
<polygon fill="#63b8ff" stroke="#63b8ff" points="1033.01,-139.65 1034.51,-129.16 1026.8,-136.42 1033.01,-139.65"/>
</a>
</g>
</g>
<!-- Node24&#45;&gt;Node23 -->
<g id="edge42_Node000024_Node000023" class="edge">
<title>Node24&#45;&gt;Node23</title>
<g id="a_edge42_Node000024_Node000023"><a xlink:title=" ">
<path fill="none" stroke="#63b8ff" d="M978.38,-219.75C974.54,-212.49 968.98,-201.95 964.24,-192.98"/>
<polygon fill="#63b8ff" stroke="#63b8ff" points="967.3,-191.3 959.54,-184.09 961.11,-194.57 967.3,-191.3"/>
</a>
</g>
</g>
<!-- Node25&#45;&gt;Node19 -->
<g id="edge45_Node000025_Node000019" class="edge">
<title>Node25&#45;&gt;Node19</title>
<g id="a_edge45_Node000025_Node000019"><a xlink:title=" ">
<path fill="none" stroke="#63b8ff" d="M778.77,-294.17C765.59,-302.64 742.8,-315.63 724.21,-325.37"/>
<polygon fill="#63b8ff" stroke="#63b8ff" points="722.52,-322.3 715.22,-329.98 725.71,-328.53 722.52,-322.3"/>
</a>
</g>
</g>
<!-- Node26&#45;&gt;Node2 -->
<g id="edge47_Node000026_Node000002" class="edge">
<title>Node26&#45;&gt;Node2</title>
<g id="a_edge47_Node000026_Node000002"><a xlink:title=" ">
<path fill="none" stroke="#63b8ff" d="M726.08,-164.66C726.24,-147.17 726.61,-107.8 726.83,-84.27"/>
<polygon fill="#63b8ff" stroke="#63b8ff" points="730.33,-84.19 726.92,-74.16 723.33,-84.13 730.33,-84.19"/>
</a>
</g>
</g>
<!-- Node26&#45;&gt;Node5 -->
<g id="edge48_Node000026_Node000005" class="edge">
<title>Node26&#45;&gt;Node5</title>
<g id="a_edge48_Node000026_Node000005"><a xlink:title=" ">
<path fill="none" stroke="#63b8ff" d="M715.24,-164.98C705.23,-157.07 690.11,-145.11 678.07,-135.58"/>
<polygon fill="#63b8ff" stroke="#63b8ff" points="679.97,-132.63 669.96,-129.17 675.63,-138.12 679.97,-132.63"/>
</a>
</g>
</g>
<!-- Node26&#45;&gt;Node22 -->
<g id="edge49_Node000026_Node000022" class="edge">
<title>Node26&#45;&gt;Node22</title>
<g id="a_edge49_Node000026_Node000022"><a xlink:title=" ">
<path fill="none" stroke="#63b8ff" d="M739.98,-164.98C753.47,-156.77 774.13,-144.18 790.04,-134.49"/>
<polygon fill="#63b8ff" stroke="#63b8ff" points="792.05,-137.36 798.77,-129.17 788.41,-131.38 792.05,-137.36"/>
</a>
</g>
</g>
<!-- Node27&#45;&gt;Node2 -->
<g id="edge53_Node000027_Node000002" class="edge">
<title>Node27&#45;&gt;Node2</title>
<g id="a_edge53_Node000027_Node000002"><a xlink:title=" ">
<path fill="none" stroke="#63b8ff" d="M1153.81,-277.05C1188.57,-268.74 1234.99,-251.45 1221,-220 1191.33,-153.29 1165.47,-140.2 1099,-110 1040.87,-83.59 853.14,-71.52 768.76,-67.32"/>
<polygon fill="#63b8ff" stroke="#63b8ff" points="768.91,-63.83 758.76,-66.84 768.57,-70.82 768.91,-63.83"/>
</a>
</g>
</g>
<!-- Node28 -->
<g id="Node000028" class="node">
<title>Node28</title>
<g id="a_Node000028"><a xlink:title=" ">
<polygon fill="#e0e0e0" stroke="#999999" points="1212,-239 1088,-239 1088,-220 1212,-220 1212,-239"/>
<text text-anchor="middle" x="1150" y="-227" font-family="Helvetica,sans-Serif" font-size="10.00">Arduino_LED_Matrix.h</text>
</a>
</g>
</g>
<!-- Node27&#45;&gt;Node28 -->
<g id="edge54_Node000027_Node000028" class="edge">
<title>Node27&#45;&gt;Node28</title>
<g id="a_edge54_Node000027_Node000028"><a xlink:title=" ">
<path fill="none" stroke="#63b8ff" d="M1124.12,-274.75C1128.36,-267.49 1134.53,-256.95 1139.78,-247.98"/>
<polygon fill="#63b8ff" stroke="#63b8ff" points="1142.95,-249.49 1144.98,-239.09 1136.91,-245.95 1142.95,-249.49"/>
</a>
</g>
</g>
<!-- Node29&#45;&gt;Node20 -->
<g id="edge56_Node000029_Node000020" class="edge">
<title>Node29&#45;&gt;Node20</title>
<g id="a_edge56_Node000029_Node000020"><a xlink:title=" ">
<path fill="none" stroke="#63b8ff" d="M936.39,-274.66C920.78,-256.54 884.94,-214.91 865.01,-191.77"/>
<polygon fill="#63b8ff" stroke="#63b8ff" points="867.63,-189.45 858.46,-184.16 862.33,-194.02 867.63,-189.45"/>
</a>
</g>
</g>
<!-- Node29&#45;&gt;Node21 -->
<g id="edge58_Node000029_Node000021" class="edge">
<title>Node29&#45;&gt;Node21</title>
<g id="a_edge58_Node000029_Node000021"><a xlink:title=" ">
<path fill="none" stroke="#63b8ff" d="M987.13,-274.93C1007.12,-268.57 1029.05,-257.64 1041,-239 1060.64,-208.37 1052.2,-163.52 1045.09,-138.7"/>
<polygon fill="#63b8ff" stroke="#63b8ff" points="1048.42,-137.63 1042.12,-129.11 1041.74,-139.7 1048.42,-137.63"/>
</a>
</g>
</g>
<!-- Node29&#45;&gt;Node23 -->
<g id="edge57_Node000029_Node000023" class="edge">
<title>Node29&#45;&gt;Node23</title>
<g id="a_edge57_Node000029_Node000023"><a xlink:title=" ">
<path fill="none" stroke="#63b8ff" d="M938.12,-274.86C930.54,-262.64 919.01,-239.59 925,-220 928.09,-209.9 934.32,-200.02 940.31,-192.15"/>
<polygon fill="#63b8ff" stroke="#63b8ff" points="943.18,-194.16 946.79,-184.2 937.76,-189.74 943.18,-194.16"/>
</a>
</g>
</g>
<!-- Node29&#45;&gt;Node24 -->
<g id="edge59_Node000029_Node000024" class="edge">
<title>Node29&#45;&gt;Node24</title>
<g id="a_edge59_Node000029_Node000024"><a xlink:title=" ">
<path fill="none" stroke="#63b8ff" d="M950.44,-274.75C955.89,-267.34 963.86,-256.5 970.56,-247.41"/>
<polygon fill="#63b8ff" stroke="#63b8ff" points="973.57,-249.22 976.68,-239.09 967.93,-245.07 973.57,-249.22"/>
</a>
</g>
</g>
<!-- Node29&#45;&gt;Node26 -->
<g id="edge60_Node000029_Node000026" class="edge">
<title>Node29&#45;&gt;Node26</title>
<g id="a_edge60_Node000029_Node000026"><a xlink:title=" ">
<path fill="none" stroke="#63b8ff" d="M926.53,-274.84C888.41,-255.96 797.57,-210.96 752.41,-188.59"/>
<polygon fill="#63b8ff" stroke="#63b8ff" points="753.77,-185.35 743.25,-184.05 750.66,-191.62 753.77,-185.35"/>
</a>
</g>
</g>
</g>
</svg>

<g id="navigator" transform="translate(0 0)" fill="#404254">
  <rect fill="#f2f5e9" fill-opacity="0.5" stroke="#606060" stroke-width=".5" x="0" y="0" width="60" height="60"/>
  <use id="zoomplus" xlink:href="#zoomPlus" x="17" y="9" onmousedown="handleZoom(evt,'in')"/>
  <use id="zoomminus" xlink:href="#zoomMin" x="42" y="9" onmousedown="handleZoom(evt,'out')"/>
  <use id="reset" xlink:href="#resetDef" x="30" y="36" onmousedown="handleReset()"/>
   <use id="arrowup" xlink:href="#arrowUp" x="0" y="0" onmousedown="handlePan(0,-1)"/>
  <use id="arrowright" xlink:href="#arrowRight" x="0" y="0" onmousedown="handlePan(1,0)"/>
  <use id="arrowdown" xlink:href="#arrowDown" x="0" y="0" onmousedown="handlePan(0,1)"/>
  <use id="arrowleft" xlink:href="#arrowLeft" x="0" y="0" onmousedown="handlePan(-1,0)"/>
</g>
<svg viewBox="0 0 15 15" width="100%" height="30px" preserveAspectRatio="xMaxYMin meet">
 <g id="arrow_out" transform="scale(0.3 0.3)">
  <a xlink:href="BuggySoftware_8ino__incl_org.svg" target="_base">
   <rect id="button" ry="5" rx="5" y="6" x="6" height="38" width="38"
        fill="#f2f5e9" fill-opacity="0.5" stroke="#606060" stroke-width="1.0"/>
   <path id="arrow"
     d="M 11.500037,31.436501 C 11.940474,20.09759 22.043105,11.32322 32.158766,21.979434 L 37.068811,17.246167 C 37.068811,17.246167 37.088388,32 37.088388,32 L 22.160133,31.978069 C 22.160133,31.978069 26.997745,27.140456 26.997745,27.140456 C 18.528582,18.264221 13.291696,25.230495 11.500037,31.436501 z"
     style="fill:#404040;"/>
  </a>
 </g>
</svg>

<style type='text/css'>
<![CDATA[
[data-mouse-over-selected='false'] { opacity: 0.7; }
[data-mouse-over-selected='true']  { opacity: 1.0; }
]]>
</style>
<script type="application/ecmascript"><![CDATA[
document.addEventListener('DOMContentLoaded', (event) => {
  highlightEdges();
  highlightAdjacentNodes();
});
]]></script>
</svg>
