<?xml version="1.0" encoding="UTF-8" standalone="no"?>
<!DOCTYPE svg PUBLIC "-//W3C//DTD SVG 1.1//EN"
 "http://www.w3.org/Graphics/SVG/1.1/DTD/svg11.dtd">
<!-- Generated by graphviz version 2.43.0 (0)
 -->
<!-- Title: BuggySoftware/BuggySoftware.ino Pages: 1 -->
<svg width="1397pt" height="412pt"
 viewBox="0.00 0.00 1397.02 412.00" xmlns="http://www.w3.org/2000/svg" xmlns:xlink="http://www.w3.org/1999/xlink">
<g id="graph0" class="graph" transform="scale(1 1) rotate(0) translate(4 408)">
<title>BuggySoftware/BuggySoftware.ino</title>
<!-- Node1 -->
<g id="Node000001" class="node">
<title>Node1</title>
<g id="a_Node000001"><a xlink:title="This is the main entry point for the Buggy software.">
<polygon fill="#999999" stroke="#666666" points="862.52,-404 677.52,-404 677.52,-385 862.52,-385 862.52,-404"/>
<text text-anchor="middle" x="770.02" y="-392" font-family="Helvetica,sans-Serif" font-size="10.00">BuggySoftware/BuggySoftware.ino</text>
</a>
</g>
</g>
<!-- Node2 -->
<g id="Node000002" class="node">
<title>Node2</title>
<g id="a_Node000002"><a xlink:title=" ">
<polygon fill="#e0e0e0" stroke="#999999" points="818.52,-74 755.52,-74 755.52,-55 818.52,-55 818.52,-74"/>
<text text-anchor="middle" x="787.02" y="-62" font-family="Helvetica,sans-Serif" font-size="10.00">Arduino.h</text>
</a>
</g>
</g>
<!-- Node1&#45;&gt;Node2 -->
<g id="edge1_Node000001_Node000002" class="edge">
<title>Node1&#45;&gt;Node2</title>
<g id="a_edge1_Node000001_Node000002"><a xlink:title=" ">
<path fill="none" stroke="#63b8ff" d="M862.94,-392.2C956.77,-389.1 1105.27,-379.29 1230.02,-349 1303.97,-331.05 1389.02,-361.59 1389.02,-285.5 1389.02,-285.5 1389.02,-285.5 1389.02,-173.5 1389.02,-116.45 964.8,-79.08 828.59,-68.55"/>
<polygon fill="#63b8ff" stroke="#63b8ff" points="828.78,-65.05 818.54,-67.78 828.25,-72.03 828.78,-65.05"/>
</a>
</g>
</g>
<!-- Node3 -->
<g id="Node000003" class="node">
<title>Node3</title>
<g id="a_Node000003"><a xlink:href="Timer1_8hpp.html" target="_top" xlink:title="Setup methods for Timer1.">
<polygon fill="white" stroke="#666666" points="101.02,-349 29.02,-349 29.02,-330 101.02,-330 101.02,-349"/>
<text text-anchor="middle" x="65.02" y="-337" font-family="Helvetica,sans-Serif" font-size="10.00">Timer1.hpp</text>
</a>
</g>
</g>
<!-- Node1&#45;&gt;Node3 -->
<g id="edge2_Node000001_Node000003" class="edge">
<title>Node1&#45;&gt;Node3</title>
<g id="a_edge2_Node000001_Node000003"><a xlink:title=" ">
<path fill="none" stroke="#63b8ff" d="M677.28,-390.14C550.12,-384.86 314.65,-372.69 115.02,-349 113.77,-348.85 112.5,-348.69 111.22,-348.53"/>
<polygon fill="#63b8ff" stroke="#63b8ff" points="111.68,-345.06 101.28,-347.1 110.69,-351.98 111.68,-345.06"/>
</a>
</g>
</g>
<!-- Node5 -->
<g id="Node000005" class="node">
<title>Node5</title>
<g id="a_Node000005"><a xlink:href="PinSetup_8hpp_source.html" target="_top" xlink:title=" ">
<polygon fill="white" stroke="#666666" points="759.02,-129 679.02,-129 679.02,-110 759.02,-110 759.02,-129"/>
<text text-anchor="middle" x="719.02" y="-117" font-family="Helvetica,sans-Serif" font-size="10.00">PinSetup.hpp</text>
</a>
</g>
</g>
<!-- Node1&#45;&gt;Node5 -->
<g id="edge4_Node000001_Node000005" class="edge">
<title>Node1&#45;&gt;Node5</title>
<g id="a_edge4_Node000001_Node000005"><a xlink:title=" ">
<path fill="none" stroke="#63b8ff" d="M731.42,-384.93C687.59,-372.91 618.16,-346.38 587.02,-294 549.13,-230.26 646.57,-162.45 694.38,-134.14"/>
<polygon fill="#63b8ff" stroke="#63b8ff" points="696.32,-137.06 703.22,-129.02 692.81,-131 696.32,-137.06"/>
</a>
</g>
</g>
<!-- Node6 -->
<g id="Node000006" class="node">
<title>Node6</title>
<g id="a_Node000006"><a xlink:href="EmbeddedLogger_8hpp.html" target="_top" xlink:title=" ">
<polygon fill="white" stroke="#666666" points="222.02,-74 100.02,-74 100.02,-55 222.02,-55 222.02,-74"/>
<text text-anchor="middle" x="161.02" y="-62" font-family="Helvetica,sans-Serif" font-size="10.00">EmbeddedLogger.hpp</text>
</a>
</g>
</g>
<!-- Node1&#45;&gt;Node6 -->
<g id="edge6_Node000001_Node000006" class="edge">
<title>Node1&#45;&gt;Node6</title>
<g id="a_edge6_Node000001_Node000006"><a xlink:title=" ">
<path fill="none" stroke="#63b8ff" d="M677.26,-393.85C487.9,-393.74 70.42,-388.9 20.02,-349 -3.07,-330.71 1.02,-314.96 1.02,-285.5 1.02,-285.5 1.02,-285.5 1.02,-173.5 1.02,-143.17 3.98,-130.83 26.02,-110 43.6,-93.39 67.51,-82.98 90.32,-76.45"/>
<polygon fill="#63b8ff" stroke="#63b8ff" points="91.23,-79.83 100,-73.88 89.44,-73.06 91.23,-79.83"/>
</a>
</g>
</g>
<!-- Node9 -->
<g id="Node000009" class="node">
<title>Node9</title>
<g id="a_Node000009"><a xlink:href="SerialWirelessLogger_8hpp_source.html" target="_top" xlink:title=" ">
<polygon fill="white" stroke="#666666" points="443.02,-349 303.02,-349 303.02,-330 443.02,-330 443.02,-349"/>
<text text-anchor="middle" x="373.02" y="-337" font-family="Helvetica,sans-Serif" font-size="10.00">SerialWirelessLogger.hpp</text>
</a>
</g>
</g>
<!-- Node1&#45;&gt;Node9 -->
<g id="edge9_Node000001_Node000009" class="edge">
<title>Node1&#45;&gt;Node9</title>
<g id="a_edge9_Node000001_Node000009"><a xlink:title=" ">
<path fill="none" stroke="#63b8ff" d="M706.24,-384.98C635.59,-375.55 521.82,-360.36 447.24,-350.41"/>
<polygon fill="#63b8ff" stroke="#63b8ff" points="447.35,-346.89 436.98,-349.04 446.43,-353.83 447.35,-346.89"/>
</a>
</g>
</g>
<!-- Node18 -->
<g id="Node000018" class="node">
<title>Node18</title>
<g id="a_Node000018"><a xlink:href="PacketFactory_8hpp_source.html" target="_top" xlink:title=" ">
<polygon fill="white" stroke="#666666" points="330.52,-239 227.52,-239 227.52,-220 330.52,-220 330.52,-239"/>
<text text-anchor="middle" x="279.02" y="-227" font-family="Helvetica,sans-Serif" font-size="10.00">PacketFactory.hpp</text>
</a>
</g>
</g>
<!-- Node1&#45;&gt;Node18 -->
<g id="edge63_Node000001_Node000018" class="edge">
<title>Node1&#45;&gt;Node18</title>
<g id="a_edge63_Node000001_Node000018"><a xlink:title=" ">
<path fill="none" stroke="#63b8ff" d="M677.48,-393.59C525.89,-391.35 236.38,-376.15 186.02,-294 171.14,-269.71 203.33,-252.5 233.84,-242.17"/>
<polygon fill="#63b8ff" stroke="#63b8ff" points="235.15,-245.43 243.62,-239.07 233.03,-238.76 235.15,-245.43"/>
</a>
</g>
</g>
<!-- Node19 -->
<g id="Node000019" class="node">
<title>Node19</title>
<g id="a_Node000019"><a xlink:href="Buggy_8hpp_source.html" target="_top" xlink:title=" ">
<polygon fill="white" stroke="#666666" points="803.52,-349 736.52,-349 736.52,-330 803.52,-330 803.52,-349"/>
<text text-anchor="middle" x="770.02" y="-337" font-family="Helvetica,sans-Serif" font-size="10.00">Buggy.hpp</text>
</a>
</g>
</g>
<!-- Node1&#45;&gt;Node19 -->
<g id="edge28_Node000001_Node000019" class="edge">
<title>Node1&#45;&gt;Node19</title>
<g id="a_edge28_Node000001_Node000019"><a xlink:title=" ">
<path fill="none" stroke="#63b8ff" d="M770.02,-384.75C770.02,-377.8 770.02,-367.85 770.02,-359.13"/>
<polygon fill="#63b8ff" stroke="#63b8ff" points="773.52,-359.09 770.02,-349.09 766.52,-359.09 773.52,-359.09"/>
</a>
</g>
</g>
<!-- Node21 -->
<g id="Node000021" class="node">
<title>Node21</title>
<g id="a_Node000021"><a xlink:href="PIDController_8hpp_source.html" target="_top" xlink:title=" ">
<polygon fill="white" stroke="#666666" points="1142.52,-129 1041.52,-129 1041.52,-110 1142.52,-110 1142.52,-129"/>
<text text-anchor="middle" x="1092.02" y="-117" font-family="Helvetica,sans-Serif" font-size="10.00">PIDController.hpp</text>
</a>
</g>
</g>
<!-- Node1&#45;&gt;Node21 -->
<g id="edge62_Node000001_Node000021" class="edge">
<title>Node1&#45;&gt;Node21</title>
<g id="a_edge62_Node000001_Node000021"><a xlink:title=" ">
<path fill="none" stroke="#63b8ff" d="M862.73,-385.68C1026.76,-370.59 1351.02,-334.55 1351.02,-285.5 1351.02,-285.5 1351.02,-285.5 1351.02,-228.5 1351.02,-142.94 1229.14,-123.95 1152.6,-120.45"/>
<polygon fill="#63b8ff" stroke="#63b8ff" points="1152.7,-116.95 1142.58,-120.07 1152.44,-123.95 1152.7,-116.95"/>
</a>
</g>
</g>
<!-- Node27 -->
<g id="Node000027" class="node">
<title>Node27</title>
<g id="a_Node000027"><a xlink:href="Matrix_8hpp_source.html" target="_top" xlink:title=" ">
<polygon fill="white" stroke="#666666" points="1122.52,-294 1053.52,-294 1053.52,-275 1122.52,-275 1122.52,-294"/>
<text text-anchor="middle" x="1088.02" y="-282" font-family="Helvetica,sans-Serif" font-size="10.00">Matrix.hpp</text>
</a>
</g>
</g>
<!-- Node1&#45;&gt;Node27 -->
<g id="edge64_Node000001_Node000027" class="edge">
<title>Node1&#45;&gt;Node27</title>
<g id="a_edge64_Node000001_Node000027"><a xlink:title=" ">
<path fill="none" stroke="#63b8ff" d="M795.24,-384.94C851.72,-365.76 988.45,-319.32 1053.07,-297.37"/>
<polygon fill="#63b8ff" stroke="#63b8ff" points="1054.46,-300.6 1062.8,-294.07 1052.21,-293.97 1054.46,-300.6"/>
</a>
</g>
</g>
<!-- Node29 -->
<g id="Node000029" class="node">
<title>Node29</title>
<g id="a_Node000029"><a xlink:href="CruiseControl_8hpp_source.html" target="_top" xlink:title=" ">
<polygon fill="white" stroke="#666666" points="1035.02,-294 931.02,-294 931.02,-275 1035.02,-275 1035.02,-294"/>
<text text-anchor="middle" x="983.02" y="-282" font-family="Helvetica,sans-Serif" font-size="10.00">CruiseControl.hpp</text>
</a>
</g>
</g>
<!-- Node1&#45;&gt;Node29 -->
<g id="edge65_Node000001_Node000029" class="edge">
<title>Node1&#45;&gt;Node29</title>
<g id="a_edge65_Node000001_Node000029"><a xlink:title=" ">
<path fill="none" stroke="#63b8ff" d="M787.09,-384.84C824.34,-365.96 913.1,-320.96 957.22,-298.59"/>
<polygon fill="#63b8ff" stroke="#63b8ff" points="958.83,-301.69 966.17,-294.05 955.67,-295.45 958.83,-301.69"/>
</a>
</g>
</g>
<!-- Node30 -->
<g id="Node000030" class="node">
<title>Node30</title>
<g id="a_Node000030"><a xlink:href="Scheduler_8hpp_source.html" target="_top" xlink:title=" ">
<polygon fill="white" stroke="#666666" points="1225.52,-294 1140.52,-294 1140.52,-275 1225.52,-275 1225.52,-294"/>
<text text-anchor="middle" x="1183.02" y="-282" font-family="Helvetica,sans-Serif" font-size="10.00">Scheduler.hpp</text>
</a>
</g>
</g>
<!-- Node1&#45;&gt;Node30 -->
<g id="edge66_Node000001_Node000030" class="edge">
<title>Node1&#45;&gt;Node30</title>
<g id="a_edge66_Node000001_Node000030"><a xlink:title=" ">
<path fill="none" stroke="#63b8ff" d="M803.53,-384.95C838.39,-376.05 894.56,-361.64 943.02,-349 1012.52,-330.87 1093.24,-309.43 1141.12,-296.68"/>
<polygon fill="#63b8ff" stroke="#63b8ff" points="1142.06,-300.05 1150.82,-294.1 1140.26,-293.29 1142.06,-300.05"/>
</a>
</g>
</g>
<!-- Node4 -->
<g id="Node000004" class="node">
<title>Node4</title>
<g id="a_Node000004"><a xlink:title=" ">
<polygon fill="#e0e0e0" stroke="#999999" points="100.52,-294 29.52,-294 29.52,-275 100.52,-275 100.52,-294"/>
<text text-anchor="middle" x="65.02" y="-282" font-family="Helvetica,sans-Serif" font-size="10.00">FspTimer.h</text>
</a>
</g>
</g>
<!-- Node3&#45;&gt;Node4 -->
<g id="edge3_Node000003_Node000004" class="edge">
<title>Node3&#45;&gt;Node4</title>
<g id="a_edge3_Node000003_Node000004"><a xlink:title=" ">
<path fill="none" stroke="#63b8ff" d="M65.02,-329.75C65.02,-322.8 65.02,-312.85 65.02,-304.13"/>
<polygon fill="#63b8ff" stroke="#63b8ff" points="68.52,-304.09 65.02,-294.09 61.52,-304.09 68.52,-304.09"/>
</a>
</g>
</g>
<!-- Node5&#45;&gt;Node2 -->
<g id="edge5_Node000005_Node000002" class="edge">
<title>Node5&#45;&gt;Node2</title>
<g id="a_edge5_Node000005_Node000002"><a xlink:title=" ">
<path fill="none" stroke="#63b8ff" d="M729.95,-109.98C740.1,-102.07 755.45,-90.11 767.67,-80.58"/>
<polygon fill="#63b8ff" stroke="#63b8ff" points="770.16,-83.08 775.9,-74.17 765.86,-77.56 770.16,-83.08"/>
</a>
</g>
</g>
<!-- Node7 -->
<g id="Node000007" class="node">
<title>Node7</title>
<g id="a_Node000007"><a xlink:title=" ">
<polygon fill="#e0e0e0" stroke="#999999" points="151.52,-19 98.52,-19 98.52,0 151.52,0 151.52,-19"/>
<text text-anchor="middle" x="125.02" y="-7" font-family="Helvetica,sans-Serif" font-size="10.00">stdint.h</text>
</a>
</g>
</g>
<!-- Node6&#45;&gt;Node7 -->
<g id="edge7_Node000006_Node000007" class="edge">
<title>Node6&#45;&gt;Node7</title>
<g id="a_edge7_Node000006_Node000007"><a xlink:title=" ">
<path fill="none" stroke="#63b8ff" d="M155.08,-54.75C150.05,-47.34 142.69,-36.5 136.51,-27.41"/>
<polygon fill="#63b8ff" stroke="#63b8ff" points="139.37,-25.39 130.86,-19.09 133.58,-29.33 139.37,-25.39"/>
</a>
</g>
</g>
<!-- Node8 -->
<g id="Node000008" class="node">
<title>Node8</title>
<g id="a_Node000008"><a xlink:title=" ">
<polygon fill="#e0e0e0" stroke="#999999" points="226.02,-19 170.02,-19 170.02,0 226.02,0 226.02,-19"/>
<text text-anchor="middle" x="198.02" y="-7" font-family="Helvetica,sans-Serif" font-size="10.00">stddef.h</text>
</a>
</g>
</g>
<!-- Node6&#45;&gt;Node8 -->
<g id="edge8_Node000006_Node000008" class="edge">
<title>Node6&#45;&gt;Node8</title>
<g id="a_edge8_Node000006_Node000008"><a xlink:title=" ">
<path fill="none" stroke="#63b8ff" d="M167.13,-54.75C172.31,-47.34 179.87,-36.5 186.22,-27.41"/>
<polygon fill="#63b8ff" stroke="#63b8ff" points="189.17,-29.29 192.03,-19.09 183.43,-25.29 189.17,-29.29"/>
</a>
</g>
</g>
<!-- Node9&#45;&gt;Node2 -->
<g id="edge25_Node000009_Node000002" class="edge">
<title>Node9&#45;&gt;Node2</title>
<g id="a_edge25_Node000009_Node000002"><a xlink:title=" ">
<path fill="none" stroke="#63b8ff" d="M380.97,-329.97C395.65,-313.68 426.91,-276.42 442.02,-239 463.78,-185.14 421.44,-150.56 463.02,-110 502.31,-71.68 667.03,-65.86 745.33,-65.3"/>
<polygon fill="#63b8ff" stroke="#63b8ff" points="745.35,-68.8 755.34,-65.26 745.32,-61.8 745.35,-68.8"/>
</a>
</g>
</g>
<!-- Node10 -->
<g id="Node000010" class="node">
<title>Node10</title>
<g id="a_Node000010"><a xlink:href="SerialLogger_8hpp_source.html" target="_top" xlink:title=" ">
<polygon fill="white" stroke="#666666" points="133.02,-129 35.02,-129 35.02,-110 133.02,-110 133.02,-129"/>
<text text-anchor="middle" x="84.02" y="-117" font-family="Helvetica,sans-Serif" font-size="10.00">SerialLogger.hpp</text>
</a>
</g>
</g>
<!-- Node9&#45;&gt;Node10 -->
<g id="edge10_Node000009_Node000010" class="edge">
<title>Node9&#45;&gt;Node10</title>
<g id="a_edge10_Node000009_Node000010"><a xlink:title=" ">
<path fill="none" stroke="#63b8ff" d="M302.59,-334.95C264.94,-329.98 219.57,-318.79 186.02,-294 131.53,-253.72 101.06,-174.9 89.49,-139.05"/>
<polygon fill="#63b8ff" stroke="#63b8ff" points="92.8,-137.91 86.5,-129.39 86.12,-139.98 92.8,-137.91"/>
</a>
</g>
</g>
<!-- Node11 -->
<g id="Node000011" class="node">
<title>Node11</title>
<g id="a_Node000011"><a xlink:href="WirelessLogger_8hpp_source.html" target="_top" xlink:title=" ">
<polygon fill="white" stroke="#666666" points="307.02,-294 195.02,-294 195.02,-275 307.02,-275 307.02,-294"/>
<text text-anchor="middle" x="251.02" y="-282" font-family="Helvetica,sans-Serif" font-size="10.00">WirelessLogger.hpp</text>
</a>
</g>
</g>
<!-- Node9&#45;&gt;Node11 -->
<g id="edge13_Node000009_Node000011" class="edge">
<title>Node9&#45;&gt;Node11</title>
<g id="a_edge13_Node000009_Node000011"><a xlink:title=" ">
<path fill="none" stroke="#63b8ff" d="M353.42,-329.98C333.71,-321.42 303.07,-308.11 280.44,-298.28"/>
<polygon fill="#63b8ff" stroke="#63b8ff" points="281.55,-294.94 270.98,-294.17 278.76,-301.37 281.55,-294.94"/>
</a>
</g>
</g>
<!-- Node12 -->
<g id="Node000012" class="node">
<title>Node12</title>
<g id="a_Node000012"><a xlink:href="BuggyTCP_8hpp_source.html" target="_top" xlink:title=" ">
<polygon fill="white" stroke="#666666" points="433.52,-239 348.52,-239 348.52,-220 433.52,-220 433.52,-239"/>
<text text-anchor="middle" x="391.02" y="-227" font-family="Helvetica,sans-Serif" font-size="10.00">BuggyTCP.hpp</text>
</a>
</g>
</g>
<!-- Node9&#45;&gt;Node12 -->
<g id="edge26_Node000009_Node000012" class="edge">
<title>Node9&#45;&gt;Node12</title>
<g id="a_edge26_Node000009_Node000012"><a xlink:title=" ">
<path fill="none" stroke="#63b8ff" d="M374.5,-329.66C377.41,-312.17 383.97,-272.8 387.9,-249.27"/>
<polygon fill="#63b8ff" stroke="#63b8ff" points="391.39,-249.6 389.58,-239.16 384.48,-248.45 391.39,-249.6"/>
</a>
</g>
</g>
<!-- Node9&#45;&gt;Node18 -->
<g id="edge27_Node000009_Node000018" class="edge">
<title>Node9&#45;&gt;Node18</title>
<g id="a_edge27_Node000009_Node000018"><a xlink:title=" ">
<path fill="none" stroke="#63b8ff" d="M365.33,-329.66C349.55,-311.54 313.33,-269.91 293.19,-246.77"/>
<polygon fill="#63b8ff" stroke="#63b8ff" points="295.77,-244.4 286.56,-239.16 290.49,-249 295.77,-244.4"/>
</a>
</g>
</g>
<!-- Node10&#45;&gt;Node2 -->
<g id="edge12_Node000010_Node000002" class="edge">
<title>Node10&#45;&gt;Node2</title>
<g id="a_edge12_Node000010_Node000002"><a xlink:title=" ">
<path fill="none" stroke="#63b8ff" d="M133.08,-114.27C149.58,-112.88 168.1,-111.34 185.02,-110 395.44,-93.37 647.4,-75.36 745.28,-68.44"/>
<polygon fill="#63b8ff" stroke="#63b8ff" points="745.63,-71.92 755.36,-67.73 745.14,-64.94 745.63,-71.92"/>
</a>
</g>
</g>
<!-- Node10&#45;&gt;Node6 -->
<g id="edge11_Node000010_Node000006" class="edge">
<title>Node10&#45;&gt;Node6</title>
<g id="a_edge11_Node000010_Node000006"><a xlink:title=" ">
<path fill="none" stroke="#63b8ff" d="M96.4,-109.98C108.11,-101.92 125.94,-89.65 139.91,-80.03"/>
<polygon fill="#63b8ff" stroke="#63b8ff" points="142.17,-82.72 148.43,-74.17 138.21,-76.96 142.17,-82.72"/>
</a>
</g>
</g>
<!-- Node11&#45;&gt;Node2 -->
<g id="edge15_Node000011_Node000002" class="edge">
<title>Node11&#45;&gt;Node2</title>
<g id="a_edge15_Node000011_Node000002"><a xlink:title=" ">
<path fill="none" stroke="#63b8ff" d="M242.01,-274.96C233.95,-266.66 222.73,-253.25 218.02,-239 206.11,-202.93 158.64,-176.12 222.02,-110 258.04,-72.43 620.47,-66.56 745.15,-65.66"/>
<polygon fill="#63b8ff" stroke="#63b8ff" points="745.46,-69.16 755.44,-65.59 745.41,-62.16 745.46,-69.16"/>
</a>
</g>
</g>
<!-- Node11&#45;&gt;Node6 -->
<g id="edge14_Node000011_Node000006" class="edge">
<title>Node11&#45;&gt;Node6</title>
<g id="a_edge14_Node000011_Node000006"><a xlink:title=" ">
<path fill="none" stroke="#63b8ff" d="M229.91,-274.95C214.85,-267.69 195.48,-255.77 185.02,-239 154.51,-190.07 156.04,-118.42 158.88,-84.57"/>
<polygon fill="#63b8ff" stroke="#63b8ff" points="162.39,-84.56 159.88,-74.27 155.43,-83.88 162.39,-84.56"/>
</a>
</g>
</g>
<!-- Node11&#45;&gt;Node12 -->
<g id="edge16_Node000011_Node000012" class="edge">
<title>Node11&#45;&gt;Node12</title>
<g id="a_edge16_Node000011_Node000012"><a xlink:title=" ">
<path fill="none" stroke="#63b8ff" d="M273.52,-274.98C296.55,-266.27 332.56,-252.63 358.66,-242.75"/>
<polygon fill="#63b8ff" stroke="#63b8ff" points="360.01,-245.98 368.12,-239.17 357.53,-239.44 360.01,-245.98"/>
</a>
</g>
</g>
<!-- Node11&#45;&gt;Node18 -->
<g id="edge23_Node000011_Node000018" class="edge">
<title>Node11&#45;&gt;Node18</title>
<g id="a_edge23_Node000011_Node000018"><a xlink:title=" ">
<path fill="none" stroke="#63b8ff" d="M255.65,-274.75C259.48,-267.49 265.05,-256.95 269.79,-247.98"/>
<polygon fill="#63b8ff" stroke="#63b8ff" points="272.91,-249.57 274.49,-239.09 266.72,-246.3 272.91,-249.57"/>
</a>
</g>
</g>
<!-- Node13 -->
<g id="Node000013" class="node">
<title>Node13</title>
<g id="a_Node000013"><a xlink:href="BuggyWifi_8hpp_source.html" target="_top" xlink:title=" ">
<polygon fill="white" stroke="#666666" points="565.52,-184 478.52,-184 478.52,-165 565.52,-165 565.52,-184"/>
<text text-anchor="middle" x="522.02" y="-172" font-family="Helvetica,sans-Serif" font-size="10.00">BuggyWifi.hpp</text>
</a>
</g>
</g>
<!-- Node12&#45;&gt;Node13 -->
<g id="edge17_Node000012_Node000013" class="edge">
<title>Node12&#45;&gt;Node13</title>
<g id="a_edge17_Node000012_Node000013"><a xlink:title=" ">
<path fill="none" stroke="#63b8ff" d="M412.07,-219.98C433.43,-211.34 466.73,-197.87 491.09,-188.02"/>
<polygon fill="#63b8ff" stroke="#63b8ff" points="492.64,-191.17 500.59,-184.17 490.01,-184.68 492.64,-191.17"/>
</a>
</g>
</g>
<!-- Node16 -->
<g id="Node000016" class="node">
<title>Node16</title>
<g id="a_Node000016"><a xlink:href="PacketTypes_8hpp_source.html" target="_top" xlink:title=" ">
<polygon fill="white" stroke="#666666" points="328.52,-129 231.52,-129 231.52,-110 328.52,-110 328.52,-129"/>
<text text-anchor="middle" x="280.02" y="-117" font-family="Helvetica,sans-Serif" font-size="10.00">PacketTypes.hpp</text>
</a>
</g>
</g>
<!-- Node12&#45;&gt;Node16 -->
<g id="edge20_Node000012_Node000016" class="edge">
<title>Node12&#45;&gt;Node16</title>
<g id="a_edge20_Node000012_Node000016"><a xlink:title=" ">
<path fill="none" stroke="#63b8ff" d="M358.31,-219.99C338.56,-213.27 314.33,-201.96 299.02,-184 288.41,-171.54 283.73,-153.34 281.66,-139.61"/>
<polygon fill="#63b8ff" stroke="#63b8ff" points="285.1,-138.88 280.46,-129.35 278.15,-139.69 285.1,-138.88"/>
</a>
</g>
</g>
<!-- Node17 -->
<g id="Node000017" class="node">
<title>Node17</title>
<g id="a_Node000017"><a xlink:href="PacketSerializer_8hpp_source.html" target="_top" xlink:title=" ">
<polygon fill="white" stroke="#666666" points="422.02,-184 308.02,-184 308.02,-165 422.02,-165 422.02,-184"/>
<text text-anchor="middle" x="365.02" y="-172" font-family="Helvetica,sans-Serif" font-size="10.00">PacketSerializer.hpp</text>
</a>
</g>
</g>
<!-- Node12&#45;&gt;Node17 -->
<g id="edge21_Node000012_Node000017" class="edge">
<title>Node12&#45;&gt;Node17</title>
<g id="a_edge21_Node000012_Node000017"><a xlink:title=" ">
<path fill="none" stroke="#63b8ff" d="M386.73,-219.75C383.21,-212.57 378.11,-202.18 373.74,-193.27"/>
<polygon fill="#63b8ff" stroke="#63b8ff" points="376.78,-191.53 369.24,-184.09 370.5,-194.61 376.78,-191.53"/>
</a>
</g>
</g>
<!-- Node14 -->
<g id="Node000014" class="node">
<title>Node14</title>
<g id="a_Node000014"><a xlink:title=" ">
<polygon fill="#e0e0e0" stroke="#999999" points="531.52,-129 472.52,-129 472.52,-110 531.52,-110 531.52,-129"/>
<text text-anchor="middle" x="502.02" y="-117" font-family="Helvetica,sans-Serif" font-size="10.00">WiFiS3.h</text>
</a>
</g>
</g>
<!-- Node13&#45;&gt;Node14 -->
<g id="edge18_Node000013_Node000014" class="edge">
<title>Node13&#45;&gt;Node14</title>
<g id="a_edge18_Node000013_Node000014"><a xlink:title=" ">
<path fill="none" stroke="#63b8ff" d="M518.72,-164.75C516.04,-157.65 512.18,-147.4 508.84,-138.56"/>
<polygon fill="#63b8ff" stroke="#63b8ff" points="512.07,-137.21 505.27,-129.09 505.52,-139.68 512.07,-137.21"/>
</a>
</g>
</g>
<!-- Node15 -->
<g id="Node000015" class="node">
<title>Node15</title>
<g id="a_Node000015"><a xlink:href="secrets_8h_source.html" target="_top" xlink:title=" ">
<polygon fill="white" stroke="#666666" points="610.52,-129 549.52,-129 549.52,-110 610.52,-110 610.52,-129"/>
<text text-anchor="middle" x="580.02" y="-117" font-family="Helvetica,sans-Serif" font-size="10.00">secrets.h</text>
</a>
</g>
</g>
<!-- Node13&#45;&gt;Node15 -->
<g id="edge19_Node000013_Node000015" class="edge">
<title>Node13&#45;&gt;Node15</title>
<g id="a_edge19_Node000013_Node000015"><a xlink:title=" ">
<path fill="none" stroke="#63b8ff" d="M531.34,-164.98C539.83,-157.23 552.58,-145.58 562.91,-136.14"/>
<polygon fill="#63b8ff" stroke="#63b8ff" points="565.51,-138.5 570.54,-129.17 560.79,-133.33 565.51,-138.5"/>
</a>
</g>
</g>
<!-- Node17&#45;&gt;Node16 -->
<g id="edge22_Node000017_Node000016" class="edge">
<title>Node17&#45;&gt;Node16</title>
<g id="a_edge22_Node000017_Node000016"><a xlink:title=" ">
<path fill="none" stroke="#63b8ff" d="M351.37,-164.98C338.19,-156.77 318,-144.18 302.45,-134.49"/>
<polygon fill="#63b8ff" stroke="#63b8ff" points="304.27,-131.49 293.93,-129.17 300.56,-137.43 304.27,-131.49"/>
</a>
</g>
</g>
<!-- Node18&#45;&gt;Node16 -->
<g id="edge24_Node000018_Node000016" class="edge">
<title>Node18&#45;&gt;Node16</title>
<g id="a_edge24_Node000018_Node000016"><a xlink:title=" ">
<path fill="none" stroke="#63b8ff" d="M275.29,-219.92C270.46,-207.76 262.98,-184.8 266.02,-165 267.38,-156.19 270.15,-146.74 272.88,-138.82"/>
<polygon fill="#63b8ff" stroke="#63b8ff" points="276.26,-139.77 276.42,-129.18 269.69,-137.35 276.26,-139.77"/>
</a>
</g>
</g>
<!-- Node19&#45;&gt;Node5 -->
<g id="edge39_Node000019_Node000005" class="edge">
<title>Node19&#45;&gt;Node5</title>
<g id="a_edge39_Node000019_Node000005"><a xlink:title=" ">
<path fill="none" stroke="#63b8ff" d="M767.4,-329.86C760.37,-306.53 740.88,-240.21 729.02,-184 725.89,-169.12 723.26,-152.09 721.48,-139.41"/>
<polygon fill="#63b8ff" stroke="#63b8ff" points="724.91,-138.62 720.1,-129.18 717.97,-139.56 724.91,-138.62"/>
</a>
</g>
</g>
<!-- Node19&#45;&gt;Node6 -->
<g id="edge51_Node000019_Node000006" class="edge">
<title>Node19&#45;&gt;Node6</title>
<g id="a_edge51_Node000019_Node000006"><a xlink:title=" ">
<path fill="none" stroke="#63b8ff" d="M736.48,-339.23C701.07,-337.97 646.75,-329.81 620.02,-294 571.11,-228.47 674.99,-170.55 620.02,-110 594.51,-81.89 354.85,-71.01 232.36,-67.25"/>
<polygon fill="#63b8ff" stroke="#63b8ff" points="232.42,-63.75 222.32,-66.95 232.21,-70.75 232.42,-63.75"/>
</a>
</g>
</g>
<!-- Node19&#45;&gt;Node12 -->
<g id="edge36_Node000019_Node000012" class="edge">
<title>Node19&#45;&gt;Node12</title>
<g id="a_edge36_Node000019_Node000012"><a xlink:title=" ">
<path fill="none" stroke="#63b8ff" d="M736.49,-336.14C686.3,-331.85 589.19,-320.64 511.02,-294 474.75,-281.64 436.14,-259.36 412.8,-244.75"/>
<polygon fill="#63b8ff" stroke="#63b8ff" points="414.39,-241.61 404.07,-239.2 410.63,-247.52 414.39,-241.61"/>
</a>
</g>
</g>
<!-- Node19&#45;&gt;Node13 -->
<g id="edge35_Node000019_Node000013" class="edge">
<title>Node19&#45;&gt;Node13</title>
<g id="a_edge35_Node000019_Node000013"><a xlink:title=" ">
<path fill="none" stroke="#63b8ff" d="M736.18,-338.22C696.59,-336.24 630.89,-327.61 587.02,-294 553.61,-268.4 535.11,-220.5 527.03,-194.11"/>
<polygon fill="#63b8ff" stroke="#63b8ff" points="530.32,-192.89 524.19,-184.25 523.59,-194.83 530.32,-192.89"/>
</a>
</g>
</g>
<!-- Node19&#45;&gt;Node18 -->
<g id="edge50_Node000019_Node000018" class="edge">
<title>Node19&#45;&gt;Node18</title>
<g id="a_edge50_Node000019_Node000018"><a xlink:title=" ">
<path fill="none" stroke="#63b8ff" d="M736.47,-335.72C679.59,-330.55 560.89,-317.76 463.02,-294 407.49,-280.52 345.04,-257.14 309.04,-242.82"/>
<polygon fill="#63b8ff" stroke="#63b8ff" points="310.2,-239.52 299.61,-239.04 307.59,-246.01 310.2,-239.52"/>
</a>
</g>
</g>
<!-- Node20 -->
<g id="Node000020" class="node">
<title>Node20</title>
<g id="a_Node000020"><a xlink:href="MotorDriver_8hpp_source.html" target="_top" xlink:title=" ">
<polygon fill="white" stroke="#666666" points="969.52,-184 874.52,-184 874.52,-165 969.52,-165 969.52,-184"/>
<text text-anchor="middle" x="922.02" y="-172" font-family="Helvetica,sans-Serif" font-size="10.00">MotorDriver.hpp</text>
</a>
</g>
</g>
<!-- Node19&#45;&gt;Node20 -->
<g id="edge29_Node000019_Node000020" class="edge">
<title>Node19&#45;&gt;Node20</title>
<g id="a_edge29_Node000019_Node000020"><a xlink:title=" ">
<path fill="none" stroke="#63b8ff" d="M774.31,-329.87C784.99,-309.03 814.55,-255.05 851.02,-220 863.89,-207.63 880.73,-196.9 894.78,-189.07"/>
<polygon fill="#63b8ff" stroke="#63b8ff" points="896.83,-191.95 903.98,-184.14 893.52,-185.78 896.83,-191.95"/>
</a>
</g>
</g>
<!-- Node23 -->
<g id="Node000023" class="node">
<title>Node23</title>
<g id="a_Node000023"><a xlink:href="IrSensor_8hpp_source.html" target="_top" xlink:title=" ">
<polygon fill="white" stroke="#666666" points="1064.52,-184 987.52,-184 987.52,-165 1064.52,-165 1064.52,-184"/>
<text text-anchor="middle" x="1026.02" y="-172" font-family="Helvetica,sans-Serif" font-size="10.00">IrSensor.hpp</text>
</a>
</g>
</g>
<!-- Node19&#45;&gt;Node23 -->
<g id="edge37_Node000019_Node000023" class="edge">
<title>Node19&#45;&gt;Node23</title>
<g id="a_edge37_Node000019_Node000023"><a xlink:title=" ">
<path fill="none" stroke="#63b8ff" d="M783.43,-329.97C824.98,-303.51 951.92,-222.68 1003.69,-189.72"/>
<polygon fill="#63b8ff" stroke="#63b8ff" points="1005.89,-192.47 1012.44,-184.15 1002.13,-186.56 1005.89,-192.47"/>
</a>
</g>
</g>
<!-- Node24 -->
<g id="Node000024" class="node">
<title>Node24</title>
<g id="a_Node000024"><a xlink:href="LineFollower_8hpp_source.html" target="_top" xlink:title=" ">
<polygon fill="white" stroke="#666666" points="1067.02,-239 969.02,-239 969.02,-220 1067.02,-220 1067.02,-239"/>
<text text-anchor="middle" x="1018.02" y="-227" font-family="Helvetica,sans-Serif" font-size="10.00">LineFollower.hpp</text>
</a>
</g>
</g>
<!-- Node19&#45;&gt;Node24 -->
<g id="edge40_Node000019_Node000024" class="edge">
<title>Node19&#45;&gt;Node24</title>
<g id="a_edge40_Node000019_Node000024"><a xlink:title=" ">
<path fill="none" stroke="#63b8ff" d="M791.85,-329.89C813.93,-321.12 849.01,-306.98 879.02,-294 918.02,-277.14 962.61,-256.53 990.54,-243.46"/>
<polygon fill="#63b8ff" stroke="#63b8ff" points="992.13,-246.58 999.69,-239.16 989.15,-240.24 992.13,-246.58"/>
</a>
</g>
</g>
<!-- Node25 -->
<g id="Node000025" class="node">
<title>Node25</title>
<g id="a_Node000025"><a xlink:href="BuggyState_8hpp_source.html" target="_top" xlink:title=" ">
<polygon fill="white" stroke="#666666" points="723.02,-294 629.02,-294 629.02,-275 723.02,-275 723.02,-294"/>
<text text-anchor="middle" x="676.02" y="-282" font-family="Helvetica,sans-Serif" font-size="10.00">BuggyState.hpp</text>
</a>
</g>
</g>
<!-- Node19&#45;&gt;Node25 -->
<g id="edge44_Node000019_Node000025" class="edge">
<title>Node19&#45;&gt;Node25</title>
<g id="a_edge44_Node000019_Node000025"><a xlink:title=" ">
<path fill="none" stroke="#63b8ff" d="M749.81,-329.98C733.42,-321.77 710.78,-309.18 694.8,-299.49"/>
<polygon fill="#63b8ff" stroke="#63b8ff" points="696.59,-296.48 686.25,-294.17 692.9,-302.42 696.59,-296.48"/>
</a>
</g>
</g>
<!-- Node26 -->
<g id="Node000026" class="node">
<title>Node26</title>
<g id="a_Node000026"><a xlink:href="UltrasonicSensor_8hpp_source.html" target="_top" xlink:title=" ">
<polygon fill="white" stroke="#666666" points="856.52,-184 737.52,-184 737.52,-165 856.52,-165 856.52,-184"/>
<text text-anchor="middle" x="797.02" y="-172" font-family="Helvetica,sans-Serif" font-size="10.00">UltrasonicSensor.hpp</text>
</a>
</g>
</g>
<!-- Node19&#45;&gt;Node26 -->
<g id="edge46_Node000019_Node000026" class="edge">
<title>Node19&#45;&gt;Node26</title>
<g id="a_edge46_Node000019_Node000026"><a xlink:title=" ">
<path fill="none" stroke="#63b8ff" d="M771.48,-329.74C775.71,-304.2 788.09,-229.43 793.92,-194.23"/>
<polygon fill="#63b8ff" stroke="#63b8ff" points="797.38,-194.74 795.57,-184.31 790.48,-193.6 797.38,-194.74"/>
</a>
</g>
</g>
<!-- Node19&#45;&gt;Node27 -->
<g id="edge52_Node000019_Node000027" class="edge">
<title>Node19&#45;&gt;Node27</title>
<g id="a_edge52_Node000019_Node000027"><a xlink:title=" ">
<path fill="none" stroke="#63b8ff" d="M803.82,-333.34C853.79,-325.65 950.55,-310.47 1043.33,-294.08"/>
<polygon fill="#63b8ff" stroke="#63b8ff" points="1044.22,-297.47 1053.46,-292.28 1043,-290.58 1044.22,-297.47"/>
</a>
</g>
</g>
<!-- Node19&#45;&gt;Node29 -->
<g id="edge55_Node000019_Node000029" class="edge">
<title>Node19&#45;&gt;Node29</title>
<g id="a_edge55_Node000019_Node000029"><a xlink:title=" ">
<path fill="none" stroke="#63b8ff" d="M803.77,-330.1C840.33,-321.01 898.78,-306.46 938.94,-296.47"/>
<polygon fill="#63b8ff" stroke="#63b8ff" points="939.87,-299.85 948.73,-294.03 938.18,-293.05 939.87,-299.85"/>
</a>
</g>
</g>
<!-- Node19&#45;&gt;Node30 -->
<g id="edge61_Node000019_Node000030" class="edge">
<title>Node19&#45;&gt;Node30</title>
<g id="a_edge61_Node000019_Node000030"><a xlink:title=" ">
<path fill="none" stroke="#63b8ff" d="M803.53,-334.87C865.8,-328.01 1003.86,-312.32 1130.23,-294.21"/>
<polygon fill="#63b8ff" stroke="#63b8ff" points="1131.07,-297.62 1140.47,-292.73 1130.07,-290.7 1131.07,-297.62"/>
</a>
</g>
</g>
<!-- Node20&#45;&gt;Node5 -->
<g id="edge30_Node000020_Node000005" class="edge">
<title>Node20&#45;&gt;Node5</title>
<g id="a_edge30_Node000020_Node000005"><a xlink:title=" ">
<path fill="none" stroke="#63b8ff" d="M889.41,-164.98C854.74,-155.93 799.76,-141.58 761.67,-131.64"/>
<polygon fill="#63b8ff" stroke="#63b8ff" points="762.46,-128.22 751.9,-129.08 760.69,-134.99 762.46,-128.22"/>
</a>
</g>
</g>
<!-- Node20&#45;&gt;Node21 -->
<g id="edge31_Node000020_Node000021" class="edge">
<title>Node20&#45;&gt;Node21</title>
<g id="a_edge31_Node000020_Node000021"><a xlink:title=" ">
<path fill="none" stroke="#63b8ff" d="M949.34,-164.98C977.88,-156.09 1022.85,-142.07 1054.67,-132.15"/>
<polygon fill="#63b8ff" stroke="#63b8ff" points="1055.99,-135.4 1064.5,-129.08 1053.91,-128.72 1055.99,-135.4"/>
</a>
</g>
</g>
<!-- Node22 -->
<g id="Node000022" class="node">
<title>Node22</title>
<g id="a_Node000022"><a xlink:href="MoveMeanFilter_8hpp_source.html" target="_top" xlink:title=" ">
<polygon fill="white" stroke="#666666" points="931.02,-129 815.02,-129 815.02,-110 931.02,-110 931.02,-129"/>
<text text-anchor="middle" x="873.02" y="-117" font-family="Helvetica,sans-Serif" font-size="10.00">MoveMeanFilter.hpp</text>
</a>
</g>
</g>
<!-- Node20&#45;&gt;Node22 -->
<g id="edge32_Node000020_Node000022" class="edge">
<title>Node20&#45;&gt;Node22</title>
<g id="a_edge32_Node000020_Node000022"><a xlink:title=" ">
<path fill="none" stroke="#63b8ff" d="M913.93,-164.75C906.87,-157.11 896.44,-145.82 887.88,-136.56"/>
<polygon fill="#63b8ff" stroke="#63b8ff" points="890.32,-134.06 880.96,-129.09 885.18,-138.81 890.32,-134.06"/>
</a>
</g>
</g>
<!-- Node22&#45;&gt;Node2 -->
<g id="edge33_Node000022_Node000002" class="edge">
<title>Node22&#45;&gt;Node2</title>
<g id="a_edge33_Node000022_Node000002"><a xlink:title=" ">
<path fill="none" stroke="#63b8ff" d="M859.21,-109.98C845.87,-101.77 825.44,-89.18 809.72,-79.49"/>
<polygon fill="#63b8ff" stroke="#63b8ff" points="811.44,-76.44 801.09,-74.17 807.77,-82.4 811.44,-76.44"/>
</a>
</g>
</g>
<!-- Node22&#45;&gt;Node6 -->
<g id="edge34_Node000022_Node000006" class="edge">
<title>Node22&#45;&gt;Node6</title>
<g id="a_edge34_Node000022_Node000006"><a xlink:title=" ">
<path fill="none" stroke="#63b8ff" d="M814.99,-113.72C799.71,-112.49 783.25,-111.17 768.02,-110 574.43,-95.07 346,-78.64 232.5,-70.56"/>
<polygon fill="#63b8ff" stroke="#63b8ff" points="232.43,-67.05 222.21,-69.83 231.93,-74.03 232.43,-67.05"/>
</a>
</g>
</g>
<!-- Node23&#45;&gt;Node2 -->
<g id="edge38_Node000023_Node000002" class="edge">
<title>Node23&#45;&gt;Node2</title>
<g id="a_edge38_Node000023_Node000002"><a xlink:title=" ">
<path fill="none" stroke="#63b8ff" d="M1016.71,-164.85C1001.67,-151.32 970.63,-125.15 940.02,-110 904.23,-92.29 860.15,-80.4 828.51,-73.4"/>
<polygon fill="#63b8ff" stroke="#63b8ff" points="829.21,-69.97 818.7,-71.3 827.74,-76.82 829.21,-69.97"/>
</a>
</g>
</g>
<!-- Node24&#45;&gt;Node20 -->
<g id="edge41_Node000024_Node000020" class="edge">
<title>Node24&#45;&gt;Node20</title>
<g id="a_edge41_Node000024_Node000020"><a xlink:title=" ">
<path fill="none" stroke="#63b8ff" d="M1002.6,-219.98C987.57,-211.69 964.48,-198.94 946.87,-189.22"/>
<polygon fill="#63b8ff" stroke="#63b8ff" points="948.17,-185.94 937.73,-184.17 944.79,-192.07 948.17,-185.94"/>
</a>
</g>
</g>
<!-- Node24&#45;&gt;Node21 -->
<g id="edge43_Node000024_Node000021" class="edge">
<title>Node24&#45;&gt;Node21</title>
<g id="a_edge43_Node000024_Node000021"><a xlink:title=" ">
<path fill="none" stroke="#63b8ff" d="M1033.56,-219.9C1046.24,-212.11 1063.7,-199.5 1074.02,-184 1082.96,-170.59 1087.51,-152.75 1089.8,-139.4"/>
<polygon fill="#63b8ff" stroke="#63b8ff" points="1093.27,-139.83 1091.23,-129.43 1086.34,-138.83 1093.27,-139.83"/>
</a>
</g>
</g>
<!-- Node24&#45;&gt;Node23 -->
<g id="edge42_Node000024_Node000023" class="edge">
<title>Node24&#45;&gt;Node23</title>
<g id="a_edge42_Node000024_Node000023"><a xlink:title=" ">
<path fill="none" stroke="#63b8ff" d="M1019.35,-219.75C1020.39,-212.8 1021.9,-202.85 1023.21,-194.13"/>
<polygon fill="#63b8ff" stroke="#63b8ff" points="1026.7,-194.5 1024.73,-184.09 1019.77,-193.45 1026.7,-194.5"/>
</a>
</g>
</g>
<!-- Node25&#45;&gt;Node19 -->
<g id="edge45_Node000025_Node000019" class="edge">
<title>Node25&#45;&gt;Node19</title>
<g id="a_edge45_Node000025_Node000019"><a xlink:title=" ">
<path fill="none" stroke="#63b8ff" d="M696.55,-294.17C713.02,-302.44 735.65,-315.04 751.55,-324.7"/>
<polygon fill="#63b8ff" stroke="#63b8ff" points="749.7,-327.67 760.04,-329.98 753.4,-321.73 749.7,-327.67"/>
</a>
</g>
</g>
<!-- Node26&#45;&gt;Node2 -->
<g id="edge47_Node000026_Node000002" class="edge">
<title>Node26&#45;&gt;Node2</title>
<g id="a_edge47_Node000026_Node000002"><a xlink:title=" ">
<path fill="none" stroke="#63b8ff" d="M796.21,-164.66C794.59,-147.17 790.94,-107.8 788.76,-84.27"/>
<polygon fill="#63b8ff" stroke="#63b8ff" points="792.23,-83.79 787.83,-74.16 785.26,-84.44 792.23,-83.79"/>
</a>
</g>
</g>
<!-- Node26&#45;&gt;Node5 -->
<g id="edge48_Node000026_Node000005" class="edge">
<title>Node26&#45;&gt;Node5</title>
<g id="a_edge48_Node000026_Node000005"><a xlink:title=" ">
<path fill="none" stroke="#63b8ff" d="M784.49,-164.98C772.62,-156.92 754.56,-144.65 740.41,-135.03"/>
<polygon fill="#63b8ff" stroke="#63b8ff" points="742.02,-131.9 731.78,-129.17 738.09,-137.69 742.02,-131.9"/>
</a>
</g>
</g>
<!-- Node26&#45;&gt;Node22 -->
<g id="edge49_Node000026_Node000022" class="edge">
<title>Node26&#45;&gt;Node22</title>
<g id="a_edge49_Node000026_Node000022"><a xlink:title=" ">
<path fill="none" stroke="#63b8ff" d="M809.23,-164.98C820.8,-156.92 838.4,-144.65 852.18,-135.03"/>
<polygon fill="#63b8ff" stroke="#63b8ff" points="854.39,-137.76 860.59,-129.17 850.39,-132.02 854.39,-137.76"/>
</a>
</g>
</g>
<!-- Node27&#45;&gt;Node2 -->
<g id="edge53_Node000027_Node000002" class="edge">
<title>Node27&#45;&gt;Node2</title>
<g id="a_edge53_Node000027_Node000002"><a xlink:title=" ">
<path fill="none" stroke="#63b8ff" d="M1096.67,-274.79C1122.95,-247.31 1197.36,-161.2 1152.02,-110 1130.86,-86.1 919.9,-72.38 828.69,-67.52"/>
<polygon fill="#63b8ff" stroke="#63b8ff" points="828.86,-64.03 818.69,-67 828.5,-71.02 828.86,-64.03"/>
</a>
</g>
</g>
<!-- Node28 -->
<g id="Node000028" class="node">
<title>Node28</title>
<g id="a_Node000028"><a xlink:title=" ">
<polygon fill="#e0e0e0" stroke="#999999" points="1323.02,-239 1199.02,-239 1199.02,-220 1323.02,-220 1323.02,-239"/>
<text text-anchor="middle" x="1261.02" y="-227" font-family="Helvetica,sans-Serif" font-size="10.00">Arduino_LED_Matrix.h</text>
</a>
</g>
</g>
<!-- Node27&#45;&gt;Node28 -->
<g id="edge54_Node000027_Node000028" class="edge">
<title>Node27&#45;&gt;Node28</title>
<g id="a_edge54_Node000027_Node000028"><a xlink:title=" ">
<path fill="none" stroke="#63b8ff" d="M1115.82,-274.98C1144.99,-266.05 1191.03,-251.94 1223.43,-242.02"/>
<polygon fill="#63b8ff" stroke="#63b8ff" points="1224.47,-245.36 1233.01,-239.08 1222.42,-238.66 1224.47,-245.36"/>
</a>
</g>
</g>
<!-- Node29&#45;&gt;Node20 -->
<g id="edge56_Node000029_Node000020" class="edge">
<title>Node29&#45;&gt;Node20</title>
<g id="a_edge56_Node000029_Node000020"><a xlink:title=" ">
<path fill="none" stroke="#63b8ff" d="M978.03,-274.66C967.97,-256.85 945.11,-216.37 931.91,-193.01"/>
<polygon fill="#63b8ff" stroke="#63b8ff" points="934.88,-191.14 926.91,-184.16 928.78,-194.59 934.88,-191.14"/>
</a>
</g>
</g>
<!-- Node29&#45;&gt;Node21 -->
<g id="edge58_Node000029_Node000021" class="edge">
<title>Node29&#45;&gt;Node21</title>
<g id="a_edge58_Node000029_Node000021"><a xlink:title=" ">
<path fill="none" stroke="#63b8ff" d="M1034.66,-274.99C1055.75,-268.72 1078.16,-257.84 1091.02,-239 1111.54,-208.95 1104.19,-163.88 1097.68,-138.87"/>
<polygon fill="#63b8ff" stroke="#63b8ff" points="1101.04,-137.87 1094.94,-129.2 1094.3,-139.77 1101.04,-137.87"/>
</a>
</g>
</g>
<!-- Node29&#45;&gt;Node23 -->
<g id="edge57_Node000029_Node000023" class="edge">
<title>Node29&#45;&gt;Node23</title>
<g id="a_edge57_Node000029_Node000023"><a xlink:title=" ">
<path fill="none" stroke="#63b8ff" d="M1023.22,-274.87C1042.72,-268.45 1064.38,-257.48 1076.02,-239 1087.34,-221.04 1067.83,-202.14 1049.97,-189.68"/>
<polygon fill="#63b8ff" stroke="#63b8ff" points="1051.76,-186.66 1041.48,-184.11 1047.92,-192.52 1051.76,-186.66"/>
</a>
</g>
</g>
<!-- Node29&#45;&gt;Node24 -->
<g id="edge59_Node000029_Node000024" class="edge">
<title>Node29&#45;&gt;Node24</title>
<g id="a_edge59_Node000029_Node000024"><a xlink:title=" ">
<path fill="none" stroke="#63b8ff" d="M988.8,-274.75C993.65,-267.42 1000.7,-256.73 1006.67,-247.7"/>
<polygon fill="#63b8ff" stroke="#63b8ff" points="1009.76,-249.36 1012.35,-239.09 1003.92,-245.5 1009.76,-249.36"/>
</a>
</g>
</g>
<!-- Node29&#45;&gt;Node26 -->
<g id="edge60_Node000029_Node000026" class="edge">
<title>Node29&#45;&gt;Node26</title>
<g id="a_edge60_Node000029_Node000026"><a xlink:title=" ">
<path fill="none" stroke="#63b8ff" d="M968.12,-274.84C935.93,-256.16 859.71,-211.9 820.79,-189.3"/>
<polygon fill="#63b8ff" stroke="#63b8ff" points="822.15,-186.04 811.74,-184.05 818.63,-192.1 822.15,-186.04"/>
</a>
</g>
</g>
</g>
</svg>
