<?xml version="1.0" encoding="UTF-8" standalone="no"?>
<!DOCTYPE svg PUBLIC "-//W3C//DTD SVG 1.1//EN"
 "http://www.w3.org/Graphics/SVG/1.1/DTD/svg11.dtd">
<!-- Generated by graphviz version 2.43.0 (0)
 -->
<!-- Title: BuggySoftware/BuggySoftware.ino Pages: 1 -->
<!--zoomable 357 -->

<svg id="main" version="1.1" xmlns="http://www.w3.org/2000/svg" xmlns:xlink="http://www.w3.org/1999/xlink" xml:space="preserve" onload="init(evt)">

<style type="text/css"><![CDATA[
.node, .edge {opacity: 0.7;}
.node.selected, .edge.selected {opacity: 1;}
.edge:hover path { stroke: red; }
.edge:hover polygon { stroke: red; fill: red; }
]]></style>

<defs>
  <circle id="rim" cx="0" cy="0" r="7"/>
  <circle id="rim2" cx="0" cy="0" r="3.5"/>
  <g id="zoomPlus">
    <use xlink:href="#rim" fill="#404040"><set attributeName="fill" to="#808080" begin="zoomplus.mouseover" end="zoomplus.mouseout"/></use>
    <path d="M-4,0h8M0,-4v8" fill="none" stroke="white" stroke-width="1.5" pointer-events="none"/>
  </g>
  <g id="zoomMin">
    <use xlink:href="#rim" fill="#404040"><set attributeName="fill" to="#808080" begin="zoomminus.mouseover" end="zoomminus.mouseout"/></use>
    <path d="M-4,0h8" fill="none" stroke="white" stroke-width="1.5" pointer-events="none"/>
  </g>
  <g id="arrowUp" transform="translate(30 24)">
    <use xlink:href="#rim"/>
    <path pointer-events="none" fill="none" stroke="white" stroke-width="1.5" d="M0,-3.0v7 M-2.5,-0.5L0,-3.0L2.5,-0.5"/>
  </g>
  <g id="arrowRight" transform="rotate(90) translate(36 -43)">
    <use xlink:href="#rim"/>
    <path pointer-events="none" fill="none" stroke="white" stroke-width="1.5" d="M0,-3.0v7 M-2.5,-0.5L0,-3.0L2.5,-0.5"/>
  </g>
  <g id="arrowDown" transform="rotate(180) translate(-30 -48)">
    <use xlink:href="#rim"/>
    <path pointer-events="none" fill="none" stroke="white" stroke-width="1.5" d="M0,-3.0v7 M-2.5,-0.5L0,-3.0L2.5,-0.5"/>
  </g>
  <g id="arrowLeft" transform="rotate(270) translate(-36 17)">
    <use xlink:href="#rim"/>
    <path pointer-events="none" fill="none" stroke="white" stroke-width="1.5" d="M0,-3.0v7 M-2.5,-0.5L0,-3.0L2.5,-0.5"/>
  </g>
  <g id="resetDef">
    <use xlink:href="#rim2" fill="#404040"><set attributeName="fill" to="#808080" begin="reset.mouseover" end="reset.mouseout"/></use>
  </g>
</defs>
<script type="application/ecmascript">
var viewWidth = 1290;
var viewHeight = 357;
var sectionId = 'dynsection-0';
</script>
<script type="application/ecmascript" xlink:href="svg.min.js"/>
<svg id="graph" class="graph">
<g id="viewport">
<title>BuggySoftware/BuggySoftware.ino</title>
<!-- Node1 -->
<g id="Node000001" class="node">
<title>Node1</title>
<g id="a_Node000001"><a xlink:title="This is the main entry point for the Buggy software.">
<polygon fill="#999999" stroke="#666666" points="777.5,-349 592.5,-349 592.5,-330 777.5,-330 777.5,-349"/>
<text text-anchor="middle" x="685" y="-337" font-family="Helvetica,sans-Serif" font-size="10.00">BuggySoftware/BuggySoftware.ino</text>
</a>
</g>
</g>
<!-- Node2 -->
<g id="Node000002" class="node">
<title>Node2</title>
<g id="a_Node000002"><a xlink:title=" ">
<polygon fill="#e0e0e0" stroke="#999999" points="801.5,-74 738.5,-74 738.5,-55 801.5,-55 801.5,-74"/>
<text text-anchor="middle" x="770" y="-62" font-family="Helvetica,sans-Serif" font-size="10.00">Arduino.h</text>
</a>
</g>
</g>
<!-- Node1&#45;&gt;Node2 -->
<g id="edge1_Node000001_Node000002" class="edge">
<title>Node1&#45;&gt;Node2</title>
<g id="a_edge1_Node000001_Node000002"><a xlink:title=" ">
<path fill="none" stroke="#63b8ff" d="M777.57,-334.96C863.17,-330.21 993.45,-319.21 1104,-294 1185.89,-275.32 1282,-314.49 1282,-230.5 1282,-230.5 1282,-230.5 1282,-173.5 1282,-77.61 933.86,-66.43 811.73,-65.45"/>
<polygon fill="#63b8ff" stroke="#63b8ff" points="811.66,-61.95 801.64,-65.39 811.62,-68.95 811.66,-61.95"/>
</a>
</g>
</g>
<!-- Node3 -->
<g id="Node000003" class="node">
<title>Node3</title>
<g id="a_Node000003"><a xlink:href="Timer1_8hpp.html" target="_top" xlink:title="Setup methods for Timer1.">
<polygon fill="white" stroke="#666666" points="72,-294 0,-294 0,-275 72,-275 72,-294"/>
<text text-anchor="middle" x="36" y="-282" font-family="Helvetica,sans-Serif" font-size="10.00">Timer1.hpp</text>
</a>
</g>
</g>
<!-- Node1&#45;&gt;Node3 -->
<g id="edge2_Node000001_Node000003" class="edge">
<title>Node1&#45;&gt;Node3</title>
<g id="a_edge2_Node000001_Node000003"><a xlink:title=" ">
<path fill="none" stroke="#63b8ff" d="M592.38,-334.33C474.46,-328.4 264.56,-315.76 86,-294 84.75,-293.85 83.48,-293.68 82.2,-293.51"/>
<polygon fill="#63b8ff" stroke="#63b8ff" points="82.66,-290.05 72.26,-292.08 81.66,-296.97 82.66,-290.05"/>
</a>
</g>
</g>
<!-- Node5 -->
<g id="Node000005" class="node">
<title>Node5</title>
<g id="a_Node000005"><a xlink:href="PinSetup_8hpp_source.html" target="_top" xlink:title=" ">
<polygon fill="white" stroke="#666666" points="878,-129 798,-129 798,-110 878,-110 878,-129"/>
<text text-anchor="middle" x="838" y="-117" font-family="Helvetica,sans-Serif" font-size="10.00">PinSetup.hpp</text>
</a>
</g>
</g>
<!-- Node1&#45;&gt;Node5 -->
<g id="edge4_Node000001_Node000005" class="edge">
<title>Node1&#45;&gt;Node5</title>
<g id="a_edge4_Node000001_Node000005"><a xlink:title=" ">
<path fill="none" stroke="#63b8ff" d="M764.15,-329.99C847.01,-316.02 970.11,-279.42 1007,-184 1010.05,-176.12 1012.16,-171.69 1007,-165 999.58,-155.37 935.23,-140.36 888.13,-130.48"/>
<polygon fill="#63b8ff" stroke="#63b8ff" points="888.58,-127 878.07,-128.39 887.15,-133.85 888.58,-127"/>
</a>
</g>
</g>
<!-- Node6 -->
<g id="Node000006" class="node">
<title>Node6</title>
<g id="a_Node000006"><a xlink:href="EmbeddedLogger_8hpp.html" target="_top" xlink:title=" ">
<polygon fill="white" stroke="#666666" points="467,-74 345,-74 345,-55 467,-55 467,-74"/>
<text text-anchor="middle" x="406" y="-62" font-family="Helvetica,sans-Serif" font-size="10.00">EmbeddedLogger.hpp</text>
</a>
</g>
</g>
<!-- Node1&#45;&gt;Node6 -->
<g id="edge6_Node000001_Node000006" class="edge">
<title>Node1&#45;&gt;Node6</title>
<g id="a_edge6_Node000001_Node000006"><a xlink:title=" ">
<path fill="none" stroke="#63b8ff" d="M670.5,-329.86C633.95,-307.8 535.78,-246.65 463,-184 437.5,-162.05 424.65,-159.74 411,-129 404.75,-114.93 403.82,-97.38 404.27,-84.3"/>
<polygon fill="#63b8ff" stroke="#63b8ff" points="407.77,-84.36 404.92,-74.16 400.79,-83.91 407.77,-84.36"/>
</a>
</g>
</g>
<!-- Node9 -->
<g id="Node000009" class="node">
<title>Node9</title>
<g id="a_Node000009"><a xlink:href="SerialWirelessLogger_8hpp_source.html" target="_top" xlink:title=" ">
<polygon fill="white" stroke="#666666" points="399,-294 259,-294 259,-275 399,-275 399,-294"/>
<text text-anchor="middle" x="329" y="-282" font-family="Helvetica,sans-Serif" font-size="10.00">SerialWirelessLogger.hpp</text>
</a>
</g>
</g>
<!-- Node1&#45;&gt;Node9 -->
<g id="edge9_Node000001_Node000009" class="edge">
<title>Node1&#45;&gt;Node9</title>
<g id="a_edge9_Node000001_Node000009"><a xlink:title=" ">
<path fill="none" stroke="#63b8ff" d="M627.8,-329.98C564.71,-320.59 463.27,-305.49 396.37,-295.53"/>
<polygon fill="#63b8ff" stroke="#63b8ff" points="396.76,-292.05 386.35,-294.04 395.73,-298.97 396.76,-292.05"/>
</a>
</g>
</g>
<!-- Node18 -->
<g id="Node000018" class="node">
<title>Node18</title>
<g id="a_Node000018"><a xlink:href="PacketFactory_8hpp_source.html" target="_top" xlink:title=" ">
<polygon fill="white" stroke="#666666" points="160.5,-184 57.5,-184 57.5,-165 160.5,-165 160.5,-184"/>
<text text-anchor="middle" x="109" y="-172" font-family="Helvetica,sans-Serif" font-size="10.00">PacketFactory.hpp</text>
</a>
</g>
</g>
<!-- Node1&#45;&gt;Node18 -->
<g id="edge56_Node000001_Node000018" class="edge">
<title>Node1&#45;&gt;Node18</title>
<g id="a_edge56_Node000001_Node000018"><a xlink:title=" ">
<path fill="none" stroke="#63b8ff" d="M592.41,-338.44C503.1,-336.2 364.94,-326.95 250,-294 196.69,-278.72 176.66,-278.76 138,-239 125.87,-226.52 118.22,-208.06 113.85,-194.26"/>
<polygon fill="#63b8ff" stroke="#63b8ff" points="117.14,-193.03 111.01,-184.39 110.41,-194.96 117.14,-193.03"/>
</a>
</g>
</g>
<!-- Node19 -->
<g id="Node000019" class="node">
<title>Node19</title>
<g id="a_Node000019"><a xlink:href="Buggy_8hpp_source.html" target="_top" xlink:title=" ">
<polygon fill="white" stroke="#666666" points="718.5,-294 651.5,-294 651.5,-275 718.5,-275 718.5,-294"/>
<text text-anchor="middle" x="685" y="-282" font-family="Helvetica,sans-Serif" font-size="10.00">Buggy.hpp</text>
</a>
</g>
</g>
<!-- Node1&#45;&gt;Node19 -->
<g id="edge28_Node000001_Node000019" class="edge">
<title>Node1&#45;&gt;Node19</title>
<g id="a_edge28_Node000001_Node000019"><a xlink:title=" ">
<path fill="none" stroke="#63b8ff" d="M685,-329.75C685,-322.8 685,-312.85 685,-304.13"/>
<polygon fill="#63b8ff" stroke="#63b8ff" points="688.5,-304.09 685,-294.09 681.5,-304.09 688.5,-304.09"/>
</a>
</g>
</g>
<!-- Node21 -->
<g id="Node000021" class="node">
<title>Node21</title>
<g id="a_Node000021"><a xlink:href="PIDController_8hpp_source.html" target="_top" xlink:title=" ">
<polygon fill="white" stroke="#666666" points="997.5,-129 896.5,-129 896.5,-110 997.5,-110 997.5,-129"/>
<text text-anchor="middle" x="947" y="-117" font-family="Helvetica,sans-Serif" font-size="10.00">PIDController.hpp</text>
</a>
</g>
</g>
<!-- Node1&#45;&gt;Node21 -->
<g id="edge55_Node000001_Node000021" class="edge">
<title>Node1&#45;&gt;Node21</title>
<g id="a_edge55_Node000001_Node000021"><a xlink:title=" ">
<path fill="none" stroke="#63b8ff" d="M777.82,-332.7C872.75,-325.87 1013.28,-312.98 1064,-294 1145.16,-263.62 1184.54,-260.64 1225,-184 1228.94,-176.53 1230.48,-171.43 1225,-165 1197.63,-132.9 1080.76,-123.85 1007.54,-121.37"/>
<polygon fill="#63b8ff" stroke="#63b8ff" points="1007.61,-117.87 997.51,-121.06 1007.4,-124.87 1007.61,-117.87"/>
</a>
</g>
</g>
<!-- Node27 -->
<g id="Node000027" class="node">
<title>Node27</title>
<g id="a_Node000027"><a xlink:href="Matrix_8hpp_source.html" target="_top" xlink:title=" ">
<polygon fill="white" stroke="#666666" points="1123.5,-239 1054.5,-239 1054.5,-220 1123.5,-220 1123.5,-239"/>
<text text-anchor="middle" x="1089" y="-227" font-family="Helvetica,sans-Serif" font-size="10.00">Matrix.hpp</text>
</a>
</g>
</g>
<!-- Node1&#45;&gt;Node27 -->
<g id="edge57_Node000001_Node000027" class="edge">
<title>Node1&#45;&gt;Node27</title>
<g id="a_edge57_Node000001_Node000027"><a xlink:title=" ">
<path fill="none" stroke="#63b8ff" d="M777.86,-334.89C867.77,-329.98 996.65,-318.77 1040,-294 1058.27,-283.56 1072.05,-263.32 1080.27,-248.48"/>
<polygon fill="#63b8ff" stroke="#63b8ff" points="1083.55,-249.75 1085.06,-239.26 1077.34,-246.52 1083.55,-249.75"/>
</a>
</g>
</g>
<!-- Node4 -->
<g id="Node000004" class="node">
<title>Node4</title>
<g id="a_Node000004"><a xlink:title=" ">
<polygon fill="#e0e0e0" stroke="#999999" points="71.5,-239 0.5,-239 0.5,-220 71.5,-220 71.5,-239"/>
<text text-anchor="middle" x="36" y="-227" font-family="Helvetica,sans-Serif" font-size="10.00">FspTimer.h</text>
</a>
</g>
</g>
<!-- Node3&#45;&gt;Node4 -->
<g id="edge3_Node000003_Node000004" class="edge">
<title>Node3&#45;&gt;Node4</title>
<g id="a_edge3_Node000003_Node000004"><a xlink:title=" ">
<path fill="none" stroke="#63b8ff" d="M36,-274.75C36,-267.8 36,-257.85 36,-249.13"/>
<polygon fill="#63b8ff" stroke="#63b8ff" points="39.5,-249.09 36,-239.09 32.5,-249.09 39.5,-249.09"/>
</a>
</g>
</g>
<!-- Node5&#45;&gt;Node2 -->
<g id="edge5_Node000005_Node000002" class="edge">
<title>Node5&#45;&gt;Node2</title>
<g id="a_edge5_Node000005_Node000002"><a xlink:title=" ">
<path fill="none" stroke="#63b8ff" d="M827.07,-109.98C816.92,-102.07 801.58,-90.11 789.35,-80.58"/>
<polygon fill="#63b8ff" stroke="#63b8ff" points="791.16,-77.56 781.12,-74.17 786.86,-83.08 791.16,-77.56"/>
</a>
</g>
</g>
<!-- Node7 -->
<g id="Node000007" class="node">
<title>Node7</title>
<g id="a_Node000007"><a xlink:title=" ">
<polygon fill="#e0e0e0" stroke="#999999" points="395.5,-19 342.5,-19 342.5,0 395.5,0 395.5,-19"/>
<text text-anchor="middle" x="369" y="-7" font-family="Helvetica,sans-Serif" font-size="10.00">stdint.h</text>
</a>
</g>
</g>
<!-- Node6&#45;&gt;Node7 -->
<g id="edge7_Node000006_Node000007" class="edge">
<title>Node6&#45;&gt;Node7</title>
<g id="a_edge7_Node000006_Node000007"><a xlink:title=" ">
<path fill="none" stroke="#63b8ff" d="M399.89,-54.75C394.72,-47.34 387.15,-36.5 380.81,-27.41"/>
<polygon fill="#63b8ff" stroke="#63b8ff" points="383.59,-25.29 375,-19.09 377.85,-29.29 383.59,-25.29"/>
</a>
</g>
</g>
<!-- Node8 -->
<g id="Node000008" class="node">
<title>Node8</title>
<g id="a_Node000008"><a xlink:title=" ">
<polygon fill="#e0e0e0" stroke="#999999" points="470,-19 414,-19 414,0 470,0 470,-19"/>
<text text-anchor="middle" x="442" y="-7" font-family="Helvetica,sans-Serif" font-size="10.00">stddef.h</text>
</a>
</g>
</g>
<!-- Node6&#45;&gt;Node8 -->
<g id="edge8_Node000006_Node000008" class="edge">
<title>Node6&#45;&gt;Node8</title>
<g id="a_edge8_Node000006_Node000008"><a xlink:title=" ">
<path fill="none" stroke="#63b8ff" d="M411.94,-54.75C416.98,-47.34 424.34,-36.5 430.51,-27.41"/>
<polygon fill="#63b8ff" stroke="#63b8ff" points="433.44,-29.33 436.17,-19.09 427.65,-25.39 433.44,-29.33"/>
</a>
</g>
</g>
<!-- Node9&#45;&gt;Node2 -->
<g id="edge25_Node000009_Node000002" class="edge">
<title>Node9&#45;&gt;Node2</title>
<g id="a_edge25_Node000009_Node000002"><a xlink:title=" ">
<path fill="none" stroke="#63b8ff" d="M342.3,-274.85C390.85,-243.39 558.71,-135.51 617,-110 653.31,-94.1 696.91,-82.06 728.27,-74.54"/>
<polygon fill="#63b8ff" stroke="#63b8ff" points="729.46,-77.85 738.4,-72.16 727.86,-71.04 729.46,-77.85"/>
</a>
</g>
</g>
<!-- Node10 -->
<g id="Node000010" class="node">
<title>Node10</title>
<g id="a_Node000010"><a xlink:href="SerialLogger_8hpp_source.html" target="_top" xlink:title=" ">
<polygon fill="white" stroke="#666666" points="532,-129 434,-129 434,-110 532,-110 532,-129"/>
<text text-anchor="middle" x="483" y="-117" font-family="Helvetica,sans-Serif" font-size="10.00">SerialLogger.hpp</text>
</a>
</g>
</g>
<!-- Node9&#45;&gt;Node10 -->
<g id="edge10_Node000009_Node000010" class="edge">
<title>Node9&#45;&gt;Node10</title>
<g id="a_edge10_Node000009_Node000010"><a xlink:title=" ">
<path fill="none" stroke="#63b8ff" d="M337.28,-274.74C361.93,-248.65 435.13,-171.17 467.41,-137"/>
<polygon fill="#63b8ff" stroke="#63b8ff" points="470.36,-138.98 474.68,-129.31 465.27,-134.17 470.36,-138.98"/>
</a>
</g>
</g>
<!-- Node11 -->
<g id="Node000011" class="node">
<title>Node11</title>
<g id="a_Node000011"><a xlink:href="WirelessLogger_8hpp_source.html" target="_top" xlink:title=" ">
<polygon fill="white" stroke="#666666" points="354,-239 242,-239 242,-220 354,-220 354,-239"/>
<text text-anchor="middle" x="298" y="-227" font-family="Helvetica,sans-Serif" font-size="10.00">WirelessLogger.hpp</text>
</a>
</g>
</g>
<!-- Node9&#45;&gt;Node11 -->
<g id="edge13_Node000009_Node000011" class="edge">
<title>Node9&#45;&gt;Node11</title>
<g id="a_edge13_Node000009_Node000011"><a xlink:title=" ">
<path fill="none" stroke="#63b8ff" d="M323.88,-274.75C319.64,-267.49 313.47,-256.95 308.22,-247.98"/>
<polygon fill="#63b8ff" stroke="#63b8ff" points="311.09,-245.95 303.02,-239.09 305.05,-249.49 311.09,-245.95"/>
</a>
</g>
</g>
<!-- Node12 -->
<g id="Node000012" class="node">
<title>Node12</title>
<g id="a_Node000012"><a xlink:href="BuggyTCP_8hpp_source.html" target="_top" xlink:title=" ">
<polygon fill="white" stroke="#666666" points="263.5,-184 178.5,-184 178.5,-165 263.5,-165 263.5,-184"/>
<text text-anchor="middle" x="221" y="-172" font-family="Helvetica,sans-Serif" font-size="10.00">BuggyTCP.hpp</text>
</a>
</g>
</g>
<!-- Node9&#45;&gt;Node12 -->
<g id="edge26_Node000009_Node000012" class="edge">
<title>Node9&#45;&gt;Node12</title>
<g id="a_edge26_Node000009_Node000012"><a xlink:title=" ">
<path fill="none" stroke="#63b8ff" d="M290.88,-274.86C270.7,-268.33 247.22,-257.26 233,-239 223.2,-226.41 220.58,-208.22 220.19,-194.53"/>
<polygon fill="#63b8ff" stroke="#63b8ff" points="223.7,-194.34 220.28,-184.31 216.7,-194.28 223.7,-194.34"/>
</a>
</g>
</g>
<!-- Node9&#45;&gt;Node18 -->
<g id="edge27_Node000009_Node000018" class="edge">
<title>Node9&#45;&gt;Node18</title>
<g id="a_edge27_Node000009_Node000018"><a xlink:title=" ">
<path fill="none" stroke="#63b8ff" d="M260.12,-274.93C228.38,-268.61 191.34,-257.72 162,-239 143.73,-227.34 128.58,-207.36 119.22,-192.92"/>
<polygon fill="#63b8ff" stroke="#63b8ff" points="122.17,-191.03 113.93,-184.37 116.22,-194.72 122.17,-191.03"/>
</a>
</g>
</g>
<!-- Node10&#45;&gt;Node2 -->
<g id="edge12_Node000010_Node000002" class="edge">
<title>Node10&#45;&gt;Node2</title>
<g id="a_edge12_Node000010_Node000002"><a xlink:title=" ">
<path fill="none" stroke="#63b8ff" d="M529.11,-109.98C584.08,-99.83 675.13,-83.02 728.15,-73.23"/>
<polygon fill="#63b8ff" stroke="#63b8ff" points="729.02,-76.63 738.22,-71.37 727.75,-69.74 729.02,-76.63"/>
</a>
</g>
</g>
<!-- Node10&#45;&gt;Node6 -->
<g id="edge11_Node000010_Node000006" class="edge">
<title>Node10&#45;&gt;Node6</title>
<g id="a_edge11_Node000010_Node000006"><a xlink:title=" ">
<path fill="none" stroke="#63b8ff" d="M470.63,-109.98C458.91,-101.92 441.08,-89.65 427.11,-80.03"/>
<polygon fill="#63b8ff" stroke="#63b8ff" points="428.82,-76.96 418.6,-74.17 424.85,-82.72 428.82,-76.96"/>
</a>
</g>
</g>
<!-- Node11&#45;&gt;Node2 -->
<g id="edge15_Node000011_Node000002" class="edge">
<title>Node11&#45;&gt;Node2</title>
<g id="a_edge15_Node000011_Node000002"><a xlink:title=" ">
<path fill="none" stroke="#63b8ff" d="M319.54,-219.91C362.03,-202.92 459.62,-163.63 541,-129 560.23,-120.82 564.2,-116.68 584,-110 632.45,-93.65 689.93,-80.87 728.03,-73.27"/>
<polygon fill="#63b8ff" stroke="#63b8ff" points="729.1,-76.63 738.24,-71.27 727.76,-69.76 729.1,-76.63"/>
</a>
</g>
</g>
<!-- Node11&#45;&gt;Node6 -->
<g id="edge14_Node000011_Node000006" class="edge">
<title>Node11&#45;&gt;Node6</title>
<g id="a_edge14_Node000011_Node000006"><a xlink:title=" ">
<path fill="none" stroke="#63b8ff" d="M300.7,-219.78C307.36,-199.19 326.1,-146.53 354,-110 362.68,-98.64 374.68,-88.13 384.97,-80.18"/>
<polygon fill="#63b8ff" stroke="#63b8ff" points="387.16,-82.91 393.1,-74.14 382.99,-77.29 387.16,-82.91"/>
</a>
</g>
</g>
<!-- Node11&#45;&gt;Node12 -->
<g id="edge16_Node000011_Node000012" class="edge">
<title>Node11&#45;&gt;Node12</title>
<g id="a_edge16_Node000011_Node000012"><a xlink:title=" ">
<path fill="none" stroke="#63b8ff" d="M285.63,-219.98C273.91,-211.92 256.08,-199.65 242.11,-190.03"/>
<polygon fill="#63b8ff" stroke="#63b8ff" points="243.82,-186.96 233.6,-184.17 239.85,-192.72 243.82,-186.96"/>
</a>
</g>
</g>
<!-- Node11&#45;&gt;Node18 -->
<g id="edge23_Node000011_Node000018" class="edge">
<title>Node11&#45;&gt;Node18</title>
<g id="a_edge23_Node000011_Node000018"><a xlink:title=" ">
<path fill="none" stroke="#63b8ff" d="M267.63,-219.98C235.63,-211.01 185.04,-196.82 149.62,-186.89"/>
<polygon fill="#63b8ff" stroke="#63b8ff" points="150.18,-183.41 139.6,-184.08 148.29,-190.15 150.18,-183.41"/>
</a>
</g>
</g>
<!-- Node13 -->
<g id="Node000013" class="node">
<title>Node13</title>
<g id="a_Node000013"><a xlink:href="BuggyWifi_8hpp_source.html" target="_top" xlink:title=" ">
<polygon fill="white" stroke="#666666" points="301.5,-129 214.5,-129 214.5,-110 301.5,-110 301.5,-129"/>
<text text-anchor="middle" x="258" y="-117" font-family="Helvetica,sans-Serif" font-size="10.00">BuggyWifi.hpp</text>
</a>
</g>
</g>
<!-- Node12&#45;&gt;Node13 -->
<g id="edge17_Node000012_Node000013" class="edge">
<title>Node12&#45;&gt;Node13</title>
<g id="a_edge17_Node000012_Node000013"><a xlink:title=" ">
<path fill="none" stroke="#63b8ff" d="M227.11,-164.75C232.28,-157.34 239.85,-146.5 246.19,-137.41"/>
<polygon fill="#63b8ff" stroke="#63b8ff" points="249.15,-139.29 252,-129.09 243.41,-135.29 249.15,-139.29"/>
</a>
</g>
</g>
<!-- Node16 -->
<g id="Node000016" class="node">
<title>Node16</title>
<g id="a_Node000016"><a xlink:href="PacketTypes_8hpp_source.html" target="_top" xlink:title=" ">
<polygon fill="white" stroke="#666666" points="102.5,-74 5.5,-74 5.5,-55 102.5,-55 102.5,-74"/>
<text text-anchor="middle" x="54" y="-62" font-family="Helvetica,sans-Serif" font-size="10.00">PacketTypes.hpp</text>
</a>
</g>
</g>
<!-- Node12&#45;&gt;Node16 -->
<g id="edge20_Node000012_Node000016" class="edge">
<title>Node12&#45;&gt;Node16</title>
<g id="a_edge20_Node000012_Node000016"><a xlink:title=" ">
<path fill="none" stroke="#63b8ff" d="M178.4,-165.37C140.18,-157.26 87.88,-143.9 73,-129 61.19,-117.18 56.67,-98.34 54.96,-84.25"/>
<polygon fill="#63b8ff" stroke="#63b8ff" points="58.44,-83.86 54.11,-74.19 51.47,-84.45 58.44,-83.86"/>
</a>
</g>
</g>
<!-- Node17 -->
<g id="Node000017" class="node">
<title>Node17</title>
<g id="a_Node000017"><a xlink:href="PacketSerializer_8hpp_source.html" target="_top" xlink:title=" ">
<polygon fill="white" stroke="#666666" points="196,-129 82,-129 82,-110 196,-110 196,-129"/>
<text text-anchor="middle" x="139" y="-117" font-family="Helvetica,sans-Serif" font-size="10.00">PacketSerializer.hpp</text>
</a>
</g>
</g>
<!-- Node12&#45;&gt;Node17 -->
<g id="edge21_Node000012_Node000017" class="edge">
<title>Node12&#45;&gt;Node17</title>
<g id="a_edge21_Node000012_Node000017"><a xlink:title=" ">
<path fill="none" stroke="#63b8ff" d="M207.83,-164.98C195.23,-156.84 176,-144.41 161.06,-134.76"/>
<polygon fill="#63b8ff" stroke="#63b8ff" points="162.71,-131.66 152.41,-129.17 158.91,-137.54 162.71,-131.66"/>
</a>
</g>
</g>
<!-- Node14 -->
<g id="Node000014" class="node">
<title>Node14</title>
<g id="a_Node000014"><a xlink:title=" ">
<polygon fill="#e0e0e0" stroke="#999999" points="228.5,-74 169.5,-74 169.5,-55 228.5,-55 228.5,-74"/>
<text text-anchor="middle" x="199" y="-62" font-family="Helvetica,sans-Serif" font-size="10.00">WiFiS3.h</text>
</a>
</g>
</g>
<!-- Node13&#45;&gt;Node14 -->
<g id="edge18_Node000013_Node000014" class="edge">
<title>Node13&#45;&gt;Node14</title>
<g id="a_edge18_Node000013_Node000014"><a xlink:title=" ">
<path fill="none" stroke="#63b8ff" d="M248.52,-109.98C239.8,-102.15 226.66,-90.34 216.1,-80.86"/>
<polygon fill="#63b8ff" stroke="#63b8ff" points="218.43,-78.25 208.65,-74.17 213.75,-83.46 218.43,-78.25"/>
</a>
</g>
</g>
<!-- Node15 -->
<g id="Node000015" class="node">
<title>Node15</title>
<g id="a_Node000015"><a xlink:href="secrets_8h_source.html" target="_top" xlink:title=" ">
<polygon fill="white" stroke="#666666" points="307.5,-74 246.5,-74 246.5,-55 307.5,-55 307.5,-74"/>
<text text-anchor="middle" x="277" y="-62" font-family="Helvetica,sans-Serif" font-size="10.00">secrets.h</text>
</a>
</g>
</g>
<!-- Node13&#45;&gt;Node15 -->
<g id="edge19_Node000013_Node000015" class="edge">
<title>Node13&#45;&gt;Node15</title>
<g id="a_edge19_Node000013_Node000015"><a xlink:title=" ">
<path fill="none" stroke="#63b8ff" d="M261.14,-109.75C263.68,-102.65 267.36,-92.4 270.53,-83.56"/>
<polygon fill="#63b8ff" stroke="#63b8ff" points="273.84,-84.68 273.92,-74.09 267.25,-82.32 273.84,-84.68"/>
</a>
</g>
</g>
<!-- Node17&#45;&gt;Node16 -->
<g id="edge22_Node000017_Node000016" class="edge">
<title>Node17&#45;&gt;Node16</title>
<g id="a_edge22_Node000017_Node000016"><a xlink:title=" ">
<path fill="none" stroke="#63b8ff" d="M125.34,-109.98C112.16,-101.77 91.97,-89.18 76.43,-79.49"/>
<polygon fill="#63b8ff" stroke="#63b8ff" points="78.24,-76.49 67.91,-74.17 74.54,-82.43 78.24,-76.49"/>
</a>
</g>
</g>
<!-- Node18&#45;&gt;Node16 -->
<g id="edge24_Node000018_Node000016" class="edge">
<title>Node18&#45;&gt;Node16</title>
<g id="a_edge24_Node000018_Node000016"><a xlink:title=" ">
<path fill="none" stroke="#63b8ff" d="M84.53,-164.86C68.73,-157.85 49.41,-146.27 40,-129 32.25,-114.78 37.58,-96.56 43.77,-83.29"/>
<polygon fill="#63b8ff" stroke="#63b8ff" points="46.96,-84.74 48.46,-74.25 40.74,-81.51 46.96,-84.74"/>
</a>
</g>
</g>
<!-- Node19&#45;&gt;Node5 -->
<g id="edge39_Node000019_Node000005" class="edge">
<title>Node19&#45;&gt;Node5</title>
<g id="a_edge39_Node000019_Node000005"><a xlink:title=" ">
<path fill="none" stroke="#63b8ff" d="M700.64,-274.97C713.38,-267.22 730.86,-254.63 741,-239 759.48,-210.51 739.4,-191.99 760,-165 770.89,-150.73 787.75,-140.3 803.02,-133.14"/>
<polygon fill="#63b8ff" stroke="#63b8ff" points="804.5,-136.31 812.25,-129.09 801.69,-129.9 804.5,-136.31"/>
</a>
</g>
</g>
<!-- Node19&#45;&gt;Node6 -->
<g id="edge51_Node000019_Node000006" class="edge">
<title>Node19&#45;&gt;Node6</title>
<g id="a_edge51_Node000019_Node000006"><a xlink:title=" ">
<path fill="none" stroke="#63b8ff" d="M666.88,-274.9C613.61,-249.31 459.08,-172.67 425,-129 414.93,-116.1 410.19,-97.94 407.96,-84.34"/>
<polygon fill="#63b8ff" stroke="#63b8ff" points="411.4,-83.66 406.62,-74.21 404.46,-84.58 411.4,-83.66"/>
</a>
</g>
</g>
<!-- Node19&#45;&gt;Node12 -->
<g id="edge36_Node000019_Node000012" class="edge">
<title>Node19&#45;&gt;Node12</title>
<g id="a_edge36_Node000019_Node000012"><a xlink:title=" ">
<path fill="none" stroke="#63b8ff" d="M651.26,-275.65C569.56,-256.63 361.02,-208.09 267.55,-186.33"/>
<polygon fill="#63b8ff" stroke="#63b8ff" points="268.33,-182.92 257.8,-184.07 266.75,-189.74 268.33,-182.92"/>
</a>
</g>
</g>
<!-- Node19&#45;&gt;Node13 -->
<g id="edge35_Node000019_Node000013" class="edge">
<title>Node19&#45;&gt;Node13</title>
<g id="a_edge35_Node000019_Node000013"><a xlink:title=" ">
<path fill="none" stroke="#63b8ff" d="M659.59,-274.93C633.88,-266.17 593.03,-252.05 558,-239 458.7,-202.01 342.29,-154.96 288.32,-132.93"/>
<polygon fill="#63b8ff" stroke="#63b8ff" points="289.57,-129.66 278.99,-129.12 286.92,-136.14 289.57,-129.66"/>
</a>
</g>
</g>
<!-- Node19&#45;&gt;Node18 -->
<g id="edge50_Node000019_Node000018" class="edge">
<title>Node19&#45;&gt;Node18</title>
<g id="a_edge50_Node000019_Node000018"><a xlink:title=" ">
<path fill="none" stroke="#63b8ff" d="M651.26,-281.81C560.3,-277.01 311.59,-262.08 233,-239 194.69,-227.75 154.22,-204.6 130.31,-189.58"/>
<polygon fill="#63b8ff" stroke="#63b8ff" points="132.02,-186.52 121.71,-184.07 128.25,-192.41 132.02,-186.52"/>
</a>
</g>
</g>
<!-- Node20 -->
<g id="Node000020" class="node">
<title>Node20</title>
<g id="a_Node000020"><a xlink:href="MotorDriver_8hpp_source.html" target="_top" xlink:title=" ">
<polygon fill="white" stroke="#666666" points="863.5,-184 768.5,-184 768.5,-165 863.5,-165 863.5,-184"/>
<text text-anchor="middle" x="816" y="-172" font-family="Helvetica,sans-Serif" font-size="10.00">MotorDriver.hpp</text>
</a>
</g>
</g>
<!-- Node19&#45;&gt;Node20 -->
<g id="edge29_Node000019_Node000020" class="edge">
<title>Node19&#45;&gt;Node20</title>
<g id="a_edge29_Node000019_Node000020"><a xlink:title=" ">
<path fill="none" stroke="#63b8ff" d="M710.51,-274.87C729.55,-267.52 755.38,-255.5 774,-239 788.49,-226.16 800.15,-207.23 807.47,-193.38"/>
<polygon fill="#63b8ff" stroke="#63b8ff" points="810.64,-194.86 812.01,-184.35 804.39,-191.71 810.64,-194.86"/>
</a>
</g>
</g>
<!-- Node23 -->
<g id="Node000023" class="node">
<title>Node23</title>
<g id="a_Node000023"><a xlink:href="IrSensor_8hpp_source.html" target="_top" xlink:title=" ">
<polygon fill="white" stroke="#666666" points="997.5,-184 920.5,-184 920.5,-165 997.5,-165 997.5,-184"/>
<text text-anchor="middle" x="959" y="-172" font-family="Helvetica,sans-Serif" font-size="10.00">IrSensor.hpp</text>
</a>
</g>
</g>
<!-- Node19&#45;&gt;Node23 -->
<g id="edge37_Node000019_Node000023" class="edge">
<title>Node19&#45;&gt;Node23</title>
<g id="a_edge37_Node000019_Node000023"><a xlink:title=" ">
<path fill="none" stroke="#63b8ff" d="M718.77,-281.71C779.68,-277.81 904.63,-266.6 937,-239 949.89,-228.01 955.24,-209.06 957.45,-194.72"/>
<polygon fill="#63b8ff" stroke="#63b8ff" points="960.96,-194.77 958.63,-184.44 954.01,-193.97 960.96,-194.77"/>
</a>
</g>
</g>
<!-- Node24 -->
<g id="Node000024" class="node">
<title>Node24</title>
<g id="a_Node000024"><a xlink:href="LineFollower_8hpp_source.html" target="_top" xlink:title=" ">
<polygon fill="white" stroke="#666666" points="928,-239 830,-239 830,-220 928,-220 928,-239"/>
<text text-anchor="middle" x="879" y="-227" font-family="Helvetica,sans-Serif" font-size="10.00">LineFollower.hpp</text>
</a>
</g>
</g>
<!-- Node19&#45;&gt;Node24 -->
<g id="edge40_Node000019_Node000024" class="edge">
<title>Node19&#45;&gt;Node24</title>
<g id="a_edge40_Node000019_Node000024"><a xlink:title=" ">
<path fill="none" stroke="#63b8ff" d="M716.17,-274.98C749.16,-265.97 801.4,-251.7 837.77,-241.76"/>
<polygon fill="#63b8ff" stroke="#63b8ff" points="838.86,-245.09 847.59,-239.08 837.02,-238.34 838.86,-245.09"/>
</a>
</g>
</g>
<!-- Node25 -->
<g id="Node000025" class="node">
<title>Node25</title>
<g id="a_Node000025"><a xlink:href="BuggyState_8hpp_source.html" target="_top" xlink:title=" ">
<polygon fill="white" stroke="#666666" points="732,-239 638,-239 638,-220 732,-220 732,-239"/>
<text text-anchor="middle" x="685" y="-227" font-family="Helvetica,sans-Serif" font-size="10.00">BuggyState.hpp</text>
</a>
</g>
</g>
<!-- Node19&#45;&gt;Node25 -->
<g id="edge44_Node000019_Node000025" class="edge">
<title>Node19&#45;&gt;Node25</title>
<g id="a_edge44_Node000019_Node000025"><a xlink:title=" ">
<path fill="none" stroke="#63b8ff" d="M679.83,-274.75C678.34,-267.8 677.9,-257.85 678.52,-249.13"/>
<polygon fill="#63b8ff" stroke="#63b8ff" points="682.01,-249.47 679.87,-239.09 675.07,-248.53 682.01,-249.47"/>
</a>
</g>
</g>
<!-- Node26 -->
<g id="Node000026" class="node">
<title>Node26</title>
<g id="a_Node000026"><a xlink:href="UltrasonicSensor_8hpp_source.html" target="_top" xlink:title=" ">
<polygon fill="white" stroke="#666666" points="711.5,-184 592.5,-184 592.5,-165 711.5,-165 711.5,-184"/>
<text text-anchor="middle" x="652" y="-172" font-family="Helvetica,sans-Serif" font-size="10.00">UltrasonicSensor.hpp</text>
</a>
</g>
</g>
<!-- Node19&#45;&gt;Node26 -->
<g id="edge46_Node000019_Node000026" class="edge">
<title>Node19&#45;&gt;Node26</title>
<g id="a_edge46_Node000019_Node000026"><a xlink:title=" ">
<path fill="none" stroke="#63b8ff" d="M667.23,-274.96C653.99,-267.51 636.88,-255.33 629,-239 621.7,-223.88 629.77,-205.8 638.29,-192.8"/>
<polygon fill="#63b8ff" stroke="#63b8ff" points="641.37,-194.52 644.37,-184.36 635.69,-190.43 641.37,-194.52"/>
</a>
</g>
</g>
<!-- Node19&#45;&gt;Node27 -->
<g id="edge52_Node000019_Node000027" class="edge">
<title>Node19&#45;&gt;Node27</title>
<g id="a_edge52_Node000019_Node000027"><a xlink:title=" ">
<path fill="none" stroke="#63b8ff" d="M718.75,-279.07C791.5,-269.53 963.06,-247.02 1044.54,-236.33"/>
<polygon fill="#63b8ff" stroke="#63b8ff" points="1045.03,-239.8 1054.49,-235.03 1044.12,-232.86 1045.03,-239.8"/>
</a>
</g>
</g>
<!-- Node20&#45;&gt;Node5 -->
<g id="edge30_Node000020_Node000005" class="edge">
<title>Node20&#45;&gt;Node5</title>
<g id="a_edge30_Node000020_Node000005"><a xlink:title=" ">
<path fill="none" stroke="#63b8ff" d="M819.63,-164.75C822.58,-157.65 826.83,-147.4 830.51,-138.56"/>
<polygon fill="#63b8ff" stroke="#63b8ff" points="833.83,-139.67 834.43,-129.09 827.37,-136.98 833.83,-139.67"/>
</a>
</g>
</g>
<!-- Node20&#45;&gt;Node21 -->
<g id="edge31_Node000020_Node000021" class="edge">
<title>Node20&#45;&gt;Node21</title>
<g id="a_edge31_Node000020_Node000021"><a xlink:title=" ">
<path fill="none" stroke="#63b8ff" d="M837.05,-164.98C858.41,-156.34 891.7,-142.87 916.06,-133.02"/>
<polygon fill="#63b8ff" stroke="#63b8ff" points="917.61,-136.17 925.57,-129.17 914.99,-129.68 917.61,-136.17"/>
</a>
</g>
</g>
<!-- Node22 -->
<g id="Node000022" class="node">
<title>Node22</title>
<g id="a_Node000022"><a xlink:href="MoveMeanFilter_8hpp_source.html" target="_top" xlink:title=" ">
<polygon fill="white" stroke="#666666" points="742,-129 626,-129 626,-110 742,-110 742,-129"/>
<text text-anchor="middle" x="684" y="-117" font-family="Helvetica,sans-Serif" font-size="10.00">MoveMeanFilter.hpp</text>
</a>
</g>
</g>
<!-- Node20&#45;&gt;Node22 -->
<g id="edge32_Node000020_Node000022" class="edge">
<title>Node20&#45;&gt;Node22</title>
<g id="a_edge32_Node000020_Node000022"><a xlink:title=" ">
<path fill="none" stroke="#63b8ff" d="M794.79,-164.98C773.27,-156.34 739.72,-142.87 715.17,-133.02"/>
<polygon fill="#63b8ff" stroke="#63b8ff" points="716.18,-129.65 705.59,-129.17 713.57,-136.14 716.18,-129.65"/>
</a>
</g>
</g>
<!-- Node22&#45;&gt;Node2 -->
<g id="edge33_Node000022_Node000002" class="edge">
<title>Node22&#45;&gt;Node2</title>
<g id="a_edge33_Node000022_Node000002"><a xlink:title=" ">
<path fill="none" stroke="#63b8ff" d="M697.82,-109.98C711.15,-101.77 731.58,-89.18 747.31,-79.49"/>
<polygon fill="#63b8ff" stroke="#63b8ff" points="749.25,-82.4 755.93,-74.17 745.58,-76.44 749.25,-82.4"/>
</a>
</g>
</g>
<!-- Node22&#45;&gt;Node6 -->
<g id="edge34_Node000022_Node000006" class="edge">
<title>Node22&#45;&gt;Node6</title>
<g id="a_edge34_Node000022_Node000006"><a xlink:title=" ">
<path fill="none" stroke="#63b8ff" d="M639.33,-109.98C590.84,-100.74 513.35,-85.97 461.11,-76.01"/>
<polygon fill="#63b8ff" stroke="#63b8ff" points="461.49,-72.52 451.02,-74.08 460.18,-79.39 461.49,-72.52"/>
</a>
</g>
</g>
<!-- Node23&#45;&gt;Node2 -->
<g id="edge38_Node000023_Node000002" class="edge">
<title>Node23&#45;&gt;Node2</title>
<g id="a_edge38_Node000023_Node000002"><a xlink:title=" ">
<path fill="none" stroke="#63b8ff" d="M973.7,-164.89C993.03,-152.5 1022.8,-129.04 1007,-110 982.68,-80.69 873.18,-70.56 811.89,-67.16"/>
<polygon fill="#63b8ff" stroke="#63b8ff" points="811.93,-63.65 801.76,-66.63 811.57,-70.65 811.93,-63.65"/>
</a>
</g>
</g>
<!-- Node24&#45;&gt;Node20 -->
<g id="edge41_Node000024_Node000020" class="edge">
<title>Node24&#45;&gt;Node20</title>
<g id="a_edge41_Node000024_Node000020"><a xlink:title=" ">
<path fill="none" stroke="#63b8ff" d="M868.88,-219.98C859.56,-212.15 845.53,-200.34 834.26,-190.86"/>
<polygon fill="#63b8ff" stroke="#63b8ff" points="836.21,-187.93 826.31,-184.17 831.71,-193.29 836.21,-187.93"/>
</a>
</g>
</g>
<!-- Node24&#45;&gt;Node21 -->
<g id="edge43_Node000024_Node000021" class="edge">
<title>Node24&#45;&gt;Node21</title>
<g id="a_edge43_Node000024_Node000021"><a xlink:title=" ">
<path fill="none" stroke="#63b8ff" d="M882.99,-219.58C888.74,-207.02 900.01,-183.58 912,-165 918.33,-155.19 926.31,-144.91 933.06,-136.7"/>
<polygon fill="#63b8ff" stroke="#63b8ff" points="935.77,-138.91 939.52,-129 930.41,-134.41 935.77,-138.91"/>
</a>
</g>
</g>
<!-- Node24&#45;&gt;Node23 -->
<g id="edge42_Node000024_Node000023" class="edge">
<title>Node24&#45;&gt;Node23</title>
<g id="a_edge42_Node000024_Node000023"><a xlink:title=" ">
<path fill="none" stroke="#63b8ff" d="M891.85,-219.98C904.14,-211.84 922.91,-199.41 937.48,-189.76"/>
<polygon fill="#63b8ff" stroke="#63b8ff" points="939.51,-192.61 945.91,-184.17 935.64,-186.78 939.51,-192.61"/>
</a>
</g>
</g>
<!-- Node25&#45;&gt;Node19 -->
<g id="edge45_Node000025_Node000019" class="edge">
<title>Node25&#45;&gt;Node19</title>
<g id="a_edge45_Node000025_Node000019"><a xlink:title=" ">
<path fill="none" stroke="#63b8ff" d="M690.13,-239.09C691.64,-245.99 692.09,-255.93 691.49,-264.66"/>
<polygon fill="#63b8ff" stroke="#63b8ff" points="688,-264.38 690.17,-274.75 694.94,-265.29 688,-264.38"/>
</a>
</g>
</g>
<!-- Node26&#45;&gt;Node2 -->
<g id="edge47_Node000026_Node000002" class="edge">
<title>Node26&#45;&gt;Node2</title>
<g id="a_edge47_Node000026_Node000002"><a xlink:title=" ">
<path fill="none" stroke="#63b8ff" d="M689.58,-164.86C710.35,-158.27 735.1,-147.14 751,-129 761.78,-116.69 766.45,-98.47 768.47,-84.7"/>
<polygon fill="#63b8ff" stroke="#63b8ff" points="771.98,-84.73 769.61,-74.4 765.03,-83.95 771.98,-84.73"/>
</a>
</g>
</g>
<!-- Node26&#45;&gt;Node5 -->
<g id="edge48_Node000026_Node000005" class="edge">
<title>Node26&#45;&gt;Node5</title>
<g id="a_edge48_Node000026_Node000005"><a xlink:title=" ">
<path fill="none" stroke="#63b8ff" d="M681.88,-164.98C713.38,-156.01 763.17,-141.82 798.03,-131.89"/>
<polygon fill="#63b8ff" stroke="#63b8ff" points="799.22,-135.19 807.88,-129.08 797.31,-128.46 799.22,-135.19"/>
</a>
</g>
</g>
<!-- Node26&#45;&gt;Node22 -->
<g id="edge49_Node000026_Node000022" class="edge">
<title>Node26&#45;&gt;Node22</title>
<g id="a_edge49_Node000026_Node000022"><a xlink:title=" ">
<path fill="none" stroke="#63b8ff" d="M657.28,-164.75C661.71,-157.42 668.16,-146.73 673.62,-137.7"/>
<polygon fill="#63b8ff" stroke="#63b8ff" points="676.64,-139.46 678.81,-129.09 670.65,-135.84 676.64,-139.46"/>
</a>
</g>
</g>
<!-- Node27&#45;&gt;Node2 -->
<g id="edge53_Node000027_Node000002" class="edge">
<title>Node27&#45;&gt;Node2</title>
<g id="a_edge53_Node000027_Node000002"><a xlink:title=" ">
<path fill="none" stroke="#63b8ff" d="M1086.95,-219.92C1081.18,-197.72 1062.53,-138.12 1023,-110 989.7,-86.31 874.38,-73.73 811.57,-68.5"/>
<polygon fill="#63b8ff" stroke="#63b8ff" points="811.84,-65.01 801.59,-67.69 811.28,-71.98 811.84,-65.01"/>
</a>
</g>
</g>
<!-- Node28 -->
<g id="Node000028" class="node">
<title>Node28</title>
<g id="a_Node000028"><a xlink:title=" ">
<polygon fill="#e0e0e0" stroke="#999999" points="1216,-184 1092,-184 1092,-165 1216,-165 1216,-184"/>
<text text-anchor="middle" x="1154" y="-172" font-family="Helvetica,sans-Serif" font-size="10.00">Arduino_LED_Matrix.h</text>
</a>
</g>
</g>
<!-- Node27&#45;&gt;Node28 -->
<g id="edge54_Node000027_Node000028" class="edge">
<title>Node27&#45;&gt;Node28</title>
<g id="a_edge54_Node000027_Node000028"><a xlink:title=" ">
<path fill="none" stroke="#63b8ff" d="M1099.44,-219.98C1109.15,-212.07 1123.82,-200.11 1135.5,-190.58"/>
<polygon fill="#63b8ff" stroke="#63b8ff" points="1137.83,-193.2 1143.37,-184.17 1133.4,-187.78 1137.83,-193.2"/>
</a>
</g>
</g>
</g>
</svg>

<g id="navigator" transform="translate(0 0)" fill="#404254">
  <rect fill="#f2f5e9" fill-opacity="0.5" stroke="#606060" stroke-width=".5" x="0" y="0" width="60" height="60"/>
  <use id="zoomplus" xlink:href="#zoomPlus" x="17" y="9" onmousedown="handleZoom(evt,'in')"/>
  <use id="zoomminus" xlink:href="#zoomMin" x="42" y="9" onmousedown="handleZoom(evt,'out')"/>
  <use id="reset" xlink:href="#resetDef" x="30" y="36" onmousedown="handleReset()"/>
   <use id="arrowup" xlink:href="#arrowUp" x="0" y="0" onmousedown="handlePan(0,-1)"/>
  <use id="arrowright" xlink:href="#arrowRight" x="0" y="0" onmousedown="handlePan(1,0)"/>
  <use id="arrowdown" xlink:href="#arrowDown" x="0" y="0" onmousedown="handlePan(0,1)"/>
  <use id="arrowleft" xlink:href="#arrowLeft" x="0" y="0" onmousedown="handlePan(-1,0)"/>
</g>
<svg viewBox="0 0 15 15" width="100%" height="30px" preserveAspectRatio="xMaxYMin meet">
 <g id="arrow_out" transform="scale(0.3 0.3)">
  <a xlink:href="BuggySoftware_8ino__incl_org.svg" target="_base">
   <rect id="button" ry="5" rx="5" y="6" x="6" height="38" width="38"
        fill="#f2f5e9" fill-opacity="0.5" stroke="#606060" stroke-width="1.0"/>
   <path id="arrow"
     d="M 11.500037,31.436501 C 11.940474,20.09759 22.043105,11.32322 32.158766,21.979434 L 37.068811,17.246167 C 37.068811,17.246167 37.088388,32 37.088388,32 L 22.160133,31.978069 C 22.160133,31.978069 26.997745,27.140456 26.997745,27.140456 C 18.528582,18.264221 13.291696,25.230495 11.500037,31.436501 z"
     style="fill:#404040;"/>
  </a>
 </g>
</svg>

<style type='text/css'>
<![CDATA[
[data-mouse-over-selected='false'] { opacity: 0.7; }
[data-mouse-over-selected='true']  { opacity: 1.0; }
]]>
</style>
<script type="application/ecmascript"><![CDATA[
document.addEventListener('DOMContentLoaded', (event) => {
  highlightEdges();
  highlightAdjacentNodes();
});
]]></script>
</svg>
