<?xml version="1.0" encoding="UTF-8" standalone="no"?>
<!DOCTYPE svg PUBLIC "-//W3C//DTD SVG 1.1//EN"
 "http://www.w3.org/Graphics/SVG/1.1/DTD/svg11.dtd">
<!-- Generated by graphviz version 2.43.0 (0)
 -->
<!-- Title: BuggySoftware/BuggySoftware.ino Pages: 1 -->
<!--zoomable 302 -->

<svg id="main" version="1.1" xmlns="http://www.w3.org/2000/svg" xmlns:xlink="http://www.w3.org/1999/xlink" xml:space="preserve" onload="init(evt)">

<style type="text/css"><![CDATA[
.node, .edge {opacity: 0.7;}
.node.selected, .edge.selected {opacity: 1;}
.edge:hover path { stroke: red; }
.edge:hover polygon { stroke: red; fill: red; }
]]></style>

<defs>
  <circle id="rim" cx="0" cy="0" r="7"/>
  <circle id="rim2" cx="0" cy="0" r="3.5"/>
  <g id="zoomPlus">
    <use xlink:href="#rim" fill="#404040"><set attributeName="fill" to="#808080" begin="zoomplus.mouseover" end="zoomplus.mouseout"/></use>
    <path d="M-4,0h8M0,-4v8" fill="none" stroke="white" stroke-width="1.5" pointer-events="none"/>
  </g>
  <g id="zoomMin">
    <use xlink:href="#rim" fill="#404040"><set attributeName="fill" to="#808080" begin="zoomminus.mouseover" end="zoomminus.mouseout"/></use>
    <path d="M-4,0h8" fill="none" stroke="white" stroke-width="1.5" pointer-events="none"/>
  </g>
  <g id="arrowUp" transform="translate(30 24)">
    <use xlink:href="#rim"/>
    <path pointer-events="none" fill="none" stroke="white" stroke-width="1.5" d="M0,-3.0v7 M-2.5,-0.5L0,-3.0L2.5,-0.5"/>
  </g>
  <g id="arrowRight" transform="rotate(90) translate(36 -43)">
    <use xlink:href="#rim"/>
    <path pointer-events="none" fill="none" stroke="white" stroke-width="1.5" d="M0,-3.0v7 M-2.5,-0.5L0,-3.0L2.5,-0.5"/>
  </g>
  <g id="arrowDown" transform="rotate(180) translate(-30 -48)">
    <use xlink:href="#rim"/>
    <path pointer-events="none" fill="none" stroke="white" stroke-width="1.5" d="M0,-3.0v7 M-2.5,-0.5L0,-3.0L2.5,-0.5"/>
  </g>
  <g id="arrowLeft" transform="rotate(270) translate(-36 17)">
    <use xlink:href="#rim"/>
    <path pointer-events="none" fill="none" stroke="white" stroke-width="1.5" d="M0,-3.0v7 M-2.5,-0.5L0,-3.0L2.5,-0.5"/>
  </g>
  <g id="resetDef">
    <use xlink:href="#rim2" fill="#404040"><set attributeName="fill" to="#808080" begin="reset.mouseover" end="reset.mouseout"/></use>
  </g>
</defs>
<script type="application/ecmascript">
var viewWidth = 1109;
var viewHeight = 302;
var sectionId = 'dynsection-0';
</script>
<script type="application/ecmascript" xlink:href="svg.min.js"/>
<svg id="graph" class="graph">
<g id="viewport">
<title>BuggySoftware/BuggySoftware.ino</title>
<!-- Node1 -->
<g id="Node000001" class="node">
<title>Node1</title>
<g id="a_Node000001"><a xlink:title="This is the main entry point for the Buggy software.">
<polygon fill="#999999" stroke="#666666" points="751.5,-294 566.5,-294 566.5,-275 751.5,-275 751.5,-294"/>
<text text-anchor="middle" x="659" y="-282" font-family="Helvetica,sans-Serif" font-size="10.00">BuggySoftware/BuggySoftware.ino</text>
</a>
</g>
</g>
<!-- Node2 -->
<g id="Node000002" class="node">
<title>Node2</title>
<g id="a_Node000002"><a xlink:title=" ">
<polygon fill="#e0e0e0" stroke="#999999" points="371.5,-19 308.5,-19 308.5,0 371.5,0 371.5,-19"/>
<text text-anchor="middle" x="340" y="-7" font-family="Helvetica,sans-Serif" font-size="10.00">Arduino.h</text>
</a>
</g>
</g>
<!-- Node1&#45;&gt;Node2 -->
<g id="edge1_Node000001_Node000002" class="edge">
<title>Node1&#45;&gt;Node2</title>
<g id="a_edge1_Node000001_Node000002"><a xlink:title=" ">
<path fill="none" stroke="#63b8ff" d="M566.38,-281.71C468.94,-278.26 311.61,-268.19 179,-239 96.56,-220.85 0,-259.91 0,-175.5 0,-175.5 0,-175.5 0,-118.5 0,-56.55 207.6,-25.47 298.36,-14.85"/>
<polygon fill="#63b8ff" stroke="#63b8ff" points="298.78,-18.32 308.32,-13.71 297.99,-11.37 298.78,-18.32"/>
</a>
</g>
</g>
<!-- Node3 -->
<g id="Node000003" class="node">
<title>Node3</title>
<g id="a_Node000003"><a xlink:href="Timer1_8hpp.html" target="_top" xlink:title="Setup methods for Timer1.">
<polygon fill="white" stroke="#666666" points="1063,-239 991,-239 991,-220 1063,-220 1063,-239"/>
<text text-anchor="middle" x="1027" y="-227" font-family="Helvetica,sans-Serif" font-size="10.00">Timer1.hpp</text>
</a>
</g>
</g>
<!-- Node1&#45;&gt;Node3 -->
<g id="edge2_Node000001_Node000003" class="edge">
<title>Node1&#45;&gt;Node3</title>
<g id="a_edge2_Node000001_Node000003"><a xlink:title=" ">
<path fill="none" stroke="#63b8ff" d="M718.13,-274.98C791.22,-264.46 914.09,-246.76 980.7,-237.17"/>
<polygon fill="#63b8ff" stroke="#63b8ff" points="981.49,-240.59 990.89,-235.7 980.49,-233.66 981.49,-240.59"/>
</a>
</g>
</g>
<!-- Node5 -->
<g id="Node000005" class="node">
<title>Node5</title>
<g id="a_Node000005"><a xlink:href="PinSetup_8hpp_source.html" target="_top" xlink:title=" ">
<polygon fill="white" stroke="#666666" points="414,-74 334,-74 334,-55 414,-55 414,-74"/>
<text text-anchor="middle" x="374" y="-62" font-family="Helvetica,sans-Serif" font-size="10.00">PinSetup.hpp</text>
</a>
</g>
</g>
<!-- Node1&#45;&gt;Node5 -->
<g id="edge4_Node000001_Node000005" class="edge">
<title>Node1&#45;&gt;Node5</title>
<g id="a_edge4_Node000001_Node000005"><a xlink:title=" ">
<path fill="none" stroke="#63b8ff" d="M614.09,-275C512.58,-254.63 271.56,-199.49 237,-129 218.4,-91.06 277.52,-75.72 323.88,-69.57"/>
<polygon fill="#63b8ff" stroke="#63b8ff" points="324.33,-73.04 333.84,-68.35 323.49,-66.09 324.33,-73.04"/>
</a>
</g>
</g>
<!-- Node6 -->
<g id="Node000006" class="node">
<title>Node6</title>
<g id="a_Node000006"><a xlink:href="Logger_8hpp_source.html" target="_top" xlink:title=" ">
<polygon fill="white" stroke="#666666" points="862,-239 792,-239 792,-220 862,-220 862,-239"/>
<text text-anchor="middle" x="827" y="-227" font-family="Helvetica,sans-Serif" font-size="10.00">Logger.hpp</text>
</a>
</g>
</g>
<!-- Node1&#45;&gt;Node6 -->
<g id="edge6_Node000001_Node000006" class="edge">
<title>Node1&#45;&gt;Node6</title>
<g id="a_edge6_Node000001_Node000006"><a xlink:title=" ">
<path fill="none" stroke="#63b8ff" d="M685.99,-274.98C714.2,-266.09 758.64,-252.07 790.08,-242.15"/>
<polygon fill="#63b8ff" stroke="#63b8ff" points="791.31,-245.43 799.8,-239.08 789.21,-238.75 791.31,-245.43"/>
</a>
</g>
</g>
<!-- Node17 -->
<g id="Node000017" class="node">
<title>Node17</title>
<g id="a_Node000017"><a xlink:href="Buggy_8hpp_source.html" target="_top" xlink:title=" ">
<polygon fill="white" stroke="#666666" points="597.5,-239 530.5,-239 530.5,-220 597.5,-220 597.5,-239"/>
<text text-anchor="middle" x="564" y="-227" font-family="Helvetica,sans-Serif" font-size="10.00">Buggy.hpp</text>
</a>
</g>
</g>
<!-- Node1&#45;&gt;Node17 -->
<g id="edge18_Node000001_Node000017" class="edge">
<title>Node1&#45;&gt;Node17</title>
<g id="a_edge18_Node000001_Node000017"><a xlink:title=" ">
<path fill="none" stroke="#63b8ff" d="M643.74,-274.98C628.87,-266.69 606.02,-253.94 588.58,-244.22"/>
<polygon fill="#63b8ff" stroke="#63b8ff" points="589.98,-240.99 579.54,-239.17 586.57,-247.1 589.98,-240.99"/>
</a>
</g>
</g>
<!-- Node19 -->
<g id="Node000019" class="node">
<title>Node19</title>
<g id="a_Node000019"><a xlink:href="PIDController_8hpp_source.html" target="_top" xlink:title=" ">
<polygon fill="white" stroke="#666666" points="625.5,-74 524.5,-74 524.5,-55 625.5,-55 625.5,-74"/>
<text text-anchor="middle" x="575" y="-62" font-family="Helvetica,sans-Serif" font-size="10.00">PIDController.hpp</text>
</a>
</g>
</g>
<!-- Node1&#45;&gt;Node19 -->
<g id="edge43_Node000001_Node000019" class="edge">
<title>Node1&#45;&gt;Node19</title>
<g id="a_edge43_Node000001_Node000019"><a xlink:title=" ">
<path fill="none" stroke="#63b8ff" d="M660.19,-274.79C663.41,-247.99 669.94,-165.3 637,-110 629.09,-96.72 615.51,-86.3 603.07,-78.89"/>
<polygon fill="#63b8ff" stroke="#63b8ff" points="604.76,-75.83 594.32,-74.03 601.36,-81.95 604.76,-75.83"/>
</a>
</g>
</g>
<!-- Node24 -->
<g id="Node000024" class="node">
<title>Node24</title>
<g id="a_Node000024"><a xlink:href="PacketFactory_8hpp_source.html" target="_top" xlink:title=" ">
<polygon fill="white" stroke="#666666" points="1011.5,-184 908.5,-184 908.5,-165 1011.5,-165 1011.5,-184"/>
<text text-anchor="middle" x="960" y="-172" font-family="Helvetica,sans-Serif" font-size="10.00">PacketFactory.hpp</text>
</a>
</g>
</g>
<!-- Node1&#45;&gt;Node24 -->
<g id="edge44_Node000001_Node000024" class="edge">
<title>Node1&#45;&gt;Node24</title>
<g id="a_edge44_Node000001_Node000024"><a xlink:title=" ">
<path fill="none" stroke="#63b8ff" d="M736.91,-274.99C778.04,-268.58 828.64,-257.58 871,-239 898.24,-227.05 925.47,-205.94 942.51,-191.36"/>
<polygon fill="#63b8ff" stroke="#63b8ff" points="945.22,-193.64 950.43,-184.41 940.6,-188.38 945.22,-193.64"/>
</a>
</g>
</g>
<!-- Node25 -->
<g id="Node000025" class="node">
<title>Node25</title>
<g id="a_Node000025"><a xlink:href="Matrix_8hpp_source.html" target="_top" xlink:title=" ">
<polygon fill="white" stroke="#666666" points="189.5,-184 120.5,-184 120.5,-165 189.5,-165 189.5,-184"/>
<text text-anchor="middle" x="155" y="-172" font-family="Helvetica,sans-Serif" font-size="10.00">Matrix.hpp</text>
</a>
</g>
</g>
<!-- Node1&#45;&gt;Node25 -->
<g id="edge45_Node000001_Node000025" class="edge">
<title>Node1&#45;&gt;Node25</title>
<g id="a_edge45_Node000001_Node000025"><a xlink:title=" ">
<path fill="none" stroke="#63b8ff" d="M566.46,-283C451.82,-280.93 264.24,-272.34 204,-239 185.59,-228.81 171.84,-208.52 163.66,-193.61"/>
<polygon fill="#63b8ff" stroke="#63b8ff" points="166.58,-191.63 158.9,-184.33 160.36,-194.83 166.58,-191.63"/>
</a>
</g>
</g>
<!-- Node4 -->
<g id="Node000004" class="node">
<title>Node4</title>
<g id="a_Node000004"><a xlink:title=" ">
<polygon fill="#e0e0e0" stroke="#999999" points="1100.5,-184 1029.5,-184 1029.5,-165 1100.5,-165 1100.5,-184"/>
<text text-anchor="middle" x="1065" y="-172" font-family="Helvetica,sans-Serif" font-size="10.00">FspTimer.h</text>
</a>
</g>
</g>
<!-- Node3&#45;&gt;Node4 -->
<g id="edge3_Node000003_Node000004" class="edge">
<title>Node3&#45;&gt;Node4</title>
<g id="a_edge3_Node000003_Node000004"><a xlink:title=" ">
<path fill="none" stroke="#63b8ff" d="M1033.27,-219.75C1038.59,-212.34 1046.36,-201.5 1052.88,-192.41"/>
<polygon fill="#63b8ff" stroke="#63b8ff" points="1055.86,-194.26 1058.84,-184.09 1050.17,-190.18 1055.86,-194.26"/>
</a>
</g>
</g>
<!-- Node5&#45;&gt;Node2 -->
<g id="edge5_Node000005_Node000002" class="edge">
<title>Node5&#45;&gt;Node2</title>
<g id="a_edge5_Node000005_Node000002"><a xlink:title=" ">
<path fill="none" stroke="#63b8ff" d="M368.39,-54.75C363.68,-47.42 356.83,-36.73 351.03,-27.7"/>
<polygon fill="#63b8ff" stroke="#63b8ff" points="353.86,-25.62 345.51,-19.09 347.96,-29.4 353.86,-25.62"/>
</a>
</g>
</g>
<!-- Node7 -->
<g id="Node000007" class="node">
<title>Node7</title>
<g id="a_Node000007"><a xlink:href="LeanStreamIO_8hpp_source.html" target="_top" xlink:title=" ">
<polygon fill="white" stroke="#666666" points="890.5,-184 783.5,-184 783.5,-165 890.5,-165 890.5,-184"/>
<text text-anchor="middle" x="837" y="-172" font-family="Helvetica,sans-Serif" font-size="10.00">LeanStreamIO.hpp</text>
</a>
</g>
</g>
<!-- Node6&#45;&gt;Node7 -->
<g id="edge7_Node000006_Node000007" class="edge">
<title>Node6&#45;&gt;Node7</title>
<g id="a_edge7_Node000006_Node000007"><a xlink:title=" ">
<path fill="none" stroke="#63b8ff" d="M828.65,-219.75C829.96,-212.8 831.84,-202.85 833.48,-194.13"/>
<polygon fill="#63b8ff" stroke="#63b8ff" points="836.96,-194.56 835.38,-184.09 830.09,-193.27 836.96,-194.56"/>
</a>
</g>
</g>
<!-- Node8 -->
<g id="Node000008" class="node">
<title>Node8</title>
<g id="a_Node000008"><a xlink:title=" ">
<polygon fill="#e0e0e0" stroke="#999999" points="1032,-129 988,-129 988,-110 1032,-110 1032,-129"/>
<text text-anchor="middle" x="1010" y="-117" font-family="Helvetica,sans-Serif" font-size="10.00">string</text>
</a>
</g>
</g>
<!-- Node7&#45;&gt;Node8 -->
<g id="edge8_Node000007_Node000008" class="edge">
<title>Node7&#45;&gt;Node8</title>
<g id="a_edge8_Node000007_Node000008"><a xlink:title=" ">
<path fill="none" stroke="#63b8ff" d="M864.8,-164.98C895.65,-155.53 945.37,-140.3 977.87,-130.34"/>
<polygon fill="#63b8ff" stroke="#63b8ff" points="979.24,-133.59 987.77,-127.31 977.19,-126.89 979.24,-133.59"/>
</a>
</g>
</g>
<!-- Node9 -->
<g id="Node000009" class="node">
<title>Node9</title>
<g id="a_Node000009"><a xlink:title=" ">
<polygon fill="#e0e0e0" stroke="#999999" points="901.5,-129 848.5,-129 848.5,-110 901.5,-110 901.5,-129"/>
<text text-anchor="middle" x="875" y="-117" font-family="Helvetica,sans-Serif" font-size="10.00">cstddef</text>
</a>
</g>
</g>
<!-- Node7&#45;&gt;Node9 -->
<g id="edge9_Node000007_Node000009" class="edge">
<title>Node7&#45;&gt;Node9</title>
<g id="a_edge9_Node000007_Node000009"><a xlink:title=" ">
<path fill="none" stroke="#63b8ff" d="M843.27,-164.75C848.59,-157.34 856.36,-146.5 862.88,-137.41"/>
<polygon fill="#63b8ff" stroke="#63b8ff" points="865.86,-139.26 868.84,-129.09 860.17,-135.18 865.86,-139.26"/>
</a>
</g>
</g>
<!-- Node10 -->
<g id="Node000010" class="node">
<title>Node10</title>
<g id="a_Node000010"><a xlink:title=" ">
<polygon fill="#e0e0e0" stroke="#999999" points="970,-129 920,-129 920,-110 970,-110 970,-129"/>
<text text-anchor="middle" x="945" y="-117" font-family="Helvetica,sans-Serif" font-size="10.00">cstring</text>
</a>
</g>
</g>
<!-- Node7&#45;&gt;Node10 -->
<g id="edge10_Node000007_Node000010" class="edge">
<title>Node7&#45;&gt;Node10</title>
<g id="a_edge10_Node000007_Node000010"><a xlink:title=" ">
<path fill="none" stroke="#63b8ff" d="M854.35,-164.98C871.57,-156.54 898.2,-143.47 918.15,-133.68"/>
<polygon fill="#63b8ff" stroke="#63b8ff" points="919.9,-136.72 927.33,-129.17 916.81,-130.43 919.9,-136.72"/>
</a>
</g>
</g>
<!-- Node11 -->
<g id="Node000011" class="node">
<title>Node11</title>
<g id="a_Node000011"><a xlink:href="BuggyTCP_8hpp_source.html" target="_top" xlink:title=" ">
<polygon fill="white" stroke="#666666" points="830.5,-129 745.5,-129 745.5,-110 830.5,-110 830.5,-129"/>
<text text-anchor="middle" x="788" y="-117" font-family="Helvetica,sans-Serif" font-size="10.00">BuggyTCP.hpp</text>
</a>
</g>
</g>
<!-- Node7&#45;&gt;Node11 -->
<g id="edge11_Node000007_Node000011" class="edge">
<title>Node7&#45;&gt;Node11</title>
<g id="a_edge11_Node000007_Node000011"><a xlink:title=" ">
<path fill="none" stroke="#63b8ff" d="M828.91,-164.75C821.84,-157.11 811.41,-145.82 802.85,-136.56"/>
<polygon fill="#63b8ff" stroke="#63b8ff" points="805.3,-134.06 795.94,-129.09 800.16,-138.81 805.3,-134.06"/>
</a>
</g>
</g>
<!-- Node12 -->
<g id="Node000012" class="node">
<title>Node12</title>
<g id="a_Node000012"><a xlink:href="BuggyWifi_8hpp_source.html" target="_top" xlink:title=" ">
<polygon fill="white" stroke="#666666" points="730.5,-74 643.5,-74 643.5,-55 730.5,-55 730.5,-74"/>
<text text-anchor="middle" x="687" y="-62" font-family="Helvetica,sans-Serif" font-size="10.00">BuggyWifi.hpp</text>
</a>
</g>
</g>
<!-- Node11&#45;&gt;Node12 -->
<g id="edge12_Node000011_Node000012" class="edge">
<title>Node11&#45;&gt;Node12</title>
<g id="a_edge12_Node000011_Node000012"><a xlink:title=" ">
<path fill="none" stroke="#63b8ff" d="M771.77,-109.98C755.82,-101.61 731.22,-88.7 712.62,-78.95"/>
<polygon fill="#63b8ff" stroke="#63b8ff" points="714,-75.72 703.52,-74.17 710.75,-81.92 714,-75.72"/>
</a>
</g>
</g>
<!-- Node15 -->
<g id="Node000015" class="node">
<title>Node15</title>
<g id="a_Node000015"><a xlink:href="PacketTypes_8hpp_source.html" target="_top" xlink:title=" ">
<polygon fill="white" stroke="#666666" points="939.5,-19 842.5,-19 842.5,0 939.5,0 939.5,-19"/>
<text text-anchor="middle" x="891" y="-7" font-family="Helvetica,sans-Serif" font-size="10.00">PacketTypes.hpp</text>
</a>
</g>
</g>
<!-- Node11&#45;&gt;Node15 -->
<g id="edge15_Node000011_Node000015" class="edge">
<title>Node11&#45;&gt;Node15</title>
<g id="a_edge15_Node000011_Node000015"><a xlink:title=" ">
<path fill="none" stroke="#63b8ff" d="M816.28,-109.92C834.61,-102.99 857.66,-91.48 872,-74 882.38,-61.35 887.09,-43.16 889.23,-29.49"/>
<polygon fill="#63b8ff" stroke="#63b8ff" points="892.74,-29.65 890.49,-19.29 885.79,-28.79 892.74,-29.65"/>
</a>
</g>
</g>
<!-- Node16 -->
<g id="Node000016" class="node">
<title>Node16</title>
<g id="a_Node000016"><a xlink:href="PacketSerializer_8hpp_source.html" target="_top" xlink:title=" ">
<polygon fill="white" stroke="#666666" points="863,-74 749,-74 749,-55 863,-55 863,-74"/>
<text text-anchor="middle" x="806" y="-62" font-family="Helvetica,sans-Serif" font-size="10.00">PacketSerializer.hpp</text>
</a>
</g>
</g>
<!-- Node11&#45;&gt;Node16 -->
<g id="edge16_Node000011_Node000016" class="edge">
<title>Node11&#45;&gt;Node16</title>
<g id="a_edge16_Node000011_Node000016"><a xlink:title=" ">
<path fill="none" stroke="#63b8ff" d="M790.97,-109.75C793.36,-102.72 796.79,-92.62 799.77,-83.84"/>
<polygon fill="#63b8ff" stroke="#63b8ff" points="803.18,-84.68 803.08,-74.09 796.55,-82.43 803.18,-84.68"/>
</a>
</g>
</g>
<!-- Node13 -->
<g id="Node000013" class="node">
<title>Node13</title>
<g id="a_Node000013"><a xlink:title=" ">
<polygon fill="#e0e0e0" stroke="#999999" points="677.5,-19 618.5,-19 618.5,0 677.5,0 677.5,-19"/>
<text text-anchor="middle" x="648" y="-7" font-family="Helvetica,sans-Serif" font-size="10.00">WiFiS3.h</text>
</a>
</g>
</g>
<!-- Node12&#45;&gt;Node13 -->
<g id="edge13_Node000012_Node000013" class="edge">
<title>Node12&#45;&gt;Node13</title>
<g id="a_edge13_Node000012_Node000013"><a xlink:title=" ">
<path fill="none" stroke="#63b8ff" d="M680.56,-54.75C675.11,-47.34 667.14,-36.5 660.44,-27.41"/>
<polygon fill="#63b8ff" stroke="#63b8ff" points="663.07,-25.07 654.32,-19.09 657.43,-29.22 663.07,-25.07"/>
</a>
</g>
</g>
<!-- Node14 -->
<g id="Node000014" class="node">
<title>Node14</title>
<g id="a_Node000014"><a xlink:href="secrets_8h_source.html" target="_top" xlink:title=" ">
<polygon fill="white" stroke="#666666" points="756.5,-19 695.5,-19 695.5,0 756.5,0 756.5,-19"/>
<text text-anchor="middle" x="726" y="-7" font-family="Helvetica,sans-Serif" font-size="10.00">secrets.h</text>
</a>
</g>
</g>
<!-- Node12&#45;&gt;Node14 -->
<g id="edge14_Node000012_Node000014" class="edge">
<title>Node12&#45;&gt;Node14</title>
<g id="a_edge14_Node000012_Node000014"><a xlink:title=" ">
<path fill="none" stroke="#63b8ff" d="M693.44,-54.75C698.89,-47.34 706.86,-36.5 713.56,-27.41"/>
<polygon fill="#63b8ff" stroke="#63b8ff" points="716.57,-29.22 719.68,-19.09 710.93,-25.07 716.57,-29.22"/>
</a>
</g>
</g>
<!-- Node16&#45;&gt;Node15 -->
<g id="edge17_Node000016_Node000015" class="edge">
<title>Node16&#45;&gt;Node15</title>
<g id="a_edge17_Node000016_Node000015"><a xlink:title=" ">
<path fill="none" stroke="#63b8ff" d="M819.66,-54.98C832.84,-46.77 853.03,-34.18 868.57,-24.49"/>
<polygon fill="#63b8ff" stroke="#63b8ff" points="870.46,-27.43 877.09,-19.17 866.76,-21.49 870.46,-27.43"/>
</a>
</g>
</g>
<!-- Node17&#45;&gt;Node5 -->
<g id="edge27_Node000017_Node000005" class="edge">
<title>Node17&#45;&gt;Node5</title>
<g id="a_edge27_Node000017_Node000005"><a xlink:title=" ">
<path fill="none" stroke="#63b8ff" d="M530.26,-226.29C477.07,-222.03 377.54,-210.63 356,-184 342.74,-167.61 373.7,-130.28 374,-129 377.45,-114.38 377.23,-97.33 376.26,-84.58"/>
<polygon fill="#63b8ff" stroke="#63b8ff" points="379.71,-83.89 375.26,-74.27 372.75,-84.57 379.71,-83.89"/>
</a>
</g>
</g>
<!-- Node17&#45;&gt;Node7 -->
<g id="edge39_Node000017_Node000007" class="edge">
<title>Node17&#45;&gt;Node7</title>
<g id="a_edge39_Node000017_Node000007"><a xlink:title=" ">
<path fill="none" stroke="#63b8ff" d="M597.75,-221.95C644.08,-212.95 727.91,-196.68 783.01,-185.98"/>
<polygon fill="#63b8ff" stroke="#63b8ff" points="783.8,-189.39 792.95,-184.05 782.47,-182.52 783.8,-189.39"/>
</a>
</g>
</g>
<!-- Node17&#45;&gt;Node11 -->
<g id="edge24_Node000017_Node000011" class="edge">
<title>Node17&#45;&gt;Node11</title>
<g id="a_edge24_Node000017_Node000011"><a xlink:title=" ">
<path fill="none" stroke="#63b8ff" d="M595.93,-219.98C622.61,-212.28 661.27,-199.75 693,-184 720.95,-170.13 750.41,-149.34 768.98,-135.36"/>
<polygon fill="#63b8ff" stroke="#63b8ff" points="771.34,-137.96 777.16,-129.11 767.09,-132.4 771.34,-137.96"/>
</a>
</g>
</g>
<!-- Node17&#45;&gt;Node12 -->
<g id="edge23_Node000017_Node000012" class="edge">
<title>Node17&#45;&gt;Node12</title>
<g id="a_edge23_Node000017_Node000012"><a xlink:title=" ">
<path fill="none" stroke="#63b8ff" d="M585.67,-219.95C601.96,-212.56 623.82,-200.47 638,-184 663.57,-154.3 677.14,-109.41 683.13,-84.27"/>
<polygon fill="#63b8ff" stroke="#63b8ff" points="686.61,-84.75 685.36,-74.23 679.77,-83.23 686.61,-84.75"/>
</a>
</g>
</g>
<!-- Node18 -->
<g id="Node000018" class="node">
<title>Node18</title>
<g id="a_Node000018"><a xlink:href="MotorDriver_8hpp_source.html" target="_top" xlink:title=" ">
<polygon fill="white" stroke="#666666" points="612.5,-129 517.5,-129 517.5,-110 612.5,-110 612.5,-129"/>
<text text-anchor="middle" x="565" y="-117" font-family="Helvetica,sans-Serif" font-size="10.00">MotorDriver.hpp</text>
</a>
</g>
</g>
<!-- Node17&#45;&gt;Node18 -->
<g id="edge19_Node000017_Node000018" class="edge">
<title>Node17&#45;&gt;Node18</title>
<g id="a_edge19_Node000017_Node000018"><a xlink:title=" ">
<path fill="none" stroke="#63b8ff" d="M582.67,-219.97C596.33,-212.59 613.86,-200.5 622,-184 631.73,-164.27 611,-146.07 591.87,-134.25"/>
<polygon fill="#63b8ff" stroke="#63b8ff" points="593.43,-131.12 583.02,-129.14 589.93,-137.18 593.43,-131.12"/>
</a>
</g>
</g>
<!-- Node20 -->
<g id="Node000020" class="node">
<title>Node20</title>
<g id="a_Node000020"><a xlink:href="IrSensor_8hpp_source.html" target="_top" xlink:title=" ">
<polygon fill="white" stroke="#666666" points="499.5,-129 422.5,-129 422.5,-110 499.5,-110 499.5,-129"/>
<text text-anchor="middle" x="461" y="-117" font-family="Helvetica,sans-Serif" font-size="10.00">IrSensor.hpp</text>
</a>
</g>
</g>
<!-- Node17&#45;&gt;Node20 -->
<g id="edge25_Node000017_Node000020" class="edge">
<title>Node17&#45;&gt;Node20</title>
<g id="a_edge25_Node000017_Node000020"><a xlink:title=" ">
<path fill="none" stroke="#63b8ff" d="M550.65,-219.96C538.27,-211.67 519.73,-198.26 506,-184 492.43,-169.9 479.81,-151.43 471.41,-138.04"/>
<polygon fill="#63b8ff" stroke="#63b8ff" points="474.28,-136.04 466.08,-129.33 468.31,-139.69 474.28,-136.04"/>
</a>
</g>
</g>
<!-- Node21 -->
<g id="Node000021" class="node">
<title>Node21</title>
<g id="a_Node000021"><a xlink:href="LineFollower_8hpp_source.html" target="_top" xlink:title=" ">
<polygon fill="white" stroke="#666666" points="613,-184 515,-184 515,-165 613,-165 613,-184"/>
<text text-anchor="middle" x="564" y="-172" font-family="Helvetica,sans-Serif" font-size="10.00">LineFollower.hpp</text>
</a>
</g>
</g>
<!-- Node17&#45;&gt;Node21 -->
<g id="edge28_Node000017_Node000021" class="edge">
<title>Node17&#45;&gt;Node21</title>
<g id="a_edge28_Node000017_Node000021"><a xlink:title=" ">
<path fill="none" stroke="#63b8ff" d="M564,-219.75C564,-212.8 564,-202.85 564,-194.13"/>
<polygon fill="#63b8ff" stroke="#63b8ff" points="567.5,-194.09 564,-184.09 560.5,-194.09 567.5,-194.09"/>
</a>
</g>
</g>
<!-- Node22 -->
<g id="Node000022" class="node">
<title>Node22</title>
<g id="a_Node000022"><a xlink:href="BuggyState_8hpp_source.html" target="_top" xlink:title=" ">
<polygon fill="white" stroke="#666666" points="459,-184 365,-184 365,-165 459,-165 459,-184"/>
<text text-anchor="middle" x="412" y="-172" font-family="Helvetica,sans-Serif" font-size="10.00">BuggyState.hpp</text>
</a>
</g>
</g>
<!-- Node17&#45;&gt;Node22 -->
<g id="edge32_Node000017_Node000022" class="edge">
<title>Node17&#45;&gt;Node22</title>
<g id="a_edge32_Node000017_Node000022"><a xlink:title=" ">
<path fill="none" stroke="#63b8ff" d="M534.46,-219.98C507.54,-211.27 468.21,-197.63 441.35,-187.75"/>
<polygon fill="#63b8ff" stroke="#63b8ff" points="442.31,-184.38 431.72,-184.17 439.87,-190.94 442.31,-184.38"/>
</a>
</g>
</g>
<!-- Node23 -->
<g id="Node000023" class="node">
<title>Node23</title>
<g id="a_Node000023"><a xlink:href="UltrasonicSensor_8hpp_source.html" target="_top" xlink:title=" ">
<polygon fill="white" stroke="#666666" points="365.5,-129 246.5,-129 246.5,-110 365.5,-110 365.5,-129"/>
<text text-anchor="middle" x="306" y="-117" font-family="Helvetica,sans-Serif" font-size="10.00">UltrasonicSensor.hpp</text>
</a>
</g>
</g>
<!-- Node17&#45;&gt;Node23 -->
<g id="edge34_Node000017_Node000023" class="edge">
<title>Node17&#45;&gt;Node23</title>
<g id="a_edge34_Node000017_Node000023"><a xlink:title=" ">
<path fill="none" stroke="#63b8ff" d="M530.12,-226.62C471.06,-222.66 352.69,-211.43 323,-184 310.83,-172.76 307,-153.84 305.96,-139.57"/>
<polygon fill="#63b8ff" stroke="#63b8ff" points="309.45,-139.24 305.62,-129.36 302.45,-139.47 309.45,-139.24"/>
</a>
</g>
</g>
<!-- Node17&#45;&gt;Node24 -->
<g id="edge37_Node000017_Node000024" class="edge">
<title>Node17&#45;&gt;Node24</title>
<g id="a_edge37_Node000017_Node000024"><a xlink:title=" ">
<path fill="none" stroke="#63b8ff" d="M597.88,-224.12C656.78,-216.47 782.16,-200.1 898.18,-184.24"/>
<polygon fill="#63b8ff" stroke="#63b8ff" points="898.86,-187.68 908.29,-182.86 897.91,-180.74 898.86,-187.68"/>
</a>
</g>
</g>
<!-- Node17&#45;&gt;Node25 -->
<g id="edge40_Node000017_Node000025" class="edge">
<title>Node17&#45;&gt;Node25</title>
<g id="a_edge40_Node000017_Node000025"><a xlink:title=" ">
<path fill="none" stroke="#63b8ff" d="M530.18,-224.12C456.67,-214.59 282.33,-192 199.79,-181.3"/>
<polygon fill="#63b8ff" stroke="#63b8ff" points="200.09,-177.81 189.72,-180 199.19,-184.76 200.09,-177.81"/>
</a>
</g>
</g>
<!-- Node18&#45;&gt;Node2 -->
<g id="edge22_Node000018_Node000002" class="edge">
<title>Node18&#45;&gt;Node2</title>
<g id="a_edge22_Node000018_Node000002"><a xlink:title=" ">
<path fill="none" stroke="#63b8ff" d="M549.68,-109.85C527.08,-97.21 483.32,-73.22 445,-55 420.46,-43.33 392.05,-31.38 370.97,-22.81"/>
<polygon fill="#63b8ff" stroke="#63b8ff" points="372.14,-19.51 361.56,-19 369.52,-26 372.14,-19.51"/>
</a>
</g>
</g>
<!-- Node18&#45;&gt;Node5 -->
<g id="edge20_Node000018_Node000005" class="edge">
<title>Node18&#45;&gt;Node5</title>
<g id="a_edge20_Node000018_Node000005"><a xlink:title=" ">
<path fill="none" stroke="#63b8ff" d="M534.31,-109.98C501.83,-100.97 450.4,-86.7 414.59,-76.76"/>
<polygon fill="#63b8ff" stroke="#63b8ff" points="415.5,-73.38 404.93,-74.08 413.63,-80.13 415.5,-73.38"/>
</a>
</g>
</g>
<!-- Node18&#45;&gt;Node19 -->
<g id="edge21_Node000018_Node000019" class="edge">
<title>Node18&#45;&gt;Node19</title>
<g id="a_edge21_Node000018_Node000019"><a xlink:title=" ">
<path fill="none" stroke="#63b8ff" d="M566.65,-109.75C567.96,-102.8 569.84,-92.85 571.48,-84.13"/>
<polygon fill="#63b8ff" stroke="#63b8ff" points="574.96,-84.56 573.38,-74.09 568.09,-83.27 574.96,-84.56"/>
</a>
</g>
</g>
<!-- Node20&#45;&gt;Node2 -->
<g id="edge26_Node000020_Node000002" class="edge">
<title>Node20&#45;&gt;Node2</title>
<g id="a_edge26_Node000020_Node000002"><a xlink:title=" ">
<path fill="none" stroke="#63b8ff" d="M457.55,-109.7C451.99,-96.43 439.92,-71.14 423,-55 408.66,-41.32 389.29,-30.62 372.87,-23.14"/>
<polygon fill="#63b8ff" stroke="#63b8ff" points="374.17,-19.89 363.61,-19.11 371.38,-26.31 374.17,-19.89"/>
</a>
</g>
</g>
<!-- Node21&#45;&gt;Node18 -->
<g id="edge29_Node000021_Node000018" class="edge">
<title>Node21&#45;&gt;Node18</title>
<g id="a_edge29_Node000021_Node000018"><a xlink:title=" ">
<path fill="none" stroke="#63b8ff" d="M564.17,-164.75C564.3,-157.8 564.48,-147.85 564.65,-139.13"/>
<polygon fill="#63b8ff" stroke="#63b8ff" points="568.15,-139.15 564.84,-129.09 561.15,-139.02 568.15,-139.15"/>
</a>
</g>
</g>
<!-- Node21&#45;&gt;Node19 -->
<g id="edge31_Node000021_Node000019" class="edge">
<title>Node21&#45;&gt;Node19</title>
<g id="a_edge31_Node000021_Node000019"><a xlink:title=" ">
<path fill="none" stroke="#63b8ff" d="M582.35,-164.88C595.79,-157.46 613.02,-145.36 621,-129 629.81,-110.94 613.16,-92.58 597.48,-80.29"/>
<polygon fill="#63b8ff" stroke="#63b8ff" points="599.18,-77.19 589.04,-74.12 595.05,-82.84 599.18,-77.19"/>
</a>
</g>
</g>
<!-- Node21&#45;&gt;Node20 -->
<g id="edge30_Node000021_Node000020" class="edge">
<title>Node21&#45;&gt;Node20</title>
<g id="a_edge30_Node000021_Node000020"><a xlink:title=" ">
<path fill="none" stroke="#63b8ff" d="M547.45,-164.98C531.11,-156.57 505.87,-143.59 486.87,-133.81"/>
<polygon fill="#63b8ff" stroke="#63b8ff" points="488.34,-130.63 477.85,-129.17 485.14,-136.86 488.34,-130.63"/>
</a>
</g>
</g>
<!-- Node22&#45;&gt;Node17 -->
<g id="edge33_Node000022_Node000017" class="edge">
<title>Node22&#45;&gt;Node17</title>
<g id="a_edge33_Node000022_Node000017"><a xlink:title=" ">
<path fill="none" stroke="#63b8ff" d="M441.74,-184.08C468.81,-192.85 508.3,-206.54 535.1,-216.41"/>
<polygon fill="#63b8ff" stroke="#63b8ff" points="534.1,-219.77 544.69,-219.98 536.54,-213.21 534.1,-219.77"/>
</a>
</g>
</g>
<!-- Node23&#45;&gt;Node2 -->
<g id="edge35_Node000023_Node000002" class="edge">
<title>Node23&#45;&gt;Node2</title>
<g id="a_edge35_Node000023_Node000002"><a xlink:title=" ">
<path fill="none" stroke="#63b8ff" d="M308.49,-109.84C312.03,-97.59 318.79,-74.52 325,-55 327.78,-46.25 331.02,-36.58 333.78,-28.5"/>
<polygon fill="#63b8ff" stroke="#63b8ff" points="337.1,-29.6 337.04,-19 330.48,-27.32 337.1,-29.6"/>
</a>
</g>
</g>
<!-- Node23&#45;&gt;Node5 -->
<g id="edge36_Node000023_Node000005" class="edge">
<title>Node23&#45;&gt;Node5</title>
<g id="a_edge36_Node000023_Node000005"><a xlink:title=" ">
<path fill="none" stroke="#63b8ff" d="M316.93,-109.98C327.08,-102.07 342.42,-90.11 354.65,-80.58"/>
<polygon fill="#63b8ff" stroke="#63b8ff" points="357.14,-83.08 362.88,-74.17 352.84,-77.56 357.14,-83.08"/>
</a>
</g>
</g>
<!-- Node24&#45;&gt;Node15 -->
<g id="edge38_Node000024_Node000015" class="edge">
<title>Node24&#45;&gt;Node15</title>
<g id="a_edge38_Node000024_Node000015"><a xlink:title=" ">
<path fill="none" stroke="#63b8ff" d="M988.71,-164.98C1017.26,-154.85 1054.94,-135.98 1041,-110 1017.02,-65.32 963.19,-37.31 926.97,-22.78"/>
<polygon fill="#63b8ff" stroke="#63b8ff" points="927.85,-19.37 917.26,-19.04 925.34,-25.91 927.85,-19.37"/>
</a>
</g>
</g>
<!-- Node25&#45;&gt;Node2 -->
<g id="edge41_Node000025_Node000002" class="edge">
<title>Node25&#45;&gt;Node2</title>
<g id="a_edge41_Node000025_Node000002"><a xlink:title=" ">
<path fill="none" stroke="#63b8ff" d="M160.65,-164.66C169.12,-151.78 186.05,-127.5 204,-110 239.76,-75.14 288.3,-42.53 316.68,-24.67"/>
<polygon fill="#63b8ff" stroke="#63b8ff" points="318.84,-27.45 325.48,-19.19 315.14,-21.5 318.84,-27.45"/>
</a>
</g>
</g>
<!-- Node26 -->
<g id="Node000026" class="node">
<title>Node26</title>
<g id="a_Node000026"><a xlink:title=" ">
<polygon fill="#e0e0e0" stroke="#999999" points="152,-129 28,-129 28,-110 152,-110 152,-129"/>
<text text-anchor="middle" x="90" y="-117" font-family="Helvetica,sans-Serif" font-size="10.00">Arduino_LED_Matrix.h</text>
</a>
</g>
</g>
<!-- Node25&#45;&gt;Node26 -->
<g id="edge42_Node000025_Node000026" class="edge">
<title>Node25&#45;&gt;Node26</title>
<g id="a_edge42_Node000025_Node000026"><a xlink:title=" ">
<path fill="none" stroke="#63b8ff" d="M144.56,-164.98C134.85,-157.07 120.18,-145.11 108.5,-135.58"/>
<polygon fill="#63b8ff" stroke="#63b8ff" points="110.6,-132.78 100.63,-129.17 106.17,-138.2 110.6,-132.78"/>
</a>
</g>
</g>
</g>
</svg>

<g id="navigator" transform="translate(0 0)" fill="#404254">
  <rect fill="#f2f5e9" fill-opacity="0.5" stroke="#606060" stroke-width=".5" x="0" y="0" width="60" height="60"/>
  <use id="zoomplus" xlink:href="#zoomPlus" x="17" y="9" onmousedown="handleZoom(evt,'in')"/>
  <use id="zoomminus" xlink:href="#zoomMin" x="42" y="9" onmousedown="handleZoom(evt,'out')"/>
  <use id="reset" xlink:href="#resetDef" x="30" y="36" onmousedown="handleReset()"/>
   <use id="arrowup" xlink:href="#arrowUp" x="0" y="0" onmousedown="handlePan(0,-1)"/>
  <use id="arrowright" xlink:href="#arrowRight" x="0" y="0" onmousedown="handlePan(1,0)"/>
  <use id="arrowdown" xlink:href="#arrowDown" x="0" y="0" onmousedown="handlePan(0,1)"/>
  <use id="arrowleft" xlink:href="#arrowLeft" x="0" y="0" onmousedown="handlePan(-1,0)"/>
</g>
<svg viewBox="0 0 15 15" width="100%" height="30px" preserveAspectRatio="xMaxYMin meet">
 <g id="arrow_out" transform="scale(0.3 0.3)">
  <a xlink:href="BuggySoftware_8ino__incl_org.svg" target="_base">
   <rect id="button" ry="5" rx="5" y="6" x="6" height="38" width="38"
        fill="#f2f5e9" fill-opacity="0.5" stroke="#606060" stroke-width="1.0"/>
   <path id="arrow"
     d="M 11.500037,31.436501 C 11.940474,20.09759 22.043105,11.32322 32.158766,21.979434 L 37.068811,17.246167 C 37.068811,17.246167 37.088388,32 37.088388,32 L 22.160133,31.978069 C 22.160133,31.978069 26.997745,27.140456 26.997745,27.140456 C 18.528582,18.264221 13.291696,25.230495 11.500037,31.436501 z"
     style="fill:#404040;"/>
  </a>
 </g>
</svg>

<style type='text/css'>
<![CDATA[
[data-mouse-over-selected='false'] { opacity: 0.7; }
[data-mouse-over-selected='true']  { opacity: 1.0; }
]]>
</style>
<script type="application/ecmascript"><![CDATA[
document.addEventListener('DOMContentLoaded', (event) => {
  highlightEdges();
  highlightAdjacentNodes();
});
]]></script>
</svg>
