<?xml version="1.0" encoding="UTF-8" standalone="no"?>
<!DOCTYPE svg PUBLIC "-//W3C//DTD SVG 1.1//EN"
 "http://www.w3.org/Graphics/SVG/1.1/DTD/svg11.dtd">
<!-- Generated by graphviz version 2.43.0 (0)
 -->
<!-- Title: BuggyState Pages: 1 -->
<svg width="823pt" height="232pt"
 viewBox="0.00 0.00 822.50 232.00" xmlns="http://www.w3.org/2000/svg" xmlns:xlink="http://www.w3.org/1999/xlink">
<g id="graph0" class="graph" transform="scale(1 1) rotate(0) translate(4 228)">
<title>BuggyState</title>
<!-- Node1 -->
<g id="Node000001" class="node">
<title>Node1</title>
<g id="a_Node000001"><a xlink:title="The Buggy State class is an abstract class that represents the abstract state the buggy can be in.">
<polygon fill="#999999" stroke="transparent" points="401.5,-224 307.5,-224 307.5,-130 401.5,-130 401.5,-224"/>
<text text-anchor="start" x="326" y="-212" font-family="Helvetica,sans-Serif" font-size="10.00">BuggyState</text>
<text text-anchor="start" x="352.5" y="-197" font-family="Helvetica,sans-Serif" font-size="10.00"> </text>
<text text-anchor="start" x="311.5" y="-182" font-family="Helvetica,sans-Serif" font-size="10.00">+</text>
<text text-anchor="start" x="324.5" y="-182" font-family="Helvetica,sans-Serif" font-size="10.00">enter()</text>
<text text-anchor="start" x="311.5" y="-167" font-family="Helvetica,sans-Serif" font-size="10.00">+</text>
<text text-anchor="start" x="324.5" y="-167" font-family="Helvetica,sans-Serif" font-size="10.00">update()</text>
<text text-anchor="start" x="311.5" y="-152" font-family="Helvetica,sans-Serif" font-size="10.00">+</text>
<text text-anchor="start" x="324.5" y="-152" font-family="Helvetica,sans-Serif" font-size="10.00">exit()</text>
<text text-anchor="start" x="311.5" y="-137" font-family="Helvetica,sans-Serif" font-size="10.00">+</text>
<text text-anchor="start" x="324.5" y="-137" font-family="Helvetica,sans-Serif" font-size="10.00">~BuggyState()</text>
<polygon fill="#666666" stroke="#666666" points="307.5,-207 307.5,-207 401.5,-207 401.5,-207 307.5,-207"/>
<polygon fill="#666666" stroke="#666666" points="307.5,-192 307.5,-192 401.5,-192 401.5,-192 307.5,-192"/>
<polygon fill="none" stroke="#666666" points="307.5,-130 307.5,-224 401.5,-224 401.5,-130 307.5,-130"/>
</a>
</g>
</g>
<!-- Node2 -->
<g id="Node000002" class="node">
<title>Node2</title>
<g id="a_Node000002"><a xlink:href="classCalibrationState.html" target="_top" xlink:title="The calibration state of the buggy is the first state it enters after being placed on the track....">
<polygon fill="white" stroke="transparent" points="89,-94 0,-94 0,0 89,0 89,-94"/>
<text text-anchor="start" x="5.5" y="-82" font-family="Helvetica,sans-Serif" font-size="10.00">CalibrationState</text>
<text text-anchor="start" x="43" y="-67" font-family="Helvetica,sans-Serif" font-size="10.00"> </text>
<text text-anchor="start" x="9" y="-52" font-family="Helvetica,sans-Serif" font-size="10.00">+</text>
<text text-anchor="start" x="26.5" y="-52" font-family="Helvetica,sans-Serif" font-size="10.00">enter()</text>
<text text-anchor="start" x="9" y="-37" font-family="Helvetica,sans-Serif" font-size="10.00">+</text>
<text text-anchor="start" x="26.5" y="-37" font-family="Helvetica,sans-Serif" font-size="10.00">update()</text>
<text text-anchor="start" x="9" y="-22" font-family="Helvetica,sans-Serif" font-size="10.00">+</text>
<text text-anchor="start" x="26.5" y="-22" font-family="Helvetica,sans-Serif" font-size="10.00">exit()</text>
<text text-anchor="start" x="9" y="-7" font-family="Helvetica,sans-Serif" font-size="10.00">+</text>
<text text-anchor="start" x="26.5" y="-7" font-family="Helvetica,sans-Serif" font-size="10.00">instance()</text>
<polygon fill="#666666" stroke="#666666" points="0.5,-77 0.5,-77 89.5,-77 89.5,-77 0.5,-77"/>
<polygon fill="#666666" stroke="#666666" points="0.5,-62 0.5,-62 89.5,-62 89.5,-62 0.5,-62"/>
<polygon fill="none" stroke="#666666" points="0,0 0,-94 89,-94 89,0 0,0"/>
</a>
</g>
</g>
<!-- Node1&#45;&gt;Node2 -->
<g id="edge1_Node000001_Node000002" class="edge">
<title>Node1&#45;&gt;Node2</title>
<g id="a_edge1_Node000001_Node000002"><a xlink:title=" ">
<path fill="none" stroke="#63b8ff" d="M297.08,-164.72C243.14,-152.53 161.37,-129.88 97.5,-94 94.74,-92.45 91.99,-90.74 89.28,-88.92"/>
<polygon fill="none" stroke="#63b8ff" points="296.64,-168.2 307.16,-166.94 298.15,-161.37 296.64,-168.2"/>
</a>
</g>
</g>
<!-- Node3 -->
<g id="Node000003" class="node">
<title>Node3</title>
<g id="a_Node000003"><a xlink:href="classCruiseControlState.html" target="_top" xlink:title=" ">
<polygon fill="white" stroke="transparent" points="208.5,-94 106.5,-94 106.5,0 208.5,0 208.5,-94"/>
<text text-anchor="start" x="111.5" y="-82" font-family="Helvetica,sans-Serif" font-size="10.00">CruiseControlState</text>
<text text-anchor="start" x="155.5" y="-67" font-family="Helvetica,sans-Serif" font-size="10.00"> </text>
<text text-anchor="start" x="118.5" y="-52" font-family="Helvetica,sans-Serif" font-size="10.00">+</text>
<text text-anchor="start" x="139.5" y="-52" font-family="Helvetica,sans-Serif" font-size="10.00">enter()</text>
<text text-anchor="start" x="118.5" y="-37" font-family="Helvetica,sans-Serif" font-size="10.00">+</text>
<text text-anchor="start" x="139.5" y="-37" font-family="Helvetica,sans-Serif" font-size="10.00">update()</text>
<text text-anchor="start" x="118.5" y="-22" font-family="Helvetica,sans-Serif" font-size="10.00">+</text>
<text text-anchor="start" x="139.5" y="-22" font-family="Helvetica,sans-Serif" font-size="10.00">exit()</text>
<text text-anchor="start" x="118.5" y="-7" font-family="Helvetica,sans-Serif" font-size="10.00">+</text>
<text text-anchor="start" x="139.5" y="-7" font-family="Helvetica,sans-Serif" font-size="10.00">instance()</text>
<polygon fill="#bfbfbf" stroke="#bfbfbf" points="106.5,-77 106.5,-77 208.5,-77 208.5,-77 106.5,-77"/>
<polygon fill="#bfbfbf" stroke="#bfbfbf" points="106.5,-62 106.5,-62 208.5,-62 208.5,-62 106.5,-62"/>
<polygon fill="none" stroke="#bfbfbf" points="106.5,0 106.5,-94 208.5,-94 208.5,0 106.5,0"/>
</a>
</g>
</g>
<!-- Node1&#45;&gt;Node3 -->
<g id="edge2_Node000001_Node000003" class="edge">
<title>Node1&#45;&gt;Node3</title>
<g id="a_edge2_Node000001_Node000003"><a xlink:title=" ">
<path fill="none" stroke="#63b8ff" d="M298.67,-144.54C273.46,-129.83 243.55,-111.7 217.5,-94 214.57,-92.01 211.59,-89.93 208.6,-87.79"/>
<polygon fill="none" stroke="#63b8ff" points="296.97,-147.6 307.38,-149.59 300.49,-141.54 296.97,-147.6"/>
</a>
</g>
</g>
<!-- Node4 -->
<g id="Node000004" class="node">
<title>Node4</title>
<g id="a_Node000004"><a xlink:href="classIdleState.html" target="_top" xlink:title="The idle state represents a state in which the buggy operates normaly but is not driving.">
<polygon fill="white" stroke="transparent" points="296.5,-94 226.5,-94 226.5,0 296.5,0 296.5,-94"/>
<text text-anchor="start" x="239.5" y="-82" font-family="Helvetica,sans-Serif" font-size="10.00">IdleState</text>
<text text-anchor="start" x="259.5" y="-67" font-family="Helvetica,sans-Serif" font-size="10.00"> </text>
<text text-anchor="start" x="230.5" y="-52" font-family="Helvetica,sans-Serif" font-size="10.00">+</text>
<text text-anchor="start" x="243.5" y="-52" font-family="Helvetica,sans-Serif" font-size="10.00">enter()</text>
<text text-anchor="start" x="230.5" y="-37" font-family="Helvetica,sans-Serif" font-size="10.00">+</text>
<text text-anchor="start" x="243.5" y="-37" font-family="Helvetica,sans-Serif" font-size="10.00">update()</text>
<text text-anchor="start" x="230.5" y="-22" font-family="Helvetica,sans-Serif" font-size="10.00">+</text>
<text text-anchor="start" x="243.5" y="-22" font-family="Helvetica,sans-Serif" font-size="10.00">exit()</text>
<text text-anchor="start" x="230.5" y="-7" font-family="Helvetica,sans-Serif" font-size="10.00">+</text>
<text text-anchor="start" x="243.5" y="-7" font-family="Helvetica,sans-Serif" font-size="10.00">instance()</text>
<polygon fill="#666666" stroke="#666666" points="226.5,-77 226.5,-77 296.5,-77 296.5,-77 226.5,-77"/>
<polygon fill="#666666" stroke="#666666" points="226.5,-62 226.5,-62 296.5,-62 296.5,-62 226.5,-62"/>
<polygon fill="none" stroke="#666666" points="226.5,0 226.5,-94 296.5,-94 296.5,0 226.5,0"/>
</a>
</g>
</g>
<!-- Node1&#45;&gt;Node4 -->
<g id="edge3_Node000001_Node000004" class="edge">
<title>Node1&#45;&gt;Node4</title>
<g id="a_edge3_Node000001_Node000004"><a xlink:title=" ">
<path fill="none" stroke="#63b8ff" d="M314.91,-121.51C308.29,-112.4 301.48,-103.02 295.03,-94.14"/>
<polygon fill="none" stroke="#63b8ff" points="312.22,-123.76 320.92,-129.79 317.88,-119.64 312.22,-123.76"/>
</a>
</g>
</g>
<!-- Node5 -->
<g id="Node000005" class="node">
<title>Node5</title>
<g id="a_Node000005"><a xlink:href="classJustDriveState.html" target="_top" xlink:title=" ">
<polygon fill="white" stroke="transparent" points="394.5,-94 314.5,-94 314.5,0 394.5,0 394.5,-94"/>
<text text-anchor="start" x="319.5" y="-82" font-family="Helvetica,sans-Serif" font-size="10.00">JustDriveState</text>
<text text-anchor="start" x="352.5" y="-67" font-family="Helvetica,sans-Serif" font-size="10.00"> </text>
<text text-anchor="start" x="321" y="-52" font-family="Helvetica,sans-Serif" font-size="10.00">+</text>
<text text-anchor="start" x="336.5" y="-52" font-family="Helvetica,sans-Serif" font-size="10.00">enter()</text>
<text text-anchor="start" x="321" y="-37" font-family="Helvetica,sans-Serif" font-size="10.00">+</text>
<text text-anchor="start" x="336.5" y="-37" font-family="Helvetica,sans-Serif" font-size="10.00">update()</text>
<text text-anchor="start" x="321" y="-22" font-family="Helvetica,sans-Serif" font-size="10.00">+</text>
<text text-anchor="start" x="336.5" y="-22" font-family="Helvetica,sans-Serif" font-size="10.00">exit()</text>
<text text-anchor="start" x="321" y="-7" font-family="Helvetica,sans-Serif" font-size="10.00">+</text>
<text text-anchor="start" x="336.5" y="-7" font-family="Helvetica,sans-Serif" font-size="10.00">instance()</text>
<polygon fill="#bfbfbf" stroke="#bfbfbf" points="314.5,-77 314.5,-77 394.5,-77 394.5,-77 314.5,-77"/>
<polygon fill="#bfbfbf" stroke="#bfbfbf" points="314.5,-62 314.5,-62 394.5,-62 394.5,-62 314.5,-62"/>
<polygon fill="none" stroke="#bfbfbf" points="314.5,0 314.5,-94 394.5,-94 394.5,0 314.5,0"/>
</a>
</g>
</g>
<!-- Node1&#45;&gt;Node5 -->
<g id="edge4_Node000001_Node000005" class="edge">
<title>Node1&#45;&gt;Node5</title>
<g id="a_edge4_Node000001_Node000005"><a xlink:title=" ">
<path fill="none" stroke="#63b8ff" d="M354.5,-119.56C354.5,-111.06 354.5,-102.39 354.5,-94.14"/>
<polygon fill="none" stroke="#63b8ff" points="351,-119.79 354.5,-129.79 358,-119.79 351,-119.79"/>
</a>
</g>
</g>
<!-- Node6 -->
<g id="Node000006" class="node">
<title>Node6</title>
<g id="a_Node000006"><a xlink:href="classLineFollowingState.html" target="_top" xlink:title="In the Line following state the buggy is trying to follow the line using the IR sensors....">
<polygon fill="white" stroke="transparent" points="516,-94 413,-94 413,0 516,0 516,-94"/>
<text text-anchor="start" x="418.5" y="-82" font-family="Helvetica,sans-Serif" font-size="10.00">LineFollowingState</text>
<text text-anchor="start" x="463" y="-67" font-family="Helvetica,sans-Serif" font-size="10.00"> </text>
<text text-anchor="start" x="425.5" y="-52" font-family="Helvetica,sans-Serif" font-size="10.00">+</text>
<text text-anchor="start" x="446.5" y="-52" font-family="Helvetica,sans-Serif" font-size="10.00">enter()</text>
<text text-anchor="start" x="425.5" y="-37" font-family="Helvetica,sans-Serif" font-size="10.00">+</text>
<text text-anchor="start" x="446.5" y="-37" font-family="Helvetica,sans-Serif" font-size="10.00">update()</text>
<text text-anchor="start" x="425.5" y="-22" font-family="Helvetica,sans-Serif" font-size="10.00">+</text>
<text text-anchor="start" x="446.5" y="-22" font-family="Helvetica,sans-Serif" font-size="10.00">exit()</text>
<text text-anchor="start" x="425.5" y="-7" font-family="Helvetica,sans-Serif" font-size="10.00">+</text>
<text text-anchor="start" x="446.5" y="-7" font-family="Helvetica,sans-Serif" font-size="10.00">instance()</text>
<polygon fill="#666666" stroke="#666666" points="413.5,-77 413.5,-77 516.5,-77 516.5,-77 413.5,-77"/>
<polygon fill="#666666" stroke="#666666" points="413.5,-62 413.5,-62 516.5,-62 516.5,-62 413.5,-62"/>
<polygon fill="none" stroke="#666666" points="413,0 413,-94 516,-94 516,0 413,0"/>
</a>
</g>
</g>
<!-- Node1&#45;&gt;Node6 -->
<g id="edge5_Node000001_Node000006" class="edge">
<title>Node1&#45;&gt;Node6</title>
<g id="a_edge5_Node000001_Node000006"><a xlink:title=" ">
<path fill="none" stroke="#63b8ff" d="M400.84,-122.07C408.83,-112.78 417.06,-103.2 424.85,-94.14"/>
<polygon fill="none" stroke="#63b8ff" points="398.08,-119.92 394.21,-129.79 403.38,-124.49 398.08,-119.92"/>
</a>
</g>
</g>
<!-- Node7 -->
<g id="Node000007" class="node">
<title>Node7</title>
<g id="a_Node000007"><a xlink:href="classObjectDetectedHandlerState.html" target="_top" xlink:title="This state is entered before the buggy goes into ObjectDetectedState. It is used to save the previous...">
<polygon fill="white" stroke="transparent" points="684.5,-94 534.5,-94 534.5,0 684.5,0 684.5,-94"/>
<text text-anchor="start" x="539.5" y="-82" font-family="Helvetica,sans-Serif" font-size="10.00">ObjectDetectedHandlerState</text>
<text text-anchor="start" x="607.5" y="-67" font-family="Helvetica,sans-Serif" font-size="10.00"> </text>
<text text-anchor="start" x="558.5" y="-52" font-family="Helvetica,sans-Serif" font-size="10.00">+</text>
<text text-anchor="start" x="591.5" y="-52" font-family="Helvetica,sans-Serif" font-size="10.00">enter()</text>
<text text-anchor="start" x="558.5" y="-37" font-family="Helvetica,sans-Serif" font-size="10.00">+</text>
<text text-anchor="start" x="591.5" y="-37" font-family="Helvetica,sans-Serif" font-size="10.00">update()</text>
<text text-anchor="start" x="558.5" y="-22" font-family="Helvetica,sans-Serif" font-size="10.00">+</text>
<text text-anchor="start" x="591.5" y="-22" font-family="Helvetica,sans-Serif" font-size="10.00">exit()</text>
<text text-anchor="start" x="558.5" y="-7" font-family="Helvetica,sans-Serif" font-size="10.00">+</text>
<text text-anchor="start" x="591.5" y="-7" font-family="Helvetica,sans-Serif" font-size="10.00">instance()</text>
<polygon fill="#666666" stroke="#666666" points="534.5,-77 534.5,-77 684.5,-77 684.5,-77 534.5,-77"/>
<polygon fill="#666666" stroke="#666666" points="534.5,-62 534.5,-62 684.5,-62 684.5,-62 534.5,-62"/>
<polygon fill="none" stroke="#666666" points="534.5,0 534.5,-94 684.5,-94 684.5,0 534.5,0"/>
</a>
</g>
</g>
<!-- Node1&#45;&gt;Node7 -->
<g id="edge6_Node000001_Node000007" class="edge">
<title>Node1&#45;&gt;Node7</title>
<g id="a_edge6_Node000001_Node000007"><a xlink:title=" ">
<path fill="none" stroke="#63b8ff" d="M410.83,-149.92C444.36,-134.17 487.61,-113.44 525.5,-94 528.31,-92.56 531.17,-91.08 534.05,-89.57"/>
<polygon fill="none" stroke="#63b8ff" points="409.22,-146.81 401.65,-154.23 412.19,-153.15 409.22,-146.81"/>
</a>
</g>
</g>
<!-- Node8 -->
<g id="Node000008" class="node">
<title>Node8</title>
<g id="a_Node000008"><a xlink:href="classObjectDetectedState.html" target="_top" xlink:title="The state the Buggy enters when an object is detected during driving.">
<polygon fill="white" stroke="transparent" points="814.5,-94 702.5,-94 702.5,0 814.5,0 814.5,-94"/>
<text text-anchor="start" x="707.5" y="-82" font-family="Helvetica,sans-Serif" font-size="10.00">ObjectDetectedState</text>
<text text-anchor="start" x="756.5" y="-67" font-family="Helvetica,sans-Serif" font-size="10.00"> </text>
<text text-anchor="start" x="717" y="-52" font-family="Helvetica,sans-Serif" font-size="10.00">+</text>
<text text-anchor="start" x="740.5" y="-52" font-family="Helvetica,sans-Serif" font-size="10.00">enter()</text>
<text text-anchor="start" x="717" y="-37" font-family="Helvetica,sans-Serif" font-size="10.00">+</text>
<text text-anchor="start" x="740.5" y="-37" font-family="Helvetica,sans-Serif" font-size="10.00">update()</text>
<text text-anchor="start" x="717" y="-22" font-family="Helvetica,sans-Serif" font-size="10.00">+</text>
<text text-anchor="start" x="740.5" y="-22" font-family="Helvetica,sans-Serif" font-size="10.00">exit()</text>
<text text-anchor="start" x="717" y="-7" font-family="Helvetica,sans-Serif" font-size="10.00">+</text>
<text text-anchor="start" x="740.5" y="-7" font-family="Helvetica,sans-Serif" font-size="10.00">instance()</text>
<polygon fill="#666666" stroke="#666666" points="702.5,-77 702.5,-77 814.5,-77 814.5,-77 702.5,-77"/>
<polygon fill="#666666" stroke="#666666" points="702.5,-62 702.5,-62 814.5,-62 814.5,-62 702.5,-62"/>
<polygon fill="none" stroke="#666666" points="702.5,0 702.5,-94 814.5,-94 814.5,0 702.5,0"/>
</a>
</g>
</g>
<!-- Node1&#45;&gt;Node8 -->
<g id="edge7_Node000001_Node000008" class="edge">
<title>Node1&#45;&gt;Node8</title>
<g id="a_edge7_Node000001_Node000008"><a xlink:title=" ">
<path fill="none" stroke="#63b8ff" d="M411.81,-168.88C481.01,-158.78 599.78,-136.6 693.5,-94 696.39,-92.68 699.29,-91.23 702.17,-89.68"/>
<polygon fill="none" stroke="#63b8ff" points="410.97,-165.47 401.56,-170.34 411.95,-172.4 410.97,-165.47"/>
</a>
</g>
</g>
</g>
</svg>
