<?xml version="1.0" encoding="UTF-8" standalone="no"?>
<!DOCTYPE svg PUBLIC "-//W3C//DTD SVG 1.1//EN"
 "http://www.w3.org/Graphics/SVG/1.1/DTD/svg11.dtd">
<!-- Generated by graphviz version 2.43.0 (0)
 -->
<!-- Title: LineFollowingState_TURN_RIGHT Pages: 1 -->
<svg width="111pt" height="273pt"
 viewBox="0.00 0.00 111.00 273.00" xmlns="http://www.w3.org/2000/svg" xmlns:xlink="http://www.w3.org/1999/xlink">
<g id="graph0" class="graph" transform="scale(1 1) rotate(0) translate(4 269)">
<title>LineFollowingState_TURN_RIGHT</title>
<!-- Node1 -->
<g id="Node000001" class="node">
<title>Node1</title>
<g id="a_Node000001"><a xlink:title="A special sub state of LineFollowing which preferes a right turn when following the line.">
<polygon fill="#999999" stroke="transparent" points="103,-105 0,-105 0,0 103,0 103,-105"/>
<text text-anchor="start" x="5.5" y="-92.5" font-family="Helvetica,sans-Serif" font-size="10.00">LineFollowingState</text>
<text text-anchor="start" x="17" y="-81.5" font-family="Helvetica,sans-Serif" font-size="10.00">_TURN_RIGHT</text>
<text text-anchor="start" x="50" y="-66.5" font-family="Helvetica,sans-Serif" font-size="10.00"> </text>
<text text-anchor="start" x="12.5" y="-51.5" font-family="Helvetica,sans-Serif" font-size="10.00">+</text>
<text text-anchor="start" x="33.5" y="-51.5" font-family="Helvetica,sans-Serif" font-size="10.00">enter()</text>
<text text-anchor="start" x="12.5" y="-36.5" font-family="Helvetica,sans-Serif" font-size="10.00">+</text>
<text text-anchor="start" x="33.5" y="-36.5" font-family="Helvetica,sans-Serif" font-size="10.00">update()</text>
<text text-anchor="start" x="12.5" y="-21.5" font-family="Helvetica,sans-Serif" font-size="10.00">+</text>
<text text-anchor="start" x="33.5" y="-21.5" font-family="Helvetica,sans-Serif" font-size="10.00">exit()</text>
<text text-anchor="start" x="12.5" y="-6.5" font-family="Helvetica,sans-Serif" font-size="10.00">+</text>
<text text-anchor="start" x="33.5" y="-6.5" font-family="Helvetica,sans-Serif" font-size="10.00">instance()</text>
<polygon fill="#666666" stroke="#666666" points="0.5,-76.5 0.5,-76.5 103.5,-76.5 103.5,-76.5 0.5,-76.5"/>
<polygon fill="#666666" stroke="#666666" points="0.5,-61.5 0.5,-61.5 103.5,-61.5 103.5,-61.5 0.5,-61.5"/>
<polygon fill="none" stroke="#666666" points="0,0 0,-105 103,-105 103,0 0,0"/>
</a>
</g>
</g>
<!-- Node2 -->
<g id="Node000002" class="node">
<title>Node2</title>
<g id="a_Node000002"><a xlink:href="classBuggyState.html" target="_top" xlink:title="The Buggy State class is an abstract class that represents the abstract state the buggy can be in.">
<polygon fill="white" stroke="transparent" points="98.5,-265 4.5,-265 4.5,-141 98.5,-141 98.5,-265"/>
<text text-anchor="start" x="23" y="-253" font-family="Helvetica,sans-Serif" font-size="10.00">BuggyState</text>
<text text-anchor="start" x="49.5" y="-238" font-family="Helvetica,sans-Serif" font-size="10.00"> </text>
<text text-anchor="start" x="8.5" y="-223" font-family="Helvetica,sans-Serif" font-size="10.00">+</text>
<text text-anchor="start" x="21.5" y="-223" font-family="Helvetica,sans-Serif" font-size="10.00">BuggyState()</text>
<text text-anchor="start" x="8.5" y="-208" font-family="Helvetica,sans-Serif" font-size="10.00">+</text>
<text text-anchor="start" x="21.5" y="-208" font-family="Helvetica,sans-Serif" font-size="10.00">enter()</text>
<text text-anchor="start" x="8.5" y="-193" font-family="Helvetica,sans-Serif" font-size="10.00">+</text>
<text text-anchor="start" x="21.5" y="-193" font-family="Helvetica,sans-Serif" font-size="10.00">update()</text>
<text text-anchor="start" x="8.5" y="-178" font-family="Helvetica,sans-Serif" font-size="10.00">+</text>
<text text-anchor="start" x="21.5" y="-178" font-family="Helvetica,sans-Serif" font-size="10.00">exit()</text>
<text text-anchor="start" x="8.5" y="-163" font-family="Helvetica,sans-Serif" font-size="10.00">+</text>
<text text-anchor="start" x="21.5" y="-163" font-family="Helvetica,sans-Serif" font-size="10.00">~BuggyState()</text>
<text text-anchor="start" x="8.5" y="-148" font-family="Helvetica,sans-Serif" font-size="10.00">+</text>
<text text-anchor="start" x="21.5" y="-148" font-family="Helvetica,sans-Serif" font-size="10.00">getState()</text>
<polygon fill="#666666" stroke="#666666" points="4.5,-248 4.5,-248 98.5,-248 98.5,-248 4.5,-248"/>
<polygon fill="#666666" stroke="#666666" points="4.5,-233 4.5,-233 98.5,-233 98.5,-233 4.5,-233"/>
<polygon fill="none" stroke="#666666" points="4.5,-141 4.5,-265 98.5,-265 98.5,-141 4.5,-141"/>
</a>
</g>
</g>
<!-- Node2&#45;&gt;Node1 -->
<g id="edge1_Node000001_Node000002" class="edge">
<title>Node2&#45;&gt;Node1</title>
<g id="a_edge1_Node000001_Node000002"><a xlink:title=" ">
<path fill="none" stroke="#63b8ff" d="M51.5,-130.69C51.5,-122.07 51.5,-113.41 51.5,-105.16"/>
<polygon fill="none" stroke="#63b8ff" points="48,-130.74 51.5,-140.74 55,-130.74 48,-130.74"/>
</a>
</g>
</g>
</g>
</svg>
