<?xml version="1.0" encoding="UTF-8" standalone="no"?>
<!DOCTYPE svg PUBLIC "-//W3C//DTD SVG 1.1//EN"
 "http://www.w3.org/Graphics/SVG/1.1/DTD/svg11.dtd">
<!-- Generated by graphviz version 2.43.0 (0)
 -->
<!-- Title: BuggyState Pages: 1 -->
<!--zoomable 232 -->

<svg id="main" version="1.1" xmlns="http://www.w3.org/2000/svg" xmlns:xlink="http://www.w3.org/1999/xlink" xml:space="preserve" onload="init(evt)">

<style type="text/css"><![CDATA[
.node, .edge {opacity: 0.7;}
.node.selected, .edge.selected {opacity: 1;}
.edge:hover path { stroke: red; }
.edge:hover polygon { stroke: red; fill: red; }
]]></style>

<defs>
  <circle id="rim" cx="0" cy="0" r="7"/>
  <circle id="rim2" cx="0" cy="0" r="3.5"/>
  <g id="zoomPlus">
    <use xlink:href="#rim" fill="#404040"><set attributeName="fill" to="#808080" begin="zoomplus.mouseover" end="zoomplus.mouseout"/></use>
    <path d="M-4,0h8M0,-4v8" fill="none" stroke="white" stroke-width="1.5" pointer-events="none"/>
  </g>
  <g id="zoomMin">
    <use xlink:href="#rim" fill="#404040"><set attributeName="fill" to="#808080" begin="zoomminus.mouseover" end="zoomminus.mouseout"/></use>
    <path d="M-4,0h8" fill="none" stroke="white" stroke-width="1.5" pointer-events="none"/>
  </g>
  <g id="arrowUp" transform="translate(30 24)">
    <use xlink:href="#rim"/>
    <path pointer-events="none" fill="none" stroke="white" stroke-width="1.5" d="M0,-3.0v7 M-2.5,-0.5L0,-3.0L2.5,-0.5"/>
  </g>
  <g id="arrowRight" transform="rotate(90) translate(36 -43)">
    <use xlink:href="#rim"/>
    <path pointer-events="none" fill="none" stroke="white" stroke-width="1.5" d="M0,-3.0v7 M-2.5,-0.5L0,-3.0L2.5,-0.5"/>
  </g>
  <g id="arrowDown" transform="rotate(180) translate(-30 -48)">
    <use xlink:href="#rim"/>
    <path pointer-events="none" fill="none" stroke="white" stroke-width="1.5" d="M0,-3.0v7 M-2.5,-0.5L0,-3.0L2.5,-0.5"/>
  </g>
  <g id="arrowLeft" transform="rotate(270) translate(-36 17)">
    <use xlink:href="#rim"/>
    <path pointer-events="none" fill="none" stroke="white" stroke-width="1.5" d="M0,-3.0v7 M-2.5,-0.5L0,-3.0L2.5,-0.5"/>
  </g>
  <g id="resetDef">
    <use xlink:href="#rim2" fill="#404040"><set attributeName="fill" to="#808080" begin="reset.mouseover" end="reset.mouseout"/></use>
  </g>
</defs>
<script type="application/ecmascript">
var viewWidth = 704;
var viewHeight = 232;
var sectionId = 'dynsection-0';
</script>
<script type="application/ecmascript" xlink:href="svg.min.js"/>
<svg id="graph" class="graph">
<g id="viewport">
<title>BuggyState</title>
<!-- Node1 -->
<g id="Node000001" class="node">
<title>Node1</title>
<g id="a_Node000001"><a xlink:title="The Buggy State class is an abstract class that represents the abstract state the buggy can be in.">
<polygon fill="#999999" stroke="transparent" points="337.5,-224 243.5,-224 243.5,-130 337.5,-130 337.5,-224"/>
<text text-anchor="start" x="262" y="-212" font-family="Helvetica,sans-Serif" font-size="10.00">BuggyState</text>
<text text-anchor="start" x="288.5" y="-197" font-family="Helvetica,sans-Serif" font-size="10.00"> </text>
<text text-anchor="start" x="247.5" y="-182" font-family="Helvetica,sans-Serif" font-size="10.00">+</text>
<text text-anchor="start" x="260.5" y="-182" font-family="Helvetica,sans-Serif" font-size="10.00">enter()</text>
<text text-anchor="start" x="247.5" y="-167" font-family="Helvetica,sans-Serif" font-size="10.00">+</text>
<text text-anchor="start" x="260.5" y="-167" font-family="Helvetica,sans-Serif" font-size="10.00">update()</text>
<text text-anchor="start" x="247.5" y="-152" font-family="Helvetica,sans-Serif" font-size="10.00">+</text>
<text text-anchor="start" x="260.5" y="-152" font-family="Helvetica,sans-Serif" font-size="10.00">exit()</text>
<text text-anchor="start" x="247.5" y="-137" font-family="Helvetica,sans-Serif" font-size="10.00">+</text>
<text text-anchor="start" x="260.5" y="-137" font-family="Helvetica,sans-Serif" font-size="10.00">~BuggyState()</text>
<polygon fill="#666666" stroke="#666666" points="243.5,-207 243.5,-207 337.5,-207 337.5,-207 243.5,-207"/>
<polygon fill="#666666" stroke="#666666" points="243.5,-192 243.5,-192 337.5,-192 337.5,-192 243.5,-192"/>
<polygon fill="none" stroke="#666666" points="243.5,-130 243.5,-224 337.5,-224 337.5,-130 243.5,-130"/>
</a>
</g>
</g>
<!-- Node2 -->
<g id="Node000002" class="node">
<title>Node2</title>
<g id="a_Node000002"><a xlink:href="classCalibrationState.html" target="_top" xlink:title="The calibration state of the buggy is the first state it enters after being placed on the track....">
<polygon fill="white" stroke="transparent" points="89,-94 0,-94 0,0 89,0 89,-94"/>
<text text-anchor="start" x="5.5" y="-82" font-family="Helvetica,sans-Serif" font-size="10.00">CalibrationState</text>
<text text-anchor="start" x="43" y="-67" font-family="Helvetica,sans-Serif" font-size="10.00"> </text>
<text text-anchor="start" x="9" y="-52" font-family="Helvetica,sans-Serif" font-size="10.00">+</text>
<text text-anchor="start" x="26.5" y="-52" font-family="Helvetica,sans-Serif" font-size="10.00">enter()</text>
<text text-anchor="start" x="9" y="-37" font-family="Helvetica,sans-Serif" font-size="10.00">+</text>
<text text-anchor="start" x="26.5" y="-37" font-family="Helvetica,sans-Serif" font-size="10.00">update()</text>
<text text-anchor="start" x="9" y="-22" font-family="Helvetica,sans-Serif" font-size="10.00">+</text>
<text text-anchor="start" x="26.5" y="-22" font-family="Helvetica,sans-Serif" font-size="10.00">exit()</text>
<text text-anchor="start" x="9" y="-7" font-family="Helvetica,sans-Serif" font-size="10.00">+</text>
<text text-anchor="start" x="26.5" y="-7" font-family="Helvetica,sans-Serif" font-size="10.00">instance()</text>
<polygon fill="#666666" stroke="#666666" points="0.5,-77 0.5,-77 89.5,-77 89.5,-77 0.5,-77"/>
<polygon fill="#666666" stroke="#666666" points="0.5,-62 0.5,-62 89.5,-62 89.5,-62 0.5,-62"/>
<polygon fill="none" stroke="#666666" points="0,0 0,-94 89,-94 89,0 0,0"/>
</a>
</g>
</g>
<!-- Node1&#45;&gt;Node2 -->
<g id="edge1_Node000001_Node000002" class="edge">
<title>Node1&#45;&gt;Node2</title>
<g id="a_edge1_Node000001_Node000002"><a xlink:title=" ">
<path fill="none" stroke="#63b8ff" d="M233.46,-156.82C194.06,-142.34 141.25,-120.48 98.5,-94 95.36,-92.05 92.21,-89.93 89.11,-87.7"/>
<polygon fill="none" stroke="#63b8ff" points="232.59,-160.22 243.18,-160.34 234.97,-153.64 232.59,-160.22"/>
</a>
</g>
</g>
<!-- Node3 -->
<g id="Node000003" class="node">
<title>Node3</title>
<g id="a_Node000003"><a xlink:href="classIdleState.html" target="_top" xlink:title="The idle state represents a state in which the buggy operates normaly but is not driving.">
<polygon fill="white" stroke="transparent" points="177.5,-94 107.5,-94 107.5,0 177.5,0 177.5,-94"/>
<text text-anchor="start" x="120.5" y="-82" font-family="Helvetica,sans-Serif" font-size="10.00">IdleState</text>
<text text-anchor="start" x="140.5" y="-67" font-family="Helvetica,sans-Serif" font-size="10.00"> </text>
<text text-anchor="start" x="111.5" y="-52" font-family="Helvetica,sans-Serif" font-size="10.00">+</text>
<text text-anchor="start" x="124.5" y="-52" font-family="Helvetica,sans-Serif" font-size="10.00">enter()</text>
<text text-anchor="start" x="111.5" y="-37" font-family="Helvetica,sans-Serif" font-size="10.00">+</text>
<text text-anchor="start" x="124.5" y="-37" font-family="Helvetica,sans-Serif" font-size="10.00">update()</text>
<text text-anchor="start" x="111.5" y="-22" font-family="Helvetica,sans-Serif" font-size="10.00">+</text>
<text text-anchor="start" x="124.5" y="-22" font-family="Helvetica,sans-Serif" font-size="10.00">exit()</text>
<text text-anchor="start" x="111.5" y="-7" font-family="Helvetica,sans-Serif" font-size="10.00">+</text>
<text text-anchor="start" x="124.5" y="-7" font-family="Helvetica,sans-Serif" font-size="10.00">instance()</text>
<polygon fill="#666666" stroke="#666666" points="107.5,-77 107.5,-77 177.5,-77 177.5,-77 107.5,-77"/>
<polygon fill="#666666" stroke="#666666" points="107.5,-62 107.5,-62 177.5,-62 177.5,-62 107.5,-62"/>
<polygon fill="none" stroke="#666666" points="107.5,0 107.5,-94 177.5,-94 177.5,0 107.5,0"/>
</a>
</g>
</g>
<!-- Node1&#45;&gt;Node3 -->
<g id="edge2_Node000001_Node000003" class="edge">
<title>Node1&#45;&gt;Node3</title>
<g id="a_edge2_Node000001_Node000003"><a xlink:title=" ">
<path fill="none" stroke="#63b8ff" d="M235.03,-134.59C218.99,-122 201.71,-107.83 186.5,-94 183.56,-91.32 180.57,-88.49 177.61,-85.6"/>
<polygon fill="none" stroke="#63b8ff" points="233.24,-137.63 243.28,-141.02 237.54,-132.11 233.24,-137.63"/>
</a>
</g>
</g>
<!-- Node4 -->
<g id="Node000004" class="node">
<title>Node4</title>
<g id="a_Node000004"><a xlink:href="classJustDriveState.html" target="_top" xlink:title=" ">
<polygon fill="white" stroke="transparent" points="275.5,-94 195.5,-94 195.5,0 275.5,0 275.5,-94"/>
<text text-anchor="start" x="200.5" y="-82" font-family="Helvetica,sans-Serif" font-size="10.00">JustDriveState</text>
<text text-anchor="start" x="233.5" y="-67" font-family="Helvetica,sans-Serif" font-size="10.00"> </text>
<text text-anchor="start" x="202" y="-52" font-family="Helvetica,sans-Serif" font-size="10.00">+</text>
<text text-anchor="start" x="217.5" y="-52" font-family="Helvetica,sans-Serif" font-size="10.00">enter()</text>
<text text-anchor="start" x="202" y="-37" font-family="Helvetica,sans-Serif" font-size="10.00">+</text>
<text text-anchor="start" x="217.5" y="-37" font-family="Helvetica,sans-Serif" font-size="10.00">update()</text>
<text text-anchor="start" x="202" y="-22" font-family="Helvetica,sans-Serif" font-size="10.00">+</text>
<text text-anchor="start" x="217.5" y="-22" font-family="Helvetica,sans-Serif" font-size="10.00">exit()</text>
<text text-anchor="start" x="202" y="-7" font-family="Helvetica,sans-Serif" font-size="10.00">+</text>
<text text-anchor="start" x="217.5" y="-7" font-family="Helvetica,sans-Serif" font-size="10.00">instance()</text>
<polygon fill="#bfbfbf" stroke="#bfbfbf" points="195.5,-77 195.5,-77 275.5,-77 275.5,-77 195.5,-77"/>
<polygon fill="#bfbfbf" stroke="#bfbfbf" points="195.5,-62 195.5,-62 275.5,-62 275.5,-62 195.5,-62"/>
<polygon fill="none" stroke="#bfbfbf" points="195.5,0 195.5,-94 275.5,-94 275.5,0 195.5,0"/>
</a>
</g>
</g>
<!-- Node1&#45;&gt;Node4 -->
<g id="edge3_Node000001_Node000004" class="edge">
<title>Node1&#45;&gt;Node4</title>
<g id="a_edge3_Node000001_Node000004"><a xlink:title=" ">
<path fill="none" stroke="#63b8ff" d="M266.61,-120.4C262.84,-111.64 258.99,-102.66 255.33,-94.14"/>
<polygon fill="none" stroke="#63b8ff" points="263.48,-121.98 270.64,-129.79 269.91,-119.22 263.48,-121.98"/>
</a>
</g>
</g>
<!-- Node5 -->
<g id="Node000005" class="node">
<title>Node5</title>
<g id="a_Node000005"><a xlink:href="classLineFollowingState.html" target="_top" xlink:title="In the Line following state the buggy is trying to follow the line using the IR sensors....">
<polygon fill="white" stroke="transparent" points="397,-94 294,-94 294,0 397,0 397,-94"/>
<text text-anchor="start" x="299.5" y="-82" font-family="Helvetica,sans-Serif" font-size="10.00">LineFollowingState</text>
<text text-anchor="start" x="344" y="-67" font-family="Helvetica,sans-Serif" font-size="10.00"> </text>
<text text-anchor="start" x="306.5" y="-52" font-family="Helvetica,sans-Serif" font-size="10.00">+</text>
<text text-anchor="start" x="327.5" y="-52" font-family="Helvetica,sans-Serif" font-size="10.00">enter()</text>
<text text-anchor="start" x="306.5" y="-37" font-family="Helvetica,sans-Serif" font-size="10.00">+</text>
<text text-anchor="start" x="327.5" y="-37" font-family="Helvetica,sans-Serif" font-size="10.00">update()</text>
<text text-anchor="start" x="306.5" y="-22" font-family="Helvetica,sans-Serif" font-size="10.00">+</text>
<text text-anchor="start" x="327.5" y="-22" font-family="Helvetica,sans-Serif" font-size="10.00">exit()</text>
<text text-anchor="start" x="306.5" y="-7" font-family="Helvetica,sans-Serif" font-size="10.00">+</text>
<text text-anchor="start" x="327.5" y="-7" font-family="Helvetica,sans-Serif" font-size="10.00">instance()</text>
<polygon fill="#666666" stroke="#666666" points="294.5,-77 294.5,-77 397.5,-77 397.5,-77 294.5,-77"/>
<polygon fill="#666666" stroke="#666666" points="294.5,-62 294.5,-62 397.5,-62 397.5,-62 294.5,-62"/>
<polygon fill="none" stroke="#666666" points="294,0 294,-94 397,-94 397,0 294,0"/>
</a>
</g>
</g>
<!-- Node1&#45;&gt;Node5 -->
<g id="edge4_Node000001_Node000005" class="edge">
<title>Node1&#45;&gt;Node5</title>
<g id="a_edge4_Node000001_Node000005"><a xlink:title=" ">
<path fill="none" stroke="#63b8ff" d="M314.39,-120.4C318.16,-111.64 322.01,-102.66 325.67,-94.14"/>
<polygon fill="none" stroke="#63b8ff" points="311.09,-119.22 310.36,-129.79 317.52,-121.98 311.09,-119.22"/>
</a>
</g>
</g>
<!-- Node6 -->
<g id="Node000006" class="node">
<title>Node6</title>
<g id="a_Node000006"><a xlink:href="classObjectDetectedHandlerState.html" target="_top" xlink:title="This state is entered before the buggy goes into ObjectDetectedState. It is used to save the previous...">
<polygon fill="white" stroke="transparent" points="565.5,-94 415.5,-94 415.5,0 565.5,0 565.5,-94"/>
<text text-anchor="start" x="420.5" y="-82" font-family="Helvetica,sans-Serif" font-size="10.00">ObjectDetectedHandlerState</text>
<text text-anchor="start" x="488.5" y="-67" font-family="Helvetica,sans-Serif" font-size="10.00"> </text>
<text text-anchor="start" x="439.5" y="-52" font-family="Helvetica,sans-Serif" font-size="10.00">+</text>
<text text-anchor="start" x="472.5" y="-52" font-family="Helvetica,sans-Serif" font-size="10.00">enter()</text>
<text text-anchor="start" x="439.5" y="-37" font-family="Helvetica,sans-Serif" font-size="10.00">+</text>
<text text-anchor="start" x="472.5" y="-37" font-family="Helvetica,sans-Serif" font-size="10.00">update()</text>
<text text-anchor="start" x="439.5" y="-22" font-family="Helvetica,sans-Serif" font-size="10.00">+</text>
<text text-anchor="start" x="472.5" y="-22" font-family="Helvetica,sans-Serif" font-size="10.00">exit()</text>
<text text-anchor="start" x="439.5" y="-7" font-family="Helvetica,sans-Serif" font-size="10.00">+</text>
<text text-anchor="start" x="472.5" y="-7" font-family="Helvetica,sans-Serif" font-size="10.00">instance()</text>
<polygon fill="#666666" stroke="#666666" points="415.5,-77 415.5,-77 565.5,-77 565.5,-77 415.5,-77"/>
<polygon fill="#666666" stroke="#666666" points="415.5,-62 415.5,-62 565.5,-62 565.5,-62 415.5,-62"/>
<polygon fill="none" stroke="#666666" points="415.5,0 415.5,-94 565.5,-94 565.5,0 415.5,0"/>
</a>
</g>
</g>
<!-- Node1&#45;&gt;Node6 -->
<g id="edge5_Node000001_Node000006" class="edge">
<title>Node1&#45;&gt;Node6</title>
<g id="a_edge5_Node000001_Node000006"><a xlink:title=" ">
<path fill="none" stroke="#63b8ff" d="M346.35,-140.25C368.75,-125.92 394.84,-109.22 418.62,-94"/>
<polygon fill="none" stroke="#63b8ff" points="344.18,-137.49 337.64,-145.83 347.95,-143.39 344.18,-137.49"/>
</a>
</g>
</g>
<!-- Node7 -->
<g id="Node000007" class="node">
<title>Node7</title>
<g id="a_Node000007"><a xlink:href="classObjectDetectedState.html" target="_top" xlink:title="The state the Buggy enters when an object is detected during driving.">
<polygon fill="white" stroke="transparent" points="695.5,-94 583.5,-94 583.5,0 695.5,0 695.5,-94"/>
<text text-anchor="start" x="588.5" y="-82" font-family="Helvetica,sans-Serif" font-size="10.00">ObjectDetectedState</text>
<text text-anchor="start" x="637.5" y="-67" font-family="Helvetica,sans-Serif" font-size="10.00"> </text>
<text text-anchor="start" x="598" y="-52" font-family="Helvetica,sans-Serif" font-size="10.00">+</text>
<text text-anchor="start" x="621.5" y="-52" font-family="Helvetica,sans-Serif" font-size="10.00">enter()</text>
<text text-anchor="start" x="598" y="-37" font-family="Helvetica,sans-Serif" font-size="10.00">+</text>
<text text-anchor="start" x="621.5" y="-37" font-family="Helvetica,sans-Serif" font-size="10.00">update()</text>
<text text-anchor="start" x="598" y="-22" font-family="Helvetica,sans-Serif" font-size="10.00">+</text>
<text text-anchor="start" x="621.5" y="-22" font-family="Helvetica,sans-Serif" font-size="10.00">exit()</text>
<text text-anchor="start" x="598" y="-7" font-family="Helvetica,sans-Serif" font-size="10.00">+</text>
<text text-anchor="start" x="621.5" y="-7" font-family="Helvetica,sans-Serif" font-size="10.00">instance()</text>
<polygon fill="#666666" stroke="#666666" points="583.5,-77 583.5,-77 695.5,-77 695.5,-77 583.5,-77"/>
<polygon fill="#666666" stroke="#666666" points="583.5,-62 583.5,-62 695.5,-62 695.5,-62 583.5,-62"/>
<polygon fill="none" stroke="#666666" points="583.5,0 583.5,-94 695.5,-94 695.5,0 583.5,0"/>
</a>
</g>
</g>
<!-- Node1&#45;&gt;Node7 -->
<g id="edge6_Node000001_Node000007" class="edge">
<title>Node1&#45;&gt;Node7</title>
<g id="a_edge6_Node000001_Node000007"><a xlink:title=" ">
<path fill="none" stroke="#63b8ff" d="M347.59,-165.4C406.44,-153.14 499.86,-129.92 574.5,-94 577.49,-92.56 580.49,-90.99 583.47,-89.32"/>
<polygon fill="none" stroke="#63b8ff" points="346.83,-161.98 337.74,-167.42 348.24,-168.84 346.83,-161.98"/>
</a>
</g>
</g>
</g>
</svg>

<g id="navigator" transform="translate(0 0)" fill="#404254">
  <rect fill="#f2f5e9" fill-opacity="0.5" stroke="#606060" stroke-width=".5" x="0" y="0" width="60" height="60"/>
  <use id="zoomplus" xlink:href="#zoomPlus" x="17" y="9" onmousedown="handleZoom(evt,'in')"/>
  <use id="zoomminus" xlink:href="#zoomMin" x="42" y="9" onmousedown="handleZoom(evt,'out')"/>
  <use id="reset" xlink:href="#resetDef" x="30" y="36" onmousedown="handleReset()"/>
   <use id="arrowup" xlink:href="#arrowUp" x="0" y="0" onmousedown="handlePan(0,-1)"/>
  <use id="arrowright" xlink:href="#arrowRight" x="0" y="0" onmousedown="handlePan(1,0)"/>
  <use id="arrowdown" xlink:href="#arrowDown" x="0" y="0" onmousedown="handlePan(0,1)"/>
  <use id="arrowleft" xlink:href="#arrowLeft" x="0" y="0" onmousedown="handlePan(-1,0)"/>
</g>
<svg viewBox="0 0 15 15" width="100%" height="30px" preserveAspectRatio="xMaxYMin meet">
 <g id="arrow_out" transform="scale(0.3 0.3)">
  <a xlink:href="classBuggyState__inherit__graph_org.svg" target="_base">
   <rect id="button" ry="5" rx="5" y="6" x="6" height="38" width="38"
        fill="#f2f5e9" fill-opacity="0.5" stroke="#606060" stroke-width="1.0"/>
   <path id="arrow"
     d="M 11.500037,31.436501 C 11.940474,20.09759 22.043105,11.32322 32.158766,21.979434 L 37.068811,17.246167 C 37.068811,17.246167 37.088388,32 37.088388,32 L 22.160133,31.978069 C 22.160133,31.978069 26.997745,27.140456 26.997745,27.140456 C 18.528582,18.264221 13.291696,25.230495 11.500037,31.436501 z"
     style="fill:#404040;"/>
  </a>
 </g>
</svg>

<style type='text/css'>
<![CDATA[
[data-mouse-over-selected='false'] { opacity: 0.7; }
[data-mouse-over-selected='true']  { opacity: 1.0; }
]]>
</style>
<script type="application/ecmascript"><![CDATA[
document.addEventListener('DOMContentLoaded', (event) => {
  highlightEdges();
  highlightAdjacentNodes();
});
]]></script>
</svg>
