<?xml version="1.0" encoding="UTF-8" standalone="no"?>
<!DOCTYPE svg PUBLIC "-//W3C//DTD SVG 1.1//EN"
 "http://www.w3.org/Graphics/SVG/1.1/DTD/svg11.dtd">
<!-- Generated by graphviz version 2.43.0 (0)
 -->
<!-- Title: EmbeddedLogger::SerialLogger Pages: 1 -->
<svg width="170pt" height="172pt"
 viewBox="0.00 0.00 170.00 172.00" xmlns="http://www.w3.org/2000/svg" xmlns:xlink="http://www.w3.org/1999/xlink">

<svg id="main" version="1.1" xmlns="http://www.w3.org/2000/svg" xmlns:xlink="http://www.w3.org/1999/xlink" xml:space="preserve">

<style type="text/css"><![CDATA[
.node, .edge {opacity: 0.7;}
.node.selected, .edge.selected {opacity: 1;}
.edge:hover path { stroke: red; }
.edge:hover polygon { stroke: red; fill: red; }
]]></style>
<script type="application/ecmascript" xlink:href="svg.min.js"/>
<svg id="graph" class="graph">
<g id="graph0" class="graph" transform="scale(1 1) rotate(0) translate(4 168)">
<title>EmbeddedLogger::SerialLogger</title>
<!-- Node1 -->
<g id="Node000001" class="node">
<title>Node1</title>
<g id="a_Node000001"><a xlink:title=" ">
<polygon fill="#999999" stroke="transparent" points="162,-64 0,-64 0,0 162,0 162,-64"/>
<text text-anchor="start" x="5" y="-52" font-family="Helvetica,sans-Serif" font-size="10.00">EmbeddedLogger::SerialLogger</text>
<text text-anchor="start" x="79" y="-37" font-family="Helvetica,sans-Serif" font-size="10.00"> </text>
<text text-anchor="start" x="22" y="-22" font-family="Helvetica,sans-Serif" font-size="10.00">+</text>
<text text-anchor="start" x="53" y="-22" font-family="Helvetica,sans-Serif" font-size="10.00">SerialLogger()</text>
<text text-anchor="start" x="22" y="-7" font-family="Helvetica,sans-Serif" font-size="10.00">+</text>
<text text-anchor="start" x="53" y="-7" font-family="Helvetica,sans-Serif" font-size="10.00">write()</text>
<polygon fill="#666666" stroke="#666666" points="0,-47 0,-47 162,-47 162,-47 0,-47"/>
<polygon fill="#666666" stroke="#666666" points="0,-32 0,-32 162,-32 162,-32 0,-32"/>
<polygon fill="none" stroke="#666666" points="0,0 0,-64 162,-64 162,0 0,0"/>
</a>
</g>
</g>
<!-- Node2 -->
<g id="Node000002" class="node">
<title>Node2</title>
<g id="a_Node000002"><a xlink:href="classEmbeddedLogger_1_1ILogTarget.html" target="_top" xlink:title=" ">
<polygon fill="white" stroke="transparent" points="157,-164 5,-164 5,-100 157,-100 157,-164"/>
<text text-anchor="start" x="10" y="-152" font-family="Helvetica,sans-Serif" font-size="10.00">EmbeddedLogger::ILogTarget</text>
<text text-anchor="start" x="79" y="-137" font-family="Helvetica,sans-Serif" font-size="10.00"> </text>
<text text-anchor="start" x="25" y="-122" font-family="Helvetica,sans-Serif" font-size="10.00">+</text>
<text text-anchor="start" x="54" y="-122" font-family="Helvetica,sans-Serif" font-size="10.00">write()</text>
<text text-anchor="start" x="25" y="-107" font-family="Helvetica,sans-Serif" font-size="10.00">+</text>
<text text-anchor="start" x="54" y="-107" font-family="Helvetica,sans-Serif" font-size="10.00">~ILogTarget()</text>
<polygon fill="#bfbfbf" stroke="#bfbfbf" points="5,-147 5,-147 157,-147 157,-147 5,-147"/>
<polygon fill="#bfbfbf" stroke="#bfbfbf" points="5,-132 5,-132 157,-132 157,-132 5,-132"/>
<polygon fill="none" stroke="#bfbfbf" points="5,-100 5,-164 157,-164 157,-100 5,-100"/>
</a>
</g>
</g>
<!-- Node2&#45;&gt;Node1 -->
<g id="edge1_Node000001_Node000002" class="edge">
<title>Node2&#45;&gt;Node1</title>
<g id="a_edge1_Node000001_Node000002"><a xlink:title=" ">
<path fill="none" stroke="#63b8ff" d="M81,-89.76C81,-81.19 81,-72.28 81,-64.14"/>
<polygon fill="none" stroke="#63b8ff" points="77.5,-89.99 81,-99.99 84.5,-89.99 77.5,-89.99"/>
</a>
</g>
</g>
</g>
</svg>
</svg>

<style type='text/css'>
<![CDATA[
[data-mouse-over-selected='false'] { opacity: 0.7; }
[data-mouse-over-selected='true']  { opacity: 1.0; }
]]>
</style>
<script type="application/ecmascript"><![CDATA[
document.addEventListener('DOMContentLoaded', (event) => {
  highlightEdges();
  highlightAdjacentNodes();
});
]]></script>
</svg>
