<?xml version="1.0" encoding="UTF-8" standalone="no"?>
<!DOCTYPE svg PUBLIC "-//W3C//DTD SVG 1.1//EN"
 "http://www.w3.org/Graphics/SVG/1.1/DTD/svg11.dtd">
<!-- Generated by graphviz version 2.43.0 (0)
 -->
<!-- Title: ObjectDetectedHandlerState Pages: 1 -->
<svg width="158pt" height="262pt"
 viewBox="0.00 0.00 158.00 262.00" xmlns="http://www.w3.org/2000/svg" xmlns:xlink="http://www.w3.org/1999/xlink">
<g id="graph0" class="graph" transform="scale(1 1) rotate(0) translate(4 258)">
<title>ObjectDetectedHandlerState</title>
<!-- Node1 -->
<g id="Node000001" class="node">
<title>Node1</title>
<g id="a_Node000001"><a xlink:title="This state is entered before the buggy goes into ObjectDetectedState. It is used to save the previous...">
<polygon fill="#999999" stroke="transparent" points="150,-94 0,-94 0,0 150,0 150,-94"/>
<text text-anchor="start" x="5" y="-82" font-family="Helvetica,sans-Serif" font-size="10.00">ObjectDetectedHandlerState</text>
<text text-anchor="start" x="73" y="-67" font-family="Helvetica,sans-Serif" font-size="10.00"> </text>
<text text-anchor="start" x="24" y="-52" font-family="Helvetica,sans-Serif" font-size="10.00">+</text>
<text text-anchor="start" x="57" y="-52" font-family="Helvetica,sans-Serif" font-size="10.00">enter()</text>
<text text-anchor="start" x="24" y="-37" font-family="Helvetica,sans-Serif" font-size="10.00">+</text>
<text text-anchor="start" x="57" y="-37" font-family="Helvetica,sans-Serif" font-size="10.00">update()</text>
<text text-anchor="start" x="24" y="-22" font-family="Helvetica,sans-Serif" font-size="10.00">+</text>
<text text-anchor="start" x="57" y="-22" font-family="Helvetica,sans-Serif" font-size="10.00">exit()</text>
<text text-anchor="start" x="24" y="-7" font-family="Helvetica,sans-Serif" font-size="10.00">+</text>
<text text-anchor="start" x="57" y="-7" font-family="Helvetica,sans-Serif" font-size="10.00">instance()</text>
<polygon fill="#666666" stroke="#666666" points="0,-77 0,-77 150,-77 150,-77 0,-77"/>
<polygon fill="#666666" stroke="#666666" points="0,-62 0,-62 150,-62 150,-62 0,-62"/>
<polygon fill="none" stroke="#666666" points="0,0 0,-94 150,-94 150,0 0,0"/>
</a>
</g>
</g>
<!-- Node2 -->
<g id="Node000002" class="node">
<title>Node2</title>
<g id="a_Node000002"><a xlink:href="classBuggyState.html" target="_top" xlink:title="The Buggy State class is an abstract class that represents the abstract state the buggy can be in.">
<polygon fill="white" stroke="transparent" points="122,-254 28,-254 28,-130 122,-130 122,-254"/>
<text text-anchor="start" x="46.5" y="-242" font-family="Helvetica,sans-Serif" font-size="10.00">BuggyState</text>
<text text-anchor="start" x="73" y="-227" font-family="Helvetica,sans-Serif" font-size="10.00"> </text>
<text text-anchor="start" x="32" y="-212" font-family="Helvetica,sans-Serif" font-size="10.00">+</text>
<text text-anchor="start" x="45" y="-212" font-family="Helvetica,sans-Serif" font-size="10.00">BuggyState()</text>
<text text-anchor="start" x="32" y="-197" font-family="Helvetica,sans-Serif" font-size="10.00">+</text>
<text text-anchor="start" x="45" y="-197" font-family="Helvetica,sans-Serif" font-size="10.00">enter()</text>
<text text-anchor="start" x="32" y="-182" font-family="Helvetica,sans-Serif" font-size="10.00">+</text>
<text text-anchor="start" x="45" y="-182" font-family="Helvetica,sans-Serif" font-size="10.00">update()</text>
<text text-anchor="start" x="32" y="-167" font-family="Helvetica,sans-Serif" font-size="10.00">+</text>
<text text-anchor="start" x="45" y="-167" font-family="Helvetica,sans-Serif" font-size="10.00">exit()</text>
<text text-anchor="start" x="32" y="-152" font-family="Helvetica,sans-Serif" font-size="10.00">+</text>
<text text-anchor="start" x="45" y="-152" font-family="Helvetica,sans-Serif" font-size="10.00">~BuggyState()</text>
<text text-anchor="start" x="32" y="-137" font-family="Helvetica,sans-Serif" font-size="10.00">+</text>
<text text-anchor="start" x="45" y="-137" font-family="Helvetica,sans-Serif" font-size="10.00">getState()</text>
<polygon fill="#666666" stroke="#666666" points="28,-237 28,-237 122,-237 122,-237 28,-237"/>
<polygon fill="#666666" stroke="#666666" points="28,-222 28,-222 122,-222 122,-222 28,-222"/>
<polygon fill="none" stroke="#666666" points="28,-130 28,-254 122,-254 122,-130 28,-130"/>
</a>
</g>
</g>
<!-- Node2&#45;&gt;Node1 -->
<g id="edge1_Node000001_Node000002" class="edge">
<title>Node2&#45;&gt;Node1</title>
<g id="a_edge1_Node000001_Node000002"><a xlink:title=" ">
<path fill="none" stroke="#63b8ff" d="M75,-119.76C75,-111.05 75,-102.34 75,-94.15"/>
<polygon fill="none" stroke="#63b8ff" points="71.5,-119.94 75,-129.94 78.5,-119.94 71.5,-119.94"/>
</a>
</g>
</g>
</g>
</svg>
