<?xml version="1.0" encoding="UTF-8" standalone="no"?>
<!DOCTYPE svg PUBLIC "-//W3C//DTD SVG 1.1//EN"
 "http://www.w3.org/Graphics/SVG/1.1/DTD/svg11.dtd">
<!-- Generated by graphviz version 2.43.0 (0)
 -->
<!-- Title: BuggyState Pages: 1 -->
<svg width="1065pt" height="273pt"
 viewBox="0.00 0.00 1064.50 273.00" xmlns="http://www.w3.org/2000/svg" xmlns:xlink="http://www.w3.org/1999/xlink">
<g id="graph0" class="graph" transform="scale(1 1) rotate(0) translate(4 269)">
<title>BuggyState</title>
<!-- Node1 -->
<g id="Node000001" class="node">
<title>Node1</title>
<g id="a_Node000001"><a xlink:title="The Buggy State class is an abstract class that represents the abstract state the buggy can be in.">
<polygon fill="#999999" stroke="transparent" points="511.5,-265 417.5,-265 417.5,-141 511.5,-141 511.5,-265"/>
<text text-anchor="start" x="436" y="-253" font-family="Helvetica,sans-Serif" font-size="10.00">BuggyState</text>
<text text-anchor="start" x="462.5" y="-238" font-family="Helvetica,sans-Serif" font-size="10.00"> </text>
<text text-anchor="start" x="421.5" y="-223" font-family="Helvetica,sans-Serif" font-size="10.00">+</text>
<text text-anchor="start" x="434.5" y="-223" font-family="Helvetica,sans-Serif" font-size="10.00">BuggyState()</text>
<text text-anchor="start" x="421.5" y="-208" font-family="Helvetica,sans-Serif" font-size="10.00">+</text>
<text text-anchor="start" x="434.5" y="-208" font-family="Helvetica,sans-Serif" font-size="10.00">enter()</text>
<text text-anchor="start" x="421.5" y="-193" font-family="Helvetica,sans-Serif" font-size="10.00">+</text>
<text text-anchor="start" x="434.5" y="-193" font-family="Helvetica,sans-Serif" font-size="10.00">update()</text>
<text text-anchor="start" x="421.5" y="-178" font-family="Helvetica,sans-Serif" font-size="10.00">+</text>
<text text-anchor="start" x="434.5" y="-178" font-family="Helvetica,sans-Serif" font-size="10.00">exit()</text>
<text text-anchor="start" x="421.5" y="-163" font-family="Helvetica,sans-Serif" font-size="10.00">+</text>
<text text-anchor="start" x="434.5" y="-163" font-family="Helvetica,sans-Serif" font-size="10.00">~BuggyState()</text>
<text text-anchor="start" x="421.5" y="-148" font-family="Helvetica,sans-Serif" font-size="10.00">+</text>
<text text-anchor="start" x="434.5" y="-148" font-family="Helvetica,sans-Serif" font-size="10.00">getState()</text>
<polygon fill="#666666" stroke="#666666" points="417.5,-248 417.5,-248 511.5,-248 511.5,-248 417.5,-248"/>
<polygon fill="#666666" stroke="#666666" points="417.5,-233 417.5,-233 511.5,-233 511.5,-233 417.5,-233"/>
<polygon fill="none" stroke="#666666" points="417.5,-141 417.5,-265 511.5,-265 511.5,-141 417.5,-141"/>
</a>
</g>
</g>
<!-- Node2 -->
<g id="Node000002" class="node">
<title>Node2</title>
<g id="a_Node000002"><a xlink:href="classCalibrationState.html" target="_top" xlink:title="The calibration state of the buggy is the first state it enters after being placed on the track....">
<polygon fill="white" stroke="transparent" points="89,-99.5 0,-99.5 0,-5.5 89,-5.5 89,-99.5"/>
<text text-anchor="start" x="5.5" y="-87.5" font-family="Helvetica,sans-Serif" font-size="10.00">CalibrationState</text>
<text text-anchor="start" x="43" y="-72.5" font-family="Helvetica,sans-Serif" font-size="10.00"> </text>
<text text-anchor="start" x="9" y="-57.5" font-family="Helvetica,sans-Serif" font-size="10.00">+</text>
<text text-anchor="start" x="26.5" y="-57.5" font-family="Helvetica,sans-Serif" font-size="10.00">enter()</text>
<text text-anchor="start" x="9" y="-42.5" font-family="Helvetica,sans-Serif" font-size="10.00">+</text>
<text text-anchor="start" x="26.5" y="-42.5" font-family="Helvetica,sans-Serif" font-size="10.00">update()</text>
<text text-anchor="start" x="9" y="-27.5" font-family="Helvetica,sans-Serif" font-size="10.00">+</text>
<text text-anchor="start" x="26.5" y="-27.5" font-family="Helvetica,sans-Serif" font-size="10.00">exit()</text>
<text text-anchor="start" x="9" y="-12.5" font-family="Helvetica,sans-Serif" font-size="10.00">+</text>
<text text-anchor="start" x="26.5" y="-12.5" font-family="Helvetica,sans-Serif" font-size="10.00">instance()</text>
<polygon fill="#666666" stroke="#666666" points="0.5,-82.5 0.5,-82.5 89.5,-82.5 89.5,-82.5 0.5,-82.5"/>
<polygon fill="#666666" stroke="#666666" points="0.5,-67.5 0.5,-67.5 89.5,-67.5 89.5,-67.5 0.5,-67.5"/>
<polygon fill="none" stroke="#666666" points="0,-5.5 0,-99.5 89,-99.5 89,-5.5 0,-5.5"/>
</a>
</g>
</g>
<!-- Node1&#45;&gt;Node2 -->
<g id="edge1_Node000001_Node000002" class="edge">
<title>Node1&#45;&gt;Node2</title>
<g id="a_edge1_Node000001_Node000002"><a xlink:title=" ">
<path fill="none" stroke="#63b8ff" d="M407.08,-195.99C331.82,-186.13 197.62,-161.63 97.5,-105 94.6,-103.36 91.74,-101.52 88.94,-99.54"/>
<polygon fill="none" stroke="#63b8ff" points="406.94,-199.5 417.3,-197.28 407.82,-192.55 406.94,-199.5"/>
</a>
</g>
</g>
<!-- Node3 -->
<g id="Node000003" class="node">
<title>Node3</title>
<g id="a_Node000003"><a xlink:href="classCruiseControlState.html" target="_top" xlink:title=" ">
<polygon fill="white" stroke="transparent" points="208.5,-99.5 106.5,-99.5 106.5,-5.5 208.5,-5.5 208.5,-99.5"/>
<text text-anchor="start" x="111.5" y="-87.5" font-family="Helvetica,sans-Serif" font-size="10.00">CruiseControlState</text>
<text text-anchor="start" x="155.5" y="-72.5" font-family="Helvetica,sans-Serif" font-size="10.00"> </text>
<text text-anchor="start" x="118.5" y="-57.5" font-family="Helvetica,sans-Serif" font-size="10.00">+</text>
<text text-anchor="start" x="139.5" y="-57.5" font-family="Helvetica,sans-Serif" font-size="10.00">enter()</text>
<text text-anchor="start" x="118.5" y="-42.5" font-family="Helvetica,sans-Serif" font-size="10.00">+</text>
<text text-anchor="start" x="139.5" y="-42.5" font-family="Helvetica,sans-Serif" font-size="10.00">update()</text>
<text text-anchor="start" x="118.5" y="-27.5" font-family="Helvetica,sans-Serif" font-size="10.00">+</text>
<text text-anchor="start" x="139.5" y="-27.5" font-family="Helvetica,sans-Serif" font-size="10.00">exit()</text>
<text text-anchor="start" x="118.5" y="-12.5" font-family="Helvetica,sans-Serif" font-size="10.00">+</text>
<text text-anchor="start" x="139.5" y="-12.5" font-family="Helvetica,sans-Serif" font-size="10.00">instance()</text>
<polygon fill="#bfbfbf" stroke="#bfbfbf" points="106.5,-82.5 106.5,-82.5 208.5,-82.5 208.5,-82.5 106.5,-82.5"/>
<polygon fill="#bfbfbf" stroke="#bfbfbf" points="106.5,-67.5 106.5,-67.5 208.5,-67.5 208.5,-67.5 106.5,-67.5"/>
<polygon fill="none" stroke="#bfbfbf" points="106.5,-5.5 106.5,-99.5 208.5,-99.5 208.5,-5.5 106.5,-5.5"/>
</a>
</g>
</g>
<!-- Node1&#45;&gt;Node3 -->
<g id="edge2_Node000001_Node000003" class="edge">
<title>Node1&#45;&gt;Node3</title>
<g id="a_edge2_Node000001_Node000003"><a xlink:title=" ">
<path fill="none" stroke="#63b8ff" d="M407.61,-185.67C355.86,-169.45 278.5,-141.71 217.5,-105 214.56,-103.23 211.62,-101.32 208.71,-99.3"/>
<polygon fill="none" stroke="#63b8ff" points="406.69,-189.05 417.28,-188.66 408.76,-182.36 406.69,-189.05"/>
</a>
</g>
</g>
<!-- Node4 -->
<g id="Node000004" class="node">
<title>Node4</title>
<g id="a_Node000004"><a xlink:href="classIdleState.html" target="_top" xlink:title="The idle state represents a state in which the buggy operates normaly but is not driving.">
<polygon fill="white" stroke="transparent" points="296.5,-99.5 226.5,-99.5 226.5,-5.5 296.5,-5.5 296.5,-99.5"/>
<text text-anchor="start" x="239.5" y="-87.5" font-family="Helvetica,sans-Serif" font-size="10.00">IdleState</text>
<text text-anchor="start" x="259.5" y="-72.5" font-family="Helvetica,sans-Serif" font-size="10.00"> </text>
<text text-anchor="start" x="230.5" y="-57.5" font-family="Helvetica,sans-Serif" font-size="10.00">+</text>
<text text-anchor="start" x="243.5" y="-57.5" font-family="Helvetica,sans-Serif" font-size="10.00">enter()</text>
<text text-anchor="start" x="230.5" y="-42.5" font-family="Helvetica,sans-Serif" font-size="10.00">+</text>
<text text-anchor="start" x="243.5" y="-42.5" font-family="Helvetica,sans-Serif" font-size="10.00">update()</text>
<text text-anchor="start" x="230.5" y="-27.5" font-family="Helvetica,sans-Serif" font-size="10.00">+</text>
<text text-anchor="start" x="243.5" y="-27.5" font-family="Helvetica,sans-Serif" font-size="10.00">exit()</text>
<text text-anchor="start" x="230.5" y="-12.5" font-family="Helvetica,sans-Serif" font-size="10.00">+</text>
<text text-anchor="start" x="243.5" y="-12.5" font-family="Helvetica,sans-Serif" font-size="10.00">instance()</text>
<polygon fill="#666666" stroke="#666666" points="226.5,-82.5 226.5,-82.5 296.5,-82.5 296.5,-82.5 226.5,-82.5"/>
<polygon fill="#666666" stroke="#666666" points="226.5,-67.5 226.5,-67.5 296.5,-67.5 296.5,-67.5 226.5,-67.5"/>
<polygon fill="none" stroke="#666666" points="226.5,-5.5 226.5,-99.5 296.5,-99.5 296.5,-5.5 226.5,-5.5"/>
</a>
</g>
</g>
<!-- Node1&#45;&gt;Node4 -->
<g id="edge3_Node000001_Node000004" class="edge">
<title>Node1&#45;&gt;Node4</title>
<g id="a_edge3_Node000001_Node000004"><a xlink:title=" ">
<path fill="none" stroke="#63b8ff" d="M408.19,-173.4C376.39,-155.88 336.86,-131.73 305.5,-105 302.46,-102.41 299.45,-99.59 296.51,-96.67"/>
<polygon fill="none" stroke="#63b8ff" points="406.91,-176.68 417.37,-178.39 410.26,-170.53 406.91,-176.68"/>
</a>
</g>
</g>
<!-- Node5 -->
<g id="Node000005" class="node">
<title>Node5</title>
<g id="a_Node000005"><a xlink:href="classJustDriveState.html" target="_top" xlink:title=" ">
<polygon fill="white" stroke="transparent" points="394.5,-99.5 314.5,-99.5 314.5,-5.5 394.5,-5.5 394.5,-99.5"/>
<text text-anchor="start" x="319.5" y="-87.5" font-family="Helvetica,sans-Serif" font-size="10.00">JustDriveState</text>
<text text-anchor="start" x="352.5" y="-72.5" font-family="Helvetica,sans-Serif" font-size="10.00"> </text>
<text text-anchor="start" x="321" y="-57.5" font-family="Helvetica,sans-Serif" font-size="10.00">+</text>
<text text-anchor="start" x="336.5" y="-57.5" font-family="Helvetica,sans-Serif" font-size="10.00">enter()</text>
<text text-anchor="start" x="321" y="-42.5" font-family="Helvetica,sans-Serif" font-size="10.00">+</text>
<text text-anchor="start" x="336.5" y="-42.5" font-family="Helvetica,sans-Serif" font-size="10.00">update()</text>
<text text-anchor="start" x="321" y="-27.5" font-family="Helvetica,sans-Serif" font-size="10.00">+</text>
<text text-anchor="start" x="336.5" y="-27.5" font-family="Helvetica,sans-Serif" font-size="10.00">exit()</text>
<text text-anchor="start" x="321" y="-12.5" font-family="Helvetica,sans-Serif" font-size="10.00">+</text>
<text text-anchor="start" x="336.5" y="-12.5" font-family="Helvetica,sans-Serif" font-size="10.00">instance()</text>
<polygon fill="#bfbfbf" stroke="#bfbfbf" points="314.5,-82.5 314.5,-82.5 394.5,-82.5 394.5,-82.5 314.5,-82.5"/>
<polygon fill="#bfbfbf" stroke="#bfbfbf" points="314.5,-67.5 314.5,-67.5 394.5,-67.5 394.5,-67.5 314.5,-67.5"/>
<polygon fill="none" stroke="#bfbfbf" points="314.5,-5.5 314.5,-99.5 394.5,-99.5 394.5,-5.5 314.5,-5.5"/>
</a>
</g>
</g>
<!-- Node1&#45;&gt;Node5 -->
<g id="edge4_Node000001_Node000005" class="edge">
<title>Node1&#45;&gt;Node5</title>
<g id="a_edge4_Node000001_Node000005"><a xlink:title=" ">
<path fill="none" stroke="#63b8ff" d="M413.12,-132.63C404.83,-121.44 396.43,-110.11 388.68,-99.64"/>
<polygon fill="none" stroke="#63b8ff" points="410.36,-134.79 419.12,-140.74 415.98,-130.62 410.36,-134.79"/>
</a>
</g>
</g>
<!-- Node6 -->
<g id="Node000006" class="node">
<title>Node6</title>
<g id="a_Node000006"><a xlink:href="classLineFollowingState.html" target="_top" xlink:title="In the Line following state the buggy is trying to follow the line using the IR sensors....">
<polygon fill="white" stroke="transparent" points="516,-99.5 413,-99.5 413,-5.5 516,-5.5 516,-99.5"/>
<text text-anchor="start" x="418.5" y="-87.5" font-family="Helvetica,sans-Serif" font-size="10.00">LineFollowingState</text>
<text text-anchor="start" x="463" y="-72.5" font-family="Helvetica,sans-Serif" font-size="10.00"> </text>
<text text-anchor="start" x="425.5" y="-57.5" font-family="Helvetica,sans-Serif" font-size="10.00">+</text>
<text text-anchor="start" x="446.5" y="-57.5" font-family="Helvetica,sans-Serif" font-size="10.00">enter()</text>
<text text-anchor="start" x="425.5" y="-42.5" font-family="Helvetica,sans-Serif" font-size="10.00">+</text>
<text text-anchor="start" x="446.5" y="-42.5" font-family="Helvetica,sans-Serif" font-size="10.00">update()</text>
<text text-anchor="start" x="425.5" y="-27.5" font-family="Helvetica,sans-Serif" font-size="10.00">+</text>
<text text-anchor="start" x="446.5" y="-27.5" font-family="Helvetica,sans-Serif" font-size="10.00">exit()</text>
<text text-anchor="start" x="425.5" y="-12.5" font-family="Helvetica,sans-Serif" font-size="10.00">+</text>
<text text-anchor="start" x="446.5" y="-12.5" font-family="Helvetica,sans-Serif" font-size="10.00">instance()</text>
<polygon fill="#666666" stroke="#666666" points="413.5,-82.5 413.5,-82.5 516.5,-82.5 516.5,-82.5 413.5,-82.5"/>
<polygon fill="#666666" stroke="#666666" points="413.5,-67.5 413.5,-67.5 516.5,-67.5 516.5,-67.5 413.5,-67.5"/>
<polygon fill="none" stroke="#666666" points="413,-5.5 413,-99.5 516,-99.5 516,-5.5 413,-5.5"/>
</a>
</g>
</g>
<!-- Node1&#45;&gt;Node6 -->
<g id="edge5_Node000001_Node000006" class="edge">
<title>Node1&#45;&gt;Node6</title>
<g id="a_edge5_Node000001_Node000006"><a xlink:title=" ">
<path fill="none" stroke="#63b8ff" d="M464.5,-130.68C464.5,-120.13 464.5,-109.5 464.5,-99.64"/>
<polygon fill="none" stroke="#63b8ff" points="461,-130.74 464.5,-140.74 468,-130.74 461,-130.74"/>
</a>
</g>
</g>
<!-- Node7 -->
<g id="Node000007" class="node">
<title>Node7</title>
<g id="a_Node000007"><a xlink:href="classLineFollowingState__TURN__LEFT.html" target="_top" xlink:title="A special sub state of LineFollowing which preferes a left turn when following the line.">
<polygon fill="white" stroke="transparent" points="637,-105 534,-105 534,0 637,0 637,-105"/>
<text text-anchor="start" x="539.5" y="-92.5" font-family="Helvetica,sans-Serif" font-size="10.00">LineFollowingState</text>
<text text-anchor="start" x="555.5" y="-81.5" font-family="Helvetica,sans-Serif" font-size="10.00">_TURN_LEFT</text>
<text text-anchor="start" x="584" y="-66.5" font-family="Helvetica,sans-Serif" font-size="10.00"> </text>
<text text-anchor="start" x="546.5" y="-51.5" font-family="Helvetica,sans-Serif" font-size="10.00">+</text>
<text text-anchor="start" x="567.5" y="-51.5" font-family="Helvetica,sans-Serif" font-size="10.00">enter()</text>
<text text-anchor="start" x="546.5" y="-36.5" font-family="Helvetica,sans-Serif" font-size="10.00">+</text>
<text text-anchor="start" x="567.5" y="-36.5" font-family="Helvetica,sans-Serif" font-size="10.00">update()</text>
<text text-anchor="start" x="546.5" y="-21.5" font-family="Helvetica,sans-Serif" font-size="10.00">+</text>
<text text-anchor="start" x="567.5" y="-21.5" font-family="Helvetica,sans-Serif" font-size="10.00">exit()</text>
<text text-anchor="start" x="546.5" y="-6.5" font-family="Helvetica,sans-Serif" font-size="10.00">+</text>
<text text-anchor="start" x="567.5" y="-6.5" font-family="Helvetica,sans-Serif" font-size="10.00">instance()</text>
<polygon fill="#666666" stroke="#666666" points="534.5,-76.5 534.5,-76.5 637.5,-76.5 637.5,-76.5 534.5,-76.5"/>
<polygon fill="#666666" stroke="#666666" points="534.5,-61.5 534.5,-61.5 637.5,-61.5 637.5,-61.5 534.5,-61.5"/>
<polygon fill="none" stroke="#666666" points="534,0 534,-105 637,-105 637,0 534,0"/>
</a>
</g>
</g>
<!-- Node1&#45;&gt;Node7 -->
<g id="edge6_Node000001_Node000007" class="edge">
<title>Node1&#45;&gt;Node7</title>
<g id="a_edge6_Node000001_Node000007"><a xlink:title=" ">
<path fill="none" stroke="#63b8ff" d="M518.08,-136.25C526.57,-125.82 535.25,-115.18 543.43,-105.14"/>
<polygon fill="none" stroke="#63b8ff" points="515.23,-134.2 511.63,-144.16 520.66,-138.62 515.23,-134.2"/>
</a>
</g>
</g>
<!-- Node8 -->
<g id="Node000008" class="node">
<title>Node8</title>
<g id="a_Node000008"><a xlink:href="classLineFollowingState__TURN__RIGHT.html" target="_top" xlink:title="A special sub state of LineFollowing which preferes a right turn when following the line.">
<polygon fill="white" stroke="transparent" points="758,-105 655,-105 655,0 758,0 758,-105"/>
<text text-anchor="start" x="660.5" y="-92.5" font-family="Helvetica,sans-Serif" font-size="10.00">LineFollowingState</text>
<text text-anchor="start" x="672" y="-81.5" font-family="Helvetica,sans-Serif" font-size="10.00">_TURN_RIGHT</text>
<text text-anchor="start" x="705" y="-66.5" font-family="Helvetica,sans-Serif" font-size="10.00"> </text>
<text text-anchor="start" x="667.5" y="-51.5" font-family="Helvetica,sans-Serif" font-size="10.00">+</text>
<text text-anchor="start" x="688.5" y="-51.5" font-family="Helvetica,sans-Serif" font-size="10.00">enter()</text>
<text text-anchor="start" x="667.5" y="-36.5" font-family="Helvetica,sans-Serif" font-size="10.00">+</text>
<text text-anchor="start" x="688.5" y="-36.5" font-family="Helvetica,sans-Serif" font-size="10.00">update()</text>
<text text-anchor="start" x="667.5" y="-21.5" font-family="Helvetica,sans-Serif" font-size="10.00">+</text>
<text text-anchor="start" x="688.5" y="-21.5" font-family="Helvetica,sans-Serif" font-size="10.00">exit()</text>
<text text-anchor="start" x="667.5" y="-6.5" font-family="Helvetica,sans-Serif" font-size="10.00">+</text>
<text text-anchor="start" x="688.5" y="-6.5" font-family="Helvetica,sans-Serif" font-size="10.00">instance()</text>
<polygon fill="#666666" stroke="#666666" points="655.5,-76.5 655.5,-76.5 758.5,-76.5 758.5,-76.5 655.5,-76.5"/>
<polygon fill="#666666" stroke="#666666" points="655.5,-61.5 655.5,-61.5 758.5,-61.5 758.5,-61.5 655.5,-61.5"/>
<polygon fill="none" stroke="#666666" points="655,0 655,-105 758,-105 758,0 655,0"/>
</a>
</g>
</g>
<!-- Node1&#45;&gt;Node8 -->
<g id="edge7_Node000001_Node000008" class="edge">
<title>Node1&#45;&gt;Node8</title>
<g id="a_edge7_Node000001_Node000008"><a xlink:title=" ">
<path fill="none" stroke="#63b8ff" d="M520.87,-175.96C557.79,-157.95 606.44,-132.38 646.5,-105 649.22,-103.14 651.96,-101.18 654.69,-99.15"/>
<polygon fill="none" stroke="#63b8ff" points="519.23,-172.87 511.75,-180.37 522.28,-179.17 519.23,-172.87"/>
</a>
</g>
</g>
<!-- Node9 -->
<g id="Node000009" class="node">
<title>Node9</title>
<g id="a_Node000009"><a xlink:href="classObjectDetectedHandlerState.html" target="_top" xlink:title="This state is entered before the buggy goes into ObjectDetectedState. It is used to save the previous...">
<polygon fill="white" stroke="transparent" points="926.5,-99.5 776.5,-99.5 776.5,-5.5 926.5,-5.5 926.5,-99.5"/>
<text text-anchor="start" x="781.5" y="-87.5" font-family="Helvetica,sans-Serif" font-size="10.00">ObjectDetectedHandlerState</text>
<text text-anchor="start" x="849.5" y="-72.5" font-family="Helvetica,sans-Serif" font-size="10.00"> </text>
<text text-anchor="start" x="800.5" y="-57.5" font-family="Helvetica,sans-Serif" font-size="10.00">+</text>
<text text-anchor="start" x="833.5" y="-57.5" font-family="Helvetica,sans-Serif" font-size="10.00">enter()</text>
<text text-anchor="start" x="800.5" y="-42.5" font-family="Helvetica,sans-Serif" font-size="10.00">+</text>
<text text-anchor="start" x="833.5" y="-42.5" font-family="Helvetica,sans-Serif" font-size="10.00">update()</text>
<text text-anchor="start" x="800.5" y="-27.5" font-family="Helvetica,sans-Serif" font-size="10.00">+</text>
<text text-anchor="start" x="833.5" y="-27.5" font-family="Helvetica,sans-Serif" font-size="10.00">exit()</text>
<text text-anchor="start" x="800.5" y="-12.5" font-family="Helvetica,sans-Serif" font-size="10.00">+</text>
<text text-anchor="start" x="833.5" y="-12.5" font-family="Helvetica,sans-Serif" font-size="10.00">instance()</text>
<polygon fill="#666666" stroke="#666666" points="776.5,-82.5 776.5,-82.5 926.5,-82.5 926.5,-82.5 776.5,-82.5"/>
<polygon fill="#666666" stroke="#666666" points="776.5,-67.5 776.5,-67.5 926.5,-67.5 926.5,-67.5 776.5,-67.5"/>
<polygon fill="none" stroke="#666666" points="776.5,-5.5 776.5,-99.5 926.5,-99.5 926.5,-5.5 776.5,-5.5"/>
</a>
</g>
</g>
<!-- Node1&#45;&gt;Node9 -->
<g id="edge8_Node000001_Node000009" class="edge">
<title>Node1&#45;&gt;Node9</title>
<g id="a_edge8_Node000001_Node000009"><a xlink:title=" ">
<path fill="none" stroke="#63b8ff" d="M521.74,-188.08C583.83,-171.99 685.1,-142.78 767.5,-105 771.23,-103.29 775,-101.45 778.77,-99.51"/>
<polygon fill="none" stroke="#63b8ff" points="520.56,-184.77 511.74,-190.65 522.3,-191.55 520.56,-184.77"/>
</a>
</g>
</g>
<!-- Node10 -->
<g id="Node000010" class="node">
<title>Node10</title>
<g id="a_Node000010"><a xlink:href="classObjectDetectedState.html" target="_top" xlink:title="The state the Buggy enters when an object is detected during driving.">
<polygon fill="white" stroke="transparent" points="1056.5,-99.5 944.5,-99.5 944.5,-5.5 1056.5,-5.5 1056.5,-99.5"/>
<text text-anchor="start" x="949.5" y="-87.5" font-family="Helvetica,sans-Serif" font-size="10.00">ObjectDetectedState</text>
<text text-anchor="start" x="998.5" y="-72.5" font-family="Helvetica,sans-Serif" font-size="10.00"> </text>
<text text-anchor="start" x="959" y="-57.5" font-family="Helvetica,sans-Serif" font-size="10.00">+</text>
<text text-anchor="start" x="982.5" y="-57.5" font-family="Helvetica,sans-Serif" font-size="10.00">enter()</text>
<text text-anchor="start" x="959" y="-42.5" font-family="Helvetica,sans-Serif" font-size="10.00">+</text>
<text text-anchor="start" x="982.5" y="-42.5" font-family="Helvetica,sans-Serif" font-size="10.00">update()</text>
<text text-anchor="start" x="959" y="-27.5" font-family="Helvetica,sans-Serif" font-size="10.00">+</text>
<text text-anchor="start" x="982.5" y="-27.5" font-family="Helvetica,sans-Serif" font-size="10.00">exit()</text>
<text text-anchor="start" x="959" y="-12.5" font-family="Helvetica,sans-Serif" font-size="10.00">+</text>
<text text-anchor="start" x="982.5" y="-12.5" font-family="Helvetica,sans-Serif" font-size="10.00">instance()</text>
<polygon fill="#666666" stroke="#666666" points="944.5,-82.5 944.5,-82.5 1056.5,-82.5 1056.5,-82.5 944.5,-82.5"/>
<polygon fill="#666666" stroke="#666666" points="944.5,-67.5 944.5,-67.5 1056.5,-67.5 1056.5,-67.5 944.5,-67.5"/>
<polygon fill="none" stroke="#666666" points="944.5,-5.5 944.5,-99.5 1056.5,-99.5 1056.5,-5.5 944.5,-5.5"/>
</a>
</g>
</g>
<!-- Node1&#45;&gt;Node10 -->
<g id="edge9_Node000001_Node000010" class="edge">
<title>Node1&#45;&gt;Node10</title>
<g id="a_edge9_Node000001_Node000010"><a xlink:title=" ">
<path fill="none" stroke="#63b8ff" d="M521.69,-198.76C613.1,-191.74 795.99,-170.09 935.5,-105 938.89,-103.42 942.27,-101.62 945.59,-99.68"/>
<polygon fill="none" stroke="#63b8ff" points="521.26,-195.28 511.54,-199.5 521.77,-202.26 521.26,-195.28"/>
</a>
</g>
</g>
</g>
</svg>
