<?xml version="1.0" encoding="UTF-8" standalone="no"?>
<!DOCTYPE svg PUBLIC "-//W3C//DTD SVG 1.1//EN"
 "http://www.w3.org/Graphics/SVG/1.1/DTD/svg11.dtd">
<!-- Generated by graphviz version 2.43.0 (0)
 -->
<!-- Title: BuggyState Pages: 1 -->
<svg width="606pt" height="232pt"
 viewBox="0.00 0.00 605.50 232.00" xmlns="http://www.w3.org/2000/svg" xmlns:xlink="http://www.w3.org/1999/xlink">
<g id="graph0" class="graph" transform="scale(1 1) rotate(0) translate(4 228)">
<title>BuggyState</title>
<!-- Node1 -->
<g id="Node000001" class="node">
<title>Node1</title>
<g id="a_Node000001"><a xlink:title="The Buggy State class is an abstract class that represents the abstract state the buggy can be in.">
<polygon fill="#999999" stroke="transparent" points="294.5,-224 200.5,-224 200.5,-130 294.5,-130 294.5,-224"/>
<text text-anchor="start" x="219" y="-212" font-family="Helvetica,sans-Serif" font-size="10.00">BuggyState</text>
<text text-anchor="start" x="245.5" y="-197" font-family="Helvetica,sans-Serif" font-size="10.00"> </text>
<text text-anchor="start" x="204.5" y="-182" font-family="Helvetica,sans-Serif" font-size="10.00">+</text>
<text text-anchor="start" x="217.5" y="-182" font-family="Helvetica,sans-Serif" font-size="10.00">enter()</text>
<text text-anchor="start" x="204.5" y="-167" font-family="Helvetica,sans-Serif" font-size="10.00">+</text>
<text text-anchor="start" x="217.5" y="-167" font-family="Helvetica,sans-Serif" font-size="10.00">update()</text>
<text text-anchor="start" x="204.5" y="-152" font-family="Helvetica,sans-Serif" font-size="10.00">+</text>
<text text-anchor="start" x="217.5" y="-152" font-family="Helvetica,sans-Serif" font-size="10.00">exit()</text>
<text text-anchor="start" x="204.5" y="-137" font-family="Helvetica,sans-Serif" font-size="10.00">+</text>
<text text-anchor="start" x="217.5" y="-137" font-family="Helvetica,sans-Serif" font-size="10.00">~BuggyState()</text>
<polygon fill="#666666" stroke="#666666" points="200.5,-207 200.5,-207 294.5,-207 294.5,-207 200.5,-207"/>
<polygon fill="#666666" stroke="#666666" points="200.5,-192 200.5,-192 294.5,-192 294.5,-192 200.5,-192"/>
<polygon fill="none" stroke="#666666" points="200.5,-130 200.5,-224 294.5,-224 294.5,-130 200.5,-130"/>
</a>
</g>
</g>
<!-- Node2 -->
<g id="Node000002" class="node">
<title>Node2</title>
<g id="a_Node000002"><a xlink:href="classCalibrationState.html" target="_top" xlink:title="The calibration state of the buggy is the first state it enters after being placed on the track....">
<polygon fill="white" stroke="transparent" points="89,-94 0,-94 0,0 89,0 89,-94"/>
<text text-anchor="start" x="5.5" y="-82" font-family="Helvetica,sans-Serif" font-size="10.00">CalibrationState</text>
<text text-anchor="start" x="43" y="-67" font-family="Helvetica,sans-Serif" font-size="10.00"> </text>
<text text-anchor="start" x="9" y="-52" font-family="Helvetica,sans-Serif" font-size="10.00">+</text>
<text text-anchor="start" x="26.5" y="-52" font-family="Helvetica,sans-Serif" font-size="10.00">enter()</text>
<text text-anchor="start" x="9" y="-37" font-family="Helvetica,sans-Serif" font-size="10.00">+</text>
<text text-anchor="start" x="26.5" y="-37" font-family="Helvetica,sans-Serif" font-size="10.00">update()</text>
<text text-anchor="start" x="9" y="-22" font-family="Helvetica,sans-Serif" font-size="10.00">+</text>
<text text-anchor="start" x="26.5" y="-22" font-family="Helvetica,sans-Serif" font-size="10.00">exit()</text>
<text text-anchor="start" x="9" y="-7" font-family="Helvetica,sans-Serif" font-size="10.00">+</text>
<text text-anchor="start" x="26.5" y="-7" font-family="Helvetica,sans-Serif" font-size="10.00">instance()</text>
<polygon fill="#666666" stroke="#666666" points="0.5,-77 0.5,-77 89.5,-77 89.5,-77 0.5,-77"/>
<polygon fill="#666666" stroke="#666666" points="0.5,-62 0.5,-62 89.5,-62 89.5,-62 0.5,-62"/>
<polygon fill="none" stroke="#666666" points="0,0 0,-94 89,-94 89,0 0,0"/>
</a>
</g>
</g>
<!-- Node1&#45;&gt;Node2 -->
<g id="edge1_Node000001_Node000002" class="edge">
<title>Node1&#45;&gt;Node2</title>
<g id="a_edge1_Node000001_Node000002"><a xlink:title=" ">
<path fill="none" stroke="#63b8ff" d="M191.36,-148.54C162.74,-133.7 127.88,-114.29 98.5,-94 95.36,-91.83 92.19,-89.51 89.04,-87.11"/>
<polygon fill="none" stroke="#63b8ff" points="189.92,-151.74 200.42,-153.2 193.12,-145.51 189.92,-151.74"/>
</a>
</g>
</g>
<!-- Node3 -->
<g id="Node000003" class="node">
<title>Node3</title>
<g id="a_Node000003"><a xlink:href="classIdleState.html" target="_top" xlink:title="The idle state represents a state in which the buggy operates normaly but is not driving.">
<polygon fill="white" stroke="transparent" points="177.5,-94 107.5,-94 107.5,0 177.5,0 177.5,-94"/>
<text text-anchor="start" x="120.5" y="-82" font-family="Helvetica,sans-Serif" font-size="10.00">IdleState</text>
<text text-anchor="start" x="140.5" y="-67" font-family="Helvetica,sans-Serif" font-size="10.00"> </text>
<text text-anchor="start" x="111.5" y="-52" font-family="Helvetica,sans-Serif" font-size="10.00">+</text>
<text text-anchor="start" x="124.5" y="-52" font-family="Helvetica,sans-Serif" font-size="10.00">enter()</text>
<text text-anchor="start" x="111.5" y="-37" font-family="Helvetica,sans-Serif" font-size="10.00">+</text>
<text text-anchor="start" x="124.5" y="-37" font-family="Helvetica,sans-Serif" font-size="10.00">update()</text>
<text text-anchor="start" x="111.5" y="-22" font-family="Helvetica,sans-Serif" font-size="10.00">+</text>
<text text-anchor="start" x="124.5" y="-22" font-family="Helvetica,sans-Serif" font-size="10.00">exit()</text>
<text text-anchor="start" x="111.5" y="-7" font-family="Helvetica,sans-Serif" font-size="10.00">+</text>
<text text-anchor="start" x="124.5" y="-7" font-family="Helvetica,sans-Serif" font-size="10.00">instance()</text>
<polygon fill="#666666" stroke="#666666" points="107.5,-77 107.5,-77 177.5,-77 177.5,-77 107.5,-77"/>
<polygon fill="#666666" stroke="#666666" points="107.5,-62 107.5,-62 177.5,-62 177.5,-62 107.5,-62"/>
<polygon fill="none" stroke="#666666" points="107.5,0 107.5,-94 177.5,-94 177.5,0 107.5,0"/>
</a>
</g>
</g>
<!-- Node1&#45;&gt;Node3 -->
<g id="edge2_Node000001_Node000003" class="edge">
<title>Node1&#45;&gt;Node3</title>
<g id="a_edge2_Node000001_Node000003"><a xlink:title=" ">
<path fill="none" stroke="#63b8ff" d="M203.13,-121.91C194.59,-111.5 185.75,-100.73 177.55,-90.73"/>
<polygon fill="none" stroke="#63b8ff" points="200.54,-124.28 209.59,-129.79 205.96,-119.84 200.54,-124.28"/>
</a>
</g>
</g>
<!-- Node4 -->
<g id="Node000004" class="node">
<title>Node4</title>
<g id="a_Node000004"><a xlink:href="classLineFollowingState.html" target="_top" xlink:title="In the Line following state the buggy is trying to follow the line using the IR sensors....">
<polygon fill="white" stroke="transparent" points="299,-94 196,-94 196,0 299,0 299,-94"/>
<text text-anchor="start" x="201.5" y="-82" font-family="Helvetica,sans-Serif" font-size="10.00">LineFollowingState</text>
<text text-anchor="start" x="246" y="-67" font-family="Helvetica,sans-Serif" font-size="10.00"> </text>
<text text-anchor="start" x="208.5" y="-52" font-family="Helvetica,sans-Serif" font-size="10.00">+</text>
<text text-anchor="start" x="229.5" y="-52" font-family="Helvetica,sans-Serif" font-size="10.00">enter()</text>
<text text-anchor="start" x="208.5" y="-37" font-family="Helvetica,sans-Serif" font-size="10.00">+</text>
<text text-anchor="start" x="229.5" y="-37" font-family="Helvetica,sans-Serif" font-size="10.00">update()</text>
<text text-anchor="start" x="208.5" y="-22" font-family="Helvetica,sans-Serif" font-size="10.00">+</text>
<text text-anchor="start" x="229.5" y="-22" font-family="Helvetica,sans-Serif" font-size="10.00">exit()</text>
<text text-anchor="start" x="208.5" y="-7" font-family="Helvetica,sans-Serif" font-size="10.00">+</text>
<text text-anchor="start" x="229.5" y="-7" font-family="Helvetica,sans-Serif" font-size="10.00">instance()</text>
<polygon fill="#666666" stroke="#666666" points="196.5,-77 196.5,-77 299.5,-77 299.5,-77 196.5,-77"/>
<polygon fill="#666666" stroke="#666666" points="196.5,-62 196.5,-62 299.5,-62 299.5,-62 196.5,-62"/>
<polygon fill="none" stroke="#666666" points="196,0 196,-94 299,-94 299,0 196,0"/>
</a>
</g>
</g>
<!-- Node1&#45;&gt;Node4 -->
<g id="edge3_Node000001_Node000004" class="edge">
<title>Node1&#45;&gt;Node4</title>
<g id="a_edge3_Node000001_Node000004"><a xlink:title=" ">
<path fill="none" stroke="#63b8ff" d="M247.5,-119.56C247.5,-111.06 247.5,-102.39 247.5,-94.14"/>
<polygon fill="none" stroke="#63b8ff" points="244,-119.79 247.5,-129.79 251,-119.79 244,-119.79"/>
</a>
</g>
</g>
<!-- Node5 -->
<g id="Node000005" class="node">
<title>Node5</title>
<g id="a_Node000005"><a xlink:href="classObjectDetectedHandlerState.html" target="_top" xlink:title="This state is entered before the buggy goes into ObjectDetectedState. It is used to save the previous...">
<polygon fill="white" stroke="transparent" points="467.5,-94 317.5,-94 317.5,0 467.5,0 467.5,-94"/>
<text text-anchor="start" x="322.5" y="-82" font-family="Helvetica,sans-Serif" font-size="10.00">ObjectDetectedHandlerState</text>
<text text-anchor="start" x="390.5" y="-67" font-family="Helvetica,sans-Serif" font-size="10.00"> </text>
<text text-anchor="start" x="341.5" y="-52" font-family="Helvetica,sans-Serif" font-size="10.00">+</text>
<text text-anchor="start" x="374.5" y="-52" font-family="Helvetica,sans-Serif" font-size="10.00">enter()</text>
<text text-anchor="start" x="341.5" y="-37" font-family="Helvetica,sans-Serif" font-size="10.00">+</text>
<text text-anchor="start" x="374.5" y="-37" font-family="Helvetica,sans-Serif" font-size="10.00">update()</text>
<text text-anchor="start" x="341.5" y="-22" font-family="Helvetica,sans-Serif" font-size="10.00">+</text>
<text text-anchor="start" x="374.5" y="-22" font-family="Helvetica,sans-Serif" font-size="10.00">exit()</text>
<text text-anchor="start" x="341.5" y="-7" font-family="Helvetica,sans-Serif" font-size="10.00">+</text>
<text text-anchor="start" x="374.5" y="-7" font-family="Helvetica,sans-Serif" font-size="10.00">instance()</text>
<polygon fill="#666666" stroke="#666666" points="317.5,-77 317.5,-77 467.5,-77 467.5,-77 317.5,-77"/>
<polygon fill="#666666" stroke="#666666" points="317.5,-62 317.5,-62 467.5,-62 467.5,-62 317.5,-62"/>
<polygon fill="none" stroke="#666666" points="317.5,0 317.5,-94 467.5,-94 467.5,0 317.5,0"/>
</a>
</g>
</g>
<!-- Node1&#45;&gt;Node5 -->
<g id="edge4_Node000001_Node000005" class="edge">
<title>Node1&#45;&gt;Node5</title>
<g id="a_edge4_Node000001_Node000005"><a xlink:title=" ">
<path fill="none" stroke="#63b8ff" d="M302.21,-127.71C314.64,-116.74 327.81,-105.11 340.14,-94.22"/>
<polygon fill="none" stroke="#63b8ff" points="299.76,-125.2 294.58,-134.44 304.39,-130.45 299.76,-125.2"/>
</a>
</g>
</g>
<!-- Node6 -->
<g id="Node000006" class="node">
<title>Node6</title>
<g id="a_Node000006"><a xlink:href="classObjectDetectedState.html" target="_top" xlink:title="The state the Buggy enters when an object is detected during driving.">
<polygon fill="white" stroke="transparent" points="597.5,-94 485.5,-94 485.5,0 597.5,0 597.5,-94"/>
<text text-anchor="start" x="490.5" y="-82" font-family="Helvetica,sans-Serif" font-size="10.00">ObjectDetectedState</text>
<text text-anchor="start" x="539.5" y="-67" font-family="Helvetica,sans-Serif" font-size="10.00"> </text>
<text text-anchor="start" x="500" y="-52" font-family="Helvetica,sans-Serif" font-size="10.00">+</text>
<text text-anchor="start" x="523.5" y="-52" font-family="Helvetica,sans-Serif" font-size="10.00">enter()</text>
<text text-anchor="start" x="500" y="-37" font-family="Helvetica,sans-Serif" font-size="10.00">+</text>
<text text-anchor="start" x="523.5" y="-37" font-family="Helvetica,sans-Serif" font-size="10.00">update()</text>
<text text-anchor="start" x="500" y="-22" font-family="Helvetica,sans-Serif" font-size="10.00">+</text>
<text text-anchor="start" x="523.5" y="-22" font-family="Helvetica,sans-Serif" font-size="10.00">exit()</text>
<text text-anchor="start" x="500" y="-7" font-family="Helvetica,sans-Serif" font-size="10.00">+</text>
<text text-anchor="start" x="523.5" y="-7" font-family="Helvetica,sans-Serif" font-size="10.00">instance()</text>
<polygon fill="#666666" stroke="#666666" points="485.5,-77 485.5,-77 597.5,-77 597.5,-77 485.5,-77"/>
<polygon fill="#666666" stroke="#666666" points="485.5,-62 485.5,-62 597.5,-62 597.5,-62 485.5,-62"/>
<polygon fill="none" stroke="#666666" points="485.5,0 485.5,-94 597.5,-94 597.5,0 485.5,0"/>
</a>
</g>
</g>
<!-- Node1&#45;&gt;Node6 -->
<g id="edge5_Node000001_Node000006" class="edge">
<title>Node1&#45;&gt;Node6</title>
<g id="a_edge5_Node000001_Node000006"><a xlink:title=" ">
<path fill="none" stroke="#63b8ff" d="M304.47,-160.33C351.92,-146.18 420.54,-123.12 476.5,-94 479.44,-92.47 482.41,-90.82 485.36,-89.09"/>
<polygon fill="none" stroke="#63b8ff" points="303.28,-157.03 294.67,-163.21 305.25,-163.75 303.28,-157.03"/>
</a>
</g>
</g>
</g>
</svg>
