<?xml version="1.0" encoding="UTF-8" standalone="no"?>
<!DOCTYPE svg PUBLIC "-//W3C//DTD SVG 1.1//EN"
 "http://www.w3.org/Graphics/SVG/1.1/DTD/svg11.dtd">
<!-- Generated by graphviz version 2.43.0 (0)
 -->
<!-- Title: BuggyState Pages: 1 -->
<!--zoomable 273 -->

<svg id="main" version="1.1" xmlns="http://www.w3.org/2000/svg" xmlns:xlink="http://www.w3.org/1999/xlink" xml:space="preserve" onload="init(evt)">

<style type="text/css"><![CDATA[
.node, .edge {opacity: 0.7;}
.node.selected, .edge.selected {opacity: 1;}
.edge:hover path { stroke: red; }
.edge:hover polygon { stroke: red; fill: red; }
]]></style>

<defs>
  <circle id="rim" cx="0" cy="0" r="7"/>
  <circle id="rim2" cx="0" cy="0" r="3.5"/>
  <g id="zoomPlus">
    <use xlink:href="#rim" fill="#404040"><set attributeName="fill" to="#808080" begin="zoomplus.mouseover" end="zoomplus.mouseout"/></use>
    <path d="M-4,0h8M0,-4v8" fill="none" stroke="white" stroke-width="1.5" pointer-events="none"/>
  </g>
  <g id="zoomMin">
    <use xlink:href="#rim" fill="#404040"><set attributeName="fill" to="#808080" begin="zoomminus.mouseover" end="zoomminus.mouseout"/></use>
    <path d="M-4,0h8" fill="none" stroke="white" stroke-width="1.5" pointer-events="none"/>
  </g>
  <g id="arrowUp" transform="translate(30 24)">
    <use xlink:href="#rim"/>
    <path pointer-events="none" fill="none" stroke="white" stroke-width="1.5" d="M0,-3.0v7 M-2.5,-0.5L0,-3.0L2.5,-0.5"/>
  </g>
  <g id="arrowRight" transform="rotate(90) translate(36 -43)">
    <use xlink:href="#rim"/>
    <path pointer-events="none" fill="none" stroke="white" stroke-width="1.5" d="M0,-3.0v7 M-2.5,-0.5L0,-3.0L2.5,-0.5"/>
  </g>
  <g id="arrowDown" transform="rotate(180) translate(-30 -48)">
    <use xlink:href="#rim"/>
    <path pointer-events="none" fill="none" stroke="white" stroke-width="1.5" d="M0,-3.0v7 M-2.5,-0.5L0,-3.0L2.5,-0.5"/>
  </g>
  <g id="arrowLeft" transform="rotate(270) translate(-36 17)">
    <use xlink:href="#rim"/>
    <path pointer-events="none" fill="none" stroke="white" stroke-width="1.5" d="M0,-3.0v7 M-2.5,-0.5L0,-3.0L2.5,-0.5"/>
  </g>
  <g id="resetDef">
    <use xlink:href="#rim2" fill="#404040"><set attributeName="fill" to="#808080" begin="reset.mouseover" end="reset.mouseout"/></use>
  </g>
</defs>
<script type="application/ecmascript">
var viewWidth = 1065;
var viewHeight = 273;
var sectionId = 'dynsection-0';
</script>
<script type="application/ecmascript" xlink:href="svg.min.js"/>
<svg id="graph" class="graph">
<g id="viewport">
<title>BuggyState</title>
<!-- Node1 -->
<g id="Node000001" class="node">
<title>Node1</title>
<g id="a_Node000001"><a xlink:title="The Buggy State class is an abstract class that represents the abstract state the buggy can be in.">
<polygon fill="#999999" stroke="transparent" points="511.5,-265 417.5,-265 417.5,-141 511.5,-141 511.5,-265"/>
<text text-anchor="start" x="436" y="-253" font-family="Helvetica,sans-Serif" font-size="10.00">BuggyState</text>
<text text-anchor="start" x="462.5" y="-238" font-family="Helvetica,sans-Serif" font-size="10.00"> </text>
<text text-anchor="start" x="421.5" y="-223" font-family="Helvetica,sans-Serif" font-size="10.00">+</text>
<text text-anchor="start" x="434.5" y="-223" font-family="Helvetica,sans-Serif" font-size="10.00">BuggyState()</text>
<text text-anchor="start" x="421.5" y="-208" font-family="Helvetica,sans-Serif" font-size="10.00">+</text>
<text text-anchor="start" x="434.5" y="-208" font-family="Helvetica,sans-Serif" font-size="10.00">enter()</text>
<text text-anchor="start" x="421.5" y="-193" font-family="Helvetica,sans-Serif" font-size="10.00">+</text>
<text text-anchor="start" x="434.5" y="-193" font-family="Helvetica,sans-Serif" font-size="10.00">update()</text>
<text text-anchor="start" x="421.5" y="-178" font-family="Helvetica,sans-Serif" font-size="10.00">+</text>
<text text-anchor="start" x="434.5" y="-178" font-family="Helvetica,sans-Serif" font-size="10.00">exit()</text>
<text text-anchor="start" x="421.5" y="-163" font-family="Helvetica,sans-Serif" font-size="10.00">+</text>
<text text-anchor="start" x="434.5" y="-163" font-family="Helvetica,sans-Serif" font-size="10.00">~BuggyState()</text>
<text text-anchor="start" x="421.5" y="-148" font-family="Helvetica,sans-Serif" font-size="10.00">+</text>
<text text-anchor="start" x="434.5" y="-148" font-family="Helvetica,sans-Serif" font-size="10.00">getState()</text>
<polygon fill="#666666" stroke="#666666" points="417.5,-248 417.5,-248 511.5,-248 511.5,-248 417.5,-248"/>
<polygon fill="#666666" stroke="#666666" points="417.5,-233 417.5,-233 511.5,-233 511.5,-233 417.5,-233"/>
<polygon fill="none" stroke="#666666" points="417.5,-141 417.5,-265 511.5,-265 511.5,-141 417.5,-141"/>
</a>
</g>
</g>
<!-- Node2 -->
<g id="Node000002" class="node">
<title>Node2</title>
<g id="a_Node000002"><a xlink:href="classCalibrationState.html" target="_top" xlink:title="The calibration state of the buggy is the first state it enters after being placed on the track....">
<polygon fill="white" stroke="transparent" points="89,-99.5 0,-99.5 0,-5.5 89,-5.5 89,-99.5"/>
<text text-anchor="start" x="5.5" y="-87.5" font-family="Helvetica,sans-Serif" font-size="10.00">CalibrationState</text>
<text text-anchor="start" x="43" y="-72.5" font-family="Helvetica,sans-Serif" font-size="10.00"> </text>
<text text-anchor="start" x="9" y="-57.5" font-family="Helvetica,sans-Serif" font-size="10.00">+</text>
<text text-anchor="start" x="26.5" y="-57.5" font-family="Helvetica,sans-Serif" font-size="10.00">enter()</text>
<text text-anchor="start" x="9" y="-42.5" font-family="Helvetica,sans-Serif" font-size="10.00">+</text>
<text text-anchor="start" x="26.5" y="-42.5" font-family="Helvetica,sans-Serif" font-size="10.00">update()</text>
<text text-anchor="start" x="9" y="-27.5" font-family="Helvetica,sans-Serif" font-size="10.00">+</text>
<text text-anchor="start" x="26.5" y="-27.5" font-family="Helvetica,sans-Serif" font-size="10.00">exit()</text>
<text text-anchor="start" x="9" y="-12.5" font-family="Helvetica,sans-Serif" font-size="10.00">+</text>
<text text-anchor="start" x="26.5" y="-12.5" font-family="Helvetica,sans-Serif" font-size="10.00">instance()</text>
<polygon fill="#666666" stroke="#666666" points="0.5,-82.5 0.5,-82.5 89.5,-82.5 89.5,-82.5 0.5,-82.5"/>
<polygon fill="#666666" stroke="#666666" points="0.5,-67.5 0.5,-67.5 89.5,-67.5 89.5,-67.5 0.5,-67.5"/>
<polygon fill="none" stroke="#666666" points="0,-5.5 0,-99.5 89,-99.5 89,-5.5 0,-5.5"/>
</a>
</g>
</g>
<!-- Node1&#45;&gt;Node2 -->
<g id="edge1_Node000001_Node000002" class="edge">
<title>Node1&#45;&gt;Node2</title>
<g id="a_edge1_Node000001_Node000002"><a xlink:title=" ">
<path fill="none" stroke="#63b8ff" d="M407.08,-195.99C331.82,-186.13 197.62,-161.63 97.5,-105 94.6,-103.36 91.74,-101.52 88.94,-99.54"/>
<polygon fill="none" stroke="#63b8ff" points="406.94,-199.5 417.3,-197.28 407.82,-192.55 406.94,-199.5"/>
</a>
</g>
</g>
<!-- Node3 -->
<g id="Node000003" class="node">
<title>Node3</title>
<g id="a_Node000003"><a xlink:href="classCruiseControlState.html" target="_top" xlink:title=" ">
<polygon fill="white" stroke="transparent" points="208.5,-99.5 106.5,-99.5 106.5,-5.5 208.5,-5.5 208.5,-99.5"/>
<text text-anchor="start" x="111.5" y="-87.5" font-family="Helvetica,sans-Serif" font-size="10.00">CruiseControlState</text>
<text text-anchor="start" x="155.5" y="-72.5" font-family="Helvetica,sans-Serif" font-size="10.00"> </text>
<text text-anchor="start" x="118.5" y="-57.5" font-family="Helvetica,sans-Serif" font-size="10.00">+</text>
<text text-anchor="start" x="139.5" y="-57.5" font-family="Helvetica,sans-Serif" font-size="10.00">enter()</text>
<text text-anchor="start" x="118.5" y="-42.5" font-family="Helvetica,sans-Serif" font-size="10.00">+</text>
<text text-anchor="start" x="139.5" y="-42.5" font-family="Helvetica,sans-Serif" font-size="10.00">update()</text>
<text text-anchor="start" x="118.5" y="-27.5" font-family="Helvetica,sans-Serif" font-size="10.00">+</text>
<text text-anchor="start" x="139.5" y="-27.5" font-family="Helvetica,sans-Serif" font-size="10.00">exit()</text>
<text text-anchor="start" x="118.5" y="-12.5" font-family="Helvetica,sans-Serif" font-size="10.00">+</text>
<text text-anchor="start" x="139.5" y="-12.5" font-family="Helvetica,sans-Serif" font-size="10.00">instance()</text>
<polygon fill="#bfbfbf" stroke="#bfbfbf" points="106.5,-82.5 106.5,-82.5 208.5,-82.5 208.5,-82.5 106.5,-82.5"/>
<polygon fill="#bfbfbf" stroke="#bfbfbf" points="106.5,-67.5 106.5,-67.5 208.5,-67.5 208.5,-67.5 106.5,-67.5"/>
<polygon fill="none" stroke="#bfbfbf" points="106.5,-5.5 106.5,-99.5 208.5,-99.5 208.5,-5.5 106.5,-5.5"/>
</a>
</g>
</g>
<!-- Node1&#45;&gt;Node3 -->
<g id="edge2_Node000001_Node000003" class="edge">
<title>Node1&#45;&gt;Node3</title>
<g id="a_edge2_Node000001_Node000003"><a xlink:title=" ">
<path fill="none" stroke="#63b8ff" d="M407.61,-185.67C355.86,-169.45 278.5,-141.71 217.5,-105 214.56,-103.23 211.62,-101.32 208.71,-99.3"/>
<polygon fill="none" stroke="#63b8ff" points="406.69,-189.05 417.28,-188.66 408.76,-182.36 406.69,-189.05"/>
</a>
</g>
</g>
<!-- Node4 -->
<g id="Node000004" class="node">
<title>Node4</title>
<g id="a_Node000004"><a xlink:href="classIdleState.html" target="_top" xlink:title="The idle state represents a state in which the buggy operates normaly but is not driving.">
<polygon fill="white" stroke="transparent" points="296.5,-99.5 226.5,-99.5 226.5,-5.5 296.5,-5.5 296.5,-99.5"/>
<text text-anchor="start" x="239.5" y="-87.5" font-family="Helvetica,sans-Serif" font-size="10.00">IdleState</text>
<text text-anchor="start" x="259.5" y="-72.5" font-family="Helvetica,sans-Serif" font-size="10.00"> </text>
<text text-anchor="start" x="230.5" y="-57.5" font-family="Helvetica,sans-Serif" font-size="10.00">+</text>
<text text-anchor="start" x="243.5" y="-57.5" font-family="Helvetica,sans-Serif" font-size="10.00">enter()</text>
<text text-anchor="start" x="230.5" y="-42.5" font-family="Helvetica,sans-Serif" font-size="10.00">+</text>
<text text-anchor="start" x="243.5" y="-42.5" font-family="Helvetica,sans-Serif" font-size="10.00">update()</text>
<text text-anchor="start" x="230.5" y="-27.5" font-family="Helvetica,sans-Serif" font-size="10.00">+</text>
<text text-anchor="start" x="243.5" y="-27.5" font-family="Helvetica,sans-Serif" font-size="10.00">exit()</text>
<text text-anchor="start" x="230.5" y="-12.5" font-family="Helvetica,sans-Serif" font-size="10.00">+</text>
<text text-anchor="start" x="243.5" y="-12.5" font-family="Helvetica,sans-Serif" font-size="10.00">instance()</text>
<polygon fill="#666666" stroke="#666666" points="226.5,-82.5 226.5,-82.5 296.5,-82.5 296.5,-82.5 226.5,-82.5"/>
<polygon fill="#666666" stroke="#666666" points="226.5,-67.5 226.5,-67.5 296.5,-67.5 296.5,-67.5 226.5,-67.5"/>
<polygon fill="none" stroke="#666666" points="226.5,-5.5 226.5,-99.5 296.5,-99.5 296.5,-5.5 226.5,-5.5"/>
</a>
</g>
</g>
<!-- Node1&#45;&gt;Node4 -->
<g id="edge3_Node000001_Node000004" class="edge">
<title>Node1&#45;&gt;Node4</title>
<g id="a_edge3_Node000001_Node000004"><a xlink:title=" ">
<path fill="none" stroke="#63b8ff" d="M408.19,-173.4C376.39,-155.88 336.86,-131.73 305.5,-105 302.46,-102.41 299.45,-99.59 296.51,-96.67"/>
<polygon fill="none" stroke="#63b8ff" points="406.91,-176.68 417.37,-178.39 410.26,-170.53 406.91,-176.68"/>
</a>
</g>
</g>
<!-- Node5 -->
<g id="Node000005" class="node">
<title>Node5</title>
<g id="a_Node000005"><a xlink:href="classJustDriveState.html" target="_top" xlink:title=" ">
<polygon fill="white" stroke="transparent" points="394.5,-99.5 314.5,-99.5 314.5,-5.5 394.5,-5.5 394.5,-99.5"/>
<text text-anchor="start" x="319.5" y="-87.5" font-family="Helvetica,sans-Serif" font-size="10.00">JustDriveState</text>
<text text-anchor="start" x="352.5" y="-72.5" font-family="Helvetica,sans-Serif" font-size="10.00"> </text>
<text text-anchor="start" x="321" y="-57.5" font-family="Helvetica,sans-Serif" font-size="10.00">+</text>
<text text-anchor="start" x="336.5" y="-57.5" font-family="Helvetica,sans-Serif" font-size="10.00">enter()</text>
<text text-anchor="start" x="321" y="-42.5" font-family="Helvetica,sans-Serif" font-size="10.00">+</text>
<text text-anchor="start" x="336.5" y="-42.5" font-family="Helvetica,sans-Serif" font-size="10.00">update()</text>
<text text-anchor="start" x="321" y="-27.5" font-family="Helvetica,sans-Serif" font-size="10.00">+</text>
<text text-anchor="start" x="336.5" y="-27.5" font-family="Helvetica,sans-Serif" font-size="10.00">exit()</text>
<text text-anchor="start" x="321" y="-12.5" font-family="Helvetica,sans-Serif" font-size="10.00">+</text>
<text text-anchor="start" x="336.5" y="-12.5" font-family="Helvetica,sans-Serif" font-size="10.00">instance()</text>
<polygon fill="#bfbfbf" stroke="#bfbfbf" points="314.5,-82.5 314.5,-82.5 394.5,-82.5 394.5,-82.5 314.5,-82.5"/>
<polygon fill="#bfbfbf" stroke="#bfbfbf" points="314.5,-67.5 314.5,-67.5 394.5,-67.5 394.5,-67.5 314.5,-67.5"/>
<polygon fill="none" stroke="#bfbfbf" points="314.5,-5.5 314.5,-99.5 394.5,-99.5 394.5,-5.5 314.5,-5.5"/>
</a>
</g>
</g>
<!-- Node1&#45;&gt;Node5 -->
<g id="edge4_Node000001_Node000005" class="edge">
<title>Node1&#45;&gt;Node5</title>
<g id="a_edge4_Node000001_Node000005"><a xlink:title=" ">
<path fill="none" stroke="#63b8ff" d="M413.12,-132.63C404.83,-121.44 396.43,-110.11 388.68,-99.64"/>
<polygon fill="none" stroke="#63b8ff" points="410.36,-134.79 419.12,-140.74 415.98,-130.62 410.36,-134.79"/>
</a>
</g>
</g>
<!-- Node6 -->
<g id="Node000006" class="node">
<title>Node6</title>
<g id="a_Node000006"><a xlink:href="classLineFollowingState.html" target="_top" xlink:title="In the Line following state the buggy is trying to follow the line using the IR sensors....">
<polygon fill="white" stroke="transparent" points="516,-99.5 413,-99.5 413,-5.5 516,-5.5 516,-99.5"/>
<text text-anchor="start" x="418.5" y="-87.5" font-family="Helvetica,sans-Serif" font-size="10.00">LineFollowingState</text>
<text text-anchor="start" x="463" y="-72.5" font-family="Helvetica,sans-Serif" font-size="10.00"> </text>
<text text-anchor="start" x="425.5" y="-57.5" font-family="Helvetica,sans-Serif" font-size="10.00">+</text>
<text text-anchor="start" x="446.5" y="-57.5" font-family="Helvetica,sans-Serif" font-size="10.00">enter()</text>
<text text-anchor="start" x="425.5" y="-42.5" font-family="Helvetica,sans-Serif" font-size="10.00">+</text>
<text text-anchor="start" x="446.5" y="-42.5" font-family="Helvetica,sans-Serif" font-size="10.00">update()</text>
<text text-anchor="start" x="425.5" y="-27.5" font-family="Helvetica,sans-Serif" font-size="10.00">+</text>
<text text-anchor="start" x="446.5" y="-27.5" font-family="Helvetica,sans-Serif" font-size="10.00">exit()</text>
<text text-anchor="start" x="425.5" y="-12.5" font-family="Helvetica,sans-Serif" font-size="10.00">+</text>
<text text-anchor="start" x="446.5" y="-12.5" font-family="Helvetica,sans-Serif" font-size="10.00">instance()</text>
<polygon fill="#666666" stroke="#666666" points="413.5,-82.5 413.5,-82.5 516.5,-82.5 516.5,-82.5 413.5,-82.5"/>
<polygon fill="#666666" stroke="#666666" points="413.5,-67.5 413.5,-67.5 516.5,-67.5 516.5,-67.5 413.5,-67.5"/>
<polygon fill="none" stroke="#666666" points="413,-5.5 413,-99.5 516,-99.5 516,-5.5 413,-5.5"/>
</a>
</g>
</g>
<!-- Node1&#45;&gt;Node6 -->
<g id="edge5_Node000001_Node000006" class="edge">
<title>Node1&#45;&gt;Node6</title>
<g id="a_edge5_Node000001_Node000006"><a xlink:title=" ">
<path fill="none" stroke="#63b8ff" d="M464.5,-130.68C464.5,-120.13 464.5,-109.5 464.5,-99.64"/>
<polygon fill="none" stroke="#63b8ff" points="461,-130.74 464.5,-140.74 468,-130.74 461,-130.74"/>
</a>
</g>
</g>
<!-- Node7 -->
<g id="Node000007" class="node">
<title>Node7</title>
<g id="a_Node000007"><a xlink:href="classLineFollowingState__TURN__LEFT.html" target="_top" xlink:title="A special sub state of LineFollowing which preferes a left turn when following the line.">
<polygon fill="white" stroke="transparent" points="637,-105 534,-105 534,0 637,0 637,-105"/>
<text text-anchor="start" x="539.5" y="-92.5" font-family="Helvetica,sans-Serif" font-size="10.00">LineFollowingState</text>
<text text-anchor="start" x="555.5" y="-81.5" font-family="Helvetica,sans-Serif" font-size="10.00">_TURN_LEFT</text>
<text text-anchor="start" x="584" y="-66.5" font-family="Helvetica,sans-Serif" font-size="10.00"> </text>
<text text-anchor="start" x="546.5" y="-51.5" font-family="Helvetica,sans-Serif" font-size="10.00">+</text>
<text text-anchor="start" x="567.5" y="-51.5" font-family="Helvetica,sans-Serif" font-size="10.00">enter()</text>
<text text-anchor="start" x="546.5" y="-36.5" font-family="Helvetica,sans-Serif" font-size="10.00">+</text>
<text text-anchor="start" x="567.5" y="-36.5" font-family="Helvetica,sans-Serif" font-size="10.00">update()</text>
<text text-anchor="start" x="546.5" y="-21.5" font-family="Helvetica,sans-Serif" font-size="10.00">+</text>
<text text-anchor="start" x="567.5" y="-21.5" font-family="Helvetica,sans-Serif" font-size="10.00">exit()</text>
<text text-anchor="start" x="546.5" y="-6.5" font-family="Helvetica,sans-Serif" font-size="10.00">+</text>
<text text-anchor="start" x="567.5" y="-6.5" font-family="Helvetica,sans-Serif" font-size="10.00">instance()</text>
<polygon fill="#666666" stroke="#666666" points="534.5,-76.5 534.5,-76.5 637.5,-76.5 637.5,-76.5 534.5,-76.5"/>
<polygon fill="#666666" stroke="#666666" points="534.5,-61.5 534.5,-61.5 637.5,-61.5 637.5,-61.5 534.5,-61.5"/>
<polygon fill="none" stroke="#666666" points="534,0 534,-105 637,-105 637,0 534,0"/>
</a>
</g>
</g>
<!-- Node1&#45;&gt;Node7 -->
<g id="edge6_Node000001_Node000007" class="edge">
<title>Node1&#45;&gt;Node7</title>
<g id="a_edge6_Node000001_Node000007"><a xlink:title=" ">
<path fill="none" stroke="#63b8ff" d="M518.08,-136.25C526.57,-125.82 535.25,-115.18 543.43,-105.14"/>
<polygon fill="none" stroke="#63b8ff" points="515.23,-134.2 511.63,-144.16 520.66,-138.62 515.23,-134.2"/>
</a>
</g>
</g>
<!-- Node8 -->
<g id="Node000008" class="node">
<title>Node8</title>
<g id="a_Node000008"><a xlink:href="classLineFollowingState__TURN__RIGHT.html" target="_top" xlink:title="A special sub state of LineFollowing which preferes a right turn when following the line.">
<polygon fill="white" stroke="transparent" points="758,-105 655,-105 655,0 758,0 758,-105"/>
<text text-anchor="start" x="660.5" y="-92.5" font-family="Helvetica,sans-Serif" font-size="10.00">LineFollowingState</text>
<text text-anchor="start" x="672" y="-81.5" font-family="Helvetica,sans-Serif" font-size="10.00">_TURN_RIGHT</text>
<text text-anchor="start" x="705" y="-66.5" font-family="Helvetica,sans-Serif" font-size="10.00"> </text>
<text text-anchor="start" x="667.5" y="-51.5" font-family="Helvetica,sans-Serif" font-size="10.00">+</text>
<text text-anchor="start" x="688.5" y="-51.5" font-family="Helvetica,sans-Serif" font-size="10.00">enter()</text>
<text text-anchor="start" x="667.5" y="-36.5" font-family="Helvetica,sans-Serif" font-size="10.00">+</text>
<text text-anchor="start" x="688.5" y="-36.5" font-family="Helvetica,sans-Serif" font-size="10.00">update()</text>
<text text-anchor="start" x="667.5" y="-21.5" font-family="Helvetica,sans-Serif" font-size="10.00">+</text>
<text text-anchor="start" x="688.5" y="-21.5" font-family="Helvetica,sans-Serif" font-size="10.00">exit()</text>
<text text-anchor="start" x="667.5" y="-6.5" font-family="Helvetica,sans-Serif" font-size="10.00">+</text>
<text text-anchor="start" x="688.5" y="-6.5" font-family="Helvetica,sans-Serif" font-size="10.00">instance()</text>
<polygon fill="#666666" stroke="#666666" points="655.5,-76.5 655.5,-76.5 758.5,-76.5 758.5,-76.5 655.5,-76.5"/>
<polygon fill="#666666" stroke="#666666" points="655.5,-61.5 655.5,-61.5 758.5,-61.5 758.5,-61.5 655.5,-61.5"/>
<polygon fill="none" stroke="#666666" points="655,0 655,-105 758,-105 758,0 655,0"/>
</a>
</g>
</g>
<!-- Node1&#45;&gt;Node8 -->
<g id="edge7_Node000001_Node000008" class="edge">
<title>Node1&#45;&gt;Node8</title>
<g id="a_edge7_Node000001_Node000008"><a xlink:title=" ">
<path fill="none" stroke="#63b8ff" d="M520.87,-175.96C557.79,-157.95 606.44,-132.38 646.5,-105 649.22,-103.14 651.96,-101.18 654.69,-99.15"/>
<polygon fill="none" stroke="#63b8ff" points="519.23,-172.87 511.75,-180.37 522.28,-179.17 519.23,-172.87"/>
</a>
</g>
</g>
<!-- Node9 -->
<g id="Node000009" class="node">
<title>Node9</title>
<g id="a_Node000009"><a xlink:href="classObjectDetectedHandlerState.html" target="_top" xlink:title="This state is entered before the buggy goes into ObjectDetectedState. It is used to save the previous...">
<polygon fill="white" stroke="transparent" points="926.5,-99.5 776.5,-99.5 776.5,-5.5 926.5,-5.5 926.5,-99.5"/>
<text text-anchor="start" x="781.5" y="-87.5" font-family="Helvetica,sans-Serif" font-size="10.00">ObjectDetectedHandlerState</text>
<text text-anchor="start" x="849.5" y="-72.5" font-family="Helvetica,sans-Serif" font-size="10.00"> </text>
<text text-anchor="start" x="800.5" y="-57.5" font-family="Helvetica,sans-Serif" font-size="10.00">+</text>
<text text-anchor="start" x="833.5" y="-57.5" font-family="Helvetica,sans-Serif" font-size="10.00">enter()</text>
<text text-anchor="start" x="800.5" y="-42.5" font-family="Helvetica,sans-Serif" font-size="10.00">+</text>
<text text-anchor="start" x="833.5" y="-42.5" font-family="Helvetica,sans-Serif" font-size="10.00">update()</text>
<text text-anchor="start" x="800.5" y="-27.5" font-family="Helvetica,sans-Serif" font-size="10.00">+</text>
<text text-anchor="start" x="833.5" y="-27.5" font-family="Helvetica,sans-Serif" font-size="10.00">exit()</text>
<text text-anchor="start" x="800.5" y="-12.5" font-family="Helvetica,sans-Serif" font-size="10.00">+</text>
<text text-anchor="start" x="833.5" y="-12.5" font-family="Helvetica,sans-Serif" font-size="10.00">instance()</text>
<polygon fill="#666666" stroke="#666666" points="776.5,-82.5 776.5,-82.5 926.5,-82.5 926.5,-82.5 776.5,-82.5"/>
<polygon fill="#666666" stroke="#666666" points="776.5,-67.5 776.5,-67.5 926.5,-67.5 926.5,-67.5 776.5,-67.5"/>
<polygon fill="none" stroke="#666666" points="776.5,-5.5 776.5,-99.5 926.5,-99.5 926.5,-5.5 776.5,-5.5"/>
</a>
</g>
</g>
<!-- Node1&#45;&gt;Node9 -->
<g id="edge8_Node000001_Node000009" class="edge">
<title>Node1&#45;&gt;Node9</title>
<g id="a_edge8_Node000001_Node000009"><a xlink:title=" ">
<path fill="none" stroke="#63b8ff" d="M521.74,-188.08C583.83,-171.99 685.1,-142.78 767.5,-105 771.23,-103.29 775,-101.45 778.77,-99.51"/>
<polygon fill="none" stroke="#63b8ff" points="520.56,-184.77 511.74,-190.65 522.3,-191.55 520.56,-184.77"/>
</a>
</g>
</g>
<!-- Node10 -->
<g id="Node000010" class="node">
<title>Node10</title>
<g id="a_Node000010"><a xlink:href="classObjectDetectedState.html" target="_top" xlink:title="The state the Buggy enters when an object is detected during driving.">
<polygon fill="white" stroke="transparent" points="1056.5,-99.5 944.5,-99.5 944.5,-5.5 1056.5,-5.5 1056.5,-99.5"/>
<text text-anchor="start" x="949.5" y="-87.5" font-family="Helvetica,sans-Serif" font-size="10.00">ObjectDetectedState</text>
<text text-anchor="start" x="998.5" y="-72.5" font-family="Helvetica,sans-Serif" font-size="10.00"> </text>
<text text-anchor="start" x="959" y="-57.5" font-family="Helvetica,sans-Serif" font-size="10.00">+</text>
<text text-anchor="start" x="982.5" y="-57.5" font-family="Helvetica,sans-Serif" font-size="10.00">enter()</text>
<text text-anchor="start" x="959" y="-42.5" font-family="Helvetica,sans-Serif" font-size="10.00">+</text>
<text text-anchor="start" x="982.5" y="-42.5" font-family="Helvetica,sans-Serif" font-size="10.00">update()</text>
<text text-anchor="start" x="959" y="-27.5" font-family="Helvetica,sans-Serif" font-size="10.00">+</text>
<text text-anchor="start" x="982.5" y="-27.5" font-family="Helvetica,sans-Serif" font-size="10.00">exit()</text>
<text text-anchor="start" x="959" y="-12.5" font-family="Helvetica,sans-Serif" font-size="10.00">+</text>
<text text-anchor="start" x="982.5" y="-12.5" font-family="Helvetica,sans-Serif" font-size="10.00">instance()</text>
<polygon fill="#666666" stroke="#666666" points="944.5,-82.5 944.5,-82.5 1056.5,-82.5 1056.5,-82.5 944.5,-82.5"/>
<polygon fill="#666666" stroke="#666666" points="944.5,-67.5 944.5,-67.5 1056.5,-67.5 1056.5,-67.5 944.5,-67.5"/>
<polygon fill="none" stroke="#666666" points="944.5,-5.5 944.5,-99.5 1056.5,-99.5 1056.5,-5.5 944.5,-5.5"/>
</a>
</g>
</g>
<!-- Node1&#45;&gt;Node10 -->
<g id="edge9_Node000001_Node000010" class="edge">
<title>Node1&#45;&gt;Node10</title>
<g id="a_edge9_Node000001_Node000010"><a xlink:title=" ">
<path fill="none" stroke="#63b8ff" d="M521.69,-198.76C613.1,-191.74 795.99,-170.09 935.5,-105 938.89,-103.42 942.27,-101.62 945.59,-99.68"/>
<polygon fill="none" stroke="#63b8ff" points="521.26,-195.28 511.54,-199.5 521.77,-202.26 521.26,-195.28"/>
</a>
</g>
</g>
</g>
</svg>

<g id="navigator" transform="translate(0 0)" fill="#404254">
  <rect fill="#f2f5e9" fill-opacity="0.5" stroke="#606060" stroke-width=".5" x="0" y="0" width="60" height="60"/>
  <use id="zoomplus" xlink:href="#zoomPlus" x="17" y="9" onmousedown="handleZoom(evt,'in')"/>
  <use id="zoomminus" xlink:href="#zoomMin" x="42" y="9" onmousedown="handleZoom(evt,'out')"/>
  <use id="reset" xlink:href="#resetDef" x="30" y="36" onmousedown="handleReset()"/>
   <use id="arrowup" xlink:href="#arrowUp" x="0" y="0" onmousedown="handlePan(0,-1)"/>
  <use id="arrowright" xlink:href="#arrowRight" x="0" y="0" onmousedown="handlePan(1,0)"/>
  <use id="arrowdown" xlink:href="#arrowDown" x="0" y="0" onmousedown="handlePan(0,1)"/>
  <use id="arrowleft" xlink:href="#arrowLeft" x="0" y="0" onmousedown="handlePan(-1,0)"/>
</g>
<svg viewBox="0 0 15 15" width="100%" height="30px" preserveAspectRatio="xMaxYMin meet">
 <g id="arrow_out" transform="scale(0.3 0.3)">
  <a xlink:href="classBuggyState__inherit__graph_org.svg" target="_base">
   <rect id="button" ry="5" rx="5" y="6" x="6" height="38" width="38"
        fill="#f2f5e9" fill-opacity="0.5" stroke="#606060" stroke-width="1.0"/>
   <path id="arrow"
     d="M 11.500037,31.436501 C 11.940474,20.09759 22.043105,11.32322 32.158766,21.979434 L 37.068811,17.246167 C 37.068811,17.246167 37.088388,32 37.088388,32 L 22.160133,31.978069 C 22.160133,31.978069 26.997745,27.140456 26.997745,27.140456 C 18.528582,18.264221 13.291696,25.230495 11.500037,31.436501 z"
     style="fill:#404040;"/>
  </a>
 </g>
</svg>

<style type='text/css'>
<![CDATA[
[data-mouse-over-selected='false'] { opacity: 0.7; }
[data-mouse-over-selected='true']  { opacity: 1.0; }
]]>
</style>
<script type="application/ecmascript"><![CDATA[
document.addEventListener('DOMContentLoaded', (event) => {
  highlightEdges();
  highlightAdjacentNodes();
});
]]></script>
</svg>
