<?xml version="1.0" encoding="UTF-8" standalone="no"?>
<!DOCTYPE svg PUBLIC "-//W3C//DTD SVG 1.1//EN"
 "http://www.w3.org/Graphics/SVG/1.1/DTD/svg11.dtd">
<!-- Generated by graphviz version 2.43.0 (0)
 -->
<!-- Title: EmbeddedLogger::SerialWirelessLogger Pages: 1 -->
<svg width="332pt" height="294pt"
 viewBox="0.00 0.00 331.50 294.00" xmlns="http://www.w3.org/2000/svg" xmlns:xlink="http://www.w3.org/1999/xlink">

<svg id="main" version="1.1" xmlns="http://www.w3.org/2000/svg" xmlns:xlink="http://www.w3.org/1999/xlink" xml:space="preserve">

<style type="text/css"><![CDATA[
.node, .edge {opacity: 0.7;}
.node.selected, .edge.selected {opacity: 1;}
.edge:hover path { stroke: red; }
.edge:hover polygon { stroke: red; fill: red; }
]]></style>
<script type="application/ecmascript" xlink:href="svg.min.js"/>
<svg id="graph" class="graph">
<g id="graph0" class="graph" transform="scale(1 1) rotate(0) translate(4 290)">
<title>EmbeddedLogger::SerialWirelessLogger</title>
<!-- Node1 -->
<g id="Node000001" class="node">
<title>Node1</title>
<g id="a_Node000001"><a xlink:title=" ">
<polygon fill="#999999" stroke="transparent" points="251.5,-75 80.5,-75 80.5,0 251.5,0 251.5,-75"/>
<text text-anchor="start" x="86" y="-62.5" font-family="Helvetica,sans-Serif" font-size="10.00">EmbeddedLogger::SerialWireless</text>
<text text-anchor="start" x="149.5" y="-51.5" font-family="Helvetica,sans-Serif" font-size="10.00">Logger</text>
<text text-anchor="start" x="164.5" y="-36.5" font-family="Helvetica,sans-Serif" font-size="10.00"> </text>
<text text-anchor="start" x="94.5" y="-21.5" font-family="Helvetica,sans-Serif" font-size="10.00">+</text>
<text text-anchor="start" x="117" y="-21.5" font-family="Helvetica,sans-Serif" font-size="10.00">SerialWirelessLogger()</text>
<text text-anchor="start" x="94.5" y="-6.5" font-family="Helvetica,sans-Serif" font-size="10.00">+</text>
<text text-anchor="start" x="117" y="-6.5" font-family="Helvetica,sans-Serif" font-size="10.00">write()</text>
<polygon fill="#666666" stroke="#666666" points="81,-46.5 81,-46.5 252,-46.5 252,-46.5 81,-46.5"/>
<polygon fill="#666666" stroke="#666666" points="81,-31.5 81,-31.5 252,-31.5 252,-31.5 81,-31.5"/>
<polygon fill="none" stroke="#666666" points="80.5,0 80.5,-75 251.5,-75 251.5,0 80.5,0"/>
</a>
</g>
</g>
<!-- Node2 -->
<g id="Node000002" class="node">
<title>Node2</title>
<g id="a_Node000002"><a xlink:href="classEmbeddedLogger_1_1SerialLogger.html" target="_top" xlink:title=" ">
<polygon fill="white" stroke="transparent" points="162,-180.5 0,-180.5 0,-116.5 162,-116.5 162,-180.5"/>
<text text-anchor="start" x="5" y="-168.5" font-family="Helvetica,sans-Serif" font-size="10.00">EmbeddedLogger::SerialLogger</text>
<text text-anchor="start" x="79" y="-153.5" font-family="Helvetica,sans-Serif" font-size="10.00"> </text>
<text text-anchor="start" x="22" y="-138.5" font-family="Helvetica,sans-Serif" font-size="10.00">+</text>
<text text-anchor="start" x="53" y="-138.5" font-family="Helvetica,sans-Serif" font-size="10.00">SerialLogger()</text>
<text text-anchor="start" x="22" y="-123.5" font-family="Helvetica,sans-Serif" font-size="10.00">+</text>
<text text-anchor="start" x="53" y="-123.5" font-family="Helvetica,sans-Serif" font-size="10.00">write()</text>
<polygon fill="#bfbfbf" stroke="#bfbfbf" points="0,-163.5 0,-163.5 162,-163.5 162,-163.5 0,-163.5"/>
<polygon fill="#bfbfbf" stroke="#bfbfbf" points="0,-148.5 0,-148.5 162,-148.5 162,-148.5 0,-148.5"/>
<polygon fill="none" stroke="#bfbfbf" points="0,-116.5 0,-180.5 162,-180.5 162,-116.5 0,-116.5"/>
</a>
</g>
</g>
<!-- Node2&#45;&gt;Node1 -->
<g id="edge1_Node000001_Node000002" class="edge">
<title>Node2&#45;&gt;Node1</title>
<g id="a_edge1_Node000001_Node000002"><a xlink:title=" ">
<path fill="none" stroke="#63b8ff" d="M111.64,-108.21C120.05,-97.42 129.14,-85.77 137.43,-75.13"/>
<polygon fill="none" stroke="#63b8ff" points="108.75,-106.23 105.36,-116.26 114.27,-110.53 108.75,-106.23"/>
</a>
</g>
</g>
<!-- Node3 -->
<g id="Node000003" class="node">
<title>Node3</title>
<g id="a_Node000003"><a xlink:href="classEmbeddedLogger_1_1ILogTarget.html" target="_top" xlink:title=" ">
<polygon fill="white" stroke="transparent" points="242,-286 90,-286 90,-222 242,-222 242,-286"/>
<text text-anchor="start" x="95" y="-274" font-family="Helvetica,sans-Serif" font-size="10.00">EmbeddedLogger::ILogTarget</text>
<text text-anchor="start" x="164" y="-259" font-family="Helvetica,sans-Serif" font-size="10.00"> </text>
<text text-anchor="start" x="110" y="-244" font-family="Helvetica,sans-Serif" font-size="10.00">+</text>
<text text-anchor="start" x="139" y="-244" font-family="Helvetica,sans-Serif" font-size="10.00">write()</text>
<text text-anchor="start" x="110" y="-229" font-family="Helvetica,sans-Serif" font-size="10.00">+</text>
<text text-anchor="start" x="139" y="-229" font-family="Helvetica,sans-Serif" font-size="10.00">~ILogTarget()</text>
<polygon fill="#bfbfbf" stroke="#bfbfbf" points="90,-269 90,-269 242,-269 242,-269 90,-269"/>
<polygon fill="#bfbfbf" stroke="#bfbfbf" points="90,-254 90,-254 242,-254 242,-254 90,-254"/>
<polygon fill="none" stroke="#bfbfbf" points="90,-222 90,-286 242,-286 242,-222 90,-222"/>
</a>
</g>
</g>
<!-- Node3&#45;&gt;Node2 -->
<g id="edge2_Node000002_Node000003" class="edge">
<title>Node3&#45;&gt;Node2</title>
<g id="a_edge2_Node000002_Node000003"><a xlink:title=" ">
<path fill="none" stroke="#63b8ff" d="M134.02,-214.06C124.92,-202.98 115.14,-191.07 106.48,-180.53"/>
<polygon fill="none" stroke="#63b8ff" points="131.45,-216.44 140.5,-221.95 136.86,-212 131.45,-216.44"/>
</a>
</g>
</g>
<!-- Node4 -->
<g id="Node000004" class="node">
<title>Node4</title>
<g id="a_Node000004"><a xlink:href="classEmbeddedLogger_1_1WirelessLogger.html" target="_top" xlink:title=" ">
<polygon fill="white" stroke="transparent" points="323.5,-186 180.5,-186 180.5,-111 323.5,-111 323.5,-186"/>
<text text-anchor="start" x="186" y="-173.5" font-family="Helvetica,sans-Serif" font-size="10.00">EmbeddedLogger::Wireless</text>
<text text-anchor="start" x="235.5" y="-162.5" font-family="Helvetica,sans-Serif" font-size="10.00">Logger</text>
<text text-anchor="start" x="250.5" y="-147.5" font-family="Helvetica,sans-Serif" font-size="10.00"> </text>
<text text-anchor="start" x="194.5" y="-132.5" font-family="Helvetica,sans-Serif" font-size="10.00">+</text>
<text text-anchor="start" x="217" y="-132.5" font-family="Helvetica,sans-Serif" font-size="10.00">WirelessLogger()</text>
<text text-anchor="start" x="194.5" y="-117.5" font-family="Helvetica,sans-Serif" font-size="10.00">+</text>
<text text-anchor="start" x="217" y="-117.5" font-family="Helvetica,sans-Serif" font-size="10.00">write()</text>
<polygon fill="#bfbfbf" stroke="#bfbfbf" points="181,-157.5 181,-157.5 324,-157.5 324,-157.5 181,-157.5"/>
<polygon fill="#bfbfbf" stroke="#bfbfbf" points="181,-142.5 181,-142.5 324,-142.5 324,-142.5 181,-142.5"/>
<polygon fill="none" stroke="#bfbfbf" points="180.5,-111 180.5,-186 323.5,-186 323.5,-111 180.5,-111"/>
</a>
</g>
</g>
<!-- Node3&#45;&gt;Node4 -->
<g id="edge4_Node000004_Node000003" class="edge">
<title>Node3&#45;&gt;Node4</title>
<g id="a_edge4_Node000004_Node000003"><a xlink:title=" ">
<path fill="none" stroke="#63b8ff" d="M198.3,-214.13C205.85,-205.04 213.88,-195.37 221.37,-186.37"/>
<polygon fill="none" stroke="#63b8ff" points="195.5,-212.02 191.8,-221.95 200.89,-216.49 195.5,-212.02"/>
</a>
</g>
</g>
<!-- Node4&#45;&gt;Node1 -->
<g id="edge3_Node000001_Node000004" class="edge">
<title>Node4&#45;&gt;Node1</title>
<g id="a_edge3_Node000001_Node000004"><a xlink:title=" ">
<path fill="none" stroke="#63b8ff" d="M216.83,-102.93C209.56,-93.7 201.97,-84.09 194.95,-75.19"/>
<polygon fill="none" stroke="#63b8ff" points="214.18,-105.22 223.12,-110.9 219.68,-100.88 214.18,-105.22"/>
</a>
</g>
</g>
</g>
</svg>
</svg>

<style type='text/css'>
<![CDATA[
[data-mouse-over-selected='false'] { opacity: 0.7; }
[data-mouse-over-selected='true']  { opacity: 1.0; }
]]>
</style>
<script type="application/ecmascript"><![CDATA[
document.addEventListener('DOMContentLoaded', (event) => {
  highlightEdges();
  highlightAdjacentNodes();
});
]]></script>
</svg>
