<?xml version="1.0" encoding="UTF-8" standalone="no"?>
<!DOCTYPE svg PUBLIC "-//W3C//DTD SVG 1.1//EN"
 "http://www.w3.org/Graphics/SVG/1.1/DTD/svg11.dtd">
<!-- Generated by graphviz version 2.43.0 (0)
 -->
<!-- Title: BuggyState Pages: 1 -->
<svg width="438pt" height="232pt"
 viewBox="0.00 0.00 437.50 232.00" xmlns="http://www.w3.org/2000/svg" xmlns:xlink="http://www.w3.org/1999/xlink">
<g id="graph0" class="graph" transform="scale(1 1) rotate(0) translate(4 228)">
<title>BuggyState</title>
<!-- Node1 -->
<g id="Node000001" class="node">
<title>Node1</title>
<g id="a_Node000001"><a xlink:title="The Buggy State class is an abstract class that represents the abstract state the buggy can be in....">
<polygon fill="#999999" stroke="transparent" points="241.5,-224 147.5,-224 147.5,-130 241.5,-130 241.5,-224"/>
<text text-anchor="start" x="166" y="-212" font-family="Helvetica,sans-Serif" font-size="10.00">BuggyState</text>
<text text-anchor="start" x="192.5" y="-197" font-family="Helvetica,sans-Serif" font-size="10.00"> </text>
<text text-anchor="start" x="151.5" y="-182" font-family="Helvetica,sans-Serif" font-size="10.00">+</text>
<text text-anchor="start" x="164.5" y="-182" font-family="Helvetica,sans-Serif" font-size="10.00">enter()</text>
<text text-anchor="start" x="151.5" y="-167" font-family="Helvetica,sans-Serif" font-size="10.00">+</text>
<text text-anchor="start" x="164.5" y="-167" font-family="Helvetica,sans-Serif" font-size="10.00">update()</text>
<text text-anchor="start" x="151.5" y="-152" font-family="Helvetica,sans-Serif" font-size="10.00">+</text>
<text text-anchor="start" x="164.5" y="-152" font-family="Helvetica,sans-Serif" font-size="10.00">exit()</text>
<text text-anchor="start" x="151.5" y="-137" font-family="Helvetica,sans-Serif" font-size="10.00">+</text>
<text text-anchor="start" x="164.5" y="-137" font-family="Helvetica,sans-Serif" font-size="10.00">~BuggyState()</text>
<polygon fill="#666666" stroke="#666666" points="147.5,-207 147.5,-207 241.5,-207 241.5,-207 147.5,-207"/>
<polygon fill="#666666" stroke="#666666" points="147.5,-192 147.5,-192 241.5,-192 241.5,-192 147.5,-192"/>
<polygon fill="none" stroke="#666666" points="147.5,-130 147.5,-224 241.5,-224 241.5,-130 147.5,-130"/>
</a>
</g>
</g>
<!-- Node2 -->
<g id="Node000002" class="node">
<title>Node2</title>
<g id="a_Node000002"><a xlink:href="classCalibrationState.html" target="_top" xlink:title="The calibration state of the buggy is the first state it enters after being placed on the track....">
<polygon fill="white" stroke="transparent" points="89,-94 0,-94 0,0 89,0 89,-94"/>
<text text-anchor="start" x="5.5" y="-82" font-family="Helvetica,sans-Serif" font-size="10.00">CalibrationState</text>
<text text-anchor="start" x="43" y="-67" font-family="Helvetica,sans-Serif" font-size="10.00"> </text>
<text text-anchor="start" x="9" y="-52" font-family="Helvetica,sans-Serif" font-size="10.00">+</text>
<text text-anchor="start" x="26.5" y="-52" font-family="Helvetica,sans-Serif" font-size="10.00">enter()</text>
<text text-anchor="start" x="9" y="-37" font-family="Helvetica,sans-Serif" font-size="10.00">+</text>
<text text-anchor="start" x="26.5" y="-37" font-family="Helvetica,sans-Serif" font-size="10.00">update()</text>
<text text-anchor="start" x="9" y="-22" font-family="Helvetica,sans-Serif" font-size="10.00">+</text>
<text text-anchor="start" x="26.5" y="-22" font-family="Helvetica,sans-Serif" font-size="10.00">exit()</text>
<text text-anchor="start" x="9" y="-7" font-family="Helvetica,sans-Serif" font-size="10.00">+</text>
<text text-anchor="start" x="26.5" y="-7" font-family="Helvetica,sans-Serif" font-size="10.00">instance()</text>
<polygon fill="#666666" stroke="#666666" points="0.5,-77 0.5,-77 89.5,-77 89.5,-77 0.5,-77"/>
<polygon fill="#666666" stroke="#666666" points="0.5,-62 0.5,-62 89.5,-62 89.5,-62 0.5,-62"/>
<polygon fill="none" stroke="#666666" points="0,0 0,-94 89,-94 89,0 0,0"/>
</a>
</g>
</g>
<!-- Node1&#45;&gt;Node2 -->
<g id="edge1_Node000001_Node000002" class="edge">
<title>Node1&#45;&gt;Node2</title>
<g id="a_edge1_Node000001_Node000002"><a xlink:title=" ">
<path fill="none" stroke="#63b8ff" d="M139.44,-129.02C122.86,-114.87 104.89,-99.53 89.08,-86.04"/>
<polygon fill="none" stroke="#63b8ff" points="137.57,-132.02 147.45,-135.85 142.12,-126.7 137.57,-132.02"/>
</a>
</g>
</g>
<!-- Node3 -->
<g id="Node000003" class="node">
<title>Node3</title>
<g id="a_Node000003"><a xlink:href="classIdleState.html" target="_top" xlink:title="The idle state represents a state in which the buggy operates normaly but is not driving....">
<polygon fill="white" stroke="transparent" points="177.5,-94 107.5,-94 107.5,0 177.5,0 177.5,-94"/>
<text text-anchor="start" x="120.5" y="-82" font-family="Helvetica,sans-Serif" font-size="10.00">IdleState</text>
<text text-anchor="start" x="140.5" y="-67" font-family="Helvetica,sans-Serif" font-size="10.00"> </text>
<text text-anchor="start" x="111.5" y="-52" font-family="Helvetica,sans-Serif" font-size="10.00">+</text>
<text text-anchor="start" x="124.5" y="-52" font-family="Helvetica,sans-Serif" font-size="10.00">enter()</text>
<text text-anchor="start" x="111.5" y="-37" font-family="Helvetica,sans-Serif" font-size="10.00">+</text>
<text text-anchor="start" x="124.5" y="-37" font-family="Helvetica,sans-Serif" font-size="10.00">update()</text>
<text text-anchor="start" x="111.5" y="-22" font-family="Helvetica,sans-Serif" font-size="10.00">+</text>
<text text-anchor="start" x="124.5" y="-22" font-family="Helvetica,sans-Serif" font-size="10.00">exit()</text>
<text text-anchor="start" x="111.5" y="-7" font-family="Helvetica,sans-Serif" font-size="10.00">+</text>
<text text-anchor="start" x="124.5" y="-7" font-family="Helvetica,sans-Serif" font-size="10.00">instance()</text>
<polygon fill="#666666" stroke="#666666" points="107.5,-77 107.5,-77 177.5,-77 177.5,-77 107.5,-77"/>
<polygon fill="#666666" stroke="#666666" points="107.5,-62 107.5,-62 177.5,-62 177.5,-62 107.5,-62"/>
<polygon fill="none" stroke="#666666" points="107.5,0 107.5,-94 177.5,-94 177.5,0 107.5,0"/>
</a>
</g>
</g>
<!-- Node1&#45;&gt;Node3 -->
<g id="edge2_Node000001_Node000003" class="edge">
<title>Node1&#45;&gt;Node3</title>
<g id="a_edge2_Node000001_Node000003"><a xlink:title=" ">
<path fill="none" stroke="#63b8ff" d="M171.91,-120.4C168.35,-111.64 164.71,-102.66 161.25,-94.14"/>
<polygon fill="none" stroke="#63b8ff" points="168.72,-121.84 175.73,-129.79 175.21,-119.21 168.72,-121.84"/>
</a>
</g>
</g>
<!-- Node4 -->
<g id="Node000004" class="node">
<title>Node4</title>
<g id="a_Node000004"><a xlink:href="classLineFollowingState.html" target="_top" xlink:title="In the Line following state the buggy is trying to follow the line using the IR sensors....">
<polygon fill="white" stroke="transparent" points="299,-94 196,-94 196,0 299,0 299,-94"/>
<text text-anchor="start" x="201.5" y="-82" font-family="Helvetica,sans-Serif" font-size="10.00">LineFollowingState</text>
<text text-anchor="start" x="246" y="-67" font-family="Helvetica,sans-Serif" font-size="10.00"> </text>
<text text-anchor="start" x="208.5" y="-52" font-family="Helvetica,sans-Serif" font-size="10.00">+</text>
<text text-anchor="start" x="229.5" y="-52" font-family="Helvetica,sans-Serif" font-size="10.00">enter()</text>
<text text-anchor="start" x="208.5" y="-37" font-family="Helvetica,sans-Serif" font-size="10.00">+</text>
<text text-anchor="start" x="229.5" y="-37" font-family="Helvetica,sans-Serif" font-size="10.00">update()</text>
<text text-anchor="start" x="208.5" y="-22" font-family="Helvetica,sans-Serif" font-size="10.00">+</text>
<text text-anchor="start" x="229.5" y="-22" font-family="Helvetica,sans-Serif" font-size="10.00">exit()</text>
<text text-anchor="start" x="208.5" y="-7" font-family="Helvetica,sans-Serif" font-size="10.00">+</text>
<text text-anchor="start" x="229.5" y="-7" font-family="Helvetica,sans-Serif" font-size="10.00">instance()</text>
<polygon fill="#666666" stroke="#666666" points="196.5,-77 196.5,-77 299.5,-77 299.5,-77 196.5,-77"/>
<polygon fill="#666666" stroke="#666666" points="196.5,-62 196.5,-62 299.5,-62 299.5,-62 196.5,-62"/>
<polygon fill="none" stroke="#666666" points="196,0 196,-94 299,-94 299,0 196,0"/>
</a>
</g>
</g>
<!-- Node1&#45;&gt;Node4 -->
<g id="edge3_Node000001_Node000004" class="edge">
<title>Node1&#45;&gt;Node4</title>
<g id="a_edge3_Node000001_Node000004"><a xlink:title=" ">
<path fill="none" stroke="#63b8ff" d="M217.52,-120.4C221.15,-111.64 224.87,-102.66 228.39,-94.14"/>
<polygon fill="none" stroke="#63b8ff" points="214.23,-119.21 213.63,-129.79 220.69,-121.89 214.23,-119.21"/>
</a>
</g>
</g>
<!-- Node5 -->
<g id="Node000005" class="node">
<title>Node5</title>
<g id="a_Node000005"><a xlink:href="classObjectDetectedState.html" target="_top" xlink:title=" ">
<polygon fill="white" stroke="transparent" points="429.5,-94 317.5,-94 317.5,0 429.5,0 429.5,-94"/>
<text text-anchor="start" x="322.5" y="-82" font-family="Helvetica,sans-Serif" font-size="10.00">ObjectDetectedState</text>
<text text-anchor="start" x="371.5" y="-67" font-family="Helvetica,sans-Serif" font-size="10.00"> </text>
<text text-anchor="start" x="332" y="-52" font-family="Helvetica,sans-Serif" font-size="10.00">+</text>
<text text-anchor="start" x="355.5" y="-52" font-family="Helvetica,sans-Serif" font-size="10.00">enter()</text>
<text text-anchor="start" x="332" y="-37" font-family="Helvetica,sans-Serif" font-size="10.00">+</text>
<text text-anchor="start" x="355.5" y="-37" font-family="Helvetica,sans-Serif" font-size="10.00">update()</text>
<text text-anchor="start" x="332" y="-22" font-family="Helvetica,sans-Serif" font-size="10.00">+</text>
<text text-anchor="start" x="355.5" y="-22" font-family="Helvetica,sans-Serif" font-size="10.00">exit()</text>
<text text-anchor="start" x="332" y="-7" font-family="Helvetica,sans-Serif" font-size="10.00">+</text>
<text text-anchor="start" x="355.5" y="-7" font-family="Helvetica,sans-Serif" font-size="10.00">instance()</text>
<polygon fill="#bfbfbf" stroke="#bfbfbf" points="317.5,-77 317.5,-77 429.5,-77 429.5,-77 317.5,-77"/>
<polygon fill="#bfbfbf" stroke="#bfbfbf" points="317.5,-62 317.5,-62 429.5,-62 429.5,-62 317.5,-62"/>
<polygon fill="none" stroke="#bfbfbf" points="317.5,0 317.5,-94 429.5,-94 429.5,0 317.5,0"/>
</a>
</g>
</g>
<!-- Node1&#45;&gt;Node5 -->
<g id="edge4_Node000001_Node000005" class="edge">
<title>Node1&#45;&gt;Node5</title>
<g id="a_edge4_Node000001_Node000005"><a xlink:title=" ">
<path fill="none" stroke="#63b8ff" d="M249.88,-136.4C271.28,-121.1 295.75,-103.6 317.23,-88.24"/>
<polygon fill="none" stroke="#63b8ff" points="247.63,-133.71 241.53,-142.37 251.7,-139.4 247.63,-133.71"/>
</a>
</g>
</g>
</g>
</svg>
