<?xml version="1.0" encoding="UTF-8" standalone="no"?>
<!DOCTYPE svg PUBLIC "-//W3C//DTD SVG 1.1//EN"
 "http://www.w3.org/Graphics/SVG/1.1/DTD/svg11.dtd">
<!-- Generated by graphviz version 2.43.0 (0)
 -->
<!-- Title: DrivingStraightState Pages: 1 -->
<svg width="118pt" height="232pt"
 viewBox="0.00 0.00 118.00 232.00" xmlns="http://www.w3.org/2000/svg" xmlns:xlink="http://www.w3.org/1999/xlink">

<svg id="main" version="1.1" xmlns="http://www.w3.org/2000/svg" xmlns:xlink="http://www.w3.org/1999/xlink" xml:space="preserve">

<style type="text/css"><![CDATA[
.node, .edge {opacity: 0.7;}
.node.selected, .edge.selected {opacity: 1;}
.edge:hover path { stroke: red; }
.edge:hover polygon { stroke: red; fill: red; }
]]></style>
<script type="application/ecmascript" xlink:href="svg.min.js"/>
<svg id="graph" class="graph">
<g id="graph0" class="graph" transform="scale(1 1) rotate(0) translate(4 228)">
<title>DrivingStraightState</title>
<!-- Node1 -->
<g id="Node000001" class="node">
<title>Node1</title>
<g id="a_Node000001"><a xlink:title=" ">
<polygon fill="#999999" stroke="transparent" points="110,-94 0,-94 0,0 110,0 110,-94"/>
<text text-anchor="start" x="5" y="-82" font-family="Helvetica,sans-Serif" font-size="10.00">DrivingStraightState</text>
<text text-anchor="start" x="53" y="-67" font-family="Helvetica,sans-Serif" font-size="10.00"> </text>
<text text-anchor="start" x="14" y="-52" font-family="Helvetica,sans-Serif" font-size="10.00">+</text>
<text text-anchor="start" x="37" y="-52" font-family="Helvetica,sans-Serif" font-size="10.00">enter()</text>
<text text-anchor="start" x="14" y="-37" font-family="Helvetica,sans-Serif" font-size="10.00">+</text>
<text text-anchor="start" x="37" y="-37" font-family="Helvetica,sans-Serif" font-size="10.00">update()</text>
<text text-anchor="start" x="14" y="-22" font-family="Helvetica,sans-Serif" font-size="10.00">+</text>
<text text-anchor="start" x="37" y="-22" font-family="Helvetica,sans-Serif" font-size="10.00">exit()</text>
<text text-anchor="start" x="14" y="-7" font-family="Helvetica,sans-Serif" font-size="10.00">+</text>
<text text-anchor="start" x="37" y="-7" font-family="Helvetica,sans-Serif" font-size="10.00">instance()</text>
<polygon fill="#666666" stroke="#666666" points="0,-77 0,-77 110,-77 110,-77 0,-77"/>
<polygon fill="#666666" stroke="#666666" points="0,-62 0,-62 110,-62 110,-62 0,-62"/>
<polygon fill="none" stroke="#666666" points="0,0 0,-94 110,-94 110,0 0,0"/>
</a>
</g>
</g>
<!-- Node2 -->
<g id="Node000002" class="node">
<title>Node2</title>
<g id="a_Node000002"><a xlink:href="classBuggyState.html" target="_top" xlink:title="The Buggy State class is an abstract class that represents the abstract state the buggy can be in.">
<polygon fill="white" stroke="transparent" points="102,-224 8,-224 8,-130 102,-130 102,-224"/>
<text text-anchor="start" x="26.5" y="-212" font-family="Helvetica,sans-Serif" font-size="10.00">BuggyState</text>
<text text-anchor="start" x="53" y="-197" font-family="Helvetica,sans-Serif" font-size="10.00"> </text>
<text text-anchor="start" x="12" y="-182" font-family="Helvetica,sans-Serif" font-size="10.00">+</text>
<text text-anchor="start" x="25" y="-182" font-family="Helvetica,sans-Serif" font-size="10.00">enter()</text>
<text text-anchor="start" x="12" y="-167" font-family="Helvetica,sans-Serif" font-size="10.00">+</text>
<text text-anchor="start" x="25" y="-167" font-family="Helvetica,sans-Serif" font-size="10.00">update()</text>
<text text-anchor="start" x="12" y="-152" font-family="Helvetica,sans-Serif" font-size="10.00">+</text>
<text text-anchor="start" x="25" y="-152" font-family="Helvetica,sans-Serif" font-size="10.00">exit()</text>
<text text-anchor="start" x="12" y="-137" font-family="Helvetica,sans-Serif" font-size="10.00">+</text>
<text text-anchor="start" x="25" y="-137" font-family="Helvetica,sans-Serif" font-size="10.00">~BuggyState()</text>
<polygon fill="#666666" stroke="#666666" points="8,-207 8,-207 102,-207 102,-207 8,-207"/>
<polygon fill="#666666" stroke="#666666" points="8,-192 8,-192 102,-192 102,-192 8,-192"/>
<polygon fill="none" stroke="#666666" points="8,-130 8,-224 102,-224 102,-130 8,-130"/>
</a>
</g>
</g>
<!-- Node2&#45;&gt;Node1 -->
<g id="edge1_Node000001_Node000002" class="edge">
<title>Node2&#45;&gt;Node1</title>
<g id="a_edge1_Node000001_Node000002"><a xlink:title=" ">
<path fill="none" stroke="#63b8ff" d="M55,-119.56C55,-111.06 55,-102.39 55,-94.14"/>
<polygon fill="none" stroke="#63b8ff" points="51.5,-119.79 55,-129.79 58.5,-119.79 51.5,-119.79"/>
</a>
</g>
</g>
</g>
</svg>
</svg>

<style type='text/css'>
<![CDATA[
[data-mouse-over-selected='false'] { opacity: 0.7; }
[data-mouse-over-selected='true']  { opacity: 1.0; }
]]>
</style>
<script type="application/ecmascript"><![CDATA[
document.addEventListener('DOMContentLoaded', (event) => {
  highlightEdges();
  highlightAdjacentNodes();
});
]]></script>
</svg>
