<?xml version="1.0" encoding="UTF-8" standalone="no"?>
<!DOCTYPE svg PUBLIC "-//W3C//DTD SVG 1.1//EN"
 "http://www.w3.org/Graphics/SVG/1.1/DTD/svg11.dtd">
<!-- Generated by graphviz version 2.43.0 (0)
 -->
<!-- Title: Buggy::update Pages: 1 -->
<svg width="569pt" height="64pt"
 viewBox="0.00 0.00 569.00 64.00" xmlns="http://www.w3.org/2000/svg" xmlns:xlink="http://www.w3.org/1999/xlink">
<g id="graph0" class="graph" transform="scale(1 1) rotate(0) translate(4 60)">
<title>Buggy::update</title>
<!-- Node1 -->
<g id="Node000001" class="node">
<title>Node1</title>
<g id="a_Node000001"><a xlink:title="update is called during every loop. This calls the state machine update to update whatever state the ...">
<polygon fill="#999999" stroke="#666666" points="86,-37 0,-37 0,-18 86,-18 86,-37"/>
<text text-anchor="middle" x="43" y="-25" font-family="Helvetica,sans-Serif" font-size="10.00">Buggy::update</text>
</a>
</g>
</g>
<!-- Node2 -->
<g id="Node000002" class="node">
<title>Node2</title>
<g id="a_Node000002"><a xlink:href="classBuggy.html#a5ecfce732e816d7e6087ce5e04c1e4cf" target="_top" xlink:title="handles an incoming packet in the context of the buggy.">
<polygon fill="white" stroke="#666666" points="249.5,-56 132.5,-56 132.5,-37 249.5,-37 249.5,-56"/>
<text text-anchor="middle" x="191" y="-44" font-family="Helvetica,sans-Serif" font-size="10.00">Buggy::handlePacket</text>
</a>
</g>
</g>
<!-- Node1&#45;&gt;Node2 -->
<g id="edge1_Node000001_Node000002" class="edge">
<title>Node1&#45;&gt;Node2</title>
<g id="a_edge1_Node000001_Node000002"><a xlink:title=" ">
<path fill="none" stroke="#63b8ff" d="M86.23,-33C97.48,-34.46 109.92,-36.08 122.17,-37.67"/>
<polygon fill="#63b8ff" stroke="#63b8ff" points="122.02,-41.18 132.39,-39 122.92,-34.24 122.02,-41.18"/>
</a>
</g>
</g>
<!-- Node5 -->
<g id="Node000005" class="node">
<title>Node5</title>
<g id="a_Node000005"><a xlink:href="classBuggy.html#a69ac0c77c795b4a80addeaa4dada009e" target="_top" xlink:title="Sends a status packet to the ground station.">
<polygon fill="white" stroke="#666666" points="260,-19 122,-19 122,0 260,0 260,-19"/>
<text text-anchor="middle" x="191" y="-7" font-family="Helvetica,sans-Serif" font-size="10.00">Buggy::sendStatusPacket</text>
</a>
</g>
</g>
<!-- Node1&#45;&gt;Node5 -->
<g id="edge4_Node000001_Node000005" class="edge">
<title>Node1&#45;&gt;Node5</title>
<g id="a_edge4_Node000001_Node000005"><a xlink:title=" ">
<path fill="none" stroke="#63b8ff" d="M86.23,-22.29C94.31,-21.3 103,-20.23 111.79,-19.14"/>
<polygon fill="#63b8ff" stroke="#63b8ff" points="112.24,-22.61 121.74,-17.92 111.38,-15.67 112.24,-22.61"/>
</a>
</g>
</g>
<!-- Node3 -->
<g id="Node000003" class="node">
<title>Node3</title>
<g id="a_Node000003"><a xlink:href="classBuggy.html#a1207f60e091c8934c31dc04d05da715c" target="_top" xlink:title="decodes the CommandPacket and applies the command to the buggy.">
<polygon fill="white" stroke="#666666" points="432,-56 296,-56 296,-37 432,-37 432,-56"/>
<text text-anchor="middle" x="364" y="-44" font-family="Helvetica,sans-Serif" font-size="10.00">Buggy::handleCommand</text>
</a>
</g>
</g>
<!-- Node2&#45;&gt;Node3 -->
<g id="edge2_Node000002_Node000003" class="edge">
<title>Node2&#45;&gt;Node3</title>
<g id="a_edge2_Node000002_Node000003"><a xlink:title=" ">
<path fill="none" stroke="#63b8ff" d="M249.89,-46.5C261.4,-46.5 273.65,-46.5 285.69,-46.5"/>
<polygon fill="#63b8ff" stroke="#63b8ff" points="285.72,-50 295.72,-46.5 285.72,-43 285.72,-50"/>
</a>
</g>
</g>
<!-- Node4 -->
<g id="Node000004" class="node">
<title>Node4</title>
<g id="a_Node000004"><a xlink:href="classBuggy.html#a6ec6b72a75e112f777e8c6754a70012b" target="_top" xlink:title="Changes the state of the buggy. This will call the necessary exit and enter methods of the state.">
<polygon fill="white" stroke="#666666" points="561,-56 468,-56 468,-37 561,-37 561,-56"/>
<text text-anchor="middle" x="514.5" y="-44" font-family="Helvetica,sans-Serif" font-size="10.00">Buggy::setState</text>
</a>
</g>
</g>
<!-- Node3&#45;&gt;Node4 -->
<g id="edge3_Node000003_Node000004" class="edge">
<title>Node3&#45;&gt;Node4</title>
<g id="a_edge3_Node000003_Node000004"><a xlink:title=" ">
<path fill="none" stroke="#63b8ff" d="M432.3,-46.5C440.72,-46.5 449.25,-46.5 457.47,-46.5"/>
<polygon fill="#63b8ff" stroke="#63b8ff" points="457.68,-50 467.68,-46.5 457.68,-43 457.68,-50"/>
</a>
</g>
</g>
</g>
</svg>
