<?xml version="1.0" encoding="UTF-8" standalone="no"?>
<!DOCTYPE svg PUBLIC "-//W3C//DTD SVG 1.1//EN"
 "http://www.w3.org/Graphics/SVG/1.1/DTD/svg11.dtd">
<!-- Generated by graphviz version 2.43.0 (0)
 -->
<!-- Title: Buggy::update Pages: 1 -->
<svg width="583pt" height="76pt"
 viewBox="0.00 0.00 583.00 75.50" xmlns="http://www.w3.org/2000/svg" xmlns:xlink="http://www.w3.org/1999/xlink">
<g id="graph0" class="graph" transform="scale(1 1) rotate(0) translate(4 71.5)">
<title>Buggy::update</title>
<!-- Node1 -->
<g id="Node000001" class="node">
<title>Node1</title>
<g id="a_Node000001"><a xlink:title="update is called during every loop. This calls the state machine update to update whatever state the ...">
<polygon fill="#999999" stroke="#666666" points="86,-45.5 0,-45.5 0,-26.5 86,-26.5 86,-45.5"/>
<text text-anchor="middle" x="43" y="-33.5" font-family="Helvetica,sans-Serif" font-size="10.00">Buggy::update</text>
</a>
</g>
</g>
<!-- Node2 -->
<g id="Node000002" class="node">
<title>Node2</title>
<g id="a_Node000002"><a xlink:href="classBuggy.html#a5ecfce732e816d7e6087ce5e04c1e4cf" target="_top" xlink:title="handles an incoming packet in the context of the buggy.">
<polygon fill="white" stroke="#666666" points="249.5,-65.5 132.5,-65.5 132.5,-46.5 249.5,-46.5 249.5,-65.5"/>
<text text-anchor="middle" x="191" y="-53.5" font-family="Helvetica,sans-Serif" font-size="10.00">Buggy::handlePacket</text>
</a>
</g>
</g>
<!-- Node1&#45;&gt;Node2 -->
<g id="edge1_Node000001_Node000002" class="edge">
<title>Node1&#45;&gt;Node2</title>
<g id="a_edge1_Node000001_Node000002"><a xlink:title=" ">
<path fill="none" stroke="#63b8ff" d="M86.23,-41.78C97.48,-43.33 109.92,-45.03 122.17,-46.71"/>
<polygon fill="#63b8ff" stroke="#63b8ff" points="122,-50.22 132.39,-48.11 122.95,-43.28 122,-50.22"/>
</a>
</g>
</g>
<!-- Node5 -->
<g id="Node000005" class="node">
<title>Node5</title>
<g id="a_Node000005"><a xlink:href="classBuggy.html#a69ac0c77c795b4a80addeaa4dada009e" target="_top" xlink:title="Sends a status packet to the ground station.">
<polygon fill="white" stroke="#666666" points="260,-27.5 122,-27.5 122,-8.5 260,-8.5 260,-27.5"/>
<text text-anchor="middle" x="191" y="-15.5" font-family="Helvetica,sans-Serif" font-size="10.00">Buggy::sendStatusPacket</text>
</a>
</g>
</g>
<!-- Node1&#45;&gt;Node5 -->
<g id="edge4_Node000001_Node000005" class="edge">
<title>Node1&#45;&gt;Node5</title>
<g id="a_edge4_Node000001_Node000005"><a xlink:title=" ">
<path fill="none" stroke="#63b8ff" d="M86.23,-30.79C94.31,-29.8 103,-28.73 111.79,-27.64"/>
<polygon fill="#63b8ff" stroke="#63b8ff" points="112.24,-31.11 121.74,-26.42 111.38,-24.17 112.24,-31.11"/>
</a>
</g>
</g>
<!-- Node3 -->
<g id="Node000003" class="node">
<title>Node3</title>
<g id="a_Node000003"><a xlink:href="classBuggy.html#a1207f60e091c8934c31dc04d05da715c" target="_top" xlink:title="decodes the CommandPacket and applies the command to the buggy.">
<polygon fill="white" stroke="#666666" points="439,-67.5 303,-67.5 303,-48.5 439,-48.5 439,-67.5"/>
<text text-anchor="middle" x="371" y="-55.5" font-family="Helvetica,sans-Serif" font-size="10.00">Buggy::handleCommand</text>
</a>
</g>
</g>
<!-- Node2&#45;&gt;Node3 -->
<g id="edge2_Node000002_Node000003" class="edge">
<title>Node2&#45;&gt;Node3</title>
<g id="a_edge2_Node000002_Node000003"><a xlink:title=" ">
<path fill="none" stroke="#63b8ff" d="M249.79,-56.65C263.43,-56.8 278.19,-56.97 292.55,-57.13"/>
<polygon fill="#63b8ff" stroke="#63b8ff" points="292.87,-60.63 302.91,-57.25 292.95,-53.63 292.87,-60.63"/>
</a>
</g>
</g>
<!-- Node4 -->
<g id="Node000004" class="node">
<title>Node4</title>
<g id="a_Node000004"><a xlink:href="classBuggy.html#a6ec6b72a75e112f777e8c6754a70012b" target="_top" xlink:title="Changes the state of the buggy. This will call the necessary exit and enter methods of the state.">
<polygon fill="white" stroke="#666666" points="575,-67.5 482,-67.5 482,-48.5 575,-48.5 575,-67.5"/>
<text text-anchor="middle" x="528.5" y="-55.5" font-family="Helvetica,sans-Serif" font-size="10.00">Buggy::setState</text>
</a>
</g>
</g>
<!-- Node3&#45;&gt;Node4 -->
<g id="edge3_Node000003_Node000004" class="edge">
<title>Node3&#45;&gt;Node4</title>
<g id="a_edge3_Node000003_Node000004"><a xlink:title=" ">
<path fill="none" stroke="#63b8ff" d="M439.3,-58C450.01,-58 460.99,-58 471.41,-58"/>
<polygon fill="#63b8ff" stroke="#63b8ff" points="471.61,-61.5 481.61,-58 471.61,-54.5 471.61,-61.5"/>
</a>
</g>
</g>
<!-- Node6 -->
<g id="Node000006" class="node">
<title>Node6</title>
<g id="a_Node000006"><a xlink:href="classPacketFactory.html#a27759b44a17b7c9550541de15dac7016" target="_top" xlink:title="Creates a status packet containing sensor and motor data.">
<polygon fill="white" stroke="#666666" points="446,-30 296,-30 296,0 446,0 446,-30"/>
<text text-anchor="start" x="304" y="-18" font-family="Helvetica,sans-Serif" font-size="10.00">PacketFactory::createStatus</text>
<text text-anchor="middle" x="371" y="-7" font-family="Helvetica,sans-Serif" font-size="10.00">Packet</text>
</a>
</g>
</g>
<!-- Node5&#45;&gt;Node6 -->
<g id="edge5_Node000005_Node000006" class="edge">
<title>Node5&#45;&gt;Node6</title>
<g id="a_edge5_Node000005_Node000006"><a xlink:title=" ">
<path fill="none" stroke="#63b8ff" d="M260.06,-16.85C268.45,-16.71 277.11,-16.57 285.71,-16.42"/>
<polygon fill="#63b8ff" stroke="#63b8ff" points="285.82,-19.92 295.76,-16.25 285.7,-12.92 285.82,-19.92"/>
</a>
</g>
</g>
</g>
</svg>
