<?xml version="1.0" encoding="UTF-8" standalone="no"?>
<!DOCTYPE svg PUBLIC "-//W3C//DTD SVG 1.1//EN"
 "http://www.w3.org/Graphics/SVG/1.1/DTD/svg11.dtd">
<!-- Generated by graphviz version 2.43.0 (0)
 -->
<!-- Title: Buggy::update Pages: 1 -->
<svg width="585pt" height="113pt"
 viewBox="0.00 0.00 585.00 112.50" xmlns="http://www.w3.org/2000/svg" xmlns:xlink="http://www.w3.org/1999/xlink">
<g id="graph0" class="graph" transform="scale(1 1) rotate(0) translate(4 108.5)">
<title>Buggy::update</title>
<!-- Node1 -->
<g id="Node000001" class="node">
<title>Node1</title>
<g id="a_Node000001"><a xlink:title="update is called during every loop. This calls the state machine update to update whatever state the ...">
<polygon fill="#999999" stroke="#666666" points="86,-45.5 0,-45.5 0,-26.5 86,-26.5 86,-45.5"/>
<text text-anchor="middle" x="43" y="-33.5" font-family="Helvetica,sans-Serif" font-size="10.00">Buggy::update</text>
</a>
</g>
</g>
<!-- Node2 -->
<g id="Node000002" class="node">
<title>Node2</title>
<g id="a_Node000002"><a xlink:href="classBuggy.html#a5ecfce732e816d7e6087ce5e04c1e4cf" target="_top" xlink:title="handles an incoming packet in the context of the buggy.">
<polygon fill="white" stroke="#666666" points="249.5,-67.5 132.5,-67.5 132.5,-48.5 249.5,-48.5 249.5,-67.5"/>
<text text-anchor="middle" x="191" y="-55.5" font-family="Helvetica,sans-Serif" font-size="10.00">Buggy::handlePacket</text>
</a>
</g>
</g>
<!-- Node1&#45;&gt;Node2 -->
<g id="edge1_Node000001_Node000002" class="edge">
<title>Node1&#45;&gt;Node2</title>
<g id="a_edge1_Node000001_Node000002"><a xlink:title=" ">
<path fill="none" stroke="#63b8ff" d="M86.23,-42.36C97.48,-44.06 109.92,-45.93 122.17,-47.78"/>
<polygon fill="#63b8ff" stroke="#63b8ff" points="121.98,-51.29 132.39,-49.32 123.02,-44.37 121.98,-51.29"/>
</a>
</g>
</g>
<!-- Node6 -->
<g id="Node000006" class="node">
<title>Node6</title>
<g id="a_Node000006"><a xlink:href="classBuggy.html#a69ac0c77c795b4a80addeaa4dada009e" target="_top" xlink:title="Sends a status packet to the ground station.">
<polygon fill="white" stroke="#666666" points="260,-27.5 122,-27.5 122,-8.5 260,-8.5 260,-27.5"/>
<text text-anchor="middle" x="191" y="-15.5" font-family="Helvetica,sans-Serif" font-size="10.00">Buggy::sendStatusPacket</text>
</a>
</g>
</g>
<!-- Node1&#45;&gt;Node6 -->
<g id="edge5_Node000001_Node000006" class="edge">
<title>Node1&#45;&gt;Node6</title>
<g id="a_edge5_Node000001_Node000006"><a xlink:title=" ">
<path fill="none" stroke="#63b8ff" d="M86.23,-30.79C94.31,-29.8 103,-28.73 111.79,-27.64"/>
<polygon fill="#63b8ff" stroke="#63b8ff" points="112.24,-31.11 121.74,-26.42 111.38,-24.17 112.24,-31.11"/>
</a>
</g>
</g>
<!-- Node3 -->
<g id="Node000003" class="node">
<title>Node3</title>
<g id="a_Node000003"><a xlink:href="classBuggy.html#a1207f60e091c8934c31dc04d05da715c" target="_top" xlink:title="decodes the CommandPacket and applies the command to the buggy.">
<polygon fill="white" stroke="#666666" points="440,-104.5 304,-104.5 304,-85.5 440,-85.5 440,-104.5"/>
<text text-anchor="middle" x="372" y="-92.5" font-family="Helvetica,sans-Serif" font-size="10.00">Buggy::handleCommand</text>
</a>
</g>
</g>
<!-- Node2&#45;&gt;Node3 -->
<g id="edge2_Node000002_Node000003" class="edge">
<title>Node2&#45;&gt;Node3</title>
<g id="a_edge2_Node000002_Node000003"><a xlink:title=" ">
<path fill="none" stroke="#63b8ff" d="M238.1,-67.53C261.5,-72.36 290.12,-78.28 314.8,-83.38"/>
<polygon fill="#63b8ff" stroke="#63b8ff" points="314.25,-86.84 324.75,-85.44 315.66,-79.99 314.25,-86.84"/>
</a>
</g>
</g>
<!-- Node5 -->
<g id="Node000005" class="node">
<title>Node5</title>
<g id="a_Node000005"><a xlink:href="classBuggy.html#a4d76df8fa8e6229177dbd4a306cbbe5b" target="_top" xlink:title="handles the control packet for remote controlling the buggy">
<polygon fill="white" stroke="#666666" points="448,-67.5 296,-67.5 296,-48.5 448,-48.5 448,-67.5"/>
<text text-anchor="middle" x="372" y="-55.5" font-family="Helvetica,sans-Serif" font-size="10.00">Buggy::handleControlPacket</text>
</a>
</g>
</g>
<!-- Node2&#45;&gt;Node5 -->
<g id="edge4_Node000002_Node000005" class="edge">
<title>Node2&#45;&gt;Node5</title>
<g id="a_edge4_Node000002_Node000005"><a xlink:title=" ">
<path fill="none" stroke="#63b8ff" d="M249.62,-58C261.12,-58 273.42,-58 285.63,-58"/>
<polygon fill="#63b8ff" stroke="#63b8ff" points="285.83,-61.5 295.83,-58 285.83,-54.5 285.83,-61.5"/>
</a>
</g>
</g>
<!-- Node4 -->
<g id="Node000004" class="node">
<title>Node4</title>
<g id="a_Node000004"><a xlink:href="classBuggy.html#a6ec6b72a75e112f777e8c6754a70012b" target="_top" xlink:title="Changes the state of the buggy. This will call the necessary exit and enter methods of the state.">
<polygon fill="white" stroke="#666666" points="577,-104.5 484,-104.5 484,-85.5 577,-85.5 577,-104.5"/>
<text text-anchor="middle" x="530.5" y="-92.5" font-family="Helvetica,sans-Serif" font-size="10.00">Buggy::setState</text>
</a>
</g>
</g>
<!-- Node3&#45;&gt;Node4 -->
<g id="edge3_Node000003_Node000004" class="edge">
<title>Node3&#45;&gt;Node4</title>
<g id="a_edge3_Node000003_Node000004"><a xlink:title=" ">
<path fill="none" stroke="#63b8ff" d="M440.28,-95C451.45,-95 462.93,-95 473.78,-95"/>
<polygon fill="#63b8ff" stroke="#63b8ff" points="473.96,-98.5 483.96,-95 473.96,-91.5 473.96,-98.5"/>
</a>
</g>
</g>
<!-- Node7 -->
<g id="Node000007" class="node">
<title>Node7</title>
<g id="a_Node000007"><a xlink:href="classPacketFactory.html#a27759b44a17b7c9550541de15dac7016" target="_top" xlink:title="Creates a status packet containing sensor and motor data.">
<polygon fill="white" stroke="#666666" points="447,-30 297,-30 297,0 447,0 447,-30"/>
<text text-anchor="start" x="305" y="-18" font-family="Helvetica,sans-Serif" font-size="10.00">PacketFactory::createStatus</text>
<text text-anchor="middle" x="372" y="-7" font-family="Helvetica,sans-Serif" font-size="10.00">Packet</text>
</a>
</g>
</g>
<!-- Node6&#45;&gt;Node7 -->
<g id="edge6_Node000006_Node000007" class="edge">
<title>Node6&#45;&gt;Node7</title>
<g id="a_edge6_Node000006_Node000007"><a xlink:title=" ">
<path fill="none" stroke="#63b8ff" d="M260.18,-16.86C268.87,-16.71 277.84,-16.56 286.74,-16.41"/>
<polygon fill="#63b8ff" stroke="#63b8ff" points="286.8,-19.91 296.74,-16.24 286.68,-12.91 286.8,-19.91"/>
</a>
</g>
</g>
</g>
</svg>
