<?xml version="1.0" encoding="UTF-8" standalone="no"?>
<!DOCTYPE svg PUBLIC "-//W3C//DTD SVG 1.1//EN"
 "http://www.w3.org/Graphics/SVG/1.1/DTD/svg11.dtd">
<!-- Generated by graphviz version 2.43.0 (0)
 -->
<!-- Title: EmbeddedLogger::WirelessLogger Pages: 1 -->
<svg width="179pt" height="294pt"
 viewBox="0.00 0.00 179.00 294.00" xmlns="http://www.w3.org/2000/svg" xmlns:xlink="http://www.w3.org/1999/xlink">
<g id="graph0" class="graph" transform="scale(1 1) rotate(0) translate(4 290)">
<title>EmbeddedLogger::WirelessLogger</title>
<!-- Node1 -->
<g id="Node000001" class="node">
<title>Node1</title>
<g id="a_Node000001"><a xlink:title=" ">
<polygon fill="#999999" stroke="transparent" points="157,-186 14,-186 14,-111 157,-111 157,-186"/>
<text text-anchor="start" x="19.5" y="-173.5" font-family="Helvetica,sans-Serif" font-size="10.00">EmbeddedLogger::Wireless</text>
<text text-anchor="start" x="69" y="-162.5" font-family="Helvetica,sans-Serif" font-size="10.00">Logger</text>
<text text-anchor="start" x="84" y="-147.5" font-family="Helvetica,sans-Serif" font-size="10.00"> </text>
<text text-anchor="start" x="28" y="-132.5" font-family="Helvetica,sans-Serif" font-size="10.00">+</text>
<text text-anchor="start" x="50.5" y="-132.5" font-family="Helvetica,sans-Serif" font-size="10.00">WirelessLogger()</text>
<text text-anchor="start" x="28" y="-117.5" font-family="Helvetica,sans-Serif" font-size="10.00">+</text>
<text text-anchor="start" x="50.5" y="-117.5" font-family="Helvetica,sans-Serif" font-size="10.00">write()</text>
<polygon fill="#666666" stroke="#666666" points="14.5,-157.5 14.5,-157.5 157.5,-157.5 157.5,-157.5 14.5,-157.5"/>
<polygon fill="#666666" stroke="#666666" points="14.5,-142.5 14.5,-142.5 157.5,-142.5 157.5,-142.5 14.5,-142.5"/>
<polygon fill="none" stroke="#666666" points="14,-111 14,-186 157,-186 157,-111 14,-111"/>
</a>
</g>
</g>
<!-- Node3 -->
<g id="Node000003" class="node">
<title>Node3</title>
<g id="a_Node000003"><a xlink:href="classEmbeddedLogger_1_1SerialWirelessLogger.html" target="_top" xlink:title=" ">
<polygon fill="white" stroke="transparent" points="171,-75 0,-75 0,0 171,0 171,-75"/>
<text text-anchor="start" x="5.5" y="-62.5" font-family="Helvetica,sans-Serif" font-size="10.00">EmbeddedLogger::SerialWireless</text>
<text text-anchor="start" x="69" y="-51.5" font-family="Helvetica,sans-Serif" font-size="10.00">Logger</text>
<text text-anchor="start" x="84" y="-36.5" font-family="Helvetica,sans-Serif" font-size="10.00"> </text>
<text text-anchor="start" x="14" y="-21.5" font-family="Helvetica,sans-Serif" font-size="10.00">+</text>
<text text-anchor="start" x="36.5" y="-21.5" font-family="Helvetica,sans-Serif" font-size="10.00">SerialWirelessLogger()</text>
<text text-anchor="start" x="14" y="-6.5" font-family="Helvetica,sans-Serif" font-size="10.00">+</text>
<text text-anchor="start" x="36.5" y="-6.5" font-family="Helvetica,sans-Serif" font-size="10.00">write()</text>
<polygon fill="#bfbfbf" stroke="#bfbfbf" points="0.5,-46.5 0.5,-46.5 171.5,-46.5 171.5,-46.5 0.5,-46.5"/>
<polygon fill="#bfbfbf" stroke="#bfbfbf" points="0.5,-31.5 0.5,-31.5 171.5,-31.5 171.5,-31.5 0.5,-31.5"/>
<polygon fill="none" stroke="#bfbfbf" points="0,0 0,-75 171,-75 171,0 0,0"/>
</a>
</g>
</g>
<!-- Node1&#45;&gt;Node3 -->
<g id="edge2_Node000001_Node000003" class="edge">
<title>Node1&#45;&gt;Node3</title>
<g id="a_edge2_Node000001_Node000003"><a xlink:title=" ">
<path fill="none" stroke="#63b8ff" d="M85.5,-100.68C85.5,-92.15 85.5,-83.37 85.5,-75.19"/>
<polygon fill="none" stroke="#63b8ff" points="82,-100.9 85.5,-110.9 89,-100.9 82,-100.9"/>
</a>
</g>
</g>
<!-- Node2 -->
<g id="Node000002" class="node">
<title>Node2</title>
<g id="a_Node000002"><a xlink:href="classEmbeddedLogger_1_1ILogTarget.html" target="_top" xlink:title=" ">
<polygon fill="white" stroke="transparent" points="161.5,-286 9.5,-286 9.5,-222 161.5,-222 161.5,-286"/>
<text text-anchor="start" x="14.5" y="-274" font-family="Helvetica,sans-Serif" font-size="10.00">EmbeddedLogger::ILogTarget</text>
<text text-anchor="start" x="83.5" y="-259" font-family="Helvetica,sans-Serif" font-size="10.00"> </text>
<text text-anchor="start" x="29.5" y="-244" font-family="Helvetica,sans-Serif" font-size="10.00">+</text>
<text text-anchor="start" x="58.5" y="-244" font-family="Helvetica,sans-Serif" font-size="10.00">write()</text>
<text text-anchor="start" x="29.5" y="-229" font-family="Helvetica,sans-Serif" font-size="10.00">+</text>
<text text-anchor="start" x="58.5" y="-229" font-family="Helvetica,sans-Serif" font-size="10.00">~ILogTarget()</text>
<polygon fill="#bfbfbf" stroke="#bfbfbf" points="9.5,-269 9.5,-269 161.5,-269 161.5,-269 9.5,-269"/>
<polygon fill="#bfbfbf" stroke="#bfbfbf" points="9.5,-254 9.5,-254 161.5,-254 161.5,-254 9.5,-254"/>
<polygon fill="none" stroke="#bfbfbf" points="9.5,-222 9.5,-286 161.5,-286 161.5,-222 9.5,-222"/>
</a>
</g>
</g>
<!-- Node2&#45;&gt;Node1 -->
<g id="edge1_Node000001_Node000002" class="edge">
<title>Node2&#45;&gt;Node1</title>
<g id="a_edge1_Node000001_Node000002"><a xlink:title=" ">
<path fill="none" stroke="#63b8ff" d="M85.5,-211.92C85.5,-203.48 85.5,-194.65 85.5,-186.37"/>
<polygon fill="none" stroke="#63b8ff" points="82,-211.95 85.5,-221.95 89,-211.95 82,-211.95"/>
</a>
</g>
</g>
</g>
</svg>
