<?xml version="1.0" encoding="UTF-8" standalone="no"?>
<!DOCTYPE svg PUBLIC "-//W3C//DTD SVG 1.1//EN"
 "http://www.w3.org/Graphics/SVG/1.1/DTD/svg11.dtd">
<!-- Generated by graphviz version 2.43.0 (0)
 -->
<!-- Title: IrSensor::isLow Pages: 1 -->
<svg width="571pt" height="27pt"
 viewBox="0.00 0.00 571.00 27.00" xmlns="http://www.w3.org/2000/svg" xmlns:xlink="http://www.w3.org/1999/xlink">
<g id="graph0" class="graph" transform="scale(1 1) rotate(0) translate(4 23)">
<title>IrSensor::isLow</title>
<!-- Node1 -->
<g id="Node000001" class="node">
<title>Node1</title>
<g id="a_Node000001"><a xlink:title="Returns the reading of the sensor as a boolean based on a threshold value.">
<polygon fill="#999999" stroke="#666666" points="90,-19 0,-19 0,0 90,0 90,-19"/>
<text text-anchor="middle" x="45" y="-7" font-family="Helvetica,sans-Serif" font-size="10.00">IrSensor::isLow</text>
</a>
</g>
</g>
<!-- Node2 -->
<g id="Node000002" class="node">
<title>Node2</title>
<g id="a_Node000002"><a xlink:href="classIrSensor.html#acbd0ea5c9ebb2c213612a94e3ab1e9fc" target="_top" xlink:title="Returns the reading of the sensor as a boolean based on a threshold value.">
<polygon fill="white" stroke="#666666" points="219,-19 126,-19 126,0 219,0 219,-19"/>
<text text-anchor="middle" x="172.5" y="-7" font-family="Helvetica,sans-Serif" font-size="10.00">IrSensor::isHigh</text>
</a>
</g>
</g>
<!-- Node1&#45;&gt;Node2 -->
<g id="edge1_Node000001_Node000002" class="edge">
<title>Node1&#45;&gt;Node2</title>
<g id="a_edge1_Node000001_Node000002"><a xlink:title=" ">
<path fill="none" stroke="#63b8ff" d="M90.25,-9.5C98.47,-9.5 107.17,-9.5 115.69,-9.5"/>
<polygon fill="#63b8ff" stroke="#63b8ff" points="115.96,-13 125.96,-9.5 115.96,-6 115.96,-13"/>
</a>
</g>
</g>
<!-- Node3 -->
<g id="Node000003" class="node">
<title>Node3</title>
<g id="a_Node000003"><a xlink:href="classIrSensor.html#aca94e373cfaf6e0633979ba83ed3749b" target="_top" xlink:title="Takes a calibrated reading mapped by the calibration range.">
<polygon fill="white" stroke="#666666" points="373,-19 255,-19 255,0 373,0 373,-19"/>
<text text-anchor="middle" x="314" y="-7" font-family="Helvetica,sans-Serif" font-size="10.00">IrSensor::getReading</text>
</a>
</g>
</g>
<!-- Node2&#45;&gt;Node3 -->
<g id="edge2_Node000002_Node000003" class="edge">
<title>Node2&#45;&gt;Node3</title>
<g id="a_edge2_Node000002_Node000003"><a xlink:title=" ">
<path fill="none" stroke="#63b8ff" d="M219.18,-9.5C227.29,-9.5 235.89,-9.5 244.47,-9.5"/>
<polygon fill="#63b8ff" stroke="#63b8ff" points="244.5,-13 254.5,-9.5 244.5,-6 244.5,-13"/>
</a>
</g>
</g>
<!-- Node4 -->
<g id="Node000004" class="node">
<title>Node4</title>
<g id="a_Node000004"><a xlink:href="classIrSensor.html#a48d54bc804f23ec8b220c8b01b07e475" target="_top" xlink:title="Takes a raw manual reading straight from the sensor.">
<polygon fill="white" stroke="#666666" points="563,-19 409,-19 409,0 563,0 563,-19"/>
<text text-anchor="middle" x="486" y="-7" font-family="Helvetica,sans-Serif" font-size="10.00">IrSensor::getManualReading</text>
</a>
</g>
</g>
<!-- Node3&#45;&gt;Node4 -->
<g id="edge3_Node000003_Node000004" class="edge">
<title>Node3&#45;&gt;Node4</title>
<g id="a_edge3_Node000003_Node000004"><a xlink:title=" ">
<path fill="none" stroke="#63b8ff" d="M373.03,-9.5C381.33,-9.5 390,-9.5 398.7,-9.5"/>
<polygon fill="#63b8ff" stroke="#63b8ff" points="398.9,-13 408.9,-9.5 398.9,-6 398.9,-13"/>
</a>
</g>
</g>
</g>
</svg>
