<?xml version="1.0" encoding="UTF-8" standalone="no"?>
<!DOCTYPE svg PUBLIC "-//W3C//DTD SVG 1.1//EN"
 "http://www.w3.org/Graphics/SVG/1.1/DTD/svg11.dtd">
<!-- Generated by graphviz version 2.43.0 (0)
 -->
<!-- Title: Buggy::update Pages: 1 -->
<svg width="591pt" height="141pt"
 viewBox="0.00 0.00 591.00 141.00" xmlns="http://www.w3.org/2000/svg" xmlns:xlink="http://www.w3.org/1999/xlink">
<g id="graph0" class="graph" transform="scale(1 1) rotate(0) translate(4 137)">
<title>Buggy::update</title>
<!-- Node1 -->
<g id="Node000001" class="node">
<title>Node1</title>
<g id="a_Node000001"><a xlink:title="update is called during every loop. This calls the state machine update to update whatever state the ...">
<polygon fill="#999999" stroke="#666666" points="86,-56 0,-56 0,-37 86,-37 86,-56"/>
<text text-anchor="middle" x="43" y="-44" font-family="Helvetica,sans-Serif" font-size="10.00">Buggy::update</text>
</a>
</g>
</g>
<!-- Node2 -->
<g id="Node000002" class="node">
<title>Node2</title>
<g id="a_Node000002"><a xlink:href="classBuggy.html#a5ecfce732e816d7e6087ce5e04c1e4cf" target="_top" xlink:title="handles an incoming packet in the context of the buggy.">
<polygon fill="white" stroke="#666666" points="252.5,-96 135.5,-96 135.5,-77 252.5,-77 252.5,-96"/>
<text text-anchor="middle" x="194" y="-84" font-family="Helvetica,sans-Serif" font-size="10.00">Buggy::handlePacket</text>
</a>
</g>
</g>
<!-- Node1&#45;&gt;Node2 -->
<g id="edge1_Node000001_Node000002" class="edge">
<title>Node1&#45;&gt;Node2</title>
<g id="a_edge1_Node000001_Node000002"><a xlink:title=" ">
<path fill="none" stroke="#63b8ff" d="M79.69,-56.08C100.15,-61.57 126.02,-68.52 147.88,-74.39"/>
<polygon fill="#63b8ff" stroke="#63b8ff" points="147.04,-77.78 157.6,-77 148.85,-71.02 147.04,-77.78"/>
</a>
</g>
</g>
<!-- Node6 -->
<g id="Node000006" class="node">
<title>Node6</title>
<g id="a_Node000006"><a xlink:href="classBuggy.html#a69ac0c77c795b4a80addeaa4dada009e" target="_top" xlink:title="Sends a status packet to the ground station.">
<polygon fill="white" stroke="#666666" points="263,-56 125,-56 125,-37 263,-37 263,-56"/>
<text text-anchor="middle" x="194" y="-44" font-family="Helvetica,sans-Serif" font-size="10.00">Buggy::sendStatusPacket</text>
</a>
</g>
</g>
<!-- Node1&#45;&gt;Node6 -->
<g id="edge5_Node000001_Node000006" class="edge">
<title>Node1&#45;&gt;Node6</title>
<g id="a_edge5_Node000001_Node000006"><a xlink:title=" ">
<path fill="none" stroke="#63b8ff" d="M86.3,-46.5C95.24,-46.5 104.94,-46.5 114.74,-46.5"/>
<polygon fill="#63b8ff" stroke="#63b8ff" points="114.95,-50 124.95,-46.5 114.95,-43 114.95,-50"/>
</a>
</g>
</g>
<!-- Node8 -->
<g id="Node000008" class="node">
<title>Node8</title>
<g id="a_Node000008"><a xlink:href="classBuggy.html#a390164e31149773f2247487f5240fb88" target="_top" xlink:title="updates the buggy vision">
<polygon fill="white" stroke="#666666" points="266,-19 122,-19 122,0 266,0 266,-19"/>
<text text-anchor="middle" x="194" y="-7" font-family="Helvetica,sans-Serif" font-size="10.00">Buggy::updateRecognition</text>
</a>
</g>
</g>
<!-- Node1&#45;&gt;Node8 -->
<g id="edge7_Node000001_Node000008" class="edge">
<title>Node1&#45;&gt;Node8</title>
<g id="a_edge7_Node000001_Node000008"><a xlink:title=" ">
<path fill="none" stroke="#63b8ff" d="M82.37,-36.97C101.33,-32.26 124.4,-26.53 144.56,-21.53"/>
<polygon fill="#63b8ff" stroke="#63b8ff" points="145.64,-24.87 154.5,-19.06 143.95,-18.07 145.64,-24.87"/>
</a>
</g>
</g>
<!-- Node3 -->
<g id="Node000003" class="node">
<title>Node3</title>
<g id="a_Node000003"><a xlink:href="classBuggy.html#a1207f60e091c8934c31dc04d05da715c" target="_top" xlink:title="decodes the CommandPacket and applies the command to the buggy.">
<polygon fill="white" stroke="#666666" points="446,-133 310,-133 310,-114 446,-114 446,-133"/>
<text text-anchor="middle" x="378" y="-121" font-family="Helvetica,sans-Serif" font-size="10.00">Buggy::handleCommand</text>
</a>
</g>
</g>
<!-- Node2&#45;&gt;Node3 -->
<g id="edge2_Node000002_Node000003" class="edge">
<title>Node2&#45;&gt;Node3</title>
<g id="a_edge2_Node000002_Node000003"><a xlink:title=" ">
<path fill="none" stroke="#63b8ff" d="M241.87,-96.03C265.66,-100.86 294.76,-106.78 319.85,-111.88"/>
<polygon fill="#63b8ff" stroke="#63b8ff" points="319.48,-115.38 329.97,-113.94 320.87,-108.52 319.48,-115.38"/>
</a>
</g>
</g>
<!-- Node5 -->
<g id="Node000005" class="node">
<title>Node5</title>
<g id="a_Node000005"><a xlink:href="classBuggy.html#a4d76df8fa8e6229177dbd4a306cbbe5b" target="_top" xlink:title="handles the control packet for remote controlling the buggy">
<polygon fill="white" stroke="#666666" points="454,-96 302,-96 302,-77 454,-77 454,-96"/>
<text text-anchor="middle" x="378" y="-84" font-family="Helvetica,sans-Serif" font-size="10.00">Buggy::handleControlPacket</text>
</a>
</g>
</g>
<!-- Node2&#45;&gt;Node5 -->
<g id="edge4_Node000002_Node000005" class="edge">
<title>Node2&#45;&gt;Node5</title>
<g id="a_edge4_Node000002_Node000005"><a xlink:title=" ">
<path fill="none" stroke="#63b8ff" d="M252.59,-86.5C265.03,-86.5 278.45,-86.5 291.71,-86.5"/>
<polygon fill="#63b8ff" stroke="#63b8ff" points="291.79,-90 301.79,-86.5 291.79,-83 291.79,-90"/>
</a>
</g>
</g>
<!-- Node4 -->
<g id="Node000004" class="node">
<title>Node4</title>
<g id="a_Node000004"><a xlink:href="classBuggy.html#a6ec6b72a75e112f777e8c6754a70012b" target="_top" xlink:title="Changes the state of the buggy. This will call the necessary exit and enter methods of the state.">
<polygon fill="white" stroke="#666666" points="583,-133 490,-133 490,-114 583,-114 583,-133"/>
<text text-anchor="middle" x="536.5" y="-121" font-family="Helvetica,sans-Serif" font-size="10.00">Buggy::setState</text>
</a>
</g>
</g>
<!-- Node3&#45;&gt;Node4 -->
<g id="edge3_Node000003_Node000004" class="edge">
<title>Node3&#45;&gt;Node4</title>
<g id="a_edge3_Node000003_Node000004"><a xlink:title=" ">
<path fill="none" stroke="#63b8ff" d="M446.28,-123.5C457.45,-123.5 468.93,-123.5 479.78,-123.5"/>
<polygon fill="#63b8ff" stroke="#63b8ff" points="479.96,-127 489.96,-123.5 479.96,-120 479.96,-127"/>
</a>
</g>
</g>
<!-- Node7 -->
<g id="Node000007" class="node">
<title>Node7</title>
<g id="a_Node000007"><a xlink:href="classPacketFactory.html#a27759b44a17b7c9550541de15dac7016" target="_top" xlink:title="Creates a status packet containing sensor and motor data.">
<polygon fill="white" stroke="#666666" points="453,-58.5 303,-58.5 303,-28.5 453,-28.5 453,-58.5"/>
<text text-anchor="start" x="311" y="-46.5" font-family="Helvetica,sans-Serif" font-size="10.00">PacketFactory::createStatus</text>
<text text-anchor="middle" x="378" y="-35.5" font-family="Helvetica,sans-Serif" font-size="10.00">Packet</text>
</a>
</g>
</g>
<!-- Node6&#45;&gt;Node7 -->
<g id="edge6_Node000006_Node000007" class="edge">
<title>Node6&#45;&gt;Node7</title>
<g id="a_edge6_Node000006_Node000007"><a xlink:title=" ">
<path fill="none" stroke="#63b8ff" d="M263.03,-45.38C272.7,-45.22 282.73,-45.05 292.66,-44.89"/>
<polygon fill="#63b8ff" stroke="#63b8ff" points="293.01,-48.38 302.95,-44.72 292.9,-41.39 293.01,-48.38"/>
</a>
</g>
</g>
</g>
</svg>
