<?xml version="1.0" encoding="UTF-8" standalone="no"?>
<!DOCTYPE svg PUBLIC "-//W3C//DTD SVG 1.1//EN"
 "http://www.w3.org/Graphics/SVG/1.1/DTD/svg11.dtd">
<!-- Generated by graphviz version 2.43.0 (0)
 -->
<!-- Title: BuggySoftware/EmbeddedLogger.hpp Pages: 1 -->
<svg width="670pt" height="434pt"
 viewBox="0.00 0.00 670.20 434.00" xmlns="http://www.w3.org/2000/svg" xmlns:xlink="http://www.w3.org/1999/xlink">
<g id="graph0" class="graph" transform="scale(1 1) rotate(0) translate(4 430)">
<title>BuggySoftware/EmbeddedLogger.hpp</title>
<!-- Node1 -->
<g id="Node000001" class="node">
<title>Node1</title>
<g id="a_Node000001"><a xlink:title=" ">
<polygon fill="#999999" stroke="#666666" points="446,-426 248,-426 248,-407 446,-407 446,-426"/>
<text text-anchor="middle" x="347" y="-414" font-family="Helvetica,sans-Serif" font-size="10.00">BuggySoftware/EmbeddedLogger.hpp</text>
</a>
</g>
</g>
<!-- Node2 -->
<g id="Node000002" class="node">
<title>Node2</title>
<g id="a_Node000002"><a xlink:href="Buggy_8hpp_source.html" target="_top" xlink:title=" ">
<polygon fill="white" stroke="#666666" points="226.5,-129 83.5,-129 83.5,-110 226.5,-110 226.5,-129"/>
<text text-anchor="middle" x="155" y="-117" font-family="Helvetica,sans-Serif" font-size="10.00">BuggySoftware/Buggy.hpp</text>
</a>
</g>
</g>
<!-- Node1&#45;&gt;Node2 -->
<g id="edge1_Node000001_Node000002" class="edge">
<title>Node1&#45;&gt;Node2</title>
<g id="a_edge1_Node000001_Node000002"><a xlink:title=" ">
<path fill="none" stroke="#63b8ff" d="M237.73,-410.69C160.76,-405.34 65.95,-394.16 34,-371 6.32,-350.94 0,-336.19 0,-302 0,-302 0,-302 0,-234 0,-174.47 75.36,-142.77 120.98,-129.04"/>
<polygon fill="#63b8ff" stroke="#63b8ff" points="237.78,-414.2 247.99,-411.38 238.24,-407.22 237.78,-414.2"/>
</a>
</g>
</g>
<!-- Node3 -->
<g id="Node000003" class="node">
<title>Node3</title>
<g id="a_Node000003"><a xlink:href="BuggySoftware_8ino.html" target="_top" xlink:title="This is the main entry point for the Buggy software.">
<polygon fill="white" stroke="#666666" points="560.5,-74 375.5,-74 375.5,-55 560.5,-55 560.5,-74"/>
<text text-anchor="middle" x="468" y="-62" font-family="Helvetica,sans-Serif" font-size="10.00">BuggySoftware/BuggySoftware.ino</text>
</a>
</g>
</g>
<!-- Node1&#45;&gt;Node3 -->
<g id="edge8_Node000001_Node000003" class="edge">
<title>Node1&#45;&gt;Node3</title>
<g id="a_edge8_Node000001_Node000003"><a xlink:title=" ">
<path fill="none" stroke="#63b8ff" d="M456.14,-411.26C528.42,-406.22 614.76,-395.18 642,-371 665.79,-349.89 661,-333.81 661,-302 661,-302 661,-302 661,-173.5 661,-112.55 586.78,-85.66 530.4,-74.03"/>
<polygon fill="#63b8ff" stroke="#63b8ff" points="455.78,-407.78 446.04,-411.94 456.25,-414.76 455.78,-407.78"/>
</a>
</g>
</g>
<!-- Node6 -->
<g id="Node000006" class="node">
<title>Node6</title>
<g id="a_Node000006"><a xlink:href="MoveMeanFilter_8hpp_source.html" target="_top" xlink:title=" ">
<polygon fill="white" stroke="#666666" points="235,-371 43,-371 43,-352 235,-352 235,-371"/>
<text text-anchor="middle" x="139" y="-359" font-family="Helvetica,sans-Serif" font-size="10.00">BuggySoftware/MoveMeanFilter.hpp</text>
</a>
</g>
</g>
<!-- Node1&#45;&gt;Node6 -->
<g id="edge9_Node000001_Node000006" class="edge">
<title>Node1&#45;&gt;Node6</title>
<g id="a_edge9_Node000001_Node000006"><a xlink:title=" ">
<path fill="none" stroke="#63b8ff" d="M303.59,-404.44C264.65,-394.52 208.31,-380.16 172.68,-371.08"/>
<polygon fill="#63b8ff" stroke="#63b8ff" points="303.03,-407.91 313.58,-406.98 304.76,-401.12 303.03,-407.91"/>
</a>
</g>
</g>
<!-- Node11 -->
<g id="Node000011" class="node">
<title>Node11</title>
<g id="a_Node000011"><a xlink:href="SerialLogger_8hpp_source.html" target="_top" xlink:title=" ">
<polygon fill="white" stroke="#666666" points="633,-371 459,-371 459,-352 633,-352 633,-371"/>
<text text-anchor="middle" x="546" y="-359" font-family="Helvetica,sans-Serif" font-size="10.00">BuggySoftware/SerialLogger.hpp</text>
</a>
</g>
</g>
<!-- Node1&#45;&gt;Node11 -->
<g id="edge21_Node000001_Node000011" class="edge">
<title>Node1&#45;&gt;Node11</title>
<g id="a_edge21_Node000001_Node000011"><a xlink:title=" ">
<path fill="none" stroke="#63b8ff" d="M389.01,-404.31C426.25,-394.39 479.84,-380.12 513.78,-371.08"/>
<polygon fill="#63b8ff" stroke="#63b8ff" points="387.74,-401.03 378.97,-406.98 389.54,-407.79 387.74,-401.03"/>
</a>
</g>
</g>
<!-- Node13 -->
<g id="Node000013" class="node">
<title>Node13</title>
<g id="a_Node000013"><a xlink:href="WirelessLogger_8hpp_source.html" target="_top" xlink:title=" ">
<polygon fill="white" stroke="#666666" points="441,-371 253,-371 253,-352 441,-352 441,-371"/>
<text text-anchor="middle" x="347" y="-359" font-family="Helvetica,sans-Serif" font-size="10.00">BuggySoftware/WirelessLogger.hpp</text>
</a>
</g>
</g>
<!-- Node1&#45;&gt;Node13 -->
<g id="edge24_Node000001_Node000013" class="edge">
<title>Node1&#45;&gt;Node13</title>
<g id="a_edge24_Node000001_Node000013"><a xlink:title=" ">
<path fill="none" stroke="#63b8ff" d="M347,-396.66C347,-387.93 347,-377.99 347,-371.09"/>
<polygon fill="#63b8ff" stroke="#63b8ff" points="343.5,-396.75 347,-406.75 350.5,-396.75 343.5,-396.75"/>
</a>
</g>
</g>
<!-- Node2&#45;&gt;Node3 -->
<g id="edge2_Node000002_Node000003" class="edge">
<title>Node2&#45;&gt;Node3</title>
<g id="a_edge2_Node000002_Node000003"><a xlink:title=" ">
<path fill="none" stroke="#63b8ff" d="M215.18,-108.31C273.96,-98.36 362.39,-83.38 417.58,-74.04"/>
<polygon fill="#63b8ff" stroke="#63b8ff" points="214.56,-104.86 205.29,-109.98 215.73,-111.77 214.56,-104.86"/>
</a>
</g>
</g>
<!-- Node4 -->
<g id="Node000004" class="node">
<title>Node4</title>
<g id="a_Node000004"><a xlink:href="BuggyState_8hpp_source.html" target="_top" xlink:title=" ">
<polygon fill="white" stroke="#666666" points="353,-74 183,-74 183,-55 353,-55 353,-74"/>
<text text-anchor="middle" x="268" y="-62" font-family="Helvetica,sans-Serif" font-size="10.00">BuggySoftware/BuggyState.hpp</text>
</a>
</g>
</g>
<!-- Node2&#45;&gt;Node4 -->
<g id="edge3_Node000002_Node000004" class="edge">
<title>Node2&#45;&gt;Node4</title>
<g id="a_edge3_Node000002_Node000004"><a xlink:title=" ">
<path fill="none" stroke="#63b8ff" d="M177.08,-105.37C196.51,-95.63 224.48,-82.64 244.37,-74.17"/>
<polygon fill="#63b8ff" stroke="#63b8ff" points="175.35,-102.32 168.04,-109.98 178.54,-108.55 175.35,-102.32"/>
</a>
</g>
</g>
<!-- Node5 -->
<g id="Node000005" class="node">
<title>Node5</title>
<g id="a_Node000005"><a xlink:href="RoadSigns_8hpp_source.html" target="_top" xlink:title=" ">
<polygon fill="white" stroke="#666666" points="228.5,-19 63.5,-19 63.5,0 228.5,0 228.5,-19"/>
<text text-anchor="middle" x="146" y="-7" font-family="Helvetica,sans-Serif" font-size="10.00">BuggySoftware/RoadSigns.hpp</text>
</a>
</g>
</g>
<!-- Node2&#45;&gt;Node5 -->
<g id="edge7_Node000002_Node000005" class="edge">
<title>Node2&#45;&gt;Node5</title>
<g id="a_edge7_Node000002_Node000005"><a xlink:title=" ">
<path fill="none" stroke="#63b8ff" d="M148.19,-99.8C143.84,-76.2 141,-36.58 142.84,-19.16"/>
<polygon fill="#63b8ff" stroke="#63b8ff" points="144.79,-100.65 150.35,-109.66 151.63,-99.14 144.79,-100.65"/>
</a>
</g>
</g>
<!-- Node4&#45;&gt;Node2 -->
<g id="edge4_Node000004_Node000002" class="edge">
<title>Node4&#45;&gt;Node2</title>
<g id="a_edge4_Node000004_Node000002"><a xlink:title=" ">
<path fill="none" stroke="#63b8ff" d="M245.56,-78.81C226.02,-88.59 198.06,-101.57 178.27,-109.98"/>
<polygon fill="#63b8ff" stroke="#63b8ff" points="247.34,-81.83 254.66,-74.17 244.16,-75.6 247.34,-81.83"/>
</a>
</g>
</g>
<!-- Node4&#45;&gt;Node5 -->
<g id="edge5_Node000004_Node000005" class="edge">
<title>Node4&#45;&gt;Node5</title>
<g id="a_edge5_Node000004_Node000005"><a xlink:title=" ">
<path fill="none" stroke="#63b8ff" d="M238.99,-50.9C216.46,-41.11 185.8,-27.79 165.96,-19.17"/>
<polygon fill="#63b8ff" stroke="#63b8ff" points="237.83,-54.21 248.4,-54.98 240.62,-47.79 237.83,-54.21"/>
</a>
</g>
</g>
<!-- Node5&#45;&gt;Node2 -->
<g id="edge6_Node000005_Node000002" class="edge">
<title>Node5&#45;&gt;Node2</title>
<g id="a_edge6_Node000005_Node000002"><a xlink:title=" ">
<path fill="none" stroke="#63b8ff" d="M152.77,-28.95C157.12,-52.45 159.99,-92.09 158.18,-109.66"/>
<polygon fill="#63b8ff" stroke="#63b8ff" points="156.18,-28.17 150.6,-19.16 149.34,-29.68 156.18,-28.17"/>
</a>
</g>
</g>
<!-- Node7 -->
<g id="Node000007" class="node">
<title>Node7</title>
<g id="a_Node000007"><a xlink:href="MotorDriver_8hpp_source.html" target="_top" xlink:title=" ">
<polygon fill="white" stroke="#666666" points="232,-310.5 60,-310.5 60,-291.5 232,-291.5 232,-310.5"/>
<text text-anchor="middle" x="146" y="-298.5" font-family="Helvetica,sans-Serif" font-size="10.00">BuggySoftware/MotorDriver.hpp</text>
</a>
</g>
</g>
<!-- Node6&#45;&gt;Node7 -->
<g id="edge10_Node000006_Node000007" class="edge">
<title>Node6&#45;&gt;Node7</title>
<g id="a_edge10_Node000006_Node000007"><a xlink:title=" ">
<path fill="none" stroke="#63b8ff" d="M141.25,-341.66C142.5,-331.24 143.99,-318.8 144.96,-310.67"/>
<polygon fill="#63b8ff" stroke="#63b8ff" points="137.75,-341.52 140.03,-351.87 144.7,-342.35 137.75,-341.52"/>
</a>
</g>
</g>
<!-- Node10 -->
<g id="Node000010" class="node">
<title>Node10</title>
<g id="a_Node000010"><a xlink:href="UltrasonicSensor_8hpp_source.html" target="_top" xlink:title=" ">
<polygon fill="white" stroke="#666666" points="441.5,-250 298.5,-250 298.5,-220 441.5,-220 441.5,-250"/>
<text text-anchor="start" x="306.5" y="-238" font-family="Helvetica,sans-Serif" font-size="10.00">BuggySoftware/Ultrasonic</text>
<text text-anchor="middle" x="370" y="-227" font-family="Helvetica,sans-Serif" font-size="10.00">Sensor.hpp</text>
</a>
</g>
</g>
<!-- Node6&#45;&gt;Node10 -->
<g id="edge18_Node000006_Node000010" class="edge">
<title>Node6&#45;&gt;Node10</title>
<g id="a_edge18_Node000006_Node000010"><a xlink:title=" ">
<path fill="none" stroke="#63b8ff" d="M170.77,-348.02C191.18,-339.67 218.06,-328.04 241,-316 280.44,-295.31 324.02,-267.07 349.09,-250.27"/>
<polygon fill="#63b8ff" stroke="#63b8ff" points="169.27,-344.85 161.32,-351.85 171.9,-351.34 169.27,-344.85"/>
</a>
</g>
</g>
<!-- Node7&#45;&gt;Node2 -->
<g id="edge11_Node000007_Node000002" class="edge">
<title>Node7&#45;&gt;Node2</title>
<g id="a_edge11_Node000007_Node000002"><a xlink:title=" ">
<path fill="none" stroke="#63b8ff" d="M104.78,-287.5C86.78,-279.76 67.42,-267.81 57,-250 50.27,-238.49 51.94,-232.34 57,-220 74.19,-178.05 118.56,-144.29 141.23,-129.14"/>
<polygon fill="#63b8ff" stroke="#63b8ff" points="103.99,-290.95 114.58,-291.38 106.57,-284.44 103.99,-290.95"/>
</a>
</g>
</g>
<!-- Node8 -->
<g id="Node000008" class="node">
<title>Node8</title>
<g id="a_Node000008"><a xlink:href="CruiseControl_8hpp_source.html" target="_top" xlink:title=" ">
<polygon fill="white" stroke="#666666" points="360,-184 180,-184 180,-165 360,-165 360,-184"/>
<text text-anchor="middle" x="270" y="-172" font-family="Helvetica,sans-Serif" font-size="10.00">BuggySoftware/CruiseControl.hpp</text>
</a>
</g>
</g>
<!-- Node7&#45;&gt;Node8 -->
<g id="edge12_Node000007_Node000008" class="edge">
<title>Node7&#45;&gt;Node8</title>
<g id="a_edge12_Node000007_Node000008"><a xlink:title=" ">
<path fill="none" stroke="#63b8ff" d="M190.33,-288.16C211.18,-280.47 234.76,-268.37 250,-250 266.07,-230.62 269.33,-199.53 269.92,-184.38"/>
<polygon fill="#63b8ff" stroke="#63b8ff" points="188.98,-284.92 180.67,-291.49 191.26,-291.54 188.98,-284.92"/>
</a>
</g>
</g>
<!-- Node9 -->
<g id="Node000009" class="node">
<title>Node9</title>
<g id="a_Node000009"><a xlink:href="LineFollower_8hpp_source.html" target="_top" xlink:title=" ">
<polygon fill="white" stroke="#666666" points="241.5,-244.5 66.5,-244.5 66.5,-225.5 241.5,-225.5 241.5,-244.5"/>
<text text-anchor="middle" x="154" y="-232.5" font-family="Helvetica,sans-Serif" font-size="10.00">BuggySoftware/LineFollower.hpp</text>
</a>
</g>
</g>
<!-- Node7&#45;&gt;Node9 -->
<g id="edge15_Node000007_Node000009" class="edge">
<title>Node7&#45;&gt;Node9</title>
<g id="a_edge15_Node000007_Node000009"><a xlink:title=" ">
<path fill="none" stroke="#63b8ff" d="M148.36,-281.08C149.86,-269.13 151.72,-254.22 152.89,-244.91"/>
<polygon fill="#63b8ff" stroke="#63b8ff" points="144.85,-281.01 147.08,-291.37 151.79,-281.88 144.85,-281.01"/>
</a>
</g>
</g>
<!-- Node8&#45;&gt;Node2 -->
<g id="edge13_Node000008_Node000002" class="edge">
<title>Node8&#45;&gt;Node2</title>
<g id="a_edge13_Node000008_Node000002"><a xlink:title=" ">
<path fill="none" stroke="#63b8ff" d="M242.37,-160.77C221.16,-150.99 192.44,-137.75 173.81,-129.17"/>
<polygon fill="#63b8ff" stroke="#63b8ff" points="240.98,-163.98 251.52,-164.98 243.91,-157.62 240.98,-163.98"/>
</a>
</g>
</g>
<!-- Node8&#45;&gt;Node3 -->
<g id="edge14_Node000008_Node000003" class="edge">
<title>Node8&#45;&gt;Node3</title>
<g id="a_edge14_Node000008_Node000003"><a xlink:title=" ">
<path fill="none" stroke="#63b8ff" d="M294.75,-160C336.09,-137.45 418.03,-92.75 452.33,-74.05"/>
<polygon fill="#63b8ff" stroke="#63b8ff" points="292.97,-156.98 285.87,-164.84 296.32,-163.13 292.97,-156.98"/>
</a>
</g>
</g>
<!-- Node9&#45;&gt;Node2 -->
<g id="edge16_Node000009_Node000002" class="edge">
<title>Node9&#45;&gt;Node2</title>
<g id="a_edge16_Node000009_Node000002"><a xlink:title=" ">
<path fill="none" stroke="#63b8ff" d="M154.17,-215.15C154.39,-190.24 154.76,-147.38 154.92,-129.13"/>
<polygon fill="#63b8ff" stroke="#63b8ff" points="150.66,-215.44 154.08,-225.47 157.66,-215.5 150.66,-215.44"/>
</a>
</g>
</g>
<!-- Node9&#45;&gt;Node8 -->
<g id="edge17_Node000009_Node000008" class="edge">
<title>Node9&#45;&gt;Node8</title>
<g id="a_edge17_Node000009_Node000008"><a xlink:title=" ">
<path fill="none" stroke="#63b8ff" d="M180.32,-220.73C202.53,-209.53 233.68,-193.82 252.81,-184.17"/>
<polygon fill="#63b8ff" stroke="#63b8ff" points="178.47,-217.74 171.12,-225.37 181.62,-223.99 178.47,-217.74"/>
</a>
</g>
</g>
<!-- Node10&#45;&gt;Node2 -->
<g id="edge19_Node000010_Node000002" class="edge">
<title>Node10&#45;&gt;Node2</title>
<g id="a_edge19_Node000010_Node000002"><a xlink:title=" ">
<path fill="none" stroke="#63b8ff" d="M376.57,-209.96C379.02,-195.37 379.13,-177.27 369,-165 351.03,-143.24 281.69,-131.74 226.75,-125.93"/>
<polygon fill="#63b8ff" stroke="#63b8ff" points="373.13,-209.31 374.48,-219.82 379.97,-210.76 373.13,-209.31"/>
</a>
</g>
</g>
<!-- Node10&#45;&gt;Node8 -->
<g id="edge20_Node000010_Node000008" class="edge">
<title>Node10&#45;&gt;Node8</title>
<g id="a_edge20_Node000010_Node000008"><a xlink:title=" ">
<path fill="none" stroke="#63b8ff" d="M337.15,-214.78C319.46,-204.43 298.51,-192.18 284.77,-184.14"/>
<polygon fill="#63b8ff" stroke="#63b8ff" points="335.65,-217.96 346.05,-219.99 339.18,-211.92 335.65,-217.96"/>
</a>
</g>
</g>
<!-- Node12 -->
<g id="Node000012" class="node">
<title>Node12</title>
<g id="a_Node000012"><a xlink:href="SerialWirelessLogger_8hpp_source.html" target="_top" xlink:title=" ">
<polygon fill="white" stroke="#666666" points="551.5,-316 388.5,-316 388.5,-286 551.5,-286 551.5,-316"/>
<text text-anchor="start" x="396.5" y="-304" font-family="Helvetica,sans-Serif" font-size="10.00">BuggySoftware/SerialWireless</text>
<text text-anchor="middle" x="470" y="-293" font-family="Helvetica,sans-Serif" font-size="10.00">Logger.hpp</text>
</a>
</g>
</g>
<!-- Node11&#45;&gt;Node12 -->
<g id="edge22_Node000011_Node000012" class="edge">
<title>Node11&#45;&gt;Node12</title>
<g id="a_edge22_Node000011_Node000012"><a xlink:title=" ">
<path fill="none" stroke="#63b8ff" d="M526.86,-345.77C515.05,-336.68 499.99,-325.09 488.34,-316.11"/>
<polygon fill="#63b8ff" stroke="#63b8ff" points="524.73,-348.54 534.79,-351.87 529,-342.99 524.73,-348.54"/>
</a>
</g>
</g>
<!-- Node12&#45;&gt;Node3 -->
<g id="edge23_Node000012_Node000003" class="edge">
<title>Node12&#45;&gt;Node3</title>
<g id="a_edge23_Node000012_Node000003"><a xlink:title=" ">
<path fill="none" stroke="#63b8ff" d="M469.79,-275.49C469.35,-224.12 468.36,-107.16 468.07,-74.26"/>
<polygon fill="#63b8ff" stroke="#63b8ff" points="466.29,-275.71 469.88,-285.68 473.29,-275.65 466.29,-275.71"/>
</a>
</g>
</g>
<!-- Node13&#45;&gt;Node12 -->
<g id="edge25_Node000013_Node000012" class="edge">
<title>Node13&#45;&gt;Node12</title>
<g id="a_edge25_Node000013_Node000012"><a xlink:title=" ">
<path fill="none" stroke="#63b8ff" d="M374.15,-347.59C393.69,-338.29 420.06,-325.75 440.19,-316.18"/>
<polygon fill="#63b8ff" stroke="#63b8ff" points="372.41,-344.54 364.89,-351.99 375.42,-350.86 372.41,-344.54"/>
</a>
</g>
</g>
</g>
</svg>
