<?xml version="1.0" encoding="UTF-8" standalone="no"?>
<!DOCTYPE svg PUBLIC "-//W3C//DTD SVG 1.1//EN"
 "http://www.w3.org/Graphics/SVG/1.1/DTD/svg11.dtd">
<!-- Generated by graphviz version 2.43.0 (0)
 -->
<!-- Title: BuggySoftware/EmbeddedLogger.hpp Pages: 1 -->
<!--zoomable 379 -->

<svg id="main" version="1.1" xmlns="http://www.w3.org/2000/svg" xmlns:xlink="http://www.w3.org/1999/xlink" xml:space="preserve" onload="init(evt)">

<style type="text/css"><![CDATA[
.node, .edge {opacity: 0.7;}
.node.selected, .edge.selected {opacity: 1;}
.edge:hover path { stroke: red; }
.edge:hover polygon { stroke: red; fill: red; }
]]></style>

<defs>
  <circle id="rim" cx="0" cy="0" r="7"/>
  <circle id="rim2" cx="0" cy="0" r="3.5"/>
  <g id="zoomPlus">
    <use xlink:href="#rim" fill="#404040"><set attributeName="fill" to="#808080" begin="zoomplus.mouseover" end="zoomplus.mouseout"/></use>
    <path d="M-4,0h8M0,-4v8" fill="none" stroke="white" stroke-width="1.5" pointer-events="none"/>
  </g>
  <g id="zoomMin">
    <use xlink:href="#rim" fill="#404040"><set attributeName="fill" to="#808080" begin="zoomminus.mouseover" end="zoomminus.mouseout"/></use>
    <path d="M-4,0h8" fill="none" stroke="white" stroke-width="1.5" pointer-events="none"/>
  </g>
  <g id="arrowUp" transform="translate(30 24)">
    <use xlink:href="#rim"/>
    <path pointer-events="none" fill="none" stroke="white" stroke-width="1.5" d="M0,-3.0v7 M-2.5,-0.5L0,-3.0L2.5,-0.5"/>
  </g>
  <g id="arrowRight" transform="rotate(90) translate(36 -43)">
    <use xlink:href="#rim"/>
    <path pointer-events="none" fill="none" stroke="white" stroke-width="1.5" d="M0,-3.0v7 M-2.5,-0.5L0,-3.0L2.5,-0.5"/>
  </g>
  <g id="arrowDown" transform="rotate(180) translate(-30 -48)">
    <use xlink:href="#rim"/>
    <path pointer-events="none" fill="none" stroke="white" stroke-width="1.5" d="M0,-3.0v7 M-2.5,-0.5L0,-3.0L2.5,-0.5"/>
  </g>
  <g id="arrowLeft" transform="rotate(270) translate(-36 17)">
    <use xlink:href="#rim"/>
    <path pointer-events="none" fill="none" stroke="white" stroke-width="1.5" d="M0,-3.0v7 M-2.5,-0.5L0,-3.0L2.5,-0.5"/>
  </g>
  <g id="resetDef">
    <use xlink:href="#rim2" fill="#404040"><set attributeName="fill" to="#808080" begin="reset.mouseover" end="reset.mouseout"/></use>
  </g>
</defs>
<script type="application/ecmascript">
var viewWidth = 670;
var viewHeight = 379;
var sectionId = 'dynsection-1';
</script>
<script type="application/ecmascript" xlink:href="svg.min.js"/>
<svg id="graph" class="graph">
<g id="viewport">
<title>BuggySoftware/EmbeddedLogger.hpp</title>
<!-- Node1 -->
<g id="Node000001" class="node">
<title>Node1</title>
<g id="a_Node000001"><a xlink:title=" ">
<polygon fill="#999999" stroke="#666666" points="446,-371 248,-371 248,-352 446,-352 446,-371"/>
<text text-anchor="middle" x="347" y="-359" font-family="Helvetica,sans-Serif" font-size="10.00">BuggySoftware/EmbeddedLogger.hpp</text>
</a>
</g>
</g>
<!-- Node2 -->
<g id="Node000002" class="node">
<title>Node2</title>
<g id="a_Node000002"><a xlink:href="Buggy_8hpp_source.html" target="_top" xlink:title=" ">
<polygon fill="white" stroke="#666666" points="232.5,-74 89.5,-74 89.5,-55 232.5,-55 232.5,-74"/>
<text text-anchor="middle" x="161" y="-62" font-family="Helvetica,sans-Serif" font-size="10.00">BuggySoftware/Buggy.hpp</text>
</a>
</g>
</g>
<!-- Node1&#45;&gt;Node2 -->
<g id="edge1_Node000001_Node000002" class="edge">
<title>Node1&#45;&gt;Node2</title>
<g id="a_edge1_Node000001_Node000002"><a xlink:title=" ">
<path fill="none" stroke="#63b8ff" d="M237.73,-355.69C160.76,-350.34 65.95,-339.16 34,-316 6.32,-295.94 0,-281.19 0,-247 0,-247 0,-247 0,-179 0,-118.64 76.53,-87.56 124.06,-74.08"/>
<polygon fill="#63b8ff" stroke="#63b8ff" points="237.78,-359.2 247.99,-356.38 238.24,-352.22 237.78,-359.2"/>
</a>
</g>
</g>
<!-- Node3 -->
<g id="Node000003" class="node">
<title>Node3</title>
<g id="a_Node000003"><a xlink:href="BuggySoftware_8ino.html" target="_top" xlink:title="This is the main entry point for the Buggy software.">
<polygon fill="white" stroke="#666666" points="506.5,-19 321.5,-19 321.5,0 506.5,0 506.5,-19"/>
<text text-anchor="middle" x="414" y="-7" font-family="Helvetica,sans-Serif" font-size="10.00">BuggySoftware/BuggySoftware.ino</text>
</a>
</g>
</g>
<!-- Node1&#45;&gt;Node3 -->
<g id="edge5_Node000001_Node000003" class="edge">
<title>Node1&#45;&gt;Node3</title>
<g id="a_edge5_Node000001_Node000003"><a xlink:title=" ">
<path fill="none" stroke="#63b8ff" d="M456.14,-356.26C528.42,-351.22 614.76,-340.18 642,-316 665.79,-294.89 661,-278.81 661,-247 661,-247 661,-247 661,-118.5 661,-48.53 576.76,-23.45 506.68,-14.69"/>
<polygon fill="#63b8ff" stroke="#63b8ff" points="455.78,-352.78 446.04,-356.94 456.25,-359.76 455.78,-352.78"/>
</a>
</g>
</g>
<!-- Node5 -->
<g id="Node000005" class="node">
<title>Node5</title>
<g id="a_Node000005"><a xlink:href="MoveMeanFilter_8hpp_source.html" target="_top" xlink:title=" ">
<polygon fill="white" stroke="#666666" points="235,-316 43,-316 43,-297 235,-297 235,-316"/>
<text text-anchor="middle" x="139" y="-304" font-family="Helvetica,sans-Serif" font-size="10.00">BuggySoftware/MoveMeanFilter.hpp</text>
</a>
</g>
</g>
<!-- Node1&#45;&gt;Node5 -->
<g id="edge6_Node000001_Node000005" class="edge">
<title>Node1&#45;&gt;Node5</title>
<g id="a_edge6_Node000001_Node000005"><a xlink:title=" ">
<path fill="none" stroke="#63b8ff" d="M303.59,-349.44C264.65,-339.52 208.31,-325.16 172.68,-316.08"/>
<polygon fill="#63b8ff" stroke="#63b8ff" points="303.03,-352.91 313.58,-351.98 304.76,-346.12 303.03,-352.91"/>
</a>
</g>
</g>
<!-- Node10 -->
<g id="Node000010" class="node">
<title>Node10</title>
<g id="a_Node000010"><a xlink:href="SerialLogger_8hpp_source.html" target="_top" xlink:title=" ">
<polygon fill="white" stroke="#666666" points="633,-316 459,-316 459,-297 633,-297 633,-316"/>
<text text-anchor="middle" x="546" y="-304" font-family="Helvetica,sans-Serif" font-size="10.00">BuggySoftware/SerialLogger.hpp</text>
</a>
</g>
</g>
<!-- Node1&#45;&gt;Node10 -->
<g id="edge18_Node000001_Node000010" class="edge">
<title>Node1&#45;&gt;Node10</title>
<g id="a_edge18_Node000001_Node000010"><a xlink:title=" ">
<path fill="none" stroke="#63b8ff" d="M389.01,-349.31C426.25,-339.39 479.84,-325.12 513.78,-316.08"/>
<polygon fill="#63b8ff" stroke="#63b8ff" points="387.74,-346.03 378.97,-351.98 389.54,-352.79 387.74,-346.03"/>
</a>
</g>
</g>
<!-- Node12 -->
<g id="Node000012" class="node">
<title>Node12</title>
<g id="a_Node000012"><a xlink:href="WirelessLogger_8hpp_source.html" target="_top" xlink:title=" ">
<polygon fill="white" stroke="#666666" points="441,-316 253,-316 253,-297 441,-297 441,-316"/>
<text text-anchor="middle" x="347" y="-304" font-family="Helvetica,sans-Serif" font-size="10.00">BuggySoftware/WirelessLogger.hpp</text>
</a>
</g>
</g>
<!-- Node1&#45;&gt;Node12 -->
<g id="edge21_Node000001_Node000012" class="edge">
<title>Node1&#45;&gt;Node12</title>
<g id="a_edge21_Node000001_Node000012"><a xlink:title=" ">
<path fill="none" stroke="#63b8ff" d="M347,-341.66C347,-332.93 347,-322.99 347,-316.09"/>
<polygon fill="#63b8ff" stroke="#63b8ff" points="343.5,-341.75 347,-351.75 350.5,-341.75 343.5,-341.75"/>
</a>
</g>
</g>
<!-- Node2&#45;&gt;Node3 -->
<g id="edge2_Node000002_Node000003" class="edge">
<title>Node2&#45;&gt;Node3</title>
<g id="a_edge2_Node000002_Node000003"><a xlink:title=" ">
<path fill="none" stroke="#63b8ff" d="M211.7,-52.88C259.12,-42.94 329.05,-28.3 373.03,-19.08"/>
<polygon fill="#63b8ff" stroke="#63b8ff" points="210.72,-49.51 201.65,-54.98 212.15,-56.36 210.72,-49.51"/>
</a>
</g>
</g>
<!-- Node4 -->
<g id="Node000004" class="node">
<title>Node4</title>
<g id="a_Node000004"><a xlink:href="BuggyState_8hpp_source.html" target="_top" xlink:title=" ">
<polygon fill="white" stroke="#666666" points="246,-19 76,-19 76,0 246,0 246,-19"/>
<text text-anchor="middle" x="161" y="-7" font-family="Helvetica,sans-Serif" font-size="10.00">BuggySoftware/BuggyState.hpp</text>
</a>
</g>
</g>
<!-- Node2&#45;&gt;Node4 -->
<g id="edge3_Node000002_Node000004" class="edge">
<title>Node2&#45;&gt;Node4</title>
<g id="a_edge3_Node000002_Node000004"><a xlink:title=" ">
<path fill="none" stroke="#63b8ff" d="M154.51,-44.66C153.91,-35.93 154.36,-25.99 155.87,-19.09"/>
<polygon fill="#63b8ff" stroke="#63b8ff" points="151.06,-45.29 155.83,-54.75 158,-44.38 151.06,-45.29"/>
</a>
</g>
</g>
<!-- Node4&#45;&gt;Node2 -->
<g id="edge4_Node000004_Node000002" class="edge">
<title>Node4&#45;&gt;Node2</title>
<g id="a_edge4_Node000004_Node000002"><a xlink:title=" ">
<path fill="none" stroke="#63b8ff" d="M167.48,-29.13C168.1,-37.85 167.66,-47.8 166.17,-54.75"/>
<polygon fill="#63b8ff" stroke="#63b8ff" points="170.93,-28.53 166.13,-19.09 163.99,-29.47 170.93,-28.53"/>
</a>
</g>
</g>
<!-- Node6 -->
<g id="Node000006" class="node">
<title>Node6</title>
<g id="a_Node000006"><a xlink:href="MotorDriver_8hpp_source.html" target="_top" xlink:title=" ">
<polygon fill="white" stroke="#666666" points="232,-255.5 60,-255.5 60,-236.5 232,-236.5 232,-255.5"/>
<text text-anchor="middle" x="146" y="-243.5" font-family="Helvetica,sans-Serif" font-size="10.00">BuggySoftware/MotorDriver.hpp</text>
</a>
</g>
</g>
<!-- Node5&#45;&gt;Node6 -->
<g id="edge7_Node000005_Node000006" class="edge">
<title>Node5&#45;&gt;Node6</title>
<g id="a_edge7_Node000005_Node000006"><a xlink:title=" ">
<path fill="none" stroke="#63b8ff" d="M141.25,-286.66C142.5,-276.24 143.99,-263.8 144.96,-255.67"/>
<polygon fill="#63b8ff" stroke="#63b8ff" points="137.75,-286.52 140.03,-296.87 144.7,-287.35 137.75,-286.52"/>
</a>
</g>
</g>
<!-- Node9 -->
<g id="Node000009" class="node">
<title>Node9</title>
<g id="a_Node000009"><a xlink:href="UltrasonicSensor_8hpp_source.html" target="_top" xlink:title=" ">
<polygon fill="white" stroke="#666666" points="441.5,-195 298.5,-195 298.5,-165 441.5,-165 441.5,-195"/>
<text text-anchor="start" x="306.5" y="-183" font-family="Helvetica,sans-Serif" font-size="10.00">BuggySoftware/Ultrasonic</text>
<text text-anchor="middle" x="370" y="-172" font-family="Helvetica,sans-Serif" font-size="10.00">Sensor.hpp</text>
</a>
</g>
</g>
<!-- Node5&#45;&gt;Node9 -->
<g id="edge15_Node000005_Node000009" class="edge">
<title>Node5&#45;&gt;Node9</title>
<g id="a_edge15_Node000005_Node000009"><a xlink:title=" ">
<path fill="none" stroke="#63b8ff" d="M170.77,-293.02C191.18,-284.67 218.06,-273.04 241,-261 280.44,-240.31 324.02,-212.07 349.09,-195.27"/>
<polygon fill="#63b8ff" stroke="#63b8ff" points="169.27,-289.85 161.32,-296.85 171.9,-296.34 169.27,-289.85"/>
</a>
</g>
</g>
<!-- Node6&#45;&gt;Node2 -->
<g id="edge8_Node000006_Node000002" class="edge">
<title>Node6&#45;&gt;Node2</title>
<g id="a_edge8_Node000006_Node000002"><a xlink:title=" ">
<path fill="none" stroke="#63b8ff" d="M104.78,-232.5C86.78,-224.76 67.42,-212.81 57,-195 50.27,-183.49 51.76,-177.26 57,-165 75.26,-122.26 121.89,-89.1 146.02,-74.16"/>
<polygon fill="#63b8ff" stroke="#63b8ff" points="103.99,-235.95 114.58,-236.38 106.57,-229.44 103.99,-235.95"/>
</a>
</g>
</g>
<!-- Node7 -->
<g id="Node000007" class="node">
<title>Node7</title>
<g id="a_Node000007"><a xlink:href="CruiseControl_8hpp_source.html" target="_top" xlink:title=" ">
<polygon fill="white" stroke="#666666" points="360,-129 180,-129 180,-110 360,-110 360,-129"/>
<text text-anchor="middle" x="270" y="-117" font-family="Helvetica,sans-Serif" font-size="10.00">BuggySoftware/CruiseControl.hpp</text>
</a>
</g>
</g>
<!-- Node6&#45;&gt;Node7 -->
<g id="edge9_Node000006_Node000007" class="edge">
<title>Node6&#45;&gt;Node7</title>
<g id="a_edge9_Node000006_Node000007"><a xlink:title=" ">
<path fill="none" stroke="#63b8ff" d="M190.33,-233.16C211.18,-225.47 234.76,-213.37 250,-195 266.07,-175.62 269.33,-144.53 269.92,-129.38"/>
<polygon fill="#63b8ff" stroke="#63b8ff" points="188.98,-229.92 180.67,-236.49 191.26,-236.54 188.98,-229.92"/>
</a>
</g>
</g>
<!-- Node8 -->
<g id="Node000008" class="node">
<title>Node8</title>
<g id="a_Node000008"><a xlink:href="LineFollower_8hpp_source.html" target="_top" xlink:title=" ">
<polygon fill="white" stroke="#666666" points="241.5,-189.5 66.5,-189.5 66.5,-170.5 241.5,-170.5 241.5,-189.5"/>
<text text-anchor="middle" x="154" y="-177.5" font-family="Helvetica,sans-Serif" font-size="10.00">BuggySoftware/LineFollower.hpp</text>
</a>
</g>
</g>
<!-- Node6&#45;&gt;Node8 -->
<g id="edge12_Node000006_Node000008" class="edge">
<title>Node6&#45;&gt;Node8</title>
<g id="a_edge12_Node000006_Node000008"><a xlink:title=" ">
<path fill="none" stroke="#63b8ff" d="M148.36,-226.08C149.86,-214.13 151.72,-199.22 152.89,-189.91"/>
<polygon fill="#63b8ff" stroke="#63b8ff" points="144.85,-226.01 147.08,-236.37 151.79,-226.88 144.85,-226.01"/>
</a>
</g>
</g>
<!-- Node7&#45;&gt;Node2 -->
<g id="edge10_Node000007_Node000002" class="edge">
<title>Node7&#45;&gt;Node2</title>
<g id="a_edge10_Node000007_Node000002"><a xlink:title=" ">
<path fill="none" stroke="#63b8ff" d="M243.27,-105.5C223.21,-95.75 196.32,-82.68 178.83,-74.17"/>
<polygon fill="#63b8ff" stroke="#63b8ff" points="241.96,-108.76 252.49,-109.98 245.02,-102.46 241.96,-108.76"/>
</a>
</g>
</g>
<!-- Node7&#45;&gt;Node3 -->
<g id="edge11_Node000007_Node000003" class="edge">
<title>Node7&#45;&gt;Node3</title>
<g id="a_edge11_Node000007_Node000003"><a xlink:title=" ">
<path fill="none" stroke="#63b8ff" d="M290,-103.5C320.57,-80.57 377.97,-37.52 402.46,-19.16"/>
<polygon fill="#63b8ff" stroke="#63b8ff" points="287.68,-100.86 281.78,-109.66 291.88,-106.46 287.68,-100.86"/>
</a>
</g>
</g>
<!-- Node8&#45;&gt;Node2 -->
<g id="edge13_Node000008_Node000002" class="edge">
<title>Node8&#45;&gt;Node2</title>
<g id="a_edge13_Node000008_Node000002"><a xlink:title=" ">
<path fill="none" stroke="#63b8ff" d="M155.16,-160.15C156.7,-135.24 159.34,-92.38 160.47,-74.13"/>
<polygon fill="#63b8ff" stroke="#63b8ff" points="151.65,-160.27 154.53,-170.47 158.64,-160.7 151.65,-160.27"/>
</a>
</g>
</g>
<!-- Node8&#45;&gt;Node7 -->
<g id="edge14_Node000008_Node000007" class="edge">
<title>Node8&#45;&gt;Node7</title>
<g id="a_edge14_Node000008_Node000007"><a xlink:title=" ">
<path fill="none" stroke="#63b8ff" d="M180.32,-165.73C202.53,-154.53 233.68,-138.82 252.81,-129.17"/>
<polygon fill="#63b8ff" stroke="#63b8ff" points="178.47,-162.74 171.12,-170.37 181.62,-168.99 178.47,-162.74"/>
</a>
</g>
</g>
<!-- Node9&#45;&gt;Node2 -->
<g id="edge16_Node000009_Node000002" class="edge">
<title>Node9&#45;&gt;Node2</title>
<g id="a_edge16_Node000009_Node000002"><a xlink:title=" ">
<path fill="none" stroke="#63b8ff" d="M376.54,-154.98C378.98,-140.4 379.09,-122.3 369,-110 351.78,-89.02 285.75,-77.46 232.65,-71.42"/>
<polygon fill="#63b8ff" stroke="#63b8ff" points="373.1,-154.33 374.46,-164.83 379.95,-155.77 373.1,-154.33"/>
</a>
</g>
</g>
<!-- Node9&#45;&gt;Node7 -->
<g id="edge17_Node000009_Node000007" class="edge">
<title>Node9&#45;&gt;Node7</title>
<g id="a_edge17_Node000009_Node000007"><a xlink:title=" ">
<path fill="none" stroke="#63b8ff" d="M337.15,-159.78C319.46,-149.43 298.51,-137.18 284.77,-129.14"/>
<polygon fill="#63b8ff" stroke="#63b8ff" points="335.65,-162.96 346.05,-164.99 339.18,-156.92 335.65,-162.96"/>
</a>
</g>
</g>
<!-- Node11 -->
<g id="Node000011" class="node">
<title>Node11</title>
<g id="a_Node000011"><a xlink:href="SerialWirelessLogger_8hpp_source.html" target="_top" xlink:title=" ">
<polygon fill="white" stroke="#666666" points="551.5,-261 388.5,-261 388.5,-231 551.5,-231 551.5,-261"/>
<text text-anchor="start" x="396.5" y="-249" font-family="Helvetica,sans-Serif" font-size="10.00">BuggySoftware/SerialWireless</text>
<text text-anchor="middle" x="470" y="-238" font-family="Helvetica,sans-Serif" font-size="10.00">Logger.hpp</text>
</a>
</g>
</g>
<!-- Node10&#45;&gt;Node11 -->
<g id="edge19_Node000010_Node000011" class="edge">
<title>Node10&#45;&gt;Node11</title>
<g id="a_edge19_Node000010_Node000011"><a xlink:title=" ">
<path fill="none" stroke="#63b8ff" d="M526.86,-290.77C515.05,-281.68 499.99,-270.09 488.34,-261.11"/>
<polygon fill="#63b8ff" stroke="#63b8ff" points="524.73,-293.54 534.79,-296.87 529,-287.99 524.73,-293.54"/>
</a>
</g>
</g>
<!-- Node11&#45;&gt;Node3 -->
<g id="edge20_Node000011_Node000003" class="edge">
<title>Node11&#45;&gt;Node3</title>
<g id="a_edge20_Node000011_Node000003"><a xlink:title=" ">
<path fill="none" stroke="#63b8ff" d="M464.26,-220.8C460.5,-204.93 455.47,-183.73 451,-165 437.76,-109.46 421.74,-42.72 416.09,-19.21"/>
<polygon fill="#63b8ff" stroke="#63b8ff" points="460.93,-221.91 466.64,-230.84 467.74,-220.3 460.93,-221.91"/>
</a>
</g>
</g>
<!-- Node12&#45;&gt;Node11 -->
<g id="edge22_Node000012_Node000011" class="edge">
<title>Node12&#45;&gt;Node11</title>
<g id="a_edge22_Node000012_Node000011"><a xlink:title=" ">
<path fill="none" stroke="#63b8ff" d="M374.15,-292.59C393.69,-283.29 420.06,-270.75 440.19,-261.18"/>
<polygon fill="#63b8ff" stroke="#63b8ff" points="372.41,-289.54 364.89,-296.99 375.42,-295.86 372.41,-289.54"/>
</a>
</g>
</g>
</g>
</svg>

<g id="navigator" transform="translate(0 0)" fill="#404254">
  <rect fill="#f2f5e9" fill-opacity="0.5" stroke="#606060" stroke-width=".5" x="0" y="0" width="60" height="60"/>
  <use id="zoomplus" xlink:href="#zoomPlus" x="17" y="9" onmousedown="handleZoom(evt,'in')"/>
  <use id="zoomminus" xlink:href="#zoomMin" x="42" y="9" onmousedown="handleZoom(evt,'out')"/>
  <use id="reset" xlink:href="#resetDef" x="30" y="36" onmousedown="handleReset()"/>
   <use id="arrowup" xlink:href="#arrowUp" x="0" y="0" onmousedown="handlePan(0,-1)"/>
  <use id="arrowright" xlink:href="#arrowRight" x="0" y="0" onmousedown="handlePan(1,0)"/>
  <use id="arrowdown" xlink:href="#arrowDown" x="0" y="0" onmousedown="handlePan(0,1)"/>
  <use id="arrowleft" xlink:href="#arrowLeft" x="0" y="0" onmousedown="handlePan(-1,0)"/>
</g>
<svg viewBox="0 0 15 15" width="100%" height="30px" preserveAspectRatio="xMaxYMin meet">
 <g id="arrow_out" transform="scale(0.3 0.3)">
  <a xlink:href="EmbeddedLogger_8hpp__dep__incl_org.svg" target="_base">
   <rect id="button" ry="5" rx="5" y="6" x="6" height="38" width="38"
        fill="#f2f5e9" fill-opacity="0.5" stroke="#606060" stroke-width="1.0"/>
   <path id="arrow"
     d="M 11.500037,31.436501 C 11.940474,20.09759 22.043105,11.32322 32.158766,21.979434 L 37.068811,17.246167 C 37.068811,17.246167 37.088388,32 37.088388,32 L 22.160133,31.978069 C 22.160133,31.978069 26.997745,27.140456 26.997745,27.140456 C 18.528582,18.264221 13.291696,25.230495 11.500037,31.436501 z"
     style="fill:#404040;"/>
  </a>
 </g>
</svg>

<style type='text/css'>
<![CDATA[
[data-mouse-over-selected='false'] { opacity: 0.7; }
[data-mouse-over-selected='true']  { opacity: 1.0; }
]]>
</style>
<script type="application/ecmascript"><![CDATA[
document.addEventListener('DOMContentLoaded', (event) => {
  highlightEdges();
  highlightAdjacentNodes();
});
]]></script>
</svg>
