<?xml version="1.0" encoding="UTF-8" standalone="no"?>
<!DOCTYPE svg PUBLIC "-//W3C//DTD SVG 1.1//EN"
 "http://www.w3.org/Graphics/SVG/1.1/DTD/svg11.dtd">
<!-- Generated by graphviz version 2.43.0 (0)
 -->
<!-- Title: BuggySoftware/EmbeddedLogger.hpp Pages: 1 -->
<svg width="629pt" height="203pt"
 viewBox="0.00 0.00 628.97 203.00" xmlns="http://www.w3.org/2000/svg" xmlns:xlink="http://www.w3.org/1999/xlink">
<g id="graph0" class="graph" transform="scale(1 1) rotate(0) translate(4 199)">
<title>BuggySoftware/EmbeddedLogger.hpp</title>
<!-- Node1 -->
<g id="Node000001" class="node">
<title>Node1</title>
<g id="a_Node000001"><a xlink:title=" ">
<polygon fill="#999999" stroke="#666666" points="368.97,-195 170.97,-195 170.97,-176 368.97,-176 368.97,-195"/>
<text text-anchor="middle" x="269.97" y="-183" font-family="Helvetica,sans-Serif" font-size="10.00">BuggySoftware/EmbeddedLogger.hpp</text>
</a>
</g>
</g>
<!-- Node2 -->
<g id="Node000002" class="node">
<title>Node2</title>
<g id="a_Node000002"><a xlink:href="Buggy_8hpp_source.html" target="_top" xlink:title=" ">
<polygon fill="white" stroke="#666666" points="171.47,-140 28.47,-140 28.47,-121 171.47,-121 171.47,-140"/>
<text text-anchor="middle" x="99.97" y="-128" font-family="Helvetica,sans-Serif" font-size="10.00">BuggySoftware/Buggy.hpp</text>
</a>
</g>
</g>
<!-- Node1&#45;&gt;Node2 -->
<g id="edge1_Node000001_Node000002" class="edge">
<title>Node1&#45;&gt;Node2</title>
<g id="a_edge1_Node000001_Node000002"><a xlink:title=" ">
<path fill="none" stroke="#63b8ff" d="M232.85,-172.93C201.1,-163.03 156.12,-149.01 127.5,-140.08"/>
<polygon fill="#63b8ff" stroke="#63b8ff" points="232.07,-176.35 242.66,-175.98 234.15,-169.67 232.07,-176.35"/>
</a>
</g>
</g>
<!-- Node3 -->
<g id="Node000003" class="node">
<title>Node3</title>
<g id="a_Node000003"><a xlink:href="BuggySoftware_8ino.html" target="_top" xlink:title="This is the main entry point for the Buggy software.">
<polygon fill="white" stroke="#666666" points="305.47,-19 120.47,-19 120.47,0 305.47,0 305.47,-19"/>
<text text-anchor="middle" x="212.97" y="-7" font-family="Helvetica,sans-Serif" font-size="10.00">BuggySoftware/BuggySoftware.ino</text>
</a>
</g>
</g>
<!-- Node1&#45;&gt;Node3 -->
<g id="edge5_Node000001_Node000003" class="edge">
<title>Node1&#45;&gt;Node3</title>
<g id="a_edge5_Node000001_Node000003"><a xlink:title=" ">
<path fill="none" stroke="#63b8ff" d="M252.58,-168.66C245.03,-160.79 236.82,-150.68 231.97,-140 212.81,-97.79 212.12,-40.62 212.63,-19.13"/>
<polygon fill="#63b8ff" stroke="#63b8ff" points="250.18,-171.2 259.76,-175.72 255.09,-166.21 250.18,-171.2"/>
</a>
</g>
</g>
<!-- Node5 -->
<g id="Node000005" class="node">
<title>Node5</title>
<g id="a_Node000005"><a xlink:href="SerialLogger_8hpp_source.html" target="_top" xlink:title=" ">
<polygon fill="white" stroke="#666666" points="414.97,-140 240.97,-140 240.97,-121 414.97,-121 414.97,-140"/>
<text text-anchor="middle" x="327.97" y="-128" font-family="Helvetica,sans-Serif" font-size="10.00">BuggySoftware/SerialLogger.hpp</text>
</a>
</g>
</g>
<!-- Node1&#45;&gt;Node5 -->
<g id="edge6_Node000001_Node000005" class="edge">
<title>Node1&#45;&gt;Node5</title>
<g id="a_edge6_Node000001_Node000005"><a xlink:title=" ">
<path fill="none" stroke="#63b8ff" d="M286.89,-169.04C297.18,-159.64 309.94,-147.98 318.48,-140.17"/>
<polygon fill="#63b8ff" stroke="#63b8ff" points="284.31,-166.66 279.29,-175.98 289.03,-171.82 284.31,-166.66"/>
</a>
</g>
</g>
<!-- Node7 -->
<g id="Node000007" class="node">
<title>Node7</title>
<g id="a_Node000007"><a xlink:href="WirelessLogger_8hpp_source.html" target="_top" xlink:title=" ">
<polygon fill="white" stroke="#666666" points="620.97,-140 432.97,-140 432.97,-121 620.97,-121 620.97,-140"/>
<text text-anchor="middle" x="526.97" y="-128" font-family="Helvetica,sans-Serif" font-size="10.00">BuggySoftware/WirelessLogger.hpp</text>
</a>
</g>
</g>
<!-- Node1&#45;&gt;Node7 -->
<g id="edge9_Node000001_Node000007" class="edge">
<title>Node1&#45;&gt;Node7</title>
<g id="a_edge9_Node000001_Node000007"><a xlink:title=" ">
<path fill="none" stroke="#63b8ff" d="M321.18,-173.94C369.35,-164.01 440.59,-149.31 485.36,-140.08"/>
<polygon fill="#63b8ff" stroke="#63b8ff" points="320.35,-170.54 311.26,-175.98 321.76,-177.39 320.35,-170.54"/>
</a>
</g>
</g>
<!-- Node2&#45;&gt;Node3 -->
<g id="edge2_Node000002_Node000003" class="edge">
<title>Node2&#45;&gt;Node3</title>
<g id="a_edge2_Node000002_Node000003"><a xlink:title=" ">
<path fill="none" stroke="#63b8ff" d="M49.53,-117.45C32.74,-110.78 15.82,-100.56 5.97,-85 -1.16,-73.73 -2.41,-65.37 5.97,-55 20.76,-36.7 72.51,-25.58 120.56,-19.03"/>
<polygon fill="#63b8ff" stroke="#63b8ff" points="48.76,-120.9 59.35,-120.99 51.13,-114.31 48.76,-120.9"/>
</a>
</g>
</g>
<!-- Node4 -->
<g id="Node000004" class="node">
<title>Node4</title>
<g id="a_Node000004"><a xlink:href="BuggyState_8hpp_source.html" target="_top" xlink:title=" ">
<polygon fill="white" stroke="#666666" points="184.97,-79.5 14.97,-79.5 14.97,-60.5 184.97,-60.5 184.97,-79.5"/>
<text text-anchor="middle" x="99.97" y="-67.5" font-family="Helvetica,sans-Serif" font-size="10.00">BuggySoftware/BuggyState.hpp</text>
</a>
</g>
</g>
<!-- Node2&#45;&gt;Node4 -->
<g id="edge3_Node000002_Node000004" class="edge">
<title>Node2&#45;&gt;Node4</title>
<g id="a_edge3_Node000002_Node000004"><a xlink:title=" ">
<path fill="none" stroke="#63b8ff" d="M93.62,-110.66C92.79,-100.24 93.26,-87.8 95.01,-79.67"/>
<polygon fill="#63b8ff" stroke="#63b8ff" points="90.19,-111.44 95.02,-120.87 97.13,-110.49 90.19,-111.44"/>
</a>
</g>
</g>
<!-- Node4&#45;&gt;Node2 -->
<g id="edge4_Node000004_Node000002" class="edge">
<title>Node4&#45;&gt;Node2</title>
<g id="a_edge4_Node000004_Node000002"><a xlink:title=" ">
<path fill="none" stroke="#63b8ff" d="M106.33,-89.89C107.15,-100.31 106.68,-112.75 104.93,-120.87"/>
<polygon fill="#63b8ff" stroke="#63b8ff" points="109.76,-89.1 104.94,-79.67 102.82,-90.05 109.76,-89.1"/>
</a>
</g>
</g>
<!-- Node6 -->
<g id="Node000006" class="node">
<title>Node6</title>
<g id="a_Node000006"><a xlink:href="SerialWirelessLogger_8hpp_source.html" target="_top" xlink:title=" ">
<polygon fill="white" stroke="#666666" points="409.47,-85 246.47,-85 246.47,-55 409.47,-55 409.47,-85"/>
<text text-anchor="start" x="254.47" y="-73" font-family="Helvetica,sans-Serif" font-size="10.00">BuggySoftware/SerialWireless</text>
<text text-anchor="middle" x="327.97" y="-62" font-family="Helvetica,sans-Serif" font-size="10.00">Logger.hpp</text>
</a>
</g>
</g>
<!-- Node5&#45;&gt;Node6 -->
<g id="edge7_Node000005_Node000006" class="edge">
<title>Node5&#45;&gt;Node6</title>
<g id="a_edge7_Node000005_Node000006"><a xlink:title=" ">
<path fill="none" stroke="#63b8ff" d="M327.97,-110.65C327.97,-102.36 327.97,-92.78 327.97,-85.11"/>
<polygon fill="#63b8ff" stroke="#63b8ff" points="324.47,-110.87 327.97,-120.87 331.47,-110.87 324.47,-110.87"/>
</a>
</g>
</g>
<!-- Node6&#45;&gt;Node3 -->
<g id="edge8_Node000006_Node000003" class="edge">
<title>Node6&#45;&gt;Node3</title>
<g id="a_edge8_Node000006_Node000003"><a xlink:title=" ">
<path fill="none" stroke="#63b8ff" d="M291.31,-50.35C270.73,-39.88 246.04,-27.32 229.96,-19.14"/>
<polygon fill="#63b8ff" stroke="#63b8ff" points="289.93,-53.57 300.43,-54.99 293.1,-47.33 289.93,-53.57"/>
</a>
</g>
</g>
<!-- Node7&#45;&gt;Node6 -->
<g id="edge10_Node000007_Node000006" class="edge">
<title>Node7&#45;&gt;Node6</title>
<g id="a_edge10_Node000007_Node000006"><a xlink:title=" ">
<path fill="none" stroke="#63b8ff" d="M488.11,-118.08C455.98,-108.63 410.2,-95.17 375.81,-85.06"/>
<polygon fill="#63b8ff" stroke="#63b8ff" points="487.45,-121.53 498.04,-120.99 489.43,-114.82 487.45,-121.53"/>
</a>
</g>
</g>
</g>
</svg>
