<?xml version="1.0" encoding="UTF-8" standalone="no"?>
<!DOCTYPE svg PUBLIC "-//W3C//DTD SVG 1.1//EN"
 "http://www.w3.org/Graphics/SVG/1.1/DTD/svg11.dtd">
<!-- Generated by graphviz version 2.43.0 (0)
 -->
<!-- Title: BuggySoftware/EmbeddedLogger.hpp Pages: 1 -->
<!--zoomable 313 -->

<svg id="main" version="1.1" xmlns="http://www.w3.org/2000/svg" xmlns:xlink="http://www.w3.org/1999/xlink" xml:space="preserve" onload="init(evt)">

<style type="text/css"><![CDATA[
.node, .edge {opacity: 0.7;}
.node.selected, .edge.selected {opacity: 1;}
.edge:hover path { stroke: red; }
.edge:hover polygon { stroke: red; fill: red; }
]]></style>

<defs>
  <circle id="rim" cx="0" cy="0" r="7"/>
  <circle id="rim2" cx="0" cy="0" r="3.5"/>
  <g id="zoomPlus">
    <use xlink:href="#rim" fill="#404040"><set attributeName="fill" to="#808080" begin="zoomplus.mouseover" end="zoomplus.mouseout"/></use>
    <path d="M-4,0h8M0,-4v8" fill="none" stroke="white" stroke-width="1.5" pointer-events="none"/>
  </g>
  <g id="zoomMin">
    <use xlink:href="#rim" fill="#404040"><set attributeName="fill" to="#808080" begin="zoomminus.mouseover" end="zoomminus.mouseout"/></use>
    <path d="M-4,0h8" fill="none" stroke="white" stroke-width="1.5" pointer-events="none"/>
  </g>
  <g id="arrowUp" transform="translate(30 24)">
    <use xlink:href="#rim"/>
    <path pointer-events="none" fill="none" stroke="white" stroke-width="1.5" d="M0,-3.0v7 M-2.5,-0.5L0,-3.0L2.5,-0.5"/>
  </g>
  <g id="arrowRight" transform="rotate(90) translate(36 -43)">
    <use xlink:href="#rim"/>
    <path pointer-events="none" fill="none" stroke="white" stroke-width="1.5" d="M0,-3.0v7 M-2.5,-0.5L0,-3.0L2.5,-0.5"/>
  </g>
  <g id="arrowDown" transform="rotate(180) translate(-30 -48)">
    <use xlink:href="#rim"/>
    <path pointer-events="none" fill="none" stroke="white" stroke-width="1.5" d="M0,-3.0v7 M-2.5,-0.5L0,-3.0L2.5,-0.5"/>
  </g>
  <g id="arrowLeft" transform="rotate(270) translate(-36 17)">
    <use xlink:href="#rim"/>
    <path pointer-events="none" fill="none" stroke="white" stroke-width="1.5" d="M0,-3.0v7 M-2.5,-0.5L0,-3.0L2.5,-0.5"/>
  </g>
  <g id="resetDef">
    <use xlink:href="#rim2" fill="#404040"><set attributeName="fill" to="#808080" begin="reset.mouseover" end="reset.mouseout"/></use>
  </g>
</defs>
<script type="application/ecmascript">
var viewWidth = 687;
var viewHeight = 313;
var sectionId = 'dynsection-1';
</script>
<script type="application/ecmascript" xlink:href="svg.min.js"/>
<svg id="graph" class="graph">
<g id="viewport">
<title>BuggySoftware/EmbeddedLogger.hpp</title>
<!-- Node1 -->
<g id="Node000001" class="node">
<title>Node1</title>
<g id="a_Node000001"><a xlink:title=" ">
<polygon fill="#999999" stroke="#666666" points="421.21,-305 223.21,-305 223.21,-286 421.21,-286 421.21,-305"/>
<text text-anchor="middle" x="322.21" y="-293" font-family="Helvetica,sans-Serif" font-size="10.00">BuggySoftware/EmbeddedLogger.hpp</text>
</a>
</g>
</g>
<!-- Node2 -->
<g id="Node000002" class="node">
<title>Node2</title>
<g id="a_Node000002"><a xlink:href="Buggy_8hpp_source.html" target="_top" xlink:title=" ">
<polygon fill="white" stroke="#666666" points="527.71,-74 384.71,-74 384.71,-55 527.71,-55 527.71,-74"/>
<text text-anchor="middle" x="456.21" y="-62" font-family="Helvetica,sans-Serif" font-size="10.00">BuggySoftware/Buggy.hpp</text>
</a>
</g>
</g>
<!-- Node1&#45;&gt;Node2 -->
<g id="edge1_Node000001_Node000002" class="edge">
<title>Node1&#45;&gt;Node2</title>
<g id="a_edge1_Node000001_Node000002"><a xlink:title=" ">
<path fill="none" stroke="#63b8ff" d="M369.43,-282.51C387.17,-275.74 405.98,-265.43 418.21,-250 461.66,-195.14 459.02,-103.07 456.98,-74.34"/>
<polygon fill="#63b8ff" stroke="#63b8ff" points="368.01,-279.3 359.73,-285.92 370.33,-285.91 368.01,-279.3"/>
</a>
</g>
</g>
<!-- Node3 -->
<g id="Node000003" class="node">
<title>Node3</title>
<g id="a_Node000003"><a xlink:href="BuggySoftware_8ino.html" target="_top" xlink:title="This is the main entry point for the Buggy software.">
<polygon fill="white" stroke="#666666" points="293.71,-19 108.71,-19 108.71,0 293.71,0 293.71,-19"/>
<text text-anchor="middle" x="201.21" y="-7" font-family="Helvetica,sans-Serif" font-size="10.00">BuggySoftware/BuggySoftware.ino</text>
</a>
</g>
</g>
<!-- Node1&#45;&gt;Node3 -->
<g id="edge5_Node000001_Node000003" class="edge">
<title>Node1&#45;&gt;Node3</title>
<g id="a_edge5_Node000001_Node000003"><a xlink:title=" ">
<path fill="none" stroke="#63b8ff" d="M212.75,-290.72C138.31,-285.91 48.4,-274.94 20.21,-250 -3.62,-228.93 1.21,-212.81 1.21,-181 1.21,-181 1.21,-181 1.21,-118.5 1.21,-57.24 74.76,-30.56 132.66,-19.05"/>
<polygon fill="#63b8ff" stroke="#63b8ff" points="212.95,-294.24 223.15,-291.36 213.38,-287.26 212.95,-294.24"/>
</a>
</g>
</g>
<!-- Node5 -->
<g id="Node000005" class="node">
<title>Node5</title>
<g id="a_Node000005"><a xlink:href="MoveMeanFilter_8hpp_source.html" target="_top" xlink:title=" ">
<polygon fill="white" stroke="#666666" points="657.21,-250 465.21,-250 465.21,-231 657.21,-231 657.21,-250"/>
<text text-anchor="middle" x="561.21" y="-238" font-family="Helvetica,sans-Serif" font-size="10.00">BuggySoftware/MoveMeanFilter.hpp</text>
</a>
</g>
</g>
<!-- Node1&#45;&gt;Node5 -->
<g id="edge6_Node000001_Node000005" class="edge">
<title>Node1&#45;&gt;Node5</title>
<g id="a_edge6_Node000001_Node000005"><a xlink:title=" ">
<path fill="none" stroke="#63b8ff" d="M370.39,-283.82C415.18,-273.88 481.05,-259.28 522.51,-250.08"/>
<polygon fill="#63b8ff" stroke="#63b8ff" points="369.61,-280.4 360.61,-285.98 371.13,-287.24 369.61,-280.4"/>
</a>
</g>
</g>
<!-- Node8 -->
<g id="Node000008" class="node">
<title>Node8</title>
<g id="a_Node000008"><a xlink:href="SerialLogger_8hpp_source.html" target="_top" xlink:title=" ">
<polygon fill="white" stroke="#666666" points="409.21,-250 235.21,-250 235.21,-231 409.21,-231 409.21,-250"/>
<text text-anchor="middle" x="322.21" y="-238" font-family="Helvetica,sans-Serif" font-size="10.00">BuggySoftware/SerialLogger.hpp</text>
</a>
</g>
</g>
<!-- Node1&#45;&gt;Node8 -->
<g id="edge11_Node000001_Node000008" class="edge">
<title>Node1&#45;&gt;Node8</title>
<g id="a_edge11_Node000001_Node000008"><a xlink:title=" ">
<path fill="none" stroke="#63b8ff" d="M322.21,-275.66C322.21,-266.93 322.21,-256.99 322.21,-250.09"/>
<polygon fill="#63b8ff" stroke="#63b8ff" points="318.71,-275.75 322.21,-285.75 325.71,-275.75 318.71,-275.75"/>
</a>
</g>
</g>
<!-- Node10 -->
<g id="Node000010" class="node">
<title>Node10</title>
<g id="a_Node000010"><a xlink:href="WirelessLogger_8hpp_source.html" target="_top" xlink:title=" ">
<polygon fill="white" stroke="#666666" points="217.21,-250 29.21,-250 29.21,-231 217.21,-231 217.21,-250"/>
<text text-anchor="middle" x="123.21" y="-238" font-family="Helvetica,sans-Serif" font-size="10.00">BuggySoftware/WirelessLogger.hpp</text>
</a>
</g>
</g>
<!-- Node1&#45;&gt;Node10 -->
<g id="edge14_Node000001_Node000010" class="edge">
<title>Node1&#45;&gt;Node10</title>
<g id="a_edge14_Node000001_Node000010"><a xlink:title=" ">
<path fill="none" stroke="#63b8ff" d="M280.19,-283.31C242.96,-273.39 189.37,-259.12 155.43,-250.08"/>
<polygon fill="#63b8ff" stroke="#63b8ff" points="279.67,-286.79 290.23,-285.98 281.47,-280.03 279.67,-286.79"/>
</a>
</g>
</g>
<!-- Node2&#45;&gt;Node3 -->
<g id="edge2_Node000002_Node000003" class="edge">
<title>Node2&#45;&gt;Node3</title>
<g id="a_edge2_Node000002_Node000003"><a xlink:title=" ">
<path fill="none" stroke="#63b8ff" d="M405.4,-52.94C357.6,-43.01 286.92,-28.31 242.5,-19.08"/>
<polygon fill="#63b8ff" stroke="#63b8ff" points="404.73,-56.38 415.24,-54.98 406.16,-49.52 404.73,-56.38"/>
</a>
</g>
</g>
<!-- Node4 -->
<g id="Node000004" class="node">
<title>Node4</title>
<g id="a_Node000004"><a xlink:href="BuggyState_8hpp_source.html" target="_top" xlink:title=" ">
<polygon fill="white" stroke="#666666" points="541.21,-19 371.21,-19 371.21,0 541.21,0 541.21,-19"/>
<text text-anchor="middle" x="456.21" y="-7" font-family="Helvetica,sans-Serif" font-size="10.00">BuggySoftware/BuggyState.hpp</text>
</a>
</g>
</g>
<!-- Node2&#45;&gt;Node4 -->
<g id="edge3_Node000002_Node000004" class="edge">
<title>Node2&#45;&gt;Node4</title>
<g id="a_edge3_Node000002_Node000004"><a xlink:title=" ">
<path fill="none" stroke="#63b8ff" d="M449.71,-44.66C449.11,-35.93 449.57,-25.99 451.08,-19.09"/>
<polygon fill="#63b8ff" stroke="#63b8ff" points="446.27,-45.29 451.04,-54.75 453.21,-44.38 446.27,-45.29"/>
</a>
</g>
</g>
<!-- Node4&#45;&gt;Node2 -->
<g id="edge4_Node000004_Node000002" class="edge">
<title>Node4&#45;&gt;Node2</title>
<g id="a_edge4_Node000004_Node000002"><a xlink:title=" ">
<path fill="none" stroke="#63b8ff" d="M462.68,-29.13C463.3,-37.85 462.87,-47.8 461.37,-54.75"/>
<polygon fill="#63b8ff" stroke="#63b8ff" points="466.14,-28.53 461.34,-19.09 459.2,-29.47 466.14,-28.53"/>
</a>
</g>
</g>
<!-- Node6 -->
<g id="Node000006" class="node">
<title>Node6</title>
<g id="a_Node000006"><a xlink:href="MotorDriver_8hpp_source.html" target="_top" xlink:title=" ">
<polygon fill="white" stroke="#666666" points="647.21,-189.5 475.21,-189.5 475.21,-170.5 647.21,-170.5 647.21,-189.5"/>
<text text-anchor="middle" x="561.21" y="-177.5" font-family="Helvetica,sans-Serif" font-size="10.00">BuggySoftware/MotorDriver.hpp</text>
</a>
</g>
</g>
<!-- Node5&#45;&gt;Node6 -->
<g id="edge7_Node000005_Node000006" class="edge">
<title>Node5&#45;&gt;Node6</title>
<g id="a_edge7_Node000005_Node000006"><a xlink:title=" ">
<path fill="none" stroke="#63b8ff" d="M561.21,-220.66C561.21,-210.24 561.21,-197.8 561.21,-189.67"/>
<polygon fill="#63b8ff" stroke="#63b8ff" points="557.71,-220.87 561.21,-230.87 564.71,-220.87 557.71,-220.87"/>
</a>
</g>
</g>
<!-- Node6&#45;&gt;Node2 -->
<g id="edge8_Node000006_Node000002" class="edge">
<title>Node6&#45;&gt;Node2</title>
<g id="a_edge8_Node000006_Node000002"><a xlink:title=" ">
<path fill="none" stroke="#63b8ff" d="M538.1,-164.65C524.58,-155.52 507.76,-142.84 495.21,-129 479.56,-111.75 466.64,-87.36 460.34,-74.41"/>
<polygon fill="#63b8ff" stroke="#63b8ff" points="536.56,-167.82 546.84,-170.37 540.39,-161.96 536.56,-167.82"/>
</a>
</g>
</g>
<!-- Node7 -->
<g id="Node000007" class="node">
<title>Node7</title>
<g id="a_Node000007"><a xlink:href="LineFollower_8hpp_source.html" target="_top" xlink:title=" ">
<polygon fill="white" stroke="#666666" points="678.71,-129 503.71,-129 503.71,-110 678.71,-110 678.71,-129"/>
<text text-anchor="middle" x="591.21" y="-117" font-family="Helvetica,sans-Serif" font-size="10.00">BuggySoftware/LineFollower.hpp</text>
</a>
</g>
</g>
<!-- Node6&#45;&gt;Node7 -->
<g id="edge9_Node000006_Node000007" class="edge">
<title>Node6&#45;&gt;Node7</title>
<g id="a_edge9_Node000006_Node000007"><a xlink:title=" ">
<path fill="none" stroke="#63b8ff" d="M570.36,-161.15C575.8,-150.54 582.46,-137.56 586.76,-129.17"/>
<polygon fill="#63b8ff" stroke="#63b8ff" points="567.08,-159.87 565.63,-170.37 573.31,-163.07 567.08,-159.87"/>
</a>
</g>
</g>
<!-- Node7&#45;&gt;Node2 -->
<g id="edge10_Node000007_Node000002" class="edge">
<title>Node7&#45;&gt;Node2</title>
<g id="a_edge10_Node000007_Node000002"><a xlink:title=" ">
<path fill="none" stroke="#63b8ff" d="M560.11,-106.29C535.09,-96.47 500.55,-82.91 478.29,-74.17"/>
<polygon fill="#63b8ff" stroke="#63b8ff" points="558.93,-109.59 569.52,-109.98 561.49,-103.07 558.93,-109.59"/>
</a>
</g>
</g>
<!-- Node9 -->
<g id="Node000009" class="node">
<title>Node9</title>
<g id="a_Node000009"><a xlink:href="SerialWirelessLogger_8hpp_source.html" target="_top" xlink:title=" ">
<polygon fill="white" stroke="#666666" points="282.71,-195 119.71,-195 119.71,-165 282.71,-165 282.71,-195"/>
<text text-anchor="start" x="127.71" y="-183" font-family="Helvetica,sans-Serif" font-size="10.00">BuggySoftware/SerialWireless</text>
<text text-anchor="middle" x="201.21" y="-172" font-family="Helvetica,sans-Serif" font-size="10.00">Logger.hpp</text>
</a>
</g>
</g>
<!-- Node8&#45;&gt;Node9 -->
<g id="edge12_Node000008_Node000009" class="edge">
<title>Node8&#45;&gt;Node9</title>
<g id="a_edge12_Node000008_Node000009"><a xlink:title=" ">
<path fill="none" stroke="#63b8ff" d="M295.5,-226.59C276.27,-217.29 250.34,-204.75 230.53,-195.18"/>
<polygon fill="#63b8ff" stroke="#63b8ff" points="294.09,-229.79 304.61,-230.99 297.13,-223.49 294.09,-229.79"/>
</a>
</g>
</g>
<!-- Node9&#45;&gt;Node3 -->
<g id="edge13_Node000009_Node000003" class="edge">
<title>Node9&#45;&gt;Node3</title>
<g id="a_edge13_Node000009_Node000003"><a xlink:title=" ">
<path fill="none" stroke="#63b8ff" d="M201.21,-154.69C201.21,-116.5 201.21,-44.23 201.21,-19.25"/>
<polygon fill="#63b8ff" stroke="#63b8ff" points="197.71,-154.92 201.21,-164.92 204.71,-154.92 197.71,-154.92"/>
</a>
</g>
</g>
<!-- Node10&#45;&gt;Node9 -->
<g id="edge15_Node000010_Node000009" class="edge">
<title>Node10&#45;&gt;Node9</title>
<g id="a_edge15_Node000010_Node000009"><a xlink:title=" ">
<path fill="none" stroke="#63b8ff" d="M142.85,-224.77C154.97,-215.68 170.43,-204.09 182.39,-195.11"/>
<polygon fill="#63b8ff" stroke="#63b8ff" points="140.62,-222.07 134.72,-230.87 144.82,-227.67 140.62,-222.07"/>
</a>
</g>
</g>
</g>
</svg>

<g id="navigator" transform="translate(0 0)" fill="#404254">
  <rect fill="#f2f5e9" fill-opacity="0.5" stroke="#606060" stroke-width=".5" x="0" y="0" width="60" height="60"/>
  <use id="zoomplus" xlink:href="#zoomPlus" x="17" y="9" onmousedown="handleZoom(evt,'in')"/>
  <use id="zoomminus" xlink:href="#zoomMin" x="42" y="9" onmousedown="handleZoom(evt,'out')"/>
  <use id="reset" xlink:href="#resetDef" x="30" y="36" onmousedown="handleReset()"/>
   <use id="arrowup" xlink:href="#arrowUp" x="0" y="0" onmousedown="handlePan(0,-1)"/>
  <use id="arrowright" xlink:href="#arrowRight" x="0" y="0" onmousedown="handlePan(1,0)"/>
  <use id="arrowdown" xlink:href="#arrowDown" x="0" y="0" onmousedown="handlePan(0,1)"/>
  <use id="arrowleft" xlink:href="#arrowLeft" x="0" y="0" onmousedown="handlePan(-1,0)"/>
</g>
<svg viewBox="0 0 15 15" width="100%" height="30px" preserveAspectRatio="xMaxYMin meet">
 <g id="arrow_out" transform="scale(0.3 0.3)">
  <a xlink:href="EmbeddedLogger_8hpp__dep__incl_org.svg" target="_base">
   <rect id="button" ry="5" rx="5" y="6" x="6" height="38" width="38"
        fill="#f2f5e9" fill-opacity="0.5" stroke="#606060" stroke-width="1.0"/>
   <path id="arrow"
     d="M 11.500037,31.436501 C 11.940474,20.09759 22.043105,11.32322 32.158766,21.979434 L 37.068811,17.246167 C 37.068811,17.246167 37.088388,32 37.088388,32 L 22.160133,31.978069 C 22.160133,31.978069 26.997745,27.140456 26.997745,27.140456 C 18.528582,18.264221 13.291696,25.230495 11.500037,31.436501 z"
     style="fill:#404040;"/>
  </a>
 </g>
</svg>

<style type='text/css'>
<![CDATA[
[data-mouse-over-selected='false'] { opacity: 0.7; }
[data-mouse-over-selected='true']  { opacity: 1.0; }
]]>
</style>
<script type="application/ecmascript"><![CDATA[
document.addEventListener('DOMContentLoaded', (event) => {
  highlightEdges();
  highlightAdjacentNodes();
});
]]></script>
</svg>
