<?xml version="1.0" encoding="UTF-8" standalone="no"?>
<!DOCTYPE svg PUBLIC "-//W3C//DTD SVG 1.1//EN"
 "http://www.w3.org/Graphics/SVG/1.1/DTD/svg11.dtd">
<!-- Generated by graphviz version 2.43.0 (0)
 -->
<!-- Title: Graphical Class Hierarchy Pages: 1 -->
<svg width="583pt" height="76pt"
 viewBox="0.00 0.00 583.00 75.50" xmlns="http://www.w3.org/2000/svg" xmlns:xlink="http://www.w3.org/1999/xlink">
<g id="graph0" class="graph" transform="scale(1 1) rotate(0) translate(4 71.5)">
<title>Graphical Class Hierarchy</title>
<!-- Node0 -->
<g id="Node000000" class="node">
<title>Node0</title>
<g id="a_Node000000"><a xlink:href="classEmbeddedLogger_1_1ILogTarget.html" target="_top" xlink:title=" ">
<polygon fill="white" stroke="#666666" points="158,-45.5 0,-45.5 0,-26.5 158,-26.5 158,-45.5"/>
<text text-anchor="middle" x="79" y="-33.5" font-family="Helvetica,sans-Serif" font-size="10.00">EmbeddedLogger::ILogTarget</text>
</a>
</g>
</g>
<!-- Node1 -->
<g id="Node000001" class="node">
<title>Node1</title>
<g id="a_Node000001"><a xlink:href="classEmbeddedLogger_1_1SerialLogger.html" target="_top" xlink:title=" ">
<polygon fill="white" stroke="#666666" points="362,-67.5 194,-67.5 194,-48.5 362,-48.5 362,-67.5"/>
<text text-anchor="middle" x="278" y="-55.5" font-family="Helvetica,sans-Serif" font-size="10.00">EmbeddedLogger::SerialLogger</text>
</a>
</g>
</g>
<!-- Node0&#45;&gt;Node1 -->
<g id="edge7_Node000000_Node000001" class="edge">
<title>Node0&#45;&gt;Node1</title>
<g id="a_edge7_Node000000_Node000001"><a xlink:title=" ">
<path fill="none" stroke="#63b8ff" d="M168.1,-45.84C176.64,-46.79 185.28,-47.76 193.77,-48.71"/>
<polygon fill="#63b8ff" stroke="#63b8ff" points="168.47,-42.36 158.14,-44.73 167.69,-49.31 168.47,-42.36"/>
</a>
</g>
</g>
<!-- Node3 -->
<g id="Node000003" class="node">
<title>Node3</title>
<g id="a_Node000003"><a xlink:href="classEmbeddedLogger_1_1WirelessLogger.html" target="_top" xlink:title=" ">
<polygon fill="white" stroke="#666666" points="352.5,-30 203.5,-30 203.5,0 352.5,0 352.5,-30"/>
<text text-anchor="start" x="211.5" y="-18" font-family="Helvetica,sans-Serif" font-size="10.00">EmbeddedLogger::Wireless</text>
<text text-anchor="middle" x="278" y="-7" font-family="Helvetica,sans-Serif" font-size="10.00">Logger</text>
</a>
</g>
</g>
<!-- Node0&#45;&gt;Node3 -->
<g id="edge9_Node000000_Node000003" class="edge">
<title>Node0&#45;&gt;Node3</title>
<g id="a_edge9_Node000000_Node000003"><a xlink:title=" ">
<path fill="none" stroke="#63b8ff" d="M168.38,-26.58C180.1,-25.33 192.01,-24.06 203.44,-22.84"/>
<polygon fill="#63b8ff" stroke="#63b8ff" points="167.72,-23.13 158.14,-27.67 168.46,-30.09 167.72,-23.13"/>
</a>
</g>
</g>
<!-- Node2 -->
<g id="Node000002" class="node">
<title>Node2</title>
<g id="a_Node000002"><a xlink:href="classEmbeddedLogger_1_1SerialWirelessLogger.html" target="_top" xlink:title=" ">
<polygon fill="white" stroke="#666666" points="575,-51 398,-51 398,-21 575,-21 575,-51"/>
<text text-anchor="start" x="406" y="-39" font-family="Helvetica,sans-Serif" font-size="10.00">EmbeddedLogger::SerialWireless</text>
<text text-anchor="middle" x="486.5" y="-28" font-family="Helvetica,sans-Serif" font-size="10.00">Logger</text>
</a>
</g>
</g>
<!-- Node1&#45;&gt;Node2 -->
<g id="edge8_Node000001_Node000002" class="edge">
<title>Node1&#45;&gt;Node2</title>
<g id="a_edge8_Node000001_Node000002"><a xlink:title=" ">
<path fill="none" stroke="#63b8ff" d="M372.1,-48.08C380.67,-47.17 389.33,-46.25 397.85,-45.34"/>
<polygon fill="#63b8ff" stroke="#63b8ff" points="371.67,-44.61 362.1,-49.15 372.41,-51.57 371.67,-44.61"/>
</a>
</g>
</g>
<!-- Node3&#45;&gt;Node2 -->
<g id="edge10_Node000003_Node000002" class="edge">
<title>Node3&#45;&gt;Node2</title>
<g id="a_edge10_Node000003_Node000002"><a xlink:title=" ">
<path fill="none" stroke="#63b8ff" d="M362.71,-23.51C374.25,-24.69 386.13,-25.89 397.73,-27.07"/>
<polygon fill="#63b8ff" stroke="#63b8ff" points="362.98,-20.02 352.68,-22.49 362.27,-26.99 362.98,-20.02"/>
</a>
</g>
</g>
</g>
</svg>
