<?xml version="1.0" encoding="UTF-8" standalone="no"?>
<!DOCTYPE svg PUBLIC "-//W3C//DTD SVG 1.1//EN"
 "http://www.w3.org/Graphics/SVG/1.1/DTD/svg11.dtd">
<!-- Generated by graphviz version 2.43.0 (0)
 -->
<!-- Title: Graphical Class Hierarchy Pages: 1 -->
<svg width="273pt" height="212pt"
 viewBox="0.00 0.00 273.00 212.00" xmlns="http://www.w3.org/2000/svg" xmlns:xlink="http://www.w3.org/1999/xlink">
<g id="graph0" class="graph" transform="scale(1 1) rotate(0) translate(4 208)">
<title>Graphical Class Hierarchy</title>
<!-- Node0 -->
<g id="Node000000" class="node">
<title>Node0</title>
<g id="a_Node000000"><a xlink:href="classBuggyState.html" target="_top" xlink:title="The Buggy State class is an abstract class that represents the abstract state the buggy can be in.">
<polygon fill="white" stroke="#666666" points="73,-111 0,-111 0,-92 73,-92 73,-111"/>
<text text-anchor="middle" x="36.5" y="-99" font-family="Helvetica,sans-Serif" font-size="10.00">BuggyState</text>
</a>
</g>
</g>
<!-- Node1 -->
<g id="Node000001" class="node">
<title>Node1</title>
<g id="a_Node000001"><a xlink:href="classCalibrationState.html" target="_top" xlink:title="The calibration state of the buggy is the first state it enters after being placed on the track....">
<polygon fill="white" stroke="#666666" points="234.5,-204 139.5,-204 139.5,-185 234.5,-185 234.5,-204"/>
<text text-anchor="middle" x="187" y="-192" font-family="Helvetica,sans-Serif" font-size="10.00">CalibrationState</text>
</a>
</g>
</g>
<!-- Node0&#45;&gt;Node1 -->
<g id="edge1_Node000000_Node000001" class="edge">
<title>Node0&#45;&gt;Node1</title>
<g id="a_edge1_Node000000_Node000001"><a xlink:title=" ">
<path fill="none" stroke="#63b8ff" d="M49.56,-119.17C62.3,-136.46 84,-162.2 109,-176.5 118.18,-181.75 128.8,-185.47 139.17,-188.1"/>
<polygon fill="#63b8ff" stroke="#63b8ff" points="52.4,-117.12 43.74,-111.01 46.7,-121.18 52.4,-117.12"/>
</a>
</g>
</g>
<!-- Node2 -->
<g id="Node000002" class="node">
<title>Node2</title>
<g id="a_Node000002"><a xlink:href="classDrivingStraightState.html" target="_top" xlink:title=" ">
<polygon fill="white" stroke="#666666" points="245,-167 129,-167 129,-148 245,-148 245,-167"/>
<text text-anchor="middle" x="187" y="-155" font-family="Helvetica,sans-Serif" font-size="10.00">DrivingStraightState</text>
</a>
</g>
</g>
<!-- Node0&#45;&gt;Node2 -->
<g id="edge2_Node000000_Node000002" class="edge">
<title>Node0&#45;&gt;Node2</title>
<g id="a_edge2_Node000000_Node000002"><a xlink:title=" ">
<path fill="none" stroke="#63b8ff" d="M61.28,-116.14C74.85,-123.98 92.43,-133.28 109,-139.5 117.74,-142.78 127.27,-145.59 136.55,-147.94"/>
<polygon fill="#63b8ff" stroke="#63b8ff" points="62.97,-113.08 52.58,-111 59.41,-119.1 62.97,-113.08"/>
</a>
</g>
</g>
<!-- Node3 -->
<g id="Node000003" class="node">
<title>Node3</title>
<g id="a_Node000003"><a xlink:href="classIdleState.html" target="_top" xlink:title="The idle state represents a state in which the buggy operates normaly but is not driving.">
<polygon fill="white" stroke="#666666" points="217,-130 157,-130 157,-111 217,-111 217,-130"/>
<text text-anchor="middle" x="187" y="-118" font-family="Helvetica,sans-Serif" font-size="10.00">IdleState</text>
</a>
</g>
</g>
<!-- Node0&#45;&gt;Node3 -->
<g id="edge3_Node000000_Node000003" class="edge">
<title>Node0&#45;&gt;Node3</title>
<g id="a_edge3_Node000000_Node000003"><a xlink:title=" ">
<path fill="none" stroke="#63b8ff" d="M83.02,-107.32C107,-110.39 135.7,-114.06 156.71,-116.75"/>
<polygon fill="#63b8ff" stroke="#63b8ff" points="83.43,-103.85 73.07,-106.05 82.54,-110.79 83.43,-103.85"/>
</a>
</g>
</g>
<!-- Node4 -->
<g id="Node000004" class="node">
<title>Node4</title>
<g id="a_Node000004"><a xlink:href="classLineFollowingState.html" target="_top" xlink:title="In the Line following state the buggy is trying to follow the line using the IR sensors....">
<polygon fill="white" stroke="#666666" points="241.5,-93 132.5,-93 132.5,-74 241.5,-74 241.5,-93"/>
<text text-anchor="middle" x="187" y="-81" font-family="Helvetica,sans-Serif" font-size="10.00">LineFollowingState</text>
</a>
</g>
</g>
<!-- Node0&#45;&gt;Node4 -->
<g id="edge4_Node000000_Node000004" class="edge">
<title>Node0&#45;&gt;Node4</title>
<g id="a_edge4_Node000000_Node000004"><a xlink:title=" ">
<path fill="none" stroke="#63b8ff" d="M83,-95.98C98.62,-94.09 116.24,-91.96 132.43,-89.99"/>
<polygon fill="#63b8ff" stroke="#63b8ff" points="82.58,-92.51 73.07,-97.19 83.42,-99.46 82.58,-92.51"/>
</a>
</g>
</g>
<!-- Node5 -->
<g id="Node000005" class="node">
<title>Node5</title>
<g id="a_Node000005"><a xlink:href="classObjectDetectedHandlerState.html" target="_top" xlink:title="This state is entered before the buggy goes into ObjectDetectedState. It is used to save the previous...">
<polygon fill="white" stroke="#666666" points="265,-56 109,-56 109,-37 265,-37 265,-56"/>
<text text-anchor="middle" x="187" y="-44" font-family="Helvetica,sans-Serif" font-size="10.00">ObjectDetectedHandlerState</text>
</a>
</g>
</g>
<!-- Node0&#45;&gt;Node5 -->
<g id="edge5_Node000000_Node000005" class="edge">
<title>Node0&#45;&gt;Node5</title>
<g id="a_edge5_Node000000_Node000005"><a xlink:title=" ">
<path fill="none" stroke="#63b8ff" d="M62.85,-86.98C76.25,-79.76 93.16,-71.36 109,-65.5 118.81,-61.87 129.59,-58.72 139.89,-56.09"/>
<polygon fill="#63b8ff" stroke="#63b8ff" points="60.86,-84.08 53.78,-91.97 64.23,-90.22 60.86,-84.08"/>
</a>
</g>
</g>
<!-- Node6 -->
<g id="Node000006" class="node">
<title>Node6</title>
<g id="a_Node000006"><a xlink:href="classObjectDetectedState.html" target="_top" xlink:title="The state the Buggy enters when an object is detected during driving.">
<polygon fill="white" stroke="#666666" points="246,-19 128,-19 128,0 246,0 246,-19"/>
<text text-anchor="middle" x="187" y="-7" font-family="Helvetica,sans-Serif" font-size="10.00">ObjectDetectedState</text>
</a>
</g>
</g>
<!-- Node0&#45;&gt;Node6 -->
<g id="edge6_Node000000_Node000006" class="edge">
<title>Node0&#45;&gt;Node6</title>
<g id="a_edge6_Node000000_Node000006"><a xlink:title=" ">
<path fill="none" stroke="#63b8ff" d="M50.47,-83.37C63.42,-66.62 84.82,-42.31 109,-28.5 115.82,-24.61 123.41,-21.51 131.11,-19.04"/>
<polygon fill="#63b8ff" stroke="#63b8ff" points="47.37,-81.68 44.19,-91.78 52.98,-85.86 47.37,-81.68"/>
</a>
</g>
</g>
</g>
</svg>
