<?xml version="1.0" encoding="UTF-8" standalone="no"?>
<!DOCTYPE svg PUBLIC "-//W3C//DTD SVG 1.1//EN"
 "http://www.w3.org/Graphics/SVG/1.1/DTD/svg11.dtd">
<!-- Generated by graphviz version 2.43.0 (0)
 -->
<!-- Title: Graphical Class Hierarchy Pages: 1 -->
<svg width="235pt" height="138pt"
 viewBox="0.00 0.00 235.00 138.00" xmlns="http://www.w3.org/2000/svg" xmlns:xlink="http://www.w3.org/1999/xlink">
<g id="graph0" class="graph" transform="scale(1 1) rotate(0) translate(4 134)">
<title>Graphical Class Hierarchy</title>
<!-- Node0 -->
<g id="Node000000" class="node">
<title>Node0</title>
<g id="a_Node000000"><a xlink:href="classBuggyState.html" target="_top" xlink:title="The Buggy State class is an abstract class that represents the abstract state the buggy can be in....">
<polygon fill="white" stroke="#666666" points="73,-74 0,-74 0,-55 73,-55 73,-74"/>
<text text-anchor="middle" x="36.5" y="-62" font-family="Helvetica,sans-Serif" font-size="10.00">BuggyState</text>
</a>
</g>
</g>
<!-- Node1 -->
<g id="Node000001" class="node">
<title>Node1</title>
<g id="a_Node000001"><a xlink:href="classCalibrationState.html" target="_top" xlink:title="The calibration state of the buggy is the first state it enters after being placed on the track....">
<polygon fill="white" stroke="#666666" points="215.5,-130 120.5,-130 120.5,-111 215.5,-111 215.5,-130"/>
<text text-anchor="middle" x="168" y="-118" font-family="Helvetica,sans-Serif" font-size="10.00">CalibrationState</text>
</a>
</g>
</g>
<!-- Node0&#45;&gt;Node1 -->
<g id="edge1_Node000000_Node000001" class="edge">
<title>Node0&#45;&gt;Node1</title>
<g id="a_edge1_Node000000_Node000001"><a xlink:title=" ">
<path fill="none" stroke="#63b8ff" d="M62.26,-79.14C75.77,-86.75 92.97,-95.82 109,-102.5 116.49,-105.62 124.73,-108.49 132.58,-110.98"/>
<polygon fill="#63b8ff" stroke="#63b8ff" points="63.96,-76.08 53.55,-74.15 60.49,-82.16 63.96,-76.08"/>
</a>
</g>
</g>
<!-- Node2 -->
<g id="Node000002" class="node">
<title>Node2</title>
<g id="a_Node000002"><a xlink:href="classIdleState.html" target="_top" xlink:title="The idle state represents a state in which the buggy operates normaly but is not driving....">
<polygon fill="white" stroke="#666666" points="198,-93 138,-93 138,-74 198,-74 198,-93"/>
<text text-anchor="middle" x="168" y="-81" font-family="Helvetica,sans-Serif" font-size="10.00">IdleState</text>
</a>
</g>
</g>
<!-- Node0&#45;&gt;Node2 -->
<g id="edge2_Node000000_Node000002" class="edge">
<title>Node0&#45;&gt;Node2</title>
<g id="a_edge2_Node000000_Node000002"><a xlink:title=" ">
<path fill="none" stroke="#63b8ff" d="M83.34,-71.23C101.51,-73.89 121.85,-76.88 137.93,-79.23"/>
<polygon fill="#63b8ff" stroke="#63b8ff" points="83.63,-67.73 73.23,-69.74 82.62,-74.66 83.63,-67.73"/>
</a>
</g>
</g>
<!-- Node3 -->
<g id="Node000003" class="node">
<title>Node3</title>
<g id="a_Node000003"><a xlink:href="classLineFollowingState.html" target="_top" xlink:title="In the Line following state the buggy is trying to follow the line using the IR sensors....">
<polygon fill="white" stroke="#666666" points="222.5,-56 113.5,-56 113.5,-37 222.5,-37 222.5,-56"/>
<text text-anchor="middle" x="168" y="-44" font-family="Helvetica,sans-Serif" font-size="10.00">LineFollowingState</text>
</a>
</g>
</g>
<!-- Node0&#45;&gt;Node3 -->
<g id="edge3_Node000000_Node000003" class="edge">
<title>Node0&#45;&gt;Node3</title>
<g id="a_edge3_Node000000_Node000003"><a xlink:title=" ">
<path fill="none" stroke="#63b8ff" d="M83.16,-58.15C92.95,-56.79 103.38,-55.34 113.44,-53.95"/>
<polygon fill="#63b8ff" stroke="#63b8ff" points="82.65,-54.69 73.23,-59.53 83.62,-61.62 82.65,-54.69"/>
</a>
</g>
</g>
<!-- Node4 -->
<g id="Node000004" class="node">
<title>Node4</title>
<g id="a_Node000004"><a xlink:href="classObjectDetectedState.html" target="_top" xlink:title=" ">
<polygon fill="white" stroke="#666666" points="227,-19 109,-19 109,0 227,0 227,-19"/>
<text text-anchor="middle" x="168" y="-7" font-family="Helvetica,sans-Serif" font-size="10.00">ObjectDetectedState</text>
</a>
</g>
</g>
<!-- Node0&#45;&gt;Node4 -->
<g id="edge4_Node000000_Node000004" class="edge">
<title>Node0&#45;&gt;Node4</title>
<g id="a_edge4_Node000000_Node000004"><a xlink:title=" ">
<path fill="none" stroke="#63b8ff" d="M63.85,-50.04C77.16,-43.05 93.7,-34.82 109,-28.5 117.33,-25.06 126.52,-21.81 135.08,-19.01"/>
<polygon fill="#63b8ff" stroke="#63b8ff" points="61.96,-47.08 54.79,-54.88 65.26,-53.26 61.96,-47.08"/>
</a>
</g>
</g>
</g>
</svg>
