<?xml version="1.0" encoding="UTF-8" standalone="no"?>
<!DOCTYPE svg PUBLIC "-//W3C//DTD SVG 1.1//EN"
 "http://www.w3.org/Graphics/SVG/1.1/DTD/svg11.dtd">
<!-- Generated by graphviz version 2.43.0 (0)
 -->
<!-- Title: Graphical Class Hierarchy Pages: 1 -->
<svg width="273pt" height="346pt"
 viewBox="0.00 0.00 273.00 346.00" xmlns="http://www.w3.org/2000/svg" xmlns:xlink="http://www.w3.org/1999/xlink">
<g id="graph0" class="graph" transform="scale(1 1) rotate(0) translate(4 342)">
<title>Graphical Class Hierarchy</title>
<!-- Node0 -->
<g id="Node000000" class="node">
<title>Node0</title>
<g id="a_Node000000"><a xlink:href="classBuggyState.html" target="_top" xlink:title="The Buggy State class is an abstract class that represents the abstract state the buggy can be in.">
<polygon fill="white" stroke="#666666" points="73,-190 0,-190 0,-171 73,-171 73,-190"/>
<text text-anchor="middle" x="36.5" y="-178" font-family="Helvetica,sans-Serif" font-size="10.00">BuggyState</text>
</a>
</g>
</g>
<!-- Node1 -->
<g id="Node000001" class="node">
<title>Node1</title>
<g id="a_Node000001"><a xlink:href="classCalibrationState.html" target="_top" xlink:title="The calibration state of the buggy is the first state it enters after being placed on the track....">
<polygon fill="white" stroke="#666666" points="234.5,-338 139.5,-338 139.5,-319 234.5,-319 234.5,-338"/>
<text text-anchor="middle" x="187" y="-326" font-family="Helvetica,sans-Serif" font-size="10.00">CalibrationState</text>
</a>
</g>
</g>
<!-- Node0&#45;&gt;Node1 -->
<g id="edge1_Node000000_Node000001" class="edge">
<title>Node0&#45;&gt;Node1</title>
<g id="a_edge1_Node000000_Node000001"><a xlink:title=" ">
<path fill="none" stroke="#63b8ff" d="M42.64,-199.81C51.32,-228.55 71.69,-282.21 109,-310.5 117.75,-317.14 128.55,-321.38 139.27,-324.08"/>
<polygon fill="#63b8ff" stroke="#63b8ff" points="45.98,-198.78 39.87,-190.12 39.25,-200.7 45.98,-198.78"/>
</a>
</g>
</g>
<!-- Node2 -->
<g id="Node000002" class="node">
<title>Node2</title>
<g id="a_Node000002"><a xlink:href="classCruiseControlState.html" target="_top" xlink:title=" ">
<polygon fill="white" stroke="#666666" points="241,-301 133,-301 133,-282 241,-282 241,-301"/>
<text text-anchor="middle" x="187" y="-289" font-family="Helvetica,sans-Serif" font-size="10.00">CruiseControlState</text>
</a>
</g>
</g>
<!-- Node0&#45;&gt;Node2 -->
<g id="edge2_Node000000_Node000002" class="edge">
<title>Node0&#45;&gt;Node2</title>
<g id="a_edge2_Node000000_Node000002"><a xlink:title=" ">
<path fill="none" stroke="#63b8ff" d="M46.77,-199.21C58.35,-220.57 80.18,-254.93 109,-273.5 116.15,-278.11 124.36,-281.54 132.69,-284.1"/>
<polygon fill="#63b8ff" stroke="#63b8ff" points="49.78,-197.41 42.06,-190.16 43.57,-200.65 49.78,-197.41"/>
</a>
</g>
</g>
<!-- Node3 -->
<g id="Node000003" class="node">
<title>Node3</title>
<g id="a_Node000003"><a xlink:href="classIdleState.html" target="_top" xlink:title="The idle state represents a state in which the buggy operates normaly but is not driving.">
<polygon fill="white" stroke="#666666" points="217,-264 157,-264 157,-245 217,-245 217,-264"/>
<text text-anchor="middle" x="187" y="-252" font-family="Helvetica,sans-Serif" font-size="10.00">IdleState</text>
</a>
</g>
</g>
<!-- Node0&#45;&gt;Node3 -->
<g id="edge3_Node000000_Node000003" class="edge">
<title>Node0&#45;&gt;Node3</title>
<g id="a_edge3_Node000000_Node000003"><a xlink:title=" ">
<path fill="none" stroke="#63b8ff" d="M54.8,-197.62C68.44,-210.17 88.51,-226.68 109,-236.5 123.98,-243.68 142,-248.09 156.84,-250.75"/>
<polygon fill="#63b8ff" stroke="#63b8ff" points="56.86,-194.75 47.19,-190.41 52.04,-199.83 56.86,-194.75"/>
</a>
</g>
</g>
<!-- Node4 -->
<g id="Node000004" class="node">
<title>Node4</title>
<g id="a_Node000004"><a xlink:href="classJustDriveState.html" target="_top" xlink:title=" ">
<polygon fill="white" stroke="#666666" points="230,-227 144,-227 144,-208 230,-208 230,-227"/>
<text text-anchor="middle" x="187" y="-215" font-family="Helvetica,sans-Serif" font-size="10.00">JustDriveState</text>
</a>
</g>
</g>
<!-- Node0&#45;&gt;Node4 -->
<g id="edge4_Node000000_Node000004" class="edge">
<title>Node0&#45;&gt;Node4</title>
<g id="a_edge4_Node000000_Node000004"><a xlink:title=" ">
<path fill="none" stroke="#63b8ff" d="M82.44,-192.66C91.24,-194.98 100.4,-197.35 109,-199.5 120.32,-202.33 132.61,-205.26 143.98,-207.92"/>
<polygon fill="#63b8ff" stroke="#63b8ff" points="83.29,-189.27 72.72,-190.09 81.49,-196.03 83.29,-189.27"/>
</a>
</g>
</g>
<!-- Node5 -->
<g id="Node000005" class="node">
<title>Node5</title>
<g id="a_Node000005"><a xlink:href="classLineFollowingState.html" target="_top" xlink:title="In the Line following state the buggy is trying to follow the line using the IR sensors....">
<polygon fill="white" stroke="#666666" points="241.5,-190 132.5,-190 132.5,-171 241.5,-171 241.5,-190"/>
<text text-anchor="middle" x="187" y="-178" font-family="Helvetica,sans-Serif" font-size="10.00">LineFollowingState</text>
</a>
</g>
</g>
<!-- Node0&#45;&gt;Node5 -->
<g id="edge5_Node000000_Node000005" class="edge">
<title>Node0&#45;&gt;Node5</title>
<g id="a_edge5_Node000000_Node000005"><a xlink:title=" ">
<path fill="none" stroke="#63b8ff" d="M83.45,-180.5C98.95,-180.5 116.39,-180.5 132.43,-180.5"/>
<polygon fill="#63b8ff" stroke="#63b8ff" points="83.07,-177 73.07,-180.5 83.07,-184 83.07,-177"/>
</a>
</g>
</g>
<!-- Node6 -->
<g id="Node000006" class="node">
<title>Node6</title>
<g id="a_Node000006"><a xlink:href="classLineFollowingState__TURN__LEFT.html" target="_top" xlink:title="A special sub state of LineFollowing which preferes a left turn when following the line.">
<polygon fill="white" stroke="#666666" points="241.5,-152.5 132.5,-152.5 132.5,-122.5 241.5,-122.5 241.5,-152.5"/>
<text text-anchor="start" x="140.5" y="-140.5" font-family="Helvetica,sans-Serif" font-size="10.00">LineFollowingState</text>
<text text-anchor="middle" x="187" y="-129.5" font-family="Helvetica,sans-Serif" font-size="10.00">_TURN_LEFT</text>
</a>
</g>
</g>
<!-- Node0&#45;&gt;Node6 -->
<g id="edge6_Node000000_Node000006" class="edge">
<title>Node0&#45;&gt;Node6</title>
<g id="a_edge6_Node000000_Node000006"><a xlink:title=" ">
<path fill="none" stroke="#63b8ff" d="M80.52,-168.04C97.29,-163.19 116.65,-157.58 134.18,-152.51"/>
<polygon fill="#63b8ff" stroke="#63b8ff" points="79.09,-164.81 70.46,-170.96 81.04,-171.54 79.09,-164.81"/>
</a>
</g>
</g>
<!-- Node7 -->
<g id="Node000007" class="node">
<title>Node7</title>
<g id="a_Node000007"><a xlink:href="classLineFollowingState__TURN__RIGHT.html" target="_top" xlink:title="A special sub state of LineFollowing which preferes a right turn when following the line.">
<polygon fill="white" stroke="#666666" points="241.5,-104.5 132.5,-104.5 132.5,-74.5 241.5,-74.5 241.5,-104.5"/>
<text text-anchor="start" x="140.5" y="-92.5" font-family="Helvetica,sans-Serif" font-size="10.00">LineFollowingState</text>
<text text-anchor="middle" x="187" y="-81.5" font-family="Helvetica,sans-Serif" font-size="10.00">_TURN_RIGHT</text>
</a>
</g>
</g>
<!-- Node0&#45;&gt;Node7 -->
<g id="edge7_Node000000_Node000007" class="edge">
<title>Node0&#45;&gt;Node7</title>
<g id="a_edge7_Node000000_Node000007"><a xlink:title=" ">
<path fill="none" stroke="#63b8ff" d="M51.84,-163.22C65.21,-148.13 86.43,-126.65 109,-113.5 116.26,-109.27 124.35,-105.71 132.47,-102.73"/>
<polygon fill="#63b8ff" stroke="#63b8ff" points="49.14,-160.99 45.26,-170.85 54.44,-165.56 49.14,-160.99"/>
</a>
</g>
</g>
<!-- Node8 -->
<g id="Node000008" class="node">
<title>Node8</title>
<g id="a_Node000008"><a xlink:href="classObjectDetectedHandlerState.html" target="_top" xlink:title="This state is entered before the buggy goes into ObjectDetectedState. It is used to save the previous...">
<polygon fill="white" stroke="#666666" points="265,-56 109,-56 109,-37 265,-37 265,-56"/>
<text text-anchor="middle" x="187" y="-44" font-family="Helvetica,sans-Serif" font-size="10.00">ObjectDetectedHandlerState</text>
</a>
</g>
</g>
<!-- Node0&#45;&gt;Node8 -->
<g id="edge8_Node000000_Node000008" class="edge">
<title>Node0&#45;&gt;Node8</title>
<g id="a_edge8_Node000000_Node000008"><a xlink:title=" ">
<path fill="none" stroke="#63b8ff" d="M44.16,-161.24C54.12,-135.39 75.4,-89.91 109,-65.5 114.35,-61.62 120.4,-58.52 126.7,-56.05"/>
<polygon fill="#63b8ff" stroke="#63b8ff" points="40.85,-160.11 40.69,-170.7 47.42,-162.52 40.85,-160.11"/>
</a>
</g>
</g>
<!-- Node9 -->
<g id="Node000009" class="node">
<title>Node9</title>
<g id="a_Node000009"><a xlink:href="classObjectDetectedState.html" target="_top" xlink:title="The state the Buggy enters when an object is detected during driving.">
<polygon fill="white" stroke="#666666" points="246,-19 128,-19 128,0 246,0 246,-19"/>
<text text-anchor="middle" x="187" y="-7" font-family="Helvetica,sans-Serif" font-size="10.00">ObjectDetectedState</text>
</a>
</g>
</g>
<!-- Node0&#45;&gt;Node9 -->
<g id="edge9_Node000000_Node000009" class="edge">
<title>Node0&#45;&gt;Node9</title>
<g id="a_edge9_Node000000_Node000009"><a xlink:title=" ">
<path fill="none" stroke="#63b8ff" d="M41.09,-160.84C48.12,-128.21 66.83,-63.06 109,-28.5 114.54,-23.96 121,-20.48 127.79,-17.82"/>
<polygon fill="#63b8ff" stroke="#63b8ff" points="37.61,-160.43 39.08,-170.92 44.47,-161.8 37.61,-160.43"/>
</a>
</g>
</g>
</g>
</svg>
