<?xml version="1.0" encoding="UTF-8" standalone="no"?>
<!DOCTYPE svg PUBLIC "-//W3C//DTD SVG 1.1//EN"
 "http://www.w3.org/Graphics/SVG/1.1/DTD/svg11.dtd">
<!-- Generated by graphviz version 2.43.0 (0)
 -->
<!-- Title: Graphical Class Hierarchy Pages: 1 -->
<svg width="273pt" height="249pt"
 viewBox="0.00 0.00 273.00 249.00" xmlns="http://www.w3.org/2000/svg" xmlns:xlink="http://www.w3.org/1999/xlink">
<g id="graph0" class="graph" transform="scale(1 1) rotate(0) translate(4 245)">
<title>Graphical Class Hierarchy</title>
<!-- Node0 -->
<g id="Node000000" class="node">
<title>Node0</title>
<g id="a_Node000000"><a xlink:href="classBuggyState.html" target="_top" xlink:title="The Buggy State class is an abstract class that represents the abstract state the buggy can be in.">
<polygon fill="white" stroke="#666666" points="73,-130 0,-130 0,-111 73,-111 73,-130"/>
<text text-anchor="middle" x="36.5" y="-118" font-family="Helvetica,sans-Serif" font-size="10.00">BuggyState</text>
</a>
</g>
</g>
<!-- Node1 -->
<g id="Node000001" class="node">
<title>Node1</title>
<g id="a_Node000001"><a xlink:href="classCalibrationState.html" target="_top" xlink:title="The calibration state of the buggy is the first state it enters after being placed on the track....">
<polygon fill="white" stroke="#666666" points="234.5,-241 139.5,-241 139.5,-222 234.5,-222 234.5,-241"/>
<text text-anchor="middle" x="187" y="-229" font-family="Helvetica,sans-Serif" font-size="10.00">CalibrationState</text>
</a>
</g>
</g>
<!-- Node0&#45;&gt;Node1 -->
<g id="edge1_Node000000_Node000001" class="edge">
<title>Node0&#45;&gt;Node1</title>
<g id="a_edge1_Node000000_Node000001"><a xlink:title=" ">
<path fill="none" stroke="#63b8ff" d="M46.77,-139.21C58.35,-160.57 80.18,-194.93 109,-213.5 118,-219.3 128.66,-223.24 139.14,-225.91"/>
<polygon fill="#63b8ff" stroke="#63b8ff" points="49.78,-137.41 42.06,-130.16 43.57,-140.65 49.78,-137.41"/>
</a>
</g>
</g>
<!-- Node2 -->
<g id="Node000002" class="node">
<title>Node2</title>
<g id="a_Node000002"><a xlink:href="classCruiseControlState.html" target="_top" xlink:title=" ">
<polygon fill="white" stroke="#666666" points="241,-204 133,-204 133,-185 241,-185 241,-204"/>
<text text-anchor="middle" x="187" y="-192" font-family="Helvetica,sans-Serif" font-size="10.00">CruiseControlState</text>
</a>
</g>
</g>
<!-- Node0&#45;&gt;Node2 -->
<g id="edge2_Node000000_Node000002" class="edge">
<title>Node0&#45;&gt;Node2</title>
<g id="a_edge2_Node000000_Node000002"><a xlink:title=" ">
<path fill="none" stroke="#63b8ff" d="M54.8,-137.62C68.44,-150.17 88.51,-166.68 109,-176.5 116.43,-180.06 124.6,-182.94 132.77,-185.26"/>
<polygon fill="#63b8ff" stroke="#63b8ff" points="56.86,-134.75 47.19,-130.41 52.04,-139.83 56.86,-134.75"/>
</a>
</g>
</g>
<!-- Node3 -->
<g id="Node000003" class="node">
<title>Node3</title>
<g id="a_Node000003"><a xlink:href="classIdleState.html" target="_top" xlink:title="The idle state represents a state in which the buggy operates normaly but is not driving.">
<polygon fill="white" stroke="#666666" points="217,-167 157,-167 157,-148 217,-148 217,-167"/>
<text text-anchor="middle" x="187" y="-155" font-family="Helvetica,sans-Serif" font-size="10.00">IdleState</text>
</a>
</g>
</g>
<!-- Node0&#45;&gt;Node3 -->
<g id="edge3_Node000000_Node000003" class="edge">
<title>Node0&#45;&gt;Node3</title>
<g id="a_edge3_Node000000_Node000003"><a xlink:title=" ">
<path fill="none" stroke="#63b8ff" d="M82.44,-132.66C91.24,-134.98 100.4,-137.35 109,-139.5 124.72,-143.42 142.3,-147.56 156.7,-150.87"/>
<polygon fill="#63b8ff" stroke="#63b8ff" points="83.29,-129.27 72.72,-130.09 81.49,-136.03 83.29,-129.27"/>
</a>
</g>
</g>
<!-- Node4 -->
<g id="Node000004" class="node">
<title>Node4</title>
<g id="a_Node000004"><a xlink:href="classJustDriveState.html" target="_top" xlink:title=" ">
<polygon fill="white" stroke="#666666" points="230,-130 144,-130 144,-111 230,-111 230,-130"/>
<text text-anchor="middle" x="187" y="-118" font-family="Helvetica,sans-Serif" font-size="10.00">JustDriveState</text>
</a>
</g>
</g>
<!-- Node0&#45;&gt;Node4 -->
<g id="edge4_Node000000_Node000004" class="edge">
<title>Node0&#45;&gt;Node4</title>
<g id="a_edge4_Node000000_Node000004"><a xlink:title=" ">
<path fill="none" stroke="#63b8ff" d="M83.17,-120.5C102.51,-120.5 124.92,-120.5 143.86,-120.5"/>
<polygon fill="#63b8ff" stroke="#63b8ff" points="83.07,-117 73.07,-120.5 83.07,-124 83.07,-117"/>
</a>
</g>
</g>
<!-- Node5 -->
<g id="Node000005" class="node">
<title>Node5</title>
<g id="a_Node000005"><a xlink:href="classLineFollowingState.html" target="_top" xlink:title="In the Line following state the buggy is trying to follow the line using the IR sensors....">
<polygon fill="white" stroke="#666666" points="241.5,-93 132.5,-93 132.5,-74 241.5,-74 241.5,-93"/>
<text text-anchor="middle" x="187" y="-81" font-family="Helvetica,sans-Serif" font-size="10.00">LineFollowingState</text>
</a>
</g>
</g>
<!-- Node0&#45;&gt;Node5 -->
<g id="edge5_Node000000_Node000005" class="edge">
<title>Node0&#45;&gt;Node5</title>
<g id="a_edge5_Node000000_Node000005"><a xlink:title=" ">
<path fill="none" stroke="#63b8ff" d="M83.05,-109C91.67,-106.83 100.61,-104.59 109,-102.5 121.43,-99.4 134.98,-96.05 147.21,-93.03"/>
<polygon fill="#63b8ff" stroke="#63b8ff" points="81.98,-105.66 73.13,-111.49 83.68,-112.45 81.98,-105.66"/>
</a>
</g>
</g>
<!-- Node6 -->
<g id="Node000006" class="node">
<title>Node6</title>
<g id="a_Node000006"><a xlink:href="classObjectDetectedHandlerState.html" target="_top" xlink:title="This state is entered before the buggy goes into ObjectDetectedState. It is used to save the previous...">
<polygon fill="white" stroke="#666666" points="265,-56 109,-56 109,-37 265,-37 265,-56"/>
<text text-anchor="middle" x="187" y="-44" font-family="Helvetica,sans-Serif" font-size="10.00">ObjectDetectedHandlerState</text>
</a>
</g>
</g>
<!-- Node0&#45;&gt;Node6 -->
<g id="edge6_Node000000_Node000006" class="edge">
<title>Node0&#45;&gt;Node6</title>
<g id="a_edge6_Node000000_Node000006"><a xlink:title=" ">
<path fill="none" stroke="#63b8ff" d="M54.89,-103.77C68.57,-91.49 88.67,-75.29 109,-65.5 116.94,-61.68 125.72,-58.58 134.43,-56.08"/>
<polygon fill="#63b8ff" stroke="#63b8ff" points="52.22,-101.47 47.25,-110.83 56.97,-106.61 52.22,-101.47"/>
</a>
</g>
</g>
<!-- Node7 -->
<g id="Node000007" class="node">
<title>Node7</title>
<g id="a_Node000007"><a xlink:href="classObjectDetectedState.html" target="_top" xlink:title="The state the Buggy enters when an object is detected during driving.">
<polygon fill="white" stroke="#666666" points="246,-19 128,-19 128,0 246,0 246,-19"/>
<text text-anchor="middle" x="187" y="-7" font-family="Helvetica,sans-Serif" font-size="10.00">ObjectDetectedState</text>
</a>
</g>
</g>
<!-- Node0&#45;&gt;Node7 -->
<g id="edge7_Node000000_Node000007" class="edge">
<title>Node0&#45;&gt;Node7</title>
<g id="a_edge7_Node000000_Node000007"><a xlink:title=" ">
<path fill="none" stroke="#63b8ff" d="M46.86,-102.05C58.53,-80.98 80.44,-47.05 109,-28.5 115,-24.6 121.75,-21.5 128.68,-19.04"/>
<polygon fill="#63b8ff" stroke="#63b8ff" points="43.72,-100.51 42.11,-110.98 49.9,-103.8 43.72,-100.51"/>
</a>
</g>
</g>
</g>
</svg>
