<?xml version="1.0" encoding="UTF-8" standalone="no"?>
<!DOCTYPE svg PUBLIC "-//W3C//DTD SVG 1.1//EN"
 "http://www.w3.org/Graphics/SVG/1.1/DTD/svg11.dtd">
<!-- Generated by graphviz version 2.43.0 (0)
 -->
<!-- Title: Packet Pages: 1 -->
<svg width="387pt" height="354pt"
 viewBox="0.00 0.00 386.50 354.00" xmlns="http://www.w3.org/2000/svg" xmlns:xlink="http://www.w3.org/1999/xlink">

<svg id="main" version="1.1" xmlns="http://www.w3.org/2000/svg" xmlns:xlink="http://www.w3.org/1999/xlink" xml:space="preserve">

<style type="text/css"><![CDATA[
.node, .edge {opacity: 0.7;}
.node.selected, .edge.selected {opacity: 1;}
.edge:hover path { stroke: red; }
.edge:hover polygon { stroke: red; fill: red; }
]]></style>
<script type="application/ecmascript" xlink:href="svg.min.js"/>
<svg id="graph" class="graph">
<g id="graph0" class="graph" transform="scale(1 1) rotate(0) translate(4 350)">
<title>Packet</title>
<!-- Node1 -->
<g id="Node000001" class="node">
<title>Node1</title>
<g id="a_Node000001"><a xlink:title="Represents a generic packet containing different types of information.">
<polygon fill="#999999" stroke="transparent" points="243,-49 200,-49 200,0 243,0 243,-49"/>
<text text-anchor="start" x="206" y="-36.5" font-family="Helvetica,sans-Serif" font-size="10.00">Packet</text>
<text text-anchor="start" x="204.5" y="-21.5" font-family="Helvetica,sans-Serif" font-size="10.00">+</text>
<text text-anchor="start" x="217.5" y="-21.5" font-family="Helvetica,sans-Serif" font-size="10.00">type</text>
<text text-anchor="start" x="220" y="-6.5" font-family="Helvetica,sans-Serif" font-size="10.00"> </text>
<polygon fill="#666666" stroke="#666666" points="200.5,-31.5 200.5,-31.5 243.5,-31.5 243.5,-31.5 200.5,-31.5"/>
<polygon fill="#666666" stroke="#666666" points="200.5,-16.5 200.5,-16.5 215.5,-16.5 215.5,-16.5 200.5,-16.5"/>
<polygon fill="#666666" stroke="#666666" points="215.5,-16.5 215.5,-16.5 243.5,-16.5 243.5,-16.5 215.5,-16.5"/>
<polygon fill="none" stroke="#666666" points="200,0 200,-49 243,-49 243,0 200,0"/>
</a>
</g>
</g>
<!-- Node2 -->
<g id="Node000002" class="node">
<title>Node2</title>
<g id="a_Node000002"><a xlink:href="unionPacketContent.html" target="_top" xlink:title="Union containing different packet types.">
<polygon fill="white" stroke="transparent" points="261.5,-145 181.5,-145 181.5,-96 261.5,-96 261.5,-145"/>
<text text-anchor="start" x="186.5" y="-132.5" font-family="Helvetica,sans-Serif" font-size="10.00">PacketContent</text>
<text text-anchor="start" x="219.5" y="-117.5" font-family="Helvetica,sans-Serif" font-size="10.00"> </text>
<text text-anchor="start" x="219.5" y="-102.5" font-family="Helvetica,sans-Serif" font-size="10.00"> </text>
<polygon fill="#666666" stroke="#666666" points="181.5,-127.5 181.5,-127.5 261.5,-127.5 261.5,-127.5 181.5,-127.5"/>
<polygon fill="#666666" stroke="#666666" points="181.5,-112.5 181.5,-112.5 261.5,-112.5 261.5,-112.5 181.5,-112.5"/>
<polygon fill="none" stroke="#666666" points="181.5,-96 181.5,-145 261.5,-145 261.5,-96 181.5,-96"/>
</a>
</g>
</g>
<!-- Node2&#45;&gt;Node1 -->
<g id="edge1_Node000001_Node000002" class="edge">
<title>Node2&#45;&gt;Node1</title>
<g id="a_edge1_Node000001_Node000002"><a xlink:title=" ">
<path fill="none" stroke="#63b8ff" d="M221.5,-95.78C221.5,-85.32 221.5,-72.79 221.5,-61.23"/>
<polygon fill="none" stroke="#63b8ff" points="221.5,-61.21 217.5,-55.21 221.5,-49.21 225.5,-55.21 221.5,-61.21"/>
</a>
</g>
<text text-anchor="middle" x="246" y="-70" font-family="Helvetica,sans-Serif" font-size="10.00" fill="grey"> +content</text>
</g>
<!-- Node3 -->
<g id="Node000003" class="node">
<title>Node3</title>
<g id="a_Node000003"><a xlink:href="structStatusPacket.html" target="_top" xlink:title="Represents a status update packet containing sensor and motor data.">
<polygon fill="white" stroke="transparent" points="157,-346 0,-346 0,-192 157,-192 157,-346"/>
<text text-anchor="start" x="47.5" y="-334" font-family="Helvetica,sans-Serif" font-size="10.00">StatusPacket</text>
<text text-anchor="start" x="4.5" y="-319" font-family="Helvetica,sans-Serif" font-size="10.00">+</text>
<text text-anchor="start" x="17.5" y="-319" font-family="Helvetica,sans-Serif" font-size="10.00">objectDetected</text>
<text text-anchor="start" x="4.5" y="-304" font-family="Helvetica,sans-Serif" font-size="10.00">+</text>
<text text-anchor="start" x="17.5" y="-304" font-family="Helvetica,sans-Serif" font-size="10.00">objectDistance</text>
<text text-anchor="start" x="4.5" y="-289" font-family="Helvetica,sans-Serif" font-size="10.00">+</text>
<text text-anchor="start" x="17.5" y="-289" font-family="Helvetica,sans-Serif" font-size="10.00">leftMotorSpeed</text>
<text text-anchor="start" x="4.5" y="-274" font-family="Helvetica,sans-Serif" font-size="10.00">+</text>
<text text-anchor="start" x="17.5" y="-274" font-family="Helvetica,sans-Serif" font-size="10.00">rightMotorSpeed</text>
<text text-anchor="start" x="4.5" y="-259" font-family="Helvetica,sans-Serif" font-size="10.00">+</text>
<text text-anchor="start" x="17.5" y="-259" font-family="Helvetica,sans-Serif" font-size="10.00">leftMotorDistanceTraveled</text>
<text text-anchor="start" x="4.5" y="-244" font-family="Helvetica,sans-Serif" font-size="10.00">+</text>
<text text-anchor="start" x="17.5" y="-244" font-family="Helvetica,sans-Serif" font-size="10.00">rightMotorDistanceTraveled</text>
<text text-anchor="start" x="4.5" y="-229" font-family="Helvetica,sans-Serif" font-size="10.00">+</text>
<text text-anchor="start" x="17.5" y="-229" font-family="Helvetica,sans-Serif" font-size="10.00">leftIrSensorValue</text>
<text text-anchor="start" x="4.5" y="-214" font-family="Helvetica,sans-Serif" font-size="10.00">+</text>
<text text-anchor="start" x="17.5" y="-214" font-family="Helvetica,sans-Serif" font-size="10.00">rightIrSensorValue</text>
<text text-anchor="start" x="77" y="-199" font-family="Helvetica,sans-Serif" font-size="10.00"> </text>
<polygon fill="#666666" stroke="#666666" points="0.5,-329 0.5,-329 157.5,-329 157.5,-329 0.5,-329"/>
<polygon fill="#666666" stroke="#666666" points="0.5,-209 0.5,-209 15.5,-209 15.5,-209 0.5,-209"/>
<polygon fill="#666666" stroke="#666666" points="15.5,-209 15.5,-209 157.5,-209 157.5,-209 15.5,-209"/>
<polygon fill="none" stroke="#666666" points="0,-192 0,-346 157,-346 157,-192 0,-192"/>
</a>
</g>
</g>
<!-- Node3&#45;&gt;Node2 -->
<g id="edge2_Node000002_Node000003" class="edge">
<title>Node3&#45;&gt;Node2</title>
<g id="a_edge2_Node000002_Node000003"><a xlink:title=" ">
<path fill="none" stroke="#63b8ff" d="M119.7,-191.77C127.15,-181.41 135.46,-171.46 144.5,-163 152.15,-155.84 161.27,-149.53 170.52,-144.12"/>
<polygon fill="none" stroke="#63b8ff" points="170.81,-143.96 174.16,-137.57 181.34,-138.2 178,-144.59 170.81,-143.96"/>
</a>
</g>
<text text-anchor="middle" x="181" y="-166" font-family="Helvetica,sans-Serif" font-size="10.00" fill="grey"> +statusPacket</text>
</g>
<!-- Node4 -->
<g id="Node000004" class="node">
<title>Node4</title>
<g id="a_Node000004"><a xlink:href="structCommandPacket.html" target="_top" xlink:title="Represents a command packet for controlling the system.">
<polygon fill="white" stroke="transparent" points="267.5,-301 175.5,-301 175.5,-237 267.5,-237 267.5,-301"/>
<text text-anchor="start" x="180.5" y="-289" font-family="Helvetica,sans-Serif" font-size="10.00">CommandPacket</text>
<text text-anchor="start" x="191.5" y="-274" font-family="Helvetica,sans-Serif" font-size="10.00">+</text>
<text text-anchor="start" x="216.5" y="-274" font-family="Helvetica,sans-Serif" font-size="10.00">type</text>
<text text-anchor="start" x="191.5" y="-259" font-family="Helvetica,sans-Serif" font-size="10.00">+</text>
<text text-anchor="start" x="216.5" y="-259" font-family="Helvetica,sans-Serif" font-size="10.00">data</text>
<text text-anchor="start" x="219.5" y="-244" font-family="Helvetica,sans-Serif" font-size="10.00"> </text>
<polygon fill="#666666" stroke="#666666" points="175.5,-284 175.5,-284 267.5,-284 267.5,-284 175.5,-284"/>
<polygon fill="#666666" stroke="#666666" points="175.5,-254 175.5,-254 214.5,-254 214.5,-254 175.5,-254"/>
<polygon fill="#666666" stroke="#666666" points="214.5,-254 214.5,-254 267.5,-254 267.5,-254 214.5,-254"/>
<polygon fill="none" stroke="#666666" points="175.5,-237 175.5,-301 267.5,-301 267.5,-237 175.5,-237"/>
</a>
</g>
</g>
<!-- Node4&#45;&gt;Node2 -->
<g id="edge3_Node000002_Node000004" class="edge">
<title>Node4&#45;&gt;Node2</title>
<g id="a_edge3_Node000002_Node000004"><a xlink:title=" ">
<path fill="none" stroke="#63b8ff" d="M221.5,-236.93C221.5,-213.72 221.5,-181.94 221.5,-157.6"/>
<polygon fill="none" stroke="#63b8ff" points="221.5,-157.29 217.5,-151.29 221.5,-145.29 225.5,-151.29 221.5,-157.29"/>
</a>
</g>
<text text-anchor="middle" x="267.5" y="-166" font-family="Helvetica,sans-Serif" font-size="10.00" fill="grey"> +commandPacket</text>
</g>
<!-- Node5 -->
<g id="Node000005" class="node">
<title>Node5</title>
<g id="a_Node000005"><a xlink:href="structLogPacket.html" target="_top" xlink:title="Represents a log message packet.">
<polygon fill="white" stroke="transparent" points="369.5,-301 303.5,-301 303.5,-237 369.5,-237 369.5,-301"/>
<text text-anchor="start" x="312" y="-289" font-family="Helvetica,sans-Serif" font-size="10.00">LogPacket</text>
<text text-anchor="start" x="307.5" y="-274" font-family="Helvetica,sans-Serif" font-size="10.00">+</text>
<text text-anchor="start" x="320.5" y="-274" font-family="Helvetica,sans-Serif" font-size="10.00">count</text>
<text text-anchor="start" x="307.5" y="-259" font-family="Helvetica,sans-Serif" font-size="10.00">+</text>
<text text-anchor="start" x="320.5" y="-259" font-family="Helvetica,sans-Serif" font-size="10.00">message</text>
<text text-anchor="start" x="334.5" y="-244" font-family="Helvetica,sans-Serif" font-size="10.00"> </text>
<polygon fill="#666666" stroke="#666666" points="303.5,-284 303.5,-284 369.5,-284 369.5,-284 303.5,-284"/>
<polygon fill="#666666" stroke="#666666" points="303.5,-254 303.5,-254 318.5,-254 318.5,-254 303.5,-254"/>
<polygon fill="#666666" stroke="#666666" points="318.5,-254 318.5,-254 369.5,-254 369.5,-254 318.5,-254"/>
<polygon fill="none" stroke="#666666" points="303.5,-237 303.5,-301 369.5,-301 369.5,-237 303.5,-237"/>
</a>
</g>
</g>
<!-- Node5&#45;&gt;Node2 -->
<g id="edge4_Node000002_Node000005" class="edge">
<title>Node5&#45;&gt;Node2</title>
<g id="a_edge4_Node000002_Node000005"><a xlink:title=" ">
<path fill="none" stroke="#63b8ff" d="M337.2,-236.8C336.13,-214.06 331.22,-183.73 314.5,-163 303.97,-149.95 288.48,-140.87 273.15,-134.62"/>
<polygon fill="none" stroke="#63b8ff" points="272.81,-134.49 265.8,-136.19 261.55,-130.37 268.56,-128.67 272.81,-134.49"/>
</a>
</g>
<text text-anchor="middle" x="349.5" y="-166" font-family="Helvetica,sans-Serif" font-size="10.00" fill="grey"> +logPacket</text>
</g>
</g>
</svg>
</svg>

<style type='text/css'>
<![CDATA[
[data-mouse-over-selected='false'] { opacity: 0.7; }
[data-mouse-over-selected='true']  { opacity: 1.0; }
]]>
</style>
<script type="application/ecmascript"><![CDATA[
document.addEventListener('DOMContentLoaded', (event) => {
  highlightEdges();
  highlightAdjacentNodes();
});
]]></script>
</svg>
