<?xml version="1.0" encoding="UTF-8" standalone="no"?>
<!DOCTYPE svg PUBLIC "-//W3C//DTD SVG 1.1//EN"
 "http://www.w3.org/Graphics/SVG/1.1/DTD/svg11.dtd">
<!-- Generated by graphviz version 2.43.0 (0)
 -->
<!-- Title: IdentifiedRoadSign Pages: 1 -->
<svg width="110pt" height="213pt"
 viewBox="0.00 0.00 110.00 213.00" xmlns="http://www.w3.org/2000/svg" xmlns:xlink="http://www.w3.org/1999/xlink">
<g id="graph0" class="graph" transform="scale(1 1) rotate(0) translate(4 209)">
<title>IdentifiedRoadSign</title>
<!-- Node1 -->
<g id="Node000001" class="node">
<title>Node1</title>
<g id="a_Node000001"><a xlink:title="The IdentifiedRoadSign structure holds the information about a sign that was recognized.">
<polygon fill="#999999" stroke="transparent" points="102,-79 0,-79 0,0 102,0 102,-79"/>
<text text-anchor="start" x="5" y="-66.5" font-family="Helvetica,sans-Serif" font-size="10.00">IdentifiedRoadSign</text>
<text text-anchor="start" x="9.5" y="-51.5" font-family="Helvetica,sans-Serif" font-size="10.00">+</text>
<text text-anchor="start" x="28" y="-51.5" font-family="Helvetica,sans-Serif" font-size="10.00">timestamp</text>
<text text-anchor="start" x="9.5" y="-36.5" font-family="Helvetica,sans-Serif" font-size="10.00">+</text>
<text text-anchor="start" x="28" y="-36.5" font-family="Helvetica,sans-Serif" font-size="10.00">size</text>
<text text-anchor="start" x="9.5" y="-21.5" font-family="Helvetica,sans-Serif" font-size="10.00">+</text>
<text text-anchor="start" x="28" y="-21.5" font-family="Helvetica,sans-Serif" font-size="10.00">estDistance</text>
<text text-anchor="start" x="49" y="-6.5" font-family="Helvetica,sans-Serif" font-size="10.00"> </text>
<polygon fill="#666666" stroke="#666666" points="0,-61.5 0,-61.5 102,-61.5 102,-61.5 0,-61.5"/>
<polygon fill="#666666" stroke="#666666" points="0,-16.5 0,-16.5 26,-16.5 26,-16.5 0,-16.5"/>
<polygon fill="#666666" stroke="#666666" points="26,-16.5 26,-16.5 102,-16.5 102,-16.5 26,-16.5"/>
<polygon fill="none" stroke="#666666" points="0,0 0,-79 102,-79 102,0 0,0"/>
</a>
</g>
</g>
<!-- Node2 -->
<g id="Node000002" class="node">
<title>Node2</title>
<g id="a_Node000002"><a xlink:href="structRoadSign.html" target="_top" xlink:title="A RoadSign structure containing necessarry information about a roadsign.">
<polygon fill="white" stroke="transparent" points="82,-205 20,-205 20,-126 82,-126 82,-205"/>
<text text-anchor="start" x="28" y="-192.5" font-family="Helvetica,sans-Serif" font-size="10.00">RoadSign</text>
<text text-anchor="start" x="24" y="-177.5" font-family="Helvetica,sans-Serif" font-size="10.00">+</text>
<text text-anchor="start" x="37" y="-177.5" font-family="Helvetica,sans-Serif" font-size="10.00">id</text>
<text text-anchor="start" x="24" y="-162.5" font-family="Helvetica,sans-Serif" font-size="10.00">+</text>
<text text-anchor="start" x="37" y="-162.5" font-family="Helvetica,sans-Serif" font-size="10.00">name</text>
<text text-anchor="start" x="24" y="-147.5" font-family="Helvetica,sans-Serif" font-size="10.00">+</text>
<text text-anchor="start" x="37" y="-147.5" font-family="Helvetica,sans-Serif" font-size="10.00">callback</text>
<text text-anchor="start" x="49" y="-132.5" font-family="Helvetica,sans-Serif" font-size="10.00"> </text>
<polygon fill="#666666" stroke="#666666" points="20,-187.5 20,-187.5 82,-187.5 82,-187.5 20,-187.5"/>
<polygon fill="#666666" stroke="#666666" points="20,-142.5 20,-142.5 35,-142.5 35,-142.5 20,-142.5"/>
<polygon fill="#666666" stroke="#666666" points="35,-142.5 35,-142.5 82,-142.5 82,-142.5 35,-142.5"/>
<polygon fill="none" stroke="#666666" points="20,-126 20,-205 82,-205 82,-126 20,-126"/>
</a>
</g>
</g>
<!-- Node2&#45;&gt;Node1 -->
<g id="edge1_Node000001_Node000002" class="edge">
<title>Node2&#45;&gt;Node1</title>
<g id="a_edge1_Node000001_Node000002"><a xlink:title=" ">
<path fill="none" stroke="#63b8ff" d="M51,-125.95C51,-114.98 51,-102.87 51,-91.3"/>
<polygon fill="none" stroke="#63b8ff" points="51,-91.03 47,-85.03 51,-79.03 55,-85.03 51,-91.03"/>
</a>
</g>
<text text-anchor="middle" x="67" y="-100" font-family="Helvetica,sans-Serif" font-size="10.00" fill="grey"> +sign</text>
</g>
</g>
</svg>
