<?xml version="1.0" encoding="UTF-8" standalone="no"?>
<!DOCTYPE svg PUBLIC "-//W3C//DTD SVG 1.1//EN"
 "http://www.w3.org/Graphics/SVG/1.1/DTD/svg11.dtd">
<!-- Generated by graphviz version 2.43.0 (0)
 -->
<!-- Title: Packet Pages: 1 -->
<svg width="478pt" height="354pt"
 viewBox="0.00 0.00 477.50 354.00" xmlns="http://www.w3.org/2000/svg" xmlns:xlink="http://www.w3.org/1999/xlink">
<g id="graph0" class="graph" transform="scale(1 1) rotate(0) translate(4 350)">
<title>Packet</title>
<!-- Node1 -->
<g id="Node000001" class="node">
<title>Node1</title>
<g id="a_Node000001"><a xlink:title="Represents a generic packet containing different types of information.">
<polygon fill="#999999" stroke="transparent" points="300,-49 257,-49 257,0 300,0 300,-49"/>
<text text-anchor="start" x="263" y="-36.5" font-family="Helvetica,sans-Serif" font-size="10.00">Packet</text>
<text text-anchor="start" x="261.5" y="-21.5" font-family="Helvetica,sans-Serif" font-size="10.00">+</text>
<text text-anchor="start" x="274.5" y="-21.5" font-family="Helvetica,sans-Serif" font-size="10.00">type</text>
<text text-anchor="start" x="277" y="-6.5" font-family="Helvetica,sans-Serif" font-size="10.00"> </text>
<polygon fill="#666666" stroke="#666666" points="257.5,-31.5 257.5,-31.5 300.5,-31.5 300.5,-31.5 257.5,-31.5"/>
<polygon fill="#666666" stroke="#666666" points="257.5,-16.5 257.5,-16.5 272.5,-16.5 272.5,-16.5 257.5,-16.5"/>
<polygon fill="#666666" stroke="#666666" points="272.5,-16.5 272.5,-16.5 300.5,-16.5 300.5,-16.5 272.5,-16.5"/>
<polygon fill="none" stroke="#666666" points="257,0 257,-49 300,-49 300,0 257,0"/>
</a>
</g>
</g>
<!-- Node2 -->
<g id="Node000002" class="node">
<title>Node2</title>
<g id="a_Node000002"><a xlink:href="unionPacketContent.html" target="_top" xlink:title="Union containing different packet types.">
<polygon fill="white" stroke="transparent" points="318.5,-145 238.5,-145 238.5,-96 318.5,-96 318.5,-145"/>
<text text-anchor="start" x="243.5" y="-132.5" font-family="Helvetica,sans-Serif" font-size="10.00">PacketContent</text>
<text text-anchor="start" x="276.5" y="-117.5" font-family="Helvetica,sans-Serif" font-size="10.00"> </text>
<text text-anchor="start" x="276.5" y="-102.5" font-family="Helvetica,sans-Serif" font-size="10.00"> </text>
<polygon fill="#666666" stroke="#666666" points="238.5,-127.5 238.5,-127.5 318.5,-127.5 318.5,-127.5 238.5,-127.5"/>
<polygon fill="#666666" stroke="#666666" points="238.5,-112.5 238.5,-112.5 318.5,-112.5 318.5,-112.5 238.5,-112.5"/>
<polygon fill="none" stroke="#666666" points="238.5,-96 238.5,-145 318.5,-145 318.5,-96 238.5,-96"/>
</a>
</g>
</g>
<!-- Node2&#45;&gt;Node1 -->
<g id="edge1_Node000001_Node000002" class="edge">
<title>Node2&#45;&gt;Node1</title>
<g id="a_edge1_Node000001_Node000002"><a xlink:title=" ">
<path fill="none" stroke="#63b8ff" d="M278.5,-95.78C278.5,-85.32 278.5,-72.79 278.5,-61.23"/>
<polygon fill="none" stroke="#63b8ff" points="278.5,-61.21 274.5,-55.21 278.5,-49.21 282.5,-55.21 278.5,-61.21"/>
</a>
</g>
<text text-anchor="middle" x="303" y="-70" font-family="Helvetica,sans-Serif" font-size="10.00" fill="grey"> +content</text>
</g>
<!-- Node3 -->
<g id="Node000003" class="node">
<title>Node3</title>
<g id="a_Node000003"><a xlink:href="structStatusPacket.html" target="_top" xlink:title="Represents a status update packet containing sensor and motor data.">
<polygon fill="white" stroke="transparent" points="157,-346 0,-346 0,-192 157,-192 157,-346"/>
<text text-anchor="start" x="47.5" y="-334" font-family="Helvetica,sans-Serif" font-size="10.00">StatusPacket</text>
<text text-anchor="start" x="4.5" y="-319" font-family="Helvetica,sans-Serif" font-size="10.00">+</text>
<text text-anchor="start" x="17.5" y="-319" font-family="Helvetica,sans-Serif" font-size="10.00">objectDetected</text>
<text text-anchor="start" x="4.5" y="-304" font-family="Helvetica,sans-Serif" font-size="10.00">+</text>
<text text-anchor="start" x="17.5" y="-304" font-family="Helvetica,sans-Serif" font-size="10.00">objectDistance</text>
<text text-anchor="start" x="4.5" y="-289" font-family="Helvetica,sans-Serif" font-size="10.00">+</text>
<text text-anchor="start" x="17.5" y="-289" font-family="Helvetica,sans-Serif" font-size="10.00">leftMotorSpeed</text>
<text text-anchor="start" x="4.5" y="-274" font-family="Helvetica,sans-Serif" font-size="10.00">+</text>
<text text-anchor="start" x="17.5" y="-274" font-family="Helvetica,sans-Serif" font-size="10.00">rightMotorSpeed</text>
<text text-anchor="start" x="4.5" y="-259" font-family="Helvetica,sans-Serif" font-size="10.00">+</text>
<text text-anchor="start" x="17.5" y="-259" font-family="Helvetica,sans-Serif" font-size="10.00">leftMotorDistanceTraveled</text>
<text text-anchor="start" x="4.5" y="-244" font-family="Helvetica,sans-Serif" font-size="10.00">+</text>
<text text-anchor="start" x="17.5" y="-244" font-family="Helvetica,sans-Serif" font-size="10.00">rightMotorDistanceTraveled</text>
<text text-anchor="start" x="4.5" y="-229" font-family="Helvetica,sans-Serif" font-size="10.00">+</text>
<text text-anchor="start" x="17.5" y="-229" font-family="Helvetica,sans-Serif" font-size="10.00">leftIrSensorValue</text>
<text text-anchor="start" x="4.5" y="-214" font-family="Helvetica,sans-Serif" font-size="10.00">+</text>
<text text-anchor="start" x="17.5" y="-214" font-family="Helvetica,sans-Serif" font-size="10.00">rightIrSensorValue</text>
<text text-anchor="start" x="77" y="-199" font-family="Helvetica,sans-Serif" font-size="10.00"> </text>
<polygon fill="#666666" stroke="#666666" points="0.5,-329 0.5,-329 157.5,-329 157.5,-329 0.5,-329"/>
<polygon fill="#666666" stroke="#666666" points="0.5,-209 0.5,-209 15.5,-209 15.5,-209 0.5,-209"/>
<polygon fill="#666666" stroke="#666666" points="15.5,-209 15.5,-209 157.5,-209 157.5,-209 15.5,-209"/>
<polygon fill="none" stroke="#666666" points="0,-192 0,-346 157,-346 157,-192 0,-192"/>
</a>
</g>
</g>
<!-- Node3&#45;&gt;Node2 -->
<g id="edge2_Node000002_Node000003" class="edge">
<title>Node3&#45;&gt;Node2</title>
<g id="a_edge2_Node000002_Node000003"><a xlink:title=" ">
<path fill="none" stroke="#63b8ff" d="M113.93,-191.91C121.5,-181.1 130.34,-170.97 140.5,-163 165.11,-143.71 198.59,-133.36 226.41,-127.82"/>
<polygon fill="none" stroke="#63b8ff" points="226.53,-127.8 231.73,-122.8 238.34,-125.67 233.15,-130.67 226.53,-127.8"/>
</a>
</g>
<text text-anchor="middle" x="177" y="-166" font-family="Helvetica,sans-Serif" font-size="10.00" fill="grey"> +statusPacket</text>
</g>
<!-- Node4 -->
<g id="Node000004" class="node">
<title>Node4</title>
<g id="a_Node000004"><a xlink:href="structCommandPacket.html" target="_top" xlink:title="Represents a command packet for controlling the system.">
<polygon fill="white" stroke="transparent" points="267.5,-301 175.5,-301 175.5,-237 267.5,-237 267.5,-301"/>
<text text-anchor="start" x="180.5" y="-289" font-family="Helvetica,sans-Serif" font-size="10.00">CommandPacket</text>
<text text-anchor="start" x="191.5" y="-274" font-family="Helvetica,sans-Serif" font-size="10.00">+</text>
<text text-anchor="start" x="216.5" y="-274" font-family="Helvetica,sans-Serif" font-size="10.00">type</text>
<text text-anchor="start" x="191.5" y="-259" font-family="Helvetica,sans-Serif" font-size="10.00">+</text>
<text text-anchor="start" x="216.5" y="-259" font-family="Helvetica,sans-Serif" font-size="10.00">data</text>
<text text-anchor="start" x="219.5" y="-244" font-family="Helvetica,sans-Serif" font-size="10.00"> </text>
<polygon fill="#666666" stroke="#666666" points="175.5,-284 175.5,-284 267.5,-284 267.5,-284 175.5,-284"/>
<polygon fill="#666666" stroke="#666666" points="175.5,-254 175.5,-254 214.5,-254 214.5,-254 175.5,-254"/>
<polygon fill="#666666" stroke="#666666" points="214.5,-254 214.5,-254 267.5,-254 267.5,-254 214.5,-254"/>
<polygon fill="none" stroke="#666666" points="175.5,-237 175.5,-301 267.5,-301 267.5,-237 175.5,-237"/>
</a>
</g>
</g>
<!-- Node4&#45;&gt;Node2 -->
<g id="edge3_Node000002_Node000004" class="edge">
<title>Node4&#45;&gt;Node2</title>
<g id="a_edge3_Node000002_Node000004"><a xlink:title=" ">
<path fill="none" stroke="#63b8ff" d="M214.79,-236.87C211.7,-215.01 210.91,-185.74 222.5,-163 224.43,-159.22 226.88,-155.7 229.67,-152.43"/>
<polygon fill="none" stroke="#63b8ff" points="229.76,-152.34 231.22,-145.28 238.3,-143.91 236.84,-150.97 229.76,-152.34"/>
</a>
</g>
<text text-anchor="middle" x="268.5" y="-166" font-family="Helvetica,sans-Serif" font-size="10.00" fill="grey"> +commandPacket</text>
</g>
<!-- Node5 -->
<g id="Node000005" class="node">
<title>Node5</title>
<g id="a_Node000005"><a xlink:href="structControlPacket.html" target="_top" xlink:title=" ">
<polygon fill="white" stroke="transparent" points="375,-301 298,-301 298,-237 375,-237 375,-301"/>
<text text-anchor="start" x="303.5" y="-289" font-family="Helvetica,sans-Serif" font-size="10.00">ControlPacket</text>
<text text-anchor="start" x="314.5" y="-274" font-family="Helvetica,sans-Serif" font-size="10.00">+</text>
<text text-anchor="start" x="339.5" y="-274" font-family="Helvetica,sans-Serif" font-size="10.00">x</text>
<text text-anchor="start" x="314.5" y="-259" font-family="Helvetica,sans-Serif" font-size="10.00">+</text>
<text text-anchor="start" x="339.5" y="-259" font-family="Helvetica,sans-Serif" font-size="10.00">y</text>
<text text-anchor="start" x="335" y="-244" font-family="Helvetica,sans-Serif" font-size="10.00"> </text>
<polygon fill="#bfbfbf" stroke="#bfbfbf" points="298.5,-284 298.5,-284 375.5,-284 375.5,-284 298.5,-284"/>
<polygon fill="#bfbfbf" stroke="#bfbfbf" points="298.5,-254 298.5,-254 337.5,-254 337.5,-254 298.5,-254"/>
<polygon fill="#bfbfbf" stroke="#bfbfbf" points="337.5,-254 337.5,-254 375.5,-254 375.5,-254 337.5,-254"/>
<polygon fill="none" stroke="#bfbfbf" points="298,-237 298,-301 375,-301 375,-237 298,-237"/>
</a>
</g>
</g>
<!-- Node5&#45;&gt;Node2 -->
<g id="edge4_Node000002_Node000005" class="edge">
<title>Node5&#45;&gt;Node2</title>
<g id="a_edge4_Node000002_Node000005"><a xlink:title=" ">
<path fill="none" stroke="#63b8ff" d="M334.12,-236.78C331.5,-215.15 326.01,-186.19 314.5,-163 313.13,-160.23 311.53,-157.5 309.78,-154.84"/>
<polygon fill="none" stroke="#63b8ff" points="309.62,-154.64 302.83,-152.22 302.46,-145.01 309.25,-147.44 309.62,-154.64"/>
</a>
</g>
<text text-anchor="middle" x="357" y="-166" font-family="Helvetica,sans-Serif" font-size="10.00" fill="grey"> +controlPacket</text>
</g>
<!-- Node6 -->
<g id="Node000006" class="node">
<title>Node6</title>
<g id="a_Node000006"><a xlink:href="structLogPacket.html" target="_top" xlink:title="Represents a log message packet.">
<polygon fill="white" stroke="transparent" points="469.5,-301 403.5,-301 403.5,-237 469.5,-237 469.5,-301"/>
<text text-anchor="start" x="412" y="-289" font-family="Helvetica,sans-Serif" font-size="10.00">LogPacket</text>
<text text-anchor="start" x="407.5" y="-274" font-family="Helvetica,sans-Serif" font-size="10.00">+</text>
<text text-anchor="start" x="420.5" y="-274" font-family="Helvetica,sans-Serif" font-size="10.00">count</text>
<text text-anchor="start" x="407.5" y="-259" font-family="Helvetica,sans-Serif" font-size="10.00">+</text>
<text text-anchor="start" x="420.5" y="-259" font-family="Helvetica,sans-Serif" font-size="10.00">message</text>
<text text-anchor="start" x="434.5" y="-244" font-family="Helvetica,sans-Serif" font-size="10.00"> </text>
<polygon fill="#666666" stroke="#666666" points="403.5,-284 403.5,-284 469.5,-284 469.5,-284 403.5,-284"/>
<polygon fill="#666666" stroke="#666666" points="403.5,-254 403.5,-254 418.5,-254 418.5,-254 403.5,-254"/>
<polygon fill="#666666" stroke="#666666" points="418.5,-254 418.5,-254 469.5,-254 469.5,-254 418.5,-254"/>
<polygon fill="none" stroke="#666666" points="403.5,-237 403.5,-301 469.5,-301 469.5,-237 403.5,-237"/>
</a>
</g>
</g>
<!-- Node6&#45;&gt;Node2 -->
<g id="edge5_Node000002_Node000006" class="edge">
<title>Node6&#45;&gt;Node2</title>
<g id="a_edge5_Node000002_Node000006"><a xlink:title=" ">
<path fill="none" stroke="#63b8ff" d="M432.8,-236.55C428.5,-213.37 419.26,-182.6 399.5,-163 381.1,-144.76 354.34,-134.52 330.67,-128.79"/>
<polygon fill="none" stroke="#63b8ff" points="330.35,-128.72 323.64,-131.36 318.63,-126.18 325.34,-123.54 330.35,-128.72"/>
</a>
</g>
<text text-anchor="middle" x="435.5" y="-166" font-family="Helvetica,sans-Serif" font-size="10.00" fill="grey"> +logPacket</text>
</g>
</g>
</svg>
