<?xml version="1.0" encoding="UTF-8" standalone="no"?>
<!DOCTYPE svg PUBLIC "-//W3C//DTD SVG 1.1//EN"
 "http://www.w3.org/Graphics/SVG/1.1/DTD/svg11.dtd">
<!-- Generated by graphviz version 2.43.0 (0)
 -->
<!-- Title: PacketContent Pages: 1 -->
<svg width="387pt" height="258pt"
 viewBox="0.00 0.00 386.50 258.00" xmlns="http://www.w3.org/2000/svg" xmlns:xlink="http://www.w3.org/1999/xlink">
<g id="graph0" class="graph" transform="scale(1 1) rotate(0) translate(4 254)">
<title>PacketContent</title>
<!-- Node1 -->
<g id="Node000001" class="node">
<title>Node1</title>
<g id="a_Node000001"><a xlink:title=" ">
<polygon fill="#999999" stroke="transparent" points="261.5,-49 181.5,-49 181.5,0 261.5,0 261.5,-49"/>
<text text-anchor="start" x="186.5" y="-36.5" font-family="Helvetica,sans-Serif" font-size="10.00">PacketContent</text>
<text text-anchor="start" x="219.5" y="-21.5" font-family="Helvetica,sans-Serif" font-size="10.00"> </text>
<text text-anchor="start" x="219.5" y="-6.5" font-family="Helvetica,sans-Serif" font-size="10.00"> </text>
<polygon fill="#666666" stroke="#666666" points="181.5,-31.5 181.5,-31.5 261.5,-31.5 261.5,-31.5 181.5,-31.5"/>
<polygon fill="#666666" stroke="#666666" points="181.5,-16.5 181.5,-16.5 261.5,-16.5 261.5,-16.5 181.5,-16.5"/>
<polygon fill="none" stroke="#666666" points="181.5,0 181.5,-49 261.5,-49 261.5,0 181.5,0"/>
</a>
</g>
</g>
<!-- Node2 -->
<g id="Node000002" class="node">
<title>Node2</title>
<g id="a_Node000002"><a xlink:href="structStatusPacket.html" target="_top" xlink:title=" ">
<polygon fill="white" stroke="transparent" points="157,-250 0,-250 0,-96 157,-96 157,-250"/>
<text text-anchor="start" x="47.5" y="-238" font-family="Helvetica,sans-Serif" font-size="10.00">StatusPacket</text>
<text text-anchor="start" x="4.5" y="-223" font-family="Helvetica,sans-Serif" font-size="10.00">+</text>
<text text-anchor="start" x="17.5" y="-223" font-family="Helvetica,sans-Serif" font-size="10.00">objectDetected</text>
<text text-anchor="start" x="4.5" y="-208" font-family="Helvetica,sans-Serif" font-size="10.00">+</text>
<text text-anchor="start" x="17.5" y="-208" font-family="Helvetica,sans-Serif" font-size="10.00">objectDistance</text>
<text text-anchor="start" x="4.5" y="-193" font-family="Helvetica,sans-Serif" font-size="10.00">+</text>
<text text-anchor="start" x="17.5" y="-193" font-family="Helvetica,sans-Serif" font-size="10.00">leftMotorSpeed</text>
<text text-anchor="start" x="4.5" y="-178" font-family="Helvetica,sans-Serif" font-size="10.00">+</text>
<text text-anchor="start" x="17.5" y="-178" font-family="Helvetica,sans-Serif" font-size="10.00">rightMotorSpeed</text>
<text text-anchor="start" x="4.5" y="-163" font-family="Helvetica,sans-Serif" font-size="10.00">+</text>
<text text-anchor="start" x="17.5" y="-163" font-family="Helvetica,sans-Serif" font-size="10.00">leftMotorDistanceTraveled</text>
<text text-anchor="start" x="4.5" y="-148" font-family="Helvetica,sans-Serif" font-size="10.00">+</text>
<text text-anchor="start" x="17.5" y="-148" font-family="Helvetica,sans-Serif" font-size="10.00">rightMotorDistanceTraveled</text>
<text text-anchor="start" x="4.5" y="-133" font-family="Helvetica,sans-Serif" font-size="10.00">+</text>
<text text-anchor="start" x="17.5" y="-133" font-family="Helvetica,sans-Serif" font-size="10.00">leftIrSensorValue</text>
<text text-anchor="start" x="4.5" y="-118" font-family="Helvetica,sans-Serif" font-size="10.00">+</text>
<text text-anchor="start" x="17.5" y="-118" font-family="Helvetica,sans-Serif" font-size="10.00">rightIrSensorValue</text>
<text text-anchor="start" x="77" y="-103" font-family="Helvetica,sans-Serif" font-size="10.00"> </text>
<polygon fill="#bfbfbf" stroke="#bfbfbf" points="0.5,-233 0.5,-233 157.5,-233 157.5,-233 0.5,-233"/>
<polygon fill="#bfbfbf" stroke="#bfbfbf" points="0.5,-113 0.5,-113 15.5,-113 15.5,-113 0.5,-113"/>
<polygon fill="#bfbfbf" stroke="#bfbfbf" points="15.5,-113 15.5,-113 157.5,-113 157.5,-113 15.5,-113"/>
<polygon fill="none" stroke="#bfbfbf" points="0,-96 0,-250 157,-250 157,-96 0,-96"/>
</a>
</g>
</g>
<!-- Node2&#45;&gt;Node1 -->
<g id="edge1_Node000001_Node000002" class="edge">
<title>Node2&#45;&gt;Node1</title>
<g id="a_edge1_Node000001_Node000002"><a xlink:title=" ">
<path fill="none" stroke="#63b8ff" d="M119.7,-95.77C127.15,-85.41 135.46,-75.46 144.5,-67 152.15,-59.84 161.27,-53.53 170.52,-48.12"/>
<polygon fill="none" stroke="#63b8ff" points="170.81,-47.96 174.16,-41.57 181.34,-42.2 178,-48.59 170.81,-47.96"/>
</a>
</g>
<text text-anchor="middle" x="181" y="-70" font-family="Helvetica,sans-Serif" font-size="10.00" fill="grey"> +statusPacket</text>
</g>
<!-- Node3 -->
<g id="Node000003" class="node">
<title>Node3</title>
<g id="a_Node000003"><a xlink:href="structCommandPacket.html" target="_top" xlink:title=" ">
<polygon fill="white" stroke="transparent" points="267.5,-205 175.5,-205 175.5,-141 267.5,-141 267.5,-205"/>
<text text-anchor="start" x="180.5" y="-193" font-family="Helvetica,sans-Serif" font-size="10.00">CommandPacket</text>
<text text-anchor="start" x="191.5" y="-178" font-family="Helvetica,sans-Serif" font-size="10.00">+</text>
<text text-anchor="start" x="216.5" y="-178" font-family="Helvetica,sans-Serif" font-size="10.00">type</text>
<text text-anchor="start" x="191.5" y="-163" font-family="Helvetica,sans-Serif" font-size="10.00">+</text>
<text text-anchor="start" x="216.5" y="-163" font-family="Helvetica,sans-Serif" font-size="10.00">data</text>
<text text-anchor="start" x="219.5" y="-148" font-family="Helvetica,sans-Serif" font-size="10.00"> </text>
<polygon fill="#bfbfbf" stroke="#bfbfbf" points="175.5,-188 175.5,-188 267.5,-188 267.5,-188 175.5,-188"/>
<polygon fill="#bfbfbf" stroke="#bfbfbf" points="175.5,-158 175.5,-158 214.5,-158 214.5,-158 175.5,-158"/>
<polygon fill="#bfbfbf" stroke="#bfbfbf" points="214.5,-158 214.5,-158 267.5,-158 267.5,-158 214.5,-158"/>
<polygon fill="none" stroke="#bfbfbf" points="175.5,-141 175.5,-205 267.5,-205 267.5,-141 175.5,-141"/>
</a>
</g>
</g>
<!-- Node3&#45;&gt;Node1 -->
<g id="edge2_Node000001_Node000003" class="edge">
<title>Node3&#45;&gt;Node1</title>
<g id="a_edge2_Node000001_Node000003"><a xlink:title=" ">
<path fill="none" stroke="#63b8ff" d="M221.5,-140.93C221.5,-117.72 221.5,-85.94 221.5,-61.6"/>
<polygon fill="none" stroke="#63b8ff" points="221.5,-61.29 217.5,-55.29 221.5,-49.29 225.5,-55.29 221.5,-61.29"/>
</a>
</g>
<text text-anchor="middle" x="267.5" y="-70" font-family="Helvetica,sans-Serif" font-size="10.00" fill="grey"> +commandPacket</text>
</g>
<!-- Node4 -->
<g id="Node000004" class="node">
<title>Node4</title>
<g id="a_Node000004"><a xlink:href="structLogPacket.html" target="_top" xlink:title=" ">
<polygon fill="white" stroke="transparent" points="369.5,-205 303.5,-205 303.5,-141 369.5,-141 369.5,-205"/>
<text text-anchor="start" x="312" y="-193" font-family="Helvetica,sans-Serif" font-size="10.00">LogPacket</text>
<text text-anchor="start" x="307.5" y="-178" font-family="Helvetica,sans-Serif" font-size="10.00">+</text>
<text text-anchor="start" x="320.5" y="-178" font-family="Helvetica,sans-Serif" font-size="10.00">count</text>
<text text-anchor="start" x="307.5" y="-163" font-family="Helvetica,sans-Serif" font-size="10.00">+</text>
<text text-anchor="start" x="320.5" y="-163" font-family="Helvetica,sans-Serif" font-size="10.00">message</text>
<text text-anchor="start" x="334.5" y="-148" font-family="Helvetica,sans-Serif" font-size="10.00"> </text>
<polygon fill="#bfbfbf" stroke="#bfbfbf" points="303.5,-188 303.5,-188 369.5,-188 369.5,-188 303.5,-188"/>
<polygon fill="#bfbfbf" stroke="#bfbfbf" points="303.5,-158 303.5,-158 318.5,-158 318.5,-158 303.5,-158"/>
<polygon fill="#bfbfbf" stroke="#bfbfbf" points="318.5,-158 318.5,-158 369.5,-158 369.5,-158 318.5,-158"/>
<polygon fill="none" stroke="#bfbfbf" points="303.5,-141 303.5,-205 369.5,-205 369.5,-141 303.5,-141"/>
</a>
</g>
</g>
<!-- Node4&#45;&gt;Node1 -->
<g id="edge3_Node000001_Node000004" class="edge">
<title>Node4&#45;&gt;Node1</title>
<g id="a_edge3_Node000001_Node000004"><a xlink:title=" ">
<path fill="none" stroke="#63b8ff" d="M337.2,-140.8C336.13,-118.06 331.22,-87.73 314.5,-67 303.97,-53.95 288.48,-44.87 273.15,-38.62"/>
<polygon fill="none" stroke="#63b8ff" points="272.81,-38.49 265.8,-40.19 261.55,-34.37 268.56,-32.67 272.81,-38.49"/>
</a>
</g>
<text text-anchor="middle" x="349.5" y="-70" font-family="Helvetica,sans-Serif" font-size="10.00" fill="grey"> +logPacket</text>
</g>
</g>
</svg>
