<?xml version="1.0" encoding="UTF-8" standalone="no"?>
<!DOCTYPE svg PUBLIC "-//W3C//DTD SVG 1.1//EN"
 "http://www.w3.org/Graphics/SVG/1.1/DTD/svg11.dtd">
<!-- Generated by graphviz version 2.43.0 (0)
 -->
<!-- Title: PacketContent Pages: 1 -->
<svg width="478pt" height="258pt"
 viewBox="0.00 0.00 477.50 258.00" xmlns="http://www.w3.org/2000/svg" xmlns:xlink="http://www.w3.org/1999/xlink">
<g id="graph0" class="graph" transform="scale(1 1) rotate(0) translate(4 254)">
<title>PacketContent</title>
<!-- Node1 -->
<g id="Node000001" class="node">
<title>Node1</title>
<g id="a_Node000001"><a xlink:title="Union containing different packet types.">
<polygon fill="#999999" stroke="transparent" points="318.5,-49 238.5,-49 238.5,0 318.5,0 318.5,-49"/>
<text text-anchor="start" x="243.5" y="-36.5" font-family="Helvetica,sans-Serif" font-size="10.00">PacketContent</text>
<text text-anchor="start" x="276.5" y="-21.5" font-family="Helvetica,sans-Serif" font-size="10.00"> </text>
<text text-anchor="start" x="276.5" y="-6.5" font-family="Helvetica,sans-Serif" font-size="10.00"> </text>
<polygon fill="#666666" stroke="#666666" points="238.5,-31.5 238.5,-31.5 318.5,-31.5 318.5,-31.5 238.5,-31.5"/>
<polygon fill="#666666" stroke="#666666" points="238.5,-16.5 238.5,-16.5 318.5,-16.5 318.5,-16.5 238.5,-16.5"/>
<polygon fill="none" stroke="#666666" points="238.5,0 238.5,-49 318.5,-49 318.5,0 238.5,0"/>
</a>
</g>
</g>
<!-- Node2 -->
<g id="Node000002" class="node">
<title>Node2</title>
<g id="a_Node000002"><a xlink:href="structStatusPacket.html" target="_top" xlink:title="Represents a status update packet containing sensor and motor data.">
<polygon fill="white" stroke="transparent" points="157,-250 0,-250 0,-96 157,-96 157,-250"/>
<text text-anchor="start" x="47.5" y="-238" font-family="Helvetica,sans-Serif" font-size="10.00">StatusPacket</text>
<text text-anchor="start" x="4.5" y="-223" font-family="Helvetica,sans-Serif" font-size="10.00">+</text>
<text text-anchor="start" x="17.5" y="-223" font-family="Helvetica,sans-Serif" font-size="10.00">objectDetected</text>
<text text-anchor="start" x="4.5" y="-208" font-family="Helvetica,sans-Serif" font-size="10.00">+</text>
<text text-anchor="start" x="17.5" y="-208" font-family="Helvetica,sans-Serif" font-size="10.00">objectDistance</text>
<text text-anchor="start" x="4.5" y="-193" font-family="Helvetica,sans-Serif" font-size="10.00">+</text>
<text text-anchor="start" x="17.5" y="-193" font-family="Helvetica,sans-Serif" font-size="10.00">leftMotorSpeed</text>
<text text-anchor="start" x="4.5" y="-178" font-family="Helvetica,sans-Serif" font-size="10.00">+</text>
<text text-anchor="start" x="17.5" y="-178" font-family="Helvetica,sans-Serif" font-size="10.00">rightMotorSpeed</text>
<text text-anchor="start" x="4.5" y="-163" font-family="Helvetica,sans-Serif" font-size="10.00">+</text>
<text text-anchor="start" x="17.5" y="-163" font-family="Helvetica,sans-Serif" font-size="10.00">leftMotorDistanceTraveled</text>
<text text-anchor="start" x="4.5" y="-148" font-family="Helvetica,sans-Serif" font-size="10.00">+</text>
<text text-anchor="start" x="17.5" y="-148" font-family="Helvetica,sans-Serif" font-size="10.00">rightMotorDistanceTraveled</text>
<text text-anchor="start" x="4.5" y="-133" font-family="Helvetica,sans-Serif" font-size="10.00">+</text>
<text text-anchor="start" x="17.5" y="-133" font-family="Helvetica,sans-Serif" font-size="10.00">leftIrSensorValue</text>
<text text-anchor="start" x="4.5" y="-118" font-family="Helvetica,sans-Serif" font-size="10.00">+</text>
<text text-anchor="start" x="17.5" y="-118" font-family="Helvetica,sans-Serif" font-size="10.00">rightIrSensorValue</text>
<text text-anchor="start" x="77" y="-103" font-family="Helvetica,sans-Serif" font-size="10.00"> </text>
<polygon fill="#666666" stroke="#666666" points="0.5,-233 0.5,-233 157.5,-233 157.5,-233 0.5,-233"/>
<polygon fill="#666666" stroke="#666666" points="0.5,-113 0.5,-113 15.5,-113 15.5,-113 0.5,-113"/>
<polygon fill="#666666" stroke="#666666" points="15.5,-113 15.5,-113 157.5,-113 157.5,-113 15.5,-113"/>
<polygon fill="none" stroke="#666666" points="0,-96 0,-250 157,-250 157,-96 0,-96"/>
</a>
</g>
</g>
<!-- Node2&#45;&gt;Node1 -->
<g id="edge1_Node000001_Node000002" class="edge">
<title>Node2&#45;&gt;Node1</title>
<g id="a_edge1_Node000001_Node000002"><a xlink:title=" ">
<path fill="none" stroke="#63b8ff" d="M113.93,-95.91C121.5,-85.1 130.34,-74.97 140.5,-67 165.11,-47.71 198.59,-37.36 226.41,-31.82"/>
<polygon fill="none" stroke="#63b8ff" points="226.53,-31.8 231.73,-26.8 238.34,-29.67 233.15,-34.67 226.53,-31.8"/>
</a>
</g>
<text text-anchor="middle" x="177" y="-70" font-family="Helvetica,sans-Serif" font-size="10.00" fill="grey"> +statusPacket</text>
</g>
<!-- Node3 -->
<g id="Node000003" class="node">
<title>Node3</title>
<g id="a_Node000003"><a xlink:href="structCommandPacket.html" target="_top" xlink:title="Represents a command packet for controlling the system.">
<polygon fill="white" stroke="transparent" points="267.5,-205 175.5,-205 175.5,-141 267.5,-141 267.5,-205"/>
<text text-anchor="start" x="180.5" y="-193" font-family="Helvetica,sans-Serif" font-size="10.00">CommandPacket</text>
<text text-anchor="start" x="191.5" y="-178" font-family="Helvetica,sans-Serif" font-size="10.00">+</text>
<text text-anchor="start" x="216.5" y="-178" font-family="Helvetica,sans-Serif" font-size="10.00">type</text>
<text text-anchor="start" x="191.5" y="-163" font-family="Helvetica,sans-Serif" font-size="10.00">+</text>
<text text-anchor="start" x="216.5" y="-163" font-family="Helvetica,sans-Serif" font-size="10.00">data</text>
<text text-anchor="start" x="219.5" y="-148" font-family="Helvetica,sans-Serif" font-size="10.00"> </text>
<polygon fill="#666666" stroke="#666666" points="175.5,-188 175.5,-188 267.5,-188 267.5,-188 175.5,-188"/>
<polygon fill="#666666" stroke="#666666" points="175.5,-158 175.5,-158 214.5,-158 214.5,-158 175.5,-158"/>
<polygon fill="#666666" stroke="#666666" points="214.5,-158 214.5,-158 267.5,-158 267.5,-158 214.5,-158"/>
<polygon fill="none" stroke="#666666" points="175.5,-141 175.5,-205 267.5,-205 267.5,-141 175.5,-141"/>
</a>
</g>
</g>
<!-- Node3&#45;&gt;Node1 -->
<g id="edge2_Node000001_Node000003" class="edge">
<title>Node3&#45;&gt;Node1</title>
<g id="a_edge2_Node000001_Node000003"><a xlink:title=" ">
<path fill="none" stroke="#63b8ff" d="M214.79,-140.87C211.7,-119.01 210.91,-89.74 222.5,-67 224.43,-63.22 226.88,-59.7 229.67,-56.43"/>
<polygon fill="none" stroke="#63b8ff" points="229.76,-56.34 231.22,-49.28 238.3,-47.91 236.84,-54.97 229.76,-56.34"/>
</a>
</g>
<text text-anchor="middle" x="268.5" y="-70" font-family="Helvetica,sans-Serif" font-size="10.00" fill="grey"> +commandPacket</text>
</g>
<!-- Node4 -->
<g id="Node000004" class="node">
<title>Node4</title>
<g id="a_Node000004"><a xlink:href="structControlPacket.html" target="_top" xlink:title=" ">
<polygon fill="white" stroke="transparent" points="375,-205 298,-205 298,-141 375,-141 375,-205"/>
<text text-anchor="start" x="303.5" y="-193" font-family="Helvetica,sans-Serif" font-size="10.00">ControlPacket</text>
<text text-anchor="start" x="314.5" y="-178" font-family="Helvetica,sans-Serif" font-size="10.00">+</text>
<text text-anchor="start" x="339.5" y="-178" font-family="Helvetica,sans-Serif" font-size="10.00">x</text>
<text text-anchor="start" x="314.5" y="-163" font-family="Helvetica,sans-Serif" font-size="10.00">+</text>
<text text-anchor="start" x="339.5" y="-163" font-family="Helvetica,sans-Serif" font-size="10.00">y</text>
<text text-anchor="start" x="335" y="-148" font-family="Helvetica,sans-Serif" font-size="10.00"> </text>
<polygon fill="#bfbfbf" stroke="#bfbfbf" points="298.5,-188 298.5,-188 375.5,-188 375.5,-188 298.5,-188"/>
<polygon fill="#bfbfbf" stroke="#bfbfbf" points="298.5,-158 298.5,-158 337.5,-158 337.5,-158 298.5,-158"/>
<polygon fill="#bfbfbf" stroke="#bfbfbf" points="337.5,-158 337.5,-158 375.5,-158 375.5,-158 337.5,-158"/>
<polygon fill="none" stroke="#bfbfbf" points="298,-141 298,-205 375,-205 375,-141 298,-141"/>
</a>
</g>
</g>
<!-- Node4&#45;&gt;Node1 -->
<g id="edge3_Node000001_Node000004" class="edge">
<title>Node4&#45;&gt;Node1</title>
<g id="a_edge3_Node000001_Node000004"><a xlink:title=" ">
<path fill="none" stroke="#63b8ff" d="M334.12,-140.78C331.5,-119.15 326.01,-90.19 314.5,-67 313.13,-64.23 311.53,-61.5 309.78,-58.84"/>
<polygon fill="none" stroke="#63b8ff" points="309.62,-58.64 302.83,-56.22 302.46,-49.01 309.25,-51.44 309.62,-58.64"/>
</a>
</g>
<text text-anchor="middle" x="357" y="-70" font-family="Helvetica,sans-Serif" font-size="10.00" fill="grey"> +controlPacket</text>
</g>
<!-- Node5 -->
<g id="Node000005" class="node">
<title>Node5</title>
<g id="a_Node000005"><a xlink:href="structLogPacket.html" target="_top" xlink:title="Represents a log message packet.">
<polygon fill="white" stroke="transparent" points="469.5,-205 403.5,-205 403.5,-141 469.5,-141 469.5,-205"/>
<text text-anchor="start" x="412" y="-193" font-family="Helvetica,sans-Serif" font-size="10.00">LogPacket</text>
<text text-anchor="start" x="407.5" y="-178" font-family="Helvetica,sans-Serif" font-size="10.00">+</text>
<text text-anchor="start" x="420.5" y="-178" font-family="Helvetica,sans-Serif" font-size="10.00">count</text>
<text text-anchor="start" x="407.5" y="-163" font-family="Helvetica,sans-Serif" font-size="10.00">+</text>
<text text-anchor="start" x="420.5" y="-163" font-family="Helvetica,sans-Serif" font-size="10.00">message</text>
<text text-anchor="start" x="434.5" y="-148" font-family="Helvetica,sans-Serif" font-size="10.00"> </text>
<polygon fill="#666666" stroke="#666666" points="403.5,-188 403.5,-188 469.5,-188 469.5,-188 403.5,-188"/>
<polygon fill="#666666" stroke="#666666" points="403.5,-158 403.5,-158 418.5,-158 418.5,-158 403.5,-158"/>
<polygon fill="#666666" stroke="#666666" points="418.5,-158 418.5,-158 469.5,-158 469.5,-158 418.5,-158"/>
<polygon fill="none" stroke="#666666" points="403.5,-141 403.5,-205 469.5,-205 469.5,-141 403.5,-141"/>
</a>
</g>
</g>
<!-- Node5&#45;&gt;Node1 -->
<g id="edge4_Node000001_Node000005" class="edge">
<title>Node5&#45;&gt;Node1</title>
<g id="a_edge4_Node000001_Node000005"><a xlink:title=" ">
<path fill="none" stroke="#63b8ff" d="M432.8,-140.55C428.5,-117.37 419.26,-86.6 399.5,-67 381.1,-48.76 354.34,-38.52 330.67,-32.79"/>
<polygon fill="none" stroke="#63b8ff" points="330.35,-32.72 323.64,-35.36 318.63,-30.18 325.34,-27.54 330.35,-32.72"/>
</a>
</g>
<text text-anchor="middle" x="435.5" y="-70" font-family="Helvetica,sans-Serif" font-size="10.00" fill="grey"> +logPacket</text>
</g>
</g>
</svg>
